G04*
G04 #@! TF.GenerationSoftware,Altium Limited,Altium Designer,25.2.1 (25)*
G04*
G04 Layer_Color=65535*
%FSLAX44Y44*%
%MOMM*%
G71*
G04*
G04 #@! TF.SameCoordinates,92A9BD70-FE13-4CA2-B9A4-C704DBA8ADFD*
G04*
G04*
G04 #@! TF.FilePolarity,Positive*
G04*
G01*
G75*
%ADD10C,0.1524*%
%ADD11C,0.2000*%
%ADD12C,0.2500*%
%ADD13C,0.5080*%
%ADD14C,0.1270*%
%ADD15C,0.2540*%
%ADD16C,0.0762*%
%ADD17R,0.8000X0.1500*%
G36*
X550769Y207675D02*
X550928D01*
Y207196D01*
X550769D01*
Y206717D01*
X550609D01*
Y206397D01*
X550449D01*
Y205759D01*
X550289D01*
Y205439D01*
X550130D01*
Y204801D01*
X549970D01*
Y204322D01*
X549810D01*
Y204002D01*
X549651D01*
Y203363D01*
X549491D01*
Y203044D01*
X549331D01*
Y202246D01*
X549172D01*
Y201926D01*
X548852D01*
Y207675D01*
X549012D01*
Y207994D01*
X550769D01*
Y207675D01*
D02*
G37*
G36*
X553803Y205919D02*
X553962D01*
Y184041D01*
X553803D01*
Y183881D01*
X546617D01*
Y184041D01*
X546457D01*
Y184201D01*
X546617D01*
Y184839D01*
X546776D01*
Y185159D01*
X546936D01*
Y185798D01*
X547096D01*
Y186277D01*
X547255D01*
Y186596D01*
X547415D01*
Y187395D01*
X547575D01*
Y187714D01*
X547734D01*
Y188353D01*
X547894D01*
Y188672D01*
X548054D01*
Y189151D01*
X548214D01*
Y189790D01*
X548373D01*
Y189949D01*
X548533D01*
Y190269D01*
X548693D01*
Y190429D01*
X548852D01*
Y191706D01*
X549012D01*
Y192185D01*
X549172D01*
Y192664D01*
X549331D01*
Y193303D01*
X549491D01*
Y193622D01*
X549651D01*
Y194261D01*
X549810D01*
Y194580D01*
X549970D01*
Y195060D01*
X550130D01*
Y195698D01*
X550289D01*
Y196018D01*
X550449D01*
Y196656D01*
X550609D01*
Y196976D01*
X550769D01*
Y197615D01*
X550928D01*
Y198094D01*
X551088D01*
Y198413D01*
X551248D01*
Y199052D01*
X551407D01*
Y199371D01*
X551567D01*
Y200010D01*
X551727D01*
Y200489D01*
X551886D01*
Y200968D01*
X552046D01*
Y201447D01*
X552206D01*
Y201607D01*
Y201767D01*
X552365D01*
Y202405D01*
X552525D01*
Y202725D01*
X552685D01*
Y203363D01*
X552845D01*
Y203843D01*
X553004D01*
Y204162D01*
X553164D01*
Y204801D01*
X553324D01*
Y205280D01*
X553483D01*
Y205919D01*
X553643D01*
Y206078D01*
X553803D01*
Y205919D01*
D02*
G37*
G36*
X528572Y207036D02*
X528731D01*
Y190269D01*
X535438D01*
Y205919D01*
X535598D01*
Y206078D01*
X540389D01*
Y205919D01*
X540548D01*
Y190269D01*
X545020D01*
Y189311D01*
X544860D01*
Y188832D01*
X544700D01*
Y188193D01*
X544541D01*
Y187874D01*
X544381D01*
Y187235D01*
X544221D01*
Y186756D01*
X544062D01*
Y186436D01*
X543902D01*
Y185798D01*
X543742D01*
Y185478D01*
X543583D01*
Y184839D01*
X543423D01*
Y184360D01*
X543263D01*
Y184041D01*
X543103D01*
Y183881D01*
X535758D01*
Y183722D01*
X535598D01*
Y183562D01*
X536077D01*
Y183402D01*
X536716D01*
Y183243D01*
X537195D01*
Y183083D01*
X537834D01*
Y182923D01*
X538153D01*
Y182764D01*
X538952D01*
Y182604D01*
X539271D01*
Y182444D01*
X539590D01*
Y182284D01*
X540069D01*
Y182125D01*
X540389D01*
Y181965D01*
X541027D01*
Y181805D01*
X541187D01*
Y181646D01*
X541826D01*
Y181486D01*
X542145D01*
Y181326D01*
X542305D01*
Y180688D01*
X542145D01*
Y180368D01*
X541986D01*
Y179570D01*
X541826D01*
Y179250D01*
X541666D01*
Y178931D01*
X541507D01*
Y178771D01*
X541187D01*
Y178931D01*
X540868D01*
Y179091D01*
X540708D01*
Y179250D01*
X540229D01*
Y179410D01*
X539910D01*
Y179570D01*
X539590D01*
Y179729D01*
X539111D01*
Y179889D01*
X538952D01*
Y180049D01*
X538313D01*
Y180208D01*
X537993D01*
Y180368D01*
X537514D01*
Y180528D01*
X537195D01*
Y180688D01*
X536716D01*
Y180847D01*
X536077D01*
Y181007D01*
X535758D01*
Y181167D01*
X534959D01*
Y181326D01*
X534321D01*
Y181486D01*
X533522D01*
Y181646D01*
X532245D01*
Y181805D01*
X529211D01*
Y181646D01*
X527933D01*
Y181486D01*
X527294D01*
Y181326D01*
X526815D01*
Y181167D01*
X526336D01*
Y181007D01*
X526017D01*
Y180847D01*
X525538D01*
Y180688D01*
X525218D01*
Y180528D01*
X524899D01*
Y180368D01*
X524580D01*
Y180208D01*
X524260D01*
Y180049D01*
X523941D01*
Y179889D01*
X523781D01*
Y179729D01*
X523462D01*
Y179570D01*
X523302D01*
Y179410D01*
X523142D01*
Y179250D01*
X522823D01*
Y179091D01*
X522663D01*
Y178931D01*
X522504D01*
Y178771D01*
X522344D01*
Y178612D01*
X522024D01*
Y178452D01*
X521865D01*
Y178292D01*
X521705D01*
Y177973D01*
X521545D01*
Y177813D01*
X521386D01*
Y177653D01*
X521226D01*
Y177494D01*
X521066D01*
Y177334D01*
X520907D01*
Y177174D01*
X520747D01*
Y177015D01*
X520428D01*
Y176855D01*
X520108D01*
Y176695D01*
X519789D01*
Y176536D01*
X517873D01*
Y176695D01*
X517553D01*
Y176855D01*
X517393D01*
Y177015D01*
X517074D01*
Y177174D01*
X516914D01*
Y177334D01*
X516595D01*
Y177494D01*
X516435D01*
Y177813D01*
X516276D01*
Y177973D01*
X516116D01*
Y178292D01*
X515956D01*
Y178612D01*
X515797D01*
Y178771D01*
X515637D01*
Y180688D01*
X515956D01*
Y181167D01*
X516116D01*
Y181486D01*
X516276D01*
Y181646D01*
X516435D01*
Y182125D01*
X516595D01*
Y182284D01*
X516755D01*
Y182444D01*
X516914D01*
Y182604D01*
X517074D01*
Y182764D01*
X517393D01*
Y182923D01*
X517553D01*
Y183083D01*
X517873D01*
Y183243D01*
X518032D01*
Y183402D01*
X518352D01*
Y183562D01*
X518671D01*
Y183722D01*
X518831D01*
Y183881D01*
X519310D01*
Y184041D01*
X519629D01*
Y184201D01*
X520108D01*
Y184360D01*
X520428D01*
Y184520D01*
X520907D01*
Y184680D01*
X521705D01*
Y184839D01*
X522184D01*
Y184999D01*
X523302D01*
Y185159D01*
X523621D01*
Y207196D01*
X528572D01*
Y207036D01*
D02*
G37*
G36*
X545658Y179570D02*
X545818D01*
Y179410D01*
X546138D01*
Y179250D01*
X546457D01*
Y179091D01*
X546617D01*
Y178931D01*
X546936D01*
Y178771D01*
X547096D01*
Y178612D01*
X547255D01*
Y178452D01*
X547575D01*
Y178292D01*
X547734D01*
Y178132D01*
X548054D01*
Y177973D01*
X548214D01*
Y177813D01*
X548373D01*
Y177653D01*
X548533D01*
Y177494D01*
X548693D01*
Y177334D01*
X548852D01*
Y177174D01*
X549012D01*
Y177015D01*
X549172D01*
Y176855D01*
X549331D01*
Y176695D01*
X549651D01*
Y176216D01*
X549331D01*
Y176057D01*
X549172D01*
Y175897D01*
X548693D01*
Y175737D01*
X548533D01*
Y175578D01*
X548214D01*
Y175418D01*
X547894D01*
Y175258D01*
X547575D01*
Y175098D01*
X547096D01*
Y174939D01*
X546936D01*
Y174779D01*
X546617D01*
Y174619D01*
X546297D01*
Y174460D01*
X545978D01*
Y174300D01*
X545658D01*
Y174140D01*
X545499D01*
Y173981D01*
X545020D01*
Y173821D01*
X544860D01*
Y173661D01*
X544381D01*
Y173501D01*
X544062D01*
Y173342D01*
X543902D01*
Y173182D01*
X543583D01*
Y173022D01*
X543103D01*
Y173501D01*
X543263D01*
Y173981D01*
X543423D01*
Y174300D01*
X543583D01*
Y175098D01*
X543742D01*
Y175418D01*
X543902D01*
Y176057D01*
X544062D01*
Y176536D01*
X544221D01*
Y177015D01*
X544381D01*
Y177653D01*
X544541D01*
Y177973D01*
X544700D01*
Y178771D01*
X544860D01*
Y179091D01*
X545020D01*
Y179570D01*
X545179D01*
Y179729D01*
X545658D01*
Y179570D01*
D02*
G37*
G36*
X46621Y172477D02*
X47281D01*
Y172382D01*
X47658D01*
Y172288D01*
X47941D01*
Y172194D01*
X48318D01*
Y172100D01*
X48507D01*
Y172005D01*
X48884D01*
Y171911D01*
X48978D01*
Y171817D01*
X49261D01*
Y171723D01*
X49449D01*
Y171628D01*
X49355D01*
Y171534D01*
X49072D01*
Y171628D01*
X48884D01*
Y171723D01*
X48318D01*
Y171817D01*
X47281D01*
Y171911D01*
X47093D01*
Y171817D01*
X46056D01*
Y171723D01*
X45679D01*
Y171628D01*
X45490D01*
Y171534D01*
X45113D01*
Y171440D01*
X44925D01*
Y171346D01*
X44736D01*
Y171251D01*
X44548D01*
Y171157D01*
X44359D01*
Y171063D01*
X44171D01*
Y170968D01*
X44076D01*
Y170874D01*
X43888D01*
Y170780D01*
X43794D01*
Y170686D01*
X43699D01*
Y170591D01*
X43605D01*
Y170497D01*
X43417D01*
Y170403D01*
X43322D01*
Y170308D01*
X43228D01*
Y170214D01*
X43134D01*
Y170120D01*
X43039D01*
Y170026D01*
X42945D01*
Y169932D01*
X42851D01*
Y169837D01*
X42757D01*
Y169743D01*
X42662D01*
Y169649D01*
X42568D01*
Y169460D01*
X42474D01*
Y169366D01*
X42380D01*
Y169272D01*
X42285D01*
Y169083D01*
X42191D01*
Y168989D01*
X42097D01*
Y168800D01*
X42003D01*
Y168706D01*
X41908D01*
Y168517D01*
X41814D01*
Y168423D01*
X41720D01*
Y168235D01*
X41625D01*
Y168046D01*
X41531D01*
Y167952D01*
X41437D01*
Y167669D01*
X41343D01*
Y167575D01*
X41248D01*
Y167386D01*
X41154D01*
Y167104D01*
X41060D01*
Y167009D01*
X40966D01*
Y166726D01*
X40871D01*
Y166538D01*
X40777D01*
Y166255D01*
X40683D01*
Y165972D01*
X40589D01*
Y165784D01*
X40494D01*
Y165407D01*
X40400D01*
Y165312D01*
X40306D01*
Y164841D01*
X40212D01*
Y164653D01*
X40117D01*
Y164276D01*
X40023D01*
Y163899D01*
X39929D01*
Y163616D01*
X39834D01*
Y163144D01*
X39740D01*
Y162767D01*
X39646D01*
Y162296D01*
X39552D01*
Y161825D01*
X39457D01*
Y161353D01*
X39363D01*
Y160599D01*
X39269D01*
Y160128D01*
X39175D01*
Y158903D01*
X39080D01*
Y157300D01*
X38986D01*
Y155603D01*
X39080D01*
Y154189D01*
X39175D01*
Y152681D01*
X39269D01*
Y152021D01*
X39363D01*
Y151079D01*
X39457D01*
Y150513D01*
X39552D01*
Y149853D01*
X39646D01*
Y149288D01*
X39740D01*
Y148911D01*
X39834D01*
Y148156D01*
X39929D01*
Y147874D01*
X40023D01*
Y147308D01*
X40117D01*
Y146931D01*
X40212D01*
Y146554D01*
X40306D01*
Y145988D01*
X40400D01*
Y145800D01*
X40494D01*
Y145234D01*
X40589D01*
Y144951D01*
X40683D01*
Y144574D01*
X40777D01*
Y144197D01*
X40871D01*
Y143914D01*
X40966D01*
Y143443D01*
X41060D01*
Y143255D01*
X41154D01*
Y142878D01*
X41248D01*
Y142500D01*
X41343D01*
Y142312D01*
X41437D01*
Y141841D01*
X41531D01*
Y141652D01*
X41625D01*
Y141275D01*
X41720D01*
Y141087D01*
X41814D01*
Y140804D01*
X41908D01*
Y140427D01*
X42003D01*
Y140238D01*
X42097D01*
Y139861D01*
X42191D01*
Y139673D01*
X42285D01*
Y139390D01*
X42380D01*
Y139107D01*
X42474D01*
Y138824D01*
X42568D01*
Y138541D01*
X42662D01*
Y138353D01*
X42757D01*
Y138070D01*
X42851D01*
Y137882D01*
X42945D01*
Y137599D01*
X43039D01*
Y137316D01*
X43134D01*
Y137127D01*
X43228D01*
Y136750D01*
X43322D01*
Y136656D01*
X43417D01*
Y136373D01*
X43511D01*
Y136185D01*
X43605D01*
Y135996D01*
X43699D01*
Y135714D01*
X43794D01*
Y135525D01*
X43888D01*
Y135242D01*
X43982D01*
Y135054D01*
X44076D01*
Y134865D01*
X44171D01*
Y134582D01*
X44265D01*
Y134488D01*
X44359D01*
Y134111D01*
X44453D01*
Y134017D01*
X44548D01*
Y133734D01*
X44642D01*
Y133545D01*
X44736D01*
Y133357D01*
X44830D01*
Y133074D01*
X44925D01*
Y132980D01*
X45019D01*
Y132697D01*
X45113D01*
Y132508D01*
X45208D01*
Y132320D01*
X45302D01*
Y132131D01*
X45396D01*
Y132037D01*
X45490D01*
Y131754D01*
X45585D01*
Y131566D01*
X45679D01*
Y131377D01*
X45773D01*
Y131189D01*
X45867D01*
Y131000D01*
X45962D01*
Y130812D01*
X46056D01*
Y130717D01*
X46150D01*
Y130435D01*
X46244D01*
Y130340D01*
X46339D01*
Y130152D01*
X46433D01*
Y129869D01*
X46527D01*
Y129775D01*
X46621D01*
Y129586D01*
X46716D01*
Y129398D01*
X46810D01*
Y129209D01*
X46904D01*
Y129115D01*
X46999D01*
Y128926D01*
X47093D01*
Y128738D01*
X47187D01*
Y128549D01*
X47281D01*
Y128361D01*
X47376D01*
Y128267D01*
X47470D01*
Y128078D01*
X47564D01*
Y127889D01*
X47658D01*
Y127795D01*
X47753D01*
Y127512D01*
X47847D01*
Y127418D01*
X47941D01*
Y127230D01*
X48035D01*
Y127135D01*
X48130D01*
Y126947D01*
X48224D01*
Y126758D01*
X48318D01*
Y126664D01*
X48412D01*
Y126475D01*
X48507D01*
Y126381D01*
X48601D01*
Y126193D01*
X48695D01*
Y126004D01*
X48790D01*
Y125910D01*
X48884D01*
Y125721D01*
X48978D01*
Y125627D01*
X49072D01*
Y125439D01*
X49167D01*
Y125344D01*
X49261D01*
Y125156D01*
X49355D01*
Y124967D01*
X49449D01*
Y124873D01*
X49544D01*
Y124684D01*
X49638D01*
Y124590D01*
X49732D01*
Y124496D01*
X49826D01*
Y124307D01*
X49921D01*
Y124213D01*
X50015D01*
Y124025D01*
X50109D01*
Y123930D01*
X50204D01*
Y123742D01*
X50298D01*
Y123648D01*
X50392D01*
Y123553D01*
X50486D01*
Y123365D01*
X50581D01*
Y123271D01*
X50675D01*
Y123082D01*
X50769D01*
Y122988D01*
X50863D01*
Y122893D01*
X50958D01*
Y122705D01*
X51052D01*
Y122611D01*
X51146D01*
Y122516D01*
X51241D01*
Y122422D01*
X51335D01*
Y122234D01*
X51429D01*
Y122139D01*
X51523D01*
Y121951D01*
X51617D01*
Y121857D01*
X51712D01*
Y121762D01*
X51806D01*
Y121668D01*
X51900D01*
Y121574D01*
X51995D01*
Y121385D01*
X52089D01*
Y121291D01*
X52183D01*
Y121197D01*
X52277D01*
Y121008D01*
X52372D01*
Y120914D01*
X52466D01*
Y120820D01*
X52560D01*
Y120725D01*
X52654D01*
Y120631D01*
X52749D01*
Y120443D01*
X52843D01*
Y120348D01*
X52937D01*
Y120254D01*
X53032D01*
Y120160D01*
X53126D01*
Y120066D01*
X53220D01*
Y119971D01*
X53314D01*
Y119877D01*
X53409D01*
Y119689D01*
X53503D01*
Y119594D01*
X53597D01*
Y119500D01*
X53691D01*
Y119406D01*
X53786D01*
Y119311D01*
X53880D01*
Y119217D01*
X53974D01*
Y119123D01*
X54068D01*
Y119029D01*
X54163D01*
Y118934D01*
X54257D01*
Y118840D01*
X54351D01*
Y118746D01*
X54446D01*
Y118652D01*
X54540D01*
Y118557D01*
X54634D01*
Y118463D01*
X54728D01*
Y118369D01*
X54823D01*
Y118274D01*
X54917D01*
Y118180D01*
X55011D01*
Y118086D01*
X55105D01*
Y117992D01*
X55200D01*
Y117898D01*
X55294D01*
Y117803D01*
X55388D01*
Y117709D01*
X55482D01*
Y117615D01*
X55577D01*
Y117520D01*
X55671D01*
Y117426D01*
X55765D01*
Y117332D01*
X55954D01*
Y117238D01*
X56048D01*
Y117143D01*
X56142D01*
Y117049D01*
X56237D01*
Y116955D01*
X56331D01*
Y116861D01*
X56425D01*
Y116766D01*
X56519D01*
Y116672D01*
X56708D01*
Y116578D01*
X56802D01*
Y116483D01*
X56896D01*
Y116389D01*
X56991D01*
Y116295D01*
X57085D01*
Y116201D01*
X57273D01*
Y116106D01*
X57368D01*
Y116012D01*
X57462D01*
Y115918D01*
X57650D01*
Y115824D01*
X57745D01*
Y115729D01*
X57933D01*
Y115635D01*
X58028D01*
Y115541D01*
X58216D01*
Y115447D01*
X58310D01*
Y115352D01*
X58405D01*
Y115258D01*
X58593D01*
Y115164D01*
X58687D01*
Y115070D01*
X58876D01*
Y114975D01*
X59064D01*
Y114881D01*
X59159D01*
Y114787D01*
X59347D01*
Y114692D01*
X59536D01*
Y114598D01*
X59724D01*
Y114504D01*
X59819D01*
Y114410D01*
X60101D01*
Y114315D01*
X60290D01*
Y114221D01*
X60384D01*
Y114127D01*
X60667D01*
Y114033D01*
X60761D01*
Y113938D01*
X61044D01*
Y113844D01*
X61327D01*
Y113750D01*
X61515D01*
Y113656D01*
X61798D01*
Y113561D01*
X61987D01*
Y113467D01*
X62458D01*
Y113373D01*
X62646D01*
Y113279D01*
X63118D01*
Y113184D01*
X63589D01*
Y113090D01*
X64626D01*
Y113184D01*
X65286D01*
Y113279D01*
X65851D01*
Y113373D01*
X66040D01*
Y113467D01*
X66511D01*
Y113561D01*
X66700D01*
Y113656D01*
X66983D01*
Y113750D01*
X67171D01*
Y113844D01*
X67360D01*
Y113938D01*
X67642D01*
Y114033D01*
X67737D01*
Y114127D01*
X67925D01*
Y114221D01*
X68114D01*
Y114315D01*
X68302D01*
Y114410D01*
X68491D01*
Y114504D01*
X68585D01*
Y114598D01*
X68774D01*
Y114692D01*
X68868D01*
Y114787D01*
X68962D01*
Y114881D01*
X69151D01*
Y114975D01*
X69245D01*
Y115070D01*
X69339D01*
Y115164D01*
X69433D01*
Y115258D01*
X69622D01*
Y115352D01*
X69716D01*
Y115447D01*
X69811D01*
Y115541D01*
X69905D01*
Y115635D01*
X69999D01*
Y115729D01*
X70093D01*
Y115824D01*
X70188D01*
Y115918D01*
X70282D01*
Y116012D01*
X70376D01*
Y116106D01*
X70470D01*
Y116201D01*
X70565D01*
Y116389D01*
X70659D01*
Y116483D01*
X70753D01*
Y116578D01*
X70848D01*
Y116672D01*
X70942D01*
Y116861D01*
X71036D01*
Y116955D01*
X71130D01*
Y117049D01*
X71224D01*
Y117238D01*
X71319D01*
Y117332D01*
X71413D01*
Y117520D01*
X71507D01*
Y117709D01*
X71602D01*
Y117803D01*
X71696D01*
Y117992D01*
X71790D01*
Y118180D01*
X71884D01*
Y118274D01*
X71979D01*
Y118557D01*
X72073D01*
Y118652D01*
X72167D01*
Y118934D01*
X72262D01*
Y119029D01*
X72356D01*
Y119311D01*
X72450D01*
Y119500D01*
X72544D01*
Y119689D01*
X72639D01*
Y120066D01*
X72733D01*
Y120254D01*
X72827D01*
Y120537D01*
X72921D01*
Y120820D01*
X73016D01*
Y121103D01*
X73110D01*
Y121574D01*
X73204D01*
Y121762D01*
X73298D01*
Y122422D01*
X73393D01*
Y122705D01*
X73487D01*
Y123365D01*
X73581D01*
Y124025D01*
X73675D01*
Y124590D01*
X73770D01*
Y127230D01*
X73864D01*
Y128267D01*
X73770D01*
Y130435D01*
X73675D01*
Y131189D01*
X73581D01*
Y132131D01*
X73487D01*
Y132886D01*
X73393D01*
Y133357D01*
X73298D01*
Y134205D01*
X73204D01*
Y134677D01*
X73110D01*
Y135242D01*
X73016D01*
Y135714D01*
X72921D01*
Y136090D01*
X72827D01*
Y136750D01*
X72733D01*
Y137033D01*
X72639D01*
Y137599D01*
X72544D01*
Y137976D01*
X72450D01*
Y138353D01*
X72356D01*
Y138824D01*
X72262D01*
Y139107D01*
X72167D01*
Y139673D01*
X72073D01*
Y139861D01*
X71979D01*
Y140332D01*
X71884D01*
Y140615D01*
X71790D01*
Y140898D01*
X71696D01*
Y141369D01*
X71602D01*
Y141652D01*
X71507D01*
Y142123D01*
X71413D01*
Y142406D01*
X71319D01*
Y142689D01*
X71224D01*
Y143066D01*
X71130D01*
Y143255D01*
X71036D01*
Y143726D01*
X70942D01*
Y143914D01*
X70848D01*
Y144291D01*
X70753D01*
Y144574D01*
X70659D01*
Y144857D01*
X70565D01*
Y145234D01*
X70470D01*
Y145423D01*
X70376D01*
Y145705D01*
X70282D01*
Y145988D01*
X70188D01*
Y146271D01*
X70093D01*
Y146648D01*
X69999D01*
Y146742D01*
X69905D01*
Y147214D01*
X70093D01*
Y147025D01*
X70188D01*
Y146742D01*
X70282D01*
Y146648D01*
X70376D01*
Y146365D01*
X70470D01*
Y146177D01*
X70565D01*
Y145894D01*
X70659D01*
Y145705D01*
X70753D01*
Y145517D01*
X70848D01*
Y145234D01*
X70942D01*
Y145046D01*
X71036D01*
Y144763D01*
X71130D01*
Y144574D01*
X71224D01*
Y144291D01*
X71319D01*
Y144103D01*
X71413D01*
Y143820D01*
X71507D01*
Y143537D01*
X71602D01*
Y143349D01*
X71696D01*
Y143066D01*
X71790D01*
Y142878D01*
X71884D01*
Y142595D01*
X71979D01*
Y142312D01*
X72073D01*
Y142123D01*
X72167D01*
Y141746D01*
X72262D01*
Y141558D01*
X72356D01*
Y141181D01*
X72450D01*
Y140898D01*
X72544D01*
Y140709D01*
X72639D01*
Y140332D01*
X72733D01*
Y140144D01*
X72827D01*
Y139767D01*
X72921D01*
Y139484D01*
X73016D01*
Y139201D01*
X73110D01*
Y138824D01*
X73204D01*
Y138636D01*
X73298D01*
Y138164D01*
X73393D01*
Y137976D01*
X73487D01*
Y137599D01*
X73581D01*
Y137222D01*
X73675D01*
Y136939D01*
X73770D01*
Y136468D01*
X73864D01*
Y136185D01*
X73958D01*
Y135714D01*
X74053D01*
Y135431D01*
X74147D01*
Y135054D01*
X74241D01*
Y134488D01*
X74335D01*
Y134205D01*
X74429D01*
Y133545D01*
X74524D01*
Y133263D01*
X74618D01*
Y132697D01*
X74712D01*
Y132131D01*
X74807D01*
Y131754D01*
X74901D01*
Y130906D01*
X74995D01*
Y130435D01*
X75089D01*
Y129398D01*
X75184D01*
Y128644D01*
X75278D01*
Y127324D01*
X75372D01*
Y125721D01*
X75466D01*
Y125439D01*
X75561D01*
Y119594D01*
X75466D01*
Y119311D01*
X75372D01*
Y118180D01*
X75278D01*
Y117520D01*
X75184D01*
Y117049D01*
X75089D01*
Y116295D01*
X74995D01*
Y116012D01*
X74901D01*
Y115447D01*
X74807D01*
Y115164D01*
X74712D01*
Y114787D01*
X74618D01*
Y114410D01*
X74524D01*
Y114221D01*
X74429D01*
Y113844D01*
X74335D01*
Y113656D01*
X74241D01*
Y113279D01*
X74147D01*
Y113090D01*
X74053D01*
Y112901D01*
X73958D01*
Y112619D01*
X73864D01*
Y112430D01*
X73770D01*
Y112147D01*
X73675D01*
Y112053D01*
X73581D01*
Y111865D01*
X73487D01*
Y111676D01*
X73393D01*
Y111488D01*
X73298D01*
Y111299D01*
X73204D01*
Y111205D01*
X73110D01*
Y111016D01*
X73016D01*
Y110828D01*
X72921D01*
Y110733D01*
X72827D01*
Y110545D01*
X72733D01*
Y110451D01*
X72639D01*
Y110262D01*
X72544D01*
Y110168D01*
X72450D01*
Y110073D01*
X72356D01*
Y109885D01*
X72262D01*
Y109791D01*
X72167D01*
Y109697D01*
X72073D01*
Y109602D01*
X71979D01*
Y109508D01*
X71884D01*
Y109414D01*
X71790D01*
Y109319D01*
X71696D01*
Y109225D01*
X71602D01*
Y109131D01*
X71507D01*
Y109037D01*
X71413D01*
Y108942D01*
X71319D01*
Y108848D01*
X71224D01*
Y108754D01*
X71130D01*
Y108659D01*
X71036D01*
Y108565D01*
X70942D01*
Y108471D01*
X70753D01*
Y108377D01*
X70659D01*
Y108282D01*
X70470D01*
Y108188D01*
X70376D01*
Y108094D01*
X70282D01*
Y108000D01*
X70093D01*
Y107905D01*
X69999D01*
Y107811D01*
X69716D01*
Y107717D01*
X69622D01*
Y107623D01*
X69339D01*
Y107528D01*
X69151D01*
Y107434D01*
X69057D01*
Y107340D01*
X68679D01*
Y107246D01*
X68585D01*
Y107151D01*
X68208D01*
Y107057D01*
X67925D01*
Y106963D01*
X67548D01*
Y106868D01*
X66983D01*
Y106774D01*
X66794D01*
Y106680D01*
X64249D01*
Y106774D01*
X64060D01*
Y106868D01*
X63495D01*
Y106963D01*
X63118D01*
Y107057D01*
X62835D01*
Y107151D01*
X62458D01*
Y107246D01*
X62269D01*
Y107340D01*
X61987D01*
Y107434D01*
X61798D01*
Y107528D01*
X61610D01*
Y107623D01*
X61327D01*
Y107717D01*
X61138D01*
Y107811D01*
X60950D01*
Y107905D01*
X60761D01*
Y108000D01*
X60573D01*
Y108094D01*
X60384D01*
Y108188D01*
X60290D01*
Y108282D01*
X60007D01*
Y108377D01*
X59913D01*
Y108471D01*
X59724D01*
Y108565D01*
X59630D01*
Y108659D01*
X59441D01*
Y108754D01*
X59253D01*
Y108848D01*
X59159D01*
Y108942D01*
X58970D01*
Y109037D01*
X58876D01*
Y109131D01*
X58687D01*
Y109225D01*
X58593D01*
Y109319D01*
X58499D01*
Y109414D01*
X58310D01*
Y109508D01*
X58216D01*
Y109602D01*
X58028D01*
Y109697D01*
X57933D01*
Y109791D01*
X57839D01*
Y109885D01*
X57650D01*
Y109979D01*
X57556D01*
Y110073D01*
X57462D01*
Y110168D01*
X57368D01*
Y110262D01*
X57179D01*
Y110356D01*
X57085D01*
Y110451D01*
X56991D01*
Y110545D01*
X56896D01*
Y110639D01*
X56802D01*
Y110733D01*
X56614D01*
Y110828D01*
X56519D01*
Y110922D01*
X56425D01*
Y111016D01*
X56331D01*
Y111110D01*
X56237D01*
Y111205D01*
X56142D01*
Y111299D01*
X56048D01*
Y111393D01*
X55859D01*
Y111488D01*
X55765D01*
Y111582D01*
X55671D01*
Y111676D01*
X55577D01*
Y111770D01*
X55482D01*
Y111865D01*
X55388D01*
Y111959D01*
X55294D01*
Y112053D01*
X55200D01*
Y112147D01*
X55105D01*
Y112242D01*
X55011D01*
Y112336D01*
X54917D01*
Y112430D01*
X54823D01*
Y112524D01*
X54728D01*
Y112619D01*
X54634D01*
Y112713D01*
X54540D01*
Y112807D01*
X54446D01*
Y112901D01*
X54351D01*
Y112996D01*
X54257D01*
Y113090D01*
X54163D01*
Y113184D01*
X54068D01*
Y113279D01*
X53974D01*
Y113373D01*
X53880D01*
Y113467D01*
X53786D01*
Y113561D01*
X53691D01*
Y113656D01*
X53597D01*
Y113750D01*
X53503D01*
Y113844D01*
X53409D01*
Y113938D01*
X53314D01*
Y114033D01*
X53220D01*
Y114221D01*
X53126D01*
Y114315D01*
X53032D01*
Y114410D01*
X52937D01*
Y114504D01*
X52843D01*
Y114598D01*
X52749D01*
Y114692D01*
X52654D01*
Y114787D01*
X52560D01*
Y114881D01*
X52466D01*
Y115070D01*
X52277D01*
Y115258D01*
X52183D01*
Y115352D01*
X52089D01*
Y115447D01*
X51995D01*
Y115541D01*
X51900D01*
Y115635D01*
X51806D01*
Y115824D01*
X51712D01*
Y115918D01*
X51617D01*
Y116012D01*
X51523D01*
Y116106D01*
X51429D01*
Y116295D01*
X51335D01*
Y116389D01*
X51241D01*
Y116483D01*
X51146D01*
Y116578D01*
X51052D01*
Y116672D01*
X50958D01*
Y116861D01*
X50863D01*
Y116955D01*
X50769D01*
Y117049D01*
X50675D01*
Y117238D01*
X50581D01*
Y117332D01*
X50486D01*
Y117426D01*
X50392D01*
Y117520D01*
X50298D01*
Y117709D01*
X50204D01*
Y117803D01*
X50109D01*
Y117898D01*
X50015D01*
Y118086D01*
X49921D01*
Y118180D01*
X49826D01*
Y118274D01*
X49732D01*
Y118463D01*
X49638D01*
Y118557D01*
X49544D01*
Y118652D01*
X49449D01*
Y118746D01*
X49355D01*
Y118934D01*
X49261D01*
Y119029D01*
X49167D01*
Y119217D01*
X49072D01*
Y119311D01*
X48978D01*
Y119406D01*
X48884D01*
Y119594D01*
X48790D01*
Y119689D01*
X48695D01*
Y119877D01*
X48601D01*
Y119971D01*
X48507D01*
Y120066D01*
X48412D01*
Y120254D01*
X48318D01*
Y120348D01*
X48224D01*
Y120537D01*
X48130D01*
Y120631D01*
X48035D01*
Y120820D01*
X47941D01*
Y120914D01*
X47847D01*
Y121103D01*
X47753D01*
Y121197D01*
X47658D01*
Y121385D01*
X47564D01*
Y121480D01*
X47470D01*
Y121668D01*
X47376D01*
Y121762D01*
X47281D01*
Y121951D01*
X47187D01*
Y122045D01*
X47093D01*
Y122234D01*
X46999D01*
Y122422D01*
X46904D01*
Y122516D01*
X46810D01*
Y122705D01*
X46716D01*
Y122799D01*
X46621D01*
Y122988D01*
X46527D01*
Y123082D01*
X46433D01*
Y123271D01*
X46339D01*
Y123459D01*
X46244D01*
Y123553D01*
X46150D01*
Y123836D01*
X46056D01*
Y123930D01*
X45962D01*
Y124119D01*
X45867D01*
Y124213D01*
X45773D01*
Y124402D01*
X45679D01*
Y124590D01*
X45585D01*
Y124779D01*
X45490D01*
Y124967D01*
X45396D01*
Y125156D01*
X45302D01*
Y125344D01*
X45208D01*
Y125533D01*
X45113D01*
Y125627D01*
X45019D01*
Y125910D01*
X44925D01*
Y126004D01*
X44830D01*
Y126193D01*
X44736D01*
Y126381D01*
X44642D01*
Y126570D01*
X44548D01*
Y126758D01*
X44453D01*
Y126853D01*
X44359D01*
Y127135D01*
X44265D01*
Y127324D01*
X44171D01*
Y127512D01*
X44076D01*
Y127701D01*
X43982D01*
Y127795D01*
X43888D01*
Y128078D01*
X43794D01*
Y128267D01*
X43699D01*
Y128455D01*
X43605D01*
Y128644D01*
X43511D01*
Y128832D01*
X43417D01*
Y129021D01*
X43322D01*
Y129209D01*
X43228D01*
Y129492D01*
X43134D01*
Y129586D01*
X43039D01*
Y129869D01*
X42945D01*
Y130058D01*
X42851D01*
Y130152D01*
X42757D01*
Y130435D01*
X42662D01*
Y130623D01*
X42568D01*
Y130906D01*
X42474D01*
Y131000D01*
X42380D01*
Y131189D01*
X42285D01*
Y131472D01*
X42191D01*
Y131660D01*
X42097D01*
Y131943D01*
X42003D01*
Y132037D01*
X41908D01*
Y132320D01*
X41814D01*
Y132508D01*
X41720D01*
Y132697D01*
X41625D01*
Y132980D01*
X41531D01*
Y133168D01*
X41437D01*
Y133451D01*
X41343D01*
Y133640D01*
X41248D01*
Y133828D01*
X41154D01*
Y134111D01*
X41060D01*
Y134299D01*
X40966D01*
Y134582D01*
X40871D01*
Y134771D01*
X40777D01*
Y135054D01*
X40683D01*
Y135336D01*
X40589D01*
Y135525D01*
X40494D01*
Y135808D01*
X40400D01*
Y135996D01*
X40306D01*
Y136279D01*
X40212D01*
Y136468D01*
X40117D01*
Y136750D01*
X40023D01*
Y137033D01*
X39929D01*
Y137222D01*
X39834D01*
Y137599D01*
X39740D01*
Y137787D01*
X39646D01*
Y138070D01*
X39552D01*
Y138353D01*
X39457D01*
Y138636D01*
X39363D01*
Y139013D01*
X39269D01*
Y139201D01*
X39175D01*
Y139578D01*
X39080D01*
Y139767D01*
X38986D01*
Y140144D01*
X38892D01*
Y140521D01*
X38798D01*
Y140709D01*
X38703D01*
Y141087D01*
X38609D01*
Y141275D01*
X38515D01*
Y141746D01*
X38421D01*
Y142029D01*
X38326D01*
Y142312D01*
X38232D01*
Y142783D01*
X38138D01*
Y143066D01*
X38043D01*
Y143537D01*
X37949D01*
Y143820D01*
X37855D01*
Y144197D01*
X37761D01*
Y144669D01*
X37666D01*
Y144951D01*
X37572D01*
Y145517D01*
X37478D01*
Y145894D01*
X37384D01*
Y146460D01*
X37289D01*
Y146837D01*
X37195D01*
Y147308D01*
X37101D01*
Y148062D01*
X37006D01*
Y148439D01*
X36912D01*
Y149382D01*
X36818D01*
Y149947D01*
X36724D01*
Y150702D01*
X36630D01*
Y152021D01*
X36535D01*
Y152304D01*
X36441D01*
Y157771D01*
X36535D01*
Y158054D01*
X36630D01*
Y159562D01*
X36724D01*
Y161259D01*
X36818D01*
Y162108D01*
X36912D01*
Y162767D01*
X37006D01*
Y163144D01*
X37101D01*
Y163804D01*
X37195D01*
Y164087D01*
X37289D01*
Y164464D01*
X37384D01*
Y164841D01*
X37478D01*
Y165124D01*
X37572D01*
Y165501D01*
X37666D01*
Y165690D01*
X37761D01*
Y165972D01*
X37855D01*
Y166161D01*
X37949D01*
Y166349D01*
X38043D01*
Y166632D01*
X38138D01*
Y166821D01*
X38232D01*
Y167104D01*
X38326D01*
Y167198D01*
X38421D01*
Y167386D01*
X38515D01*
Y167669D01*
X38609D01*
Y167763D01*
X38703D01*
Y167952D01*
X38798D01*
Y168141D01*
X38892D01*
Y168329D01*
X38986D01*
Y168423D01*
X39080D01*
Y168517D01*
X39175D01*
Y168706D01*
X39269D01*
Y168800D01*
X39363D01*
Y168989D01*
X39457D01*
Y169083D01*
X39552D01*
Y169272D01*
X39646D01*
Y169366D01*
X39740D01*
Y169460D01*
X39834D01*
Y169649D01*
X39929D01*
Y169743D01*
X40023D01*
Y169837D01*
X40117D01*
Y169932D01*
X40212D01*
Y170026D01*
X40306D01*
Y170120D01*
X40400D01*
Y170214D01*
X40494D01*
Y170308D01*
X40589D01*
Y170403D01*
X40683D01*
Y170497D01*
X40777D01*
Y170591D01*
X40871D01*
Y170686D01*
X40966D01*
Y170780D01*
X41060D01*
Y170874D01*
X41248D01*
Y170968D01*
X41343D01*
Y171063D01*
X41437D01*
Y171157D01*
X41625D01*
Y171251D01*
X41720D01*
Y171346D01*
X41908D01*
Y171440D01*
X42003D01*
Y171534D01*
X42191D01*
Y171628D01*
X42285D01*
Y171723D01*
X42474D01*
Y171817D01*
X42662D01*
Y171911D01*
X42851D01*
Y172005D01*
X43134D01*
Y172100D01*
X43322D01*
Y172194D01*
X43605D01*
Y172288D01*
X43888D01*
Y172382D01*
X44171D01*
Y172477D01*
X44830D01*
Y172571D01*
X46621D01*
Y172477D01*
D02*
G37*
G36*
X550289Y175737D02*
X550449D01*
Y175578D01*
X550609D01*
Y175418D01*
X550769D01*
Y175258D01*
X550928D01*
Y175098D01*
X551088D01*
Y174939D01*
X551248D01*
Y174779D01*
X551407D01*
Y174619D01*
X551567D01*
Y174460D01*
X551727D01*
Y174300D01*
X551886D01*
Y174140D01*
X552046D01*
Y173981D01*
X552206D01*
Y173821D01*
X552365D01*
Y173661D01*
X552525D01*
Y173501D01*
X552685D01*
Y173022D01*
X552365D01*
Y172863D01*
X552046D01*
Y172703D01*
X551727D01*
Y172543D01*
X551567D01*
Y172384D01*
X551088D01*
Y172224D01*
X550769D01*
Y172064D01*
X550449D01*
Y171905D01*
X550130D01*
Y171745D01*
X549810D01*
Y171585D01*
X549491D01*
Y171426D01*
X549172D01*
Y171266D01*
X548693D01*
Y171106D01*
X548533D01*
Y170947D01*
X548214D01*
Y170787D01*
X547894D01*
Y170627D01*
X547575D01*
Y170467D01*
X547096D01*
Y170308D01*
X546936D01*
Y170148D01*
X546457D01*
Y169988D01*
X546138D01*
Y169829D01*
X545978D01*
Y169669D01*
X545499D01*
Y169509D01*
X545339D01*
Y169350D01*
X544860D01*
Y169190D01*
X544541D01*
Y169030D01*
X544221D01*
Y168871D01*
X543902D01*
Y168711D01*
X543583D01*
Y168551D01*
X543263D01*
Y168391D01*
X542944D01*
Y168232D01*
X542624D01*
Y168072D01*
X542305D01*
Y167912D01*
X542145D01*
Y167753D01*
X541666D01*
Y168551D01*
X541826D01*
Y169030D01*
X541986D01*
Y169669D01*
X542145D01*
Y170148D01*
X542305D01*
Y170627D01*
X542465D01*
Y171426D01*
X542624D01*
Y171745D01*
X542784D01*
Y172224D01*
X542944D01*
Y172384D01*
X543423D01*
Y172543D01*
X543583D01*
Y172703D01*
X543902D01*
Y172863D01*
X544221D01*
Y173022D01*
X544541D01*
Y173182D01*
X544860D01*
Y173342D01*
X545020D01*
Y173501D01*
X545499D01*
Y173661D01*
X545658D01*
Y173821D01*
X546138D01*
Y173981D01*
X546457D01*
Y174140D01*
X546617D01*
Y174300D01*
X547096D01*
Y174460D01*
X547255D01*
Y174619D01*
X547734D01*
Y174779D01*
X547894D01*
Y174939D01*
X548214D01*
Y175098D01*
X548533D01*
Y175258D01*
X548852D01*
Y175418D01*
X549172D01*
Y175578D01*
X549491D01*
Y175737D01*
X549810D01*
Y175897D01*
X550289D01*
Y175737D01*
D02*
G37*
G36*
X66040Y174550D02*
X65946D01*
Y174456D01*
X65757D01*
Y174362D01*
X65663D01*
Y174268D01*
X65474D01*
Y174173D01*
X65380D01*
Y174079D01*
X65192D01*
Y173985D01*
X65097D01*
Y173891D01*
X64909D01*
Y173796D01*
X64720D01*
Y173702D01*
X64626D01*
Y173608D01*
X64437D01*
Y173514D01*
X64343D01*
Y173419D01*
X64155D01*
Y173325D01*
X63966D01*
Y173231D01*
X63872D01*
Y173137D01*
X63683D01*
Y173042D01*
X63589D01*
Y172948D01*
X63401D01*
Y172854D01*
X63212D01*
Y172759D01*
X63118D01*
Y172665D01*
X62929D01*
Y172571D01*
X62835D01*
Y172477D01*
X62552D01*
Y172382D01*
X62458D01*
Y172288D01*
X62269D01*
Y172194D01*
X62175D01*
Y172100D01*
X61987D01*
Y172005D01*
X61798D01*
Y171911D01*
X61704D01*
Y171817D01*
X61515D01*
Y171723D01*
X61421D01*
Y171628D01*
X61233D01*
Y171534D01*
X61044D01*
Y171440D01*
X60950D01*
Y171346D01*
X60761D01*
Y171251D01*
X60667D01*
Y171157D01*
X60478D01*
Y171063D01*
X60290D01*
Y170968D01*
X60196D01*
Y170874D01*
X60007D01*
Y170780D01*
X59913D01*
Y170686D01*
X59724D01*
Y170591D01*
X59536D01*
Y170497D01*
X59441D01*
Y170403D01*
X59253D01*
Y170308D01*
X59159D01*
Y170214D01*
X58970D01*
Y170120D01*
X58782D01*
Y170026D01*
X58687D01*
Y169932D01*
X58499D01*
Y169837D01*
X58405D01*
Y169743D01*
X58216D01*
Y169649D01*
X58028D01*
Y169554D01*
X57933D01*
Y169460D01*
X57745D01*
Y169366D01*
X57650D01*
Y169272D01*
X57462D01*
Y169177D01*
X57273D01*
Y169083D01*
X57085D01*
Y168989D01*
X56991D01*
Y168895D01*
X56802D01*
Y168800D01*
X56708D01*
Y168706D01*
X56519D01*
Y168612D01*
X56331D01*
Y168517D01*
X56237D01*
Y168423D01*
X56048D01*
Y168329D01*
X55954D01*
Y168235D01*
X55765D01*
Y168141D01*
X55577D01*
Y168046D01*
X55482D01*
Y167952D01*
X55294D01*
Y167858D01*
X55200D01*
Y167763D01*
X55011D01*
Y167669D01*
X54823D01*
Y167575D01*
X54728D01*
Y167481D01*
X54540D01*
Y167386D01*
X54446D01*
Y167292D01*
X54163D01*
Y167198D01*
X54068D01*
Y167104D01*
X54163D01*
Y167009D01*
X66040D01*
Y165218D01*
X50581D01*
Y165312D01*
X50486D01*
Y167009D01*
X50581D01*
Y167198D01*
X50675D01*
Y167292D01*
X50863D01*
Y167386D01*
X50958D01*
Y167481D01*
X51146D01*
Y167575D01*
X51335D01*
Y167669D01*
X51429D01*
Y167763D01*
X51617D01*
Y167858D01*
X51712D01*
Y167952D01*
X51900D01*
Y168046D01*
X52089D01*
Y168141D01*
X52277D01*
Y168235D01*
X52372D01*
Y168329D01*
X52560D01*
Y168423D01*
X52749D01*
Y168517D01*
X52843D01*
Y168612D01*
X53032D01*
Y168706D01*
X53126D01*
Y168800D01*
X53314D01*
Y168895D01*
X53409D01*
Y168989D01*
X53597D01*
Y169083D01*
X53786D01*
Y169177D01*
X53880D01*
Y169272D01*
X54068D01*
Y169366D01*
X54163D01*
Y169460D01*
X54351D01*
Y169554D01*
X54540D01*
Y169649D01*
X54634D01*
Y169743D01*
X54823D01*
Y169837D01*
X54917D01*
Y169932D01*
X55105D01*
Y170026D01*
X55294D01*
Y170120D01*
X55388D01*
Y170214D01*
X55577D01*
Y170308D01*
X55671D01*
Y170403D01*
X55859D01*
Y170497D01*
X56048D01*
Y170591D01*
X56142D01*
Y170686D01*
X56331D01*
Y170780D01*
X56425D01*
Y170874D01*
X56708D01*
Y170968D01*
X56802D01*
Y171063D01*
X56896D01*
Y171157D01*
X57085D01*
Y171251D01*
X57179D01*
Y171346D01*
X57462D01*
Y171440D01*
X57556D01*
Y171534D01*
X57745D01*
Y171628D01*
X57839D01*
Y171723D01*
X58028D01*
Y171817D01*
X58216D01*
Y171911D01*
X58310D01*
Y172005D01*
X58499D01*
Y172100D01*
X58593D01*
Y172194D01*
X58782D01*
Y172288D01*
X58970D01*
Y172382D01*
X59064D01*
Y172477D01*
X59253D01*
Y172571D01*
X59347D01*
Y172665D01*
X59536D01*
Y172759D01*
X59724D01*
Y172854D01*
X59819D01*
Y172948D01*
X60007D01*
Y173042D01*
X60101D01*
Y173137D01*
X60290D01*
Y173231D01*
X60384D01*
Y173325D01*
X60573D01*
Y173419D01*
X60761D01*
Y173514D01*
X60855D01*
Y173608D01*
X61044D01*
Y173702D01*
X61138D01*
Y173796D01*
X61421D01*
Y173891D01*
X61515D01*
Y173985D01*
X61610D01*
Y174079D01*
X61798D01*
Y174173D01*
X61892D01*
Y174268D01*
X62175D01*
Y174362D01*
X62269D01*
Y174456D01*
X62458D01*
Y174550D01*
X62552D01*
Y174645D01*
X62458D01*
Y174739D01*
X50581D01*
Y174833D01*
X50486D01*
Y176530D01*
X66040D01*
Y174550D01*
D02*
G37*
G36*
X540389Y174460D02*
X540229D01*
Y173981D01*
X540069D01*
Y173342D01*
X539910D01*
Y172863D01*
X539750D01*
Y172224D01*
X539590D01*
Y171745D01*
X539431D01*
Y171106D01*
X539271D01*
Y170947D01*
X539111D01*
Y170787D01*
X538792D01*
Y170627D01*
X538632D01*
Y170467D01*
X538153D01*
Y170308D01*
X537993D01*
Y170148D01*
X537514D01*
Y169988D01*
X537355D01*
Y169829D01*
X537035D01*
Y169669D01*
X536716D01*
Y169509D01*
X536396D01*
Y169350D01*
X536077D01*
Y169190D01*
X535758D01*
Y169030D01*
X535438D01*
Y168871D01*
X535119D01*
Y168711D01*
X534800D01*
Y168551D01*
X534480D01*
Y168391D01*
X534321D01*
Y168232D01*
X533842D01*
Y168072D01*
X533682D01*
Y167912D01*
X533203D01*
Y167753D01*
X533043D01*
Y167593D01*
X532724D01*
Y167433D01*
X532245D01*
Y167274D01*
X532085D01*
Y167114D01*
X531766D01*
Y166954D01*
X531446D01*
Y166795D01*
X531127D01*
Y166635D01*
X530807D01*
Y166475D01*
X530648D01*
Y166315D01*
X530169D01*
Y166156D01*
X529849D01*
Y165996D01*
X529530D01*
Y165836D01*
X529211D01*
Y165677D01*
X529051D01*
Y165517D01*
X528572D01*
Y165357D01*
X528412D01*
Y165198D01*
X527933D01*
Y165038D01*
X527773D01*
Y164878D01*
X527454D01*
Y164719D01*
X527135D01*
Y164559D01*
X526815D01*
Y164399D01*
X526496D01*
Y164240D01*
X526176D01*
Y164080D01*
X525857D01*
Y163920D01*
X525538D01*
Y163761D01*
X525378D01*
Y163601D01*
X524899D01*
Y163441D01*
X524739D01*
Y163281D01*
X524100D01*
Y163441D01*
X523941D01*
Y163601D01*
X523781D01*
Y163761D01*
X523621D01*
Y163920D01*
X523462D01*
Y164080D01*
X523302D01*
Y164240D01*
X523142D01*
Y164399D01*
X522983D01*
Y164559D01*
X522823D01*
Y164719D01*
X522663D01*
Y164878D01*
X522504D01*
Y165198D01*
X522184D01*
Y165517D01*
X522024D01*
Y165677D01*
X521865D01*
Y165836D01*
X521705D01*
Y166156D01*
X521865D01*
Y166315D01*
X522344D01*
Y166475D01*
X522663D01*
Y166635D01*
X522983D01*
Y166795D01*
X523302D01*
Y166954D01*
X523621D01*
Y167114D01*
X523941D01*
Y167274D01*
X524260D01*
Y167433D01*
X524739D01*
Y167593D01*
X524899D01*
Y167753D01*
X525378D01*
Y167912D01*
X525538D01*
Y168072D01*
X525857D01*
Y168232D01*
X526336D01*
Y168391D01*
X526496D01*
Y168551D01*
X526975D01*
Y168711D01*
X527135D01*
Y168871D01*
X527614D01*
Y169030D01*
X527933D01*
Y169190D01*
X528093D01*
Y169350D01*
X528572D01*
Y169509D01*
X528891D01*
Y169669D01*
X529211D01*
Y169829D01*
X529530D01*
Y169988D01*
X529849D01*
Y170148D01*
X530169D01*
Y170308D01*
X530488D01*
Y170467D01*
X530967D01*
Y170627D01*
X531127D01*
Y170787D01*
X531446D01*
Y170947D01*
X531766D01*
Y171106D01*
X532085D01*
Y171266D01*
X532564D01*
Y171426D01*
X532724D01*
Y171585D01*
X533203D01*
Y171745D01*
X533362D01*
Y171905D01*
X533682D01*
Y172064D01*
X534161D01*
Y172224D01*
X534321D01*
Y172384D01*
X534800D01*
Y172543D01*
X535119D01*
Y172703D01*
X535438D01*
Y172863D01*
X535758D01*
Y173022D01*
X535918D01*
Y173182D01*
X536396D01*
Y173342D01*
X536716D01*
Y173501D01*
X537035D01*
Y173661D01*
X537355D01*
Y173821D01*
X537674D01*
Y173981D01*
X537993D01*
Y174140D01*
X538313D01*
Y174300D01*
X538792D01*
Y174460D01*
X538952D01*
Y174619D01*
X539271D01*
Y174779D01*
X539590D01*
Y174939D01*
X539910D01*
Y175098D01*
X540389D01*
Y174460D01*
D02*
G37*
G36*
X556198Y162962D02*
X556837D01*
Y162802D01*
X557316D01*
Y162643D01*
X557476D01*
Y162483D01*
X557795D01*
Y162323D01*
X557955D01*
Y162164D01*
X558114D01*
Y162004D01*
X558274D01*
Y161844D01*
X558434D01*
Y161684D01*
X558593D01*
Y161525D01*
X558753D01*
Y161205D01*
X558913D01*
Y160726D01*
X559232D01*
Y158810D01*
X558913D01*
Y158331D01*
X558753D01*
Y158012D01*
X558593D01*
Y157852D01*
X558434D01*
Y157533D01*
X558274D01*
Y157373D01*
X558114D01*
Y157213D01*
X557955D01*
Y157053D01*
X557795D01*
Y156894D01*
X557635D01*
Y156734D01*
X557476D01*
Y156574D01*
X557316D01*
Y156415D01*
X557156D01*
Y156255D01*
X556837D01*
Y156095D01*
X556677D01*
Y155936D01*
X556358D01*
Y155776D01*
X556198D01*
Y155616D01*
X555879D01*
Y155457D01*
X555559D01*
Y155297D01*
X555240D01*
Y155137D01*
X554761D01*
Y154978D01*
X554441D01*
Y154818D01*
X553803D01*
Y154658D01*
X553483D01*
Y154499D01*
X552845D01*
Y154339D01*
X552046D01*
Y154179D01*
X551248D01*
Y154019D01*
X549970D01*
Y153700D01*
X550130D01*
Y153540D01*
X550449D01*
Y153381D01*
X550769D01*
Y153221D01*
X550928D01*
Y153061D01*
X551088D01*
Y152902D01*
X551248D01*
Y152742D01*
X551407D01*
Y152582D01*
X551567D01*
Y152423D01*
X551727D01*
Y152263D01*
X551886D01*
Y152103D01*
X552046D01*
Y151784D01*
X552206D01*
Y151624D01*
X552365D01*
Y151464D01*
X552525D01*
Y151305D01*
X552685D01*
Y150985D01*
X552845D01*
Y150666D01*
X553004D01*
Y150506D01*
X553164D01*
Y150027D01*
X553324D01*
Y149867D01*
X553483D01*
Y149388D01*
X553643D01*
Y149069D01*
X553803D01*
Y148590D01*
X553962D01*
Y148111D01*
X554122D01*
Y147632D01*
X554282D01*
Y146674D01*
X554441D01*
Y146035D01*
X554601D01*
Y143799D01*
X554761D01*
Y140605D01*
X554601D01*
Y138370D01*
X554441D01*
Y137571D01*
X554282D01*
Y136454D01*
X554122D01*
Y135975D01*
X553962D01*
Y135496D01*
X553803D01*
Y135016D01*
X553643D01*
Y134697D01*
X553483D01*
Y134218D01*
X553324D01*
Y134058D01*
X553164D01*
Y133579D01*
X553004D01*
Y133420D01*
X552845D01*
Y133100D01*
X552685D01*
Y132781D01*
X552525D01*
Y132621D01*
X552365D01*
Y132302D01*
X552206D01*
Y132142D01*
X552046D01*
Y131982D01*
X551886D01*
Y131823D01*
X551727D01*
Y131663D01*
X551567D01*
Y131503D01*
X551407D01*
Y131344D01*
X551248D01*
Y131184D01*
X551088D01*
Y131024D01*
X550928D01*
Y130864D01*
X550769D01*
Y130705D01*
X550449D01*
Y130545D01*
X550289D01*
Y130385D01*
X550130D01*
Y130226D01*
X549810D01*
Y130066D01*
X549651D01*
Y129906D01*
X549172D01*
Y129747D01*
X548852D01*
Y129587D01*
X548373D01*
Y129427D01*
X547894D01*
Y129268D01*
X547415D01*
Y129108D01*
X546297D01*
Y128948D01*
X545658D01*
Y128788D01*
X543423D01*
Y128629D01*
X543103D01*
Y128469D01*
X543423D01*
Y128309D01*
X544221D01*
Y128150D01*
X544700D01*
Y127990D01*
X545179D01*
Y127830D01*
X545499D01*
Y127671D01*
X545978D01*
Y127511D01*
X546297D01*
Y127351D01*
X546617D01*
Y127192D01*
X546936D01*
Y127032D01*
X547255D01*
Y126872D01*
X547575D01*
Y126713D01*
X547734D01*
Y126553D01*
X548054D01*
Y126393D01*
X548373D01*
Y126234D01*
X548533D01*
Y126074D01*
X548693D01*
Y125914D01*
X548852D01*
Y125754D01*
X549172D01*
Y125595D01*
X549331D01*
Y125435D01*
X549491D01*
Y125275D01*
X549651D01*
Y125116D01*
X549810D01*
Y124956D01*
X549970D01*
Y124796D01*
X550130D01*
Y124637D01*
X550289D01*
Y124477D01*
X550449D01*
Y124317D01*
X550609D01*
Y124157D01*
X550769D01*
Y123838D01*
X550928D01*
Y123678D01*
X551088D01*
Y123519D01*
X551248D01*
Y123199D01*
X551407D01*
Y123040D01*
X551567D01*
Y122720D01*
X551727D01*
Y122401D01*
X551886D01*
Y122082D01*
X552046D01*
Y121762D01*
X552206D01*
Y121443D01*
X552365D01*
Y120964D01*
X552525D01*
Y120644D01*
X552685D01*
Y120165D01*
X552845D01*
Y119527D01*
X553004D01*
Y119047D01*
X553164D01*
Y118089D01*
X553324D01*
Y117451D01*
X553483D01*
Y115055D01*
X553643D01*
Y100524D01*
X553164D01*
Y100683D01*
X553004D01*
Y100843D01*
X552845D01*
Y101003D01*
X552685D01*
Y101162D01*
X552525D01*
Y101322D01*
X552365D01*
Y101482D01*
X552206D01*
Y101641D01*
X551886D01*
Y101961D01*
X551567D01*
Y102120D01*
X551407D01*
Y102280D01*
X551248D01*
Y102440D01*
X551088D01*
Y102599D01*
X550928D01*
Y102759D01*
X550769D01*
Y102919D01*
X550609D01*
Y103078D01*
X550449D01*
Y103238D01*
X550289D01*
Y103398D01*
X550130D01*
Y103558D01*
X549970D01*
Y103717D01*
X549810D01*
Y103877D01*
X549651D01*
Y104037D01*
X549491D01*
Y104196D01*
X549331D01*
Y104356D01*
X549172D01*
Y104516D01*
X549012D01*
Y104675D01*
X548852D01*
Y104835D01*
X548693D01*
Y104995D01*
X548533D01*
Y105154D01*
X548373D01*
Y105314D01*
X548214D01*
Y105474D01*
X548054D01*
Y105633D01*
X547894D01*
Y105793D01*
X547734D01*
Y106113D01*
X547415D01*
Y106432D01*
X547255D01*
Y106592D01*
X547096D01*
Y106751D01*
X546936D01*
Y106911D01*
X546617D01*
Y107230D01*
X548373D01*
Y107390D01*
X548533D01*
Y115375D01*
X548373D01*
Y116173D01*
X548214D01*
Y116972D01*
X548054D01*
Y117610D01*
X547894D01*
Y117930D01*
X547734D01*
Y118409D01*
X547575D01*
Y118568D01*
X547415D01*
Y118888D01*
X547255D01*
Y119047D01*
X547096D01*
Y119367D01*
X546936D01*
Y119527D01*
X546776D01*
Y119686D01*
X546617D01*
Y119846D01*
X546457D01*
Y120006D01*
X546138D01*
Y120165D01*
X545978D01*
Y120325D01*
X545658D01*
Y120485D01*
X545499D01*
Y120644D01*
X545020D01*
Y120804D01*
X544700D01*
Y120964D01*
X544381D01*
Y121123D01*
X543742D01*
Y121283D01*
X543423D01*
Y121443D01*
X542465D01*
Y121602D01*
X541507D01*
Y121762D01*
X539271D01*
Y121922D01*
X537993D01*
Y121762D01*
X536556D01*
Y121922D01*
X536396D01*
Y122082D01*
X536237D01*
Y122720D01*
X536077D01*
Y123199D01*
X535918D01*
Y123838D01*
X535758D01*
Y124157D01*
X535598D01*
Y124956D01*
X535438D01*
Y125595D01*
X535279D01*
Y126234D01*
X535119D01*
Y127511D01*
X534959D01*
Y128629D01*
X534800D01*
Y131184D01*
X534640D01*
Y135016D01*
X534800D01*
Y135336D01*
X543902D01*
Y135496D01*
X545020D01*
Y135655D01*
X545818D01*
Y135815D01*
X546138D01*
Y135975D01*
X546457D01*
Y136134D01*
X546776D01*
Y136294D01*
X546936D01*
Y136454D01*
X547255D01*
Y136613D01*
X547415D01*
Y136773D01*
X547575D01*
Y136933D01*
X547734D01*
Y137092D01*
X547894D01*
Y137252D01*
X548054D01*
Y137412D01*
X548214D01*
Y137731D01*
X548373D01*
Y137891D01*
X548533D01*
Y138210D01*
X548693D01*
Y138530D01*
X548852D01*
Y139009D01*
X549012D01*
Y139488D01*
X549172D01*
Y139967D01*
X549331D01*
Y141883D01*
X549491D01*
Y142522D01*
X549331D01*
Y144438D01*
X549172D01*
Y144917D01*
X549012D01*
Y145237D01*
X548852D01*
Y145716D01*
X548693D01*
Y146035D01*
X548533D01*
Y146354D01*
X548373D01*
Y146514D01*
X548214D01*
Y146674D01*
X548054D01*
Y146993D01*
X547894D01*
Y147153D01*
X547734D01*
Y147312D01*
X547575D01*
Y147472D01*
X547255D01*
Y147632D01*
X547096D01*
Y147792D01*
X546776D01*
Y147951D01*
X546297D01*
Y148111D01*
X545818D01*
Y148271D01*
X544381D01*
Y148430D01*
X542784D01*
Y148590D01*
X536716D01*
Y149229D01*
X536876D01*
Y149708D01*
X537035D01*
Y150826D01*
X537195D01*
Y151305D01*
X537355D01*
Y152103D01*
X537514D01*
Y152902D01*
X537674D01*
Y153381D01*
X537834D01*
Y154179D01*
X537993D01*
Y154658D01*
X538153D01*
Y155137D01*
X538313D01*
Y155297D01*
X538792D01*
Y155457D01*
X538473D01*
Y155616D01*
X538313D01*
Y156095D01*
X538473D01*
Y156574D01*
X538632D01*
Y157373D01*
X538792D01*
Y157852D01*
X539111D01*
Y158012D01*
X539271D01*
Y157852D01*
X540069D01*
Y157692D01*
X540708D01*
Y157533D01*
X541986D01*
Y157373D01*
X545339D01*
Y157533D01*
X546457D01*
Y157692D01*
X546936D01*
Y157852D01*
X547734D01*
Y158012D01*
X548054D01*
Y158171D01*
X548533D01*
Y158331D01*
X548852D01*
Y158491D01*
X549172D01*
Y158650D01*
X549651D01*
Y158810D01*
X549810D01*
Y158970D01*
X550130D01*
Y159129D01*
X550449D01*
Y159289D01*
X550609D01*
Y159449D01*
X550928D01*
Y159608D01*
X551088D01*
Y159768D01*
X551407D01*
Y159928D01*
X551567D01*
Y160088D01*
X551727D01*
Y160247D01*
X551886D01*
Y160407D01*
X552046D01*
Y160567D01*
X552365D01*
Y160726D01*
X552525D01*
Y160886D01*
X552685D01*
Y161046D01*
X552845D01*
Y161205D01*
X553004D01*
Y161365D01*
X553164D01*
Y161525D01*
X553324D01*
Y161684D01*
X553483D01*
Y161844D01*
X553643D01*
Y162004D01*
X553803D01*
Y162164D01*
X553962D01*
Y162323D01*
X554282D01*
Y162483D01*
X554601D01*
Y162643D01*
X554761D01*
Y162802D01*
X555240D01*
Y162962D01*
X555879D01*
Y163122D01*
X556198D01*
Y162962D01*
D02*
G37*
G36*
X538952Y169509D02*
X538792D01*
Y169030D01*
X538632D01*
Y168391D01*
X538473D01*
Y167912D01*
X538313D01*
Y167433D01*
X538153D01*
Y166635D01*
X537993D01*
Y166315D01*
X537834D01*
Y165836D01*
X537674D01*
Y165677D01*
X537355D01*
Y165517D01*
X537035D01*
Y165357D01*
X536716D01*
Y165198D01*
X536396D01*
Y165038D01*
X536077D01*
Y164878D01*
X535758D01*
Y164719D01*
X535438D01*
Y164559D01*
X535119D01*
Y164399D01*
X534800D01*
Y164240D01*
X534480D01*
Y164080D01*
X534161D01*
Y163920D01*
X533682D01*
Y163761D01*
X533522D01*
Y163601D01*
X533043D01*
Y163441D01*
X532883D01*
Y163281D01*
X532404D01*
Y163122D01*
X532085D01*
Y162962D01*
X531925D01*
Y162802D01*
X531446D01*
Y162643D01*
X531287D01*
Y162483D01*
X530807D01*
Y162323D01*
X530488D01*
Y162164D01*
X530328D01*
Y161684D01*
X530807D01*
Y161525D01*
X530967D01*
Y161365D01*
X531287D01*
Y161205D01*
X531606D01*
Y161046D01*
X531925D01*
Y160886D01*
X532245D01*
Y160726D01*
X532404D01*
Y160567D01*
X532883D01*
Y160407D01*
X533043D01*
Y160247D01*
X533362D01*
Y160088D01*
X533842D01*
Y159928D01*
X534001D01*
Y159768D01*
X534480D01*
Y159608D01*
X534800D01*
Y159449D01*
X535279D01*
Y159289D01*
X535598D01*
Y159129D01*
X535758D01*
Y158970D01*
X535918D01*
Y158331D01*
X535758D01*
Y157852D01*
X535598D01*
Y157053D01*
X535438D01*
Y156734D01*
X534640D01*
Y156894D01*
X534480D01*
Y157053D01*
X533842D01*
Y157213D01*
X533522D01*
Y157373D01*
X533043D01*
Y157533D01*
X532564D01*
Y157692D01*
X532404D01*
Y157852D01*
X531925D01*
Y158012D01*
X531606D01*
Y158171D01*
X531287D01*
Y158331D01*
X530967D01*
Y158491D01*
X530648D01*
Y158650D01*
X530169D01*
Y158810D01*
X530009D01*
Y158970D01*
X529690D01*
Y159129D01*
X529370D01*
Y159289D01*
X529051D01*
Y159449D01*
X528731D01*
Y159608D01*
X528572D01*
Y159768D01*
X528252D01*
Y159928D01*
X528093D01*
Y160088D01*
X527773D01*
Y160247D01*
X527614D01*
Y160407D01*
X527294D01*
Y160567D01*
X526975D01*
Y160726D01*
X526815D01*
Y160886D01*
X526656D01*
Y161046D01*
X526496D01*
Y161205D01*
X526176D01*
Y161365D01*
X526017D01*
Y161525D01*
X525857D01*
Y161684D01*
X525697D01*
Y161844D01*
X525538D01*
Y162004D01*
X525378D01*
Y162164D01*
X525218D01*
Y162323D01*
X525059D01*
Y162483D01*
X524739D01*
Y162802D01*
X524899D01*
Y162962D01*
X525059D01*
Y163122D01*
X525378D01*
Y163281D01*
X525697D01*
Y163441D01*
X525857D01*
Y163601D01*
X526336D01*
Y163761D01*
X526496D01*
Y163920D01*
X526975D01*
Y164080D01*
X527135D01*
Y164240D01*
X527454D01*
Y164399D01*
X527773D01*
Y164559D01*
X528093D01*
Y164719D01*
X528412D01*
Y164878D01*
X528731D01*
Y165038D01*
X529051D01*
Y165198D01*
X529370D01*
Y165357D01*
X529690D01*
Y165517D01*
X530009D01*
Y165677D01*
X530169D01*
Y165836D01*
X530648D01*
Y165996D01*
X530807D01*
Y166156D01*
X531287D01*
Y166315D01*
X531606D01*
Y166475D01*
X531766D01*
Y166635D01*
X532245D01*
Y166795D01*
X532404D01*
Y166954D01*
X532883D01*
Y167114D01*
X533043D01*
Y167274D01*
X533362D01*
Y167433D01*
X533682D01*
Y167593D01*
X534001D01*
Y167753D01*
X534321D01*
Y167912D01*
X534640D01*
Y168072D01*
X534959D01*
Y168232D01*
X535279D01*
Y168391D01*
X535438D01*
Y168551D01*
X535918D01*
Y168711D01*
X536077D01*
Y168871D01*
X536556D01*
Y169030D01*
X536716D01*
Y169190D01*
X537035D01*
Y169350D01*
X537514D01*
Y169509D01*
X537674D01*
Y169669D01*
X538153D01*
Y169829D01*
X538313D01*
Y169988D01*
X538632D01*
Y170148D01*
X538952D01*
Y169509D01*
D02*
G37*
G36*
X52277Y162673D02*
X52372D01*
Y155038D01*
X52466D01*
Y154943D01*
X57179D01*
Y161542D01*
X57273D01*
Y161636D01*
X58970D01*
Y161542D01*
X59064D01*
Y157300D01*
Y157206D01*
Y154943D01*
X59253D01*
Y154849D01*
X59347D01*
Y154943D01*
X65946D01*
Y154849D01*
X66040D01*
Y153058D01*
X65946D01*
Y152964D01*
X65757D01*
Y153058D01*
X50486D01*
Y162673D01*
X50675D01*
Y162767D01*
X52277D01*
Y162673D01*
D02*
G37*
G36*
X534959Y154658D02*
X534800D01*
Y153700D01*
X534640D01*
Y153221D01*
X534480D01*
Y152582D01*
X534321D01*
Y151784D01*
X534161D01*
Y151305D01*
X534001D01*
Y150347D01*
X533842D01*
Y149708D01*
X533682D01*
Y148909D01*
X533522D01*
Y148590D01*
X523462D01*
Y155137D01*
X523621D01*
Y155297D01*
X534959D01*
Y154658D01*
D02*
G37*
G36*
X69811Y147591D02*
X69905D01*
Y147308D01*
X69811D01*
Y147402D01*
X69716D01*
Y147685D01*
X69811D01*
Y147591D01*
D02*
G37*
G36*
X66040Y147685D02*
X65946D01*
Y147591D01*
X65663D01*
Y147497D01*
X65569D01*
Y147402D01*
X65380D01*
Y147308D01*
X65286D01*
Y147214D01*
X65097D01*
Y147120D01*
X65003D01*
Y147025D01*
X64815D01*
Y146931D01*
X64626D01*
Y146837D01*
X64532D01*
Y146742D01*
X64343D01*
Y146648D01*
X64249D01*
Y146554D01*
X64060D01*
Y146460D01*
X63872D01*
Y146365D01*
X63778D01*
Y146271D01*
X63589D01*
Y146177D01*
X63495D01*
Y146083D01*
X63306D01*
Y145988D01*
X63118D01*
Y145894D01*
X63024D01*
Y145800D01*
X62835D01*
Y145705D01*
X62741D01*
Y145611D01*
X62552D01*
Y145517D01*
X62364D01*
Y145423D01*
X62269D01*
Y145328D01*
X62081D01*
Y145234D01*
X61987D01*
Y145140D01*
X61798D01*
Y145046D01*
X61610D01*
Y144951D01*
X61515D01*
Y144857D01*
X61327D01*
Y144763D01*
X61233D01*
Y144669D01*
X60950D01*
Y144574D01*
X60855D01*
Y144480D01*
X60761D01*
Y144386D01*
X60573D01*
Y144291D01*
X60478D01*
Y144197D01*
X60196D01*
Y144103D01*
X60101D01*
Y144009D01*
X59913D01*
Y143914D01*
X59819D01*
Y143820D01*
X59630D01*
Y143726D01*
X59441D01*
Y143632D01*
X59347D01*
Y143537D01*
X59159D01*
Y143443D01*
X59064D01*
Y143349D01*
X58876D01*
Y143255D01*
X58687D01*
Y143160D01*
X58593D01*
Y143066D01*
X58405D01*
Y142972D01*
X58310D01*
Y142878D01*
X58122D01*
Y142783D01*
X57933D01*
Y142689D01*
X57839D01*
Y142595D01*
X57650D01*
Y142500D01*
X57556D01*
Y142406D01*
X57368D01*
Y142312D01*
X57273D01*
Y142218D01*
X57085D01*
Y142123D01*
X56896D01*
Y142029D01*
X56802D01*
Y141935D01*
X56614D01*
Y141841D01*
X56519D01*
Y141746D01*
X56237D01*
Y141652D01*
X56142D01*
Y141558D01*
X56048D01*
Y141464D01*
X55859D01*
Y141369D01*
X55671D01*
Y141275D01*
X55482D01*
Y141181D01*
X55388D01*
Y141087D01*
X55200D01*
Y140992D01*
X55105D01*
Y140898D01*
X54917D01*
Y140804D01*
X54728D01*
Y140709D01*
X54634D01*
Y140615D01*
X54446D01*
Y140521D01*
X54351D01*
Y140427D01*
X54163D01*
Y140332D01*
X54068D01*
Y140144D01*
X66040D01*
Y138353D01*
X50581D01*
Y138447D01*
X50486D01*
Y140238D01*
X50581D01*
Y140332D01*
X50675D01*
Y140427D01*
X50769D01*
Y140521D01*
X50958D01*
Y140615D01*
X51146D01*
Y140709D01*
X51241D01*
Y140804D01*
X51429D01*
Y140898D01*
X51523D01*
Y140992D01*
X51712D01*
Y141087D01*
X51900D01*
Y141181D01*
X51995D01*
Y141275D01*
X52183D01*
Y141369D01*
X52277D01*
Y141464D01*
X52466D01*
Y141558D01*
X52654D01*
Y141652D01*
X52749D01*
Y141746D01*
X52937D01*
Y141841D01*
X53032D01*
Y141935D01*
X53220D01*
Y142029D01*
X53409D01*
Y142123D01*
X53503D01*
Y142218D01*
X53691D01*
Y142312D01*
X53786D01*
Y142406D01*
X53974D01*
Y142500D01*
X54068D01*
Y142595D01*
X54257D01*
Y142689D01*
X54446D01*
Y142783D01*
X54540D01*
Y142878D01*
X54728D01*
Y142972D01*
X54823D01*
Y143066D01*
X55105D01*
Y143160D01*
X55200D01*
Y143255D01*
X55388D01*
Y143349D01*
X55482D01*
Y143443D01*
X55671D01*
Y143537D01*
X55859D01*
Y143632D01*
X55954D01*
Y143726D01*
X56142D01*
Y143820D01*
X56237D01*
Y143914D01*
X56425D01*
Y144009D01*
X56614D01*
Y144103D01*
X56708D01*
Y144197D01*
X56896D01*
Y144291D01*
X56991D01*
Y144386D01*
X57179D01*
Y144480D01*
X57368D01*
Y144574D01*
X57462D01*
Y144669D01*
X57650D01*
Y144763D01*
X57745D01*
Y144857D01*
X57933D01*
Y144951D01*
X58122D01*
Y145046D01*
X58216D01*
Y145140D01*
X58405D01*
Y145234D01*
X58499D01*
Y145328D01*
X58687D01*
Y145423D01*
X58876D01*
Y145517D01*
X58970D01*
Y145611D01*
X59159D01*
Y145705D01*
X59253D01*
Y145800D01*
X59441D01*
Y145894D01*
X59536D01*
Y145988D01*
X59819D01*
Y146083D01*
X59913D01*
Y146177D01*
X60007D01*
Y146271D01*
X60196D01*
Y146365D01*
X60384D01*
Y146460D01*
X60573D01*
Y146554D01*
X60667D01*
Y146648D01*
X60855D01*
Y146742D01*
X60950D01*
Y146837D01*
X61138D01*
Y146931D01*
X61327D01*
Y147025D01*
X61421D01*
Y147120D01*
X61610D01*
Y147214D01*
X61704D01*
Y147308D01*
X61892D01*
Y147402D01*
X62081D01*
Y147497D01*
X62175D01*
Y147591D01*
X62364D01*
Y147685D01*
X62458D01*
Y147874D01*
X50581D01*
Y148062D01*
X50486D01*
Y149570D01*
X50581D01*
Y149665D01*
X66040D01*
Y147685D01*
D02*
G37*
G36*
X65946Y134959D02*
X66040D01*
Y133168D01*
X65946D01*
Y133074D01*
X65757D01*
Y133168D01*
X50486D01*
Y134865D01*
X50581D01*
Y134959D01*
X50769D01*
Y135054D01*
X65946D01*
Y134959D01*
D02*
G37*
G36*
X531287Y135176D02*
X531446D01*
Y135016D01*
X531606D01*
Y134857D01*
X531446D01*
Y129427D01*
X531606D01*
Y128629D01*
X523621D01*
Y128788D01*
X523462D01*
Y132461D01*
Y132621D01*
Y135176D01*
X523621D01*
Y135336D01*
X531287D01*
Y135176D01*
D02*
G37*
G36*
X531766Y127192D02*
X531925D01*
Y126553D01*
X532085D01*
Y125754D01*
X532245D01*
Y125275D01*
X532404D01*
Y124637D01*
X532564D01*
Y124157D01*
X532724D01*
Y123838D01*
X532883D01*
Y123040D01*
X533043D01*
Y122720D01*
X533203D01*
Y122241D01*
X533362D01*
Y121922D01*
X533522D01*
Y121123D01*
X532883D01*
Y120964D01*
X532564D01*
Y120804D01*
X532245D01*
Y120644D01*
X531925D01*
Y120485D01*
X531606D01*
Y120325D01*
X531446D01*
Y120165D01*
X531287D01*
Y120006D01*
X530967D01*
Y119846D01*
X530807D01*
Y119686D01*
X530648D01*
Y119527D01*
X530488D01*
Y119367D01*
X530328D01*
Y119207D01*
X530169D01*
Y118888D01*
X530009D01*
Y118728D01*
X529849D01*
Y118568D01*
X529690D01*
Y118249D01*
X529530D01*
Y117930D01*
X529370D01*
Y117451D01*
X529211D01*
Y117291D01*
X529051D01*
Y116492D01*
X528891D01*
Y116013D01*
X528731D01*
Y114736D01*
X528572D01*
Y107390D01*
X528731D01*
Y107230D01*
X542305D01*
Y107071D01*
X542465D01*
Y106911D01*
X542624D01*
Y106592D01*
X542784D01*
Y106432D01*
X542944D01*
Y106272D01*
X543103D01*
Y106113D01*
X543263D01*
Y105953D01*
X543423D01*
Y105793D01*
X543583D01*
Y105474D01*
X543742D01*
Y105314D01*
X543902D01*
Y105154D01*
X544062D01*
Y104995D01*
X544221D01*
Y104835D01*
X544381D01*
Y104675D01*
X544541D01*
Y104516D01*
X544700D01*
Y104356D01*
X544860D01*
Y104196D01*
X545020D01*
Y104037D01*
X545179D01*
Y103877D01*
X545339D01*
Y103717D01*
X545499D01*
Y103558D01*
X545658D01*
Y103398D01*
X545818D01*
Y103078D01*
X545978D01*
Y102919D01*
X546138D01*
Y102759D01*
X546297D01*
Y102599D01*
X546457D01*
Y102440D01*
X546617D01*
Y102280D01*
X546776D01*
Y102120D01*
X546936D01*
Y101961D01*
X547255D01*
Y101641D01*
X547575D01*
Y101482D01*
X547734D01*
Y101162D01*
X548054D01*
Y101003D01*
X548214D01*
Y100843D01*
X548373D01*
Y100683D01*
X548533D01*
Y100524D01*
X548373D01*
Y100364D01*
X523621D01*
Y100524D01*
X523462D01*
Y115854D01*
X523621D01*
Y117770D01*
X523781D01*
Y118728D01*
X523941D01*
Y119367D01*
X524100D01*
Y120006D01*
X524260D01*
Y120325D01*
X524420D01*
Y120964D01*
X524580D01*
Y121283D01*
X524739D01*
Y121602D01*
X524899D01*
Y121922D01*
X525059D01*
Y122241D01*
X525218D01*
Y122561D01*
X525378D01*
Y122720D01*
X525538D01*
Y123040D01*
X525697D01*
Y123359D01*
X525857D01*
Y123519D01*
X526017D01*
Y123678D01*
X526176D01*
Y123838D01*
X526336D01*
Y124157D01*
X526496D01*
Y124317D01*
X526656D01*
Y124477D01*
X526815D01*
Y124637D01*
X526975D01*
Y124796D01*
X527135D01*
Y124956D01*
X527294D01*
Y125116D01*
X527454D01*
Y125275D01*
X527614D01*
Y125435D01*
X527773D01*
Y125595D01*
X527933D01*
Y125754D01*
X528252D01*
Y125914D01*
X528412D01*
Y126074D01*
X528572D01*
Y126234D01*
X528731D01*
Y126393D01*
X529051D01*
Y126553D01*
X529370D01*
Y126713D01*
X529530D01*
Y126872D01*
X529849D01*
Y127032D01*
X530009D01*
Y127192D01*
X530488D01*
Y127351D01*
X530807D01*
Y127511D01*
X531127D01*
Y127671D01*
X531766D01*
Y127192D01*
D02*
G37*
D10*
X390767Y472465D02*
G03*
X390767Y474955I-2782J1245D01*
G01*
X463042Y431165D02*
Y450215D01*
X431038Y431165D02*
Y450215D01*
X387985Y471314D02*
Y476106D01*
X397385Y480695D02*
X400175D01*
X409575Y471314D02*
Y476106D01*
X483870Y785D02*
Y194310D01*
X87630Y785D02*
X483870D01*
X87630D02*
Y194310D01*
X483870D01*
D11*
X473530Y522920D02*
G03*
X473530Y522920I-1000J0D01*
G01*
X473990Y729800D02*
X505990D01*
X473990Y714300D02*
X505990D01*
Y729800D01*
X473990Y714300D02*
Y729800D01*
X258260Y720370D02*
Y752370D01*
X273760Y720370D02*
Y752370D01*
X258260D02*
X273760D01*
X258260Y720370D02*
X273760D01*
X75210Y729800D02*
X107210D01*
X75210Y714300D02*
X107210D01*
Y729800D01*
X75210Y714300D02*
Y729800D01*
X311430Y522910D02*
X343430D01*
X311430Y507410D02*
X343430D01*
Y522910D01*
X311430Y507410D02*
Y522910D01*
X467640Y314510D02*
X499640D01*
X467640Y299010D02*
X499640D01*
Y314510D01*
X467640Y299010D02*
Y314510D01*
X274600D02*
X306600D01*
X274600Y299010D02*
X306600D01*
Y314510D01*
X274600Y299010D02*
Y314510D01*
X81560D02*
X113560D01*
X81560Y299010D02*
X113560D01*
Y314510D01*
X81560Y299010D02*
Y314510D01*
X148870Y522790D02*
X180870D01*
X148870Y507290D02*
X180870D01*
Y522790D01*
X148870Y507290D02*
Y522790D01*
X448380Y496560D02*
Y498560D01*
X441380Y496560D02*
Y498560D01*
D12*
X508740Y742800D02*
G03*
X508740Y742800I-1250J0D01*
G01*
X246510Y753870D02*
G03*
X246510Y753870I-1250J0D01*
G01*
X109960Y742800D02*
G03*
X109960Y742800I-1250J0D01*
G01*
X346180Y535910D02*
G03*
X346180Y535910I-1250J0D01*
G01*
X502390Y327510D02*
G03*
X502390Y327510I-1250J0D01*
G01*
X309350D02*
G03*
X309350Y327510I-1250J0D01*
G01*
X116310D02*
G03*
X116310Y327510I-1250J0D01*
G01*
X183620Y535790D02*
G03*
X183620Y535790I-1250J0D01*
G01*
D13*
X494030Y147320D02*
G03*
X494030Y147320I-3810J0D01*
G01*
D14*
X482230Y527470D02*
X507230D01*
X482230Y498370D02*
X507230D01*
X431970Y568270D02*
X434170D01*
X431970Y577270D02*
X434170D01*
X431970Y550490D02*
X434170D01*
X431970Y559490D02*
X434170D01*
X490910Y459910D02*
Y462110D01*
X481910Y459910D02*
Y462110D01*
X492930Y481910D02*
X495130D01*
X492930Y490910D02*
X495130D01*
X463720Y414710D02*
X465920D01*
X463720Y405710D02*
X465920D01*
X453560Y476940D02*
X455760D01*
X453560Y467940D02*
X455760D01*
X201350Y658030D02*
Y660230D01*
X192350Y658030D02*
Y660230D01*
X183570Y658030D02*
Y660230D01*
X174570Y658030D02*
Y660230D01*
X545750Y576900D02*
Y579100D01*
X536750Y576900D02*
Y579100D01*
X512986Y386337D02*
Y388536D01*
X503986Y386337D02*
Y388536D01*
X557436Y386811D02*
Y389011D01*
X548436Y386811D02*
Y389011D01*
X457824Y496222D02*
Y498422D01*
X466824Y496222D02*
Y498422D01*
X457824Y528567D02*
Y530767D01*
X466824Y528567D02*
Y530767D01*
X512160Y723490D02*
Y725690D01*
X521160Y723490D02*
Y725690D01*
X262370Y758540D02*
X264570D01*
X262370Y767540D02*
X264570D01*
X113380Y723490D02*
Y725690D01*
X122380Y723490D02*
Y725690D01*
X349600Y516600D02*
Y518800D01*
X358600Y516600D02*
Y518800D01*
X505810Y308200D02*
Y310400D01*
X514810Y308200D02*
Y310400D01*
X312770Y308200D02*
Y310400D01*
X321770Y308200D02*
Y310400D01*
X119730Y308200D02*
Y310400D01*
X128730Y308200D02*
Y310400D01*
X187040Y516480D02*
Y518680D01*
X196040Y516480D02*
Y518680D01*
X512160Y690470D02*
Y692670D01*
X521160Y690470D02*
Y692670D01*
X295390Y758540D02*
X297590D01*
X295390Y767540D02*
X297590D01*
X113380Y690470D02*
Y692670D01*
X122380Y690470D02*
Y692670D01*
X349600Y483580D02*
Y485780D01*
X358600Y483580D02*
Y485780D01*
X505810Y275180D02*
Y277380D01*
X514810Y275180D02*
Y277380D01*
X312770Y275180D02*
Y277380D01*
X321770Y275180D02*
Y277380D01*
X119730Y275180D02*
Y277380D01*
X128730Y275180D02*
Y277380D01*
X187040Y483460D02*
Y485660D01*
X196040Y483460D02*
Y485660D01*
X450040Y756510D02*
Y758710D01*
X441040Y756510D02*
Y758710D01*
X229350Y696420D02*
X231550D01*
X229350Y687420D02*
X231550D01*
X51260Y756510D02*
Y758710D01*
X42260Y756510D02*
Y758710D01*
X287480Y549620D02*
Y551820D01*
X278480Y549620D02*
Y551820D01*
X443690Y341220D02*
Y343420D01*
X434690Y341220D02*
Y343420D01*
X250650Y341220D02*
Y343420D01*
X241650Y341220D02*
Y343420D01*
X57610Y341220D02*
Y343420D01*
X48610Y341220D02*
Y343420D01*
X124920Y549500D02*
Y551700D01*
X115920Y549500D02*
Y551700D01*
X467820Y756510D02*
Y758710D01*
X458820Y756510D02*
Y758710D01*
X229350Y714200D02*
X231550D01*
X229350Y705200D02*
X231550D01*
X69040Y756510D02*
Y758710D01*
X60040Y756510D02*
Y758710D01*
X305260Y549620D02*
Y551820D01*
X296260Y549620D02*
Y551820D01*
X461470Y341220D02*
Y343420D01*
X452470Y341220D02*
Y343420D01*
X268430Y341220D02*
Y343420D01*
X259430Y341220D02*
Y343420D01*
X75390Y341220D02*
Y343420D01*
X66390Y341220D02*
Y343420D01*
X142700Y549500D02*
Y551700D01*
X133700Y549500D02*
Y551700D01*
X450040Y723490D02*
Y725690D01*
X441040Y723490D02*
Y725690D01*
X262370Y696420D02*
X264570D01*
X262370Y687420D02*
X264570D01*
X51260Y723490D02*
Y725690D01*
X42260Y723490D02*
Y725690D01*
X287480Y516600D02*
Y518800D01*
X278480Y516600D02*
Y518800D01*
X443690Y308200D02*
Y310400D01*
X434690Y308200D02*
Y310400D01*
X250650Y308200D02*
Y310400D01*
X241650Y308200D02*
Y310400D01*
X57610Y308200D02*
Y310400D01*
X48610Y308200D02*
Y310400D01*
X124920Y516480D02*
Y518680D01*
X115920Y516480D02*
Y518680D01*
X488890Y664210D02*
X491090D01*
X488890Y673210D02*
X491090D01*
X323850Y735270D02*
Y737470D01*
X314850Y735270D02*
Y737470D01*
X90110Y664210D02*
X92310D01*
X90110Y673210D02*
X92310D01*
X326330Y457320D02*
X328530D01*
X326330Y466320D02*
X328530D01*
X482540Y248920D02*
X484740D01*
X482540Y257920D02*
X484740D01*
X289500Y248920D02*
X291700D01*
X289500Y257920D02*
X291700D01*
X96460Y248920D02*
X98660D01*
X96460Y257920D02*
X98660D01*
X163770Y457200D02*
X165970D01*
X163770Y466200D02*
X165970D01*
X458820Y723490D02*
Y725690D01*
X467820Y723490D02*
Y725690D01*
X262370Y705200D02*
X264570D01*
X262370Y714200D02*
X264570D01*
X60040Y723490D02*
Y725690D01*
X69040Y723490D02*
Y725690D01*
X296260Y516600D02*
Y518800D01*
X305260Y516600D02*
Y518800D01*
X452470Y308200D02*
Y310400D01*
X461470Y308200D02*
Y310400D01*
X259430Y308200D02*
Y310400D01*
X268430Y308200D02*
Y310400D01*
X66390Y308200D02*
Y310400D01*
X75390Y308200D02*
Y310400D01*
X133700Y516480D02*
Y518680D01*
X142700Y516480D02*
Y518680D01*
X458820Y690470D02*
Y692670D01*
X467820Y690470D02*
Y692670D01*
X295390Y705200D02*
X297590D01*
X295390Y714200D02*
X297590D01*
X60040Y690470D02*
Y692670D01*
X69040Y690470D02*
Y692670D01*
X296260Y483580D02*
Y485780D01*
X305260Y483580D02*
Y485780D01*
X452470Y275180D02*
Y277380D01*
X461470Y275180D02*
Y277380D01*
X259430Y275180D02*
Y277380D01*
X268430Y275180D02*
Y277380D01*
X66390Y275180D02*
Y277380D01*
X75390Y275180D02*
Y277380D01*
X133700Y483460D02*
Y485660D01*
X142700Y483460D02*
Y485660D01*
X494112Y531761D02*
X499912D01*
X494112Y549761D02*
X499912D01*
X538370Y506370D02*
Y512170D01*
X556370Y506370D02*
Y512170D01*
X336849Y615418D02*
X342649D01*
X336849Y597418D02*
X342649D01*
X524620Y648610D02*
Y654410D01*
X506620Y648610D02*
Y654410D01*
X333650Y771000D02*
X339450D01*
X333650Y753000D02*
X339450D01*
X125840Y648610D02*
Y654410D01*
X107840Y648610D02*
Y654410D01*
X362060Y441720D02*
Y447520D01*
X344060Y441720D02*
Y447520D01*
X518270Y233320D02*
Y239120D01*
X500270Y233320D02*
Y239120D01*
X325230Y233320D02*
Y239120D01*
X307230Y233320D02*
Y239120D01*
X132190Y233320D02*
Y239120D01*
X114190Y233320D02*
Y239120D01*
X199500Y441600D02*
Y447400D01*
X181500Y441600D02*
Y447400D01*
X243950Y648610D02*
Y654410D01*
X225950Y648610D02*
Y654410D01*
X472550Y648610D02*
Y654410D01*
X454550Y648610D02*
Y654410D01*
X333650Y718930D02*
X339450D01*
X333650Y700930D02*
X339450D01*
X73770Y648610D02*
Y654410D01*
X55770Y648610D02*
Y654410D01*
X309990Y441720D02*
Y447520D01*
X291990Y441720D02*
Y447520D01*
X466200Y233320D02*
Y239120D01*
X448200Y233320D02*
Y239120D01*
X273160Y233320D02*
Y239120D01*
X255160Y233320D02*
Y239120D01*
X80120Y233320D02*
Y239120D01*
X62120Y233320D02*
Y239120D01*
X147430Y441600D02*
Y447400D01*
X129430Y441600D02*
Y447400D01*
X533400Y358139D02*
X538478D01*
X535939Y360678D02*
Y355600D01*
X546096Y360678D02*
X544826Y361948D01*
X542287D01*
X541017Y360678D01*
Y355600D01*
X542287Y354330D01*
X544826D01*
X546096Y355600D01*
X553713Y361948D02*
X548635D01*
Y354330D01*
X553713D01*
X548635Y358139D02*
X551174D01*
X9150Y104985D02*
Y99060D01*
X18038D01*
Y104985D01*
X13594Y99060D02*
Y102022D01*
X18038Y107947D02*
Y112391D01*
X16556Y113872D01*
X15075Y112391D01*
Y109428D01*
X13594Y107947D01*
X12113Y109428D01*
Y113872D01*
X10632Y118315D02*
X12113D01*
Y116834D01*
Y119797D01*
Y118315D01*
X16556D01*
X18038Y119797D01*
Y128684D02*
Y125721D01*
X16556Y124240D01*
X13594D01*
X12113Y125721D01*
Y128684D01*
X13594Y130165D01*
X15075D01*
Y124240D01*
X9150Y133127D02*
X18038D01*
Y137571D01*
X16556Y139052D01*
X15075D01*
X13594D01*
X12113Y137571D01*
Y133127D01*
Y143496D02*
Y146458D01*
X13594Y147939D01*
X18038D01*
Y143496D01*
X16556Y142014D01*
X15075Y143496D01*
Y147939D01*
X18038Y150902D02*
X12113D01*
Y155345D01*
X13594Y156826D01*
X18038D01*
X10632Y174601D02*
X9150Y173119D01*
Y170157D01*
X10632Y168676D01*
X16556D01*
X18038Y170157D01*
Y173119D01*
X16556Y174601D01*
X12113Y177563D02*
X18038D01*
X15075D01*
X13594Y179044D01*
X12113Y180525D01*
Y182006D01*
X18038Y186450D02*
Y189412D01*
Y187931D01*
X12113D01*
Y186450D01*
X18038Y193856D02*
Y198300D01*
X16556Y199781D01*
X15075Y198300D01*
Y195337D01*
X13594Y193856D01*
X12113Y195337D01*
Y199781D01*
X10632Y204224D02*
X12113D01*
Y202743D01*
Y205706D01*
Y204224D01*
X16556D01*
X18038Y205706D01*
X12113Y211630D02*
Y214593D01*
X13594Y216074D01*
X18038D01*
Y211630D01*
X16556Y210149D01*
X15075Y211630D01*
Y216074D01*
X18038Y219036D02*
Y221999D01*
Y220517D01*
X9150D01*
Y219036D01*
Y232367D02*
X18038D01*
Y227923D01*
X16556Y226442D01*
X13594D01*
X12113Y227923D01*
Y232367D01*
X18038Y236810D02*
Y239773D01*
X16556Y241254D01*
X13594D01*
X12113Y239773D01*
Y236810D01*
X13594Y235329D01*
X16556D01*
X18038Y236810D01*
X24344Y104985D02*
X22863Y103504D01*
Y100541D01*
X24344Y99060D01*
X30269D01*
X31750Y100541D01*
Y103504D01*
X30269Y104985D01*
X31750Y107947D02*
Y110910D01*
Y109428D01*
X22863D01*
Y107947D01*
X25825Y116834D02*
Y119797D01*
X27306Y121278D01*
X31750D01*
Y116834D01*
X30269Y115353D01*
X28788Y116834D01*
Y121278D01*
X25825Y124240D02*
X30269D01*
X31750Y125721D01*
Y130165D01*
X25825D01*
X22863Y139052D02*
X31750D01*
Y134608D01*
X30269Y133127D01*
X27306D01*
X25825Y134608D01*
Y139052D01*
X31750Y142014D02*
Y144977D01*
Y143496D01*
X25825D01*
Y142014D01*
X31750Y150902D02*
Y153864D01*
X30269Y155345D01*
X27306D01*
X25825Y153864D01*
Y150902D01*
X27306Y149420D01*
X30269D01*
X31750Y150902D01*
X24344Y173119D02*
X22863Y171638D01*
Y168676D01*
X24344Y167195D01*
X30269D01*
X31750Y168676D01*
Y171638D01*
X30269Y173119D01*
X27306D01*
Y170157D01*
X31750Y177563D02*
Y180525D01*
X30269Y182006D01*
X27306D01*
X25825Y180525D01*
Y177563D01*
X27306Y176082D01*
X30269D01*
X31750Y177563D01*
X24344Y186450D02*
X25825D01*
Y184969D01*
Y187931D01*
Y186450D01*
X30269D01*
X31750Y187931D01*
X24344Y193856D02*
X25825D01*
Y192375D01*
Y195337D01*
Y193856D01*
X30269D01*
X31750Y195337D01*
Y199781D02*
Y202743D01*
Y201262D01*
X25825D01*
Y199781D01*
X14834Y483870D02*
X24990D01*
Y488949D01*
X23298Y490641D01*
X16527D01*
X14834Y488949D01*
Y483870D01*
X24990Y494027D02*
X18219D01*
X14834Y497412D01*
X18219Y500798D01*
X24990D01*
X19912D01*
Y494027D01*
X24990Y504184D02*
X14834D01*
Y509262D01*
X16527Y510955D01*
X19912D01*
X21605Y509262D01*
Y504184D01*
X14834Y514340D02*
X24990D01*
X19912D01*
Y521111D01*
X14834D01*
X24990D01*
Y524497D02*
X14834D01*
X24990Y531268D01*
X14834D01*
Y541425D02*
Y534654D01*
X24990D01*
Y541425D01*
X19912Y534654D02*
Y538039D01*
X24990Y554967D02*
X14834D01*
X18219Y558353D01*
X14834Y561738D01*
X24990D01*
Y570202D02*
Y566817D01*
X23298Y565124D01*
X19912D01*
X18219Y566817D01*
Y570202D01*
X19912Y571895D01*
X21605D01*
Y565124D01*
X18219Y575281D02*
Y582052D01*
X24990Y575281D01*
Y582052D01*
X18219Y585437D02*
Y592209D01*
X24990Y585437D01*
Y592209D01*
X18219Y597287D02*
Y600672D01*
X19912Y602365D01*
X24990D01*
Y597287D01*
X23298Y595594D01*
X21605Y597287D01*
Y602365D01*
X24990Y605751D02*
X18219D01*
Y610829D01*
X19912Y612522D01*
X24990D01*
Y615908D02*
Y619293D01*
Y617600D01*
X18219D01*
Y615908D01*
X24990Y624371D02*
X18219D01*
Y629450D01*
X19912Y631143D01*
X24990D01*
Y639607D02*
Y636221D01*
X23298Y634528D01*
X19912D01*
X18219Y636221D01*
Y639607D01*
X19912Y641299D01*
X21605D01*
Y634528D01*
X30070Y483870D02*
X36841D01*
X40227Y487256D01*
X36841Y490641D01*
X30070D01*
X40227Y494027D02*
Y497412D01*
Y495720D01*
X30070D01*
X31763Y494027D01*
X40227Y502491D02*
X38534D01*
Y504184D01*
X40227D01*
Y502491D01*
X31763Y510955D02*
X30070Y512648D01*
Y516033D01*
X31763Y517726D01*
X38534D01*
X40227Y516033D01*
Y512648D01*
X38534Y510955D01*
X31763D01*
X35148Y531268D02*
Y538039D01*
X30070Y551582D02*
X40227D01*
X35148D01*
Y558353D01*
X30070D01*
X40227D01*
X30070Y561738D02*
X40227D01*
Y566817D01*
X38534Y568509D01*
X31763D01*
X30070Y566817D01*
Y561738D01*
X31763Y588823D02*
X30070Y587130D01*
Y583745D01*
X31763Y582052D01*
X33456D01*
X35148Y583745D01*
Y587130D01*
X36841Y588823D01*
X38534D01*
X40227Y587130D01*
Y583745D01*
X38534Y582052D01*
X31763Y593901D02*
X33456D01*
Y592209D01*
Y595594D01*
Y593901D01*
X38534D01*
X40227Y595594D01*
X33456Y600672D02*
X38534D01*
X40227Y602365D01*
Y607444D01*
X41919D01*
X43612Y605751D01*
Y604058D01*
X40227Y607444D02*
X33456D01*
X40227Y610829D02*
Y614215D01*
Y612522D01*
X30070D01*
Y610829D01*
X40227Y624371D02*
Y620986D01*
X38534Y619293D01*
X35148D01*
X33456Y620986D01*
Y624371D01*
X35148Y626064D01*
X36841D01*
Y619293D01*
X58848Y483870D02*
X52077D01*
X48692Y487256D01*
X52077Y490641D01*
X58848D01*
X53770D01*
Y483870D01*
X52077Y500798D02*
Y495720D01*
X53770Y494027D01*
X57155D01*
X58848Y495720D01*
Y500798D01*
X50384Y505876D02*
X52077D01*
Y504184D01*
Y507569D01*
Y505876D01*
X57155D01*
X58848Y507569D01*
Y512648D02*
Y516033D01*
Y514340D01*
X52077D01*
Y512648D01*
Y521111D02*
X58848Y524497D01*
X52077Y527883D01*
X58848Y536347D02*
Y532961D01*
X57155Y531268D01*
X53770D01*
X52077Y532961D01*
Y536347D01*
X53770Y538039D01*
X55463D01*
Y531268D01*
X65620Y490641D02*
X63928Y488949D01*
Y485563D01*
X65620Y483870D01*
X72392D01*
X74084Y485563D01*
Y488949D01*
X72392Y490641D01*
X74084Y495720D02*
Y499105D01*
X72392Y500798D01*
X69006D01*
X67313Y499105D01*
Y495720D01*
X69006Y494027D01*
X72392D01*
X74084Y495720D01*
Y504184D02*
X67313D01*
Y505876D01*
X69006Y507569D01*
X74084D01*
X69006D01*
X67313Y509262D01*
X69006Y510955D01*
X74084D01*
X77470Y514340D02*
X67313D01*
Y519419D01*
X69006Y521111D01*
X72392D01*
X74084Y519419D01*
Y514340D01*
Y529575D02*
Y526190D01*
X72392Y524497D01*
X69006D01*
X67313Y526190D01*
Y529575D01*
X69006Y531268D01*
X70699D01*
Y524497D01*
X74084Y534654D02*
X67313D01*
Y539732D01*
X69006Y541425D01*
X74084D01*
Y544810D02*
Y549889D01*
X72392Y551582D01*
X70699Y549889D01*
Y546503D01*
X69006Y544810D01*
X67313Y546503D01*
Y551582D01*
Y556660D02*
Y560046D01*
X69006Y561738D01*
X74084D01*
Y556660D01*
X72392Y554967D01*
X70699Y556660D01*
Y561738D01*
X65620Y566817D02*
X67313D01*
Y565124D01*
Y568509D01*
Y566817D01*
X72392D01*
X74084Y568509D01*
Y575281D02*
Y578666D01*
X72392Y580359D01*
X69006D01*
X67313Y578666D01*
Y575281D01*
X69006Y573588D01*
X72392D01*
X74084Y575281D01*
X67313Y583745D02*
X74084D01*
X70699D01*
X69006Y585437D01*
X67313Y587130D01*
Y588823D01*
X490220Y358139D02*
X495298D01*
X492759Y360678D02*
Y355600D01*
X502916Y361948D02*
X497837D01*
Y358139D01*
X500377Y359408D01*
X501646D01*
X502916Y358139D01*
Y355600D01*
X501646Y354330D01*
X499107D01*
X497837Y355600D01*
X505455Y361948D02*
Y356869D01*
X507994Y354330D01*
X510533Y356869D01*
Y361948D01*
X83820Y109220D02*
X78742D01*
X80434Y110913D01*
X78742Y112606D01*
X83820D01*
X78742Y114298D02*
Y115991D01*
Y115145D01*
X83820D01*
Y114298D01*
Y115991D01*
X78742Y118530D02*
X83820D01*
Y121916D01*
Y123609D02*
X80434D01*
X78742Y125302D01*
X80434Y126994D01*
X83820D01*
X81281D01*
Y123609D01*
X83820Y128687D02*
X78742D01*
X83820Y132073D01*
X78742D01*
Y136305D02*
Y134612D01*
X79588Y133765D01*
X82974D01*
X83820Y134612D01*
Y136305D01*
X82974Y137151D01*
X79588D01*
X78742Y136305D01*
X81281Y138844D02*
Y142229D01*
X78742Y143922D02*
X83820D01*
Y146461D01*
X82974Y147308D01*
X82127D01*
X81281Y146461D01*
Y143922D01*
Y146461D01*
X80434Y147308D01*
X79588D01*
X78742Y146461D01*
Y143922D01*
Y149000D02*
Y150693D01*
Y149847D01*
X83820D01*
Y149000D01*
Y150693D01*
X79588Y156618D02*
X78742Y155772D01*
Y154079D01*
X79588Y153232D01*
X82974D01*
X83820Y154079D01*
Y155772D01*
X82974Y156618D01*
X78742Y160850D02*
Y159157D01*
X79588Y158311D01*
X82974D01*
X83820Y159157D01*
Y160850D01*
X82974Y161696D01*
X79588D01*
X78742Y160850D01*
X79588Y166775D02*
X78742Y165928D01*
Y164235D01*
X79588Y163389D01*
X82974D01*
X83820Y164235D01*
Y165928D01*
X82974Y166775D01*
X79588Y171853D02*
X78742Y171007D01*
Y169314D01*
X79588Y168467D01*
X82974D01*
X83820Y169314D01*
Y171007D01*
X82974Y171853D01*
X83820Y173546D02*
X80434D01*
X78742Y175239D01*
X80434Y176931D01*
X83820D01*
X81281D01*
Y173546D01*
X519430Y556259D02*
X524508D01*
X521969Y558798D02*
Y553720D01*
X532126Y560067D02*
X527048D01*
Y556259D01*
X529587Y557528D01*
X530856D01*
X532126Y556259D01*
Y553720D01*
X530856Y552450D01*
X528317D01*
X527048Y553720D01*
X534665Y560067D02*
Y554989D01*
X537204Y552450D01*
X539743Y554989D01*
Y560067D01*
X542283Y558798D02*
X543552Y560067D01*
X546091D01*
X547361Y558798D01*
Y557528D01*
X546091Y556259D01*
X544822D01*
X546091D01*
X547361Y554989D01*
Y553720D01*
X546091Y552450D01*
X543552D01*
X542283Y553720D01*
X350520Y391794D02*
X354752D01*
X352636Y393910D02*
Y389678D01*
X361100Y394968D02*
X356868D01*
Y391794D01*
X358984Y392852D01*
X360042D01*
X361100Y391794D01*
Y389678D01*
X360042Y388620D01*
X357926D01*
X356868Y389678D01*
X363216Y394968D02*
Y390736D01*
X365332Y388620D01*
X367448Y390736D01*
Y394968D01*
X378460Y391794D02*
X382692D01*
X380576Y393910D02*
Y389678D01*
X389040Y393910D02*
X387982Y394968D01*
X385866D01*
X384808Y393910D01*
Y389678D01*
X385866Y388620D01*
X387982D01*
X389040Y389678D01*
X395388Y394968D02*
X391156D01*
Y388620D01*
X395388D01*
X391156Y391794D02*
X393272D01*
X505460Y606424D02*
X509692D01*
X507576Y608540D02*
Y604308D01*
X516040Y609598D02*
X511808D01*
Y606424D01*
X513924Y607482D01*
X514982D01*
X516040Y606424D01*
Y604308D01*
X514982Y603250D01*
X512866D01*
X511808Y604308D01*
X518156Y609598D02*
Y605366D01*
X520272Y603250D01*
X522388Y605366D01*
Y609598D01*
X524504Y608540D02*
X525562Y609598D01*
X527678D01*
X528736Y608540D01*
Y607482D01*
X527678Y606424D01*
X526620D01*
X527678D01*
X528736Y605366D01*
Y604308D01*
X527678Y603250D01*
X525562D01*
X524504Y604308D01*
X447889Y570231D02*
Y575309D01*
X450428D01*
X451274Y574463D01*
Y572770D01*
X450428Y571924D01*
X447889D01*
X449582D02*
X451274Y570231D01*
X456353Y575309D02*
X452967D01*
Y572770D01*
X454660Y573616D01*
X455506D01*
X456353Y572770D01*
Y571077D01*
X455506Y570231D01*
X453814D01*
X452967Y571077D01*
X458046Y574463D02*
X458892Y575309D01*
X460585D01*
X461431Y574463D01*
Y573616D01*
X460585Y572770D01*
X459738D01*
X460585D01*
X461431Y571924D01*
Y571077D01*
X460585Y570231D01*
X458892D01*
X458046Y571077D01*
X449159Y556261D02*
Y561339D01*
X451698D01*
X452544Y560493D01*
Y558800D01*
X451698Y557954D01*
X449159D01*
X450852D02*
X452544Y556261D01*
X457623Y561339D02*
X454237D01*
Y558800D01*
X455930Y559646D01*
X456776D01*
X457623Y558800D01*
Y557107D01*
X456776Y556261D01*
X455084D01*
X454237Y557107D01*
X462701Y556261D02*
X459316D01*
X462701Y559646D01*
Y560493D01*
X461855Y561339D01*
X460162D01*
X459316Y560493D01*
X495936Y473076D02*
Y476884D01*
X497841D01*
X498476Y476250D01*
Y474980D01*
X497841Y474345D01*
X495936D01*
X497206D02*
X498476Y473076D01*
X502284Y476884D02*
X499745D01*
Y474980D01*
X501015Y475615D01*
X501650D01*
X502284Y474980D01*
Y473710D01*
X501650Y473076D01*
X500380D01*
X499745Y473710D01*
X503554Y473076D02*
X504824D01*
X504189D01*
Y476884D01*
X503554Y476250D01*
X509272Y484506D02*
Y488314D01*
X511176D01*
X511811Y487680D01*
Y486410D01*
X511176Y485775D01*
X509272D01*
X510541D02*
X511811Y484506D01*
X515620Y488314D02*
X513080D01*
Y486410D01*
X514350Y487045D01*
X514985D01*
X515620Y486410D01*
Y485140D01*
X514985Y484506D01*
X513715D01*
X513080Y485140D01*
X516889Y487680D02*
X517524Y488314D01*
X518794D01*
X519428Y487680D01*
Y485140D01*
X518794Y484506D01*
X517524D01*
X516889Y485140D01*
Y487680D01*
X466726Y443864D02*
Y440690D01*
X467361Y440056D01*
X468630D01*
X469265Y440690D01*
Y443864D01*
X470535D02*
X473074D01*
Y443230D01*
X470535Y440690D01*
Y440056D01*
X409576Y487044D02*
Y483870D01*
X410211Y483236D01*
X411480D01*
X412115Y483870D01*
Y487044D01*
X415924D02*
X413385D01*
Y485140D01*
X414654Y485775D01*
X415289D01*
X415924Y485140D01*
Y483870D01*
X415289Y483236D01*
X414020D01*
X413385Y483870D01*
X462282Y399416D02*
Y403224D01*
X464186D01*
X464821Y402590D01*
Y401320D01*
X464186Y400685D01*
X462282D01*
X463551D02*
X464821Y399416D01*
X467995D02*
Y403224D01*
X466090Y401320D01*
X468630D01*
X472438Y403224D02*
X471169Y402590D01*
X469899Y401320D01*
Y400050D01*
X470534Y399416D01*
X471804D01*
X472438Y400050D01*
Y400685D01*
X471804Y401320D01*
X469899D01*
X449582Y479426D02*
Y483234D01*
X451486D01*
X452121Y482600D01*
Y481330D01*
X451486Y480695D01*
X449582D01*
X450851D02*
X452121Y479426D01*
X455295D02*
Y483234D01*
X453390Y481330D01*
X455930D01*
X459738Y483234D02*
X457199D01*
Y481330D01*
X458469Y481965D01*
X459104D01*
X459738Y481330D01*
Y480060D01*
X459104Y479426D01*
X457834D01*
X457199Y480060D01*
X191772Y673736D02*
Y677544D01*
X193676D01*
X194311Y676910D01*
Y675640D01*
X193676Y675005D01*
X191772D01*
X193041D02*
X194311Y673736D01*
X197485D02*
Y677544D01*
X195580Y675640D01*
X198120D01*
X199389Y676910D02*
X200024Y677544D01*
X201294D01*
X201928Y676910D01*
Y676275D01*
X201294Y675640D01*
X200659D01*
X201294D01*
X201928Y675005D01*
Y674370D01*
X201294Y673736D01*
X200024D01*
X199389Y674370D01*
X173992Y673736D02*
Y677544D01*
X175896D01*
X176531Y676910D01*
Y675640D01*
X175896Y675005D01*
X173992D01*
X175261D02*
X176531Y673736D01*
X179705D02*
Y677544D01*
X177800Y675640D01*
X180340D01*
X184148Y673736D02*
X181609D01*
X184148Y676275D01*
Y676910D01*
X183514Y677544D01*
X182244D01*
X181609Y676910D01*
X419101Y444500D02*
X418466Y445134D01*
X417196D01*
X416562Y444500D01*
Y441960D01*
X417196Y441326D01*
X418466D01*
X419101Y441960D01*
X420370Y444500D02*
X421005Y445134D01*
X422275D01*
X422910Y444500D01*
Y443865D01*
X422275Y443230D01*
X421640D01*
X422275D01*
X422910Y442595D01*
Y441960D01*
X422275Y441326D01*
X421005D01*
X420370Y441960D01*
X426718Y445134D02*
X425449Y444500D01*
X424179Y443230D01*
Y441960D01*
X424814Y441326D01*
X426084D01*
X426718Y441960D01*
Y442595D01*
X426084Y443230D01*
X424179D01*
X397828Y513080D02*
X397193Y513714D01*
X395924D01*
X395289Y513080D01*
Y510540D01*
X395924Y509906D01*
X397193D01*
X397828Y510540D01*
X399098Y509906D02*
X400367D01*
X399733D01*
Y513714D01*
X399098Y513080D01*
X402272Y513714D02*
X404811D01*
Y513080D01*
X402272Y510540D01*
Y509906D01*
X213995Y631190D02*
X213360Y631824D01*
X212091D01*
X211456Y631190D01*
Y628650D01*
X212091Y628016D01*
X213360D01*
X213995Y628650D01*
X215265Y631190D02*
X215900Y631824D01*
X217169D01*
X217804Y631190D01*
Y630555D01*
X217169Y629920D01*
X217804Y629285D01*
Y628650D01*
X217169Y628016D01*
X215900D01*
X215265Y628650D01*
Y629285D01*
X215900Y629920D01*
X215265Y630555D01*
Y631190D01*
X215900Y629920D02*
X217169D01*
X233045Y622300D02*
X232410Y622934D01*
X231141D01*
X230506Y622300D01*
Y619760D01*
X231141Y619126D01*
X232410D01*
X233045Y619760D01*
X234315Y622934D02*
X236854D01*
Y622300D01*
X234315Y619760D01*
Y619126D01*
X535942Y629284D02*
X538481D01*
X537211D01*
Y625476D01*
X539750D02*
Y629284D01*
X541655D01*
X542290Y628650D01*
Y627380D01*
X541655Y626745D01*
X539750D01*
X543559Y629284D02*
X546098D01*
Y628650D01*
X543559Y626110D01*
Y625476D01*
X365762Y419734D02*
X368301D01*
X367031D01*
Y415926D01*
X369570D02*
Y419734D01*
X371475D01*
X372110Y419100D01*
Y417830D01*
X371475Y417195D01*
X369570D01*
X375918Y419734D02*
X374649Y419100D01*
X373379Y417830D01*
Y416560D01*
X374014Y415926D01*
X375284D01*
X375918Y416560D01*
Y417195D01*
X375284Y417830D01*
X373379D01*
X377954Y419734D02*
X380493D01*
X379223D01*
Y415926D01*
X381762D02*
Y419734D01*
X383667D01*
X384302Y419100D01*
Y417830D01*
X383667Y417195D01*
X381762D01*
X388110Y419734D02*
X385571D01*
Y417830D01*
X386841Y418465D01*
X387476D01*
X388110Y417830D01*
Y416560D01*
X387476Y415926D01*
X386206D01*
X385571Y416560D01*
X408943Y792162D02*
X411482D01*
X410212D01*
Y788353D01*
X412752D02*
Y792162D01*
X414656D01*
X415291Y791527D01*
Y790257D01*
X414656Y789623D01*
X412752D01*
X418465Y788353D02*
Y792162D01*
X416560Y790257D01*
X419100D01*
X420369Y787718D02*
X422908D01*
X424178Y792162D02*
Y788353D01*
Y790257D01*
X426717D01*
Y792162D01*
Y788353D01*
X206356Y665592D02*
Y668131D01*
Y666862D01*
X210165D01*
Y669401D02*
X206356D01*
Y671305D01*
X206991Y671940D01*
X208261D01*
X208895Y671305D01*
Y669401D01*
X210165Y675114D02*
X206356D01*
X208261Y673210D01*
Y675749D01*
X210800Y677018D02*
Y679558D01*
X206991Y683366D02*
X206356Y682732D01*
Y681462D01*
X206991Y680827D01*
X209530D01*
X210165Y681462D01*
Y682732D01*
X209530Y683366D01*
X208261D01*
Y682097D01*
X10163Y792162D02*
X12702D01*
X11432D01*
Y788353D01*
X13972D02*
Y792162D01*
X15876D01*
X16511Y791527D01*
Y790257D01*
X15876Y789623D01*
X13972D01*
X19685Y788353D02*
Y792162D01*
X17780Y790257D01*
X20320D01*
X21589Y787718D02*
X24128D01*
X27937Y792162D02*
X25398D01*
Y790257D01*
X26668D01*
X25398D01*
Y788353D01*
X227333Y566102D02*
X229872D01*
X228602D01*
Y562293D01*
X231142D02*
Y566102D01*
X233046D01*
X233681Y565467D01*
Y564197D01*
X233046Y563563D01*
X231142D01*
X236855Y562293D02*
Y566102D01*
X234950Y564197D01*
X237490D01*
X238759Y561658D02*
X241298D01*
X245107Y566102D02*
X242568D01*
Y562293D01*
X245107D01*
X242568Y564197D02*
X243838D01*
X402593Y376872D02*
X405132D01*
X403862D01*
Y373063D01*
X406402D02*
Y376872D01*
X408306D01*
X408941Y376237D01*
Y374967D01*
X408306Y374333D01*
X406402D01*
X412115Y373063D02*
Y376872D01*
X410210Y374967D01*
X412750D01*
X414019Y372428D02*
X416558D01*
X417828Y376872D02*
Y373063D01*
X419732D01*
X420367Y373698D01*
Y376237D01*
X419732Y376872D01*
X417828D01*
X209553D02*
X212092D01*
X210822D01*
Y373063D01*
X213362D02*
Y376872D01*
X215266D01*
X215901Y376237D01*
Y374967D01*
X215266Y374333D01*
X213362D01*
X219075Y373063D02*
Y376872D01*
X217170Y374967D01*
X219710D01*
X220979Y372428D02*
X223518D01*
X227327Y376237D02*
X226692Y376872D01*
X225423D01*
X224788Y376237D01*
Y373698D01*
X225423Y373063D01*
X226692D01*
X227327Y373698D01*
X16513Y376872D02*
X19052D01*
X17782D01*
Y373063D01*
X20322D02*
Y376872D01*
X22226D01*
X22861Y376237D01*
Y374967D01*
X22226Y374333D01*
X20322D01*
X26035Y373063D02*
Y376872D01*
X24130Y374967D01*
X26670D01*
X27939Y372428D02*
X30478D01*
X31748Y376872D02*
Y373063D01*
X33652D01*
X34287Y373698D01*
Y374333D01*
X33652Y374967D01*
X31748D01*
X33652D01*
X34287Y375602D01*
Y376237D01*
X33652Y376872D01*
X31748D01*
X83823Y585152D02*
X86362D01*
X85092D01*
Y581343D01*
X87632D02*
Y585152D01*
X89536D01*
X90171Y584517D01*
Y583247D01*
X89536Y582613D01*
X87632D01*
X93345Y581343D02*
Y585152D01*
X91440Y583247D01*
X93980D01*
X95249Y580708D02*
X97788D01*
X99058Y581343D02*
Y583882D01*
X100328Y585152D01*
X101597Y583882D01*
Y581343D01*
Y583247D01*
X99058D01*
X429263Y792162D02*
X431802D01*
X430532D01*
Y788353D01*
X433072D02*
Y792162D01*
X434976D01*
X435611Y791527D01*
Y790257D01*
X434976Y789623D01*
X433072D01*
X436880Y791527D02*
X437515Y792162D01*
X438785D01*
X439420Y791527D01*
Y790892D01*
X438785Y790257D01*
X438150D01*
X438785D01*
X439420Y789623D01*
Y788988D01*
X438785Y788353D01*
X437515D01*
X436880Y788988D01*
X440689Y787718D02*
X443228D01*
X444498Y792162D02*
Y788353D01*
Y790257D01*
X447037D01*
Y792162D01*
Y788353D01*
X189548Y687073D02*
Y689612D01*
Y688342D01*
X193357D01*
Y690882D02*
X189548D01*
Y692786D01*
X190183Y693421D01*
X191453D01*
X192087Y692786D01*
Y690882D01*
X190183Y694690D02*
X189548Y695325D01*
Y696595D01*
X190183Y697230D01*
X190818D01*
X191453Y696595D01*
Y695960D01*
Y696595D01*
X192087Y697230D01*
X192722D01*
X193357Y696595D01*
Y695325D01*
X192722Y694690D01*
X193992Y698499D02*
Y701038D01*
X190183Y704847D02*
X189548Y704212D01*
Y702943D01*
X190183Y702308D01*
X192722D01*
X193357Y702943D01*
Y704212D01*
X192722Y704847D01*
X191453D01*
Y703578D01*
X30483Y792162D02*
X33022D01*
X31752D01*
Y788353D01*
X34292D02*
Y792162D01*
X36196D01*
X36831Y791527D01*
Y790257D01*
X36196Y789623D01*
X34292D01*
X38100Y791527D02*
X38735Y792162D01*
X40005D01*
X40640Y791527D01*
Y790892D01*
X40005Y790257D01*
X39370D01*
X40005D01*
X40640Y789623D01*
Y788988D01*
X40005Y788353D01*
X38735D01*
X38100Y788988D01*
X41909Y787718D02*
X44448D01*
X48257Y792162D02*
X45718D01*
Y790257D01*
X46988D01*
X45718D01*
Y788353D01*
X266703Y585272D02*
X269242D01*
X267972D01*
Y581463D01*
X270512D02*
Y585272D01*
X272416D01*
X273051Y584637D01*
Y583367D01*
X272416Y582733D01*
X270512D01*
X274320Y584637D02*
X274955Y585272D01*
X276225D01*
X276860Y584637D01*
Y584002D01*
X276225Y583367D01*
X275590D01*
X276225D01*
X276860Y582733D01*
Y582098D01*
X276225Y581463D01*
X274955D01*
X274320Y582098D01*
X278129Y580828D02*
X280668D01*
X284477Y585272D02*
X281938D01*
Y581463D01*
X284477D01*
X281938Y583367D02*
X283208D01*
X422913Y376872D02*
X425452D01*
X424182D01*
Y373063D01*
X426722D02*
Y376872D01*
X428626D01*
X429261Y376237D01*
Y374967D01*
X428626Y374333D01*
X426722D01*
X430530Y376237D02*
X431165Y376872D01*
X432435D01*
X433070Y376237D01*
Y375602D01*
X432435Y374967D01*
X431800D01*
X432435D01*
X433070Y374333D01*
Y373698D01*
X432435Y373063D01*
X431165D01*
X430530Y373698D01*
X434339Y372428D02*
X436878D01*
X438148Y376872D02*
Y373063D01*
X440052D01*
X440687Y373698D01*
Y376237D01*
X440052Y376872D01*
X438148D01*
X229873D02*
X232412D01*
X231142D01*
Y373063D01*
X233682D02*
Y376872D01*
X235586D01*
X236221Y376237D01*
Y374967D01*
X235586Y374333D01*
X233682D01*
X237490Y376237D02*
X238125Y376872D01*
X239395D01*
X240030Y376237D01*
Y375602D01*
X239395Y374967D01*
X238760D01*
X239395D01*
X240030Y374333D01*
Y373698D01*
X239395Y373063D01*
X238125D01*
X237490Y373698D01*
X241299Y372428D02*
X243838D01*
X247647Y376237D02*
X247012Y376872D01*
X245743D01*
X245108Y376237D01*
Y373698D01*
X245743Y373063D01*
X247012D01*
X247647Y373698D01*
X49533Y385762D02*
X52072D01*
X50802D01*
Y381953D01*
X53342D02*
Y385762D01*
X55246D01*
X55881Y385127D01*
Y383857D01*
X55246Y383223D01*
X53342D01*
X57150Y385127D02*
X57785Y385762D01*
X59055D01*
X59690Y385127D01*
Y384492D01*
X59055Y383857D01*
X58420D01*
X59055D01*
X59690Y383223D01*
Y382588D01*
X59055Y381953D01*
X57785D01*
X57150Y382588D01*
X60959Y381318D02*
X63498D01*
X64768Y385762D02*
Y381953D01*
X66672D01*
X67307Y382588D01*
Y383223D01*
X66672Y383857D01*
X64768D01*
X66672D01*
X67307Y384492D01*
Y385127D01*
X66672Y385762D01*
X64768D01*
X104143Y585152D02*
X106682D01*
X105412D01*
Y581343D01*
X107952D02*
Y585152D01*
X109856D01*
X110491Y584517D01*
Y583247D01*
X109856Y582613D01*
X107952D01*
X111760Y584517D02*
X112395Y585152D01*
X113665D01*
X114300Y584517D01*
Y583882D01*
X113665Y583247D01*
X113030D01*
X113665D01*
X114300Y582613D01*
Y581978D01*
X113665Y581343D01*
X112395D01*
X111760Y581978D01*
X115569Y580708D02*
X118108D01*
X119378Y581343D02*
Y583882D01*
X120648Y585152D01*
X121917Y583882D01*
Y581343D01*
Y583247D01*
X119378D01*
X405133Y735012D02*
X407672D01*
X406402D01*
Y731203D01*
X408942D02*
Y735012D01*
X410846D01*
X411481Y734377D01*
Y733107D01*
X410846Y732473D01*
X408942D01*
X415290Y731203D02*
X412750D01*
X415290Y733742D01*
Y734377D01*
X414655Y735012D01*
X413385D01*
X412750Y734377D01*
X416559Y730568D02*
X419098D01*
X420368Y735012D02*
Y731203D01*
Y733107D01*
X422907D01*
Y735012D01*
Y731203D01*
X253048Y651513D02*
Y654052D01*
Y652782D01*
X256857D01*
Y655322D02*
X253048D01*
Y657226D01*
X253683Y657861D01*
X254953D01*
X255587Y657226D01*
Y655322D01*
X256857Y661670D02*
Y659130D01*
X254318Y661670D01*
X253683D01*
X253048Y661035D01*
Y659765D01*
X253683Y659130D01*
X257492Y662939D02*
Y665478D01*
X253683Y669287D02*
X253048Y668652D01*
Y667383D01*
X253683Y666748D01*
X256222D01*
X256857Y667383D01*
Y668652D01*
X256222Y669287D01*
X254953D01*
Y668018D01*
X6353Y735012D02*
X8892D01*
X7622D01*
Y731203D01*
X10162D02*
Y735012D01*
X12066D01*
X12701Y734377D01*
Y733107D01*
X12066Y732473D01*
X10162D01*
X16510Y731203D02*
X13970D01*
X16510Y733742D01*
Y734377D01*
X15875Y735012D01*
X14605D01*
X13970Y734377D01*
X17779Y730568D02*
X20318D01*
X24127Y735012D02*
X21588D01*
Y733107D01*
X22858D01*
X21588D01*
Y731203D01*
X242573Y528122D02*
X245112D01*
X243842D01*
Y524313D01*
X246382D02*
Y528122D01*
X248286D01*
X248921Y527487D01*
Y526217D01*
X248286Y525583D01*
X246382D01*
X252730Y524313D02*
X250190D01*
X252730Y526852D01*
Y527487D01*
X252095Y528122D01*
X250825D01*
X250190Y527487D01*
X253999Y523678D02*
X256538D01*
X260347Y528122D02*
X257808D01*
Y524313D01*
X260347D01*
X257808Y526217D02*
X259078D01*
X398783Y319722D02*
X401322D01*
X400052D01*
Y315913D01*
X402592D02*
Y319722D01*
X404496D01*
X405131Y319087D01*
Y317817D01*
X404496Y317183D01*
X402592D01*
X408940Y315913D02*
X406400D01*
X408940Y318452D01*
Y319087D01*
X408305Y319722D01*
X407035D01*
X406400Y319087D01*
X410209Y315278D02*
X412748D01*
X414018Y319722D02*
Y315913D01*
X415922D01*
X416557Y316548D01*
Y319087D01*
X415922Y319722D01*
X414018D01*
X205743D02*
X208282D01*
X207012D01*
Y315913D01*
X209552D02*
Y319722D01*
X211456D01*
X212091Y319087D01*
Y317817D01*
X211456Y317183D01*
X209552D01*
X215900Y315913D02*
X213360D01*
X215900Y318452D01*
Y319087D01*
X215265Y319722D01*
X213995D01*
X213360Y319087D01*
X217169Y315278D02*
X219708D01*
X223517Y319087D02*
X222882Y319722D01*
X221613D01*
X220978Y319087D01*
Y316548D01*
X221613Y315913D01*
X222882D01*
X223517Y316548D01*
X12703Y319722D02*
X15242D01*
X13972D01*
Y315913D01*
X16512D02*
Y319722D01*
X18416D01*
X19051Y319087D01*
Y317817D01*
X18416Y317183D01*
X16512D01*
X22860Y315913D02*
X20320D01*
X22860Y318452D01*
Y319087D01*
X22225Y319722D01*
X20955D01*
X20320Y319087D01*
X24129Y315278D02*
X26668D01*
X27938Y319722D02*
Y315913D01*
X29842D01*
X30477Y316548D01*
Y317183D01*
X29842Y317817D01*
X27938D01*
X29842D01*
X30477Y318452D01*
Y319087D01*
X29842Y319722D01*
X27938D01*
X80013Y528002D02*
X82552D01*
X81282D01*
Y524193D01*
X83822D02*
Y528002D01*
X85726D01*
X86361Y527367D01*
Y526097D01*
X85726Y525463D01*
X83822D01*
X90170Y524193D02*
X87630D01*
X90170Y526732D01*
Y527367D01*
X89535Y528002D01*
X88265D01*
X87630Y527367D01*
X91439Y523558D02*
X93978D01*
X95248Y524193D02*
Y526732D01*
X96518Y528002D01*
X97787Y526732D01*
Y524193D01*
Y526097D01*
X95248D01*
X405450Y723582D02*
X407989D01*
X406720D01*
Y719773D01*
X409259D02*
Y723582D01*
X411163D01*
X411798Y722947D01*
Y721677D01*
X411163Y721043D01*
X409259D01*
X413068Y719773D02*
X414337D01*
X413703D01*
Y723582D01*
X413068Y722947D01*
X416242Y719138D02*
X418781D01*
X420051Y723582D02*
Y719773D01*
Y721677D01*
X422590D01*
Y723582D01*
Y719773D01*
X263208Y651830D02*
Y654369D01*
Y653100D01*
X267017D01*
Y655639D02*
X263208D01*
Y657543D01*
X263843Y658178D01*
X265113D01*
X265747Y657543D01*
Y655639D01*
X267017Y659448D02*
Y660717D01*
Y660083D01*
X263208D01*
X263843Y659448D01*
X267652Y662622D02*
Y665161D01*
X263843Y668970D02*
X263208Y668335D01*
Y667065D01*
X263843Y666431D01*
X266382D01*
X267017Y667065D01*
Y668335D01*
X266382Y668970D01*
X265113D01*
Y667700D01*
X6670Y726122D02*
X9209D01*
X7940D01*
Y722313D01*
X10479D02*
Y726122D01*
X12383D01*
X13018Y725487D01*
Y724217D01*
X12383Y723583D01*
X10479D01*
X14288Y722313D02*
X15557D01*
X14923D01*
Y726122D01*
X14288Y725487D01*
X17462Y721678D02*
X20001D01*
X23810Y726122D02*
X21271D01*
Y724217D01*
X22540D01*
X21271D01*
Y722313D01*
X244160Y519112D02*
X246699D01*
X245430D01*
Y515303D01*
X247969D02*
Y519112D01*
X249873D01*
X250508Y518477D01*
Y517207D01*
X249873Y516573D01*
X247969D01*
X251778Y515303D02*
X253047D01*
X252413D01*
Y519112D01*
X251778Y518477D01*
X254952Y514668D02*
X257491D01*
X261300Y519112D02*
X258761D01*
Y515303D01*
X261300D01*
X258761Y517207D02*
X260030D01*
X399100Y310832D02*
X401639D01*
X400370D01*
Y307023D01*
X402909D02*
Y310832D01*
X404813D01*
X405448Y310197D01*
Y308927D01*
X404813Y308293D01*
X402909D01*
X406718Y307023D02*
X407987D01*
X407353D01*
Y310832D01*
X406718Y310197D01*
X409892Y306388D02*
X412431D01*
X413701Y310832D02*
Y307023D01*
X415605D01*
X416240Y307658D01*
Y310197D01*
X415605Y310832D01*
X413701D01*
X207330D02*
X209869D01*
X208600D01*
Y307023D01*
X211139D02*
Y310832D01*
X213043D01*
X213678Y310197D01*
Y308927D01*
X213043Y308293D01*
X211139D01*
X214948Y307023D02*
X216217D01*
X215583D01*
Y310832D01*
X214948Y310197D01*
X218122Y306388D02*
X220661D01*
X224470Y310197D02*
X223835Y310832D01*
X222565D01*
X221931Y310197D01*
Y307658D01*
X222565Y307023D01*
X223835D01*
X224470Y307658D01*
X13020Y310832D02*
X15559D01*
X14290D01*
Y307023D01*
X16829D02*
Y310832D01*
X18733D01*
X19368Y310197D01*
Y308927D01*
X18733Y308293D01*
X16829D01*
X20638Y307023D02*
X21907D01*
X21273D01*
Y310832D01*
X20638Y310197D01*
X23812Y306388D02*
X26351D01*
X27621Y310832D02*
Y307023D01*
X29525D01*
X30160Y307658D01*
Y308293D01*
X29525Y308927D01*
X27621D01*
X29525D01*
X30160Y309562D01*
Y310197D01*
X29525Y310832D01*
X27621D01*
X80330Y520382D02*
X82869D01*
X81600D01*
Y516573D01*
X84139D02*
Y520382D01*
X86043D01*
X86678Y519747D01*
Y518477D01*
X86043Y517843D01*
X84139D01*
X87948Y516573D02*
X89217D01*
X88583D01*
Y520382D01*
X87948Y519747D01*
X91122Y515938D02*
X93661D01*
X94931Y516573D02*
Y519112D01*
X96200Y520382D01*
X97470Y519112D01*
Y516573D01*
Y518477D01*
X94931D01*
X499749Y342264D02*
Y335916D01*
X501019Y334646D01*
X503558D01*
X504828Y335916D01*
Y342264D01*
X507367Y334646D02*
X509906D01*
X508636D01*
Y342264D01*
X507367Y340994D01*
X513715Y333376D02*
X518793D01*
X521332Y342264D02*
Y334646D01*
X525141D01*
X526411Y335916D01*
Y340994D01*
X525141Y342264D01*
X521332D01*
X550546Y575946D02*
Y579754D01*
X552451D01*
X553086Y579120D01*
Y577850D01*
X552451Y577215D01*
X550546D01*
X551816D02*
X553086Y575946D01*
X556260D02*
Y579754D01*
X554355Y577850D01*
X556894D01*
X558164Y575946D02*
X559434D01*
X558799D01*
Y579754D01*
X558164Y579120D01*
X504192Y366396D02*
Y370204D01*
X506096D01*
X506731Y369570D01*
Y368300D01*
X506096Y367665D01*
X504192D01*
X505461D02*
X506731Y366396D01*
X508000Y369570D02*
X508635Y370204D01*
X509905D01*
X510540Y369570D01*
Y368935D01*
X509905Y368300D01*
X509270D01*
X509905D01*
X510540Y367665D01*
Y367030D01*
X509905Y366396D01*
X508635D01*
X508000Y367030D01*
X514348Y370204D02*
X513079Y369570D01*
X511809Y368300D01*
Y367030D01*
X512444Y366396D01*
X513714D01*
X514348Y367030D01*
Y367665D01*
X513714Y368300D01*
X511809D01*
X547372Y366396D02*
Y370204D01*
X549276D01*
X549911Y369570D01*
Y368300D01*
X549276Y367665D01*
X547372D01*
X548641D02*
X549911Y366396D01*
X551180Y369570D02*
X551815Y370204D01*
X553085D01*
X553720Y369570D01*
Y368935D01*
X553085Y368300D01*
X552450D01*
X553085D01*
X553720Y367665D01*
Y367030D01*
X553085Y366396D01*
X551815D01*
X551180Y367030D01*
X557528Y370204D02*
X554989D01*
Y368300D01*
X556259Y368935D01*
X556894D01*
X557528Y368300D01*
Y367030D01*
X556894Y366396D01*
X555624D01*
X554989Y367030D01*
X513716Y579754D02*
Y575946D01*
X515620D01*
X516255Y576580D01*
Y579120D01*
X515620Y579754D01*
X513716D01*
X517525Y579120D02*
X518160Y579754D01*
X519429D01*
X520064Y579120D01*
Y578485D01*
X519429Y577850D01*
X518794D01*
X519429D01*
X520064Y577215D01*
Y576580D01*
X519429Y575946D01*
X518160D01*
X517525Y576580D01*
X490856Y370204D02*
Y366396D01*
X492760D01*
X493395Y367030D01*
Y369570D01*
X492760Y370204D01*
X490856D01*
X497204Y366396D02*
X494665D01*
X497204Y368935D01*
Y369570D01*
X496569Y370204D01*
X495300D01*
X494665Y369570D01*
X535941Y370204D02*
Y366396D01*
X537845D01*
X538480Y367030D01*
Y369570D01*
X537845Y370204D01*
X535941D01*
X539750Y366396D02*
X541019D01*
X540384D01*
Y370204D01*
X539750Y369570D01*
X513716Y530224D02*
Y527050D01*
X514351Y526416D01*
X515620D01*
X516255Y527050D01*
Y530224D01*
X519429Y526416D02*
Y530224D01*
X517525Y528320D01*
X520064D01*
X469902Y494666D02*
Y498474D01*
X471806D01*
X472441Y497840D01*
Y496570D01*
X471806Y495935D01*
X469902D01*
X471171D02*
X472441Y494666D01*
X476250D02*
X473710D01*
X476250Y497205D01*
Y497840D01*
X475615Y498474D01*
X474345D01*
X473710Y497840D01*
X477519D02*
X478154Y498474D01*
X479424D01*
X480058Y497840D01*
Y497205D01*
X479424Y496570D01*
X480058Y495935D01*
Y495300D01*
X479424Y494666D01*
X478154D01*
X477519Y495300D01*
Y495935D01*
X478154Y496570D01*
X477519Y497205D01*
Y497840D01*
X478154Y496570D02*
X479424D01*
X450852Y545466D02*
Y549274D01*
X452756D01*
X453391Y548640D01*
Y547370D01*
X452756Y546735D01*
X450852D01*
X452121D02*
X453391Y545466D01*
X457200D02*
X454660D01*
X457200Y548005D01*
Y548640D01*
X456565Y549274D01*
X455295D01*
X454660Y548640D01*
X461008Y549274D02*
X459739Y548640D01*
X458469Y547370D01*
Y546100D01*
X459104Y545466D01*
X460374D01*
X461008Y546100D01*
Y546735D01*
X460374Y547370D01*
X458469D01*
X433705Y508634D02*
X431166D01*
Y506730D01*
X432436D01*
X431166D01*
Y504826D01*
X437514D02*
X434975D01*
X437514Y507365D01*
Y508000D01*
X436879Y508634D01*
X435610D01*
X434975Y508000D01*
X525781Y485140D02*
X525146Y485774D01*
X523876D01*
X523242Y485140D01*
Y482600D01*
X523876Y481966D01*
X525146D01*
X525781Y482600D01*
X529590Y481966D02*
X527050D01*
X529590Y484505D01*
Y485140D01*
X528955Y485774D01*
X527685D01*
X527050Y485140D01*
X530859D02*
X531494Y485774D01*
X532764D01*
X533398Y485140D01*
Y484505D01*
X532764Y483870D01*
X533398Y483235D01*
Y482600D01*
X532764Y481966D01*
X531494D01*
X530859Y482600D01*
Y483235D01*
X531494Y483870D01*
X530859Y484505D01*
Y485140D01*
X531494Y483870D02*
X532764D01*
X524511Y542290D02*
X523876Y542924D01*
X522606D01*
X521972Y542290D01*
Y539750D01*
X522606Y539116D01*
X523876D01*
X524511Y539750D01*
X528320Y539116D02*
X525780D01*
X528320Y541655D01*
Y542290D01*
X527685Y542924D01*
X526415D01*
X525780Y542290D01*
X532128Y542924D02*
X530859Y542290D01*
X529589Y541020D01*
Y539750D01*
X530224Y539116D01*
X531494D01*
X532128Y539750D01*
Y540385D01*
X531494Y541020D01*
X529589D01*
X427991Y532130D02*
X427356Y532764D01*
X426086D01*
X425452Y532130D01*
Y529590D01*
X426086Y528956D01*
X427356D01*
X427991Y529590D01*
X431800Y528956D02*
X429260D01*
X431800Y531495D01*
Y532130D01*
X431165Y532764D01*
X429895D01*
X429260Y532130D01*
X434974Y528956D02*
Y532764D01*
X433069Y530860D01*
X435608D01*
X545466Y482600D02*
X544831Y483234D01*
X543561D01*
X542926Y482600D01*
Y480060D01*
X543561Y479426D01*
X544831D01*
X545466Y480060D01*
X549274Y479426D02*
X546735D01*
X549274Y481965D01*
Y482600D01*
X548640Y483234D01*
X547370D01*
X546735Y482600D01*
X550544Y479426D02*
X551814D01*
X551179D01*
Y483234D01*
X550544Y482600D01*
X308611Y608330D02*
X307976Y608964D01*
X306706D01*
X306072Y608330D01*
Y605790D01*
X306706Y605156D01*
X307976D01*
X308611Y605790D01*
X312420Y605156D02*
X309880D01*
X312420Y607695D01*
Y608330D01*
X311785Y608964D01*
X310515D01*
X309880Y608330D01*
X313689D02*
X314324Y608964D01*
X315594D01*
X316228Y608330D01*
Y605790D01*
X315594Y605156D01*
X314324D01*
X313689Y605790D01*
Y608330D01*
X321628Y626110D02*
X320993Y626744D01*
X319724D01*
X319089Y626110D01*
Y623570D01*
X319724Y622936D01*
X320993D01*
X321628Y623570D01*
X322898Y622936D02*
X324167D01*
X323533D01*
Y626744D01*
X322898Y626110D01*
X326072Y623570D02*
X326707Y622936D01*
X327976D01*
X328611Y623570D01*
Y626110D01*
X327976Y626744D01*
X326707D01*
X326072Y626110D01*
Y625475D01*
X326707Y624840D01*
X328611D01*
X506099Y757554D02*
Y751206D01*
X507369Y749936D01*
X509908D01*
X511178Y751206D01*
Y757554D01*
X513717Y749936D02*
X516256D01*
X514986D01*
Y757554D01*
X513717Y756284D01*
X520065Y748666D02*
X525143D01*
X527682Y757554D02*
Y749936D01*
Y753745D01*
X532761D01*
Y757554D01*
Y749936D01*
X230506Y752479D02*
X236854D01*
X238124Y753749D01*
Y756288D01*
X236854Y757558D01*
X230506D01*
X238124Y760097D02*
Y762636D01*
Y761366D01*
X230506D01*
X231776Y760097D01*
X239394Y766445D02*
Y771523D01*
X231776Y779141D02*
X230506Y777871D01*
Y775332D01*
X231776Y774062D01*
X236854D01*
X238124Y775332D01*
Y777871D01*
X236854Y779141D01*
X234315D01*
Y776601D01*
X107319Y757554D02*
Y751206D01*
X108589Y749936D01*
X111128D01*
X112398Y751206D01*
Y757554D01*
X114937Y749936D02*
X117476D01*
X116206D01*
Y757554D01*
X114937Y756284D01*
X121285Y748666D02*
X126363D01*
X133981Y757554D02*
X128902D01*
Y753745D01*
X131441D01*
X128902D01*
Y749936D01*
X343539Y550664D02*
Y544316D01*
X344809Y543046D01*
X347348D01*
X348618Y544316D01*
Y550664D01*
X351157Y543046D02*
X353696D01*
X352426D01*
Y550664D01*
X351157Y549394D01*
X357505Y541777D02*
X362583D01*
X370201Y550664D02*
X365122D01*
Y543046D01*
X370201D01*
X365122Y546855D02*
X367662D01*
X306709Y342264D02*
Y335916D01*
X307979Y334646D01*
X310518D01*
X311788Y335916D01*
Y342264D01*
X314327Y334646D02*
X316866D01*
X315596D01*
Y342264D01*
X314327Y340994D01*
X320675Y333376D02*
X325753D01*
X333371Y340994D02*
X332101Y342264D01*
X329562D01*
X328292Y340994D01*
Y335916D01*
X329562Y334646D01*
X332101D01*
X333371Y335916D01*
X113669Y342264D02*
Y335916D01*
X114939Y334646D01*
X117478D01*
X118748Y335916D01*
Y342264D01*
X121287Y334646D02*
X123826D01*
X122556D01*
Y342264D01*
X121287Y340994D01*
X127635Y333376D02*
X132713D01*
X135252Y342264D02*
Y334646D01*
X139061D01*
X140331Y335916D01*
Y337185D01*
X139061Y338455D01*
X135252D01*
X139061D01*
X140331Y339724D01*
Y340994D01*
X139061Y342264D01*
X135252D01*
X526100Y722313D02*
Y726122D01*
X528005D01*
X528639Y725487D01*
Y724217D01*
X528005Y723583D01*
X526100D01*
X527370D02*
X528639Y722313D01*
X529909D02*
X531179D01*
X530544D01*
Y726122D01*
X529909Y725487D01*
X534987Y722313D02*
Y726122D01*
X533083Y724217D01*
X535622D01*
X536892Y721678D02*
X539431D01*
X540701Y726122D02*
Y722313D01*
Y724217D01*
X543240D01*
Y726122D01*
Y722313D01*
X265747Y772480D02*
X261938D01*
Y774385D01*
X262573Y775019D01*
X263843D01*
X264477Y774385D01*
Y772480D01*
Y773750D02*
X265747Y775019D01*
Y776289D02*
Y777559D01*
Y776924D01*
X261938D01*
X262573Y776289D01*
X265747Y781367D02*
X261938D01*
X263843Y779463D01*
Y782002D01*
X266382Y783272D02*
Y785811D01*
X262573Y789620D02*
X261938Y788985D01*
Y787715D01*
X262573Y787081D01*
X265112D01*
X265747Y787715D01*
Y788985D01*
X265112Y789620D01*
X263843D01*
Y788350D01*
X127320Y722313D02*
Y726122D01*
X129225D01*
X129859Y725487D01*
Y724217D01*
X129225Y723583D01*
X127320D01*
X128590D02*
X129859Y722313D01*
X131129D02*
X132399D01*
X131764D01*
Y726122D01*
X131129Y725487D01*
X136207Y722313D02*
Y726122D01*
X134303Y724217D01*
X136842D01*
X138112Y721678D02*
X140651D01*
X144460Y726122D02*
X141921D01*
Y724217D01*
X143190D01*
X141921D01*
Y722313D01*
X363540Y515423D02*
Y519232D01*
X365445D01*
X366079Y518597D01*
Y517327D01*
X365445Y516693D01*
X363540D01*
X364810D02*
X366079Y515423D01*
X367349D02*
X368619D01*
X367984D01*
Y519232D01*
X367349Y518597D01*
X372427Y515423D02*
Y519232D01*
X370523Y517327D01*
X373062D01*
X374332Y514788D02*
X376871D01*
X380680Y519232D02*
X378141D01*
Y515423D01*
X380680D01*
X378141Y517327D02*
X379410D01*
X519750Y307023D02*
Y310832D01*
X521655D01*
X522289Y310197D01*
Y308927D01*
X521655Y308293D01*
X519750D01*
X521020D02*
X522289Y307023D01*
X523559D02*
X524829D01*
X524194D01*
Y310832D01*
X523559Y310197D01*
X528637Y307023D02*
Y310832D01*
X526733Y308927D01*
X529272D01*
X530542Y306388D02*
X533081D01*
X534351Y310832D02*
Y307023D01*
X536255D01*
X536890Y307658D01*
Y310197D01*
X536255Y310832D01*
X534351D01*
X326710Y307023D02*
Y310832D01*
X328615D01*
X329249Y310197D01*
Y308927D01*
X328615Y308293D01*
X326710D01*
X327980D02*
X329249Y307023D01*
X330519D02*
X331789D01*
X331154D01*
Y310832D01*
X330519Y310197D01*
X335597Y307023D02*
Y310832D01*
X333693Y308927D01*
X336232D01*
X337502Y306388D02*
X340041D01*
X343850Y310197D02*
X343215Y310832D01*
X341945D01*
X341311Y310197D01*
Y307658D01*
X341945Y307023D01*
X343215D01*
X343850Y307658D01*
X133670Y307023D02*
Y310832D01*
X135575D01*
X136209Y310197D01*
Y308927D01*
X135575Y308293D01*
X133670D01*
X134940D02*
X136209Y307023D01*
X137479D02*
X138749D01*
X138114D01*
Y310832D01*
X137479Y310197D01*
X142557Y307023D02*
Y310832D01*
X140653Y308927D01*
X143192D01*
X144462Y306388D02*
X147001D01*
X148271Y310832D02*
Y307023D01*
X150175D01*
X150810Y307658D01*
Y308293D01*
X150175Y308927D01*
X148271D01*
X150175D01*
X150810Y309562D01*
Y310197D01*
X150175Y310832D01*
X148271D01*
X525148Y686753D02*
Y690562D01*
X527052D01*
X527687Y689927D01*
Y688657D01*
X527052Y688023D01*
X525148D01*
X526417D02*
X527687Y686753D01*
X528956D02*
X530226D01*
X529591D01*
Y690562D01*
X528956Y689927D01*
X532130Y686753D02*
X533400D01*
X532765D01*
Y690562D01*
X532130Y689927D01*
X535304Y686118D02*
X537844D01*
X539113Y690562D02*
Y686753D01*
Y688657D01*
X541652D01*
Y690562D01*
Y686753D01*
X301307Y771528D02*
X297498D01*
Y773432D01*
X298133Y774067D01*
X299403D01*
X300037Y773432D01*
Y771528D01*
Y772797D02*
X301307Y774067D01*
Y775336D02*
Y776606D01*
Y775971D01*
X297498D01*
X298133Y775336D01*
X301307Y778510D02*
Y779780D01*
Y779145D01*
X297498D01*
X298133Y778510D01*
X301942Y781684D02*
Y784224D01*
X298133Y788032D02*
X297498Y787398D01*
Y786128D01*
X298133Y785493D01*
X300672D01*
X301307Y786128D01*
Y787398D01*
X300672Y788032D01*
X299403D01*
Y786763D01*
X126368Y686753D02*
Y690562D01*
X128272D01*
X128907Y689927D01*
Y688657D01*
X128272Y688023D01*
X126368D01*
X127637D02*
X128907Y686753D01*
X130176D02*
X131446D01*
X130811D01*
Y690562D01*
X130176Y689927D01*
X133350Y686753D02*
X134620D01*
X133985D01*
Y690562D01*
X133350Y689927D01*
X136524Y686118D02*
X139064D01*
X142872Y690562D02*
X140333D01*
Y688657D01*
X141603D01*
X140333D01*
Y686753D01*
X362588Y479863D02*
Y483672D01*
X364492D01*
X365127Y483037D01*
Y481767D01*
X364492Y481133D01*
X362588D01*
X363857D02*
X365127Y479863D01*
X366396D02*
X367666D01*
X367031D01*
Y483672D01*
X366396Y483037D01*
X369570Y479863D02*
X370840D01*
X370205D01*
Y483672D01*
X369570Y483037D01*
X372744Y479228D02*
X375284D01*
X379092Y483672D02*
X376553D01*
Y479863D01*
X379092D01*
X376553Y481767D02*
X377823D01*
X518798Y271463D02*
Y275272D01*
X520702D01*
X521337Y274637D01*
Y273367D01*
X520702Y272733D01*
X518798D01*
X520067D02*
X521337Y271463D01*
X522606D02*
X523876D01*
X523241D01*
Y275272D01*
X522606Y274637D01*
X525780Y271463D02*
X527050D01*
X526415D01*
Y275272D01*
X525780Y274637D01*
X528954Y270828D02*
X531494D01*
X532763Y275272D02*
Y271463D01*
X534668D01*
X535302Y272098D01*
Y274637D01*
X534668Y275272D01*
X532763D01*
X325758Y271463D02*
Y275272D01*
X327662D01*
X328297Y274637D01*
Y273367D01*
X327662Y272733D01*
X325758D01*
X327027D02*
X328297Y271463D01*
X329566D02*
X330836D01*
X330201D01*
Y275272D01*
X329566Y274637D01*
X332740Y271463D02*
X334010D01*
X333375D01*
Y275272D01*
X332740Y274637D01*
X335914Y270828D02*
X338454D01*
X342262Y274637D02*
X341628Y275272D01*
X340358D01*
X339723Y274637D01*
Y272098D01*
X340358Y271463D01*
X341628D01*
X342262Y272098D01*
X132718Y271463D02*
Y275272D01*
X134622D01*
X135257Y274637D01*
Y273367D01*
X134622Y272733D01*
X132718D01*
X133987D02*
X135257Y271463D01*
X136526D02*
X137796D01*
X137161D01*
Y275272D01*
X136526Y274637D01*
X139700Y271463D02*
X140970D01*
X140335D01*
Y275272D01*
X139700Y274637D01*
X142874Y270828D02*
X145414D01*
X146683Y275272D02*
Y271463D01*
X148588D01*
X149222Y272098D01*
Y272733D01*
X148588Y273367D01*
X146683D01*
X148588D01*
X149222Y274002D01*
Y274637D01*
X148588Y275272D01*
X146683D01*
X420690Y766763D02*
Y770572D01*
X422595D01*
X423229Y769937D01*
Y768667D01*
X422595Y768033D01*
X420690D01*
X421960D02*
X423229Y766763D01*
X424499D02*
X425769D01*
X425134D01*
Y770572D01*
X424499Y769937D01*
X427673D02*
X428308Y770572D01*
X429577D01*
X430212Y769937D01*
Y767398D01*
X429577Y766763D01*
X428308D01*
X427673Y767398D01*
Y769937D01*
X431482Y766128D02*
X434021D01*
X435291Y770572D02*
Y766763D01*
Y768667D01*
X437830D01*
Y770572D01*
Y766763D01*
X221297Y667070D02*
X217488D01*
Y668975D01*
X218123Y669609D01*
X219393D01*
X220027Y668975D01*
Y667070D01*
Y668340D02*
X221297Y669609D01*
Y670879D02*
Y672149D01*
Y671514D01*
X217488D01*
X218123Y670879D01*
Y674053D02*
X217488Y674688D01*
Y675957D01*
X218123Y676592D01*
X220662D01*
X221297Y675957D01*
Y674688D01*
X220662Y674053D01*
X218123D01*
X221932Y677862D02*
Y680401D01*
X218123Y684210D02*
X217488Y683575D01*
Y682305D01*
X218123Y681671D01*
X220662D01*
X221297Y682305D01*
Y683575D01*
X220662Y684210D01*
X219393D01*
Y682940D01*
X21910Y766763D02*
Y770572D01*
X23815D01*
X24449Y769937D01*
Y768667D01*
X23815Y768033D01*
X21910D01*
X23180D02*
X24449Y766763D01*
X25719D02*
X26989D01*
X26354D01*
Y770572D01*
X25719Y769937D01*
X28893D02*
X29528Y770572D01*
X30797D01*
X31432Y769937D01*
Y767398D01*
X30797Y766763D01*
X29528D01*
X28893Y767398D01*
Y769937D01*
X32702Y766128D02*
X35241D01*
X39050Y770572D02*
X36511D01*
Y768667D01*
X37780D01*
X36511D01*
Y766763D01*
X258130Y559873D02*
Y563682D01*
X260035D01*
X260669Y563047D01*
Y561777D01*
X260035Y561143D01*
X258130D01*
X259400D02*
X260669Y559873D01*
X261939D02*
X263209D01*
X262574D01*
Y563682D01*
X261939Y563047D01*
X265113D02*
X265748Y563682D01*
X267017D01*
X267652Y563047D01*
Y560508D01*
X267017Y559873D01*
X265748D01*
X265113Y560508D01*
Y563047D01*
X268922Y559238D02*
X271461D01*
X275270Y563682D02*
X272731D01*
Y559873D01*
X275270D01*
X272731Y561777D02*
X274000D01*
X414340Y351473D02*
Y355282D01*
X416245D01*
X416879Y354647D01*
Y353377D01*
X416245Y352743D01*
X414340D01*
X415610D02*
X416879Y351473D01*
X418149D02*
X419419D01*
X418784D01*
Y355282D01*
X418149Y354647D01*
X421323D02*
X421958Y355282D01*
X423227D01*
X423862Y354647D01*
Y352108D01*
X423227Y351473D01*
X421958D01*
X421323Y352108D01*
Y354647D01*
X425132Y350838D02*
X427671D01*
X428941Y355282D02*
Y351473D01*
X430845D01*
X431480Y352108D01*
Y354647D01*
X430845Y355282D01*
X428941D01*
X221300Y351473D02*
Y355282D01*
X223205D01*
X223839Y354647D01*
Y353377D01*
X223205Y352743D01*
X221300D01*
X222570D02*
X223839Y351473D01*
X225109D02*
X226379D01*
X225744D01*
Y355282D01*
X225109Y354647D01*
X228283D02*
X228918Y355282D01*
X230187D01*
X230822Y354647D01*
Y352108D01*
X230187Y351473D01*
X228918D01*
X228283Y352108D01*
Y354647D01*
X232092Y350838D02*
X234631D01*
X238440Y354647D02*
X237805Y355282D01*
X236535D01*
X235901Y354647D01*
Y352108D01*
X236535Y351473D01*
X237805D01*
X238440Y352108D01*
X28260Y351473D02*
Y355282D01*
X30165D01*
X30799Y354647D01*
Y353377D01*
X30165Y352743D01*
X28260D01*
X29530D02*
X30799Y351473D01*
X32069D02*
X33339D01*
X32704D01*
Y355282D01*
X32069Y354647D01*
X35243D02*
X35878Y355282D01*
X37147D01*
X37782Y354647D01*
Y352108D01*
X37147Y351473D01*
X35878D01*
X35243Y352108D01*
Y354647D01*
X39052Y350838D02*
X41591D01*
X42861Y355282D02*
Y351473D01*
X44765D01*
X45400Y352108D01*
Y352743D01*
X44765Y353377D01*
X42861D01*
X44765D01*
X45400Y354012D01*
Y354647D01*
X44765Y355282D01*
X42861D01*
X456567Y773113D02*
Y776922D01*
X458472D01*
X459106Y776287D01*
Y775017D01*
X458472Y774383D01*
X456567D01*
X457837D02*
X459106Y773113D01*
X460376Y773748D02*
X461011Y773113D01*
X462280D01*
X462915Y773748D01*
Y776287D01*
X462280Y776922D01*
X461011D01*
X460376Y776287D01*
Y775652D01*
X461011Y775017D01*
X462915D01*
X464185Y772478D02*
X466724D01*
X467994Y776922D02*
Y773113D01*
Y775017D01*
X470533D01*
Y776922D01*
Y773113D01*
X214947Y702947D02*
X211138D01*
Y704852D01*
X211773Y705486D01*
X213043D01*
X213677Y704852D01*
Y702947D01*
Y704217D02*
X214947Y705486D01*
X214312Y706756D02*
X214947Y707391D01*
Y708660D01*
X214312Y709295D01*
X211773D01*
X211138Y708660D01*
Y707391D01*
X211773Y706756D01*
X212408D01*
X213043Y707391D01*
Y709295D01*
X215582Y710565D02*
Y713104D01*
X211773Y716913D02*
X211138Y716278D01*
Y715008D01*
X211773Y714374D01*
X214312D01*
X214947Y715008D01*
Y716278D01*
X214312Y716913D01*
X213043D01*
Y715643D01*
X57787Y773113D02*
Y776922D01*
X59692D01*
X60326Y776287D01*
Y775017D01*
X59692Y774383D01*
X57787D01*
X59057D02*
X60326Y773113D01*
X61596Y773748D02*
X62231Y773113D01*
X63500D01*
X64135Y773748D01*
Y776287D01*
X63500Y776922D01*
X62231D01*
X61596Y776287D01*
Y775652D01*
X62231Y775017D01*
X64135D01*
X65405Y772478D02*
X67944D01*
X71753Y776922D02*
X69214D01*
Y775017D01*
X70483D01*
X69214D01*
Y773113D01*
X294007Y566223D02*
Y570032D01*
X295912D01*
X296546Y569397D01*
Y568127D01*
X295912Y567493D01*
X294007D01*
X295277D02*
X296546Y566223D01*
X297816Y566858D02*
X298451Y566223D01*
X299720D01*
X300355Y566858D01*
Y569397D01*
X299720Y570032D01*
X298451D01*
X297816Y569397D01*
Y568762D01*
X298451Y568127D01*
X300355D01*
X301625Y565588D02*
X304164D01*
X307973Y570032D02*
X305434D01*
Y566223D01*
X307973D01*
X305434Y568127D02*
X306703D01*
X450217Y357823D02*
Y361632D01*
X452122D01*
X452756Y360997D01*
Y359727D01*
X452122Y359093D01*
X450217D01*
X451487D02*
X452756Y357823D01*
X454026Y358458D02*
X454661Y357823D01*
X455930D01*
X456565Y358458D01*
Y360997D01*
X455930Y361632D01*
X454661D01*
X454026Y360997D01*
Y360362D01*
X454661Y359727D01*
X456565D01*
X457835Y357188D02*
X460374D01*
X461644Y361632D02*
Y357823D01*
X463548D01*
X464183Y358458D01*
Y360997D01*
X463548Y361632D01*
X461644D01*
X257177Y357823D02*
Y361632D01*
X259082D01*
X259716Y360997D01*
Y359727D01*
X259082Y359093D01*
X257177D01*
X258447D02*
X259716Y357823D01*
X260986Y358458D02*
X261621Y357823D01*
X262890D01*
X263525Y358458D01*
Y360997D01*
X262890Y361632D01*
X261621D01*
X260986Y360997D01*
Y360362D01*
X261621Y359727D01*
X263525D01*
X264795Y357188D02*
X267334D01*
X271143Y360997D02*
X270508Y361632D01*
X269238D01*
X268604Y360997D01*
Y358458D01*
X269238Y357823D01*
X270508D01*
X271143Y358458D01*
X64137Y357823D02*
Y361632D01*
X66042D01*
X66676Y360997D01*
Y359727D01*
X66042Y359093D01*
X64137D01*
X65407D02*
X66676Y357823D01*
X67946Y358458D02*
X68581Y357823D01*
X69850D01*
X70485Y358458D01*
Y360997D01*
X69850Y361632D01*
X68581D01*
X67946Y360997D01*
Y360362D01*
X68581Y359727D01*
X70485D01*
X71755Y357188D02*
X74294D01*
X75564Y361632D02*
Y357823D01*
X77468D01*
X78103Y358458D01*
Y359093D01*
X77468Y359727D01*
X75564D01*
X77468D01*
X78103Y360362D01*
Y360997D01*
X77468Y361632D01*
X75564D01*
X409577Y710883D02*
Y714692D01*
X411482D01*
X412116Y714057D01*
Y712787D01*
X411482Y712153D01*
X409577D01*
X410847D02*
X412116Y710883D01*
X415925Y714692D02*
X414656Y714057D01*
X413386Y712787D01*
Y711518D01*
X414021Y710883D01*
X415290D01*
X415925Y711518D01*
Y712153D01*
X415290Y712787D01*
X413386D01*
X417195Y710248D02*
X419734D01*
X421004Y714692D02*
Y710883D01*
Y712787D01*
X423543D01*
Y714692D01*
Y710883D01*
X275907Y658497D02*
X272098D01*
Y660402D01*
X272733Y661036D01*
X274003D01*
X274637Y660402D01*
Y658497D01*
Y659767D02*
X275907Y661036D01*
X272098Y664845D02*
X272733Y663576D01*
X274003Y662306D01*
X275272D01*
X275907Y662941D01*
Y664210D01*
X275272Y664845D01*
X274637D01*
X274003Y664210D01*
Y662306D01*
X276542Y666115D02*
Y668654D01*
X272733Y672463D02*
X272098Y671828D01*
Y670558D01*
X272733Y669924D01*
X275272D01*
X275907Y670558D01*
Y671828D01*
X275272Y672463D01*
X274003D01*
Y671193D01*
X4447Y710883D02*
Y714692D01*
X6352D01*
X6986Y714057D01*
Y712787D01*
X6352Y712153D01*
X4447D01*
X5717D02*
X6986Y710883D01*
X10795Y714692D02*
X9526Y714057D01*
X8256Y712787D01*
Y711518D01*
X8891Y710883D01*
X10160D01*
X10795Y711518D01*
Y712153D01*
X10160Y712787D01*
X8256D01*
X12065Y710248D02*
X14604D01*
X18413Y714692D02*
X15874D01*
Y712787D01*
X17143D01*
X15874D01*
Y710883D01*
X245747Y505143D02*
Y508952D01*
X247652D01*
X248286Y508317D01*
Y507047D01*
X247652Y506413D01*
X245747D01*
X247017D02*
X248286Y505143D01*
X252095Y508952D02*
X250826Y508317D01*
X249556Y507047D01*
Y505778D01*
X250191Y505143D01*
X251460D01*
X252095Y505778D01*
Y506413D01*
X251460Y507047D01*
X249556D01*
X253365Y504508D02*
X255904D01*
X259713Y508952D02*
X257174D01*
Y505143D01*
X259713D01*
X257174Y507047D02*
X258443D01*
X399417Y298133D02*
Y301942D01*
X401322D01*
X401956Y301307D01*
Y300037D01*
X401322Y299403D01*
X399417D01*
X400687D02*
X401956Y298133D01*
X405765Y301942D02*
X404496Y301307D01*
X403226Y300037D01*
Y298768D01*
X403861Y298133D01*
X405130D01*
X405765Y298768D01*
Y299403D01*
X405130Y300037D01*
X403226D01*
X407035Y297498D02*
X409574D01*
X410844Y301942D02*
Y298133D01*
X412748D01*
X413383Y298768D01*
Y301307D01*
X412748Y301942D01*
X410844D01*
X206377Y298133D02*
Y301942D01*
X208282D01*
X208916Y301307D01*
Y300037D01*
X208282Y299403D01*
X206377D01*
X207647D02*
X208916Y298133D01*
X212725Y301942D02*
X211456Y301307D01*
X210186Y300037D01*
Y298768D01*
X210821Y298133D01*
X212090D01*
X212725Y298768D01*
Y299403D01*
X212090Y300037D01*
X210186D01*
X213995Y297498D02*
X216534D01*
X220343Y301307D02*
X219708Y301942D01*
X218438D01*
X217804Y301307D01*
Y298768D01*
X218438Y298133D01*
X219708D01*
X220343Y298768D01*
X14607Y298133D02*
Y301942D01*
X16512D01*
X17146Y301307D01*
Y300037D01*
X16512Y299403D01*
X14607D01*
X15877D02*
X17146Y298133D01*
X20955Y301942D02*
X19686Y301307D01*
X18416Y300037D01*
Y298768D01*
X19051Y298133D01*
X20320D01*
X20955Y298768D01*
Y299403D01*
X20320Y300037D01*
X18416D01*
X22225Y297498D02*
X24764D01*
X26034Y301942D02*
Y298133D01*
X27938D01*
X28573Y298768D01*
Y299403D01*
X27938Y300037D01*
X26034D01*
X27938D01*
X28573Y300672D01*
Y301307D01*
X27938Y301942D01*
X26034D01*
X528957Y675323D02*
Y679132D01*
X530862D01*
X531496Y678497D01*
Y677227D01*
X530862Y676593D01*
X528957D01*
X530227D02*
X531496Y675323D01*
X535305Y679132D02*
X532766D01*
Y677227D01*
X534036Y677862D01*
X534670D01*
X535305Y677227D01*
Y675958D01*
X534670Y675323D01*
X533401D01*
X532766Y675958D01*
X536575Y674688D02*
X539114D01*
X540384Y679132D02*
Y675323D01*
Y677227D01*
X542923D01*
Y679132D01*
Y675323D01*
X312737Y775337D02*
X308928D01*
Y777242D01*
X309563Y777876D01*
X310833D01*
X311467Y777242D01*
Y775337D01*
Y776607D02*
X312737Y777876D01*
X308928Y781685D02*
Y779146D01*
X310833D01*
X310198Y780416D01*
Y781050D01*
X310833Y781685D01*
X312102D01*
X312737Y781050D01*
Y779781D01*
X312102Y779146D01*
X313372Y782955D02*
Y785494D01*
X309563Y789303D02*
X308928Y788668D01*
Y787398D01*
X309563Y786764D01*
X312102D01*
X312737Y787398D01*
Y788668D01*
X312102Y789303D01*
X310833D01*
Y788033D01*
X130177Y675323D02*
Y679132D01*
X132082D01*
X132716Y678497D01*
Y677227D01*
X132082Y676593D01*
X130177D01*
X131447D02*
X132716Y675323D01*
X136525Y679132D02*
X133986D01*
Y677227D01*
X135256Y677862D01*
X135890D01*
X136525Y677227D01*
Y675958D01*
X135890Y675323D01*
X134621D01*
X133986Y675958D01*
X137795Y674688D02*
X140334D01*
X144143Y679132D02*
X141604D01*
Y677227D01*
X142873D01*
X141604D01*
Y675323D01*
X366397Y468433D02*
Y472242D01*
X368302D01*
X368936Y471607D01*
Y470337D01*
X368302Y469703D01*
X366397D01*
X367667D02*
X368936Y468433D01*
X372745Y472242D02*
X370206D01*
Y470337D01*
X371476Y470972D01*
X372110D01*
X372745Y470337D01*
Y469068D01*
X372110Y468433D01*
X370841D01*
X370206Y469068D01*
X374015Y467798D02*
X376554D01*
X380363Y472242D02*
X377824D01*
Y468433D01*
X380363D01*
X377824Y470337D02*
X379093D01*
X522607Y260033D02*
Y263842D01*
X524512D01*
X525146Y263207D01*
Y261937D01*
X524512Y261303D01*
X522607D01*
X523877D02*
X525146Y260033D01*
X528955Y263842D02*
X526416D01*
Y261937D01*
X527686Y262572D01*
X528320D01*
X528955Y261937D01*
Y260668D01*
X528320Y260033D01*
X527051D01*
X526416Y260668D01*
X530225Y259398D02*
X532764D01*
X534034Y263842D02*
Y260033D01*
X535938D01*
X536573Y260668D01*
Y263207D01*
X535938Y263842D01*
X534034D01*
X329567Y260033D02*
Y263842D01*
X331472D01*
X332106Y263207D01*
Y261937D01*
X331472Y261303D01*
X329567D01*
X330837D02*
X332106Y260033D01*
X335915Y263842D02*
X333376D01*
Y261937D01*
X334646Y262572D01*
X335280D01*
X335915Y261937D01*
Y260668D01*
X335280Y260033D01*
X334011D01*
X333376Y260668D01*
X337185Y259398D02*
X339724D01*
X343533Y263207D02*
X342898Y263842D01*
X341628D01*
X340994Y263207D01*
Y260668D01*
X341628Y260033D01*
X342898D01*
X343533Y260668D01*
X136527Y260033D02*
Y263842D01*
X138432D01*
X139066Y263207D01*
Y261937D01*
X138432Y261303D01*
X136527D01*
X137797D02*
X139066Y260033D01*
X142875Y263842D02*
X140336D01*
Y261937D01*
X141606Y262572D01*
X142240D01*
X142875Y261937D01*
Y260668D01*
X142240Y260033D01*
X140971D01*
X140336Y260668D01*
X144145Y259398D02*
X146684D01*
X147954Y263842D02*
Y260033D01*
X149858D01*
X150493Y260668D01*
Y261303D01*
X149858Y261937D01*
X147954D01*
X149858D01*
X150493Y262572D01*
Y263207D01*
X149858Y263842D01*
X147954D01*
X414657Y740093D02*
Y743902D01*
X416562D01*
X417196Y743267D01*
Y741997D01*
X416562Y741363D01*
X414657D01*
X415927D02*
X417196Y740093D01*
X420370D02*
Y743902D01*
X418466Y741997D01*
X421005D01*
X422275Y739458D02*
X424814D01*
X426084Y743902D02*
Y740093D01*
Y741997D01*
X428623D01*
Y743902D01*
Y740093D01*
X247967Y661037D02*
X244158D01*
Y662942D01*
X244793Y663576D01*
X246063D01*
X246697Y662942D01*
Y661037D01*
Y662307D02*
X247967Y663576D01*
Y666750D02*
X244158D01*
X246063Y664846D01*
Y667385D01*
X248602Y668655D02*
Y671194D01*
X244793Y675003D02*
X244158Y674368D01*
Y673098D01*
X244793Y672464D01*
X247332D01*
X247967Y673098D01*
Y674368D01*
X247332Y675003D01*
X246063D01*
Y673733D01*
X17147Y740093D02*
Y743902D01*
X19052D01*
X19686Y743267D01*
Y741997D01*
X19052Y741363D01*
X17147D01*
X18417D02*
X19686Y740093D01*
X22860D02*
Y743902D01*
X20956Y741997D01*
X23495D01*
X24765Y739458D02*
X27304D01*
X31113Y743902D02*
X28574D01*
Y741997D01*
X29843D01*
X28574D01*
Y740093D01*
X253367Y531933D02*
Y535742D01*
X255272D01*
X255906Y535107D01*
Y533837D01*
X255272Y533203D01*
X253367D01*
X254637D02*
X255906Y531933D01*
X259080D02*
Y535742D01*
X257176Y533837D01*
X259715D01*
X260985Y531298D02*
X263524D01*
X267333Y535742D02*
X264794D01*
Y531933D01*
X267333D01*
X264794Y533837D02*
X266063D01*
X408307Y324803D02*
Y328612D01*
X410212D01*
X410846Y327977D01*
Y326707D01*
X410212Y326073D01*
X408307D01*
X409577D02*
X410846Y324803D01*
X414020D02*
Y328612D01*
X412116Y326707D01*
X414655D01*
X415925Y324168D02*
X418464D01*
X419734Y328612D02*
Y324803D01*
X421638D01*
X422273Y325438D01*
Y327977D01*
X421638Y328612D01*
X419734D01*
X215267Y324803D02*
Y328612D01*
X217172D01*
X217806Y327977D01*
Y326707D01*
X217172Y326073D01*
X215267D01*
X216537D02*
X217806Y324803D01*
X220980D02*
Y328612D01*
X219076Y326707D01*
X221615D01*
X222885Y324168D02*
X225424D01*
X229233Y327977D02*
X228598Y328612D01*
X227328D01*
X226694Y327977D01*
Y325438D01*
X227328Y324803D01*
X228598D01*
X229233Y325438D01*
X22227Y324803D02*
Y328612D01*
X24132D01*
X24766Y327977D01*
Y326707D01*
X24132Y326073D01*
X22227D01*
X23497D02*
X24766Y324803D01*
X27940D02*
Y328612D01*
X26036Y326707D01*
X28575D01*
X29845Y324168D02*
X32384D01*
X33654Y328612D02*
Y324803D01*
X35558D01*
X36193Y325438D01*
Y326073D01*
X35558Y326707D01*
X33654D01*
X35558D01*
X36193Y327342D01*
Y327977D01*
X35558Y328612D01*
X33654D01*
X415927Y700723D02*
Y704532D01*
X417832D01*
X418466Y703897D01*
Y702627D01*
X417832Y701993D01*
X415927D01*
X417197D02*
X418466Y700723D01*
X422275D02*
X419736D01*
X422275Y703262D01*
Y703897D01*
X421640Y704532D01*
X420371D01*
X419736Y703897D01*
X423545Y700088D02*
X426084D01*
X427354Y704532D02*
Y700723D01*
Y702627D01*
X429893D01*
Y704532D01*
Y700723D01*
X284797Y662307D02*
X280988D01*
Y664212D01*
X281623Y664846D01*
X282893D01*
X283527Y664212D01*
Y662307D01*
Y663577D02*
X284797Y664846D01*
Y668655D02*
Y666116D01*
X282258Y668655D01*
X281623D01*
X280988Y668020D01*
Y666751D01*
X281623Y666116D01*
X285432Y669925D02*
Y672464D01*
X281623Y676273D02*
X280988Y675638D01*
Y674368D01*
X281623Y673734D01*
X284162D01*
X284797Y674368D01*
Y675638D01*
X284162Y676273D01*
X282893D01*
Y675003D01*
X17147Y703263D02*
Y707072D01*
X19052D01*
X19686Y706437D01*
Y705167D01*
X19052Y704533D01*
X17147D01*
X18417D02*
X19686Y703263D01*
X23495D02*
X20956D01*
X23495Y705802D01*
Y706437D01*
X22860Y707072D01*
X21591D01*
X20956Y706437D01*
X24765Y702628D02*
X27304D01*
X31113Y707072D02*
X28574D01*
Y705167D01*
X29843D01*
X28574D01*
Y703263D01*
X253367Y494983D02*
Y498792D01*
X255272D01*
X255906Y498157D01*
Y496887D01*
X255272Y496253D01*
X253367D01*
X254637D02*
X255906Y494983D01*
X259715D02*
X257176D01*
X259715Y497522D01*
Y498157D01*
X259080Y498792D01*
X257811D01*
X257176Y498157D01*
X260985Y494348D02*
X263524D01*
X267333Y498792D02*
X264794D01*
Y494983D01*
X267333D01*
X264794Y496887D02*
X266063D01*
X409577Y287973D02*
Y291782D01*
X411482D01*
X412116Y291147D01*
Y289877D01*
X411482Y289243D01*
X409577D01*
X410847D02*
X412116Y287973D01*
X415925D02*
X413386D01*
X415925Y290512D01*
Y291147D01*
X415290Y291782D01*
X414021D01*
X413386Y291147D01*
X417195Y287338D02*
X419734D01*
X421004Y291782D02*
Y287973D01*
X422908D01*
X423543Y288608D01*
Y291147D01*
X422908Y291782D01*
X421004D01*
X216537Y287973D02*
Y291782D01*
X218442D01*
X219076Y291147D01*
Y289877D01*
X218442Y289243D01*
X216537D01*
X217807D02*
X219076Y287973D01*
X222885D02*
X220346D01*
X222885Y290512D01*
Y291147D01*
X222250Y291782D01*
X220981D01*
X220346Y291147D01*
X224155Y287338D02*
X226694D01*
X230503Y291147D02*
X229868Y291782D01*
X228598D01*
X227964Y291147D01*
Y288608D01*
X228598Y287973D01*
X229868D01*
X230503Y288608D01*
X23497Y287973D02*
Y291782D01*
X25402D01*
X26036Y291147D01*
Y289877D01*
X25402Y289243D01*
X23497D01*
X24767D02*
X26036Y287973D01*
X29845D02*
X27306D01*
X29845Y290512D01*
Y291147D01*
X29210Y291782D01*
X27941D01*
X27306Y291147D01*
X31115Y287338D02*
X33654D01*
X34924Y291782D02*
Y287973D01*
X36828D01*
X37463Y288608D01*
Y289243D01*
X36828Y289877D01*
X34924D01*
X36828D01*
X37463Y290512D01*
Y291147D01*
X36828Y291782D01*
X34924D01*
X531179Y639127D02*
X530545Y639762D01*
X529275D01*
X528640Y639127D01*
Y636588D01*
X529275Y635953D01*
X530545D01*
X531179Y636588D01*
X532449Y635953D02*
X533719D01*
X533084D01*
Y639762D01*
X532449Y639127D01*
X538162Y635953D02*
X535623D01*
X538162Y638492D01*
Y639127D01*
X537527Y639762D01*
X536258D01*
X535623Y639127D01*
X539432Y635318D02*
X541971D01*
X543241Y639762D02*
Y635953D01*
Y637857D01*
X545780D01*
Y639762D01*
Y635953D01*
X348933Y777559D02*
X348298Y776925D01*
Y775655D01*
X348933Y775020D01*
X351472D01*
X352107Y775655D01*
Y776925D01*
X351472Y777559D01*
X352107Y778829D02*
Y780099D01*
Y779464D01*
X348298D01*
X348933Y778829D01*
X352107Y784542D02*
Y782003D01*
X349568Y784542D01*
X348933D01*
X348298Y783907D01*
Y782638D01*
X348933Y782003D01*
X352742Y785812D02*
Y788351D01*
X348933Y792160D02*
X348298Y791525D01*
Y790255D01*
X348933Y789621D01*
X351472D01*
X352107Y790255D01*
Y791525D01*
X351472Y792160D01*
X350203D01*
Y790890D01*
X132399Y639127D02*
X131765Y639762D01*
X130495D01*
X129860Y639127D01*
Y636588D01*
X130495Y635953D01*
X131765D01*
X132399Y636588D01*
X133669Y635953D02*
X134939D01*
X134304D01*
Y639762D01*
X133669Y639127D01*
X139382Y635953D02*
X136843D01*
X139382Y638492D01*
Y639127D01*
X138747Y639762D01*
X137478D01*
X136843Y639127D01*
X140652Y635318D02*
X143191D01*
X147000Y639762D02*
X144461D01*
Y637857D01*
X145730D01*
X144461D01*
Y635953D01*
X368619Y432237D02*
X367985Y432872D01*
X366715D01*
X366080Y432237D01*
Y429698D01*
X366715Y429063D01*
X367985D01*
X368619Y429698D01*
X369889Y429063D02*
X371159D01*
X370524D01*
Y432872D01*
X369889Y432237D01*
X375602Y429063D02*
X373063D01*
X375602Y431602D01*
Y432237D01*
X374967Y432872D01*
X373698D01*
X373063Y432237D01*
X376872Y428428D02*
X379411D01*
X383220Y432872D02*
X380681D01*
Y429063D01*
X383220D01*
X380681Y430967D02*
X381950D01*
X524829Y223837D02*
X524195Y224472D01*
X522925D01*
X522290Y223837D01*
Y221298D01*
X522925Y220663D01*
X524195D01*
X524829Y221298D01*
X526099Y220663D02*
X527369D01*
X526734D01*
Y224472D01*
X526099Y223837D01*
X531812Y220663D02*
X529273D01*
X531812Y223202D01*
Y223837D01*
X531177Y224472D01*
X529908D01*
X529273Y223837D01*
X533082Y220028D02*
X535621D01*
X536891Y224472D02*
Y220663D01*
X538795D01*
X539430Y221298D01*
Y223837D01*
X538795Y224472D01*
X536891D01*
X331789Y223837D02*
X331155Y224472D01*
X329885D01*
X329250Y223837D01*
Y221298D01*
X329885Y220663D01*
X331155D01*
X331789Y221298D01*
X333059Y220663D02*
X334329D01*
X333694D01*
Y224472D01*
X333059Y223837D01*
X338772Y220663D02*
X336233D01*
X338772Y223202D01*
Y223837D01*
X338137Y224472D01*
X336868D01*
X336233Y223837D01*
X340042Y220028D02*
X342581D01*
X346390Y223837D02*
X345755Y224472D01*
X344485D01*
X343851Y223837D01*
Y221298D01*
X344485Y220663D01*
X345755D01*
X346390Y221298D01*
X138749Y223837D02*
X138115Y224472D01*
X136845D01*
X136210Y223837D01*
Y221298D01*
X136845Y220663D01*
X138115D01*
X138749Y221298D01*
X140019Y220663D02*
X141289D01*
X140654D01*
Y224472D01*
X140019Y223837D01*
X145732Y220663D02*
X143193D01*
X145732Y223202D01*
Y223837D01*
X145097Y224472D01*
X143828D01*
X143193Y223837D01*
X147002Y220028D02*
X149541D01*
X150811Y224472D02*
Y220663D01*
X152715D01*
X153350Y221298D01*
Y221933D01*
X152715Y222567D01*
X150811D01*
X152715D01*
X153350Y223202D01*
Y223837D01*
X152715Y224472D01*
X150811D01*
X496253Y617856D02*
X495618Y617222D01*
Y615952D01*
X496253Y615317D01*
X498792D01*
X499427Y615952D01*
Y617222D01*
X498792Y617856D01*
Y619126D02*
X499427Y619761D01*
Y621030D01*
X498792Y621665D01*
X496253D01*
X495618Y621030D01*
Y619761D01*
X496253Y619126D01*
X496888D01*
X497523Y619761D01*
Y621665D01*
X500062Y622935D02*
Y625474D01*
X495618Y626744D02*
X499427D01*
X497523D01*
Y629283D01*
X495618D01*
X499427D01*
X370204Y742633D02*
X370838Y741998D01*
X372108D01*
X372743Y742633D01*
Y745172D01*
X372108Y745807D01*
X370838D01*
X370204Y745172D01*
X368934D02*
X368299Y745807D01*
X367030D01*
X366395Y745172D01*
Y742633D01*
X367030Y741998D01*
X368299D01*
X368934Y742633D01*
Y743268D01*
X368299Y743903D01*
X366395D01*
X365125Y746442D02*
X362586D01*
X358777Y742633D02*
X359412Y741998D01*
X360682D01*
X361316Y742633D01*
Y745172D01*
X360682Y745807D01*
X359412D01*
X358777Y745172D01*
Y743903D01*
X360047D01*
X97473Y617856D02*
X96838Y617222D01*
Y615952D01*
X97473Y615317D01*
X100012D01*
X100647Y615952D01*
Y617222D01*
X100012Y617856D01*
Y619126D02*
X100647Y619761D01*
Y621030D01*
X100012Y621665D01*
X97473D01*
X96838Y621030D01*
Y619761D01*
X97473Y619126D01*
X98108D01*
X98743Y619761D01*
Y621665D01*
X101282Y622935D02*
Y625474D01*
X96838Y629283D02*
Y626744D01*
X98743D01*
Y628013D01*
Y626744D01*
X100647D01*
X333693Y410966D02*
X333058Y410332D01*
Y409062D01*
X333693Y408427D01*
X336232D01*
X336867Y409062D01*
Y410332D01*
X336232Y410966D01*
Y412236D02*
X336867Y412871D01*
Y414140D01*
X336232Y414775D01*
X333693D01*
X333058Y414140D01*
Y412871D01*
X333693Y412236D01*
X334328D01*
X334963Y412871D01*
Y414775D01*
X337502Y416045D02*
Y418584D01*
X333058Y422393D02*
Y419854D01*
X336867D01*
Y422393D01*
X334963Y419854D02*
Y421123D01*
X489903Y202566D02*
X489268Y201932D01*
Y200662D01*
X489903Y200027D01*
X492442D01*
X493077Y200662D01*
Y201932D01*
X492442Y202566D01*
Y203836D02*
X493077Y204471D01*
Y205740D01*
X492442Y206375D01*
X489903D01*
X489268Y205740D01*
Y204471D01*
X489903Y203836D01*
X490538D01*
X491173Y204471D01*
Y206375D01*
X493712Y207645D02*
Y210184D01*
X489268Y211454D02*
X493077D01*
Y213358D01*
X492442Y213993D01*
X489903D01*
X489268Y213358D01*
Y211454D01*
X296863Y202566D02*
X296228Y201932D01*
Y200662D01*
X296863Y200027D01*
X299402D01*
X300037Y200662D01*
Y201932D01*
X299402Y202566D01*
Y203836D02*
X300037Y204471D01*
Y205740D01*
X299402Y206375D01*
X296863D01*
X296228Y205740D01*
Y204471D01*
X296863Y203836D01*
X297498D01*
X298133Y204471D01*
Y206375D01*
X300672Y207645D02*
Y210184D01*
X296863Y213993D02*
X296228Y213358D01*
Y212088D01*
X296863Y211454D01*
X299402D01*
X300037Y212088D01*
Y213358D01*
X299402Y213993D01*
X103823Y202566D02*
X103188Y201932D01*
Y200662D01*
X103823Y200027D01*
X106362D01*
X106997Y200662D01*
Y201932D01*
X106362Y202566D01*
Y203836D02*
X106997Y204471D01*
Y205740D01*
X106362Y206375D01*
X103823D01*
X103188Y205740D01*
Y204471D01*
X103823Y203836D01*
X104458D01*
X105093Y204471D01*
Y206375D01*
X107632Y207645D02*
Y210184D01*
X103188Y211454D02*
X106997D01*
Y213358D01*
X106362Y213993D01*
X105727D01*
X105093Y213358D01*
Y211454D01*
Y213358D01*
X104458Y213993D01*
X103823D01*
X103188Y213358D01*
Y211454D01*
X423546Y693737D02*
X422912Y694372D01*
X421642D01*
X421007Y693737D01*
Y691198D01*
X421642Y690563D01*
X422912D01*
X423546Y691198D01*
X426720Y690563D02*
Y694372D01*
X424816Y692467D01*
X427355D01*
X428625Y689928D02*
X431164D01*
X432434Y694372D02*
Y690563D01*
Y692467D01*
X434973D01*
Y694372D01*
Y690563D01*
X294323Y669926D02*
X293688Y669292D01*
Y668022D01*
X294323Y667387D01*
X296862D01*
X297497Y668022D01*
Y669292D01*
X296862Y669926D01*
X297497Y673100D02*
X293688D01*
X295593Y671196D01*
Y673735D01*
X298132Y675005D02*
Y677544D01*
X294323Y681353D02*
X293688Y680718D01*
Y679448D01*
X294323Y678814D01*
X296862D01*
X297497Y679448D01*
Y680718D01*
X296862Y681353D01*
X295593D01*
Y680083D01*
X24766Y693737D02*
X24132Y694372D01*
X22862D01*
X22227Y693737D01*
Y691198D01*
X22862Y690563D01*
X24132D01*
X24766Y691198D01*
X27940Y690563D02*
Y694372D01*
X26036Y692467D01*
X28575D01*
X29845Y689928D02*
X32384D01*
X36193Y694372D02*
X33654D01*
Y692467D01*
X34923D01*
X33654D01*
Y690563D01*
X260986Y486847D02*
X260352Y487482D01*
X259082D01*
X258447Y486847D01*
Y484308D01*
X259082Y483673D01*
X260352D01*
X260986Y484308D01*
X264160Y483673D02*
Y487482D01*
X262256Y485577D01*
X264795D01*
X266065Y483038D02*
X268604D01*
X272413Y487482D02*
X269874D01*
Y483673D01*
X272413D01*
X269874Y485577D02*
X271143D01*
X417196Y278447D02*
X416562Y279082D01*
X415292D01*
X414657Y278447D01*
Y275908D01*
X415292Y275273D01*
X416562D01*
X417196Y275908D01*
X420370Y275273D02*
Y279082D01*
X418466Y277177D01*
X421005D01*
X422275Y274638D02*
X424814D01*
X426084Y279082D02*
Y275273D01*
X427988D01*
X428623Y275908D01*
Y278447D01*
X427988Y279082D01*
X426084D01*
X224156Y278447D02*
X223522Y279082D01*
X222252D01*
X221617Y278447D01*
Y275908D01*
X222252Y275273D01*
X223522D01*
X224156Y275908D01*
X227330Y275273D02*
Y279082D01*
X225426Y277177D01*
X227965D01*
X229235Y274638D02*
X231774D01*
X235583Y278447D02*
X234948Y279082D01*
X233678D01*
X233044Y278447D01*
Y275908D01*
X233678Y275273D01*
X234948D01*
X235583Y275908D01*
X31116Y278447D02*
X30482Y279082D01*
X29212D01*
X28577Y278447D01*
Y275908D01*
X29212Y275273D01*
X30482D01*
X31116Y275908D01*
X34290Y275273D02*
Y279082D01*
X32386Y277177D01*
X34925D01*
X36195Y274638D02*
X38734D01*
X40004Y279082D02*
Y275273D01*
X41908D01*
X42543Y275908D01*
Y276543D01*
X41908Y277177D01*
X40004D01*
X41908D01*
X42543Y277812D01*
Y278447D01*
X41908Y279082D01*
X40004D01*
X423546Y664527D02*
X422912Y665162D01*
X421642D01*
X421007Y664527D01*
Y661988D01*
X421642Y661353D01*
X422912D01*
X423546Y661988D01*
X424816Y664527D02*
X425451Y665162D01*
X426720D01*
X427355Y664527D01*
Y663892D01*
X426720Y663257D01*
X426086D01*
X426720D01*
X427355Y662623D01*
Y661988D01*
X426720Y661353D01*
X425451D01*
X424816Y661988D01*
X428625Y660718D02*
X431164D01*
X432434Y665162D02*
Y661353D01*
Y663257D01*
X434973D01*
Y665162D01*
Y661353D01*
X323533Y669926D02*
X322898Y669292D01*
Y668022D01*
X323533Y667387D01*
X326072D01*
X326707Y668022D01*
Y669292D01*
X326072Y669926D01*
X323533Y671196D02*
X322898Y671831D01*
Y673100D01*
X323533Y673735D01*
X324168D01*
X324803Y673100D01*
Y672466D01*
Y673100D01*
X325437Y673735D01*
X326072D01*
X326707Y673100D01*
Y671831D01*
X326072Y671196D01*
X327342Y675005D02*
Y677544D01*
X323533Y681353D02*
X322898Y680718D01*
Y679448D01*
X323533Y678814D01*
X326072D01*
X326707Y679448D01*
Y680718D01*
X326072Y681353D01*
X324803D01*
Y680083D01*
X24766Y664527D02*
X24132Y665162D01*
X22862D01*
X22227Y664527D01*
Y661988D01*
X22862Y661353D01*
X24132D01*
X24766Y661988D01*
X26036Y664527D02*
X26671Y665162D01*
X27940D01*
X28575Y664527D01*
Y663892D01*
X27940Y663257D01*
X27306D01*
X27940D01*
X28575Y662623D01*
Y661988D01*
X27940Y661353D01*
X26671D01*
X26036Y661988D01*
X29845Y660718D02*
X32384D01*
X36193Y665162D02*
X33654D01*
Y663257D01*
X34923D01*
X33654D01*
Y661353D01*
X260986Y457637D02*
X260352Y458272D01*
X259082D01*
X258447Y457637D01*
Y455098D01*
X259082Y454463D01*
X260352D01*
X260986Y455098D01*
X262256Y457637D02*
X262891Y458272D01*
X264160D01*
X264795Y457637D01*
Y457002D01*
X264160Y456367D01*
X263526D01*
X264160D01*
X264795Y455733D01*
Y455098D01*
X264160Y454463D01*
X262891D01*
X262256Y455098D01*
X266065Y453828D02*
X268604D01*
X272413Y458272D02*
X269874D01*
Y454463D01*
X272413D01*
X269874Y456367D02*
X271143D01*
X417196Y249237D02*
X416562Y249872D01*
X415292D01*
X414657Y249237D01*
Y246698D01*
X415292Y246063D01*
X416562D01*
X417196Y246698D01*
X418466Y249237D02*
X419101Y249872D01*
X420370D01*
X421005Y249237D01*
Y248602D01*
X420370Y247967D01*
X419736D01*
X420370D01*
X421005Y247333D01*
Y246698D01*
X420370Y246063D01*
X419101D01*
X418466Y246698D01*
X422275Y245428D02*
X424814D01*
X426084Y249872D02*
Y246063D01*
X427988D01*
X428623Y246698D01*
Y249237D01*
X427988Y249872D01*
X426084D01*
X224156Y249237D02*
X223522Y249872D01*
X222252D01*
X221617Y249237D01*
Y246698D01*
X222252Y246063D01*
X223522D01*
X224156Y246698D01*
X225426Y249237D02*
X226061Y249872D01*
X227330D01*
X227965Y249237D01*
Y248602D01*
X227330Y247967D01*
X226696D01*
X227330D01*
X227965Y247333D01*
Y246698D01*
X227330Y246063D01*
X226061D01*
X225426Y246698D01*
X229235Y245428D02*
X231774D01*
X235583Y249237D02*
X234948Y249872D01*
X233678D01*
X233044Y249237D01*
Y246698D01*
X233678Y246063D01*
X234948D01*
X235583Y246698D01*
X31116Y249237D02*
X30482Y249872D01*
X29212D01*
X28577Y249237D01*
Y246698D01*
X29212Y246063D01*
X30482D01*
X31116Y246698D01*
X32386Y249237D02*
X33021Y249872D01*
X34290D01*
X34925Y249237D01*
Y248602D01*
X34290Y247967D01*
X33656D01*
X34290D01*
X34925Y247333D01*
Y246698D01*
X34290Y246063D01*
X33021D01*
X32386Y246698D01*
X36195Y245428D02*
X38734D01*
X40004Y249872D02*
Y246063D01*
X41908D01*
X42543Y246698D01*
Y247333D01*
X41908Y247967D01*
X40004D01*
X41908D01*
X42543Y248602D01*
Y249237D01*
X41908Y249872D01*
X40004D01*
X479743Y617856D02*
X479108Y617222D01*
Y615952D01*
X479743Y615317D01*
X482282D01*
X482917Y615952D01*
Y617222D01*
X482282Y617856D01*
X482917Y621665D02*
Y619126D01*
X480378Y621665D01*
X479743D01*
X479108Y621030D01*
Y619761D01*
X479743Y619126D01*
X483552Y622935D02*
Y625474D01*
X479108Y626744D02*
X482917D01*
X481013D01*
Y629283D01*
X479108D01*
X482917D01*
X370204Y726123D02*
X370838Y725488D01*
X372108D01*
X372743Y726123D01*
Y728662D01*
X372108Y729297D01*
X370838D01*
X370204Y728662D01*
X366395Y729297D02*
X368934D01*
X366395Y726758D01*
Y726123D01*
X367030Y725488D01*
X368299D01*
X368934Y726123D01*
X365125Y729932D02*
X362586D01*
X358777Y726123D02*
X359412Y725488D01*
X360682D01*
X361316Y726123D01*
Y728662D01*
X360682Y729297D01*
X359412D01*
X358777Y728662D01*
Y727393D01*
X360047D01*
X80963Y617856D02*
X80328Y617222D01*
Y615952D01*
X80963Y615317D01*
X83502D01*
X84137Y615952D01*
Y617222D01*
X83502Y617856D01*
X84137Y621665D02*
Y619126D01*
X81598Y621665D01*
X80963D01*
X80328Y621030D01*
Y619761D01*
X80963Y619126D01*
X84772Y622935D02*
Y625474D01*
X80328Y629283D02*
Y626744D01*
X82233D01*
Y628013D01*
Y626744D01*
X84137D01*
X317183Y410966D02*
X316548Y410332D01*
Y409062D01*
X317183Y408427D01*
X319722D01*
X320357Y409062D01*
Y410332D01*
X319722Y410966D01*
X320357Y414775D02*
Y412236D01*
X317818Y414775D01*
X317183D01*
X316548Y414140D01*
Y412871D01*
X317183Y412236D01*
X320992Y416045D02*
Y418584D01*
X316548Y422393D02*
Y419854D01*
X320357D01*
Y422393D01*
X318453Y419854D02*
Y421123D01*
X473393Y202566D02*
X472758Y201932D01*
Y200662D01*
X473393Y200027D01*
X475932D01*
X476567Y200662D01*
Y201932D01*
X475932Y202566D01*
X476567Y206375D02*
Y203836D01*
X474028Y206375D01*
X473393D01*
X472758Y205740D01*
Y204471D01*
X473393Y203836D01*
X477202Y207645D02*
Y210184D01*
X472758Y211454D02*
X476567D01*
Y213358D01*
X475932Y213993D01*
X473393D01*
X472758Y213358D01*
Y211454D01*
X280353Y202566D02*
X279718Y201932D01*
Y200662D01*
X280353Y200027D01*
X282892D01*
X283527Y200662D01*
Y201932D01*
X282892Y202566D01*
X283527Y206375D02*
Y203836D01*
X280988Y206375D01*
X280353D01*
X279718Y205740D01*
Y204471D01*
X280353Y203836D01*
X284162Y207645D02*
Y210184D01*
X280353Y213993D02*
X279718Y213358D01*
Y212088D01*
X280353Y211454D01*
X282892D01*
X283527Y212088D01*
Y213358D01*
X282892Y213993D01*
X87313Y202566D02*
X86678Y201932D01*
Y200662D01*
X87313Y200027D01*
X89852D01*
X90487Y200662D01*
Y201932D01*
X89852Y202566D01*
X90487Y206375D02*
Y203836D01*
X87948Y206375D01*
X87313D01*
X86678Y205740D01*
Y204471D01*
X87313Y203836D01*
X91122Y207645D02*
Y210184D01*
X86678Y211454D02*
X90487D01*
Y213358D01*
X89852Y213993D01*
X89217D01*
X88583Y213358D01*
Y211454D01*
Y213358D01*
X87948Y213993D01*
X87313D01*
X86678Y213358D01*
Y211454D01*
X440374Y639127D02*
X439739Y639762D01*
X438469D01*
X437835Y639127D01*
Y636588D01*
X438469Y635953D01*
X439739D01*
X440374Y636588D01*
X441643Y635953D02*
X442913D01*
X442278D01*
Y639762D01*
X441643Y639127D01*
X444817Y635318D02*
X447357D01*
X448626Y639762D02*
Y635953D01*
Y637857D01*
X451165D01*
Y639762D01*
Y635953D01*
X348933Y686754D02*
X348298Y686119D01*
Y684849D01*
X348933Y684215D01*
X351472D01*
X352107Y684849D01*
Y686119D01*
X351472Y686754D01*
X352107Y688023D02*
Y689293D01*
Y688658D01*
X348298D01*
X348933Y688023D01*
X352742Y691197D02*
Y693737D01*
X348933Y697545D02*
X348298Y696911D01*
Y695641D01*
X348933Y695006D01*
X351472D01*
X352107Y695641D01*
Y696911D01*
X351472Y697545D01*
X350203D01*
Y696276D01*
X41594Y639127D02*
X40959Y639762D01*
X39689D01*
X39055Y639127D01*
Y636588D01*
X39689Y635953D01*
X40959D01*
X41594Y636588D01*
X42863Y635953D02*
X44133D01*
X43498D01*
Y639762D01*
X42863Y639127D01*
X46037Y635318D02*
X48577D01*
X52385Y639762D02*
X49846D01*
Y637857D01*
X51116D01*
X49846D01*
Y635953D01*
X277814Y432237D02*
X277179Y432872D01*
X275909D01*
X275275Y432237D01*
Y429698D01*
X275909Y429063D01*
X277179D01*
X277814Y429698D01*
X279083Y429063D02*
X280353D01*
X279718D01*
Y432872D01*
X279083Y432237D01*
X282257Y428428D02*
X284797D01*
X288605Y432872D02*
X286066D01*
Y429063D01*
X288605D01*
X286066Y430967D02*
X287336D01*
X434024Y223837D02*
X433389Y224472D01*
X432119D01*
X431485Y223837D01*
Y221298D01*
X432119Y220663D01*
X433389D01*
X434024Y221298D01*
X435293Y220663D02*
X436563D01*
X435928D01*
Y224472D01*
X435293Y223837D01*
X438467Y220028D02*
X441007D01*
X442276Y224472D02*
Y220663D01*
X444181D01*
X444815Y221298D01*
Y223837D01*
X444181Y224472D01*
X442276D01*
X240984Y223837D02*
X240349Y224472D01*
X239079D01*
X238445Y223837D01*
Y221298D01*
X239079Y220663D01*
X240349D01*
X240984Y221298D01*
X242253Y220663D02*
X243523D01*
X242888D01*
Y224472D01*
X242253Y223837D01*
X245427Y220028D02*
X247967D01*
X251775Y223837D02*
X251141Y224472D01*
X249871D01*
X249236Y223837D01*
Y221298D01*
X249871Y220663D01*
X251141D01*
X251775Y221298D01*
X47944Y223837D02*
X47309Y224472D01*
X46039D01*
X45405Y223837D01*
Y221298D01*
X46039Y220663D01*
X47309D01*
X47944Y221298D01*
X49213Y220663D02*
X50483D01*
X49848D01*
Y224472D01*
X49213Y223837D01*
X52387Y220028D02*
X54927D01*
X56196Y224472D02*
Y220663D01*
X58101D01*
X58735Y221298D01*
Y221933D01*
X58101Y222567D01*
X56196D01*
X58101D01*
X58735Y223202D01*
Y223837D01*
X58101Y224472D01*
X56196D01*
X180979Y550544D02*
Y544196D01*
X182249Y542926D01*
X184788D01*
X186058Y544196D01*
Y550544D01*
X188597Y542926D02*
X191136D01*
X189866D01*
Y550544D01*
X188597Y549274D01*
X194945Y541656D02*
X200023D01*
X202562Y542926D02*
Y548004D01*
X205102Y550544D01*
X207641Y548004D01*
Y542926D01*
Y546735D01*
X202562D01*
X200980Y515303D02*
Y519112D01*
X202885D01*
X203519Y518477D01*
Y517207D01*
X202885Y516573D01*
X200980D01*
X202250D02*
X203519Y515303D01*
X204789D02*
X206059D01*
X205424D01*
Y519112D01*
X204789Y518477D01*
X209867Y515303D02*
Y519112D01*
X207963Y517207D01*
X210502D01*
X211772Y514668D02*
X214311D01*
X215581Y515303D02*
Y517842D01*
X216850Y519112D01*
X218120Y517842D01*
Y515303D01*
Y517207D01*
X215581D01*
X200028Y479743D02*
Y483552D01*
X201932D01*
X202567Y482917D01*
Y481647D01*
X201932Y481013D01*
X200028D01*
X201297D02*
X202567Y479743D01*
X203836D02*
X205106D01*
X204471D01*
Y483552D01*
X203836Y482917D01*
X207010Y479743D02*
X208280D01*
X207645D01*
Y483552D01*
X207010Y482917D01*
X210184Y479108D02*
X212724D01*
X213993Y479743D02*
Y482282D01*
X215263Y483552D01*
X216532Y482282D01*
Y479743D01*
Y481647D01*
X213993D01*
X95570Y559753D02*
Y563562D01*
X97475D01*
X98109Y562927D01*
Y561657D01*
X97475Y561023D01*
X95570D01*
X96840D02*
X98109Y559753D01*
X99379D02*
X100649D01*
X100014D01*
Y563562D01*
X99379Y562927D01*
X102553D02*
X103188Y563562D01*
X104457D01*
X105092Y562927D01*
Y560388D01*
X104457Y559753D01*
X103188D01*
X102553Y560388D01*
Y562927D01*
X106362Y559118D02*
X108901D01*
X110171Y559753D02*
Y562292D01*
X111440Y563562D01*
X112710Y562292D01*
Y559753D01*
Y561657D01*
X110171D01*
X131447Y566103D02*
Y569912D01*
X133352D01*
X133986Y569277D01*
Y568007D01*
X133352Y567373D01*
X131447D01*
X132717D02*
X133986Y566103D01*
X135256Y566738D02*
X135891Y566103D01*
X137160D01*
X137795Y566738D01*
Y569277D01*
X137160Y569912D01*
X135891D01*
X135256Y569277D01*
Y568642D01*
X135891Y568007D01*
X137795D01*
X139065Y565468D02*
X141604D01*
X142874Y566103D02*
Y568642D01*
X144143Y569912D01*
X145413Y568642D01*
Y566103D01*
Y568007D01*
X142874D01*
X80647Y506413D02*
Y510222D01*
X82552D01*
X83186Y509587D01*
Y508317D01*
X82552Y507683D01*
X80647D01*
X81917D02*
X83186Y506413D01*
X86995Y510222D02*
X85726Y509587D01*
X84456Y508317D01*
Y507048D01*
X85091Y506413D01*
X86360D01*
X86995Y507048D01*
Y507683D01*
X86360Y508317D01*
X84456D01*
X88265Y505778D02*
X90804D01*
X92074Y506413D02*
Y508952D01*
X93343Y510222D01*
X94613Y508952D01*
Y506413D01*
Y508317D01*
X92074D01*
X203837Y468313D02*
Y472122D01*
X205742D01*
X206376Y471487D01*
Y470217D01*
X205742Y469583D01*
X203837D01*
X205107D02*
X206376Y468313D01*
X210185Y472122D02*
X207646D01*
Y470217D01*
X208916Y470852D01*
X209550D01*
X210185Y470217D01*
Y468948D01*
X209550Y468313D01*
X208281D01*
X207646Y468948D01*
X211455Y467678D02*
X213994D01*
X215264Y468313D02*
Y470852D01*
X216533Y472122D01*
X217803Y470852D01*
Y468313D01*
Y470217D01*
X215264D01*
X89537Y533083D02*
Y536892D01*
X91442D01*
X92076Y536257D01*
Y534987D01*
X91442Y534353D01*
X89537D01*
X90807D02*
X92076Y533083D01*
X95250D02*
Y536892D01*
X93346Y534987D01*
X95885D01*
X97155Y532448D02*
X99694D01*
X100964Y533083D02*
Y535622D01*
X102233Y536892D01*
X103503Y535622D01*
Y533083D01*
Y534987D01*
X100964D01*
X90807Y496253D02*
Y500062D01*
X92712D01*
X93346Y499427D01*
Y498157D01*
X92712Y497523D01*
X90807D01*
X92077D02*
X93346Y496253D01*
X97155D02*
X94616D01*
X97155Y498792D01*
Y499427D01*
X96520Y500062D01*
X95251D01*
X94616Y499427D01*
X98425Y495618D02*
X100964D01*
X102234Y496253D02*
Y498792D01*
X103503Y500062D01*
X104773Y498792D01*
Y496253D01*
Y498157D01*
X102234D01*
X206059Y432117D02*
X205425Y432752D01*
X204155D01*
X203520Y432117D01*
Y429578D01*
X204155Y428943D01*
X205425D01*
X206059Y429578D01*
X207329Y428943D02*
X208599D01*
X207964D01*
Y432752D01*
X207329Y432117D01*
X213042Y428943D02*
X210503D01*
X213042Y431482D01*
Y432117D01*
X212407Y432752D01*
X211138D01*
X210503Y432117D01*
X214312Y428308D02*
X216851D01*
X218121Y428943D02*
Y431482D01*
X219390Y432752D01*
X220660Y431482D01*
Y428943D01*
Y430847D01*
X218121D01*
X171133Y410846D02*
X170498Y410212D01*
Y408942D01*
X171133Y408307D01*
X173672D01*
X174307Y408942D01*
Y410212D01*
X173672Y410846D01*
Y412116D02*
X174307Y412751D01*
Y414020D01*
X173672Y414655D01*
X171133D01*
X170498Y414020D01*
Y412751D01*
X171133Y412116D01*
X171768D01*
X172403Y412751D01*
Y414655D01*
X174942Y415925D02*
Y418464D01*
X174307Y419734D02*
X171768D01*
X170498Y421003D01*
X171768Y422273D01*
X174307D01*
X172403D01*
Y419734D01*
X98426Y486727D02*
X97792Y487362D01*
X96522D01*
X95887Y486727D01*
Y484188D01*
X96522Y483553D01*
X97792D01*
X98426Y484188D01*
X101600Y483553D02*
Y487362D01*
X99696Y485457D01*
X102235D01*
X103505Y482918D02*
X106044D01*
X107314Y483553D02*
Y486092D01*
X108583Y487362D01*
X109853Y486092D01*
Y483553D01*
Y485457D01*
X107314D01*
X98426Y457517D02*
X97792Y458152D01*
X96522D01*
X95887Y457517D01*
Y454978D01*
X96522Y454343D01*
X97792D01*
X98426Y454978D01*
X99696Y457517D02*
X100331Y458152D01*
X101600D01*
X102235Y457517D01*
Y456882D01*
X101600Y456247D01*
X100966D01*
X101600D01*
X102235Y455613D01*
Y454978D01*
X101600Y454343D01*
X100331D01*
X99696Y454978D01*
X103505Y453708D02*
X106044D01*
X107314Y454343D02*
Y456882D01*
X108583Y458152D01*
X109853Y456882D01*
Y454343D01*
Y456247D01*
X107314D01*
X154623Y410846D02*
X153988Y410212D01*
Y408942D01*
X154623Y408307D01*
X157162D01*
X157797Y408942D01*
Y410212D01*
X157162Y410846D01*
X157797Y414655D02*
Y412116D01*
X155258Y414655D01*
X154623D01*
X153988Y414020D01*
Y412751D01*
X154623Y412116D01*
X158432Y415925D02*
Y418464D01*
X157797Y419734D02*
X155258D01*
X153988Y421003D01*
X155258Y422273D01*
X157797D01*
X155893D01*
Y419734D01*
X115254Y432117D02*
X114619Y432752D01*
X113349D01*
X112715Y432117D01*
Y429578D01*
X113349Y428943D01*
X114619D01*
X115254Y429578D01*
X116523Y428943D02*
X117793D01*
X117158D01*
Y432752D01*
X116523Y432117D01*
X119697Y428308D02*
X122237D01*
X123506Y428943D02*
Y431482D01*
X124776Y432752D01*
X126045Y431482D01*
Y428943D01*
Y430847D01*
X123506D01*
D15*
X360680Y407670D02*
X364490D01*
X359410Y406400D02*
X360680Y407670D01*
X359410Y397510D02*
Y406400D01*
X340360Y467360D02*
X342900Y469900D01*
X292100Y500380D02*
X294640Y497840D01*
X271780Y500380D02*
X292100D01*
X264160Y504190D02*
X269240D01*
X276860Y511810D01*
X292100Y532130D02*
X294640Y529590D01*
X270510Y532130D02*
X292100D01*
X342900Y469900D02*
X361950D01*
X394335Y397510D02*
Y406400D01*
X393065Y407670D02*
X394335Y406400D01*
X389255Y407670D02*
X393065D01*
X529590Y618490D02*
X534670D01*
X527050Y615950D02*
X529590Y618490D01*
X527050Y612140D02*
Y615950D01*
X273050Y684530D02*
X274320Y683260D01*
Y676910D02*
Y683260D01*
X431800Y711200D02*
X438150Y717550D01*
X427990Y711200D02*
X431800D01*
X427990Y297180D02*
X431800Y300990D01*
X417830Y297180D02*
X427990D01*
X234950D02*
X238760Y300990D01*
X224790Y297180D02*
X234950D01*
X41910D02*
X45720Y300990D01*
X33020Y297180D02*
X41910D01*
X109220Y505460D02*
X113030Y509270D01*
X99060Y505460D02*
X109220D01*
X36830Y712470D02*
X39370Y715010D01*
X22860Y712470D02*
X36830D01*
X312420Y753110D02*
X314960Y750570D01*
X312420Y753110D02*
Y772160D01*
X279400Y697230D02*
X283210Y701040D01*
X279400Y680720D02*
Y697230D01*
X247650D02*
X251460Y701040D01*
X247650Y679450D02*
Y697230D01*
X55880Y739140D02*
X58420Y736600D01*
X104140Y674370D02*
X106680Y676910D01*
X125730D01*
X55880Y707390D02*
X58420Y704850D01*
X34290Y739140D02*
X55880D01*
X35560Y707390D02*
X55880D01*
X454660Y739140D02*
X457200Y736600D01*
X502920Y674370D02*
X505460Y676910D01*
X524510D01*
X454660Y707390D02*
X457200Y704850D01*
X433070Y739140D02*
X454660D01*
X434340Y707390D02*
X454660D01*
X448310Y325120D02*
X450850Y322580D01*
X496570Y260350D02*
X499110Y262890D01*
X518160D01*
X448310Y293370D02*
X450850Y290830D01*
X426720Y325120D02*
X448310D01*
X427990Y293370D02*
X448310D01*
X255270Y323850D02*
X257810Y321310D01*
X303530Y259080D02*
X306070Y261620D01*
X325120D01*
X255270Y292100D02*
X257810Y289560D01*
X233680Y323850D02*
X255270D01*
X234950Y292100D02*
X255270D01*
X62230Y323850D02*
X64770Y321310D01*
X110490Y259080D02*
X113030Y261620D01*
X132080D01*
X62230Y292100D02*
X64770Y289560D01*
X40640Y323850D02*
X62230D01*
X41910Y292100D02*
X62230D01*
X109220Y500380D02*
X129540D01*
X107950Y532130D02*
X129540D01*
Y500380D02*
X132080Y497840D01*
X180340Y469900D02*
X199390D01*
X177800Y467360D02*
X180340Y469900D01*
X129540Y532130D02*
X132080Y529590D01*
X374651Y185417D02*
X369572D01*
X372112D01*
Y172722D01*
X369572Y170182D01*
X367033D01*
X364494Y172722D01*
X389886Y170182D02*
X379729D01*
X389886Y180339D01*
Y182878D01*
X387347Y185417D01*
X382268D01*
X379729Y182878D01*
D16*
X470418Y459677D02*
X461954Y451213D01*
Y459677D02*
X470418Y451213D01*
X466186Y459677D02*
Y451213D01*
X461954Y455444D02*
X470418D01*
X379414Y457581D02*
X387878Y466045D01*
Y457581D02*
X379414Y466045D01*
X383646Y457581D02*
Y466045D01*
X387878Y461813D02*
X379414D01*
D17*
X526794Y562435D02*
D03*
X494030Y372600D02*
D03*
X538480D02*
D03*
M02*
