M48
;Layer_Color=9474304
;FILE_FORMAT=4:4
METRIC,LZ
;TYPE=PLATED
T01F00S00C0.2000
T02F00S00C0.2540
T03F00S00C0.3810
T04F00S00C1.1938
T05F00S00C3.1750
;TYPE=NON_PLATED
T06F00S00C0.8900
T07F00S00C3.0480
%
T01
X0049473Y0050542
X0049823Y0051292
X0049123
X0049473Y0052042
X004953Y0054737
X004918Y0055487
X004988
X004953Y0056237
T02
X0049022Y0020066
X0052959Y0024257
X0053594Y0028067
X0050038Y0028321
Y0029083
Y0029718
X004953Y0030099
X0049911Y0030607
X0049784Y0031378
X0050038Y0027559
X0056261Y0030988
Y003175
X005252Y0037026
X0048006Y0035179
X004572Y0037338
X0043942Y0036322
X0042672Y0034544
X0041656Y0034671
X0040767
X0036449Y003175
X0035687
X003429Y0028067
X0030734Y0028321
Y0029083
Y0029845
X0030226Y0030099
X0030607Y0030607
X003048Y0031378
X0030734Y0027559
X0027305Y002921
X0025273Y0027051
X00254Y0026289
X0020701Y0026162
Y00254
Y0026924
X0014986Y0028067
X001143Y0028321
Y0029083
Y0029845
X0010922Y0030099
X0011303Y0030607
X0011176Y0031378
X001143Y0027559
X0014351Y0024257
X0010414Y0020066
X000889
X0021971Y0019558
X0028194Y0020066
X0029718
X0033655Y0024257
X0040132Y00254
Y0026162
Y0026924
X0044577Y0027051
X0044704Y0026289
X0046609Y002921
X0047498Y0020066
X0033216Y0037026
X0028702Y0035179
X0026416Y0037338
X0024638Y0036322
X0023368Y0034544
X0022352Y0034671
X0021463
X0017018Y003175
Y0030988
X0013912Y0037026
X0009398Y0035179
X002032Y000889
X0027911Y00035015
X0028194Y0002794
X0006096Y0026289
X0005969Y0027051
X0008001Y002921
X0001397Y0026924
Y0026162
Y00254
X0004064Y0034544
X0003702Y00366955
X0004572Y0036703
X0005334Y0036322
X0007112Y0037338
X0007493Y0040386
X0005461Y0067818
X0005334Y006858
X0007366Y0070739
X00012065Y00677545
Y00669925
Y00662305
X0001524Y00762
X0002413
X0003429Y0076073
X0004699Y0077851
X0008763Y0076708
X0010541Y0072907
X0010668Y0072263
X0010287Y0071755
X0010795Y0071374
Y0070612
Y006985
Y0069088
X0014351Y0069596
X0013716Y0065786
X0013843Y0058166
X0012065Y005715
X0010795Y0055372
X0009779Y0055499
X000889
X0008255Y0061595
X0009779
X0018415Y0061087
X00200653Y00589289
X0021209Y0058928
X0022098
X0023114
X00241291Y00589271
X0025146Y0058928
X0025654Y0058166
Y0057289
X0026035Y0055511
X0025146
X0024892Y0053975
Y0053213
X0027051Y0055384
X0028321Y0057162
X0027686Y005842
X0028321Y0059182
X0030099Y0058178
X0031623Y0058928
X0032512
X0033401
X0034417
X0036899Y0057866
X00397574Y00585929
X0039497Y0059309
X0039624Y0061341
Y0062103
X0038862
Y0061341
X00381Y0062103
X0037338
X0036576
Y0062865
X0037338
X00381
X0037719Y0066929
Y0067691
X0036957Y0066929
X0035179Y0065659
X0033909
X0032639
X0029591
X0027178
X0027559Y0062484
X0029083Y006223
X0029972
X0031369Y0062484
X0032385Y0056019
X0034163Y0052218
X003429Y0051435
X0034417Y0050673
Y0049911
Y0049149
Y0048399
X0033909Y0050927
X0030988Y005005
X0028956Y0047891
X0029083Y0047129
X0031877Y0040906
X0033401
X0037338Y0045097
X0037973Y0048907
X0039497Y0051816
Y0052578
X0042545Y0058801
X0043307
X0044069
Y0059563
X0043307
X0042545
Y0060452
X0043307
X0042545Y0061214
X0045339Y0067818
X0045212Y006858
X0047244Y0070739
X0043307Y0076073
X0042291Y00762
X0041402
X0044577Y0077851
X0037211Y0074295
Y0072771
X0030988Y0069977
X0030226Y006985
X0028067Y0071882
X0028194Y0075311
X0027432
X002667Y0075184
X0027051Y0074803
X0025899Y0075057
X0028956Y0075311
X0029718
X003302Y0078232
X0020251Y0077793
X0022098Y0073279
X0019939Y0070993
X0020955Y0069215
Y0068326
Y0067437
X0022733Y0067945
X0016129Y0073279
X0015367
X0013277Y0078555
X0016129Y0056007
X0017907Y0052206
X0018034Y0051435
X0017653Y0050927
X0018288Y0050673
X0018161Y0049911
Y0049149
Y0048387
X0021717Y0048895
X0021082Y0045085
X0024384Y0040513
Y0039751
Y0038989
X00171207Y00408697
X0015621Y0040894
X0008763
X0008255Y0040386
X0012827Y0047117
X00127Y0047879
X0014732Y0050038
X00207793Y00576758
X00469317Y0054864
X0047117Y0047498
Y0046736
X0046228
Y0047498
X0045339
Y0046736
X004445
Y0047498
X0047625Y0045466
X0051689Y0050546
Y005207
X0049657Y0053213
Y0053975
Y0061595
X0048133
X0054102Y0060198
X0053594Y0065786
X0054229Y0069596
X0050673Y0069977
Y0070739
Y0071501
X0050165Y0071882
X0050546Y0072263
X0050419Y0072907
X0050673Y0069088
X005588Y0072517
Y0073279
X0053155Y0078555
X0048641Y0076708
X0046355Y0078867
X002921
X0025654Y0080391
X0024892
X0006477Y0078867
T03
X0039751Y0041275
X0041275
X0054102Y0061722
T04
X00202692Y00051308
X00230378
X00258064
X0028575
X00313436
X00341122
X00368808
X00354965Y00079756
X00327279
X00299593
X00271907
X00244221
X00216535
X00188849
X00202692Y00118872
X00230378
X00258064
X0028575
X00313436
X00341122
X00368808
X00354965Y0014732
X00327279
X00299593
X00271907
X00244221
X00216535
X00188849
X00382651
Y00079756
T05
X0052705Y000635
X0004445
Y004445
X0052705
T06
X00183Y00635
X003885
T07
X00119126Y00051308
Y00131318
X00452374
Y00051308
M30
