M48
;Layer_Color=9474304
;FILE_FORMAT=4:4
METRIC,LZ
;TYPE=PLATED
T01F00S00C0.2540
T02F00S00C0.3810
T03F00S00C1.1938
T04F00S00C3.0480
T05F00S00C3.1750
;TYPE=NON_PLATED
T06F00S00C0.8900
%
T01
X0049022Y0020066
X0052959Y0024257
X0053594Y0028067
X0050038Y0028321
Y0029083
Y0029718
X004953Y0030099
X0049911Y0030607
X0049784Y0031378
X0050038Y0027559
X0056261Y0030988
Y003175
X005252Y0037026
X0048006Y0035179
X00478755Y00379695
X00473675Y00384775
X00468595Y00389855
X0045085Y0038735
X0044323
X00431292Y0037846
X0043942Y0036322
X004572Y0037338
X0042672Y0034544
X00406654Y00345948
X004064Y0035433
Y00386334
X00346202Y00386588
X0033216Y0037026
X00371602Y00354838
Y0034671
X0036449Y003175
X0035687
X003429Y0028067
X0030734Y0028321
Y0029083
Y0029845
X0030226Y0030099
X0030607Y0030607
X003048Y0031378
X0030734Y0027559
X0027305Y002921
X0025273Y0027051
X00254Y0026289
X0020701Y0026162
Y0026924
Y00254
X0021971Y0019558
X0028194Y0020066
X0029718
X0033655Y0024257
X0040259Y00254
Y0026162
Y0026924
X0044577Y0027051
X0044704Y0026289
X0046609Y002921
X0047498Y0020066
X0028702Y0035179
X0026416Y0037338
X0024638Y0036322
X0023368Y0034544
X0017018Y003175
Y0030988
X0014986Y0028067
X001143Y0028321
Y0027559
Y0029083
Y0029845
X0010922Y0030099
X0011303Y0030607
X0011176Y0031378
X0009398Y0035179
X0013912Y0037026
X0014351Y0024257
X0010414Y0020066
X000889
X002032Y000889
X0006096Y0026289
X0005969Y0027051
X0008001Y002921
X0001397Y0026924
Y0026162
Y00254
X0004064Y0034544
X0005334Y0036322
X0007112Y0037338
X0005461Y0049149
X0006096Y0049911
X0001905Y0050546
X0001143
X0001651Y005842
X0002159
X0003175Y0057277
X0003937
X00012065Y00662305
Y00669925
Y00677545
X0005461Y0067818
X0005334Y006858
X0007366Y0070739
X0003429Y0076073
X0002413Y00762
X0001524
X0004699Y0077851
X0008763Y0076708
X0010541Y0072907
X0010668Y0072263
X0010287Y0071755
X0010795Y0071374
Y0070612
Y006985
Y0069088
X0014351Y0069596
X0015748Y0071247
X0016383
X0016129Y0073279
X0015367
X00176276Y0074422
X00184658
X0022098Y0073279
X0019939Y0070993
X0020955Y0069215
Y0068326
Y0067437
X0022733Y0067945
Y0062611
X0021971
X0021209Y0062484
X00235889Y00626276
X0024384Y006223
X0025019
X0025654
Y0062865
X0024892
X0027559Y0062484
X0029083Y006223
X0029972
X0031369Y0062484
X00316538Y00589588
X0032512Y0058928
X0033401
X0034417
X0036899Y005842
X0036576Y0062103
Y0062865
X0037338
X00381
Y0062103
X0037338
X0038862
X0039624
Y0061341
X0038862
X0042545Y0061214
Y0060452
X0043307
Y0059563
X0042545
Y0058801
X0043307
X0044069
Y0059563
X00404368Y0057658
X0040513Y0056896
X00404397Y00560332
X0039878Y0054356
X0039497Y0052578
Y0051816
X0037973Y0048907
X00399055Y0047371
X00398526Y0044323
X0039116
X0038354
X0037338Y0045097
X00409215Y00451182
X0041656Y0043561
X00398526Y0040513
X0033401Y0040906
X0031877
X00243332Y0040894
X00236982
X00231902Y00408686
X00217678Y0040767
X00209804
X00196088Y00407416
X00188468
X00171207Y00408697
X0015621Y0040894
X00108712Y00421386
X00106934Y00429006
Y00435864
X0012827Y0047117
X00127Y0047879
X0014732Y0050038
X0018161Y0049911
Y0049149
Y0048387
X0018288Y0050673
X0017653Y0050927
X0018034Y0051435
X0017907Y0052206
X0016129Y0056007
X0013843Y0058166
X0012065Y005715
X0010795Y0055372
X0009779Y0055499
X000889
X0008255Y0061595
X0009779
X0013716Y0065786
X001524Y0065151
X0016002Y0065024
X0016256Y006731
X00178308Y00624586
X00189933Y0063051
X0018415Y0060452
X00197866Y00589788
X00204285Y00589777
X0021717Y0058928
X0022733
X0023876
X0024384Y0058166
X0026035Y0058547
Y005767
Y0055511
X0025146Y0055441
X0024892Y0053975
Y0053213
X0027051Y0055384
X0028321Y0057162
X00282702Y0059182
X0027559Y0058674
X0030099Y0058178
X0032385Y0056019
X0034163Y0052218
X003429Y0051435
X0034417Y0050673
Y0049911
Y0049149
Y0048399
X0033909Y0050927
X0030988Y005005
X0028956Y0047891
X0029083Y0047129
X0025146Y00427482
X00243876Y00427518
X0020574Y004318
X0021082Y0045085
X0021717Y0048895
X00207793Y0057531
X0027178Y0065659
X0029591
X0032639
X0033909
X0035179
X0036957Y0066929
X0037719
Y0067691
X0037211Y0072771
Y0074295
X0041402Y00762
X0042291
X0043307Y0076073
X0044577Y0077851
X0047244Y0070739
X0045212Y006858
X0045339Y0067818
X00469317Y0054864
X0047498Y0048641
X0047244Y0047498
Y0046736
Y0045974
Y0045212
X0046482
Y0045974
X0047879Y0043561
Y0042799
X0043688Y0047117
Y0048006
X0043434Y0048895
X0043561Y0049657
X0030988Y0069977
X0030226Y006985
X0028067Y0071882
X0028194Y0075311
X0027432
X002667Y0075184
X0027051Y0074803
X0025899Y0075057
X0028956Y0075311
X0029718
X003302Y0078232
X0020251Y0077793
X0013277Y0078555
X0048641Y0076708
X0050419Y0072907
X0050546Y0072263
X0050165Y0071882
X0050673Y0071501
Y0070739
Y0069977
Y0069088
X0054229Y0069596
X0053594Y0065786
X0054102Y0060198
X0049657Y0061595
X0048133
X004953Y0056237
X004918Y0055487
X004988
X004953Y0054737
X0049657Y0053975
Y0053213
X0049473Y0052042
X0049823Y0051292
X0049123
X0049473Y0050542
X0049276Y0042037
Y0041275
X0050292Y0040894
X0053848Y004064
X005588Y0072517
Y0073279
X0053155Y0078555
X0046355Y0078867
X002921
X0025654Y0080391
X0024892
X0006477Y0078867
T02
X00371856Y00328422
X00383032Y0040767
X0054102Y0061722
T03
X00202692Y00051308
X00230378
X00258064
X0028575
X00313436
X00341122
X00368808
X00382651Y00079756
X00354965
X00327279
X00299593
X00271907
X00244221
X00216535
X00188849
X00202692Y00118872
X00230378
X00258064
X0028575
X00313436
X00341122
X00368808
X00382651Y0014732
X00354965
X00327279
X00299593
X00271907
X00244221
X00216535
X00188849
T04
X00119126Y00051308
Y00131318
X00452374
Y00051308
T05
X0052705Y000635
X0004445
Y004445
X0052705
T06
X00183Y00635
X003885
M30
