G04*
G04 #@! TF.GenerationSoftware,Altium Limited,Altium Designer,25.2.1 (25)*
G04*
G04 Layer_Color=8421504*
%FSLAX44Y44*%
%MOMM*%
G71*
G04*
G04 #@! TF.SameCoordinates,2E8F3C69-5834-473F-A2B3-8F5DD2D09B02*
G04*
G04*
G04 #@! TF.FilePolarity,Positive*
G04*
G01*
G75*
G04:AMPARAMS|DCode=17|XSize=0.81mm|YSize=0.27mm|CornerRadius=0.0338mm|HoleSize=0mm|Usage=FLASHONLY|Rotation=0.000|XOffset=0mm|YOffset=0mm|HoleType=Round|Shape=RoundedRectangle|*
%AMROUNDEDRECTD17*
21,1,0.8100,0.2025,0,0,0.0*
21,1,0.7425,0.2700,0,0,0.0*
1,1,0.0675,0.3713,-0.1013*
1,1,0.0675,-0.3713,-0.1013*
1,1,0.0675,-0.3713,0.1013*
1,1,0.0675,0.3713,0.1013*
%
%ADD17ROUNDEDRECTD17*%
%ADD18O,0.4500X1.8000*%
%ADD19O,1.8000X0.4500*%
%ADD20C,0.7620*%
%ADD21R,0.9300X0.7900*%
%ADD22R,0.7900X0.9300*%
%ADD23R,0.9000X0.7500*%
%ADD24R,0.8000X0.8000*%
%ADD25R,0.9500X1.0000*%
%ADD26R,1.4400X1.8200*%
%ADD27R,1.8200X1.4400*%
%ADD28R,1.0000X0.9500*%
G36*
X498520Y506595D02*
X490940D01*
Y519245D01*
X498520D01*
Y506595D01*
D02*
G37*
D17*
X482730Y522920D02*
D03*
X506730Y502920D02*
D03*
X482730Y517920D02*
D03*
Y512920D02*
D03*
Y507920D02*
D03*
Y502920D02*
D03*
X506730Y507920D02*
D03*
Y512920D02*
D03*
Y517920D02*
D03*
Y522920D02*
D03*
D18*
X499740Y742800D02*
D03*
X493240D02*
D03*
X486740D02*
D03*
X480240D02*
D03*
X499740Y701300D02*
D03*
X493240D02*
D03*
X486740D02*
D03*
X480240D02*
D03*
X100960Y742800D02*
D03*
X94460D02*
D03*
X87960D02*
D03*
X81460D02*
D03*
X100960Y701300D02*
D03*
X94460D02*
D03*
X87960D02*
D03*
X81460D02*
D03*
X337180Y535910D02*
D03*
X330680D02*
D03*
X324180D02*
D03*
X317680D02*
D03*
X337180Y494410D02*
D03*
X330680D02*
D03*
X324180D02*
D03*
X317680D02*
D03*
X493390Y327510D02*
D03*
X486890D02*
D03*
X480390D02*
D03*
X473890D02*
D03*
X493390Y286010D02*
D03*
X486890D02*
D03*
X480390D02*
D03*
X473890D02*
D03*
X300350Y327510D02*
D03*
X293850D02*
D03*
X287350D02*
D03*
X280850D02*
D03*
X300350Y286010D02*
D03*
X293850D02*
D03*
X287350D02*
D03*
X280850D02*
D03*
X107310Y327510D02*
D03*
X100810D02*
D03*
X94310D02*
D03*
X87810D02*
D03*
X107310Y286010D02*
D03*
X100810D02*
D03*
X94310D02*
D03*
X87810D02*
D03*
X174620Y535790D02*
D03*
X168120D02*
D03*
X161620D02*
D03*
X155120D02*
D03*
X174620Y494290D02*
D03*
X168120D02*
D03*
X161620D02*
D03*
X155120D02*
D03*
D19*
X245260Y746120D02*
D03*
Y739620D02*
D03*
Y733120D02*
D03*
Y726620D02*
D03*
X286760Y746120D02*
D03*
Y739620D02*
D03*
Y733120D02*
D03*
Y726620D02*
D03*
D20*
X419100Y781050D02*
D03*
X207010Y665480D02*
D03*
X20320Y781050D02*
D03*
X251460Y563880D02*
D03*
X412750Y365760D02*
D03*
X219710D02*
D03*
X26670D02*
D03*
X93980Y574040D02*
D03*
X433070Y781050D02*
D03*
X199390Y683260D02*
D03*
X34290Y781050D02*
D03*
X270510Y574160D02*
D03*
X426720Y365760D02*
D03*
X233680D02*
D03*
X53340Y374650D02*
D03*
X107950Y574040D02*
D03*
X429260Y732790D02*
D03*
X255270Y675640D02*
D03*
X30480Y732790D02*
D03*
X266700Y525900D02*
D03*
X422910Y317500D02*
D03*
X229870D02*
D03*
X36830D02*
D03*
X104140Y525780D02*
D03*
X429260Y720598D02*
D03*
X267462Y675640D02*
D03*
X30480Y720598D02*
D03*
X266700Y513708D02*
D03*
X422910Y305308D02*
D03*
X229870D02*
D03*
X36830D02*
D03*
X104140Y513588D02*
D03*
D21*
X541250Y586200D02*
D03*
Y569800D02*
D03*
X448310Y404550D02*
D03*
Y420950D02*
D03*
X466090Y404550D02*
D03*
Y420950D02*
D03*
X462324Y489122D02*
D03*
Y505522D02*
D03*
Y521467D02*
D03*
Y537867D02*
D03*
X516660Y716390D02*
D03*
Y732790D02*
D03*
X117880Y716390D02*
D03*
Y732790D02*
D03*
X354100Y509500D02*
D03*
Y525900D02*
D03*
X510310Y301100D02*
D03*
Y317500D02*
D03*
X317270Y301100D02*
D03*
Y317500D02*
D03*
X124230Y301100D02*
D03*
Y317500D02*
D03*
X191540Y509380D02*
D03*
Y525780D02*
D03*
X516660Y683370D02*
D03*
Y699770D02*
D03*
X117880Y683370D02*
D03*
Y699770D02*
D03*
X354100Y476480D02*
D03*
Y492880D02*
D03*
X510310Y268080D02*
D03*
Y284480D02*
D03*
X317270Y268080D02*
D03*
Y284480D02*
D03*
X124230Y268080D02*
D03*
Y284480D02*
D03*
X191540Y476360D02*
D03*
Y492760D02*
D03*
X445540Y765810D02*
D03*
Y749410D02*
D03*
X46760Y765810D02*
D03*
Y749410D02*
D03*
X282980Y558920D02*
D03*
Y542520D02*
D03*
X439190Y350520D02*
D03*
Y334120D02*
D03*
X246150Y350520D02*
D03*
Y334120D02*
D03*
X53110Y350520D02*
D03*
Y334120D02*
D03*
X120420Y558800D02*
D03*
Y542400D02*
D03*
X463320Y765810D02*
D03*
Y749410D02*
D03*
X64540Y765810D02*
D03*
Y749410D02*
D03*
X300760Y558920D02*
D03*
Y542520D02*
D03*
X456970Y350520D02*
D03*
Y334120D02*
D03*
X263930Y350520D02*
D03*
Y334120D02*
D03*
X70890Y350520D02*
D03*
Y334120D02*
D03*
X138200Y558800D02*
D03*
Y542400D02*
D03*
X445540Y732790D02*
D03*
Y716390D02*
D03*
X46760Y732790D02*
D03*
Y716390D02*
D03*
X282980Y525900D02*
D03*
Y509500D02*
D03*
X439190Y317500D02*
D03*
Y301100D02*
D03*
X246150Y317500D02*
D03*
Y301100D02*
D03*
X53110Y317500D02*
D03*
Y301100D02*
D03*
X120420Y525780D02*
D03*
Y509380D02*
D03*
X319350Y744570D02*
D03*
Y728170D02*
D03*
X463320Y716390D02*
D03*
Y732790D02*
D03*
X64540Y716390D02*
D03*
Y732790D02*
D03*
X300760Y509500D02*
D03*
Y525900D02*
D03*
X456970Y301100D02*
D03*
Y317500D02*
D03*
X263930Y301100D02*
D03*
Y317500D02*
D03*
X70890Y301100D02*
D03*
Y317500D02*
D03*
X138200Y509380D02*
D03*
Y525780D02*
D03*
X463320Y683370D02*
D03*
Y699770D02*
D03*
X64540Y683370D02*
D03*
Y699770D02*
D03*
X300760Y476480D02*
D03*
Y492880D02*
D03*
X456970Y268080D02*
D03*
Y284480D02*
D03*
X263930Y268080D02*
D03*
Y284480D02*
D03*
X70890Y268080D02*
D03*
Y284480D02*
D03*
X138200Y476360D02*
D03*
Y492760D02*
D03*
D22*
X271670Y763040D02*
D03*
X255270D02*
D03*
X304690D02*
D03*
X288290D02*
D03*
X222250Y691920D02*
D03*
X238650D02*
D03*
X222250Y709700D02*
D03*
X238650D02*
D03*
X255270Y691920D02*
D03*
X271670D02*
D03*
X498190Y668710D02*
D03*
X481790D02*
D03*
X99410D02*
D03*
X83010D02*
D03*
X335630Y461820D02*
D03*
X319230D02*
D03*
X491840Y253420D02*
D03*
X475440D02*
D03*
X298800D02*
D03*
X282400D02*
D03*
X105760D02*
D03*
X89360D02*
D03*
X173070Y461700D02*
D03*
X156670D02*
D03*
X271670Y709700D02*
D03*
X255270D02*
D03*
X304690D02*
D03*
X288290D02*
D03*
D23*
X444880Y506060D02*
D03*
Y489060D02*
D03*
D24*
X526794Y585185D02*
D03*
Y569185D02*
D03*
X448310Y453770D02*
D03*
Y437770D02*
D03*
X466090Y453770D02*
D03*
Y437770D02*
D03*
D25*
X527050Y511690D02*
D03*
Y496690D02*
D03*
X444880Y538080D02*
D03*
Y523080D02*
D03*
X497610Y652080D02*
D03*
Y637080D02*
D03*
X98830Y652080D02*
D03*
Y637080D02*
D03*
X335050Y445190D02*
D03*
Y430190D02*
D03*
X491260Y236790D02*
D03*
Y221790D02*
D03*
X298220Y236790D02*
D03*
Y221790D02*
D03*
X105180Y236790D02*
D03*
Y221790D02*
D03*
X172490Y445070D02*
D03*
Y430070D02*
D03*
X443230Y684650D02*
D03*
Y699650D02*
D03*
X44450Y684650D02*
D03*
Y699650D02*
D03*
X280670Y477760D02*
D03*
Y492760D02*
D03*
X436880Y269360D02*
D03*
Y284360D02*
D03*
X243840Y269360D02*
D03*
Y284360D02*
D03*
X50800Y269360D02*
D03*
Y284360D02*
D03*
X118110Y477640D02*
D03*
Y492640D02*
D03*
X443230Y667900D02*
D03*
Y652900D02*
D03*
X44450Y667900D02*
D03*
Y652900D02*
D03*
X280670Y461010D02*
D03*
Y446010D02*
D03*
X436880Y252610D02*
D03*
Y237610D02*
D03*
X243840Y252610D02*
D03*
Y237610D02*
D03*
X50800Y252610D02*
D03*
Y237610D02*
D03*
X118110Y460890D02*
D03*
Y445890D02*
D03*
X481100Y652080D02*
D03*
Y637080D02*
D03*
X82320Y652080D02*
D03*
Y637080D02*
D03*
X318540Y445190D02*
D03*
Y430190D02*
D03*
X474750Y236790D02*
D03*
Y221790D02*
D03*
X281710Y236790D02*
D03*
Y221790D02*
D03*
X88670Y236790D02*
D03*
Y221790D02*
D03*
X155980Y445070D02*
D03*
Y430070D02*
D03*
D26*
X510372Y540761D02*
D03*
X483652D02*
D03*
X326389Y606418D02*
D03*
X353109D02*
D03*
X323190Y762000D02*
D03*
X349910D02*
D03*
X323190Y709930D02*
D03*
X349910D02*
D03*
D27*
X547370Y495910D02*
D03*
Y522630D02*
D03*
X515620Y664870D02*
D03*
Y638150D02*
D03*
X116840Y664870D02*
D03*
Y638150D02*
D03*
X353060Y457980D02*
D03*
Y431260D02*
D03*
X509270Y249580D02*
D03*
Y222860D02*
D03*
X316230Y249580D02*
D03*
Y222860D02*
D03*
X123190Y249580D02*
D03*
Y222860D02*
D03*
X190500Y457860D02*
D03*
Y431140D02*
D03*
X463550Y664870D02*
D03*
Y638150D02*
D03*
X64770Y664870D02*
D03*
Y638150D02*
D03*
X300990Y457980D02*
D03*
Y431260D02*
D03*
X457200Y249580D02*
D03*
Y222860D02*
D03*
X264160Y249580D02*
D03*
Y222860D02*
D03*
X71120Y249580D02*
D03*
Y222860D02*
D03*
X138430Y457860D02*
D03*
Y431140D02*
D03*
D28*
X352940Y624840D02*
D03*
X337940D02*
D03*
X335980Y743990D02*
D03*
X350980D02*
D03*
X303410Y689610D02*
D03*
X288410D02*
D03*
X320160D02*
D03*
X335160D02*
D03*
X335980Y727480D02*
D03*
X350980D02*
D03*
M02*
