G04*
G04 #@! TF.GenerationSoftware,Altium Limited,Altium Designer,25.2.1 (25)*
G04*
G04 Layer_Physical_Order=3*
G04 Layer_Color=6736896*
%FSLAX44Y44*%
%MOMM*%
G71*
G04*
G04 #@! TF.SameCoordinates,E2FE2EBA-6E3D-487F-A5DB-8B7D846EC262*
G04*
G04*
G04 #@! TF.FilePolarity,Positive*
G04*
G01*
G75*
%ADD15C,0.2540*%
%ADD28C,0.7620*%
%ADD45C,1.7018*%
%ADD50C,0.7620*%
%ADD51C,0.5080*%
%ADD52C,3.8100*%
%ADD53C,6.3500*%
%ADD55C,1.5240*%
G36*
X571500Y0D02*
X0D01*
Y812800D01*
X571500D01*
Y0D01*
D02*
G37*
%LPC*%
G36*
X257298Y807720D02*
X255782D01*
X254382Y807140D01*
X252730Y806347D01*
X251078Y807140D01*
X249678Y807720D01*
X248162D01*
X246762Y807140D01*
X245690Y806068D01*
X245110Y804668D01*
Y803152D01*
X245690Y801752D01*
X246762Y800680D01*
X248162Y800100D01*
X249678D01*
X251078Y800680D01*
X252730Y801473D01*
X254382Y800680D01*
X255782Y800100D01*
X257298D01*
X258698Y800680D01*
X259770Y801752D01*
X260350Y803152D01*
Y804668D01*
X259770Y806068D01*
X258698Y807140D01*
X257298Y807720D01*
D02*
G37*
G36*
X556383Y800100D02*
X554867D01*
X553467Y799520D01*
X552395Y798448D01*
X551815Y797048D01*
Y795532D01*
X552395Y794132D01*
X553467Y793060D01*
X554867Y792480D01*
X556383D01*
X557783Y793060D01*
X558855Y794132D01*
X559435Y795532D01*
Y797048D01*
X558855Y798448D01*
X557783Y799520D01*
X556383Y800100D01*
D02*
G37*
G36*
X537333D02*
X535817D01*
X534417Y799520D01*
X533345Y798448D01*
X532765Y797048D01*
Y795532D01*
X533345Y794132D01*
X534417Y793060D01*
X535817Y792480D01*
X537333D01*
X538733Y793060D01*
X539805Y794132D01*
X540385Y795532D01*
Y797048D01*
X539805Y798448D01*
X538733Y799520D01*
X537333Y800100D01*
D02*
G37*
G36*
X499233D02*
X497717D01*
X496317Y799520D01*
X495245Y798448D01*
X494665Y797048D01*
Y795532D01*
X495245Y794132D01*
X496317Y793060D01*
X497717Y792480D01*
X499233D01*
X500633Y793060D01*
X501705Y794132D01*
X502285Y795532D01*
Y797048D01*
X501705Y798448D01*
X500633Y799520D01*
X499233Y800100D01*
D02*
G37*
G36*
X480183D02*
X478667D01*
X477267Y799520D01*
X476195Y798448D01*
X475615Y797048D01*
Y795532D01*
X476195Y794132D01*
X477267Y793060D01*
X478667Y792480D01*
X480183D01*
X481583Y793060D01*
X482655Y794132D01*
X483235Y795532D01*
Y797048D01*
X482655Y798448D01*
X481583Y799520D01*
X480183Y800100D01*
D02*
G37*
G36*
X442083D02*
X440567D01*
X439167Y799520D01*
X438095Y798448D01*
X437515Y797048D01*
Y795532D01*
X438095Y794132D01*
X439167Y793060D01*
X440567Y792480D01*
X442083D01*
X443483Y793060D01*
X444555Y794132D01*
X445135Y795532D01*
Y797048D01*
X444555Y798448D01*
X443483Y799520D01*
X442083Y800100D01*
D02*
G37*
G36*
X423033D02*
X421517D01*
X420117Y799520D01*
X419045Y798448D01*
X418465Y797048D01*
Y795532D01*
X419045Y794132D01*
X420117Y793060D01*
X421517Y792480D01*
X423033D01*
X424433Y793060D01*
X425505Y794132D01*
X426085Y795532D01*
Y797048D01*
X425505Y798448D01*
X424433Y799520D01*
X423033Y800100D01*
D02*
G37*
G36*
X384933D02*
X383417D01*
X382017Y799520D01*
X380945Y798448D01*
X380365Y797048D01*
Y795532D01*
X380945Y794132D01*
X382017Y793060D01*
X383417Y792480D01*
X384933D01*
X386333Y793060D01*
X387405Y794132D01*
X387985Y795532D01*
Y797048D01*
X387405Y798448D01*
X386333Y799520D01*
X384933Y800100D01*
D02*
G37*
G36*
X365883D02*
X364367D01*
X362967Y799520D01*
X361895Y798448D01*
X361315Y797048D01*
Y795532D01*
X361895Y794132D01*
X362967Y793060D01*
X364367Y792480D01*
X365883D01*
X367283Y793060D01*
X368355Y794132D01*
X368935Y795532D01*
Y797048D01*
X368355Y798448D01*
X367283Y799520D01*
X365883Y800100D01*
D02*
G37*
G36*
X346833D02*
X345317D01*
X343917Y799520D01*
X342845Y798448D01*
X342265Y797048D01*
Y795532D01*
X342845Y794132D01*
X343917Y793060D01*
X345317Y792480D01*
X346833D01*
X348233Y793060D01*
X349305Y794132D01*
X349885Y795532D01*
Y797048D01*
X349305Y798448D01*
X348233Y799520D01*
X346833Y800100D01*
D02*
G37*
G36*
X327783D02*
X326267D01*
X324867Y799520D01*
X323795Y798448D01*
X323215Y797048D01*
Y795532D01*
X323795Y794132D01*
X324867Y793060D01*
X326267Y792480D01*
X327783D01*
X329183Y793060D01*
X330255Y794132D01*
X330835Y795532D01*
Y797048D01*
X330255Y798448D01*
X329183Y799520D01*
X327783Y800100D01*
D02*
G37*
G36*
X194433D02*
X192917D01*
X191517Y799520D01*
X190445Y798448D01*
X189865Y797048D01*
Y795532D01*
X190445Y794132D01*
X191517Y793060D01*
X192917Y792480D01*
X194433D01*
X195833Y793060D01*
X196905Y794132D01*
X197485Y795532D01*
Y797048D01*
X196905Y798448D01*
X195833Y799520D01*
X194433Y800100D01*
D02*
G37*
G36*
X22983D02*
X21467D01*
X20067Y799520D01*
X18995Y798448D01*
X18415Y797048D01*
Y795532D01*
X18995Y794132D01*
X20067Y793060D01*
X21467Y792480D01*
X22983D01*
X24383Y793060D01*
X25455Y794132D01*
X26035Y795532D01*
Y797048D01*
X25455Y798448D01*
X24383Y799520D01*
X22983Y800100D01*
D02*
G37*
G36*
X464308Y792480D02*
X462792D01*
X461392Y791900D01*
X460320Y790828D01*
X459740Y789428D01*
Y787912D01*
X460320Y786512D01*
X461392Y785440D01*
X462792Y784860D01*
X464308D01*
X465708Y785440D01*
X466780Y786512D01*
X467360Y787912D01*
Y789428D01*
X466780Y790828D01*
X465708Y791900D01*
X464308Y792480D01*
D02*
G37*
G36*
X289683Y800100D02*
X288167D01*
X286767Y799520D01*
X285695Y798448D01*
X285115Y797048D01*
Y795532D01*
X285695Y794132D01*
X286767Y793060D01*
X287292Y792842D01*
X288287Y791573D01*
X288502Y789940D01*
X288290Y789428D01*
Y787912D01*
X288870Y786512D01*
X289942Y785440D01*
X291342Y784860D01*
X292858D01*
X294258Y785440D01*
X295330Y786512D01*
X295910Y787912D01*
Y789428D01*
X295330Y790828D01*
X294258Y791900D01*
X293733Y792118D01*
X292738Y793387D01*
X292523Y795020D01*
X292735Y795532D01*
Y797048D01*
X292155Y798448D01*
X291083Y799520D01*
X289683Y800100D01*
D02*
G37*
G36*
X65528Y792480D02*
X64012D01*
X62612Y791900D01*
X61540Y790828D01*
X60960Y789428D01*
Y787912D01*
X61540Y786512D01*
X62612Y785440D01*
X64012Y784860D01*
X65528D01*
X66928Y785440D01*
X68000Y786512D01*
X68580Y787912D01*
Y789428D01*
X68000Y790828D01*
X66928Y791900D01*
X65528Y792480D01*
D02*
G37*
G36*
X532308Y789360D02*
X530792D01*
X529392Y788780D01*
X528320Y787708D01*
X527740Y786308D01*
Y784792D01*
X528320Y783392D01*
X529392Y782320D01*
X530792Y781740D01*
X532308D01*
X533708Y782320D01*
X534780Y783392D01*
X535360Y784792D01*
Y786308D01*
X534780Y787708D01*
X533708Y788780D01*
X532308Y789360D01*
D02*
G37*
G36*
X133528D02*
X132012D01*
X130612Y788780D01*
X129540Y787708D01*
X128960Y786308D01*
Y784792D01*
X129540Y783392D01*
X130612Y782320D01*
X132012Y781740D01*
X133528D01*
X134928Y782320D01*
X136000Y783392D01*
X136580Y784792D01*
Y786308D01*
X136000Y787708D01*
X134928Y788780D01*
X133528Y789360D01*
D02*
G37*
G36*
X446528Y782320D02*
X445012D01*
X443612Y781740D01*
X442540Y780668D01*
X441960Y779268D01*
Y777752D01*
X442540Y776352D01*
X443612Y775280D01*
X445012Y774700D01*
X446528D01*
X447928Y775280D01*
X449000Y776352D01*
X449580Y777752D01*
Y779268D01*
X449000Y780668D01*
X447928Y781740D01*
X446528Y782320D01*
D02*
G37*
G36*
X47748D02*
X46232D01*
X44832Y781740D01*
X43760Y780668D01*
X43180Y779268D01*
Y777752D01*
X43760Y776352D01*
X44832Y775280D01*
X46232Y774700D01*
X47748D01*
X49148Y775280D01*
X50220Y776352D01*
X50800Y777752D01*
Y779268D01*
X50220Y780668D01*
X49148Y781740D01*
X47748Y782320D01*
D02*
G37*
G36*
X203268Y781740D02*
X201752D01*
X200352Y781160D01*
X199280Y780088D01*
X198700Y778688D01*
Y777172D01*
X199280Y775772D01*
X200352Y774700D01*
X201752Y774120D01*
X203268D01*
X204668Y774700D01*
X205740Y775772D01*
X206320Y777172D01*
Y778688D01*
X205740Y780088D01*
X204668Y781160D01*
X203268Y781740D01*
D02*
G37*
G36*
X394458Y781050D02*
X392942D01*
X391542Y780470D01*
X390470Y779398D01*
X389890Y777998D01*
Y776482D01*
X390470Y775082D01*
X391542Y774010D01*
X392942Y773430D01*
X394458D01*
X395858Y774010D01*
X396930Y775082D01*
X397510Y776482D01*
Y777998D01*
X396930Y779398D01*
X395858Y780470D01*
X394458Y781050D01*
D02*
G37*
G36*
X375408D02*
X373892D01*
X372492Y780470D01*
X371420Y779398D01*
X370840Y777998D01*
Y776482D01*
X371420Y775082D01*
X372492Y774010D01*
X373892Y773430D01*
X375408D01*
X376808Y774010D01*
X377880Y775082D01*
X378460Y776482D01*
Y777998D01*
X377880Y779398D01*
X376808Y780470D01*
X375408Y781050D01*
D02*
G37*
G36*
X356358D02*
X354842D01*
X353442Y780470D01*
X352370Y779398D01*
X351790Y777998D01*
Y776482D01*
X352370Y775082D01*
X353442Y774010D01*
X354842Y773430D01*
X356358D01*
X357758Y774010D01*
X358830Y775082D01*
X359410Y776482D01*
Y777998D01*
X358830Y779398D01*
X357758Y780470D01*
X356358Y781050D01*
D02*
G37*
G36*
X330958Y786130D02*
X329442D01*
X328042Y785550D01*
X326970Y784478D01*
X326390Y783078D01*
Y781562D01*
X326970Y780162D01*
X328042Y779090D01*
X329442Y778510D01*
X330393D01*
X331093Y778357D01*
X332740Y776499D01*
Y776482D01*
X333320Y775082D01*
X334392Y774010D01*
X335792Y773430D01*
X337308D01*
X338708Y774010D01*
X339780Y775082D01*
X340360Y776482D01*
Y777998D01*
X339780Y779398D01*
X338708Y780470D01*
X337308Y781050D01*
X336357D01*
X335657Y781203D01*
X334010Y783061D01*
Y783078D01*
X333430Y784478D01*
X332358Y785550D01*
X330958Y786130D01*
D02*
G37*
G36*
X299208Y781050D02*
X297692D01*
X296292Y780470D01*
X295220Y779398D01*
X294640Y777998D01*
Y776482D01*
X295220Y775082D01*
X296292Y774010D01*
X297692Y773430D01*
X299208D01*
X300608Y774010D01*
X301680Y775082D01*
X302260Y776482D01*
Y777998D01*
X301680Y779398D01*
X300608Y780470D01*
X299208Y781050D01*
D02*
G37*
G36*
X165858D02*
X164342D01*
X162942Y780470D01*
X161870Y779398D01*
X161290Y777998D01*
Y776482D01*
X161870Y775082D01*
X162942Y774010D01*
X164342Y773430D01*
X165858D01*
X167258Y774010D01*
X168330Y775082D01*
X168910Y776482D01*
Y777998D01*
X168330Y779398D01*
X167258Y780470D01*
X165858Y781050D01*
D02*
G37*
G36*
X13458D02*
X11942D01*
X10542Y780470D01*
X9470Y779398D01*
X8890Y777998D01*
Y776482D01*
X9470Y775082D01*
X10542Y774010D01*
X11942Y773430D01*
X13458D01*
X14858Y774010D01*
X15930Y775082D01*
X16510Y776482D01*
Y777998D01*
X15930Y779398D01*
X14858Y780470D01*
X13458Y781050D01*
D02*
G37*
G36*
X423668Y765810D02*
X422152D01*
X420752Y765230D01*
X419906Y764384D01*
X418465Y764261D01*
X417024Y764384D01*
X416178Y765230D01*
X414778Y765810D01*
X413262D01*
X411862Y765230D01*
X410790Y764158D01*
X410210Y762758D01*
Y761242D01*
X410790Y759842D01*
X411862Y758770D01*
X413262Y758190D01*
X414778D01*
X416178Y758770D01*
X417024Y759616D01*
X418465Y759738D01*
X419906Y759616D01*
X420752Y758770D01*
X422152Y758190D01*
X423668D01*
X425068Y758770D01*
X426140Y759842D01*
X426720Y761242D01*
Y762758D01*
X426140Y764158D01*
X425068Y765230D01*
X423668Y765810D01*
D02*
G37*
G36*
X24888D02*
X23372D01*
X21972Y765230D01*
X21126Y764384D01*
X19685Y764261D01*
X18244Y764384D01*
X17398Y765230D01*
X15998Y765810D01*
X14482D01*
X13082Y765230D01*
X12010Y764158D01*
X11430Y762758D01*
Y761242D01*
X12010Y759842D01*
X13082Y758770D01*
X14482Y758190D01*
X15998D01*
X17398Y758770D01*
X18244Y759616D01*
X19685Y759738D01*
X21126Y759616D01*
X21972Y758770D01*
X23372Y758190D01*
X24888D01*
X26288Y758770D01*
X27360Y759842D01*
X27940Y761242D01*
Y762758D01*
X27360Y764158D01*
X26288Y765230D01*
X24888Y765810D01*
D02*
G37*
G36*
X487168Y770890D02*
X485652D01*
X484252Y770310D01*
X483180Y769238D01*
X482600Y767838D01*
Y766322D01*
X483180Y764922D01*
X484252Y763850D01*
X485652Y763270D01*
X487168D01*
X488568Y763850D01*
X489640Y764922D01*
X490220Y766322D01*
Y767838D01*
X489640Y769238D01*
X488568Y770310D01*
X487168Y770890D01*
D02*
G37*
G36*
X88388D02*
X86872D01*
X85472Y770310D01*
X84400Y769238D01*
X83820Y767838D01*
Y766322D01*
X84400Y764922D01*
X85472Y763850D01*
X86872Y763270D01*
X88388D01*
X89788Y763850D01*
X90860Y764922D01*
X91440Y766322D01*
Y767838D01*
X90860Y769238D01*
X89788Y770310D01*
X88388Y770890D01*
D02*
G37*
G36*
X433828Y764540D02*
X432312D01*
X430912Y763960D01*
X429840Y762888D01*
X429260Y761488D01*
Y759972D01*
X429840Y758572D01*
X430912Y757500D01*
X432312Y756920D01*
X433828D01*
X435228Y757500D01*
X436300Y758572D01*
X436880Y759972D01*
Y761488D01*
X436300Y762888D01*
X435228Y763960D01*
X433828Y764540D01*
D02*
G37*
G36*
X35048D02*
X33532D01*
X32132Y763960D01*
X31060Y762888D01*
X30480Y761488D01*
Y759972D01*
X31060Y758572D01*
X32132Y757500D01*
X33532Y756920D01*
X35048D01*
X36448Y757500D01*
X37520Y758572D01*
X38100Y759972D01*
Y761488D01*
X37520Y762888D01*
X36448Y763960D01*
X35048Y764540D01*
D02*
G37*
G36*
X297938Y756920D02*
X296422D01*
X295022Y756340D01*
X293370Y755547D01*
X291718Y756340D01*
X290318Y756920D01*
X288802D01*
X287402Y756340D01*
X285750Y755547D01*
X284098Y756340D01*
X282698Y756920D01*
X281182D01*
X279782Y756340D01*
X278130Y755547D01*
X276478Y756340D01*
X275078Y756920D01*
X273562D01*
X272162Y756340D01*
X271090Y755268D01*
X268858Y755070D01*
X267458Y755650D01*
X265942D01*
X264542Y755070D01*
X263495Y754023D01*
X262946Y753971D01*
X260984Y753868D01*
X259748Y754380D01*
X258232D01*
X256832Y753800D01*
X255760Y752728D01*
X255180Y751328D01*
Y749812D01*
X255760Y748412D01*
X256832Y747340D01*
X258232Y746760D01*
X259748D01*
X261148Y747340D01*
X262195Y748387D01*
X262744Y748439D01*
X264365Y748524D01*
X266700Y747272D01*
X267280Y745872D01*
X268352Y744800D01*
X269752Y744220D01*
X271268D01*
X272668Y744800D01*
X273740Y745872D01*
X274320Y747272D01*
Y748788D01*
X276478Y749880D01*
X278130Y750673D01*
X279782Y749880D01*
X281182Y749300D01*
X282698D01*
X284098Y749880D01*
X285750Y750673D01*
X287402Y749880D01*
X288802Y749300D01*
X290318D01*
X291718Y749880D01*
X293370Y750673D01*
X295022Y749880D01*
X296422Y749300D01*
X297938D01*
X299338Y749880D01*
X300410Y750952D01*
X300990Y752352D01*
Y753868D01*
X300410Y755268D01*
X299338Y756340D01*
X297938Y756920D01*
D02*
G37*
G36*
X384933Y762000D02*
X383417D01*
X382017Y761420D01*
X380945Y760348D01*
X380365Y758948D01*
Y757432D01*
X380945Y756032D01*
X382017Y754960D01*
X383417Y754380D01*
X384933D01*
X386333Y754960D01*
X387405Y756032D01*
X387985Y757432D01*
Y758948D01*
X387405Y760348D01*
X386333Y761420D01*
X384933Y762000D01*
D02*
G37*
G36*
X194433D02*
X192917D01*
X191517Y761420D01*
X190445Y760348D01*
X189865Y758948D01*
Y757432D01*
X190445Y756032D01*
X191517Y754960D01*
X192917Y754380D01*
X194433D01*
X195833Y754960D01*
X196905Y756032D01*
X197485Y757432D01*
Y758948D01*
X196905Y760348D01*
X195833Y761420D01*
X194433Y762000D01*
D02*
G37*
G36*
X372868Y746760D02*
X371352D01*
X369952Y746180D01*
X368880Y745108D01*
X368300Y743708D01*
Y742192D01*
X368880Y740792D01*
X369952Y739720D01*
X371352Y739140D01*
X372868D01*
X374268Y739720D01*
X375340Y740792D01*
X375920Y742192D01*
Y743708D01*
X375340Y745108D01*
X374268Y746180D01*
X372868Y746760D01*
D02*
G37*
G36*
X13458Y742950D02*
X11942D01*
X10542Y742370D01*
X9470Y741298D01*
X8890Y739898D01*
Y738382D01*
X9470Y736982D01*
X10542Y735910D01*
X11942Y735330D01*
X13458D01*
X14858Y735910D01*
X15930Y736982D01*
X16510Y738382D01*
Y739898D01*
X15930Y741298D01*
X14858Y742370D01*
X13458Y742950D01*
D02*
G37*
G36*
X165858D02*
X164342D01*
X162942Y742370D01*
X161870Y741298D01*
X161290Y739898D01*
Y738382D01*
X160532Y736600D01*
X159132Y736020D01*
X157480Y735227D01*
X155828Y736020D01*
X154428Y736600D01*
X152912D01*
X151512Y736020D01*
X150440Y734948D01*
X149860Y733548D01*
Y732032D01*
X150440Y730632D01*
X151512Y729560D01*
X152912Y728980D01*
X154428D01*
X155828Y729560D01*
X157480Y730353D01*
X159132Y729560D01*
X160532Y728980D01*
X162048D01*
X163448Y729560D01*
X164520Y730632D01*
X165100Y732032D01*
Y733548D01*
X165858Y735330D01*
X167258Y735910D01*
X168330Y736982D01*
X168910Y738382D01*
Y739898D01*
X168330Y741298D01*
X167258Y742370D01*
X165858Y742950D01*
D02*
G37*
G36*
X221738Y736600D02*
X220222D01*
X218822Y736020D01*
X217750Y734948D01*
X217170Y733548D01*
Y732032D01*
X217750Y730632D01*
X218822Y729560D01*
X220222Y728980D01*
X221738D01*
X223138Y729560D01*
X224210Y730632D01*
X224790Y732032D01*
Y733548D01*
X224210Y734948D01*
X223138Y736020D01*
X221738Y736600D01*
D02*
G37*
G36*
X372868Y731520D02*
X371352D01*
X369952Y730940D01*
X368880Y729868D01*
X368300Y728468D01*
Y726952D01*
X368880Y725552D01*
X369952Y724480D01*
X371352Y723900D01*
X372868D01*
X374268Y724480D01*
X375340Y725552D01*
X375920Y726952D01*
Y728468D01*
X375340Y729868D01*
X374268Y730940D01*
X372868Y731520D01*
D02*
G37*
G36*
X559558Y736600D02*
X558042D01*
X556642Y736020D01*
X555570Y734948D01*
X554990Y733548D01*
Y732032D01*
X555570Y730632D01*
X556363Y728980D01*
X555570Y727328D01*
X554990Y725928D01*
Y724412D01*
X555570Y723012D01*
X556642Y721940D01*
X558042Y721360D01*
X559558D01*
X560958Y721940D01*
X562030Y723012D01*
X562610Y724412D01*
Y725928D01*
X562030Y727328D01*
X561237Y728980D01*
X562030Y730632D01*
X562610Y732032D01*
Y733548D01*
X562030Y734948D01*
X560958Y736020D01*
X559558Y736600D01*
D02*
G37*
G36*
X156333Y723900D02*
X154817D01*
X153417Y723320D01*
X152345Y722248D01*
X151765Y720848D01*
Y719332D01*
X152345Y717932D01*
X153417Y716860D01*
X154817Y716280D01*
X156333D01*
X157733Y716860D01*
X158805Y717932D01*
X159385Y719332D01*
Y720848D01*
X158805Y722248D01*
X157733Y723320D01*
X156333Y723900D01*
D02*
G37*
G36*
X281428Y722630D02*
X279912D01*
X278512Y722050D01*
X277440Y720978D01*
X276860Y719578D01*
Y718062D01*
X277440Y716662D01*
X278512Y715590D01*
X279912Y715010D01*
X281428D01*
X282828Y715590D01*
X283900Y716662D01*
X284480Y718062D01*
Y719578D01*
X283900Y720978D01*
X282828Y722050D01*
X281428Y722630D01*
D02*
G37*
G36*
X473198Y711200D02*
X471682D01*
X470282Y710620D01*
X469210Y709548D01*
X468630Y708148D01*
Y706632D01*
X469210Y705232D01*
X470282Y704160D01*
X471682Y703580D01*
X473198D01*
X474598Y704160D01*
X475670Y705232D01*
X476250Y706632D01*
Y708148D01*
X475670Y709548D01*
X474598Y710620D01*
X473198Y711200D01*
D02*
G37*
G36*
X74418D02*
X72902D01*
X71502Y710620D01*
X70430Y709548D01*
X69850Y708148D01*
Y706632D01*
X70430Y705232D01*
X71502Y704160D01*
X72902Y703580D01*
X74418D01*
X75818Y704160D01*
X76890Y705232D01*
X77470Y706632D01*
Y708148D01*
X76890Y709548D01*
X75818Y710620D01*
X74418Y711200D01*
D02*
G37*
G36*
X310638Y703580D02*
X309122D01*
X307722Y703000D01*
X306650Y701928D01*
X304418Y701730D01*
X303018Y702310D01*
X301502D01*
X300102Y701730D01*
X299030Y700658D01*
X298450Y699258D01*
Y697742D01*
X299030Y696342D01*
X300102Y695270D01*
X301502Y694690D01*
X303018D01*
X304418Y695270D01*
X305490Y696342D01*
X307722Y696540D01*
X309122Y695960D01*
X310638D01*
X312038Y696540D01*
X313110Y697612D01*
X313690Y699012D01*
Y700528D01*
X313110Y701928D01*
X312038Y703000D01*
X310638Y703580D01*
D02*
G37*
G36*
X200148Y713740D02*
X198632D01*
X197232Y713160D01*
X196160Y712088D01*
X195580Y710688D01*
Y709172D01*
X196160Y707772D01*
X197232Y706700D01*
X198632Y706120D01*
X199376D01*
X200496Y703724D01*
X199970Y703198D01*
X199390Y701798D01*
Y700282D01*
X199970Y698882D01*
X201042Y697810D01*
X202442Y697230D01*
X203958D01*
X205358Y697810D01*
X206430Y698882D01*
X207010Y700282D01*
Y701798D01*
X206430Y703198D01*
X205358Y704270D01*
X203958Y704850D01*
X203214D01*
X202094Y707246D01*
X202620Y707772D01*
X203200Y709172D01*
Y710688D01*
X202620Y712088D01*
X201548Y713160D01*
X200148Y713740D01*
D02*
G37*
G36*
X165858Y704850D02*
X164342D01*
X162942Y704270D01*
X161870Y703198D01*
X161290Y701798D01*
Y700282D01*
X161870Y698882D01*
X162942Y697810D01*
X164342Y697230D01*
X165858D01*
X167258Y697810D01*
X168330Y698882D01*
X168910Y700282D01*
Y701798D01*
X168330Y703198D01*
X167258Y704270D01*
X165858Y704850D01*
D02*
G37*
G36*
X13458D02*
X11942D01*
X10542Y704270D01*
X9470Y703198D01*
X8890Y701798D01*
Y700282D01*
X9470Y698882D01*
X10542Y697810D01*
X11942Y697230D01*
X13458D01*
X14858Y697810D01*
X15930Y698882D01*
X16510Y700282D01*
Y701798D01*
X15930Y703198D01*
X14858Y704270D01*
X13458Y704850D01*
D02*
G37*
G36*
X543048Y699770D02*
X541532D01*
X540132Y699190D01*
X539060Y698118D01*
X538480Y696718D01*
Y695202D01*
X539060Y693802D01*
X540132Y692730D01*
X541532Y692150D01*
X543048D01*
X544448Y692730D01*
X545520Y693802D01*
X546100Y695202D01*
Y696718D01*
X545520Y698118D01*
X544448Y699190D01*
X543048Y699770D01*
D02*
G37*
G36*
X144268D02*
X142752D01*
X141352Y699190D01*
X140280Y698118D01*
X139700Y696718D01*
Y695202D01*
X140280Y693802D01*
X141352Y692730D01*
X142752Y692150D01*
X144268D01*
X145668Y692730D01*
X146740Y693802D01*
X147320Y695202D01*
Y696718D01*
X146740Y698118D01*
X145668Y699190D01*
X144268Y699770D01*
D02*
G37*
G36*
X504948Y732880D02*
X503432D01*
X502032Y732300D01*
X500960Y731228D01*
X500380Y729828D01*
Y728312D01*
X500960Y726912D01*
X502032Y725840D01*
X502211Y724937D01*
X501107Y722630D01*
X500892D01*
X499492Y722050D01*
X498420Y720978D01*
X497840Y719578D01*
Y718062D01*
X498420Y716662D01*
X499492Y715590D01*
X500892Y715010D01*
X502408D01*
X503500Y712852D01*
X504293Y711200D01*
X503500Y709548D01*
X502920Y708148D01*
Y706632D01*
X503500Y705232D01*
X504293Y703580D01*
X503500Y701928D01*
X502920Y700528D01*
Y699012D01*
X503500Y697612D01*
X504346Y696766D01*
X504468Y695325D01*
X504346Y693884D01*
X503500Y693038D01*
X502920Y691638D01*
Y690122D01*
X503500Y688722D01*
X504572Y687650D01*
X505972Y687070D01*
X507488D01*
X508888Y687650D01*
X509960Y688722D01*
X510540Y690122D01*
Y691638D01*
X509960Y693038D01*
X509114Y693884D01*
X508992Y695325D01*
X509114Y696766D01*
X509960Y697612D01*
X510540Y699012D01*
Y700528D01*
X509960Y701928D01*
X509167Y703580D01*
X509960Y705232D01*
X510540Y706632D01*
Y708148D01*
X509960Y709548D01*
X509167Y711200D01*
X509960Y712852D01*
X510540Y714252D01*
Y715768D01*
X509960Y717168D01*
X508888Y718240D01*
X508690Y720472D01*
X509270Y721872D01*
Y723388D01*
X508690Y724788D01*
X507618Y725860D01*
X507411Y726903D01*
X507420Y726912D01*
X508000Y728312D01*
Y729828D01*
X507420Y731228D01*
X506348Y732300D01*
X504948Y732880D01*
D02*
G37*
G36*
X106168D02*
X104652D01*
X103252Y732300D01*
X102180Y731228D01*
X101600Y729828D01*
Y728312D01*
X102180Y726912D01*
X103252Y725840D01*
X103459Y724798D01*
X103450Y724788D01*
X102870Y723388D01*
Y721872D01*
X100712Y720780D01*
X99640Y719708D01*
X99060Y718308D01*
Y716792D01*
X99640Y715392D01*
X100712Y714320D01*
X102112Y713740D01*
X103628D01*
X104720Y711582D01*
X105513Y709930D01*
X104720Y708278D01*
X104140Y706878D01*
Y705362D01*
X104720Y703962D01*
X105513Y702310D01*
X104720Y700658D01*
X104140Y699258D01*
Y697742D01*
X104720Y696342D01*
X105513Y694690D01*
X104720Y693038D01*
X104140Y691638D01*
Y690122D01*
X104720Y688722D01*
X105792Y687650D01*
X107192Y687070D01*
X108708D01*
X110108Y687650D01*
X111180Y688722D01*
X111760Y690122D01*
Y691638D01*
X111180Y693038D01*
X110387Y694690D01*
X111180Y696342D01*
X111760Y697742D01*
Y699258D01*
X111180Y700658D01*
X110387Y702310D01*
X111180Y703962D01*
X111760Y705362D01*
Y706878D01*
X111180Y708278D01*
X110387Y709930D01*
X111180Y711582D01*
X111760Y712982D01*
Y714498D01*
X111180Y715898D01*
X110108Y716970D01*
X109838Y717082D01*
X109549Y717754D01*
X109335Y719897D01*
X109910Y720472D01*
X110490Y721872D01*
Y723388D01*
X109910Y724788D01*
X108838Y725860D01*
X108631Y726903D01*
X108640Y726912D01*
X109220Y728312D01*
Y729828D01*
X108640Y731228D01*
X107568Y732300D01*
X106168Y732880D01*
D02*
G37*
G36*
X384933Y685800D02*
X383417D01*
X382017Y685220D01*
X380945Y684148D01*
X380365Y682748D01*
Y682442D01*
X378101Y680710D01*
X378018Y680691D01*
X377948Y680720D01*
X376432D01*
X375032Y680140D01*
X373960Y679068D01*
X373380Y677668D01*
Y676152D01*
X373960Y674752D01*
X374076Y674510D01*
X373941Y673969D01*
X371728Y672520D01*
X370328Y673100D01*
X368812D01*
X367412Y672520D01*
X366340Y671448D01*
X365760Y670048D01*
Y668532D01*
X366340Y667132D01*
X367412Y666060D01*
X368812Y665480D01*
X370328D01*
X371728Y666060D01*
X373380Y666853D01*
X375032Y666060D01*
X376432Y665480D01*
X377948D01*
X379348Y666060D01*
X380420Y667132D01*
X381000Y668532D01*
Y670048D01*
X380420Y671448D01*
X379627Y673100D01*
X380420Y674752D01*
X381000Y676152D01*
Y676458D01*
X383264Y678190D01*
X383347Y678209D01*
X383417Y678180D01*
X384933D01*
X386333Y678760D01*
X387405Y679832D01*
X387985Y681232D01*
Y682748D01*
X387405Y684148D01*
X386333Y685220D01*
X384933Y685800D01*
D02*
G37*
G36*
X228088Y683260D02*
X226572D01*
X225172Y682680D01*
X224100Y681608D01*
X223520Y680208D01*
Y678692D01*
X224100Y677292D01*
X225172Y676220D01*
X226572Y675640D01*
X228088D01*
X229488Y676220D01*
X230560Y677292D01*
X231140Y678692D01*
Y680208D01*
X230560Y681608D01*
X229488Y682680D01*
X228088Y683260D01*
D02*
G37*
G36*
X452878Y689610D02*
X451362D01*
X449962Y689030D01*
X448890Y687958D01*
X448310Y686558D01*
Y685042D01*
X448890Y683642D01*
X449962Y682570D01*
X450160Y680338D01*
X449580Y678938D01*
Y677422D01*
X450160Y676022D01*
X451232Y674950D01*
X452632Y674370D01*
X454148D01*
X455548Y674950D01*
X456620Y676022D01*
X457200Y677422D01*
Y678938D01*
X456620Y680338D01*
X455548Y681410D01*
X455350Y683642D01*
X455930Y685042D01*
Y686558D01*
X455350Y687958D01*
X454278Y689030D01*
X452878Y689610D01*
D02*
G37*
G36*
X54098D02*
X52582D01*
X51182Y689030D01*
X50110Y687958D01*
X49530Y686558D01*
Y685042D01*
X50110Y683642D01*
X51182Y682570D01*
X51380Y680338D01*
X50800Y678938D01*
Y677422D01*
X51380Y676022D01*
X52452Y674950D01*
X53852Y674370D01*
X55368D01*
X56768Y674950D01*
X57840Y676022D01*
X58420Y677422D01*
Y678938D01*
X57840Y680338D01*
X56768Y681410D01*
X56570Y683642D01*
X57150Y685042D01*
Y686558D01*
X56570Y687958D01*
X55498Y689030D01*
X54098Y689610D01*
D02*
G37*
G36*
X210308Y695960D02*
X208792D01*
X207392Y695380D01*
X206320Y694308D01*
X205740Y692908D01*
Y691392D01*
X206320Y689992D01*
X207166Y689146D01*
X207288Y687705D01*
X207166Y686264D01*
X206320Y685418D01*
X205740Y684018D01*
Y682502D01*
X206320Y681102D01*
X207166Y680256D01*
X207288Y678815D01*
X207166Y677374D01*
X206320Y676528D01*
X205740Y675128D01*
Y673612D01*
X206320Y672212D01*
X207392Y671140D01*
X208792Y670560D01*
X210308D01*
X211708Y671140D01*
X212780Y672212D01*
X213360Y673612D01*
Y675128D01*
X212780Y676528D01*
X211934Y677374D01*
X211812Y678815D01*
X211934Y680256D01*
X212780Y681102D01*
X213360Y682502D01*
Y684018D01*
X212780Y685418D01*
X211934Y686264D01*
X211812Y687705D01*
X211934Y689146D01*
X212780Y689992D01*
X213360Y691392D01*
Y692908D01*
X212780Y694308D01*
X211708Y695380D01*
X210308Y695960D01*
D02*
G37*
G36*
X146808Y666750D02*
X145292D01*
X143892Y666170D01*
X142820Y665098D01*
X142240Y663698D01*
X142240Y662732D01*
X140329Y660806D01*
X139487Y661033D01*
X139318Y661090D01*
X138701Y661346D01*
X137918Y661670D01*
X136402D01*
X135002Y661090D01*
X133930Y660018D01*
X133350Y658618D01*
Y657102D01*
X133930Y655702D01*
X135002Y654630D01*
X136402Y654050D01*
X137918D01*
X139318Y654630D01*
X140390Y655702D01*
X140970Y657102D01*
X140970Y658068D01*
X142881Y659994D01*
X143723Y659767D01*
X143892Y659710D01*
X144509Y659454D01*
X145292Y659130D01*
X146808D01*
X148208Y659710D01*
X149280Y660782D01*
X149860Y662182D01*
Y663698D01*
X149280Y665098D01*
X148208Y666170D01*
X146808Y666750D01*
D02*
G37*
G36*
X546858D02*
X545342D01*
X543942Y666170D01*
X542870Y665098D01*
X542290Y663698D01*
Y662182D01*
X542870Y660782D01*
X543942Y659710D01*
X545342Y659130D01*
X546858D01*
X548258Y659710D01*
X549330Y660782D01*
X549910Y662182D01*
Y663698D01*
X549330Y665098D01*
X548258Y666170D01*
X546858Y666750D01*
D02*
G37*
G36*
X12823Y681355D02*
X11307D01*
X9907Y680775D01*
X8835Y679703D01*
X8255Y678303D01*
Y676787D01*
X8835Y675387D01*
X9628Y673735D01*
X8835Y672083D01*
X8255Y670683D01*
Y669167D01*
X8835Y667767D01*
X9628Y666115D01*
X8835Y664463D01*
X8255Y663063D01*
Y661547D01*
X8835Y660147D01*
X9907Y659075D01*
X11307Y658495D01*
X12823D01*
X14223Y659075D01*
X15295Y660147D01*
X15875Y661547D01*
Y663063D01*
X15295Y664463D01*
X14502Y666115D01*
X15295Y667767D01*
X15875Y669167D01*
Y670683D01*
X15295Y672083D01*
X14502Y673735D01*
X15295Y675387D01*
X15875Y676787D01*
Y678303D01*
X15295Y679703D01*
X14223Y680775D01*
X12823Y681355D01*
D02*
G37*
G36*
X536698Y661670D02*
X535182D01*
X533782Y661090D01*
X532710Y660018D01*
X532130Y658618D01*
Y657102D01*
X532710Y655702D01*
X533782Y654630D01*
X535182Y654050D01*
X536698D01*
X538098Y654630D01*
X539170Y655702D01*
X539750Y657102D01*
Y658618D01*
X539170Y660018D01*
X538098Y661090D01*
X536698Y661670D01*
D02*
G37*
G36*
X352548Y660400D02*
X351032D01*
X349632Y659820D01*
X348560Y658748D01*
X347980Y657348D01*
Y655832D01*
X348560Y654432D01*
X349632Y653360D01*
X351032Y652780D01*
X352548D01*
X353948Y653360D01*
X355020Y654432D01*
X355600Y655832D01*
Y657348D01*
X355020Y658748D01*
X353948Y659820D01*
X352548Y660400D01*
D02*
G37*
G36*
X339848D02*
X338332D01*
X336932Y659820D01*
X335860Y658748D01*
X335280Y657348D01*
Y655832D01*
X335860Y654432D01*
X336932Y653360D01*
X338332Y652780D01*
X339848D01*
X341248Y653360D01*
X342320Y654432D01*
X342900Y655832D01*
Y657348D01*
X342320Y658748D01*
X341248Y659820D01*
X339848Y660400D01*
D02*
G37*
G36*
X327148D02*
X325632D01*
X324232Y659820D01*
X323160Y658748D01*
X322580Y657348D01*
Y655832D01*
X323160Y654432D01*
X324232Y653360D01*
X325632Y652780D01*
X327148D01*
X328548Y653360D01*
X329620Y654432D01*
X330200Y655832D01*
Y657348D01*
X329620Y658748D01*
X328548Y659820D01*
X327148Y660400D01*
D02*
G37*
G36*
X296668D02*
X295152D01*
X293752Y659820D01*
X292680Y658748D01*
X292100Y657348D01*
Y655832D01*
X292680Y654432D01*
X293752Y653360D01*
X295152Y652780D01*
X296668D01*
X298068Y653360D01*
X299140Y654432D01*
X299720Y655832D01*
Y657348D01*
X299140Y658748D01*
X298068Y659820D01*
X296668Y660400D01*
D02*
G37*
G36*
X272538D02*
X271022D01*
X269622Y659820D01*
X268550Y658748D01*
X267970Y657348D01*
Y655832D01*
X268550Y654432D01*
X269622Y653360D01*
X271022Y652780D01*
X272538D01*
X273938Y653360D01*
X275010Y654432D01*
X275590Y655832D01*
Y657348D01*
X275010Y658748D01*
X273938Y659820D01*
X272538Y660400D01*
D02*
G37*
G36*
X160778Y654050D02*
X159262D01*
X157862Y653470D01*
X157016Y652624D01*
X155575Y652502D01*
X154134Y652624D01*
X153288Y653470D01*
X151888Y654050D01*
X150372D01*
X148972Y653470D01*
X147900Y652398D01*
X147320Y650998D01*
Y649482D01*
X147900Y648082D01*
X148972Y647010D01*
X150372Y646430D01*
X151888D01*
X153288Y647010D01*
X154134Y647856D01*
X155575Y647979D01*
X157016Y647856D01*
X157862Y647010D01*
X159262Y646430D01*
X160778D01*
X162178Y647010D01*
X163250Y648082D01*
X163830Y649482D01*
Y650998D01*
X163250Y652398D01*
X162178Y653470D01*
X160778Y654050D01*
D02*
G37*
G36*
X556383Y647700D02*
X554867D01*
X553467Y647120D01*
X552395Y646048D01*
X551815Y644648D01*
Y643132D01*
X552395Y641732D01*
X553467Y640660D01*
X554867Y640080D01*
X556383D01*
X557783Y640660D01*
X558855Y641732D01*
X559435Y643132D01*
Y644648D01*
X558855Y646048D01*
X557783Y647120D01*
X556383Y647700D01*
D02*
G37*
G36*
X537333D02*
X535817D01*
X534417Y647120D01*
X533345Y646048D01*
X532765Y644648D01*
Y643132D01*
X533345Y641732D01*
X534417Y640660D01*
X535817Y640080D01*
X537333D01*
X538733Y640660D01*
X539805Y641732D01*
X540385Y643132D01*
Y644648D01*
X539805Y646048D01*
X538733Y647120D01*
X537333Y647700D01*
D02*
G37*
G36*
X137283D02*
X135767D01*
X134367Y647120D01*
X133295Y646048D01*
X132715Y644648D01*
Y643132D01*
X133295Y641732D01*
X134367Y640660D01*
X135767Y640080D01*
X137283D01*
X138683Y640660D01*
X139755Y641732D01*
X140335Y643132D01*
Y644648D01*
X139755Y646048D01*
X138683Y647120D01*
X137283Y647700D01*
D02*
G37*
G36*
X389638Y640720D02*
X387362D01*
X385260Y639849D01*
X383651Y638240D01*
X382780Y636138D01*
Y634786D01*
X382213Y633496D01*
X380612Y632460D01*
X380242D01*
X378842Y631880D01*
X377190Y631087D01*
X375538Y631880D01*
X374138Y632460D01*
X372622D01*
X371222Y631880D01*
X369570Y631087D01*
X367918Y631880D01*
X366518Y632460D01*
X365002D01*
X363602Y631880D01*
X362530Y630808D01*
X361950Y629408D01*
Y627892D01*
X362530Y626492D01*
X363323Y624840D01*
X362530Y623188D01*
X361950Y621788D01*
Y620272D01*
X362530Y618872D01*
X363602Y617800D01*
X365002Y617220D01*
X366518D01*
X367918Y617800D01*
X369570Y618593D01*
X371222Y617800D01*
X372622Y617220D01*
X374138D01*
X375538Y617800D01*
X377190Y618593D01*
X378842Y617800D01*
X380242Y617220D01*
X381758D01*
X383158Y617800D01*
X383400Y617916D01*
X383941Y617781D01*
X385390Y615568D01*
X384810Y614168D01*
Y612652D01*
X385390Y611252D01*
X386462Y610180D01*
X387862Y609600D01*
X389378D01*
X390778Y610180D01*
X392430Y610973D01*
X394082Y610180D01*
X395482Y609600D01*
X396998D01*
X398398Y610180D01*
X399470Y611252D01*
X400050Y612652D01*
Y614168D01*
X399470Y615568D01*
X398677Y617220D01*
X399470Y618872D01*
X400050Y620272D01*
Y621788D01*
X399470Y623188D01*
X398398Y624260D01*
X396998Y624840D01*
X395482D01*
X394082Y624260D01*
X392430Y623467D01*
X390778Y624260D01*
X389378Y624840D01*
X387862D01*
X386462Y624260D01*
X386220Y624144D01*
X385679Y624279D01*
X384476Y626116D01*
X384958Y627973D01*
X387350Y629285D01*
X387362Y629280D01*
X389638D01*
X391740Y630151D01*
X393349Y631760D01*
X394220Y633862D01*
Y636138D01*
X393349Y638240D01*
X391740Y639849D01*
X389638Y640720D01*
D02*
G37*
G36*
X184138D02*
X181862D01*
X179760Y639849D01*
X178151Y638240D01*
X177280Y636138D01*
Y633862D01*
X178151Y631760D01*
X179760Y630151D01*
X181862Y629280D01*
X184138D01*
X186240Y630151D01*
X187849Y631760D01*
X188720Y633862D01*
Y636138D01*
X187849Y638240D01*
X186240Y639849D01*
X184138Y640720D01*
D02*
G37*
G36*
X236646Y630086D02*
X235131D01*
X233730Y629506D01*
X233070Y628845D01*
X231782Y628549D01*
X230051Y628777D01*
X229488Y629340D01*
X228088Y629920D01*
X226572D01*
X225172Y629340D01*
X223520Y628547D01*
X221868Y629340D01*
X220468Y629920D01*
X218952D01*
X217552Y629340D01*
X216480Y628268D01*
X214248Y628070D01*
X212848Y628650D01*
X211332D01*
X209932Y628070D01*
X208860Y626998D01*
X208280Y625598D01*
Y624082D01*
X208860Y622682D01*
X209932Y621610D01*
X211332Y621030D01*
X212848D01*
X214248Y621610D01*
X215320Y622682D01*
X217552Y622880D01*
X218952Y622300D01*
X220468D01*
X221868Y622880D01*
X223520Y623673D01*
X225172Y622880D01*
X226572Y622300D01*
X228088D01*
X229488Y622880D01*
X230148Y623540D01*
X231437Y623837D01*
X233167Y623609D01*
X233730Y623046D01*
X235131Y622466D01*
X236646D01*
X238047Y623046D01*
X239118Y624118D01*
X239699Y625518D01*
Y627034D01*
X239118Y628434D01*
X238047Y629506D01*
X236646Y630086D01*
D02*
G37*
G36*
X300478Y626110D02*
X298962D01*
X297562Y625530D01*
X296716Y624684D01*
X295275Y624562D01*
X293834Y624684D01*
X292988Y625530D01*
X291588Y626110D01*
X290072D01*
X288672Y625530D01*
X287600Y624458D01*
X287020Y623058D01*
Y621542D01*
X287600Y620142D01*
X288672Y619070D01*
X290072Y618490D01*
X291588D01*
X292988Y619070D01*
X293834Y619916D01*
X295275Y620038D01*
X296716Y619916D01*
X297562Y619070D01*
X298962Y618490D01*
X300478D01*
X301878Y619070D01*
X302950Y620142D01*
X303530Y621542D01*
Y623058D01*
X302950Y624458D01*
X301878Y625530D01*
X300478Y626110D01*
D02*
G37*
G36*
X527808Y628650D02*
X526292D01*
X524892Y628070D01*
X523820Y626998D01*
X523240Y625598D01*
Y624082D01*
X523820Y622682D01*
X524892Y621610D01*
X526292Y621030D01*
X527808D01*
X529208Y621610D01*
X530280Y622682D01*
X530860Y624082D01*
Y625598D01*
X530280Y626998D01*
X529208Y628070D01*
X527808Y628650D01*
D02*
G37*
G36*
X314448D02*
X312932D01*
X311532Y628070D01*
X310460Y626998D01*
X309880Y625598D01*
Y624082D01*
X310460Y622682D01*
X311532Y621610D01*
X312932Y621030D01*
X314448D01*
X315848Y621610D01*
X316920Y622682D01*
X317500Y624082D01*
Y625598D01*
X316920Y626998D01*
X315848Y628070D01*
X314448Y628650D01*
D02*
G37*
G36*
X276348D02*
X274832D01*
X273432Y628070D01*
X272360Y626998D01*
X271780Y625598D01*
Y624082D01*
X272360Y622682D01*
X273432Y621610D01*
X274832Y621030D01*
X276348D01*
X277748Y621610D01*
X278820Y622682D01*
X279400Y624082D01*
Y625598D01*
X278820Y626998D01*
X277748Y628070D01*
X276348Y628650D01*
D02*
G37*
G36*
X51558D02*
X50042D01*
X48642Y628070D01*
X47570Y626998D01*
X46990Y625598D01*
Y624082D01*
X47570Y622682D01*
X48642Y621610D01*
X50042Y621030D01*
X51558D01*
X52958Y621610D01*
X54030Y622682D01*
X54610Y624082D01*
Y625598D01*
X54030Y626998D01*
X52958Y628070D01*
X51558Y628650D01*
D02*
G37*
G36*
X13458D02*
X11942D01*
X10542Y628070D01*
X9470Y626998D01*
X8890Y625598D01*
Y624082D01*
X9470Y622682D01*
X10542Y621610D01*
X11942Y621030D01*
X13458D01*
X14858Y621610D01*
X15930Y622682D01*
X16510Y624082D01*
Y625598D01*
X15930Y626998D01*
X14858Y628070D01*
X13458Y628650D01*
D02*
G37*
G36*
X546858D02*
X545342D01*
X543942Y628070D01*
X542870Y626998D01*
X542290Y625598D01*
Y624733D01*
X542213Y624014D01*
X540279Y622300D01*
X540009D01*
X538142Y621527D01*
X536713Y620098D01*
X535940Y618231D01*
Y616209D01*
X536713Y614342D01*
X538142Y612913D01*
X540009Y612140D01*
X542030D01*
X543898Y612913D01*
X545327Y614342D01*
X546100Y616209D01*
Y618231D01*
X545993Y618490D01*
X546823Y620926D01*
X547462Y621280D01*
X548258Y621610D01*
X549330Y622682D01*
X549910Y624082D01*
Y625598D01*
X549330Y626998D01*
X548258Y628070D01*
X546858Y628650D01*
D02*
G37*
G36*
X497328Y619760D02*
X495812D01*
X494412Y619180D01*
X493340Y618108D01*
X492760Y616708D01*
Y615192D01*
X493340Y613792D01*
X494412Y612720D01*
X495812Y612140D01*
X497328D01*
X498728Y612720D01*
X499800Y613792D01*
X500380Y615192D01*
Y616708D01*
X499800Y618108D01*
X498728Y619180D01*
X497328Y619760D01*
D02*
G37*
G36*
X482088D02*
X480572D01*
X479172Y619180D01*
X478100Y618108D01*
X477520Y616708D01*
Y615192D01*
X478100Y613792D01*
X479172Y612720D01*
X480572Y612140D01*
X482088D01*
X483488Y612720D01*
X484560Y613792D01*
X485140Y615192D01*
Y616708D01*
X484560Y618108D01*
X483488Y619180D01*
X482088Y619760D01*
D02*
G37*
G36*
X98548D02*
X97032D01*
X95632Y619180D01*
X94560Y618108D01*
X93980Y616708D01*
Y615192D01*
X94560Y613792D01*
X95632Y612720D01*
X97032Y612140D01*
X98548D01*
X99948Y612720D01*
X101020Y613792D01*
X101600Y615192D01*
Y616708D01*
X101020Y618108D01*
X99948Y619180D01*
X98548Y619760D01*
D02*
G37*
G36*
X83308D02*
X81792D01*
X80392Y619180D01*
X79320Y618108D01*
X78740Y616708D01*
Y615192D01*
X79320Y613792D01*
X80392Y612720D01*
X81792Y612140D01*
X83308D01*
X84708Y612720D01*
X85780Y613792D01*
X86360Y615192D01*
Y616708D01*
X85780Y618108D01*
X84708Y619180D01*
X83308Y619760D01*
D02*
G37*
G36*
X556383Y609600D02*
X554867D01*
X553467Y609020D01*
X552395Y607948D01*
X551815Y606548D01*
Y605032D01*
X552395Y603632D01*
X553467Y602560D01*
X554867Y601980D01*
X556383D01*
X557783Y602560D01*
X558855Y603632D01*
X559435Y605032D01*
Y606548D01*
X558855Y607948D01*
X557783Y609020D01*
X556383Y609600D01*
D02*
G37*
G36*
X518283D02*
X516767D01*
X515367Y609020D01*
X514295Y607948D01*
X513715Y606548D01*
Y605032D01*
X514295Y603632D01*
X515367Y602560D01*
X516767Y601980D01*
X518283D01*
X519683Y602560D01*
X520755Y603632D01*
X521335Y605032D01*
Y606548D01*
X520755Y607948D01*
X519683Y609020D01*
X518283Y609600D01*
D02*
G37*
G36*
X499233D02*
X497717D01*
X496317Y609020D01*
X495245Y607948D01*
X494665Y606548D01*
Y605032D01*
X495245Y603632D01*
X496317Y602560D01*
X497717Y601980D01*
X499233D01*
X500633Y602560D01*
X501705Y603632D01*
X502285Y605032D01*
Y606548D01*
X501705Y607948D01*
X500633Y609020D01*
X499233Y609600D01*
D02*
G37*
G36*
X22983D02*
X21467D01*
X20067Y609020D01*
X18995Y607948D01*
X18415Y606548D01*
Y605032D01*
X18995Y603632D01*
X20067Y602560D01*
X21467Y601980D01*
X22983D01*
X24383Y602560D01*
X25455Y603632D01*
X26035Y605032D01*
Y606548D01*
X25455Y607948D01*
X24383Y609020D01*
X22983Y609600D01*
D02*
G37*
G36*
X184908Y608330D02*
X183392D01*
X181992Y607750D01*
X180920Y606678D01*
X180340Y605278D01*
Y603762D01*
X180920Y602362D01*
X181992Y601290D01*
X183392Y600710D01*
X184908D01*
X186308Y601290D01*
X187380Y602362D01*
X187960Y603762D01*
Y605278D01*
X187380Y606678D01*
X186308Y607750D01*
X184908Y608330D01*
D02*
G37*
G36*
X541778Y605790D02*
X540262D01*
X538862Y605210D01*
X537790Y604138D01*
X537210Y602738D01*
Y601222D01*
X537790Y599822D01*
X538862Y598750D01*
X540262Y598170D01*
X541778D01*
X543178Y598750D01*
X544250Y599822D01*
X544830Y601222D01*
Y602738D01*
X544250Y604138D01*
X543178Y605210D01*
X541778Y605790D01*
D02*
G37*
G36*
X334768Y593090D02*
X333252D01*
X331852Y592510D01*
X331006Y591664D01*
X329565Y591541D01*
X328124Y591664D01*
X327278Y592510D01*
X325878Y593090D01*
X324362D01*
X322962Y592510D01*
X322116Y591664D01*
X320675Y591541D01*
X319234Y591664D01*
X318388Y592510D01*
X316988Y593090D01*
X315472D01*
X314072Y592510D01*
X313000Y591438D01*
X312420Y590038D01*
Y588522D01*
X313000Y587122D01*
X314072Y586050D01*
X315472Y585470D01*
X316988D01*
X318388Y586050D01*
X319234Y586896D01*
X320675Y587019D01*
X322116Y586896D01*
X322962Y586050D01*
X324362Y585470D01*
X325878D01*
X327278Y586050D01*
X328124Y586896D01*
X329565Y587019D01*
X331006Y586896D01*
X331852Y586050D01*
X333252Y585470D01*
X334768D01*
X336168Y586050D01*
X337240Y587122D01*
X337820Y588522D01*
Y590038D01*
X337240Y591438D01*
X336168Y592510D01*
X334768Y593090D01*
D02*
G37*
G36*
X283968Y595630D02*
X282452D01*
X281052Y595050D01*
X279980Y593978D01*
X279400Y592578D01*
Y591062D01*
X279850Y589976D01*
X279921Y589805D01*
X279672Y589296D01*
X278338Y587712D01*
X278102Y587810D01*
X277618Y588010D01*
X276102D01*
X274702Y587430D01*
X273630Y586358D01*
X273050Y584958D01*
Y583442D01*
X273630Y582042D01*
X274702Y580970D01*
X276102Y580390D01*
X277618D01*
X279018Y580970D01*
X280090Y582042D01*
X280670Y583442D01*
Y584958D01*
X280220Y586044D01*
X280149Y586214D01*
X280398Y586724D01*
X281732Y588308D01*
X281968Y588210D01*
X282452Y588010D01*
X283968D01*
X285368Y588590D01*
X286440Y589662D01*
X287020Y591062D01*
Y592578D01*
X286440Y593978D01*
X285368Y595050D01*
X283968Y595630D01*
D02*
G37*
G36*
X344928Y593090D02*
X343412D01*
X342012Y592510D01*
X340940Y591438D01*
X340360Y590038D01*
Y588522D01*
X340940Y587122D01*
X342012Y586050D01*
X343412Y585470D01*
X344928D01*
X346328Y586050D01*
X347400Y587122D01*
X347980Y588522D01*
Y590038D01*
X347400Y591438D01*
X346328Y592510D01*
X344928Y593090D01*
D02*
G37*
G36*
X228088D02*
X226572D01*
X225172Y592510D01*
X224100Y591438D01*
X223520Y590038D01*
Y588522D01*
X224100Y587122D01*
X225172Y586050D01*
X226572Y585470D01*
X228088D01*
X229488Y586050D01*
X230560Y587122D01*
X231140Y588522D01*
Y590038D01*
X230560Y591438D01*
X229488Y592510D01*
X228088Y593090D01*
D02*
G37*
G36*
X217928D02*
X216412D01*
X215012Y592510D01*
X213940Y591438D01*
X213360Y590038D01*
Y588522D01*
X213940Y587122D01*
X215012Y586050D01*
X216412Y585470D01*
X217928D01*
X219328Y586050D01*
X220400Y587122D01*
X220980Y588522D01*
Y590038D01*
X220400Y591438D01*
X219328Y592510D01*
X217928Y593090D01*
D02*
G37*
G36*
X200148Y593101D02*
X198632D01*
X197232Y592521D01*
X196160Y591449D01*
X195580Y590049D01*
Y588533D01*
X196160Y587132D01*
X197232Y586061D01*
X198632Y585481D01*
X200148D01*
X201548Y586061D01*
X202560Y587072D01*
X203582Y586050D01*
X204982Y585470D01*
X206498D01*
X207898Y586050D01*
X208970Y587122D01*
X209550Y588522D01*
Y590038D01*
X208970Y591438D01*
X207898Y592510D01*
X206498Y593090D01*
X204982D01*
X203582Y592510D01*
X202570Y591498D01*
X201548Y592521D01*
X200148Y593101D01*
D02*
G37*
G36*
X426208Y615950D02*
X424692D01*
X423292Y615370D01*
X422220Y614298D01*
X421640Y612898D01*
Y611382D01*
X422220Y609982D01*
X423013Y608330D01*
X422220Y606678D01*
X421640Y605278D01*
Y603762D01*
X422220Y602362D01*
X423066Y601516D01*
X423189Y600075D01*
X423066Y598634D01*
X422220Y597788D01*
X421640Y596388D01*
Y594872D01*
X422220Y593472D01*
X423013Y591820D01*
X422220Y590168D01*
X421640Y588768D01*
Y587252D01*
X422220Y585852D01*
X423292Y584780D01*
X424692Y584200D01*
X426208D01*
X427608Y584780D01*
X429260Y585573D01*
X430912Y584780D01*
X432312Y584200D01*
X433828D01*
X435228Y584780D01*
X436880Y585573D01*
X438532Y584780D01*
X439932Y584200D01*
X441448D01*
X442848Y584780D01*
X443920Y585852D01*
X444500Y587252D01*
Y588768D01*
X443920Y590168D01*
X443127Y591820D01*
X443920Y593472D01*
X444500Y594872D01*
Y596388D01*
X443920Y597788D01*
X442848Y598860D01*
X441448Y599440D01*
X439932D01*
X438532Y598860D01*
X437832Y598524D01*
X436332Y599339D01*
X436093Y602155D01*
X436300Y602362D01*
X436880Y603762D01*
Y605278D01*
X436300Y606678D01*
X435228Y607750D01*
X433828Y608330D01*
X432312D01*
X430912Y607750D01*
X430280Y607447D01*
X428377Y609350D01*
X428680Y609982D01*
X429260Y611382D01*
Y612898D01*
X428680Y614298D01*
X427608Y615370D01*
X426208Y615950D01*
D02*
G37*
G36*
X51558Y590550D02*
X50042D01*
X48642Y589970D01*
X47570Y588898D01*
X46990Y587498D01*
Y585982D01*
X47570Y584582D01*
X48642Y583510D01*
X50042Y582930D01*
X51558D01*
X52958Y583510D01*
X54030Y584582D01*
X54610Y585982D01*
Y587498D01*
X54030Y588898D01*
X52958Y589970D01*
X51558Y590550D01*
D02*
G37*
G36*
X395728Y596900D02*
X394212D01*
X392812Y596320D01*
X391740Y595248D01*
X391160Y593848D01*
Y592332D01*
X391740Y590932D01*
X392812Y589860D01*
X394077Y588395D01*
X393849Y586891D01*
X393764Y586687D01*
Y585171D01*
X394344Y583771D01*
X395416Y582699D01*
X396816Y582119D01*
X398332D01*
X399732Y582699D01*
X400804Y583771D01*
X401384Y585171D01*
Y586687D01*
X400804Y588087D01*
X399732Y589159D01*
X398467Y590623D01*
X398695Y592128D01*
X398780Y592332D01*
Y593848D01*
X398200Y595248D01*
X397128Y596320D01*
X395728Y596900D01*
D02*
G37*
G36*
X301748Y585590D02*
X300232D01*
X298832Y585010D01*
X297760Y583938D01*
X297180Y582538D01*
Y581022D01*
X297760Y579622D01*
X298832Y578550D01*
X300232Y577970D01*
X301748D01*
X303148Y578550D01*
X304220Y579622D01*
X304800Y581022D01*
Y582538D01*
X304220Y583938D01*
X303148Y585010D01*
X301748Y585590D01*
D02*
G37*
G36*
X239518Y593090D02*
X238002D01*
X236602Y592510D01*
X235530Y591438D01*
X234950Y590038D01*
Y588522D01*
X235530Y587122D01*
X236602Y586050D01*
X238002Y585470D01*
X238754D01*
X239217Y585058D01*
X240129Y583688D01*
X240322Y583123D01*
X240030Y582418D01*
Y580902D01*
X240610Y579502D01*
X241682Y578430D01*
X243082Y577850D01*
X244598D01*
X245998Y578430D01*
X247070Y579502D01*
X247650Y580902D01*
Y582418D01*
X247070Y583818D01*
X245998Y584890D01*
X244598Y585470D01*
X243846D01*
X243382Y585882D01*
X242471Y587252D01*
X242278Y587817D01*
X242570Y588522D01*
Y590038D01*
X241990Y591438D01*
X240918Y592510D01*
X239518Y593090D01*
D02*
G37*
G36*
X139188Y585470D02*
X137672D01*
X136272Y584890D01*
X135200Y583818D01*
X134620Y582418D01*
Y580902D01*
X135200Y579502D01*
X136272Y578430D01*
X137672Y577850D01*
X139188D01*
X140588Y578430D01*
X141660Y579502D01*
X142240Y580902D01*
Y582418D01*
X141660Y583818D01*
X140588Y584890D01*
X139188Y585470D01*
D02*
G37*
G36*
X369748Y582470D02*
X368232D01*
X366832Y581890D01*
X365760Y580818D01*
X365180Y579418D01*
Y577902D01*
X365760Y576502D01*
X366832Y575430D01*
X368232Y574850D01*
X369748D01*
X371148Y575430D01*
X372220Y576502D01*
X372800Y577902D01*
Y579418D01*
X372220Y580818D01*
X371148Y581890D01*
X369748Y582470D01*
D02*
G37*
G36*
X261108Y589280D02*
X259592D01*
X258192Y588700D01*
X257120Y587628D01*
X256540Y586228D01*
Y584712D01*
X257120Y583312D01*
X257881Y582551D01*
X258055Y581085D01*
X257881Y579619D01*
X257120Y578858D01*
X256540Y577458D01*
Y575942D01*
X257120Y574542D01*
X258192Y573470D01*
X259592Y572890D01*
X261108D01*
X262508Y573470D01*
X263580Y574542D01*
X264160Y575942D01*
Y577458D01*
X263580Y578858D01*
X262819Y579619D01*
X262645Y581085D01*
X262819Y582551D01*
X263580Y583312D01*
X264160Y584712D01*
Y586228D01*
X263580Y587628D01*
X262508Y588700D01*
X261108Y589280D01*
D02*
G37*
G36*
X208551Y579120D02*
X207036D01*
X205635Y578540D01*
X204564Y577468D01*
X203983Y576068D01*
Y574552D01*
X204564Y573152D01*
X205635Y572080D01*
X207036Y571500D01*
X208551D01*
X209952Y572080D01*
X211023Y573152D01*
X211603Y574552D01*
Y576068D01*
X211023Y577468D01*
X209952Y578540D01*
X208551Y579120D01*
D02*
G37*
G36*
X121408Y575310D02*
X119892D01*
X118492Y574730D01*
X117420Y573658D01*
X116840Y572258D01*
Y570742D01*
X117420Y569342D01*
X118492Y568270D01*
X119892Y567690D01*
X121408D01*
X122808Y568270D01*
X123880Y569342D01*
X124460Y570742D01*
Y572258D01*
X123880Y573658D01*
X122808Y574730D01*
X121408Y575310D01*
D02*
G37*
G36*
X518283Y571500D02*
X516767D01*
X515367Y570920D01*
X514295Y569848D01*
X513715Y568448D01*
Y566932D01*
X514295Y565532D01*
X515367Y564460D01*
X516767Y563880D01*
X518283D01*
X519683Y564460D01*
X520755Y565532D01*
X521335Y566932D01*
Y568448D01*
X520755Y569848D01*
X519683Y570920D01*
X518283Y571500D01*
D02*
G37*
G36*
X461133D02*
X459617D01*
X458217Y570920D01*
X457145Y569848D01*
X456565Y568448D01*
Y566932D01*
X457145Y565532D01*
X458217Y564460D01*
X459617Y563880D01*
X461133D01*
X462533Y564460D01*
X463605Y565532D01*
X464185Y566932D01*
Y568448D01*
X463605Y569848D01*
X462533Y570920D01*
X461133Y571500D01*
D02*
G37*
G36*
X283968Y575430D02*
X282452D01*
X281052Y574850D01*
X279980Y573778D01*
X279400Y572378D01*
Y570862D01*
X279980Y569462D01*
X281052Y568390D01*
X282452Y567810D01*
X283968D01*
X285115Y567043D01*
Y566932D01*
X285695Y565532D01*
X286767Y564460D01*
X288167Y563880D01*
X289683D01*
X291083Y564460D01*
X292155Y565532D01*
X292735Y566932D01*
Y568448D01*
X292155Y569848D01*
X291083Y570920D01*
X289683Y571500D01*
X288167D01*
X287020Y572267D01*
Y572378D01*
X286440Y573778D01*
X285368Y574850D01*
X283968Y575430D01*
D02*
G37*
G36*
X42033Y571500D02*
X40517D01*
X39117Y570920D01*
X38045Y569848D01*
X37465Y568448D01*
Y566932D01*
X38045Y565532D01*
X39117Y564460D01*
X40517Y563880D01*
X42033D01*
X43433Y564460D01*
X44505Y565532D01*
X45085Y566932D01*
Y568448D01*
X44505Y569848D01*
X43433Y570920D01*
X42033Y571500D01*
D02*
G37*
G36*
X98548Y558800D02*
X97032D01*
X95632Y558220D01*
X94786Y557374D01*
X93345Y557252D01*
X91904Y557374D01*
X91058Y558220D01*
X89658Y558800D01*
X88142D01*
X86742Y558220D01*
X85670Y557148D01*
X85090Y555748D01*
Y554232D01*
X85670Y552832D01*
X86742Y551760D01*
X88142Y551180D01*
X89658D01*
X91058Y551760D01*
X91904Y552606D01*
X93345Y552729D01*
X94786Y552606D01*
X95632Y551760D01*
X97032Y551180D01*
X98548D01*
X99948Y551760D01*
X101020Y552832D01*
X101600Y554232D01*
Y555748D01*
X101020Y557148D01*
X99948Y558220D01*
X98548Y558800D01*
D02*
G37*
G36*
X261108Y558920D02*
X259592D01*
X258192Y558340D01*
X257120Y557268D01*
X256319Y557038D01*
X254259Y556999D01*
X253618Y557640D01*
X252218Y558220D01*
X250702D01*
X249302Y557640D01*
X248230Y556568D01*
X247650Y555168D01*
Y553652D01*
X248230Y552252D01*
X249302Y551180D01*
X250702Y550600D01*
X252218D01*
X253618Y551180D01*
X254690Y552252D01*
X255491Y552482D01*
X257551Y552521D01*
X258192Y551880D01*
X259592Y551300D01*
X261108D01*
X262508Y551880D01*
X263580Y552952D01*
X264160Y554352D01*
Y555868D01*
X263580Y557268D01*
X262508Y558340D01*
X261108Y558920D01*
D02*
G37*
G36*
X324608Y564000D02*
X323092D01*
X321692Y563420D01*
X320620Y562348D01*
X320040Y560948D01*
Y559432D01*
X320620Y558032D01*
X321692Y556960D01*
X323092Y556380D01*
X324608D01*
X326008Y556960D01*
X327080Y558032D01*
X327660Y559432D01*
Y560948D01*
X327080Y562348D01*
X326008Y563420D01*
X324608Y564000D01*
D02*
G37*
G36*
X162048Y563880D02*
X160532D01*
X159132Y563300D01*
X158060Y562228D01*
X157480Y560828D01*
Y559312D01*
X158060Y557912D01*
X159132Y556840D01*
X160532Y556260D01*
X162048D01*
X163448Y556840D01*
X164520Y557912D01*
X165100Y559312D01*
Y560828D01*
X164520Y562228D01*
X163448Y563300D01*
X162048Y563880D01*
D02*
G37*
G36*
X271268Y557650D02*
X269752D01*
X268352Y557070D01*
X267280Y555998D01*
X266700Y554598D01*
Y553082D01*
X267280Y551682D01*
X268352Y550610D01*
X269752Y550030D01*
X271268D01*
X272668Y550610D01*
X273740Y551682D01*
X274320Y553082D01*
Y554598D01*
X273740Y555998D01*
X272668Y557070D01*
X271268Y557650D01*
D02*
G37*
G36*
X108708Y557530D02*
X107192D01*
X105792Y556950D01*
X104720Y555878D01*
X104140Y554478D01*
Y552962D01*
X104720Y551562D01*
X105792Y550490D01*
X107192Y549910D01*
X108708D01*
X110108Y550490D01*
X111180Y551562D01*
X111760Y552962D01*
Y554478D01*
X111180Y555878D01*
X110108Y556950D01*
X108708Y557530D01*
D02*
G37*
G36*
X470075Y552450D02*
X468559D01*
X467159Y551870D01*
X466087Y550798D01*
X465507Y549398D01*
Y547882D01*
X466087Y546482D01*
X467159Y545410D01*
X468559Y544830D01*
X470075D01*
X471475Y545410D01*
X472547Y546482D01*
X473127Y547882D01*
Y549398D01*
X472547Y550798D01*
X471475Y551870D01*
X470075Y552450D01*
D02*
G37*
G36*
X496058Y566180D02*
X494542D01*
X493142Y565600D01*
X492070Y564528D01*
X491490Y563128D01*
Y561612D01*
X491652Y561220D01*
X491189Y559293D01*
X490312Y558378D01*
X489642Y558100D01*
X488570Y557028D01*
X487990Y555628D01*
Y554112D01*
X488570Y552712D01*
X489642Y551640D01*
X490312Y551362D01*
X491189Y550447D01*
X491652Y548520D01*
X491490Y548128D01*
Y546612D01*
X492070Y545212D01*
X493142Y544140D01*
X493340Y541908D01*
X492760Y540508D01*
Y538992D01*
X493340Y537592D01*
X494133Y535940D01*
X493340Y534288D01*
X492760Y532888D01*
Y531372D01*
X493340Y529972D01*
X494412Y528900D01*
X495812Y528320D01*
X497328D01*
X498728Y528900D01*
X499800Y529972D01*
X500380Y531372D01*
Y532888D01*
X499800Y534288D01*
X499007Y535940D01*
X499800Y537592D01*
X500380Y538992D01*
Y540508D01*
X499800Y541908D01*
X498728Y542980D01*
X498530Y545212D01*
X499110Y546612D01*
Y548128D01*
X498948Y548520D01*
X499411Y550447D01*
X500288Y551362D01*
X500958Y551640D01*
X502030Y552712D01*
X502610Y554112D01*
Y555628D01*
X502030Y557028D01*
X500958Y558100D01*
X500288Y558378D01*
X499411Y559293D01*
X498948Y561220D01*
X499110Y561612D01*
Y563128D01*
X498530Y564528D01*
X497458Y565600D01*
X496058Y566180D01*
D02*
G37*
G36*
X249678Y543560D02*
X248162D01*
X246762Y542980D01*
X245690Y541908D01*
X245110Y540508D01*
Y538992D01*
X245690Y537592D01*
X246483Y535940D01*
X245690Y534288D01*
X245110Y532888D01*
Y531372D01*
X245690Y529972D01*
X246762Y528900D01*
X248162Y528320D01*
X249678D01*
X251078Y528900D01*
X252150Y529972D01*
X252730Y531372D01*
Y532888D01*
X252150Y534288D01*
X251357Y535940D01*
X252150Y537592D01*
X252730Y538992D01*
Y540508D01*
X252150Y541908D01*
X251078Y542980D01*
X249678Y543560D01*
D02*
G37*
G36*
X461133Y533400D02*
X459617D01*
X458217Y532820D01*
X457145Y531748D01*
X456565Y530348D01*
Y528832D01*
X457145Y527432D01*
X458217Y526360D01*
X459617Y525780D01*
X461133D01*
X462533Y526360D01*
X463605Y527432D01*
X464185Y528832D01*
Y530348D01*
X463605Y531748D01*
X462533Y532820D01*
X461133Y533400D01*
D02*
G37*
G36*
X80133D02*
X78617D01*
X77217Y532820D01*
X76145Y531748D01*
X75565Y530348D01*
Y528832D01*
X76145Y527432D01*
X77217Y526360D01*
X78617Y525780D01*
X80133D01*
X81533Y526360D01*
X82605Y527432D01*
X83185Y528832D01*
Y530348D01*
X82605Y531748D01*
X81533Y532820D01*
X80133Y533400D01*
D02*
G37*
G36*
X395728Y529590D02*
X394212D01*
X392812Y529010D01*
X391740Y527938D01*
X391160Y526538D01*
Y525022D01*
X391740Y523622D01*
X392533Y521970D01*
X391740Y520318D01*
X391160Y518918D01*
Y517402D01*
X391740Y516002D01*
X392812Y514930D01*
X394212Y514350D01*
X395728D01*
X397128Y514930D01*
X398200Y516002D01*
X398780Y517402D01*
Y518918D01*
X398200Y520318D01*
X397407Y521970D01*
X398200Y523622D01*
X398780Y525022D01*
Y526538D01*
X398200Y527938D01*
X397128Y529010D01*
X395728Y529590D01*
D02*
G37*
G36*
X495488Y524230D02*
X493972D01*
X492572Y523650D01*
X491500Y522578D01*
X490920Y521178D01*
Y519662D01*
X491082Y519270D01*
X490619Y517343D01*
X489742Y516428D01*
X489072Y516150D01*
X488000Y515078D01*
X487420Y513678D01*
Y512162D01*
X488000Y510762D01*
X489072Y509690D01*
X489742Y509412D01*
X490619Y508497D01*
X491082Y506570D01*
X490920Y506178D01*
Y504662D01*
X491500Y503262D01*
X492572Y502190D01*
X493972Y501610D01*
X495488D01*
X496888Y502190D01*
X497960Y503262D01*
X498540Y504662D01*
Y506178D01*
X498378Y506570D01*
X498841Y508497D01*
X499718Y509412D01*
X500388Y509690D01*
X501460Y510762D01*
X502040Y512162D01*
Y513678D01*
X501460Y515078D01*
X500388Y516150D01*
X499718Y516428D01*
X498841Y517343D01*
X498378Y519270D01*
X498540Y519662D01*
Y521178D01*
X497960Y522578D01*
X496888Y523650D01*
X495488Y524230D01*
D02*
G37*
G36*
X310638Y504310D02*
X309122D01*
X307722Y503730D01*
X306650Y502658D01*
X306070Y501258D01*
Y499742D01*
X306650Y498342D01*
X307722Y497270D01*
X309122Y496690D01*
X310638D01*
X312038Y497270D01*
X313110Y498342D01*
X313690Y499742D01*
Y501258D01*
X313110Y502658D01*
X312038Y503730D01*
X310638Y504310D01*
D02*
G37*
G36*
X148078Y504190D02*
X146562D01*
X145162Y503610D01*
X144090Y502538D01*
X143510Y501138D01*
Y499622D01*
X144090Y498222D01*
X145162Y497150D01*
X146562Y496570D01*
X148078D01*
X149478Y497150D01*
X150550Y498222D01*
X151130Y499622D01*
Y501138D01*
X150550Y502538D01*
X149478Y503610D01*
X148078Y504190D01*
D02*
G37*
G36*
X436368Y500380D02*
X434852D01*
X433452Y499800D01*
X432380Y498728D01*
X431800Y497328D01*
Y495812D01*
X432380Y494412D01*
X433452Y493340D01*
X434852Y492760D01*
X436368D01*
X437768Y493340D01*
X438840Y494412D01*
X439420Y495812D01*
Y497328D01*
X438840Y498728D01*
X437768Y499800D01*
X436368Y500380D01*
D02*
G37*
G36*
X42033Y495300D02*
X40517D01*
X39117Y494720D01*
X38045Y493648D01*
X37465Y492248D01*
Y490732D01*
X38045Y489332D01*
X39117Y488260D01*
X40517Y487680D01*
X42033D01*
X43433Y488260D01*
X44505Y489332D01*
X45085Y490732D01*
Y492248D01*
X44505Y493648D01*
X43433Y494720D01*
X42033Y495300D01*
D02*
G37*
G36*
X380488Y492880D02*
X378972D01*
X377572Y492300D01*
X376500Y491228D01*
X375920Y489828D01*
Y488312D01*
X376500Y486912D01*
X377572Y485840D01*
X378972Y485260D01*
X380488D01*
X381888Y485840D01*
X382960Y486912D01*
X383540Y488312D01*
Y489828D01*
X382960Y491228D01*
X381888Y492300D01*
X380488Y492880D01*
D02*
G37*
G36*
X217928Y492760D02*
X216412D01*
X215012Y492180D01*
X213940Y491108D01*
X213360Y489708D01*
Y488192D01*
X213940Y486792D01*
X215012Y485720D01*
X216412Y485140D01*
X217928D01*
X219328Y485720D01*
X220400Y486792D01*
X220980Y488192D01*
Y489708D01*
X220400Y491108D01*
X219328Y492180D01*
X217928Y492760D01*
D02*
G37*
G36*
X475738Y490220D02*
X474222D01*
X472822Y489640D01*
X471750Y488568D01*
X471170Y487168D01*
Y485652D01*
X471750Y484252D01*
X472822Y483180D01*
X474222Y482600D01*
X475738D01*
X477138Y483180D01*
X478210Y484252D01*
X478790Y485652D01*
Y487168D01*
X478210Y488568D01*
X477138Y489640D01*
X475738Y490220D01*
D02*
G37*
G36*
X342388Y525990D02*
X340872D01*
X339472Y525410D01*
X338400Y524338D01*
X337820Y522938D01*
Y521422D01*
X338400Y520022D01*
X339017Y519405D01*
X339474Y518921D01*
X339670Y516508D01*
Y516508D01*
X339532Y516176D01*
X339090Y515108D01*
Y513592D01*
X336932Y512500D01*
X335860Y511428D01*
X335280Y510028D01*
Y508512D01*
X335860Y507112D01*
X336932Y506040D01*
X338332Y505460D01*
X339848D01*
X340466Y505716D01*
X340940Y504572D01*
X341733Y502920D01*
X340940Y501268D01*
X340360Y499868D01*
Y498352D01*
X340940Y496952D01*
X341733Y495300D01*
X340940Y493648D01*
X340360Y492248D01*
Y490732D01*
X340940Y489332D01*
X341748Y487740D01*
X340940Y486148D01*
X340360Y484748D01*
Y483232D01*
X340940Y481832D01*
X342012Y480760D01*
X343412Y480180D01*
X344928D01*
X346328Y480760D01*
X347400Y481832D01*
X347980Y483232D01*
Y484748D01*
X347400Y486148D01*
X346592Y487740D01*
X347400Y489332D01*
X347980Y490732D01*
Y492248D01*
X347400Y493648D01*
X346607Y495300D01*
X347400Y496952D01*
X347980Y498352D01*
Y499868D01*
X347400Y501268D01*
X346607Y502920D01*
X347400Y504572D01*
X347980Y505972D01*
Y507488D01*
X347400Y508888D01*
X346328Y509960D01*
X346130Y512192D01*
X346710Y513592D01*
Y515108D01*
X346130Y516508D01*
X345513Y517125D01*
X345056Y517609D01*
X344860Y520022D01*
Y520022D01*
X344998Y520354D01*
X345440Y521422D01*
Y522938D01*
X344860Y524338D01*
X343788Y525410D01*
X342388Y525990D01*
D02*
G37*
G36*
X179828Y525870D02*
X178312D01*
X176912Y525290D01*
X175840Y524218D01*
X175260Y522818D01*
Y521302D01*
X175840Y519902D01*
X176887Y518855D01*
X176939Y518306D01*
X177042Y516344D01*
X176530Y515108D01*
Y513592D01*
X174372Y512500D01*
X173300Y511428D01*
X172720Y510028D01*
Y508512D01*
X173300Y507112D01*
X174372Y506040D01*
X175772Y505460D01*
X177288D01*
X177498Y505520D01*
X178537Y504501D01*
X178507Y501395D01*
X178380Y501268D01*
X177800Y499868D01*
Y498352D01*
X178380Y496952D01*
X179173Y495300D01*
X178380Y493648D01*
X177800Y492248D01*
Y490732D01*
X178380Y489332D01*
X179173Y487680D01*
X178380Y486028D01*
X177800Y484628D01*
Y483112D01*
X178380Y481712D01*
X179452Y480640D01*
X180852Y480060D01*
X182368D01*
X183768Y480640D01*
X184840Y481712D01*
X185420Y483112D01*
Y484628D01*
X184840Y486028D01*
X184047Y487680D01*
X184840Y489332D01*
X185420Y490732D01*
Y492248D01*
X184840Y493648D01*
X184047Y495300D01*
X184840Y496952D01*
X185420Y498352D01*
Y499868D01*
X184840Y501268D01*
X185038Y503500D01*
X186110Y504572D01*
X186690Y505972D01*
Y507488D01*
X186110Y508888D01*
X185038Y509960D01*
X184962Y509992D01*
X183777Y511864D01*
X183894Y512974D01*
X184150Y513592D01*
Y515108D01*
X183570Y516508D01*
X182523Y517555D01*
X182471Y518104D01*
X182368Y520066D01*
X182880Y521302D01*
Y522818D01*
X182300Y524218D01*
X181228Y525290D01*
X179828Y525870D01*
D02*
G37*
G36*
X13458Y476250D02*
X11942D01*
X10542Y475670D01*
X9470Y474598D01*
X8890Y473198D01*
Y471682D01*
X9470Y470282D01*
X10542Y469210D01*
X11942Y468630D01*
X13458D01*
X14858Y469210D01*
X15930Y470282D01*
X16510Y471682D01*
Y473198D01*
X15930Y474598D01*
X14858Y475670D01*
X13458Y476250D01*
D02*
G37*
G36*
X290318Y482720D02*
X288802D01*
X287402Y482140D01*
X286330Y481068D01*
X285750Y479668D01*
Y478152D01*
X286330Y476752D01*
X287402Y475680D01*
X287600Y473448D01*
X287020Y472048D01*
Y470532D01*
X287600Y469132D01*
X288672Y468060D01*
X290072Y467480D01*
X291588D01*
X292988Y468060D01*
X294060Y469132D01*
X294640Y470532D01*
Y472048D01*
X294060Y473448D01*
X292988Y474520D01*
X292790Y476752D01*
X293370Y478152D01*
Y479668D01*
X292790Y481068D01*
X291718Y482140D01*
X290318Y482720D01*
D02*
G37*
G36*
X127758Y482600D02*
X126242D01*
X124842Y482020D01*
X123770Y480948D01*
X123190Y479548D01*
Y478032D01*
X123770Y476632D01*
X124842Y475560D01*
X125040Y473328D01*
X124460Y471928D01*
Y470412D01*
X125040Y469012D01*
X126112Y467940D01*
X127512Y467360D01*
X129028D01*
X130428Y467940D01*
X131500Y469012D01*
X132080Y470412D01*
Y471928D01*
X131500Y473328D01*
X130428Y474400D01*
X130230Y476632D01*
X130810Y478032D01*
Y479548D01*
X130230Y480948D01*
X129158Y482020D01*
X127758Y482600D01*
D02*
G37*
G36*
X473198Y478790D02*
X471682D01*
X470282Y478210D01*
X469210Y477138D01*
X468630Y475738D01*
Y474222D01*
X469210Y472822D01*
X470003Y471170D01*
X469210Y469518D01*
X468630Y468118D01*
Y466602D01*
X469210Y465202D01*
X469326Y464960D01*
X469191Y464419D01*
X466978Y462970D01*
X465578Y463550D01*
X464062D01*
X462662Y462970D01*
X461590Y461898D01*
X461010Y460498D01*
Y458982D01*
X461590Y457582D01*
X462383Y455930D01*
X461590Y454278D01*
X461010Y452878D01*
Y451362D01*
X461590Y449962D01*
X462662Y448890D01*
X464062Y448310D01*
X465578D01*
X466978Y448890D01*
X468630Y449683D01*
X470282Y448890D01*
X471682Y448310D01*
X473198D01*
X474598Y448890D01*
X475670Y449962D01*
X476250Y451362D01*
Y452878D01*
X475670Y454278D01*
X474877Y455930D01*
X475670Y457582D01*
X476250Y458982D01*
Y460498D01*
X475670Y461898D01*
X474877Y463550D01*
X475670Y465202D01*
X476250Y466602D01*
Y468118D01*
X475670Y469518D01*
X474877Y471170D01*
X475670Y472822D01*
X476250Y474222D01*
Y475738D01*
X475670Y477138D01*
X474598Y478210D01*
X473198Y478790D01*
D02*
G37*
G36*
X405130Y581759D02*
X403148Y581365D01*
X401468Y580243D01*
X393115Y571890D01*
X391992Y570209D01*
X391598Y568227D01*
Y545563D01*
X391992Y543581D01*
X393115Y541900D01*
X395117Y539898D01*
X395117Y539897D01*
X408840Y526175D01*
Y453437D01*
X408651Y453205D01*
X406301Y451949D01*
X405888Y452120D01*
X404372D01*
X402972Y451540D01*
X401900Y450468D01*
X401320Y449068D01*
Y449051D01*
X399673Y447193D01*
X398973Y447040D01*
X398022D01*
X396622Y446460D01*
X394970Y445667D01*
X393318Y446460D01*
X391918Y447040D01*
X390402D01*
X389002Y446460D01*
X387350Y445667D01*
X385698Y446460D01*
X384298Y447040D01*
X382782D01*
X381382Y446460D01*
X380310Y445388D01*
X379730Y443988D01*
Y443083D01*
X334207Y397560D01*
X249682D01*
X247650Y399292D01*
Y400808D01*
X247070Y402208D01*
X246688Y402590D01*
X247070Y402972D01*
X247650Y404372D01*
Y405888D01*
X247070Y407288D01*
X245998Y408360D01*
X244598Y408940D01*
X243082D01*
X241682Y408360D01*
X240610Y407288D01*
X240030Y405888D01*
Y404372D01*
X240610Y402972D01*
X240992Y402590D01*
X240610Y402208D01*
X240030Y400808D01*
Y399292D01*
X237998Y397560D01*
X151241D01*
X85140Y463661D01*
Y510540D01*
X84943Y511531D01*
X84381Y512371D01*
X67871Y528881D01*
X67031Y529443D01*
X66040Y529640D01*
X50603D01*
X38661Y541581D01*
X37821Y542143D01*
X36830Y542340D01*
X21393D01*
X20638Y543095D01*
Y545145D01*
X20441Y546136D01*
X19879Y546976D01*
X17757Y549098D01*
X17780Y549152D01*
Y550668D01*
X17200Y552068D01*
X16407Y553720D01*
X17200Y555372D01*
X17780Y556772D01*
Y558288D01*
X17200Y559688D01*
X16128Y560760D01*
X14728Y561340D01*
X13212D01*
X11812Y560760D01*
X10740Y559688D01*
X10160Y558288D01*
Y556772D01*
X10740Y555372D01*
X11533Y553720D01*
X10740Y552068D01*
X10160Y550668D01*
Y549152D01*
X10740Y547752D01*
X11812Y546680D01*
X13212Y546100D01*
X13430D01*
X15458Y544072D01*
Y542022D01*
X15655Y541031D01*
X16217Y540191D01*
X18489Y537919D01*
X19329Y537357D01*
X20320Y537160D01*
X35757D01*
X47699Y525219D01*
X48539Y524657D01*
X49530Y524460D01*
X64967D01*
X79960Y509467D01*
Y478201D01*
X77614Y477229D01*
X71681Y483161D01*
X70841Y483723D01*
X69850Y483920D01*
X25203D01*
X21883Y487240D01*
Y487437D01*
X21686Y488428D01*
X21124Y489268D01*
X17780Y492612D01*
Y493518D01*
X17200Y494918D01*
X16354Y495764D01*
X16231Y497205D01*
X16354Y498646D01*
X17200Y499492D01*
X17780Y500892D01*
Y502408D01*
X17200Y503808D01*
X16128Y504880D01*
X14728Y505460D01*
X13212D01*
X11812Y504880D01*
X10740Y503808D01*
X10160Y502408D01*
Y500892D01*
X10740Y499492D01*
X11586Y498646D01*
X11709Y497205D01*
X11586Y495764D01*
X10740Y494918D01*
X10160Y493518D01*
Y492002D01*
X10740Y490602D01*
X11812Y489530D01*
X13212Y488950D01*
X14117D01*
X16703Y486364D01*
Y486167D01*
X16900Y485176D01*
X17462Y484336D01*
X22299Y479499D01*
X23139Y478937D01*
X24130Y478740D01*
X34756D01*
X35158Y476200D01*
X31775Y475101D01*
X27144Y472741D01*
X22939Y469686D01*
X19264Y466011D01*
X16209Y461806D01*
X13849Y457175D01*
X12243Y452232D01*
X11430Y447099D01*
Y441901D01*
X12243Y436768D01*
X13849Y431825D01*
X16209Y427194D01*
X19264Y422989D01*
X20806Y421447D01*
X20119Y418542D01*
X20067Y418520D01*
X18995Y417448D01*
X18415Y416048D01*
Y414532D01*
X18995Y413132D01*
X20067Y412060D01*
X21467Y411480D01*
X22983D01*
X24383Y412060D01*
X25455Y413132D01*
X25871Y414136D01*
X26892Y414869D01*
X28575Y415530D01*
X31775Y413899D01*
X36718Y412293D01*
X41851Y411480D01*
X47049D01*
X52182Y412293D01*
X57125Y413899D01*
X61756Y416259D01*
X65961Y419314D01*
X69636Y422989D01*
X72691Y427194D01*
X75051Y431825D01*
X76657Y436768D01*
X77470Y441901D01*
Y447099D01*
X76657Y452232D01*
X75234Y456612D01*
X75064Y457136D01*
X75346Y457545D01*
X77628Y458433D01*
X77744Y458344D01*
X153109Y382979D01*
X153222Y382035D01*
X153177Y380256D01*
X153135Y380139D01*
X152345Y379348D01*
X151765Y377948D01*
Y376432D01*
X152345Y375032D01*
X153417Y373960D01*
X154817Y373380D01*
X156333D01*
X157733Y373960D01*
X158805Y375032D01*
X159385Y376432D01*
Y377948D01*
X158805Y379348D01*
X158473Y379680D01*
X159519Y382220D01*
X189731D01*
X190777Y379680D01*
X190445Y379348D01*
X189865Y377948D01*
Y376432D01*
X190445Y375032D01*
X191517Y373960D01*
X192917Y373380D01*
X194433D01*
X195833Y373960D01*
X196905Y375032D01*
X197485Y376432D01*
Y377948D01*
X196905Y379348D01*
X196573Y379680D01*
X197619Y382220D01*
X227831D01*
X228877Y379680D01*
X228545Y379348D01*
X227965Y377948D01*
Y376432D01*
X228545Y375032D01*
X229617Y373960D01*
X231017Y373380D01*
X232533D01*
X233933Y373960D01*
X235005Y375032D01*
X235585Y376432D01*
Y377948D01*
X235005Y379348D01*
X234673Y379680D01*
X235719Y382220D01*
X254853D01*
X255844Y382417D01*
X256684Y382979D01*
X262276Y388570D01*
X379730D01*
X380721Y388767D01*
X381561Y389329D01*
X396347Y404114D01*
X396624Y404144D01*
X399195Y403370D01*
X399360Y402972D01*
X400432Y401900D01*
X401832Y401320D01*
X403348D01*
X404748Y401900D01*
X405820Y402972D01*
X406400Y404372D01*
Y405888D01*
X405820Y407288D01*
X404748Y408360D01*
X404350Y408525D01*
X403576Y411096D01*
X403606Y411373D01*
X405691Y413459D01*
X406253Y414299D01*
X406450Y415290D01*
Y429359D01*
X407091Y429834D01*
X410358Y429408D01*
X412038Y428285D01*
X414020Y427891D01*
X416002Y428285D01*
X417682Y429408D01*
X418805Y431088D01*
X419199Y433070D01*
Y528320D01*
X418805Y530302D01*
X417682Y531982D01*
X402443Y547223D01*
X402442Y547223D01*
X401957Y547708D01*
Y554470D01*
X403639Y556522D01*
X405155D01*
X406555Y557102D01*
X407627Y558174D01*
X408207Y559575D01*
Y561090D01*
X407627Y562491D01*
X407181Y562936D01*
X407275Y565394D01*
X407485Y565927D01*
X408360Y566802D01*
X408940Y568202D01*
Y569718D01*
X408360Y571118D01*
X407677Y571802D01*
X408792Y572918D01*
X409915Y574598D01*
X410309Y576580D01*
X409915Y578562D01*
X408792Y580243D01*
X407112Y581365D01*
X405130Y581759D01*
D02*
G37*
G36*
X384933Y457200D02*
X383417D01*
X382017Y456620D01*
X380945Y455548D01*
X380365Y454148D01*
Y452632D01*
X380945Y451232D01*
X382017Y450160D01*
X383417Y449580D01*
X384933D01*
X386333Y450160D01*
X387405Y451232D01*
X387985Y452632D01*
Y454148D01*
X387405Y455548D01*
X386333Y456620D01*
X384933Y457200D01*
D02*
G37*
G36*
X374138Y454780D02*
X372622D01*
X371222Y454200D01*
X370150Y453128D01*
X369570Y451728D01*
Y450212D01*
X370150Y448812D01*
X371222Y447740D01*
X372622Y447160D01*
X374138D01*
X375538Y447740D01*
X376610Y448812D01*
X377190Y450212D01*
Y451728D01*
X376610Y453128D01*
X375538Y454200D01*
X374138Y454780D01*
D02*
G37*
G36*
X211578Y454660D02*
X210062D01*
X208662Y454080D01*
X207590Y453008D01*
X207010Y451608D01*
Y450092D01*
X207590Y448692D01*
X208662Y447620D01*
X210062Y447040D01*
X211578D01*
X212978Y447620D01*
X214050Y448692D01*
X214630Y450092D01*
Y451608D01*
X214050Y453008D01*
X212978Y454080D01*
X211578Y454660D01*
D02*
G37*
G36*
X206498Y435610D02*
X204982D01*
X203582Y435030D01*
X202510Y433958D01*
X201930Y432558D01*
Y431042D01*
X202510Y429642D01*
X203582Y428570D01*
X204982Y427990D01*
X206498D01*
X207898Y428570D01*
X208970Y429642D01*
X209550Y431042D01*
Y432558D01*
X208970Y433958D01*
X207898Y435030D01*
X206498Y435610D01*
D02*
G37*
G36*
X529649Y477520D02*
X524451D01*
X519318Y476707D01*
X514375Y475101D01*
X509744Y472741D01*
X505539Y469686D01*
X501864Y466011D01*
X498809Y461806D01*
X496449Y457175D01*
X494843Y452232D01*
X494030Y447099D01*
Y441901D01*
X494843Y436768D01*
X496449Y431825D01*
X498809Y427194D01*
X501864Y422989D01*
X505539Y419314D01*
X509744Y416259D01*
X514375Y413899D01*
X519318Y412293D01*
X524451Y411480D01*
X529649D01*
X534782Y412293D01*
X539725Y413899D01*
X544356Y416259D01*
X548561Y419314D01*
X552236Y422989D01*
X555291Y427194D01*
X557651Y431825D01*
X559257Y436768D01*
X560070Y441901D01*
Y447099D01*
X559257Y452232D01*
X557651Y457175D01*
X555291Y461806D01*
X552236Y466011D01*
X548561Y469686D01*
X544356Y472741D01*
X539725Y475101D01*
X534782Y476707D01*
X529649Y477520D01*
D02*
G37*
G36*
X479548Y439420D02*
X478032D01*
X476632Y438840D01*
X475560Y437768D01*
X474980Y436368D01*
Y434852D01*
X475560Y433452D01*
X476353Y431800D01*
X475560Y430148D01*
X474980Y428748D01*
Y427232D01*
X475560Y425832D01*
X476200Y425192D01*
Y415401D01*
X462520Y401721D01*
X459859Y401509D01*
X458787Y402581D01*
X457387Y403161D01*
X455871D01*
X454471Y402581D01*
X453399Y401509D01*
X452819Y400109D01*
Y398593D01*
X453247Y397560D01*
X452662Y396064D01*
X451980Y395020D01*
X448746D01*
X447755Y394823D01*
X446915Y394261D01*
X443813Y391160D01*
X442472D01*
X441072Y390580D01*
X440000Y389508D01*
X439420Y388108D01*
Y386592D01*
X440000Y385192D01*
X441072Y384120D01*
X442472Y383540D01*
X443988D01*
X445388Y384120D01*
X447040Y384913D01*
X448692Y384120D01*
X450092Y383540D01*
X451608D01*
X453008Y384120D01*
X453648Y384760D01*
X457200D01*
X458191Y384957D01*
X459031Y385519D01*
X486410Y412897D01*
X488950Y411992D01*
X489530Y410592D01*
X490602Y409520D01*
X492002Y408940D01*
X493518D01*
X494918Y409520D01*
X495990Y410592D01*
X496570Y411992D01*
Y413508D01*
X495990Y414908D01*
X495197Y416560D01*
X495990Y418212D01*
X496570Y419612D01*
Y421128D01*
X495990Y422528D01*
X494918Y423600D01*
X493518Y424180D01*
X492002D01*
X491540Y423988D01*
X489246Y425188D01*
X489000Y425476D01*
Y427990D01*
X488803Y428981D01*
X488241Y429821D01*
X482600Y435462D01*
Y436368D01*
X482020Y437768D01*
X480948Y438840D01*
X479548Y439420D01*
D02*
G37*
G36*
X88388Y412750D02*
X86872D01*
X85472Y412170D01*
X84400Y411098D01*
X83820Y409698D01*
X83411Y408079D01*
X81792Y407670D01*
X80392Y407090D01*
X78740Y406297D01*
X77088Y407090D01*
X75688Y407670D01*
X74172D01*
X72772Y407090D01*
X71700Y406018D01*
X71120Y404618D01*
Y403102D01*
X71700Y401702D01*
X72772Y400630D01*
X74172Y400050D01*
X75688D01*
X77088Y400630D01*
X78740Y401423D01*
X80392Y400630D01*
X81792Y400050D01*
X83308D01*
X84708Y400630D01*
X85780Y401702D01*
X86360Y403102D01*
X86769Y404721D01*
X88388Y405130D01*
X89788Y405710D01*
X90860Y406782D01*
X91440Y408182D01*
Y409698D01*
X90860Y411098D01*
X89788Y412170D01*
X88388Y412750D01*
D02*
G37*
G36*
X334768Y412870D02*
X333252D01*
X331852Y412290D01*
X330780Y411218D01*
X330200Y409818D01*
Y408302D01*
X330780Y406902D01*
X331852Y405830D01*
X333252Y405250D01*
X334768D01*
X336168Y405830D01*
X337240Y406902D01*
X337820Y408302D01*
Y409818D01*
X337240Y411218D01*
X336168Y412290D01*
X334768Y412870D01*
D02*
G37*
G36*
X319528D02*
X318012D01*
X316612Y412290D01*
X315540Y411218D01*
X314960Y409818D01*
Y408302D01*
X315540Y406902D01*
X316612Y405830D01*
X318012Y405250D01*
X319528D01*
X320928Y405830D01*
X322000Y406902D01*
X322580Y408302D01*
Y409818D01*
X322000Y411218D01*
X320928Y412290D01*
X319528Y412870D01*
D02*
G37*
G36*
X503678Y412750D02*
X502162D01*
X500762Y412170D01*
X499690Y411098D01*
X499110Y409698D01*
Y408182D01*
X499690Y406782D01*
X500762Y405710D01*
X502162Y405130D01*
X503678D01*
X505078Y405710D01*
X506150Y406782D01*
X506730Y408182D01*
Y409698D01*
X506150Y411098D01*
X505078Y412170D01*
X503678Y412750D01*
D02*
G37*
G36*
X156968D02*
X155452D01*
X154052Y412170D01*
X152980Y411098D01*
X152400Y409698D01*
Y408182D01*
X152980Y406782D01*
X154052Y405710D01*
X155452Y405130D01*
X156968D01*
X158368Y405710D01*
X159440Y406782D01*
X160020Y408182D01*
Y409698D01*
X159440Y411098D01*
X158368Y412170D01*
X156968Y412750D01*
D02*
G37*
G36*
X171965Y412507D02*
X170449D01*
X169049Y411927D01*
X167977Y410855D01*
X167397Y409455D01*
Y407939D01*
X167977Y406539D01*
X169049Y405467D01*
X170449Y404887D01*
X171965D01*
X173365Y405467D01*
X174437Y406539D01*
X175017Y407939D01*
Y409455D01*
X174437Y410855D01*
X173365Y411927D01*
X171965Y412507D01*
D02*
G37*
G36*
X539238Y410210D02*
X537722D01*
X536322Y409630D01*
X535250Y408558D01*
X534670Y407158D01*
Y405642D01*
X535250Y404242D01*
X536322Y403170D01*
X537722Y402590D01*
X539238D01*
X540638Y403170D01*
X541710Y404242D01*
X542290Y405642D01*
Y407158D01*
X541710Y408558D01*
X540638Y409630D01*
X539238Y410210D01*
D02*
G37*
G36*
X32508Y400050D02*
X30992D01*
X29592Y399470D01*
X28520Y398398D01*
X27940Y396998D01*
Y395482D01*
X28520Y394082D01*
X29592Y393010D01*
X30992Y392430D01*
X32508D01*
X33908Y393010D01*
X34980Y394082D01*
X35560Y395482D01*
Y396998D01*
X34980Y398398D01*
X33908Y399470D01*
X32508Y400050D01*
D02*
G37*
G36*
X13458D02*
X11942D01*
X10542Y399470D01*
X9470Y398398D01*
X8890Y396998D01*
Y395482D01*
X9470Y394082D01*
X10542Y393010D01*
X11942Y392430D01*
X13458D01*
X14858Y393010D01*
X15930Y394082D01*
X16510Y395482D01*
Y396998D01*
X15930Y398398D01*
X14858Y399470D01*
X13458Y400050D01*
D02*
G37*
G36*
X403348Y391160D02*
X401832D01*
X400432Y390580D01*
X399360Y389508D01*
X398780Y388108D01*
Y386592D01*
X399360Y385192D01*
X400432Y384120D01*
X401832Y383540D01*
X403348D01*
X404748Y384120D01*
X405820Y385192D01*
X406400Y386592D01*
Y388108D01*
X405820Y389508D01*
X404748Y390580D01*
X403348Y391160D01*
D02*
G37*
G36*
X308733Y381000D02*
X307217D01*
X305817Y380420D01*
X304745Y379348D01*
X304165Y377948D01*
Y376432D01*
X304745Y375032D01*
X305817Y373960D01*
X307217Y373380D01*
X308733D01*
X310133Y373960D01*
X311205Y375032D01*
X311785Y376432D01*
Y377948D01*
X311205Y379348D01*
X310133Y380420D01*
X308733Y381000D01*
D02*
G37*
G36*
X289683D02*
X288167D01*
X286767Y380420D01*
X285695Y379348D01*
X285115Y377948D01*
Y376432D01*
X285695Y375032D01*
X286767Y373960D01*
X288167Y373380D01*
X289683D01*
X291083Y373960D01*
X292155Y375032D01*
X292735Y376432D01*
Y377948D01*
X292155Y379348D01*
X291083Y380420D01*
X289683Y381000D01*
D02*
G37*
G36*
X118233D02*
X116717D01*
X115317Y380420D01*
X114245Y379348D01*
X113665Y377948D01*
Y376432D01*
X114245Y375032D01*
X115317Y373960D01*
X116717Y373380D01*
X118233D01*
X119633Y373960D01*
X120705Y375032D01*
X121285Y376432D01*
Y377948D01*
X120705Y379348D01*
X119633Y380420D01*
X118233Y381000D01*
D02*
G37*
G36*
X99183D02*
X97667D01*
X96267Y380420D01*
X95195Y379348D01*
X94615Y377948D01*
Y376432D01*
X95195Y375032D01*
X96267Y373960D01*
X97667Y373380D01*
X99183D01*
X100583Y373960D01*
X101655Y375032D01*
X102235Y376432D01*
Y377948D01*
X101655Y379348D01*
X100583Y380420D01*
X99183Y381000D01*
D02*
G37*
G36*
X457958Y377190D02*
X456442D01*
X455042Y376610D01*
X453970Y375538D01*
X453390Y374138D01*
Y372622D01*
X453970Y371222D01*
X455042Y370150D01*
X456442Y369570D01*
X457958D01*
X459358Y370150D01*
X460430Y371222D01*
X461010Y372622D01*
Y374138D01*
X460430Y375538D01*
X459358Y376610D01*
X457958Y377190D01*
D02*
G37*
G36*
X264918D02*
X263402D01*
X262002Y376610D01*
X260930Y375538D01*
X260350Y374138D01*
Y372622D01*
X260930Y371222D01*
X262002Y370150D01*
X263402Y369570D01*
X264918D01*
X266318Y370150D01*
X267390Y371222D01*
X267970Y372622D01*
Y374138D01*
X267390Y375538D01*
X266318Y376610D01*
X264918Y377190D01*
D02*
G37*
G36*
X71878D02*
X70362D01*
X68962Y376610D01*
X67890Y375538D01*
X67310Y374138D01*
Y372622D01*
X67890Y371222D01*
X68962Y370150D01*
X70362Y369570D01*
X71878D01*
X73278Y370150D01*
X74350Y371222D01*
X74930Y372622D01*
Y374138D01*
X74350Y375538D01*
X73278Y376610D01*
X71878Y377190D01*
D02*
G37*
G36*
X46478Y370840D02*
X44962D01*
X43562Y370260D01*
X42828Y369526D01*
X41467Y369308D01*
X39868Y369495D01*
X39178Y370185D01*
X37778Y370765D01*
X36262D01*
X34862Y370185D01*
X33790Y369113D01*
X33210Y367713D01*
Y366197D01*
X33790Y364797D01*
X34862Y363725D01*
X36262Y363145D01*
X37778D01*
X39178Y363725D01*
X39912Y364459D01*
X41273Y364677D01*
X42872Y364490D01*
X43562Y363800D01*
X44962Y363220D01*
X46478D01*
X46990Y363432D01*
X49091Y362630D01*
X49707Y362036D01*
X50110Y361062D01*
X51182Y359990D01*
X52582Y359410D01*
X54098D01*
X55498Y359990D01*
X56570Y361062D01*
X57150Y362462D01*
Y363978D01*
X56570Y365378D01*
X55498Y366450D01*
X54098Y367030D01*
X52582D01*
X52070Y366818D01*
X49969Y367620D01*
X49353Y368214D01*
X48950Y369188D01*
X47878Y370260D01*
X46478Y370840D01*
D02*
G37*
G36*
X525958Y374070D02*
X524442D01*
X523042Y373490D01*
X521970Y372418D01*
X521390Y371018D01*
Y369502D01*
X521970Y368102D01*
X523042Y367030D01*
X524442Y366450D01*
X525958D01*
X527358Y367030D01*
X528430Y368102D01*
X529010Y369502D01*
Y371018D01*
X528430Y372418D01*
X527358Y373490D01*
X525958Y374070D01*
D02*
G37*
G36*
X332918D02*
X331402D01*
X330002Y373490D01*
X328930Y372418D01*
X328350Y371018D01*
Y369502D01*
X328930Y368102D01*
X330002Y367030D01*
X331402Y366450D01*
X332918D01*
X334318Y367030D01*
X335390Y368102D01*
X335970Y369502D01*
Y371018D01*
X335390Y372418D01*
X334318Y373490D01*
X332918Y374070D01*
D02*
G37*
G36*
X139878D02*
X138362D01*
X136962Y373490D01*
X135890Y372418D01*
X135310Y371018D01*
Y369502D01*
X135890Y368102D01*
X136962Y367030D01*
X138362Y366450D01*
X139878D01*
X141278Y367030D01*
X142350Y368102D01*
X142930Y369502D01*
Y371018D01*
X142350Y372418D01*
X141278Y373490D01*
X139878Y374070D01*
D02*
G37*
G36*
X440178Y367030D02*
X438662D01*
X437262Y366450D01*
X436190Y365378D01*
X435610Y363978D01*
Y363226D01*
X435198Y362762D01*
X433828Y361851D01*
X433263Y361658D01*
X432558Y361950D01*
X431042D01*
X429642Y361370D01*
X428570Y360298D01*
X427990Y358898D01*
Y357382D01*
X428570Y355982D01*
X429642Y354910D01*
X431042Y354330D01*
X432558D01*
X433958Y354910D01*
X435030Y355982D01*
X435610Y357382D01*
Y358134D01*
X436022Y358597D01*
X437392Y359509D01*
X437957Y359702D01*
X438662Y359410D01*
X440178D01*
X441578Y359990D01*
X442650Y361062D01*
X443230Y362462D01*
Y363978D01*
X442650Y365378D01*
X441578Y366450D01*
X440178Y367030D01*
D02*
G37*
G36*
X247138D02*
X245622D01*
X244222Y366450D01*
X243150Y365378D01*
X242570Y363978D01*
Y362462D01*
X243150Y361062D01*
X244222Y359990D01*
X245622Y359410D01*
X247138D01*
X248538Y359990D01*
X249610Y361062D01*
X250190Y362462D01*
Y363978D01*
X249610Y365378D01*
X248538Y366450D01*
X247138Y367030D01*
D02*
G37*
G36*
X375408Y361950D02*
X373892D01*
X372492Y361370D01*
X371420Y360298D01*
X370840Y358898D01*
Y357382D01*
X371420Y355982D01*
X372492Y354910D01*
X373892Y354330D01*
X375408D01*
X376808Y354910D01*
X377880Y355982D01*
X378460Y357382D01*
Y358898D01*
X377880Y360298D01*
X376808Y361370D01*
X375408Y361950D01*
D02*
G37*
G36*
X203958D02*
X202442D01*
X201042Y361370D01*
X199970Y360298D01*
X199390Y358898D01*
Y357382D01*
X199970Y355982D01*
X201042Y354910D01*
X202442Y354330D01*
X203958D01*
X205358Y354910D01*
X206430Y355982D01*
X207010Y357382D01*
Y358898D01*
X206430Y360298D01*
X205358Y361370D01*
X203958Y361950D01*
D02*
G37*
G36*
X165858D02*
X164342D01*
X162942Y361370D01*
X161870Y360298D01*
X161290Y358898D01*
Y357382D01*
X161870Y355982D01*
X162942Y354910D01*
X164342Y354330D01*
X165858D01*
X167258Y354910D01*
X168330Y355982D01*
X168910Y357382D01*
Y358898D01*
X168330Y360298D01*
X167258Y361370D01*
X165858Y361950D01*
D02*
G37*
G36*
X13458D02*
X11942D01*
X10542Y361370D01*
X9470Y360298D01*
X8890Y358898D01*
Y357382D01*
X9470Y355982D01*
X10542Y354910D01*
X11942Y354330D01*
X13458D01*
X14858Y354910D01*
X15930Y355982D01*
X16510Y357382D01*
Y358898D01*
X15930Y360298D01*
X14858Y361370D01*
X13458Y361950D01*
D02*
G37*
G36*
X417318Y350520D02*
X415802D01*
X414402Y349940D01*
X413556Y349094D01*
X412115Y348971D01*
X410674Y349094D01*
X409828Y349940D01*
X408428Y350520D01*
X406912D01*
X405512Y349940D01*
X404440Y348868D01*
X403860Y347468D01*
Y345952D01*
X404091Y345395D01*
X402941Y343217D01*
X402584Y342900D01*
X402467D01*
X401067Y342320D01*
X399995Y341248D01*
X399415Y339848D01*
Y338332D01*
X399995Y336932D01*
X401067Y335860D01*
X402467Y335280D01*
X403983D01*
X405383Y335860D01*
X406455Y336932D01*
X407035Y338332D01*
Y339848D01*
X406804Y340405D01*
X407954Y342583D01*
X408311Y342900D01*
X408428D01*
X409828Y343480D01*
X410674Y344326D01*
X412115Y344449D01*
X413556Y344326D01*
X414402Y343480D01*
X415802Y342900D01*
X417318D01*
X418718Y343480D01*
X419790Y344552D01*
X420370Y345952D01*
Y347468D01*
X419790Y348868D01*
X418718Y349940D01*
X417318Y350520D01*
D02*
G37*
G36*
X224278D02*
X222762D01*
X221362Y349940D01*
X220516Y349094D01*
X219075Y348971D01*
X217634Y349094D01*
X216788Y349940D01*
X215388Y350520D01*
X213872D01*
X212472Y349940D01*
X211400Y348868D01*
X210820Y347468D01*
Y345952D01*
X211112Y345247D01*
X211383Y344505D01*
X210567Y342320D01*
X210567Y342320D01*
X210303Y342056D01*
X209495Y341248D01*
X208915Y339848D01*
Y338332D01*
X209495Y336932D01*
X210567Y335860D01*
X211967Y335280D01*
X213483D01*
X214883Y335860D01*
X215955Y336932D01*
X216535Y338332D01*
Y339848D01*
X216243Y340553D01*
X215972Y341295D01*
X216788Y343480D01*
X216788Y343480D01*
X217052Y343744D01*
X217634Y344326D01*
X219075Y344449D01*
X220516Y344326D01*
X221362Y343480D01*
X222762Y342900D01*
X224278D01*
X225678Y343480D01*
X226750Y344552D01*
X227330Y345952D01*
Y347468D01*
X226750Y348868D01*
X225678Y349940D01*
X224278Y350520D01*
D02*
G37*
G36*
X480818Y355600D02*
X479302D01*
X477902Y355020D01*
X476830Y353948D01*
X476250Y352548D01*
Y351032D01*
X476830Y349632D01*
X477902Y348560D01*
X479302Y347980D01*
X480818D01*
X482218Y348560D01*
X483290Y349632D01*
X483870Y351032D01*
Y352548D01*
X483290Y353948D01*
X482218Y355020D01*
X480818Y355600D01*
D02*
G37*
G36*
X287778D02*
X286262D01*
X284862Y355020D01*
X283790Y353948D01*
X283210Y352548D01*
Y351032D01*
X283790Y349632D01*
X284862Y348560D01*
X286262Y347980D01*
X287778D01*
X289178Y348560D01*
X290250Y349632D01*
X290830Y351032D01*
Y352548D01*
X290250Y353948D01*
X289178Y355020D01*
X287778Y355600D01*
D02*
G37*
G36*
X94738D02*
X93222D01*
X91822Y355020D01*
X90750Y353948D01*
X90170Y352548D01*
Y351032D01*
X90750Y349632D01*
X91822Y348560D01*
X93222Y347980D01*
X94738D01*
X96138Y348560D01*
X97210Y349632D01*
X97790Y351032D01*
Y352548D01*
X97210Y353948D01*
X96138Y355020D01*
X94738Y355600D01*
D02*
G37*
G36*
X427478Y349250D02*
X425962D01*
X424562Y348670D01*
X423490Y347598D01*
X422910Y346198D01*
Y344682D01*
X423490Y343282D01*
X424562Y342210D01*
X425962Y341630D01*
X427478D01*
X428878Y342210D01*
X429950Y343282D01*
X430530Y344682D01*
Y346198D01*
X429950Y347598D01*
X428878Y348670D01*
X427478Y349250D01*
D02*
G37*
G36*
X234438D02*
X232922D01*
X231522Y348670D01*
X230450Y347598D01*
X229870Y346198D01*
Y344682D01*
X230450Y343282D01*
X231522Y342210D01*
X232922Y341630D01*
X234438D01*
X235838Y342210D01*
X236910Y343282D01*
X237490Y344682D01*
Y346198D01*
X236910Y347598D01*
X235838Y348670D01*
X234438Y349250D01*
D02*
G37*
G36*
X41398D02*
X39882D01*
X38482Y348670D01*
X37410Y347598D01*
X36830Y346198D01*
Y344682D01*
X37410Y343282D01*
X38482Y342210D01*
X39882Y341630D01*
X41398D01*
X42798Y342210D01*
X43870Y343282D01*
X44450Y344682D01*
Y346198D01*
X43870Y347598D01*
X42798Y348670D01*
X41398Y349250D01*
D02*
G37*
G36*
X365883Y342900D02*
X364367D01*
X362967Y342320D01*
X361895Y341248D01*
X361315Y339848D01*
Y338332D01*
X361895Y336932D01*
X362967Y335860D01*
X364367Y335280D01*
X365883D01*
X367283Y335860D01*
X368355Y336932D01*
X368935Y338332D01*
Y339848D01*
X368355Y341248D01*
X367283Y342320D01*
X365883Y342900D01*
D02*
G37*
G36*
X175383D02*
X173867D01*
X172467Y342320D01*
X171395Y341248D01*
X170815Y339848D01*
Y338332D01*
X171395Y336932D01*
X172467Y335860D01*
X173867Y335280D01*
X175383D01*
X176783Y335860D01*
X177855Y336932D01*
X178435Y338332D01*
Y339848D01*
X177855Y341248D01*
X176783Y342320D01*
X175383Y342900D01*
D02*
G37*
G36*
X365248Y321310D02*
X363732D01*
X362332Y320730D01*
X360680Y319937D01*
X359028Y320730D01*
X357628Y321310D01*
X356112D01*
X354712Y320730D01*
X353640Y319658D01*
X353060Y318258D01*
Y316742D01*
X353640Y315342D01*
X354712Y314270D01*
X356112Y313690D01*
X357628D01*
X359028Y314270D01*
X360680Y315063D01*
X362332Y314270D01*
X363732Y313690D01*
X365248D01*
X366648Y314270D01*
X367720Y315342D01*
X368300Y316742D01*
Y318258D01*
X367720Y319658D01*
X366648Y320730D01*
X365248Y321310D01*
D02*
G37*
G36*
X527808Y323850D02*
X526292D01*
X524892Y323270D01*
X523820Y322198D01*
X523240Y320798D01*
Y319282D01*
X523820Y317882D01*
X524892Y316810D01*
X526292Y316230D01*
X527808D01*
X529208Y316810D01*
X530280Y317882D01*
X530860Y319282D01*
Y320798D01*
X530280Y322198D01*
X529208Y323270D01*
X527808Y323850D01*
D02*
G37*
G36*
X375408D02*
X373892D01*
X372492Y323270D01*
X371420Y322198D01*
X370840Y320798D01*
Y319282D01*
X371420Y317882D01*
X372492Y316810D01*
X373892Y316230D01*
X375408D01*
X376808Y316810D01*
X377880Y317882D01*
X378460Y319282D01*
Y320798D01*
X377880Y322198D01*
X376808Y323270D01*
X375408Y323850D01*
D02*
G37*
G36*
X203958D02*
X202442D01*
X201042Y323270D01*
X199970Y322198D01*
X199390Y320798D01*
Y319282D01*
X199970Y317882D01*
X201042Y316810D01*
X202442Y316230D01*
X203958D01*
X205358Y316810D01*
X206430Y317882D01*
X207010Y319282D01*
Y320798D01*
X206430Y322198D01*
X205358Y323270D01*
X203958Y323850D01*
D02*
G37*
G36*
X13458D02*
X11942D01*
X10542Y323270D01*
X9470Y322198D01*
X8890Y320798D01*
Y319282D01*
X9470Y317882D01*
X10542Y316810D01*
X11942Y316230D01*
X13458D01*
X14858Y316810D01*
X15930Y317882D01*
X16510Y319282D01*
Y320798D01*
X15930Y322198D01*
X14858Y323270D01*
X13458Y323850D01*
D02*
G37*
G36*
X563368Y321310D02*
X561852D01*
X560452Y320730D01*
X559380Y319658D01*
X558800Y318258D01*
Y316742D01*
X559380Y315342D01*
X560173Y313690D01*
X559380Y312038D01*
X558800Y310638D01*
Y309122D01*
X559380Y307722D01*
X560452Y306650D01*
X561852Y306070D01*
X563368D01*
X564768Y306650D01*
X565840Y307722D01*
X566420Y309122D01*
Y310638D01*
X565840Y312038D01*
X565047Y313690D01*
X565840Y315342D01*
X566420Y316742D01*
Y318258D01*
X565840Y319658D01*
X564768Y320730D01*
X563368Y321310D01*
D02*
G37*
G36*
X403983Y304800D02*
X402467D01*
X401067Y304220D01*
X399995Y303148D01*
X399415Y301748D01*
Y300232D01*
X399995Y298832D01*
X401067Y297760D01*
X402467Y297180D01*
X403983D01*
X405383Y297760D01*
X406455Y298832D01*
X407035Y300232D01*
Y301748D01*
X406455Y303148D01*
X405383Y304220D01*
X403983Y304800D01*
D02*
G37*
G36*
X365883D02*
X364367D01*
X362967Y304220D01*
X361895Y303148D01*
X361315Y301748D01*
Y300232D01*
X361895Y298832D01*
X362967Y297760D01*
X364367Y297180D01*
X365883D01*
X367283Y297760D01*
X368355Y298832D01*
X368935Y300232D01*
Y301748D01*
X368355Y303148D01*
X367283Y304220D01*
X365883Y304800D01*
D02*
G37*
G36*
X213483D02*
X211967D01*
X210567Y304220D01*
X209495Y303148D01*
X208915Y301748D01*
Y300232D01*
X209495Y298832D01*
X210567Y297760D01*
X211967Y297180D01*
X213483D01*
X214883Y297760D01*
X215955Y298832D01*
X216535Y300232D01*
Y301748D01*
X215955Y303148D01*
X214883Y304220D01*
X213483Y304800D01*
D02*
G37*
G36*
X170938Y321310D02*
X169422D01*
X168022Y320730D01*
X166950Y319658D01*
X166370Y318258D01*
Y316742D01*
X166950Y315342D01*
X167743Y313690D01*
X166950Y312038D01*
X166370Y310638D01*
Y309122D01*
X166950Y307722D01*
X168022Y306650D01*
X169422Y306070D01*
X170489D01*
X170801Y306070D01*
X171126Y305667D01*
X172013Y303766D01*
X171770Y303524D01*
X171395Y303148D01*
X170815Y301748D01*
Y300232D01*
X171395Y298832D01*
X172467Y297760D01*
X173867Y297180D01*
X175383D01*
X176783Y297760D01*
X177855Y298832D01*
X178435Y300232D01*
Y301748D01*
X177855Y303148D01*
X176783Y304220D01*
X175383Y304800D01*
X174316D01*
X174004Y304800D01*
X173679Y305203D01*
X172792Y307104D01*
X173035Y307346D01*
X173410Y307722D01*
X173990Y309122D01*
Y310638D01*
X173410Y312038D01*
X172617Y313690D01*
X173410Y315342D01*
X173990Y316742D01*
Y318258D01*
X173410Y319658D01*
X172338Y320730D01*
X170938Y321310D01*
D02*
G37*
G36*
X466848Y295910D02*
X465332D01*
X463932Y295330D01*
X462860Y294258D01*
X462280Y292858D01*
Y291342D01*
X462860Y289942D01*
X463932Y288870D01*
X465332Y288290D01*
X466848D01*
X468248Y288870D01*
X469320Y289942D01*
X469900Y291342D01*
Y292858D01*
X469320Y294258D01*
X468248Y295330D01*
X466848Y295910D01*
D02*
G37*
G36*
X273808D02*
X272292D01*
X270892Y295330D01*
X269820Y294258D01*
X269240Y292858D01*
Y291342D01*
X269820Y289942D01*
X270892Y288870D01*
X272292Y288290D01*
X273808D01*
X275208Y288870D01*
X276280Y289942D01*
X276860Y291342D01*
Y292858D01*
X276280Y294258D01*
X275208Y295330D01*
X273808Y295910D01*
D02*
G37*
G36*
X80768D02*
X79252D01*
X77852Y295330D01*
X76780Y294258D01*
X76200Y292858D01*
Y291342D01*
X76780Y289942D01*
X77852Y288870D01*
X79252Y288290D01*
X80768D01*
X82168Y288870D01*
X83240Y289942D01*
X83820Y291342D01*
Y292858D01*
X83240Y294258D01*
X82168Y295330D01*
X80768Y295910D01*
D02*
G37*
G36*
X375408Y285750D02*
X373892D01*
X372492Y285170D01*
X371420Y284098D01*
X370840Y282698D01*
Y281182D01*
X371420Y279782D01*
X372492Y278710D01*
X373892Y278130D01*
X375408D01*
X376808Y278710D01*
X377880Y279782D01*
X378460Y281182D01*
Y282698D01*
X377880Y284098D01*
X376808Y285170D01*
X375408Y285750D01*
D02*
G37*
G36*
X356358D02*
X354842D01*
X353442Y285170D01*
X352370Y284098D01*
X351790Y282698D01*
Y281182D01*
X352370Y279782D01*
X353442Y278710D01*
X354842Y278130D01*
X356358D01*
X357758Y278710D01*
X358830Y279782D01*
X359410Y281182D01*
Y282698D01*
X358830Y284098D01*
X357758Y285170D01*
X356358Y285750D01*
D02*
G37*
G36*
X203958D02*
X202442D01*
X201042Y285170D01*
X199970Y284098D01*
X199390Y282698D01*
Y281182D01*
X199970Y279782D01*
X201042Y278710D01*
X202442Y278130D01*
X203958D01*
X205358Y278710D01*
X206430Y279782D01*
X207010Y281182D01*
Y282698D01*
X206430Y284098D01*
X205358Y285170D01*
X203958Y285750D01*
D02*
G37*
G36*
X165858D02*
X164342D01*
X162942Y285170D01*
X161870Y284098D01*
X161290Y282698D01*
Y281182D01*
X161870Y279782D01*
X162942Y278710D01*
X164342Y278130D01*
X165858D01*
X167258Y278710D01*
X168330Y279782D01*
X168910Y281182D01*
Y282698D01*
X168330Y284098D01*
X167258Y285170D01*
X165858Y285750D01*
D02*
G37*
G36*
X13458D02*
X11942D01*
X10542Y285170D01*
X9470Y284098D01*
X8890Y282698D01*
Y281182D01*
X9470Y279782D01*
X10542Y278710D01*
X11942Y278130D01*
X13458D01*
X14858Y278710D01*
X15930Y279782D01*
X16510Y281182D01*
Y282698D01*
X15930Y284098D01*
X14858Y285170D01*
X13458Y285750D01*
D02*
G37*
G36*
X536698Y284480D02*
X535182D01*
X533782Y283900D01*
X532710Y282828D01*
X532130Y281428D01*
Y279912D01*
X532710Y278512D01*
X533782Y277440D01*
X535182Y276860D01*
X536698D01*
X538098Y277440D01*
X539170Y278512D01*
X539750Y279912D01*
Y281428D01*
X539170Y282828D01*
X538098Y283900D01*
X536698Y284480D01*
D02*
G37*
G36*
X343658D02*
X342142D01*
X340742Y283900D01*
X339670Y282828D01*
X339090Y281428D01*
Y279912D01*
X339670Y278512D01*
X340742Y277440D01*
X342142Y276860D01*
X343658D01*
X345058Y277440D01*
X346130Y278512D01*
X346710Y279912D01*
Y281428D01*
X346130Y282828D01*
X345058Y283900D01*
X343658Y284480D01*
D02*
G37*
G36*
X150618D02*
X149102D01*
X147702Y283900D01*
X146630Y282828D01*
X146050Y281428D01*
Y279912D01*
X146630Y278512D01*
X147702Y277440D01*
X149102Y276860D01*
X150618D01*
X152018Y277440D01*
X153090Y278512D01*
X153670Y279912D01*
Y281428D01*
X153090Y282828D01*
X152018Y283900D01*
X150618Y284480D01*
D02*
G37*
G36*
X498598Y317590D02*
X497082D01*
X495682Y317010D01*
X494610Y315938D01*
X494030Y314538D01*
Y313022D01*
X494610Y311622D01*
X495657Y310575D01*
X495709Y310026D01*
X495812Y308064D01*
X495300Y306828D01*
Y305312D01*
X493142Y304220D01*
X492070Y303148D01*
X491490Y301748D01*
Y300232D01*
X492070Y298832D01*
X493142Y297760D01*
X494542Y297180D01*
X496058D01*
X497150Y295022D01*
Y292988D01*
X496570Y291588D01*
Y290072D01*
X497150Y288672D01*
X497943Y287020D01*
X497150Y285368D01*
X496570Y283968D01*
Y282452D01*
X497150Y281052D01*
X497943Y279400D01*
X497150Y277748D01*
X496570Y276348D01*
Y274832D01*
X497150Y273432D01*
X498222Y272360D01*
X499622Y271780D01*
X501138D01*
X502538Y272360D01*
X503610Y273432D01*
X504190Y274832D01*
Y276348D01*
X503610Y277748D01*
X502817Y279400D01*
X503610Y281052D01*
X504190Y282452D01*
Y283968D01*
X503610Y285368D01*
X502817Y287020D01*
X503610Y288672D01*
X504190Y290072D01*
Y291588D01*
X503610Y292988D01*
X502593Y294005D01*
X503610Y295022D01*
X504190Y296422D01*
Y297938D01*
X503610Y299338D01*
X502538Y300410D01*
X502268Y300522D01*
X501978Y301194D01*
X501765Y303337D01*
X502340Y303912D01*
X502920Y305312D01*
Y306828D01*
X502340Y308228D01*
X501293Y309275D01*
X501241Y309824D01*
X501138Y311786D01*
X501650Y313022D01*
Y314538D01*
X501070Y315938D01*
X499998Y317010D01*
X498598Y317590D01*
D02*
G37*
G36*
X305558D02*
X304042D01*
X302642Y317010D01*
X301570Y315938D01*
X300990Y314538D01*
Y313022D01*
X301570Y311622D01*
X302617Y310575D01*
X302669Y310026D01*
X302772Y308064D01*
X302260Y306828D01*
Y305312D01*
X300102Y304220D01*
X299030Y303148D01*
X298450Y301748D01*
Y300232D01*
X299030Y298832D01*
X300102Y297760D01*
X301502Y297180D01*
X303018D01*
X303636Y297436D01*
X304110Y296292D01*
X304903Y294640D01*
X304110Y292988D01*
X303530Y291588D01*
Y290072D01*
X304110Y288672D01*
X304903Y287020D01*
X304110Y285368D01*
X303530Y283968D01*
Y282452D01*
X304110Y281052D01*
X304903Y279400D01*
X304110Y277748D01*
X303530Y276348D01*
Y274832D01*
X304110Y273432D01*
X305182Y272360D01*
X306582Y271780D01*
X308098D01*
X309498Y272360D01*
X310570Y273432D01*
X311150Y274832D01*
Y276348D01*
X310570Y277748D01*
X309777Y279400D01*
X310570Y281052D01*
X311150Y282452D01*
Y283968D01*
X310570Y285368D01*
X309777Y287020D01*
X310570Y288672D01*
X311150Y290072D01*
Y291588D01*
X310570Y292988D01*
X309777Y294640D01*
X310570Y296292D01*
X311150Y297692D01*
Y299208D01*
X310570Y300608D01*
X309498Y301680D01*
X309300Y303912D01*
X309880Y305312D01*
Y306828D01*
X309300Y308228D01*
X308253Y309275D01*
X308201Y309824D01*
X308098Y311786D01*
X308610Y313022D01*
Y314538D01*
X308030Y315938D01*
X306958Y317010D01*
X305558Y317590D01*
D02*
G37*
G36*
X112518D02*
X111002D01*
X109602Y317010D01*
X108530Y315938D01*
X107950Y314538D01*
Y313022D01*
X108530Y311622D01*
X109577Y310575D01*
X109629Y310026D01*
X109732Y308064D01*
X109220Y306828D01*
Y305312D01*
X107062Y304220D01*
X105990Y303148D01*
X105410Y301748D01*
Y300232D01*
X105990Y298832D01*
X107062Y297760D01*
X108462Y297180D01*
X109978D01*
X110596Y297436D01*
X111070Y296292D01*
X111863Y294640D01*
X111070Y292988D01*
X110490Y291588D01*
Y290072D01*
X111070Y288672D01*
X111863Y287020D01*
X111070Y285368D01*
X110490Y283968D01*
Y282452D01*
X111070Y281052D01*
X111863Y279400D01*
X111070Y277748D01*
X110490Y276348D01*
Y274832D01*
X111070Y273432D01*
X112142Y272360D01*
X113542Y271780D01*
X115058D01*
X116458Y272360D01*
X117530Y273432D01*
X118110Y274832D01*
Y276348D01*
X117530Y277748D01*
X116737Y279400D01*
X117530Y281052D01*
X118110Y282452D01*
Y283968D01*
X117530Y285368D01*
X116737Y287020D01*
X117530Y288672D01*
X118110Y290072D01*
Y291588D01*
X117530Y292988D01*
X116737Y294640D01*
X117530Y296292D01*
X118110Y297692D01*
Y299208D01*
X117530Y300608D01*
X116458Y301680D01*
X116260Y303912D01*
X116840Y305312D01*
Y306828D01*
X116260Y308228D01*
X115213Y309275D01*
X115161Y309824D01*
X115058Y311786D01*
X115570Y313022D01*
Y314538D01*
X114990Y315938D01*
X113918Y317010D01*
X112518Y317590D01*
D02*
G37*
G36*
X446528Y274320D02*
X445012D01*
X443612Y273740D01*
X442540Y272668D01*
X441960Y271268D01*
Y269752D01*
X442540Y268352D01*
X443612Y267280D01*
X443810Y265048D01*
X443230Y263648D01*
Y262132D01*
X443810Y260732D01*
X444882Y259660D01*
X446282Y259080D01*
X447798D01*
X449198Y259660D01*
X450270Y260732D01*
X450850Y262132D01*
Y263648D01*
X450270Y265048D01*
X449198Y266120D01*
X449000Y268352D01*
X449580Y269752D01*
Y271268D01*
X449000Y272668D01*
X447928Y273740D01*
X446528Y274320D01*
D02*
G37*
G36*
X365883Y266700D02*
X364367D01*
X362967Y266120D01*
X361895Y265048D01*
X361315Y263648D01*
Y262132D01*
X361895Y260732D01*
X362967Y259660D01*
X364367Y259080D01*
X365883D01*
X367283Y259660D01*
X368355Y260732D01*
X368935Y262132D01*
Y263648D01*
X368355Y265048D01*
X367283Y266120D01*
X365883Y266700D01*
D02*
G37*
G36*
X308733D02*
X307217D01*
X305817Y266120D01*
X304745Y265048D01*
X304165Y263648D01*
Y262132D01*
X304745Y260732D01*
X305817Y259660D01*
X307217Y259080D01*
X308733D01*
X310133Y259660D01*
X311205Y260732D01*
X311785Y262132D01*
Y263648D01*
X311205Y265048D01*
X310133Y266120D01*
X308733Y266700D01*
D02*
G37*
G36*
X253488Y274320D02*
X251972D01*
X250572Y273740D01*
X249500Y272668D01*
X248920Y271268D01*
Y269752D01*
X249500Y268352D01*
X250572Y267280D01*
X250770Y265048D01*
X250190Y263648D01*
Y262132D01*
X250770Y260732D01*
X251842Y259660D01*
X253242Y259080D01*
X254758D01*
X256158Y259660D01*
X257230Y260732D01*
X257810Y262132D01*
Y263648D01*
X257230Y265048D01*
X256158Y266120D01*
X255960Y268352D01*
X256540Y269752D01*
Y271268D01*
X255960Y272668D01*
X254888Y273740D01*
X253488Y274320D01*
D02*
G37*
G36*
X175383Y266700D02*
X173867D01*
X172467Y266120D01*
X171395Y265048D01*
X170815Y263648D01*
Y262132D01*
X171395Y260732D01*
X172467Y259660D01*
X173867Y259080D01*
X175383D01*
X176783Y259660D01*
X177855Y260732D01*
X178435Y262132D01*
Y263648D01*
X177855Y265048D01*
X176783Y266120D01*
X175383Y266700D01*
D02*
G37*
G36*
X60448Y274320D02*
X58932D01*
X57532Y273740D01*
X56460Y272668D01*
X55880Y271268D01*
Y269752D01*
X56460Y268352D01*
X57532Y267280D01*
X57730Y265048D01*
X57150Y263648D01*
Y262132D01*
X57730Y260732D01*
X58802Y259660D01*
X60202Y259080D01*
X61718D01*
X63118Y259660D01*
X64190Y260732D01*
X64770Y262132D01*
Y263648D01*
X64190Y265048D01*
X63118Y266120D01*
X62920Y268352D01*
X63500Y269752D01*
Y271268D01*
X62920Y272668D01*
X61848Y273740D01*
X60448Y274320D01*
D02*
G37*
G36*
X403348Y273050D02*
X401832D01*
X400432Y272470D01*
X399360Y271398D01*
X398780Y269998D01*
Y268482D01*
X399360Y267082D01*
X400153Y265430D01*
X399360Y263778D01*
X398780Y262378D01*
Y260862D01*
X399360Y259462D01*
X400153Y257810D01*
X399360Y256158D01*
X398780Y254758D01*
Y253242D01*
X399360Y251842D01*
X400432Y250770D01*
X401832Y250190D01*
X403348D01*
X404748Y250770D01*
X405820Y251842D01*
X406400Y253242D01*
Y254758D01*
X405820Y256158D01*
X405027Y257810D01*
X405820Y259462D01*
X406400Y260862D01*
Y262378D01*
X405820Y263778D01*
X405027Y265430D01*
X405820Y267082D01*
X406400Y268482D01*
Y269998D01*
X405820Y271398D01*
X404748Y272470D01*
X403348Y273050D01*
D02*
G37*
G36*
X207768D02*
X206252D01*
X204852Y272470D01*
X203780Y271398D01*
X203200Y269998D01*
Y268482D01*
X203780Y267082D01*
X204573Y265430D01*
X203780Y263778D01*
X203200Y262378D01*
Y260862D01*
X203780Y259462D01*
X204573Y257810D01*
X203780Y256158D01*
X203200Y254758D01*
Y253242D01*
X203780Y251842D01*
X204852Y250770D01*
X206252Y250190D01*
X207768D01*
X209168Y250770D01*
X210240Y251842D01*
X210820Y253242D01*
Y254758D01*
X210240Y256158D01*
X209447Y257810D01*
X210240Y259462D01*
X210820Y260862D01*
Y262378D01*
X210240Y263778D01*
X209447Y265430D01*
X210240Y267082D01*
X210820Y268482D01*
Y269998D01*
X210240Y271398D01*
X209168Y272470D01*
X207768Y273050D01*
D02*
G37*
G36*
X14728D02*
X13212D01*
X11812Y272470D01*
X10740Y271398D01*
X10160Y269998D01*
Y268482D01*
X10740Y267082D01*
X11533Y265430D01*
X10740Y263778D01*
X10160Y262378D01*
Y260862D01*
X10740Y259462D01*
X11533Y257810D01*
X10740Y256158D01*
X10160Y254758D01*
Y253242D01*
X10740Y251842D01*
X11812Y250770D01*
X13212Y250190D01*
X14728D01*
X16128Y250770D01*
X17200Y251842D01*
X17780Y253242D01*
Y254758D01*
X17200Y256158D01*
X16407Y257810D01*
X17200Y259462D01*
X17780Y260862D01*
Y262378D01*
X17200Y263778D01*
X16407Y265430D01*
X17200Y267082D01*
X17780Y268482D01*
Y269998D01*
X17200Y271398D01*
X16128Y272470D01*
X14728Y273050D01*
D02*
G37*
G36*
X375408Y247650D02*
X373892D01*
X372492Y247070D01*
X371420Y245998D01*
X370840Y244598D01*
Y243082D01*
X371420Y241682D01*
X372492Y240610D01*
X373892Y240030D01*
X375408D01*
X376808Y240610D01*
X377880Y241682D01*
X378460Y243082D01*
Y244598D01*
X377880Y245998D01*
X376808Y247070D01*
X375408Y247650D01*
D02*
G37*
G36*
X356358D02*
X354842D01*
X353442Y247070D01*
X352370Y245998D01*
X351790Y244598D01*
Y243082D01*
X352370Y241682D01*
X353442Y240610D01*
X354842Y240030D01*
X356358D01*
X357758Y240610D01*
X358830Y241682D01*
X359410Y243082D01*
Y244598D01*
X358830Y245998D01*
X357758Y247070D01*
X356358Y247650D01*
D02*
G37*
G36*
X203958D02*
X202442D01*
X201042Y247070D01*
X199970Y245998D01*
X199390Y244598D01*
Y243082D01*
X199970Y241682D01*
X201042Y240610D01*
X202442Y240030D01*
X203958D01*
X205358Y240610D01*
X206430Y241682D01*
X207010Y243082D01*
Y244598D01*
X206430Y245998D01*
X205358Y247070D01*
X203958Y247650D01*
D02*
G37*
G36*
X165858D02*
X164342D01*
X162942Y247070D01*
X161870Y245998D01*
X161290Y244598D01*
Y243082D01*
X161870Y241682D01*
X162942Y240610D01*
X164342Y240030D01*
X165858D01*
X167258Y240610D01*
X168330Y241682D01*
X168910Y243082D01*
Y244598D01*
X168330Y245998D01*
X167258Y247070D01*
X165858Y247650D01*
D02*
G37*
G36*
X13458D02*
X11942D01*
X10542Y247070D01*
X9470Y245998D01*
X8890Y244598D01*
Y243082D01*
X9470Y241682D01*
X10542Y240610D01*
X11942Y240030D01*
X13458D01*
X14858Y240610D01*
X15930Y241682D01*
X16510Y243082D01*
Y244598D01*
X15930Y245998D01*
X14858Y247070D01*
X13458Y247650D01*
D02*
G37*
G36*
X530348Y246380D02*
X528832D01*
X527432Y245800D01*
X526360Y244728D01*
X525780Y243328D01*
Y241812D01*
X526360Y240412D01*
X527432Y239340D01*
X528832Y238760D01*
X530348D01*
X531748Y239340D01*
X532820Y240412D01*
X533400Y241812D01*
Y243328D01*
X532820Y244728D01*
X531748Y245800D01*
X530348Y246380D01*
D02*
G37*
G36*
X337308D02*
X335792D01*
X334392Y245800D01*
X333320Y244728D01*
X332740Y243328D01*
Y241812D01*
X333320Y240412D01*
X334392Y239340D01*
X335792Y238760D01*
X337308D01*
X338708Y239340D01*
X339780Y240412D01*
X340360Y241812D01*
Y243328D01*
X339780Y244728D01*
X338708Y245800D01*
X337308Y246380D01*
D02*
G37*
G36*
X144268D02*
X142752D01*
X141352Y245800D01*
X140280Y244728D01*
X139700Y243328D01*
Y241812D01*
X140280Y240412D01*
X141352Y239340D01*
X142752Y238760D01*
X144268D01*
X145668Y239340D01*
X146740Y240412D01*
X147320Y241812D01*
Y243328D01*
X146740Y244728D01*
X145668Y245800D01*
X144268Y246380D01*
D02*
G37*
G36*
X537333Y228600D02*
X535817D01*
X534417Y228020D01*
X533345Y226948D01*
X532765Y225548D01*
Y224032D01*
X533345Y222632D01*
X534417Y221560D01*
X535817Y220980D01*
X537333D01*
X538733Y221560D01*
X539805Y222632D01*
X540385Y224032D01*
Y225548D01*
X539805Y226948D01*
X538733Y228020D01*
X537333Y228600D01*
D02*
G37*
G36*
X442083D02*
X440567D01*
X439167Y228020D01*
X438095Y226948D01*
X437515Y225548D01*
Y224032D01*
X438095Y222632D01*
X439167Y221560D01*
X440567Y220980D01*
X442083D01*
X443483Y221560D01*
X444555Y222632D01*
X445135Y224032D01*
Y225548D01*
X444555Y226948D01*
X443483Y228020D01*
X442083Y228600D01*
D02*
G37*
G36*
X423033D02*
X421517D01*
X420117Y228020D01*
X419045Y226948D01*
X418465Y225548D01*
Y224032D01*
X419045Y222632D01*
X420117Y221560D01*
X421517Y220980D01*
X423033D01*
X424433Y221560D01*
X425505Y222632D01*
X426085Y224032D01*
Y225548D01*
X425505Y226948D01*
X424433Y228020D01*
X423033Y228600D01*
D02*
G37*
G36*
X403983D02*
X402467D01*
X401067Y228020D01*
X399995Y226948D01*
X399415Y225548D01*
Y224032D01*
X399995Y222632D01*
X401067Y221560D01*
X402467Y220980D01*
X403983D01*
X405383Y221560D01*
X406455Y222632D01*
X407035Y224032D01*
Y225548D01*
X406455Y226948D01*
X405383Y228020D01*
X403983Y228600D01*
D02*
G37*
G36*
X365883D02*
X364367D01*
X362967Y228020D01*
X361895Y226948D01*
X361315Y225548D01*
Y224032D01*
X361895Y222632D01*
X362967Y221560D01*
X364367Y220980D01*
X365883D01*
X367283Y221560D01*
X368355Y222632D01*
X368935Y224032D01*
Y225548D01*
X368355Y226948D01*
X367283Y228020D01*
X365883Y228600D01*
D02*
G37*
G36*
X346833D02*
X345317D01*
X343917Y228020D01*
X342845Y226948D01*
X342265Y225548D01*
Y224032D01*
X342845Y222632D01*
X343917Y221560D01*
X345317Y220980D01*
X346833D01*
X348233Y221560D01*
X349305Y222632D01*
X349885Y224032D01*
Y225548D01*
X349305Y226948D01*
X348233Y228020D01*
X346833Y228600D01*
D02*
G37*
G36*
X251583D02*
X250067D01*
X248667Y228020D01*
X247595Y226948D01*
X247015Y225548D01*
Y224032D01*
X247595Y222632D01*
X248667Y221560D01*
X250067Y220980D01*
X251583D01*
X252983Y221560D01*
X254055Y222632D01*
X254635Y224032D01*
Y225548D01*
X254055Y226948D01*
X252983Y228020D01*
X251583Y228600D01*
D02*
G37*
G36*
X232533D02*
X231017D01*
X229617Y228020D01*
X228545Y226948D01*
X227965Y225548D01*
Y224032D01*
X228545Y222632D01*
X229617Y221560D01*
X231017Y220980D01*
X232533D01*
X233933Y221560D01*
X235005Y222632D01*
X235585Y224032D01*
Y225548D01*
X235005Y226948D01*
X233933Y228020D01*
X232533Y228600D01*
D02*
G37*
G36*
X213483D02*
X211967D01*
X210567Y228020D01*
X209495Y226948D01*
X208915Y225548D01*
Y224032D01*
X209495Y222632D01*
X210567Y221560D01*
X211967Y220980D01*
X213483D01*
X214883Y221560D01*
X215955Y222632D01*
X216535Y224032D01*
Y225548D01*
X215955Y226948D01*
X214883Y228020D01*
X213483Y228600D01*
D02*
G37*
G36*
X175383D02*
X173867D01*
X172467Y228020D01*
X171395Y226948D01*
X170815Y225548D01*
Y224032D01*
X171395Y222632D01*
X172467Y221560D01*
X173867Y220980D01*
X175383D01*
X176783Y221560D01*
X177855Y222632D01*
X178435Y224032D01*
Y225548D01*
X177855Y226948D01*
X176783Y228020D01*
X175383Y228600D01*
D02*
G37*
G36*
X156333D02*
X154817D01*
X153417Y228020D01*
X152345Y226948D01*
X151765Y225548D01*
Y224032D01*
X152345Y222632D01*
X153417Y221560D01*
X154817Y220980D01*
X156333D01*
X157733Y221560D01*
X158805Y222632D01*
X159385Y224032D01*
Y225548D01*
X158805Y226948D01*
X157733Y228020D01*
X156333Y228600D01*
D02*
G37*
G36*
X137283D02*
X135767D01*
X134367Y228020D01*
X133295Y226948D01*
X132715Y225548D01*
Y224032D01*
X133295Y222632D01*
X134367Y221560D01*
X135767Y220980D01*
X137283D01*
X138683Y221560D01*
X139755Y222632D01*
X140335Y224032D01*
Y225548D01*
X139755Y226948D01*
X138683Y228020D01*
X137283Y228600D01*
D02*
G37*
G36*
X42033D02*
X40517D01*
X39117Y228020D01*
X38045Y226948D01*
X37465Y225548D01*
Y224032D01*
X38045Y222632D01*
X39117Y221560D01*
X40517Y220980D01*
X42033D01*
X43433Y221560D01*
X44505Y222632D01*
X45085Y224032D01*
Y225548D01*
X44505Y226948D01*
X43433Y228020D01*
X42033Y228600D01*
D02*
G37*
G36*
X527808Y209550D02*
X526292D01*
X524892Y208970D01*
X523820Y207898D01*
X523240Y206498D01*
Y204982D01*
X523820Y203582D01*
X524892Y202510D01*
X526292Y201930D01*
X527808D01*
X529208Y202510D01*
X530280Y203582D01*
X530860Y204982D01*
Y206498D01*
X530280Y207898D01*
X529208Y208970D01*
X527808Y209550D01*
D02*
G37*
G36*
X413508D02*
X411992D01*
X410592Y208970D01*
X409520Y207898D01*
X408940Y206498D01*
Y204982D01*
X409520Y203582D01*
X410592Y202510D01*
X411992Y201930D01*
X413508D01*
X414908Y202510D01*
X415980Y203582D01*
X416560Y204982D01*
Y206498D01*
X415980Y207898D01*
X414908Y208970D01*
X413508Y209550D01*
D02*
G37*
G36*
X394458D02*
X392942D01*
X391542Y208970D01*
X390470Y207898D01*
X389890Y206498D01*
Y204982D01*
X390470Y203582D01*
X391542Y202510D01*
X392942Y201930D01*
X394458D01*
X395858Y202510D01*
X396930Y203582D01*
X397510Y204982D01*
Y206498D01*
X396930Y207898D01*
X395858Y208970D01*
X394458Y209550D01*
D02*
G37*
G36*
X356358D02*
X354842D01*
X353442Y208970D01*
X352370Y207898D01*
X351790Y206498D01*
Y204982D01*
X352370Y203582D01*
X353442Y202510D01*
X354842Y201930D01*
X356358D01*
X357758Y202510D01*
X358830Y203582D01*
X359410Y204982D01*
Y206498D01*
X358830Y207898D01*
X357758Y208970D01*
X356358Y209550D01*
D02*
G37*
G36*
X337308D02*
X335792D01*
X334392Y208970D01*
X333320Y207898D01*
X332740Y206498D01*
Y204982D01*
X333320Y203582D01*
X334392Y202510D01*
X335792Y201930D01*
X337308D01*
X338708Y202510D01*
X339780Y203582D01*
X340360Y204982D01*
Y206498D01*
X339780Y207898D01*
X338708Y208970D01*
X337308Y209550D01*
D02*
G37*
G36*
X223008D02*
X221492D01*
X220092Y208970D01*
X219020Y207898D01*
X218440Y206498D01*
Y204982D01*
X219020Y203582D01*
X220092Y202510D01*
X221492Y201930D01*
X223008D01*
X224408Y202510D01*
X225480Y203582D01*
X226060Y204982D01*
Y206498D01*
X225480Y207898D01*
X224408Y208970D01*
X223008Y209550D01*
D02*
G37*
G36*
X203958D02*
X202442D01*
X201042Y208970D01*
X199970Y207898D01*
X199390Y206498D01*
Y204982D01*
X199970Y203582D01*
X201042Y202510D01*
X202442Y201930D01*
X203958D01*
X205358Y202510D01*
X206430Y203582D01*
X207010Y204982D01*
Y206498D01*
X206430Y207898D01*
X205358Y208970D01*
X203958Y209550D01*
D02*
G37*
G36*
X165858D02*
X164342D01*
X162942Y208970D01*
X161870Y207898D01*
X161290Y206498D01*
Y204982D01*
X161870Y203582D01*
X162942Y202510D01*
X164342Y201930D01*
X165858D01*
X167258Y202510D01*
X168330Y203582D01*
X168910Y204982D01*
Y206498D01*
X168330Y207898D01*
X167258Y208970D01*
X165858Y209550D01*
D02*
G37*
G36*
X146808D02*
X145292D01*
X143892Y208970D01*
X142820Y207898D01*
X142240Y206498D01*
Y204982D01*
X142820Y203582D01*
X143892Y202510D01*
X145292Y201930D01*
X146808D01*
X148208Y202510D01*
X149280Y203582D01*
X149860Y204982D01*
Y206498D01*
X149280Y207898D01*
X148208Y208970D01*
X146808Y209550D01*
D02*
G37*
G36*
X13458D02*
X11942D01*
X10542Y208970D01*
X9470Y207898D01*
X8890Y206498D01*
Y204982D01*
X9470Y203582D01*
X10542Y202510D01*
X11942Y201930D01*
X13458D01*
X14858Y202510D01*
X15930Y203582D01*
X16510Y204982D01*
Y206498D01*
X15930Y207898D01*
X14858Y208970D01*
X13458Y209550D01*
D02*
G37*
G36*
X490978Y204470D02*
X489462D01*
X488062Y203890D01*
X486990Y202818D01*
X486410Y201418D01*
Y199902D01*
X486990Y198502D01*
X488062Y197430D01*
X489462Y196850D01*
X490978D01*
X492378Y197430D01*
X493450Y198502D01*
X494030Y199902D01*
Y201418D01*
X493450Y202818D01*
X492378Y203890D01*
X490978Y204470D01*
D02*
G37*
G36*
X475738D02*
X474222D01*
X472822Y203890D01*
X471750Y202818D01*
X471170Y201418D01*
Y199902D01*
X471750Y198502D01*
X472822Y197430D01*
X474222Y196850D01*
X475738D01*
X477138Y197430D01*
X478210Y198502D01*
X478790Y199902D01*
Y201418D01*
X478210Y202818D01*
X477138Y203890D01*
X475738Y204470D01*
D02*
G37*
G36*
X297938D02*
X296422D01*
X295022Y203890D01*
X293950Y202818D01*
X293370Y201418D01*
Y199902D01*
X293950Y198502D01*
X295022Y197430D01*
X296422Y196850D01*
X297938D01*
X299338Y197430D01*
X300410Y198502D01*
X300990Y199902D01*
Y201418D01*
X300410Y202818D01*
X299338Y203890D01*
X297938Y204470D01*
D02*
G37*
G36*
X282698D02*
X281182D01*
X279782Y203890D01*
X278710Y202818D01*
X278130Y201418D01*
Y199902D01*
X278710Y198502D01*
X279782Y197430D01*
X281182Y196850D01*
X282698D01*
X284098Y197430D01*
X285170Y198502D01*
X285750Y199902D01*
Y201418D01*
X285170Y202818D01*
X284098Y203890D01*
X282698Y204470D01*
D02*
G37*
G36*
X104898D02*
X103382D01*
X101982Y203890D01*
X100910Y202818D01*
X100330Y201418D01*
Y199902D01*
X100910Y198502D01*
X101982Y197430D01*
X103382Y196850D01*
X104898D01*
X106298Y197430D01*
X107370Y198502D01*
X107950Y199902D01*
Y201418D01*
X107370Y202818D01*
X106298Y203890D01*
X104898Y204470D01*
D02*
G37*
G36*
X89658D02*
X88142D01*
X86742Y203890D01*
X85670Y202818D01*
X85090Y201418D01*
Y199902D01*
X85670Y198502D01*
X86742Y197430D01*
X88142Y196850D01*
X89658D01*
X91058Y197430D01*
X92130Y198502D01*
X92710Y199902D01*
Y201418D01*
X92130Y202818D01*
X91058Y203890D01*
X89658Y204470D01*
D02*
G37*
G36*
X220468Y199390D02*
X218952D01*
X217552Y198810D01*
X216480Y197738D01*
X215900Y196338D01*
Y194822D01*
X216480Y193422D01*
X217552Y192350D01*
X218952Y191770D01*
X220468D01*
X221868Y192350D01*
X222940Y193422D01*
X223520Y194822D01*
Y196338D01*
X222940Y197738D01*
X221868Y198810D01*
X220468Y199390D01*
D02*
G37*
G36*
X518283Y190500D02*
X516767D01*
X515367Y189920D01*
X514295Y188848D01*
X513715Y187448D01*
Y185932D01*
X514295Y184532D01*
X515367Y183460D01*
X516767Y182880D01*
X518283D01*
X519683Y183460D01*
X520755Y184532D01*
X521335Y185932D01*
Y187448D01*
X520755Y188848D01*
X519683Y189920D01*
X518283Y190500D01*
D02*
G37*
G36*
X499233D02*
X497717D01*
X496317Y189920D01*
X495245Y188848D01*
X494665Y187448D01*
Y185932D01*
X495245Y184532D01*
X496317Y183460D01*
X497717Y182880D01*
X499233D01*
X500633Y183460D01*
X501705Y184532D01*
X502285Y185932D01*
Y187448D01*
X501705Y188848D01*
X500633Y189920D01*
X499233Y190500D01*
D02*
G37*
G36*
X461133D02*
X459617D01*
X458217Y189920D01*
X457145Y188848D01*
X456565Y187448D01*
Y185932D01*
X457145Y184532D01*
X458217Y183460D01*
X459617Y182880D01*
X461133D01*
X462533Y183460D01*
X463605Y184532D01*
X464185Y185932D01*
Y187448D01*
X463605Y188848D01*
X462533Y189920D01*
X461133Y190500D01*
D02*
G37*
G36*
X442083D02*
X440567D01*
X439167Y189920D01*
X438095Y188848D01*
X437515Y187448D01*
Y185932D01*
X438095Y184532D01*
X439167Y183460D01*
X440567Y182880D01*
X442083D01*
X443483Y183460D01*
X444555Y184532D01*
X445135Y185932D01*
Y187448D01*
X444555Y188848D01*
X443483Y189920D01*
X442083Y190500D01*
D02*
G37*
G36*
X423033D02*
X421517D01*
X420117Y189920D01*
X419045Y188848D01*
X418465Y187448D01*
Y185932D01*
X419045Y184532D01*
X420117Y183460D01*
X421517Y182880D01*
X423033D01*
X424433Y183460D01*
X425505Y184532D01*
X426085Y185932D01*
Y187448D01*
X425505Y188848D01*
X424433Y189920D01*
X423033Y190500D01*
D02*
G37*
G36*
X403983D02*
X402467D01*
X401067Y189920D01*
X399995Y188848D01*
X399415Y187448D01*
Y185932D01*
X399995Y184532D01*
X401067Y183460D01*
X402467Y182880D01*
X403983D01*
X405383Y183460D01*
X406455Y184532D01*
X407035Y185932D01*
Y187448D01*
X406455Y188848D01*
X405383Y189920D01*
X403983Y190500D01*
D02*
G37*
G36*
X365883D02*
X364367D01*
X362967Y189920D01*
X361895Y188848D01*
X361315Y187448D01*
Y185932D01*
X361895Y184532D01*
X362967Y183460D01*
X364367Y182880D01*
X365883D01*
X367283Y183460D01*
X368355Y184532D01*
X368935Y185932D01*
Y187448D01*
X368355Y188848D01*
X367283Y189920D01*
X365883Y190500D01*
D02*
G37*
G36*
X327783D02*
X326267D01*
X324867Y189920D01*
X323795Y188848D01*
X323215Y187448D01*
Y185932D01*
X323795Y184532D01*
X324867Y183460D01*
X326267Y182880D01*
X327783D01*
X329183Y183460D01*
X330255Y184532D01*
X330835Y185932D01*
Y187448D01*
X330255Y188848D01*
X329183Y189920D01*
X327783Y190500D01*
D02*
G37*
G36*
X270633D02*
X269117D01*
X267717Y189920D01*
X266645Y188848D01*
X266065Y187448D01*
Y185932D01*
X266645Y184532D01*
X267717Y183460D01*
X269117Y182880D01*
X270633D01*
X272033Y183460D01*
X273105Y184532D01*
X273685Y185932D01*
Y187448D01*
X273105Y188848D01*
X272033Y189920D01*
X270633Y190500D01*
D02*
G37*
G36*
X251583D02*
X250067D01*
X248667Y189920D01*
X247595Y188848D01*
X247015Y187448D01*
Y185932D01*
X247595Y184532D01*
X248667Y183460D01*
X250067Y182880D01*
X251583D01*
X252983Y183460D01*
X254055Y184532D01*
X254635Y185932D01*
Y187448D01*
X254055Y188848D01*
X252983Y189920D01*
X251583Y190500D01*
D02*
G37*
G36*
X175383D02*
X173867D01*
X172467Y189920D01*
X171395Y188848D01*
X170815Y187448D01*
Y185932D01*
X171395Y184532D01*
X172467Y183460D01*
X173867Y182880D01*
X175383D01*
X176783Y183460D01*
X177855Y184532D01*
X178435Y185932D01*
Y187448D01*
X177855Y188848D01*
X176783Y189920D01*
X175383Y190500D01*
D02*
G37*
G36*
X156333D02*
X154817D01*
X153417Y189920D01*
X152345Y188848D01*
X151765Y187448D01*
Y185932D01*
X152345Y184532D01*
X153417Y183460D01*
X154817Y182880D01*
X156333D01*
X157733Y183460D01*
X158805Y184532D01*
X159385Y185932D01*
Y187448D01*
X158805Y188848D01*
X157733Y189920D01*
X156333Y190500D01*
D02*
G37*
G36*
X137283D02*
X135767D01*
X134367Y189920D01*
X133295Y188848D01*
X132715Y187448D01*
Y185932D01*
X133295Y184532D01*
X134367Y183460D01*
X135767Y182880D01*
X137283D01*
X138683Y183460D01*
X139755Y184532D01*
X140335Y185932D01*
Y187448D01*
X139755Y188848D01*
X138683Y189920D01*
X137283Y190500D01*
D02*
G37*
G36*
X118233D02*
X116717D01*
X115317Y189920D01*
X114245Y188848D01*
X113665Y187448D01*
Y185932D01*
X114245Y184532D01*
X115317Y183460D01*
X116717Y182880D01*
X118233D01*
X119633Y183460D01*
X120705Y184532D01*
X121285Y185932D01*
Y187448D01*
X120705Y188848D01*
X119633Y189920D01*
X118233Y190500D01*
D02*
G37*
G36*
X80133D02*
X78617D01*
X77217Y189920D01*
X76145Y188848D01*
X75565Y187448D01*
Y185932D01*
X76145Y184532D01*
X77217Y183460D01*
X78617Y182880D01*
X80133D01*
X81533Y183460D01*
X82605Y184532D01*
X83185Y185932D01*
Y187448D01*
X82605Y188848D01*
X81533Y189920D01*
X80133Y190500D01*
D02*
G37*
G36*
X61083D02*
X59567D01*
X58167Y189920D01*
X57095Y188848D01*
X56515Y187448D01*
Y185932D01*
X57095Y184532D01*
X58167Y183460D01*
X59567Y182880D01*
X61083D01*
X62483Y183460D01*
X63555Y184532D01*
X64135Y185932D01*
Y187448D01*
X63555Y188848D01*
X62483Y189920D01*
X61083Y190500D01*
D02*
G37*
G36*
X42033D02*
X40517D01*
X39117Y189920D01*
X38045Y188848D01*
X37465Y187448D01*
Y185932D01*
X38045Y184532D01*
X39117Y183460D01*
X40517Y182880D01*
X42033D01*
X43433Y183460D01*
X44505Y184532D01*
X45085Y185932D01*
Y187448D01*
X44505Y188848D01*
X43433Y189920D01*
X42033Y190500D01*
D02*
G37*
G36*
X508758Y171450D02*
X507242D01*
X505842Y170870D01*
X504770Y169798D01*
X504190Y168398D01*
Y166882D01*
X504770Y165482D01*
X505842Y164410D01*
X507242Y163830D01*
X508758D01*
X510158Y164410D01*
X511230Y165482D01*
X511810Y166882D01*
Y168398D01*
X511230Y169798D01*
X510158Y170870D01*
X508758Y171450D01*
D02*
G37*
G36*
X489708D02*
X488192D01*
X486792Y170870D01*
X485720Y169798D01*
X485140Y168398D01*
Y166882D01*
X485720Y165482D01*
X486792Y164410D01*
X488192Y163830D01*
X489708D01*
X491108Y164410D01*
X492180Y165482D01*
X492760Y166882D01*
Y168398D01*
X492180Y169798D01*
X491108Y170870D01*
X489708Y171450D01*
D02*
G37*
G36*
X470658D02*
X469142D01*
X467742Y170870D01*
X466670Y169798D01*
X466090Y168398D01*
Y166882D01*
X466670Y165482D01*
X467742Y164410D01*
X469142Y163830D01*
X470658D01*
X472058Y164410D01*
X473130Y165482D01*
X473710Y166882D01*
Y168398D01*
X473130Y169798D01*
X472058Y170870D01*
X470658Y171450D01*
D02*
G37*
G36*
X432558D02*
X431042D01*
X429642Y170870D01*
X428570Y169798D01*
X427990Y168398D01*
Y166882D01*
X428570Y165482D01*
X429642Y164410D01*
X431042Y163830D01*
X432558D01*
X433958Y164410D01*
X435030Y165482D01*
X435610Y166882D01*
Y168398D01*
X435030Y169798D01*
X433958Y170870D01*
X432558Y171450D01*
D02*
G37*
G36*
X413508D02*
X411992D01*
X410592Y170870D01*
X409520Y169798D01*
X408940Y168398D01*
Y166882D01*
X409520Y165482D01*
X410592Y164410D01*
X411992Y163830D01*
X413508D01*
X414908Y164410D01*
X415980Y165482D01*
X416560Y166882D01*
Y168398D01*
X415980Y169798D01*
X414908Y170870D01*
X413508Y171450D01*
D02*
G37*
G36*
X184908D02*
X183392D01*
X181992Y170870D01*
X180920Y169798D01*
X180340Y168398D01*
Y166882D01*
X180920Y165482D01*
X181992Y164410D01*
X183392Y163830D01*
X184908D01*
X186308Y164410D01*
X187380Y165482D01*
X187960Y166882D01*
Y168398D01*
X187380Y169798D01*
X186308Y170870D01*
X184908Y171450D01*
D02*
G37*
G36*
X165858D02*
X164342D01*
X162942Y170870D01*
X161870Y169798D01*
X161290Y168398D01*
Y166882D01*
X161870Y165482D01*
X162942Y164410D01*
X164342Y163830D01*
X165858D01*
X167258Y164410D01*
X168330Y165482D01*
X168910Y166882D01*
Y168398D01*
X168330Y169798D01*
X167258Y170870D01*
X165858Y171450D01*
D02*
G37*
G36*
X146808D02*
X145292D01*
X143892Y170870D01*
X142820Y169798D01*
X142240Y168398D01*
Y166882D01*
X142820Y165482D01*
X143892Y164410D01*
X145292Y163830D01*
X146808D01*
X148208Y164410D01*
X149280Y165482D01*
X149860Y166882D01*
Y168398D01*
X149280Y169798D01*
X148208Y170870D01*
X146808Y171450D01*
D02*
G37*
G36*
X108708D02*
X107192D01*
X105792Y170870D01*
X104720Y169798D01*
X104140Y168398D01*
Y166882D01*
X104720Y165482D01*
X105792Y164410D01*
X107192Y163830D01*
X108708D01*
X110108Y164410D01*
X111180Y165482D01*
X111760Y166882D01*
Y168398D01*
X111180Y169798D01*
X110108Y170870D01*
X108708Y171450D01*
D02*
G37*
G36*
X89658D02*
X88142D01*
X86742Y170870D01*
X85670Y169798D01*
X85090Y168398D01*
Y166882D01*
X85670Y165482D01*
X86742Y164410D01*
X88142Y163830D01*
X89658D01*
X91058Y164410D01*
X92130Y165482D01*
X92710Y166882D01*
Y168398D01*
X92130Y169798D01*
X91058Y170870D01*
X89658Y171450D01*
D02*
G37*
G36*
X70608D02*
X69092D01*
X67692Y170870D01*
X66620Y169798D01*
X66040Y168398D01*
Y166882D01*
X66620Y165482D01*
X67692Y164410D01*
X69092Y163830D01*
X70608D01*
X72008Y164410D01*
X73080Y165482D01*
X73660Y166882D01*
Y168398D01*
X73080Y169798D01*
X72008Y170870D01*
X70608Y171450D01*
D02*
G37*
G36*
X51558D02*
X50042D01*
X48642Y170870D01*
X47570Y169798D01*
X46990Y168398D01*
Y166882D01*
X47570Y165482D01*
X48642Y164410D01*
X50042Y163830D01*
X51558D01*
X52958Y164410D01*
X54030Y165482D01*
X54610Y166882D01*
Y168398D01*
X54030Y169798D01*
X52958Y170870D01*
X51558Y171450D01*
D02*
G37*
G36*
X13458D02*
X11942D01*
X10542Y170870D01*
X9470Y169798D01*
X8890Y168398D01*
Y166882D01*
X9470Y165482D01*
X10542Y164410D01*
X11942Y163830D01*
X13458D01*
X14858Y164410D01*
X15930Y165482D01*
X16510Y166882D01*
Y168398D01*
X15930Y169798D01*
X14858Y170870D01*
X13458Y171450D01*
D02*
G37*
G36*
X190136Y157099D02*
X187562D01*
X185075Y156433D01*
X182845Y155145D01*
X181024Y153324D01*
X180136Y151786D01*
X179621Y151552D01*
X178005Y151310D01*
X177192Y151411D01*
X176783Y151820D01*
X175383Y152400D01*
X173867D01*
X172467Y151820D01*
X171395Y150748D01*
X170815Y149348D01*
Y147832D01*
X171395Y146432D01*
X172467Y145360D01*
X173867Y144780D01*
X175383D01*
X176637Y145299D01*
X176841Y145341D01*
X179488Y144473D01*
X179736Y143546D01*
X181024Y141316D01*
X182845Y139495D01*
X185075Y138207D01*
X187562Y137541D01*
X190136D01*
X192624Y138207D01*
X194853Y139495D01*
X196674Y141316D01*
X197962Y143546D01*
X198628Y146033D01*
Y148607D01*
X197962Y151095D01*
X196674Y153324D01*
X194853Y155145D01*
X192624Y156433D01*
X190136Y157099D01*
D02*
G37*
G36*
X556383Y152400D02*
X554867D01*
X553467Y151820D01*
X552395Y150748D01*
X551815Y149348D01*
Y147832D01*
X552395Y146432D01*
X553467Y145360D01*
X554867Y144780D01*
X556383D01*
X557783Y145360D01*
X558855Y146432D01*
X559435Y147832D01*
Y149348D01*
X558855Y150748D01*
X557783Y151820D01*
X556383Y152400D01*
D02*
G37*
G36*
X480183D02*
X478667D01*
X477267Y151820D01*
X476195Y150748D01*
X475615Y149348D01*
Y147832D01*
X476195Y146432D01*
X477267Y145360D01*
X478667Y144780D01*
X480183D01*
X481583Y145360D01*
X482655Y146432D01*
X483235Y147832D01*
Y149348D01*
X482655Y150748D01*
X481583Y151820D01*
X480183Y152400D01*
D02*
G37*
G36*
X156333D02*
X154817D01*
X153417Y151820D01*
X152345Y150748D01*
X151765Y149348D01*
Y147832D01*
X152345Y146432D01*
X153417Y145360D01*
X154817Y144780D01*
X156333D01*
X157733Y145360D01*
X158805Y146432D01*
X159385Y147832D01*
Y149348D01*
X158805Y150748D01*
X157733Y151820D01*
X156333Y152400D01*
D02*
G37*
G36*
X99183D02*
X97667D01*
X96267Y151820D01*
X95195Y150748D01*
X94615Y149348D01*
Y147832D01*
X95195Y146432D01*
X96267Y145360D01*
X97667Y144780D01*
X99183D01*
X100583Y145360D01*
X101655Y146432D01*
X102235Y147832D01*
Y149348D01*
X101655Y150748D01*
X100583Y151820D01*
X99183Y152400D01*
D02*
G37*
G36*
X80133D02*
X78617D01*
X77217Y151820D01*
X76145Y150748D01*
X75565Y149348D01*
Y147832D01*
X76145Y146432D01*
X77217Y145360D01*
X78617Y144780D01*
X80133D01*
X81533Y145360D01*
X82605Y146432D01*
X83185Y147832D01*
Y149348D01*
X82605Y150748D01*
X81533Y151820D01*
X80133Y152400D01*
D02*
G37*
G36*
X61083D02*
X59567D01*
X58167Y151820D01*
X57095Y150748D01*
X56515Y149348D01*
Y147832D01*
X57095Y146432D01*
X58167Y145360D01*
X59567Y144780D01*
X61083D01*
X62483Y145360D01*
X63555Y146432D01*
X64135Y147832D01*
Y149348D01*
X63555Y150748D01*
X62483Y151820D01*
X61083Y152400D01*
D02*
G37*
G36*
X22983D02*
X21467D01*
X20067Y151820D01*
X18995Y150748D01*
X18415Y149348D01*
Y147832D01*
X18995Y146432D01*
X20067Y145360D01*
X21467Y144780D01*
X22983D01*
X24383Y145360D01*
X25455Y146432D01*
X26035Y147832D01*
Y149348D01*
X25455Y150748D01*
X24383Y151820D01*
X22983Y152400D01*
D02*
G37*
G36*
X383821Y156210D02*
X381481D01*
X379220Y155604D01*
X377192Y154434D01*
X375537Y152779D01*
X374367Y150751D01*
X373761Y148490D01*
Y146150D01*
X374367Y143889D01*
X375537Y141861D01*
X377192Y140206D01*
X379220Y139036D01*
X381481Y138430D01*
X383821D01*
X386082Y139036D01*
X388110Y140206D01*
X389765Y141861D01*
X390935Y143889D01*
X391541Y146150D01*
Y148490D01*
X390935Y150751D01*
X389765Y152779D01*
X388110Y154434D01*
X386082Y155604D01*
X383821Y156210D01*
D02*
G37*
G36*
X356135D02*
X353795D01*
X351534Y155604D01*
X349506Y154434D01*
X347851Y152779D01*
X346681Y150751D01*
X346075Y148490D01*
Y146150D01*
X346681Y143889D01*
X347851Y141861D01*
X349506Y140206D01*
X351534Y139036D01*
X353795Y138430D01*
X356135D01*
X358396Y139036D01*
X360424Y140206D01*
X362079Y141861D01*
X363249Y143889D01*
X363855Y146150D01*
Y148490D01*
X363249Y150751D01*
X362079Y152779D01*
X360424Y154434D01*
X358396Y155604D01*
X356135Y156210D01*
D02*
G37*
G36*
X328449D02*
X326109D01*
X323848Y155604D01*
X321820Y154434D01*
X320165Y152779D01*
X318995Y150751D01*
X318389Y148490D01*
Y146150D01*
X318995Y143889D01*
X320165Y141861D01*
X321820Y140206D01*
X323848Y139036D01*
X326109Y138430D01*
X328449D01*
X330710Y139036D01*
X332738Y140206D01*
X334393Y141861D01*
X335563Y143889D01*
X336169Y146150D01*
Y148490D01*
X335563Y150751D01*
X334393Y152779D01*
X332738Y154434D01*
X330710Y155604D01*
X328449Y156210D01*
D02*
G37*
G36*
X300763D02*
X298423D01*
X296162Y155604D01*
X294134Y154434D01*
X292479Y152779D01*
X291309Y150751D01*
X290703Y148490D01*
Y146150D01*
X291309Y143889D01*
X292479Y141861D01*
X294134Y140206D01*
X296162Y139036D01*
X298423Y138430D01*
X300763D01*
X303024Y139036D01*
X305052Y140206D01*
X306707Y141861D01*
X307877Y143889D01*
X308483Y146150D01*
Y148490D01*
X307877Y150751D01*
X306707Y152779D01*
X305052Y154434D01*
X303024Y155604D01*
X300763Y156210D01*
D02*
G37*
G36*
X273077D02*
X270737D01*
X268476Y155604D01*
X266448Y154434D01*
X264793Y152779D01*
X263623Y150751D01*
X263017Y148490D01*
Y146150D01*
X263623Y143889D01*
X264793Y141861D01*
X266448Y140206D01*
X268476Y139036D01*
X270737Y138430D01*
X273077D01*
X275338Y139036D01*
X277366Y140206D01*
X279021Y141861D01*
X280191Y143889D01*
X280797Y146150D01*
Y148490D01*
X280191Y150751D01*
X279021Y152779D01*
X277366Y154434D01*
X275338Y155604D01*
X273077Y156210D01*
D02*
G37*
G36*
X245391D02*
X243051D01*
X240790Y155604D01*
X238762Y154434D01*
X237107Y152779D01*
X235937Y150751D01*
X235331Y148490D01*
Y146150D01*
X235937Y143889D01*
X237107Y141861D01*
X238762Y140206D01*
X240790Y139036D01*
X243051Y138430D01*
X245391D01*
X247652Y139036D01*
X249680Y140206D01*
X251335Y141861D01*
X252505Y143889D01*
X253111Y146150D01*
Y148490D01*
X252505Y150751D01*
X251335Y152779D01*
X249680Y154434D01*
X247652Y155604D01*
X245391Y156210D01*
D02*
G37*
G36*
X217705D02*
X215365D01*
X213104Y155604D01*
X211076Y154434D01*
X209421Y152779D01*
X208251Y150751D01*
X207645Y148490D01*
Y146150D01*
X208251Y143889D01*
X209421Y141861D01*
X211076Y140206D01*
X213104Y139036D01*
X215365Y138430D01*
X217705D01*
X219966Y139036D01*
X221994Y140206D01*
X223649Y141861D01*
X224819Y143889D01*
X225425Y146150D01*
Y148490D01*
X224819Y150751D01*
X223649Y152779D01*
X221994Y154434D01*
X219966Y155604D01*
X217705Y156210D01*
D02*
G37*
G36*
X546858Y133350D02*
X545342D01*
X543942Y132770D01*
X542870Y131698D01*
X542290Y130298D01*
Y128782D01*
X542870Y127382D01*
X543942Y126310D01*
X545342Y125730D01*
X546858D01*
X548258Y126310D01*
X549330Y127382D01*
X549910Y128782D01*
Y130298D01*
X549330Y131698D01*
X548258Y132770D01*
X546858Y133350D01*
D02*
G37*
G36*
X527808D02*
X526292D01*
X524892Y132770D01*
X523820Y131698D01*
X523240Y130298D01*
Y128782D01*
X523820Y127382D01*
X524892Y126310D01*
X526292Y125730D01*
X527808D01*
X529208Y126310D01*
X530280Y127382D01*
X530860Y128782D01*
Y130298D01*
X530280Y131698D01*
X529208Y132770D01*
X527808Y133350D01*
D02*
G37*
G36*
X242058D02*
X240542D01*
X239142Y132770D01*
X238070Y131698D01*
X237490Y130298D01*
Y128782D01*
X238070Y127382D01*
X239142Y126310D01*
X240542Y125730D01*
X242058D01*
X243458Y126310D01*
X244530Y127382D01*
X245110Y128782D01*
Y130298D01*
X244530Y131698D01*
X243458Y132770D01*
X242058Y133350D01*
D02*
G37*
G36*
X89658D02*
X88142D01*
X86742Y132770D01*
X85670Y131698D01*
X85090Y130298D01*
Y128782D01*
X85670Y127382D01*
X86742Y126310D01*
X88142Y125730D01*
X89658D01*
X91058Y126310D01*
X92130Y127382D01*
X92710Y128782D01*
Y130298D01*
X92130Y131698D01*
X91058Y132770D01*
X89658Y133350D01*
D02*
G37*
G36*
X32508D02*
X30992D01*
X29592Y132770D01*
X28520Y131698D01*
X27940Y130298D01*
Y128782D01*
X28520Y127382D01*
X29592Y126310D01*
X30992Y125730D01*
X32508D01*
X33908Y126310D01*
X34980Y127382D01*
X35560Y128782D01*
Y130298D01*
X34980Y131698D01*
X33908Y132770D01*
X32508Y133350D01*
D02*
G37*
G36*
X13458D02*
X11942D01*
X10542Y132770D01*
X9470Y131698D01*
X8890Y130298D01*
Y128782D01*
X9470Y127382D01*
X10542Y126310D01*
X11942Y125730D01*
X13458D01*
X14858Y126310D01*
X15930Y127382D01*
X16510Y128782D01*
Y130298D01*
X15930Y131698D01*
X14858Y132770D01*
X13458Y133350D01*
D02*
G37*
G36*
X454375Y151638D02*
X450373D01*
X446447Y150857D01*
X442749Y149325D01*
X439421Y147102D01*
X436590Y144271D01*
X434367Y140943D01*
X432835Y137245D01*
X432054Y133319D01*
Y129317D01*
X432835Y125391D01*
X434367Y121693D01*
X436590Y118365D01*
X439421Y115534D01*
X442749Y113311D01*
X446447Y111779D01*
X450373Y110998D01*
X454375D01*
X458301Y111779D01*
X461999Y113311D01*
X465327Y115534D01*
X468158Y118365D01*
X470381Y121693D01*
X471913Y125391D01*
X472694Y129317D01*
Y133319D01*
X471913Y137245D01*
X470381Y140943D01*
X468158Y144271D01*
X465327Y147102D01*
X461999Y149325D01*
X458301Y150857D01*
X454375Y151638D01*
D02*
G37*
G36*
X121127D02*
X117125D01*
X113199Y150857D01*
X109501Y149325D01*
X106173Y147102D01*
X103342Y144271D01*
X101119Y140943D01*
X99587Y137245D01*
X98806Y133319D01*
Y129317D01*
X99587Y125391D01*
X101119Y121693D01*
X103342Y118365D01*
X106173Y115534D01*
X109501Y113311D01*
X113199Y111779D01*
X117125Y110998D01*
X121127D01*
X125053Y111779D01*
X128751Y113311D01*
X132079Y115534D01*
X134910Y118365D01*
X137133Y121693D01*
X138665Y125391D01*
X139446Y129317D01*
Y133319D01*
X138665Y137245D01*
X137133Y140943D01*
X134910Y144271D01*
X132079Y147102D01*
X128751Y149325D01*
X125053Y150857D01*
X121127Y151638D01*
D02*
G37*
G36*
X369978Y127762D02*
X367638D01*
X365377Y127156D01*
X363349Y125986D01*
X361694Y124331D01*
X360524Y122303D01*
X359918Y120042D01*
Y117702D01*
X360524Y115441D01*
X361694Y113413D01*
X363349Y111758D01*
X365377Y110588D01*
X367638Y109982D01*
X369978D01*
X372239Y110588D01*
X374267Y111758D01*
X375922Y113413D01*
X377092Y115441D01*
X377698Y117702D01*
Y120042D01*
X377092Y122303D01*
X375922Y124331D01*
X374267Y125986D01*
X372239Y127156D01*
X369978Y127762D01*
D02*
G37*
G36*
X342292D02*
X339952D01*
X337691Y127156D01*
X335663Y125986D01*
X334008Y124331D01*
X332838Y122303D01*
X332232Y120042D01*
Y117702D01*
X332838Y115441D01*
X334008Y113413D01*
X335663Y111758D01*
X337691Y110588D01*
X339952Y109982D01*
X342292D01*
X344553Y110588D01*
X346581Y111758D01*
X348236Y113413D01*
X349406Y115441D01*
X350012Y117702D01*
Y120042D01*
X349406Y122303D01*
X348236Y124331D01*
X346581Y125986D01*
X344553Y127156D01*
X342292Y127762D01*
D02*
G37*
G36*
X314606D02*
X312266D01*
X310005Y127156D01*
X307977Y125986D01*
X306322Y124331D01*
X305152Y122303D01*
X304546Y120042D01*
Y117702D01*
X305152Y115441D01*
X306322Y113413D01*
X307977Y111758D01*
X310005Y110588D01*
X312266Y109982D01*
X314606D01*
X316867Y110588D01*
X318895Y111758D01*
X320550Y113413D01*
X321720Y115441D01*
X322326Y117702D01*
Y120042D01*
X321720Y122303D01*
X320550Y124331D01*
X318895Y125986D01*
X316867Y127156D01*
X314606Y127762D01*
D02*
G37*
G36*
X286920D02*
X284580D01*
X282319Y127156D01*
X280291Y125986D01*
X278636Y124331D01*
X277466Y122303D01*
X276860Y120042D01*
Y117702D01*
X277466Y115441D01*
X278636Y113413D01*
X280291Y111758D01*
X282319Y110588D01*
X284580Y109982D01*
X286920D01*
X289181Y110588D01*
X291209Y111758D01*
X292864Y113413D01*
X294034Y115441D01*
X294640Y117702D01*
Y120042D01*
X294034Y122303D01*
X292864Y124331D01*
X291209Y125986D01*
X289181Y127156D01*
X286920Y127762D01*
D02*
G37*
G36*
X259234D02*
X256894D01*
X254633Y127156D01*
X252605Y125986D01*
X250950Y124331D01*
X249780Y122303D01*
X249174Y120042D01*
Y117702D01*
X249780Y115441D01*
X250950Y113413D01*
X252605Y111758D01*
X254633Y110588D01*
X256894Y109982D01*
X259234D01*
X261495Y110588D01*
X263523Y111758D01*
X265178Y113413D01*
X266348Y115441D01*
X266954Y117702D01*
Y120042D01*
X266348Y122303D01*
X265178Y124331D01*
X263523Y125986D01*
X261495Y127156D01*
X259234Y127762D01*
D02*
G37*
G36*
X231548D02*
X229208D01*
X226947Y127156D01*
X224919Y125986D01*
X223264Y124331D01*
X222094Y122303D01*
X221488Y120042D01*
Y117702D01*
X222094Y115441D01*
X223264Y113413D01*
X224919Y111758D01*
X226947Y110588D01*
X229208Y109982D01*
X231548D01*
X233809Y110588D01*
X235837Y111758D01*
X237492Y113413D01*
X238662Y115441D01*
X239268Y117702D01*
Y120042D01*
X238662Y122303D01*
X237492Y124331D01*
X235837Y125986D01*
X233809Y127156D01*
X231548Y127762D01*
D02*
G37*
G36*
X203862D02*
X201522D01*
X199261Y127156D01*
X197233Y125986D01*
X195578Y124331D01*
X194408Y122303D01*
X193802Y120042D01*
Y117702D01*
X194408Y115441D01*
X195578Y113413D01*
X197233Y111758D01*
X199261Y110588D01*
X201522Y109982D01*
X203862D01*
X206123Y110588D01*
X208151Y111758D01*
X209806Y113413D01*
X210976Y115441D01*
X211582Y117702D01*
Y120042D01*
X210976Y122303D01*
X209806Y124331D01*
X208151Y125986D01*
X206123Y127156D01*
X203862Y127762D01*
D02*
G37*
G36*
X556383Y114300D02*
X554867D01*
X553467Y113720D01*
X552395Y112648D01*
X551815Y111248D01*
Y109732D01*
X552395Y108332D01*
X553467Y107260D01*
X554867Y106680D01*
X556383D01*
X557783Y107260D01*
X558855Y108332D01*
X559435Y109732D01*
Y111248D01*
X558855Y112648D01*
X557783Y113720D01*
X556383Y114300D01*
D02*
G37*
G36*
X537333D02*
X535817D01*
X534417Y113720D01*
X533345Y112648D01*
X532765Y111248D01*
Y109732D01*
X533345Y108332D01*
X534417Y107260D01*
X535817Y106680D01*
X537333D01*
X538733Y107260D01*
X539805Y108332D01*
X540385Y109732D01*
Y111248D01*
X539805Y112648D01*
X538733Y113720D01*
X537333Y114300D01*
D02*
G37*
G36*
X518283D02*
X516767D01*
X515367Y113720D01*
X514295Y112648D01*
X513715Y111248D01*
Y109732D01*
X514295Y108332D01*
X515367Y107260D01*
X516767Y106680D01*
X518283D01*
X519683Y107260D01*
X520755Y108332D01*
X521335Y109732D01*
Y111248D01*
X520755Y112648D01*
X519683Y113720D01*
X518283Y114300D01*
D02*
G37*
G36*
X156333D02*
X154817D01*
X153417Y113720D01*
X152345Y112648D01*
X151765Y111248D01*
Y109732D01*
X152345Y108332D01*
X153417Y107260D01*
X154817Y106680D01*
X156333D01*
X157733Y107260D01*
X158805Y108332D01*
X159385Y109732D01*
Y111248D01*
X158805Y112648D01*
X157733Y113720D01*
X156333Y114300D01*
D02*
G37*
G36*
X137283D02*
X135767D01*
X134367Y113720D01*
X133295Y112648D01*
X132715Y111248D01*
Y109732D01*
X133295Y108332D01*
X134367Y107260D01*
X135767Y106680D01*
X137283D01*
X138683Y107260D01*
X139755Y108332D01*
X140335Y109732D01*
Y111248D01*
X139755Y112648D01*
X138683Y113720D01*
X137283Y114300D01*
D02*
G37*
G36*
X61083D02*
X59567D01*
X58167Y113720D01*
X57095Y112648D01*
X56515Y111248D01*
Y109732D01*
X57095Y108332D01*
X58167Y107260D01*
X59567Y106680D01*
X61083D01*
X62483Y107260D01*
X63555Y108332D01*
X64135Y109732D01*
Y111248D01*
X63555Y112648D01*
X62483Y113720D01*
X61083Y114300D01*
D02*
G37*
G36*
X42033D02*
X40517D01*
X39117Y113720D01*
X38045Y112648D01*
X37465Y111248D01*
Y109732D01*
X38045Y108332D01*
X39117Y107260D01*
X40517Y106680D01*
X42033D01*
X43433Y107260D01*
X44505Y108332D01*
X45085Y109732D01*
Y111248D01*
X44505Y112648D01*
X43433Y113720D01*
X42033Y114300D01*
D02*
G37*
G36*
X22983D02*
X21467D01*
X20067Y113720D01*
X18995Y112648D01*
X18415Y111248D01*
Y109732D01*
X18995Y108332D01*
X20067Y107260D01*
X21467Y106680D01*
X22983D01*
X24383Y107260D01*
X25455Y108332D01*
X26035Y109732D01*
Y111248D01*
X25455Y112648D01*
X24383Y113720D01*
X22983Y114300D01*
D02*
G37*
G36*
X489708Y95250D02*
X488192D01*
X486792Y94670D01*
X485720Y93598D01*
X485140Y92198D01*
Y90682D01*
X485720Y89282D01*
X486792Y88210D01*
X488192Y87630D01*
X489708D01*
X491108Y88210D01*
X492180Y89282D01*
X492760Y90682D01*
Y92198D01*
X492180Y93598D01*
X491108Y94670D01*
X489708Y95250D01*
D02*
G37*
G36*
X432558D02*
X431042D01*
X429642Y94670D01*
X428570Y93598D01*
X427990Y92198D01*
Y90682D01*
X428570Y89282D01*
X429642Y88210D01*
X431042Y87630D01*
X432558D01*
X433958Y88210D01*
X435030Y89282D01*
X435610Y90682D01*
Y92198D01*
X435030Y93598D01*
X433958Y94670D01*
X432558Y95250D01*
D02*
G37*
G36*
X413508D02*
X411992D01*
X410592Y94670D01*
X409520Y93598D01*
X408940Y92198D01*
Y90682D01*
X409520Y89282D01*
X410592Y88210D01*
X411992Y87630D01*
X413508D01*
X414908Y88210D01*
X415980Y89282D01*
X416560Y90682D01*
Y92198D01*
X415980Y93598D01*
X414908Y94670D01*
X413508Y95250D01*
D02*
G37*
G36*
X394458D02*
X392942D01*
X391542Y94670D01*
X390470Y93598D01*
X389890Y92198D01*
Y90682D01*
X390470Y89282D01*
X391542Y88210D01*
X392942Y87630D01*
X394458D01*
X395858Y88210D01*
X396930Y89282D01*
X397510Y90682D01*
Y92198D01*
X396930Y93598D01*
X395858Y94670D01*
X394458Y95250D01*
D02*
G37*
G36*
X146808D02*
X145292D01*
X143892Y94670D01*
X142820Y93598D01*
X142240Y92198D01*
Y90682D01*
X142820Y89282D01*
X143892Y88210D01*
X145292Y87630D01*
X146808D01*
X148208Y88210D01*
X149280Y89282D01*
X149860Y90682D01*
Y92198D01*
X149280Y93598D01*
X148208Y94670D01*
X146808Y95250D01*
D02*
G37*
G36*
X89658D02*
X88142D01*
X86742Y94670D01*
X85670Y93598D01*
X85090Y92198D01*
Y90682D01*
X85670Y89282D01*
X86742Y88210D01*
X88142Y87630D01*
X89658D01*
X91058Y88210D01*
X92130Y89282D01*
X92710Y90682D01*
Y92198D01*
X92130Y93598D01*
X91058Y94670D01*
X89658Y95250D01*
D02*
G37*
G36*
X13458D02*
X11942D01*
X10542Y94670D01*
X9470Y93598D01*
X8890Y92198D01*
Y90682D01*
X9470Y89282D01*
X10542Y88210D01*
X11942Y87630D01*
X13458D01*
X14858Y88210D01*
X15930Y89282D01*
X16510Y90682D01*
Y92198D01*
X15930Y93598D01*
X14858Y94670D01*
X13458Y95250D01*
D02*
G37*
G36*
X203958Y92710D02*
X202442D01*
X201042Y92130D01*
X199970Y91058D01*
X199390Y89658D01*
Y88142D01*
X199970Y86742D01*
X201042Y85670D01*
X202442Y85090D01*
X203958D01*
X205358Y85670D01*
X206430Y86742D01*
X207010Y88142D01*
Y89658D01*
X206430Y91058D01*
X205358Y92130D01*
X203958Y92710D01*
D02*
G37*
G36*
X190136Y89535D02*
X187562D01*
X185075Y88869D01*
X182845Y87581D01*
X181024Y85760D01*
X179736Y83531D01*
X179070Y81043D01*
Y78469D01*
X179577Y76576D01*
X179736Y75981D01*
X177513Y74890D01*
X176783Y75620D01*
X175383Y76200D01*
X173867D01*
X172467Y75620D01*
X171395Y74548D01*
X170815Y73148D01*
Y71632D01*
X171395Y70232D01*
X172467Y69160D01*
X173867Y68580D01*
X175383D01*
X176783Y69160D01*
X177855Y70232D01*
X178435Y71632D01*
X178435Y73148D01*
X178441Y73183D01*
X180707Y74301D01*
X181024Y73752D01*
X182845Y71931D01*
X185075Y70643D01*
X187562Y69977D01*
X190136D01*
X192624Y70643D01*
X194853Y71931D01*
X196674Y73752D01*
X197962Y75981D01*
X198628Y78469D01*
Y81043D01*
X197962Y83531D01*
X196674Y85760D01*
X194853Y87581D01*
X192624Y88869D01*
X190136Y89535D01*
D02*
G37*
G36*
X383821Y88646D02*
X381481D01*
X379220Y88040D01*
X377192Y86870D01*
X375537Y85215D01*
X374367Y83187D01*
X373761Y80926D01*
Y78586D01*
X374367Y76325D01*
X375537Y74297D01*
X377192Y72642D01*
X379220Y71472D01*
X381481Y70866D01*
X383821D01*
X386082Y71472D01*
X388110Y72642D01*
X389765Y74297D01*
X390935Y76325D01*
X391541Y78586D01*
Y80926D01*
X390935Y83187D01*
X389765Y85215D01*
X388110Y86870D01*
X386082Y88040D01*
X383821Y88646D01*
D02*
G37*
G36*
X356135D02*
X353795D01*
X351534Y88040D01*
X349506Y86870D01*
X347851Y85215D01*
X346681Y83187D01*
X346075Y80926D01*
Y78586D01*
X346681Y76325D01*
X347851Y74297D01*
X349506Y72642D01*
X351534Y71472D01*
X353795Y70866D01*
X356135D01*
X358396Y71472D01*
X360424Y72642D01*
X362079Y74297D01*
X363249Y76325D01*
X363855Y78586D01*
Y80926D01*
X363249Y83187D01*
X362079Y85215D01*
X360424Y86870D01*
X358396Y88040D01*
X356135Y88646D01*
D02*
G37*
G36*
X328449D02*
X326109D01*
X323848Y88040D01*
X321820Y86870D01*
X320165Y85215D01*
X318995Y83187D01*
X318389Y80926D01*
Y78586D01*
X318995Y76325D01*
X320165Y74297D01*
X321820Y72642D01*
X323848Y71472D01*
X326109Y70866D01*
X328449D01*
X330710Y71472D01*
X332738Y72642D01*
X334393Y74297D01*
X335563Y76325D01*
X336169Y78586D01*
Y80926D01*
X335563Y83187D01*
X334393Y85215D01*
X332738Y86870D01*
X330710Y88040D01*
X328449Y88646D01*
D02*
G37*
G36*
X300763D02*
X298423D01*
X296162Y88040D01*
X294134Y86870D01*
X292479Y85215D01*
X291309Y83187D01*
X290703Y80926D01*
Y78586D01*
X290721Y78519D01*
X290478Y77976D01*
X288713Y76200D01*
X288167D01*
X286767Y75620D01*
X285695Y74548D01*
X285115Y73148D01*
Y71632D01*
X285695Y70232D01*
X286767Y69160D01*
X288167Y68580D01*
X289683D01*
X291083Y69160D01*
X292155Y70232D01*
X292399Y70821D01*
X292595Y71027D01*
X294606Y71891D01*
X295275Y71984D01*
X296162Y71472D01*
X298423Y70866D01*
X300763D01*
X303024Y71472D01*
X305052Y72642D01*
X306707Y74297D01*
X307877Y76325D01*
X308483Y78586D01*
Y80926D01*
X307877Y83187D01*
X306707Y85215D01*
X305052Y86870D01*
X303024Y88040D01*
X300763Y88646D01*
D02*
G37*
G36*
X273077D02*
X270737D01*
X268476Y88040D01*
X266448Y86870D01*
X264793Y85215D01*
X263623Y83187D01*
X263017Y80926D01*
Y78586D01*
X263623Y76325D01*
X264793Y74297D01*
X266448Y72642D01*
X268476Y71472D01*
X270737Y70866D01*
X273077D01*
X275338Y71472D01*
X277366Y72642D01*
X279021Y74297D01*
X280191Y76325D01*
X280797Y78586D01*
Y80926D01*
X280191Y83187D01*
X279021Y85215D01*
X277366Y86870D01*
X275338Y88040D01*
X273077Y88646D01*
D02*
G37*
G36*
X245391D02*
X243051D01*
X240790Y88040D01*
X238762Y86870D01*
X237107Y85215D01*
X235937Y83187D01*
X235331Y80926D01*
Y78586D01*
X235937Y76325D01*
X237107Y74297D01*
X238762Y72642D01*
X240790Y71472D01*
X243051Y70866D01*
X245391D01*
X247652Y71472D01*
X249680Y72642D01*
X251335Y74297D01*
X252505Y76325D01*
X253111Y78586D01*
Y80926D01*
X252505Y83187D01*
X251335Y85215D01*
X249680Y86870D01*
X247652Y88040D01*
X245391Y88646D01*
D02*
G37*
G36*
X217705D02*
X215365D01*
X213104Y88040D01*
X211076Y86870D01*
X209421Y85215D01*
X208251Y83187D01*
X207645Y80926D01*
Y78586D01*
X208251Y76325D01*
X209421Y74297D01*
X211076Y72642D01*
X213104Y71472D01*
X215365Y70866D01*
X217705D01*
X219966Y71472D01*
X221994Y72642D01*
X223649Y74297D01*
X224819Y76325D01*
X225425Y78586D01*
Y80926D01*
X224819Y83187D01*
X223649Y85215D01*
X221994Y86870D01*
X219966Y88040D01*
X217705Y88646D01*
D02*
G37*
G36*
X480183Y76200D02*
X478667D01*
X477267Y75620D01*
X476195Y74548D01*
X475615Y73148D01*
Y71632D01*
X476195Y70232D01*
X477267Y69160D01*
X478667Y68580D01*
X480183D01*
X481583Y69160D01*
X482655Y70232D01*
X483235Y71632D01*
Y73148D01*
X482655Y74548D01*
X481583Y75620D01*
X480183Y76200D01*
D02*
G37*
G36*
X156333D02*
X154817D01*
X153417Y75620D01*
X152345Y74548D01*
X151765Y73148D01*
Y71632D01*
X152345Y70232D01*
X153417Y69160D01*
X154817Y68580D01*
X156333D01*
X157733Y69160D01*
X158805Y70232D01*
X159385Y71632D01*
Y73148D01*
X158805Y74548D01*
X157733Y75620D01*
X156333Y76200D01*
D02*
G37*
G36*
X99183D02*
X97667D01*
X96267Y75620D01*
X95195Y74548D01*
X94615Y73148D01*
Y71632D01*
X95195Y70232D01*
X96267Y69160D01*
X97667Y68580D01*
X99183D01*
X100583Y69160D01*
X101655Y70232D01*
X102235Y71632D01*
Y73148D01*
X101655Y74548D01*
X100583Y75620D01*
X99183Y76200D01*
D02*
G37*
G36*
X369978Y60198D02*
X367638D01*
X365377Y59592D01*
X363349Y58422D01*
X361694Y56767D01*
X361321Y56121D01*
X360561Y55931D01*
X358324Y56005D01*
X357758Y56570D01*
X356358Y57150D01*
X354842D01*
X353442Y56570D01*
X352370Y55498D01*
X352044Y54710D01*
X349443Y54601D01*
X349406Y54739D01*
X348236Y56767D01*
X346581Y58422D01*
X344553Y59592D01*
X342292Y60198D01*
X339952D01*
X337691Y59592D01*
X335663Y58422D01*
X334008Y56767D01*
X332838Y54739D01*
X332232Y52478D01*
Y50138D01*
X332838Y47877D01*
X334008Y45849D01*
X335663Y44194D01*
X337691Y43024D01*
X339952Y42418D01*
X342292D01*
X344553Y43024D01*
X346581Y44194D01*
X348236Y45849D01*
X349406Y47877D01*
X350012Y50138D01*
Y50237D01*
X351700Y50914D01*
X352552Y51000D01*
X353442Y50110D01*
X354842Y49530D01*
X356358D01*
X357443Y49980D01*
X357647Y49993D01*
X358376Y49829D01*
X360227Y48986D01*
X360524Y47877D01*
X361694Y45849D01*
X363349Y44194D01*
X365377Y43024D01*
X367638Y42418D01*
X369978D01*
X372239Y43024D01*
X374267Y44194D01*
X375922Y45849D01*
X377092Y47877D01*
X377698Y50138D01*
Y52478D01*
X377092Y54739D01*
X375922Y56767D01*
X374267Y58422D01*
X372239Y59592D01*
X369978Y60198D01*
D02*
G37*
G36*
X529649Y96520D02*
X524451D01*
X519318Y95707D01*
X514375Y94101D01*
X509744Y91741D01*
X505539Y88686D01*
X501864Y85011D01*
X498809Y80806D01*
X496449Y76175D01*
X494843Y71232D01*
X494030Y66099D01*
Y60901D01*
X494612Y57230D01*
X492322Y55446D01*
X492197Y55492D01*
X491706Y55972D01*
X491108Y56570D01*
X489708Y57150D01*
X488192D01*
X486792Y56570D01*
X485720Y55498D01*
X485140Y54098D01*
Y52582D01*
X485720Y51182D01*
X486792Y50110D01*
X488192Y49530D01*
X489708D01*
X491108Y50110D01*
X492180Y51182D01*
X492493Y51938D01*
X492934Y52407D01*
X493759Y52818D01*
X495596Y53253D01*
X495672Y53216D01*
X496449Y50825D01*
X498809Y46194D01*
X501864Y41989D01*
X505539Y38314D01*
X509744Y35259D01*
X514375Y32899D01*
X519318Y31293D01*
X524451Y30480D01*
X529649D01*
X534782Y31293D01*
X539725Y32899D01*
X544356Y35259D01*
X548561Y38314D01*
X552236Y41989D01*
X555291Y46194D01*
X557651Y50825D01*
X559257Y55768D01*
X560070Y60901D01*
Y66099D01*
X559257Y71232D01*
X557651Y76175D01*
X555291Y80806D01*
X552236Y85011D01*
X548561Y88686D01*
X544356Y91741D01*
X539725Y94101D01*
X534782Y95707D01*
X529649Y96520D01*
D02*
G37*
G36*
X394458Y57150D02*
X392942D01*
X391542Y56570D01*
X390470Y55498D01*
X389890Y54098D01*
Y52582D01*
X390470Y51182D01*
X391542Y50110D01*
X392942Y49530D01*
X394458D01*
X395858Y50110D01*
X396930Y51182D01*
X397510Y52582D01*
Y54098D01*
X396930Y55498D01*
X395858Y56570D01*
X394458Y57150D01*
D02*
G37*
G36*
X184908D02*
X183392D01*
X181992Y56570D01*
X180920Y55498D01*
X180340Y54098D01*
Y52582D01*
X180920Y51182D01*
X181992Y50110D01*
X183392Y49530D01*
X184908D01*
X186308Y50110D01*
X187380Y51182D01*
X187960Y52582D01*
Y54098D01*
X187380Y55498D01*
X186308Y56570D01*
X184908Y57150D01*
D02*
G37*
G36*
X89658D02*
X88142D01*
X86742Y56570D01*
X85670Y55498D01*
X85090Y54098D01*
Y52582D01*
X85670Y51182D01*
X86742Y50110D01*
X88142Y49530D01*
X89658D01*
X91058Y50110D01*
X92130Y51182D01*
X92710Y52582D01*
Y54098D01*
X92130Y55498D01*
X91058Y56570D01*
X89658Y57150D01*
D02*
G37*
G36*
X314606Y60198D02*
X312266D01*
X310005Y59592D01*
X307977Y58422D01*
X306322Y56767D01*
X305152Y54739D01*
X304546Y52478D01*
Y50138D01*
X305152Y47877D01*
X306322Y45849D01*
X307977Y44194D01*
X310005Y43024D01*
X312266Y42418D01*
X314606D01*
X316867Y43024D01*
X318895Y44194D01*
X320550Y45849D01*
X321720Y47877D01*
X322326Y50138D01*
Y52478D01*
X321720Y54739D01*
X320550Y56767D01*
X318895Y58422D01*
X316867Y59592D01*
X314606Y60198D01*
D02*
G37*
G36*
X286920D02*
X284580D01*
X282319Y59592D01*
X280291Y58422D01*
X278636Y56767D01*
X277466Y54739D01*
X276860Y52478D01*
Y50138D01*
X277466Y47877D01*
X278636Y45849D01*
X280291Y44194D01*
X282319Y43024D01*
X284580Y42418D01*
X286920D01*
X289181Y43024D01*
X291209Y44194D01*
X292864Y45849D01*
X294034Y47877D01*
X294640Y50138D01*
Y52478D01*
X294034Y54739D01*
X292864Y56767D01*
X291209Y58422D01*
X289181Y59592D01*
X286920Y60198D01*
D02*
G37*
G36*
X259234D02*
X256894D01*
X254633Y59592D01*
X252605Y58422D01*
X250950Y56767D01*
X249780Y54739D01*
X249174Y52478D01*
Y50138D01*
X249780Y47877D01*
X250950Y45849D01*
X252605Y44194D01*
X254633Y43024D01*
X256894Y42418D01*
X259234D01*
X261495Y43024D01*
X263523Y44194D01*
X265178Y45849D01*
X266348Y47877D01*
X266954Y50138D01*
Y52478D01*
X266348Y54739D01*
X265178Y56767D01*
X263523Y58422D01*
X261495Y59592D01*
X259234Y60198D01*
D02*
G37*
G36*
X231548D02*
X229208D01*
X226947Y59592D01*
X224919Y58422D01*
X223264Y56767D01*
X222094Y54739D01*
X221488Y52478D01*
Y50138D01*
X222094Y47877D01*
X223264Y45849D01*
X224919Y44194D01*
X226947Y43024D01*
X229208Y42418D01*
X231548D01*
X233809Y43024D01*
X235837Y44194D01*
X237492Y45849D01*
X238662Y47877D01*
X239268Y50138D01*
Y52478D01*
X238662Y54739D01*
X237492Y56767D01*
X235837Y58422D01*
X233809Y59592D01*
X231548Y60198D01*
D02*
G37*
G36*
X203862D02*
X201522D01*
X199261Y59592D01*
X197233Y58422D01*
X195578Y56767D01*
X194408Y54739D01*
X193802Y52478D01*
Y50138D01*
X194408Y47877D01*
X195578Y45849D01*
X197233Y44194D01*
X199261Y43024D01*
X201522Y42418D01*
X203862D01*
X206123Y43024D01*
X208151Y44194D01*
X209806Y45849D01*
X210976Y47877D01*
X211582Y50138D01*
Y52478D01*
X210976Y54739D01*
X209806Y56767D01*
X208151Y58422D01*
X206123Y59592D01*
X203862Y60198D01*
D02*
G37*
G36*
X454375Y71628D02*
X450373D01*
X446447Y70847D01*
X442749Y69315D01*
X439421Y67092D01*
X436590Y64261D01*
X434367Y60933D01*
X432835Y57235D01*
X432054Y53309D01*
Y49307D01*
X432835Y45381D01*
X434367Y41683D01*
X436590Y38355D01*
X439421Y35524D01*
X442749Y33301D01*
X446447Y31769D01*
X450373Y30988D01*
X454375D01*
X458301Y31769D01*
X461999Y33301D01*
X465327Y35524D01*
X468158Y38355D01*
X470381Y41683D01*
X471913Y45381D01*
X472694Y49307D01*
Y53309D01*
X471913Y57235D01*
X470381Y60933D01*
X468158Y64261D01*
X465327Y67092D01*
X461999Y69315D01*
X458301Y70847D01*
X454375Y71628D01*
D02*
G37*
G36*
X556383Y38100D02*
X554867D01*
X553467Y37520D01*
X552395Y36448D01*
X551815Y35048D01*
Y33532D01*
X552395Y32132D01*
X553467Y31060D01*
X554867Y30480D01*
X556383D01*
X557783Y31060D01*
X558855Y32132D01*
X559435Y33532D01*
Y35048D01*
X558855Y36448D01*
X557783Y37520D01*
X556383Y38100D01*
D02*
G37*
G36*
X499233D02*
X497717D01*
X496317Y37520D01*
X495245Y36448D01*
X494665Y35048D01*
Y33532D01*
X495245Y32132D01*
X496317Y31060D01*
X497717Y30480D01*
X499233D01*
X500633Y31060D01*
X501705Y32132D01*
X502285Y33532D01*
Y35048D01*
X501705Y36448D01*
X500633Y37520D01*
X499233Y38100D01*
D02*
G37*
G36*
X480183D02*
X478667D01*
X477267Y37520D01*
X476195Y36448D01*
X475615Y35048D01*
Y33532D01*
X476195Y32132D01*
X477267Y31060D01*
X478667Y30480D01*
X480183D01*
X481583Y31060D01*
X482655Y32132D01*
X483235Y33532D01*
Y35048D01*
X482655Y36448D01*
X481583Y37520D01*
X480183Y38100D01*
D02*
G37*
G36*
X423033D02*
X421517D01*
X420117Y37520D01*
X419045Y36448D01*
X418465Y35048D01*
Y33532D01*
X419045Y32132D01*
X420117Y31060D01*
X421517Y30480D01*
X423033D01*
X424433Y31060D01*
X425505Y32132D01*
X426085Y33532D01*
Y35048D01*
X425505Y36448D01*
X424433Y37520D01*
X423033Y38100D01*
D02*
G37*
G36*
X403983D02*
X402467D01*
X401067Y37520D01*
X399995Y36448D01*
X399415Y35048D01*
Y33532D01*
X399995Y32132D01*
X401067Y31060D01*
X402467Y30480D01*
X403983D01*
X405383Y31060D01*
X406455Y32132D01*
X407035Y33532D01*
Y35048D01*
X406455Y36448D01*
X405383Y37520D01*
X403983Y38100D01*
D02*
G37*
G36*
X384933D02*
X383417D01*
X382017Y37520D01*
X380945Y36448D01*
X380365Y35048D01*
Y33532D01*
X380945Y32132D01*
X382017Y31060D01*
X383417Y30480D01*
X384933D01*
X386333Y31060D01*
X387405Y32132D01*
X387985Y33532D01*
Y35048D01*
X387405Y36448D01*
X386333Y37520D01*
X384933Y38100D01*
D02*
G37*
G36*
X365883D02*
X364367D01*
X362967Y37520D01*
X361895Y36448D01*
X361315Y35048D01*
Y33532D01*
X361895Y32132D01*
X362967Y31060D01*
X364367Y30480D01*
X365883D01*
X367283Y31060D01*
X368355Y32132D01*
X368935Y33532D01*
Y35048D01*
X368355Y36448D01*
X367283Y37520D01*
X365883Y38100D01*
D02*
G37*
G36*
X346833D02*
X345317D01*
X343917Y37520D01*
X342845Y36448D01*
X342265Y35048D01*
Y33532D01*
X342845Y32132D01*
X343917Y31060D01*
X345317Y30480D01*
X346833D01*
X348233Y31060D01*
X349305Y32132D01*
X349885Y33532D01*
Y35048D01*
X349305Y36448D01*
X348233Y37520D01*
X346833Y38100D01*
D02*
G37*
G36*
X327783D02*
X326267D01*
X324867Y37520D01*
X323795Y36448D01*
X323215Y35048D01*
Y33532D01*
X323795Y32132D01*
X324867Y31060D01*
X326267Y30480D01*
X327783D01*
X329183Y31060D01*
X330255Y32132D01*
X330835Y33532D01*
Y35048D01*
X330255Y36448D01*
X329183Y37520D01*
X327783Y38100D01*
D02*
G37*
G36*
X308733D02*
X307217D01*
X305817Y37520D01*
X304745Y36448D01*
X304165Y35048D01*
Y33532D01*
X304745Y32132D01*
X305817Y31060D01*
X307217Y30480D01*
X308733D01*
X310133Y31060D01*
X311205Y32132D01*
X311785Y33532D01*
Y35048D01*
X311205Y36448D01*
X310133Y37520D01*
X308733Y38100D01*
D02*
G37*
G36*
X156333D02*
X154817D01*
X153417Y37520D01*
X152345Y36448D01*
X151765Y35048D01*
Y33532D01*
X152345Y32132D01*
X153417Y31060D01*
X154817Y30480D01*
X156333D01*
X157733Y31060D01*
X158805Y32132D01*
X159385Y33532D01*
Y35048D01*
X158805Y36448D01*
X157733Y37520D01*
X156333Y38100D01*
D02*
G37*
G36*
X121127Y71628D02*
X117125D01*
X113199Y70847D01*
X109501Y69315D01*
X106173Y67092D01*
X103342Y64261D01*
X101119Y60933D01*
X99587Y57235D01*
X98806Y53309D01*
Y49307D01*
X99587Y45381D01*
X101119Y41683D01*
X103342Y38355D01*
X106173Y35524D01*
X109501Y33301D01*
X113199Y31769D01*
X117125Y30988D01*
X121127D01*
X125053Y31769D01*
X128751Y33301D01*
X130175Y34252D01*
X131120Y33984D01*
X132922Y33033D01*
X133295Y32132D01*
X134367Y31060D01*
X135767Y30480D01*
X137283D01*
X138683Y31060D01*
X139755Y32132D01*
X140335Y33532D01*
Y35048D01*
X139755Y36448D01*
X138683Y37520D01*
X137683Y37934D01*
X136814Y39506D01*
X136437Y40640D01*
X137133Y41683D01*
X138665Y45381D01*
X139446Y49307D01*
Y53309D01*
X138665Y57235D01*
X137133Y60933D01*
X134910Y64261D01*
X132079Y67092D01*
X128751Y69315D01*
X125053Y70847D01*
X121127Y71628D01*
D02*
G37*
G36*
X99183Y38100D02*
X97667D01*
X96267Y37520D01*
X95195Y36448D01*
X94615Y35048D01*
Y33532D01*
X95195Y32132D01*
X96267Y31060D01*
X97667Y30480D01*
X99183D01*
X100583Y31060D01*
X101655Y32132D01*
X102235Y33532D01*
Y35048D01*
X101655Y36448D01*
X100583Y37520D01*
X99183Y38100D01*
D02*
G37*
G36*
X80133D02*
X78617D01*
X77217Y37520D01*
X76145Y36448D01*
X75565Y35048D01*
Y33532D01*
X76145Y32132D01*
X77217Y31060D01*
X78617Y30480D01*
X80133D01*
X81533Y31060D01*
X82605Y32132D01*
X83185Y33532D01*
Y35048D01*
X82605Y36448D01*
X81533Y37520D01*
X80133Y38100D01*
D02*
G37*
G36*
X47049Y96520D02*
X41851D01*
X36718Y95707D01*
X31775Y94101D01*
X27144Y91741D01*
X22939Y88686D01*
X19264Y85011D01*
X16209Y80806D01*
X13849Y76175D01*
X12243Y71232D01*
X11430Y66099D01*
Y60901D01*
X12243Y55768D01*
X13849Y50825D01*
X16209Y46194D01*
X19264Y41989D01*
X20806Y40447D01*
X20119Y37542D01*
X20067Y37520D01*
X18995Y36448D01*
X18415Y35048D01*
Y33532D01*
X18995Y32132D01*
X20067Y31060D01*
X21467Y30480D01*
X22983D01*
X24383Y31060D01*
X25455Y32132D01*
X25871Y33136D01*
X26892Y33869D01*
X28575Y34530D01*
X31775Y32899D01*
X36718Y31293D01*
X41851Y30480D01*
X47049D01*
X52182Y31293D01*
X57125Y32899D01*
X61756Y35259D01*
X65961Y38314D01*
X69636Y41989D01*
X72691Y46194D01*
X75051Y50825D01*
X76657Y55768D01*
X77470Y60901D01*
Y66099D01*
X77435Y66320D01*
X77689Y66807D01*
X79649Y68580D01*
X80133D01*
X81533Y69160D01*
X82605Y70232D01*
X83185Y71632D01*
Y73148D01*
X82605Y74548D01*
X81533Y75620D01*
X80133Y76200D01*
X78617D01*
X77821Y75870D01*
X76312Y76036D01*
X74757Y76752D01*
X72691Y80806D01*
X69636Y85011D01*
X69557Y85090D01*
X70608Y87630D01*
X72008Y88210D01*
X73080Y89282D01*
X73660Y90682D01*
Y92198D01*
X73080Y93598D01*
X72008Y94670D01*
X70608Y95250D01*
X69092D01*
X67692Y94670D01*
X66620Y93598D01*
X66040Y92198D01*
Y91769D01*
X63623Y90385D01*
X61756Y91741D01*
X57125Y94101D01*
X52182Y95707D01*
X47049Y96520D01*
D02*
G37*
G36*
X279868Y38825D02*
X278352D01*
X276952Y38245D01*
X275880Y37173D01*
X275300Y35773D01*
Y34257D01*
X275880Y32857D01*
X276952Y31785D01*
X278294Y30497D01*
X278151Y28748D01*
X278130Y28698D01*
Y27182D01*
X278710Y25782D01*
X279782Y24710D01*
X281182Y24130D01*
X282698D01*
X284098Y24710D01*
X285170Y25782D01*
X285750Y27182D01*
Y28698D01*
X285170Y30098D01*
X284098Y31170D01*
X282756Y32458D01*
X282899Y34207D01*
X282920Y34257D01*
Y35773D01*
X282340Y37173D01*
X281268Y38245D01*
X279868Y38825D01*
D02*
G37*
G36*
X546858Y19050D02*
X545342D01*
X543942Y18470D01*
X542870Y17398D01*
X542290Y15998D01*
Y14482D01*
X542870Y13082D01*
X543942Y12010D01*
X545342Y11430D01*
X546858D01*
X548258Y12010D01*
X549330Y13082D01*
X549910Y14482D01*
Y15998D01*
X549330Y17398D01*
X548258Y18470D01*
X546858Y19050D01*
D02*
G37*
G36*
X527808D02*
X526292D01*
X524892Y18470D01*
X523820Y17398D01*
X523240Y15998D01*
Y14482D01*
X523820Y13082D01*
X524892Y12010D01*
X526292Y11430D01*
X527808D01*
X529208Y12010D01*
X530280Y13082D01*
X530860Y14482D01*
Y15998D01*
X530280Y17398D01*
X529208Y18470D01*
X527808Y19050D01*
D02*
G37*
G36*
X508758D02*
X507242D01*
X505842Y18470D01*
X504770Y17398D01*
X504190Y15998D01*
Y14482D01*
X504770Y13082D01*
X505842Y12010D01*
X507242Y11430D01*
X508758D01*
X510158Y12010D01*
X511230Y13082D01*
X511810Y14482D01*
Y15998D01*
X511230Y17398D01*
X510158Y18470D01*
X508758Y19050D01*
D02*
G37*
G36*
X489708D02*
X488192D01*
X486792Y18470D01*
X485720Y17398D01*
X485140Y15998D01*
Y14482D01*
X485720Y13082D01*
X486792Y12010D01*
X488192Y11430D01*
X489708D01*
X491108Y12010D01*
X492180Y13082D01*
X492760Y14482D01*
Y15998D01*
X492180Y17398D01*
X491108Y18470D01*
X489708Y19050D01*
D02*
G37*
G36*
X470658D02*
X469142D01*
X467742Y18470D01*
X466670Y17398D01*
X466090Y15998D01*
Y14482D01*
X466670Y13082D01*
X467742Y12010D01*
X469142Y11430D01*
X470658D01*
X472058Y12010D01*
X473130Y13082D01*
X473710Y14482D01*
Y15998D01*
X473130Y17398D01*
X472058Y18470D01*
X470658Y19050D01*
D02*
G37*
G36*
X451608D02*
X450092D01*
X448692Y18470D01*
X447620Y17398D01*
X447040Y15998D01*
Y14482D01*
X447620Y13082D01*
X448692Y12010D01*
X450092Y11430D01*
X451608D01*
X453008Y12010D01*
X454080Y13082D01*
X454660Y14482D01*
Y15998D01*
X454080Y17398D01*
X453008Y18470D01*
X451608Y19050D01*
D02*
G37*
G36*
X432558D02*
X431042D01*
X429642Y18470D01*
X428570Y17398D01*
X427990Y15998D01*
Y14482D01*
X428570Y13082D01*
X429642Y12010D01*
X431042Y11430D01*
X432558D01*
X433958Y12010D01*
X435030Y13082D01*
X435610Y14482D01*
Y15998D01*
X435030Y17398D01*
X433958Y18470D01*
X432558Y19050D01*
D02*
G37*
G36*
X413508D02*
X411992D01*
X410592Y18470D01*
X409520Y17398D01*
X408940Y15998D01*
Y14482D01*
X409520Y13082D01*
X410592Y12010D01*
X411992Y11430D01*
X413508D01*
X414908Y12010D01*
X415980Y13082D01*
X416560Y14482D01*
Y15998D01*
X415980Y17398D01*
X414908Y18470D01*
X413508Y19050D01*
D02*
G37*
G36*
X394458D02*
X392942D01*
X391542Y18470D01*
X390470Y17398D01*
X389890Y15998D01*
Y14482D01*
X390470Y13082D01*
X391542Y12010D01*
X392942Y11430D01*
X394458D01*
X395858Y12010D01*
X396930Y13082D01*
X397510Y14482D01*
Y15998D01*
X396930Y17398D01*
X395858Y18470D01*
X394458Y19050D01*
D02*
G37*
G36*
X375408D02*
X373892D01*
X372492Y18470D01*
X371420Y17398D01*
X370840Y15998D01*
Y14482D01*
X371420Y13082D01*
X372492Y12010D01*
X373892Y11430D01*
X375408D01*
X376808Y12010D01*
X377880Y13082D01*
X378460Y14482D01*
Y15998D01*
X377880Y17398D01*
X376808Y18470D01*
X375408Y19050D01*
D02*
G37*
G36*
X356358D02*
X354842D01*
X353442Y18470D01*
X352370Y17398D01*
X351790Y15998D01*
Y14482D01*
X352370Y13082D01*
X353442Y12010D01*
X354842Y11430D01*
X356358D01*
X357758Y12010D01*
X358830Y13082D01*
X359410Y14482D01*
Y15998D01*
X358830Y17398D01*
X357758Y18470D01*
X356358Y19050D01*
D02*
G37*
G36*
X337308D02*
X335792D01*
X334392Y18470D01*
X333320Y17398D01*
X332740Y15998D01*
Y14482D01*
X333320Y13082D01*
X334392Y12010D01*
X335792Y11430D01*
X337308D01*
X338708Y12010D01*
X339780Y13082D01*
X340360Y14482D01*
Y15998D01*
X339780Y17398D01*
X338708Y18470D01*
X337308Y19050D01*
D02*
G37*
G36*
X318258D02*
X316742D01*
X315342Y18470D01*
X314270Y17398D01*
X313690Y15998D01*
Y14482D01*
X314270Y13082D01*
X315342Y12010D01*
X316742Y11430D01*
X318258D01*
X319658Y12010D01*
X320730Y13082D01*
X321310Y14482D01*
Y15998D01*
X320730Y17398D01*
X319658Y18470D01*
X318258Y19050D01*
D02*
G37*
G36*
X299208D02*
X297692D01*
X296292Y18470D01*
X295220Y17398D01*
X294640Y15998D01*
Y14482D01*
X295220Y13082D01*
X296292Y12010D01*
X297692Y11430D01*
X299208D01*
X300608Y12010D01*
X301680Y13082D01*
X302260Y14482D01*
Y15998D01*
X301680Y17398D01*
X300608Y18470D01*
X299208Y19050D01*
D02*
G37*
G36*
X280158D02*
X278642D01*
X277242Y18470D01*
X276170Y17398D01*
X275590Y15998D01*
Y14482D01*
X276170Y13082D01*
X277242Y12010D01*
X278642Y11430D01*
X280158D01*
X281558Y12010D01*
X282630Y13082D01*
X283210Y14482D01*
Y15998D01*
X282630Y17398D01*
X281558Y18470D01*
X280158Y19050D01*
D02*
G37*
G36*
X184908D02*
X183392D01*
X181992Y18470D01*
X180920Y17398D01*
X180340Y15998D01*
Y14482D01*
X180920Y13082D01*
X181992Y12010D01*
X183392Y11430D01*
X184908D01*
X186308Y12010D01*
X187380Y13082D01*
X187960Y14482D01*
Y15998D01*
X187380Y17398D01*
X186308Y18470D01*
X184908Y19050D01*
D02*
G37*
G36*
X165858D02*
X164342D01*
X162942Y18470D01*
X161870Y17398D01*
X161290Y15998D01*
Y14482D01*
X161870Y13082D01*
X162942Y12010D01*
X164342Y11430D01*
X165858D01*
X167258Y12010D01*
X168330Y13082D01*
X168910Y14482D01*
Y15998D01*
X168330Y17398D01*
X167258Y18470D01*
X165858Y19050D01*
D02*
G37*
G36*
X146808D02*
X145292D01*
X143892Y18470D01*
X142820Y17398D01*
X142240Y15998D01*
Y14482D01*
X142820Y13082D01*
X143892Y12010D01*
X145292Y11430D01*
X146808D01*
X148208Y12010D01*
X149280Y13082D01*
X149860Y14482D01*
Y15998D01*
X149280Y17398D01*
X148208Y18470D01*
X146808Y19050D01*
D02*
G37*
G36*
X127758D02*
X126242D01*
X124842Y18470D01*
X123770Y17398D01*
X123190Y15998D01*
Y14482D01*
X123770Y13082D01*
X124842Y12010D01*
X126242Y11430D01*
X127758D01*
X129158Y12010D01*
X130230Y13082D01*
X130810Y14482D01*
Y15998D01*
X130230Y17398D01*
X129158Y18470D01*
X127758Y19050D01*
D02*
G37*
G36*
X108708D02*
X107192D01*
X105792Y18470D01*
X104720Y17398D01*
X104140Y15998D01*
Y14482D01*
X104720Y13082D01*
X105792Y12010D01*
X107192Y11430D01*
X108708D01*
X110108Y12010D01*
X111180Y13082D01*
X111760Y14482D01*
Y15998D01*
X111180Y17398D01*
X110108Y18470D01*
X108708Y19050D01*
D02*
G37*
G36*
X89658D02*
X88142D01*
X86742Y18470D01*
X85670Y17398D01*
X85090Y15998D01*
Y14482D01*
X85670Y13082D01*
X86742Y12010D01*
X88142Y11430D01*
X89658D01*
X91058Y12010D01*
X92130Y13082D01*
X92710Y14482D01*
Y15998D01*
X92130Y17398D01*
X91058Y18470D01*
X89658Y19050D01*
D02*
G37*
G36*
X70608D02*
X69092D01*
X67692Y18470D01*
X66620Y17398D01*
X66040Y15998D01*
Y14482D01*
X66620Y13082D01*
X67692Y12010D01*
X69092Y11430D01*
X70608D01*
X72008Y12010D01*
X73080Y13082D01*
X73660Y14482D01*
Y15998D01*
X73080Y17398D01*
X72008Y18470D01*
X70608Y19050D01*
D02*
G37*
G36*
X51558D02*
X50042D01*
X48642Y18470D01*
X47570Y17398D01*
X46990Y15998D01*
Y14482D01*
X47570Y13082D01*
X48642Y12010D01*
X50042Y11430D01*
X51558D01*
X52958Y12010D01*
X54030Y13082D01*
X54610Y14482D01*
Y15998D01*
X54030Y17398D01*
X52958Y18470D01*
X51558Y19050D01*
D02*
G37*
G36*
X32508D02*
X30992D01*
X29592Y18470D01*
X28520Y17398D01*
X27940Y15998D01*
Y14482D01*
X28520Y13082D01*
X29592Y12010D01*
X30992Y11430D01*
X32508D01*
X33908Y12010D01*
X34980Y13082D01*
X35560Y14482D01*
Y15998D01*
X34980Y17398D01*
X33908Y18470D01*
X32508Y19050D01*
D02*
G37*
G36*
X13458D02*
X11942D01*
X10542Y18470D01*
X9470Y17398D01*
X8890Y15998D01*
Y14482D01*
X9470Y13082D01*
X10542Y12010D01*
X11942Y11430D01*
X13458D01*
X14858Y12010D01*
X15930Y13082D01*
X16510Y14482D01*
Y15998D01*
X15930Y17398D01*
X14858Y18470D01*
X13458Y19050D01*
D02*
G37*
%LPD*%
G36*
X396622Y440000D02*
X398022Y439420D01*
X399538D01*
X400938Y440000D01*
X401579Y440031D01*
X402934Y438860D01*
X403019Y435891D01*
X402029Y434901D01*
X401467Y434061D01*
X401270Y433070D01*
Y416363D01*
X390362Y405455D01*
X388490Y406457D01*
X388112Y406797D01*
Y408680D01*
X387339Y410548D01*
X385910Y411977D01*
X384043Y412750D01*
X382021D01*
X380154Y411977D01*
X378725Y410548D01*
X378267Y409440D01*
X375605D01*
X375147Y410548D01*
X373718Y411977D01*
X371851Y412750D01*
X370946D01*
X369260Y414244D01*
X368935Y415097D01*
Y416048D01*
X368355Y417448D01*
X367283Y418520D01*
X366436Y418871D01*
X365712Y420704D01*
X365612Y421640D01*
X383392Y439420D01*
X384298D01*
X385698Y440000D01*
X387350Y440793D01*
X389002Y440000D01*
X390402Y439420D01*
X391918D01*
X393318Y440000D01*
X394970Y440793D01*
X396622Y440000D01*
D02*
G37*
G36*
X359711Y414703D02*
X361544Y413979D01*
X361895Y413132D01*
X362967Y412060D01*
X364214Y411544D01*
X364369Y411477D01*
X365868Y408940D01*
X365760Y408680D01*
Y406660D01*
X366533Y404792D01*
X367962Y403363D01*
X369829Y402590D01*
X371851D01*
X373718Y403363D01*
X375147Y404792D01*
X375605Y405900D01*
X378267D01*
X378725Y404792D01*
X380154Y403363D01*
X382021Y402590D01*
X383905D01*
X384245Y402212D01*
X385247Y400340D01*
X378657Y393750D01*
X341041D01*
X340069Y396096D01*
X358775Y414803D01*
X359711Y414703D01*
D02*
G37*
G36*
X239222Y391337D02*
Y389433D01*
X237114Y387400D01*
X156013D01*
X153379Y390034D01*
X154351Y392380D01*
X237998D01*
X239222Y391337D01*
D02*
G37*
D15*
X13970Y492760D02*
X19293Y487437D01*
Y486167D02*
Y487437D01*
Y486167D02*
X24130Y481330D01*
X69850D01*
X78740Y472440D01*
Y461010D02*
Y472440D01*
Y461010D02*
X154940Y384810D01*
X254853D01*
X261203Y391160D01*
X82550Y462588D02*
X150168Y394970D01*
X82550Y462588D02*
Y510540D01*
X66040Y527050D02*
X82550Y510540D01*
X150168Y394970D02*
X335280D01*
X383540Y443230D01*
X13970Y549223D02*
Y549910D01*
Y549223D02*
X18048Y545145D01*
Y542022D02*
Y545145D01*
Y542022D02*
X20320Y539750D01*
X36830D01*
X49530Y527050D01*
X66040D01*
X261203Y391160D02*
X379730D01*
X450850Y387350D02*
X457200D01*
X456892Y392430D02*
X478790Y414328D01*
X486410Y416560D02*
Y427990D01*
X448746Y392430D02*
X456892D01*
X478790Y414328D02*
Y427990D01*
X457200Y387350D02*
X486410Y416560D01*
X443666Y387350D02*
X448746Y392430D01*
X443230Y387350D02*
X443666D01*
X406400Y435610D02*
Y440981D01*
X405421Y441960D02*
X406400Y440981D01*
X405130Y448310D02*
X405421Y448019D01*
Y441960D02*
Y448019D01*
X478790Y435610D02*
X486410Y427990D01*
X403860Y415290D02*
Y433070D01*
X379730Y391160D02*
X403860Y415290D01*
Y433070D02*
X406400Y435610D01*
D28*
X383032Y407670D02*
D03*
X370840D02*
D03*
X541020Y617220D02*
D03*
D45*
X188849Y147320D02*
D03*
Y79756D02*
D03*
D50*
X414020Y433070D02*
Y528320D01*
X398780Y543560D02*
X414020Y528320D01*
X396777Y568227D02*
X405130Y576580D01*
X396777Y545563D02*
Y568227D01*
Y545563D02*
X398780Y543560D01*
D51*
X498230Y512920D02*
D03*
X491230D02*
D03*
X494730Y520420D02*
D03*
Y505420D02*
D03*
X491800Y554870D02*
D03*
X498800D02*
D03*
X495300Y562370D02*
D03*
Y547370D02*
D03*
X555625Y796290D02*
D03*
X546100Y662940D02*
D03*
X555625Y643890D02*
D03*
X546100Y624840D02*
D03*
X555625Y605790D02*
D03*
Y148590D02*
D03*
X546100Y129540D02*
D03*
X555625Y110490D02*
D03*
Y34290D02*
D03*
X546100Y15240D02*
D03*
X536575Y796290D02*
D03*
Y643890D02*
D03*
X527050Y624840D02*
D03*
Y320040D02*
D03*
X536575Y224790D02*
D03*
X527050Y205740D02*
D03*
Y129540D02*
D03*
X536575Y110490D02*
D03*
X527050Y15240D02*
D03*
X517525Y605790D02*
D03*
Y567690D02*
D03*
Y186690D02*
D03*
X508000Y167640D02*
D03*
X517525Y110490D02*
D03*
X508000Y15240D02*
D03*
X498475Y796290D02*
D03*
Y605790D02*
D03*
Y186690D02*
D03*
X488950Y167640D02*
D03*
Y91440D02*
D03*
Y53340D02*
D03*
X498475Y34290D02*
D03*
X488950Y15240D02*
D03*
X479425Y796290D02*
D03*
X469900Y167640D02*
D03*
X479425Y148590D02*
D03*
Y72390D02*
D03*
Y34290D02*
D03*
X469900Y15240D02*
D03*
X460375Y567690D02*
D03*
Y529590D02*
D03*
Y186690D02*
D03*
X450850Y15240D02*
D03*
X441325Y796290D02*
D03*
X431800Y358140D02*
D03*
X441325Y224790D02*
D03*
Y186690D02*
D03*
X431800Y167640D02*
D03*
Y91440D02*
D03*
Y15240D02*
D03*
X422275Y796290D02*
D03*
Y224790D02*
D03*
X412750Y205740D02*
D03*
X422275Y186690D02*
D03*
X412750Y167640D02*
D03*
Y91440D02*
D03*
X422275Y34290D02*
D03*
X412750Y15240D02*
D03*
X393700Y777240D02*
D03*
X403225Y339090D02*
D03*
Y300990D02*
D03*
Y224790D02*
D03*
X393700Y205740D02*
D03*
X403225Y186690D02*
D03*
X393700Y91440D02*
D03*
Y53340D02*
D03*
X403225Y34290D02*
D03*
X393700Y15240D02*
D03*
X384175Y796290D02*
D03*
X374650Y777240D02*
D03*
X384175Y758190D02*
D03*
Y681990D02*
D03*
Y453390D02*
D03*
X374650Y358140D02*
D03*
Y320040D02*
D03*
Y281940D02*
D03*
Y243840D02*
D03*
X384175Y34290D02*
D03*
X374650Y15240D02*
D03*
X365125Y796290D02*
D03*
X355600Y777240D02*
D03*
X365125Y415290D02*
D03*
Y339090D02*
D03*
Y300990D02*
D03*
X355600Y281940D02*
D03*
X365125Y262890D02*
D03*
X355600Y243840D02*
D03*
X365125Y224790D02*
D03*
X355600Y205740D02*
D03*
X365125Y186690D02*
D03*
X355600Y53340D02*
D03*
X365125Y34290D02*
D03*
X355600Y15240D02*
D03*
X346075Y796290D02*
D03*
X336550Y777240D02*
D03*
X346075Y224790D02*
D03*
X336550Y205740D02*
D03*
X346075Y34290D02*
D03*
X336550Y15240D02*
D03*
X327025Y796290D02*
D03*
Y186690D02*
D03*
Y34290D02*
D03*
X317500Y15240D02*
D03*
X298450Y777240D02*
D03*
X307975Y377190D02*
D03*
Y262890D02*
D03*
Y34290D02*
D03*
X298450Y15240D02*
D03*
X288925Y796290D02*
D03*
Y567690D02*
D03*
Y377190D02*
D03*
Y72390D02*
D03*
X279400Y15240D02*
D03*
X269875Y186690D02*
D03*
X250825Y224790D02*
D03*
Y186690D02*
D03*
X241300Y129540D02*
D03*
X231775Y377190D02*
D03*
Y224790D02*
D03*
X222250Y205740D02*
D03*
X203200Y701040D02*
D03*
Y358140D02*
D03*
X212725Y339090D02*
D03*
X203200Y320040D02*
D03*
X212725Y300990D02*
D03*
X203200Y281940D02*
D03*
Y243840D02*
D03*
X212725Y224790D02*
D03*
X203200Y205740D02*
D03*
X193675Y796290D02*
D03*
Y758190D02*
D03*
Y377190D02*
D03*
X184150Y167640D02*
D03*
Y53340D02*
D03*
Y15240D02*
D03*
X165100Y777240D02*
D03*
Y739140D02*
D03*
Y701040D02*
D03*
Y358140D02*
D03*
X174625Y339090D02*
D03*
Y300990D02*
D03*
X165100Y281940D02*
D03*
X174625Y262890D02*
D03*
X165100Y243840D02*
D03*
X174625Y224790D02*
D03*
X165100Y205740D02*
D03*
X174625Y186690D02*
D03*
X165100Y167640D02*
D03*
X174625Y148590D02*
D03*
Y72390D02*
D03*
X165100Y15240D02*
D03*
X155575Y720090D02*
D03*
X146050Y662940D02*
D03*
X155575Y377190D02*
D03*
Y224790D02*
D03*
X146050Y205740D02*
D03*
X155575Y186690D02*
D03*
X146050Y167640D02*
D03*
X155575Y148590D02*
D03*
Y110490D02*
D03*
X146050Y91440D02*
D03*
X155575Y72390D02*
D03*
Y34290D02*
D03*
X146050Y15240D02*
D03*
X136525Y643890D02*
D03*
Y224790D02*
D03*
Y186690D02*
D03*
Y110490D02*
D03*
Y34290D02*
D03*
X127000Y15240D02*
D03*
X117475Y377190D02*
D03*
Y186690D02*
D03*
X107950Y167640D02*
D03*
Y15240D02*
D03*
X98425Y377190D02*
D03*
X88900Y167640D02*
D03*
X98425Y148590D02*
D03*
X88900Y129540D02*
D03*
Y91440D02*
D03*
X98425Y72390D02*
D03*
X88900Y53340D02*
D03*
X98425Y34290D02*
D03*
X88900Y15240D02*
D03*
X79375Y529590D02*
D03*
X69850Y472440D02*
D03*
X79375Y186690D02*
D03*
X69850Y167640D02*
D03*
X79375Y148590D02*
D03*
X69850Y91440D02*
D03*
X79375Y72390D02*
D03*
Y34290D02*
D03*
X69850Y15240D02*
D03*
X50800Y624840D02*
D03*
Y586740D02*
D03*
X60325Y186690D02*
D03*
X50800Y167640D02*
D03*
X60325Y148590D02*
D03*
Y110490D02*
D03*
X50800Y15240D02*
D03*
X41275Y567690D02*
D03*
Y491490D02*
D03*
X31750Y396240D02*
D03*
X41275Y224790D02*
D03*
Y186690D02*
D03*
X31750Y129540D02*
D03*
X41275Y110490D02*
D03*
X31750Y15240D02*
D03*
X22225Y796290D02*
D03*
X12700Y777240D02*
D03*
Y739140D02*
D03*
Y701040D02*
D03*
Y624840D02*
D03*
X22225Y605790D02*
D03*
X12700Y472440D02*
D03*
X22225Y415290D02*
D03*
X12700Y396240D02*
D03*
Y358140D02*
D03*
Y320040D02*
D03*
Y281940D02*
D03*
Y243840D02*
D03*
Y205740D02*
D03*
Y167640D02*
D03*
X22225Y148590D02*
D03*
X12700Y129540D02*
D03*
X22225Y110490D02*
D03*
X12700Y91440D02*
D03*
X22225Y34290D02*
D03*
X12700Y15240D02*
D03*
X474980Y486410D02*
D03*
X435610Y496570D02*
D03*
X425450Y604520D02*
D03*
Y588010D02*
D03*
Y612140D02*
D03*
Y595630D02*
D03*
X402590Y405130D02*
D03*
X414020Y433070D02*
D03*
X243840Y400050D02*
D03*
Y405130D02*
D03*
X72390Y494030D02*
D03*
X54610Y532130D02*
D03*
Y538480D02*
D03*
X64770Y494030D02*
D03*
X13970Y557530D02*
D03*
Y549910D02*
D03*
Y492760D02*
D03*
X30480Y529590D02*
D03*
X24130D02*
D03*
Y584200D02*
D03*
X30480D02*
D03*
X13970Y501650D02*
D03*
X326390Y656590D02*
D03*
X271780D02*
D03*
X252730Y270510D02*
D03*
X59690D02*
D03*
X452120Y685800D02*
D03*
X302260Y698500D02*
D03*
X445770Y270510D02*
D03*
X127000Y478790D02*
D03*
X12065Y677545D02*
D03*
Y669925D02*
D03*
Y662305D02*
D03*
X161290Y732790D02*
D03*
X153670D02*
D03*
X472440Y474980D02*
D03*
Y459740D02*
D03*
Y467360D02*
D03*
X464820Y459740D02*
D03*
X248920Y803910D02*
D03*
X256540D02*
D03*
X377190Y676910D02*
D03*
X558800Y732790D02*
D03*
Y725170D02*
D03*
X243840Y389890D02*
D03*
X87630Y408940D02*
D03*
X82550Y403860D02*
D03*
X74930D02*
D03*
X170180Y317500D02*
D03*
Y309880D02*
D03*
X13970Y269240D02*
D03*
Y261620D02*
D03*
Y254000D02*
D03*
X207010Y269240D02*
D03*
Y261620D02*
D03*
Y254000D02*
D03*
X356870Y317500D02*
D03*
X364490D02*
D03*
X562610Y309880D02*
D03*
Y317500D02*
D03*
X219710Y195580D02*
D03*
X203200Y88900D02*
D03*
X53340Y685800D02*
D03*
X248920Y539750D02*
D03*
Y532130D02*
D03*
X289560Y478910D02*
D03*
X402590Y269240D02*
D03*
Y261620D02*
D03*
Y254000D02*
D03*
X377190Y669290D02*
D03*
X369570D02*
D03*
X433070Y604520D02*
D03*
X394970Y525780D02*
D03*
Y518160D02*
D03*
X502920Y408940D02*
D03*
X464820Y452120D02*
D03*
X472440D02*
D03*
X538480Y406400D02*
D03*
X184150Y604520D02*
D03*
X227330Y589280D02*
D03*
X217170D02*
D03*
X207793Y575310D02*
D03*
X238760Y589280D02*
D03*
X199390Y589291D02*
D03*
X205740Y589280D02*
D03*
X243840Y581660D02*
D03*
X260350Y576700D02*
D03*
Y585470D02*
D03*
X478790Y379730D02*
D03*
X473710Y384810D02*
D03*
X468630Y389890D02*
D03*
X456629Y399351D02*
D03*
X450850Y387350D02*
D03*
X400050Y473710D02*
D03*
X306070Y306070D02*
D03*
X436880Y471170D02*
D03*
X434340Y488950D02*
D03*
X404397Y560332D02*
D03*
X405130Y448310D02*
D03*
X402590Y396240D02*
D03*
X436880Y480060D02*
D03*
X235889Y626276D02*
D03*
X256540Y622300D02*
D03*
X250190D02*
D03*
X205740Y431800D02*
D03*
X243840Y622300D02*
D03*
X256540Y628650D02*
D03*
X248920D02*
D03*
X160020Y650240D02*
D03*
X151130D02*
D03*
X398780Y543560D02*
D03*
X405130Y568960D02*
D03*
X275590Y624840D02*
D03*
X365760Y621030D02*
D03*
X373380D02*
D03*
X388620Y613410D02*
D03*
X396240D02*
D03*
X388620Y621030D02*
D03*
X396240D02*
D03*
X394970Y593090D02*
D03*
X405130Y576580D02*
D03*
X492760Y412750D02*
D03*
Y420370D02*
D03*
X402590Y387350D02*
D03*
X365760Y628650D02*
D03*
X373380D02*
D03*
X339090Y656590D02*
D03*
X381000Y621030D02*
D03*
X295910Y656590D02*
D03*
X398780Y443230D02*
D03*
X391160D02*
D03*
X383540D02*
D03*
X443230Y387350D02*
D03*
X212090Y624840D02*
D03*
X219710Y626110D02*
D03*
X227330D02*
D03*
X478790Y435610D02*
D03*
Y427990D02*
D03*
X290830Y471290D02*
D03*
X270510Y553840D02*
D03*
X251460Y554410D02*
D03*
X260350Y555110D02*
D03*
X283210Y571620D02*
D03*
X300990Y581780D02*
D03*
X276860Y584200D02*
D03*
X318770Y409060D02*
D03*
X334010D02*
D03*
X373380Y450970D02*
D03*
X344170Y483990D02*
D03*
X379730Y489070D02*
D03*
X344170Y491490D02*
D03*
Y499110D02*
D03*
X309880Y500500D02*
D03*
X344170Y506730D02*
D03*
X339090Y509270D02*
D03*
X342900Y514350D02*
D03*
X341630Y522180D02*
D03*
X323850Y560190D02*
D03*
X368990Y578660D02*
D03*
X334010Y589280D02*
D03*
X325120D02*
D03*
X316230D02*
D03*
X344170D02*
D03*
X397574Y585929D02*
D03*
X45720Y367030D02*
D03*
X37020Y366955D02*
D03*
X500380Y283210D02*
D03*
Y290830D02*
D03*
Y297180D02*
D03*
X499110Y306070D02*
D03*
X495300Y300990D02*
D03*
X302260D02*
D03*
X307340Y298450D02*
D03*
Y290830D02*
D03*
Y283210D02*
D03*
X114300D02*
D03*
Y290830D02*
D03*
Y298450D02*
D03*
X113030Y306070D02*
D03*
X109220Y300990D02*
D03*
X176530Y509270D02*
D03*
X180340Y514350D02*
D03*
X182880Y506730D02*
D03*
X181610Y499110D02*
D03*
Y491490D02*
D03*
X501650Y718820D02*
D03*
X505460Y722630D02*
D03*
X506730Y715010D02*
D03*
Y699770D02*
D03*
X266700Y751840D02*
D03*
X274320Y753110D02*
D03*
X289560D02*
D03*
X270510Y748030D02*
D03*
X281940Y753110D02*
D03*
X107950Y698500D02*
D03*
Y713740D02*
D03*
X506730Y707390D02*
D03*
X102870Y717550D02*
D03*
X107950Y706120D02*
D03*
X106680Y722630D02*
D03*
X137160Y657860D02*
D03*
X34290Y760730D02*
D03*
X64770Y788670D02*
D03*
X54610Y678180D02*
D03*
X46990Y778510D02*
D03*
X143510Y695960D02*
D03*
X87630Y767080D02*
D03*
X105410Y729070D02*
D03*
X107950Y690880D02*
D03*
X73660Y707390D02*
D03*
X469317Y548640D02*
D03*
X440690Y588010D02*
D03*
X433070D02*
D03*
X440690Y595630D02*
D03*
X433070D02*
D03*
X541020Y601980D02*
D03*
X416560Y346710D02*
D03*
X381000Y628650D02*
D03*
X496570Y532130D02*
D03*
Y539750D02*
D03*
X210820Y450850D02*
D03*
X217170Y488950D02*
D03*
X181610Y483870D02*
D03*
X179070Y522060D02*
D03*
X107950Y553720D02*
D03*
X120650Y571500D02*
D03*
X138430Y581660D02*
D03*
X161290Y560070D02*
D03*
X147320Y500380D02*
D03*
X128270Y471170D02*
D03*
X481330Y615950D02*
D03*
X88900Y554990D02*
D03*
X209550Y683260D02*
D03*
Y674370D02*
D03*
X351790Y656590D02*
D03*
X279110Y35015D02*
D03*
X281940Y27940D02*
D03*
X474980Y200660D02*
D03*
X139120Y370260D02*
D03*
X97790Y554990D02*
D03*
X88900Y200660D02*
D03*
X132770Y785550D02*
D03*
X299720Y622300D02*
D03*
X290830D02*
D03*
X313690Y624840D02*
D03*
X414020Y762000D02*
D03*
X283210Y591820D02*
D03*
X407670Y346710D02*
D03*
X332160Y370260D02*
D03*
X447040Y262890D02*
D03*
X490220Y200660D02*
D03*
X466090Y292100D02*
D03*
X529590Y242570D02*
D03*
X535940Y280670D02*
D03*
X500380Y275590D02*
D03*
X480060Y351790D02*
D03*
X439420Y363220D02*
D03*
X497840Y313780D02*
D03*
X525200Y370260D02*
D03*
X426720Y345440D02*
D03*
X457200Y373380D02*
D03*
X171207Y408697D02*
D03*
X156210Y408940D02*
D03*
X330200Y782320D02*
D03*
X227330Y679450D02*
D03*
X372110Y742950D02*
D03*
X199390Y709930D02*
D03*
X309880Y699770D02*
D03*
X372110Y727710D02*
D03*
X209550Y692150D02*
D03*
X202510Y777930D02*
D03*
X292100Y788670D02*
D03*
X220980Y732790D02*
D03*
X258990Y750570D02*
D03*
X297180Y753110D02*
D03*
X280670Y718820D02*
D03*
X535940Y657860D02*
D03*
X433070Y760730D02*
D03*
X496570Y615950D02*
D03*
X463550Y788670D02*
D03*
X453390Y678180D02*
D03*
X422910Y762000D02*
D03*
X445770Y778510D02*
D03*
X531550Y785550D02*
D03*
X542290Y695960D02*
D03*
X486410Y767080D02*
D03*
X504190Y729070D02*
D03*
X506730Y690880D02*
D03*
X472440Y707390D02*
D03*
X97790Y615950D02*
D03*
X15240Y762000D02*
D03*
X82550Y615950D02*
D03*
X24130Y762000D02*
D03*
X80010Y292100D02*
D03*
X111760Y313780D02*
D03*
X53340Y363220D02*
D03*
X60960Y262890D02*
D03*
X71120Y373380D02*
D03*
X143510Y242570D02*
D03*
X93980Y351790D02*
D03*
X149860Y280670D02*
D03*
X114300Y275590D02*
D03*
X104140Y200660D02*
D03*
X40640Y345440D02*
D03*
X336550Y242570D02*
D03*
X233680Y345440D02*
D03*
X297180Y200660D02*
D03*
X214630Y346710D02*
D03*
X264160Y373380D02*
D03*
X254000Y262890D02*
D03*
X281940Y200660D02*
D03*
X223520Y346710D02*
D03*
X246380Y363220D02*
D03*
X342900Y280670D02*
D03*
X287020Y351790D02*
D03*
X304800Y313780D02*
D03*
X307340Y275590D02*
D03*
X273050Y292100D02*
D03*
D52*
X119126Y51308D02*
D03*
X452374D02*
D03*
X119126Y131318D02*
D03*
X452374D02*
D03*
D53*
X527050Y444500D02*
D03*
X44450D02*
D03*
X527050Y63500D02*
D03*
X44450D02*
D03*
D55*
X271907Y147320D02*
D03*
Y79756D02*
D03*
X382651Y147320D02*
D03*
X368808Y118872D02*
D03*
X354965Y147320D02*
D03*
X341122Y118872D02*
D03*
X327279Y147320D02*
D03*
X313436Y118872D02*
D03*
X299593Y147320D02*
D03*
X285750Y118872D02*
D03*
X258064D02*
D03*
X244221Y147320D02*
D03*
X230378Y118872D02*
D03*
X216535Y147320D02*
D03*
X202692Y118872D02*
D03*
X382651Y79756D02*
D03*
X368808Y51308D02*
D03*
X354965Y79756D02*
D03*
X341122Y51308D02*
D03*
X327279Y79756D02*
D03*
X313436Y51308D02*
D03*
X299593Y79756D02*
D03*
X285750Y51308D02*
D03*
X258064D02*
D03*
X244221Y79756D02*
D03*
X230378Y51308D02*
D03*
X216535Y79756D02*
D03*
X202692Y51308D02*
D03*
M02*
