G04*
G04 #@! TF.GenerationSoftware,Altium Limited,Altium Designer,25.2.1 (25)*
G04*
G04 Layer_Physical_Order=1*
G04 Layer_Color=255*
%FSLAX44Y44*%
%MOMM*%
G71*
G04*
G04 #@! TF.SameCoordinates,19C4BDDF-93A7-4B35-A08B-5249B5D30A9C*
G04*
G04*
G04 #@! TF.FilePolarity,Positive*
G04*
G01*
G75*
%ADD13C,0.5080*%
%ADD15C,0.2540*%
%ADD18R,0.4318X1.0033*%
G04:AMPARAMS|DCode=19|XSize=0.81mm|YSize=0.27mm|CornerRadius=0.0338mm|HoleSize=0mm|Usage=FLASHONLY|Rotation=0.000|XOffset=0mm|YOffset=0mm|HoleType=Round|Shape=RoundedRectangle|*
%AMROUNDEDRECTD19*
21,1,0.8100,0.2025,0,0,0.0*
21,1,0.7425,0.2700,0,0,0.0*
1,1,0.0675,0.3713,-0.1013*
1,1,0.0675,-0.3713,-0.1013*
1,1,0.0675,-0.3713,0.1013*
1,1,0.0675,0.3713,0.1013*
%
%ADD19ROUNDEDRECTD19*%
%ADD20O,0.4500X1.8000*%
%ADD21O,1.8000X0.4500*%
%ADD22C,0.7620*%
%ADD23R,0.7900X0.9300*%
%ADD24R,0.9300X0.7900*%
%ADD25R,0.9000X0.7500*%
%ADD26R,0.8000X0.8000*%
%ADD27R,0.9500X1.0000*%
%ADD28R,1.4400X1.8200*%
%ADD29R,1.8200X1.4400*%
%ADD30R,1.0000X0.9500*%
%ADD44C,1.7018*%
%ADD48R,0.3556X1.1684*%
%ADD49R,1.2000X2.0000*%
%ADD50C,0.7620*%
%ADD51C,0.5080*%
%ADD52C,3.8100*%
%ADD53C,6.3500*%
G36*
X571500Y604703D02*
X568960Y603355D01*
X544830D01*
X543858Y602952D01*
X543455Y601980D01*
Y601496D01*
X543085Y600601D01*
X542638Y600154D01*
X542235Y599182D01*
X542235Y599182D01*
Y592690D01*
X534060D01*
Y591769D01*
X532064Y590455D01*
X529384D01*
Y601922D01*
X539722Y612259D01*
X540009Y612140D01*
X542030D01*
X543898Y612913D01*
X545327Y614342D01*
X546100Y616209D01*
Y618231D01*
X545327Y620098D01*
X543898Y621527D01*
X542030Y622300D01*
X540009D01*
X538142Y621527D01*
X536713Y620098D01*
X535940Y618231D01*
Y616209D01*
X536059Y615922D01*
X524963Y604826D01*
X524402Y603985D01*
X524285Y603397D01*
X524204Y603355D01*
X441259D01*
X440242Y604372D01*
X439844Y604537D01*
X439476Y604759D01*
X439210Y604799D01*
X438674Y604910D01*
X436659Y606007D01*
X436446Y606325D01*
X436300Y606678D01*
X436029Y606949D01*
X435817Y607267D01*
X435499Y607479D01*
X435228Y607750D01*
X434875Y607896D01*
X434557Y608109D01*
X434181Y608184D01*
X433828Y608330D01*
X433445D01*
X433070Y608405D01*
X429335D01*
Y612140D01*
Y623231D01*
X433277Y627173D01*
X434119Y628433D01*
X434415Y629920D01*
Y643452D01*
X435940Y645360D01*
X436955Y645360D01*
X440690D01*
Y652900D01*
X443230D01*
Y655440D01*
X450520D01*
Y660440D01*
X449250Y662454D01*
X449250Y662980D01*
Y673320D01*
X451272Y674591D01*
X453180Y673207D01*
X453180Y672023D01*
Y656400D01*
X473920Y656400D01*
X475080Y654341D01*
Y648680D01*
X473920Y646620D01*
X472540Y646620D01*
X453180D01*
Y629680D01*
X473920D01*
Y629680D01*
X475080Y630810D01*
X478740D01*
Y618748D01*
X478100Y618108D01*
X477520Y616708D01*
Y615192D01*
X478100Y613792D01*
X479172Y612720D01*
X480572Y612140D01*
X482088D01*
X483488Y612720D01*
X484560Y613792D01*
X485140Y615192D01*
Y616708D01*
X484560Y618108D01*
X483920Y618748D01*
Y630810D01*
X487120D01*
Y643270D01*
X487120Y643350D01*
Y645810D01*
X487120Y645890D01*
Y658350D01*
X483690D01*
Y662790D01*
X487010D01*
Y674630D01*
X484380D01*
Y675640D01*
X484183Y676631D01*
X483621Y677471D01*
X477732Y683360D01*
X478784Y685900D01*
X495750D01*
X496741Y686097D01*
X497581Y686659D01*
X500573Y689651D01*
X502772Y689332D01*
X503382Y689006D01*
X503500Y688722D01*
X503530Y688691D01*
X503600Y688460D01*
X503405Y685864D01*
X503260Y685643D01*
X496359Y678741D01*
X495797Y677901D01*
X495600Y676910D01*
Y674630D01*
X492970D01*
Y662790D01*
X495020D01*
Y658350D01*
X491590D01*
Y645890D01*
X491590Y645810D01*
Y643350D01*
X491590Y643270D01*
Y630810D01*
X493980D01*
Y618748D01*
X493340Y618108D01*
X492760Y616708D01*
Y615192D01*
X493340Y613792D01*
X494412Y612720D01*
X495812Y612140D01*
X497328D01*
X498728Y612720D01*
X499800Y613792D01*
X500380Y615192D01*
Y616708D01*
X499800Y618108D01*
X499160Y618748D01*
Y630810D01*
X503178D01*
X505250Y629680D01*
Y629680D01*
X505250Y629680D01*
X525990D01*
Y646620D01*
X506170D01*
X505250Y646620D01*
X503630Y648489D01*
Y654531D01*
X505250Y656400D01*
X525990D01*
Y673340D01*
X518210D01*
Y678150D01*
X522580D01*
Y688590D01*
X512655D01*
X510620Y690064D01*
X510540Y691047D01*
Y691638D01*
X510312Y692187D01*
X511666Y694386D01*
X511874Y694550D01*
X512728Y694550D01*
X512728Y694550D01*
X512741Y694550D01*
X518218D01*
X518639Y694129D01*
X519479Y693567D01*
X520470Y693370D01*
X539492D01*
X540132Y692730D01*
X541532Y692150D01*
X543048D01*
X544448Y692730D01*
X545520Y693802D01*
X546100Y695202D01*
Y696718D01*
X545520Y698118D01*
X544448Y699190D01*
X543048Y699770D01*
X541532D01*
X540132Y699190D01*
X539492Y698550D01*
X522580D01*
Y704990D01*
X519250D01*
Y711170D01*
X522580D01*
Y721610D01*
X510740D01*
Y711170D01*
X514070D01*
Y704990D01*
X510740D01*
Y696668D01*
X510740Y695850D01*
X510128Y695275D01*
X508278Y694363D01*
X507488Y694690D01*
X505972D01*
X505869Y694647D01*
X503329Y696186D01*
Y708050D01*
X503056Y709423D01*
X502278Y710588D01*
X501114Y711366D01*
X499740Y711639D01*
X498367Y711366D01*
X497930Y711074D01*
X495596Y712016D01*
X495390Y712199D01*
Y713551D01*
X495193Y714543D01*
X494631Y715383D01*
X486713Y723301D01*
X485873Y723863D01*
X484882Y724060D01*
X475713D01*
X469240Y730533D01*
Y738010D01*
X465910D01*
Y744190D01*
X469240D01*
Y754580D01*
X472690D01*
X473681Y754777D01*
X474521Y755339D01*
X479351Y760169D01*
X479913Y761009D01*
X480110Y762000D01*
Y766202D01*
X482600Y766322D01*
X483180Y764922D01*
X484252Y763850D01*
X485652Y763270D01*
X486558D01*
X490650Y759177D01*
Y754225D01*
X488113Y752866D01*
X486740Y753139D01*
X485367Y752866D01*
X484273Y752135D01*
X483693Y753003D01*
X482780Y753614D01*
Y742800D01*
Y731815D01*
X485060Y731721D01*
X485832Y731225D01*
X488899Y728159D01*
X489739Y727597D01*
X490730Y727400D01*
X500563D01*
X500833Y727220D01*
X500960Y726912D01*
X502032Y725840D01*
X503432Y725260D01*
X504948D01*
X506348Y725840D01*
X507420Y726912D01*
X508000Y728312D01*
X508200Y728528D01*
X510740Y727570D01*
Y727570D01*
X522580D01*
Y738010D01*
X510740D01*
Y738010D01*
X508939Y737264D01*
X503329Y742874D01*
Y749550D01*
X503056Y750923D01*
X502970Y751052D01*
Y763270D01*
X502773Y764261D01*
X502211Y765101D01*
X490781Y776531D01*
X489941Y777093D01*
X488950Y777290D01*
X481330D01*
X480339Y777093D01*
X479499Y776531D01*
X475689Y772721D01*
X475127Y771881D01*
X474930Y770890D01*
Y763073D01*
X471617Y759760D01*
X471436D01*
X469240Y760590D01*
X469240Y762300D01*
Y771030D01*
X465910D01*
Y785642D01*
X466780Y786512D01*
X467360Y787912D01*
Y789428D01*
X466780Y790828D01*
X465708Y791900D01*
X464308Y792480D01*
X462792D01*
X461392Y791900D01*
X460320Y790828D01*
X459740Y789428D01*
Y787912D01*
X460320Y786512D01*
X460730Y786102D01*
Y771030D01*
X457400D01*
X457400Y760590D01*
X455204Y759760D01*
X453656D01*
X451460Y760590D01*
X451460Y762300D01*
Y771030D01*
X448360D01*
Y775712D01*
X449000Y776352D01*
X449580Y777752D01*
Y779268D01*
X449000Y780668D01*
X447928Y781740D01*
X446528Y782320D01*
X445012D01*
X444958Y782297D01*
X444374Y782881D01*
X443534Y783443D01*
X442543Y783640D01*
X437496D01*
X437377Y783928D01*
X435948Y785357D01*
X434081Y786130D01*
X432060D01*
X430192Y785357D01*
X428763Y783928D01*
X427990Y782060D01*
Y780040D01*
X428432Y778973D01*
X426279Y777534D01*
X424061Y779752D01*
X424180Y780040D01*
Y782060D01*
X423407Y783928D01*
X421978Y785357D01*
X420111Y786130D01*
X418089D01*
X416222Y785357D01*
X414793Y783928D01*
X414020Y782060D01*
Y780040D01*
X414793Y778172D01*
X416222Y776743D01*
X418089Y775970D01*
X420111D01*
X420398Y776089D01*
X430480Y766007D01*
Y763528D01*
X429840Y762888D01*
X429260Y761488D01*
Y759972D01*
X429840Y758572D01*
X430912Y757500D01*
X432312Y756920D01*
X432492D01*
X432556Y756891D01*
X434346Y755083D01*
X434490Y754573D01*
Y741250D01*
X434687Y740259D01*
X435249Y739419D01*
X436941Y737726D01*
X436032Y735533D01*
X433622D01*
X433567Y735668D01*
X432138Y737097D01*
X430271Y737870D01*
X428250D01*
X426382Y737097D01*
X424953Y735668D01*
X424180Y733801D01*
Y731779D01*
X424953Y729912D01*
X426382Y728483D01*
X427490Y728025D01*
Y725363D01*
X426382Y724905D01*
X424953Y723476D01*
X424180Y721609D01*
Y719587D01*
X424953Y717720D01*
X426382Y716291D01*
X428250Y715518D01*
X430271D01*
X432138Y716291D01*
X433567Y717720D01*
X433686Y718008D01*
X437556D01*
X439553Y716162D01*
X439620Y716026D01*
Y711170D01*
X451460D01*
Y713800D01*
X457400D01*
Y711170D01*
X460730D01*
Y704990D01*
X457400D01*
Y694550D01*
X455462Y693096D01*
X455261Y692961D01*
X453213Y690913D01*
X452778Y690938D01*
X450576Y691868D01*
X450520Y692110D01*
X450520Y692934D01*
Y697110D01*
X435940D01*
Y692110D01*
X437210Y690096D01*
X437210Y689570D01*
Y678380D01*
X440640D01*
Y674170D01*
X437210D01*
Y671785D01*
X435490D01*
X434003Y671489D01*
X432743Y670647D01*
X427783Y665687D01*
X426941Y664427D01*
X426645Y662940D01*
Y631529D01*
X422703Y627587D01*
X421861Y626327D01*
X419108Y625506D01*
X412452Y632162D01*
X411480Y632565D01*
X411480Y632565D01*
X395087D01*
X394220Y633862D01*
Y636138D01*
X393349Y638240D01*
X391740Y639849D01*
X389638Y640720D01*
X387362D01*
X385260Y639849D01*
X383651Y638240D01*
X382780Y636138D01*
Y633862D01*
X381913Y632565D01*
X360480D01*
X359508Y632162D01*
X359105Y631190D01*
Y630860D01*
X347494Y630860D01*
X345480Y632130D01*
X344656Y632130D01*
X340480D01*
Y624840D01*
X337940D01*
Y622300D01*
X330400D01*
Y618058D01*
X328929D01*
Y608958D01*
X336129D01*
Y617550D01*
X342415D01*
X344639Y616788D01*
X344639Y615010D01*
Y596048D01*
X361474D01*
Y594778D01*
X361633Y594395D01*
X361723Y593990D01*
X361829Y593922D01*
X361877Y593806D01*
X362260Y593647D01*
X362610Y593424D01*
X364977Y593006D01*
X365099Y593033D01*
X365216Y592985D01*
X379161D01*
X398001Y574145D01*
X398192Y574066D01*
X398322Y573906D01*
X398660Y573872D01*
X398973Y573742D01*
X399164Y573821D01*
X399369Y573800D01*
X400167Y574040D01*
X400733Y574165D01*
X402277Y571904D01*
X401900Y571118D01*
X401320Y569718D01*
Y568202D01*
X401900Y566802D01*
X402346Y566356D01*
X402252Y563899D01*
X402042Y563366D01*
X401167Y562491D01*
X400587Y561090D01*
Y559575D01*
X401167Y558174D01*
X402239Y557102D01*
X403639Y556522D01*
X405155D01*
X406555Y557102D01*
X407627Y558174D01*
X408207Y559575D01*
Y560460D01*
X410025Y561582D01*
X410554Y561725D01*
X428736Y544170D01*
X428313Y541048D01*
X425597Y538332D01*
X424475Y536652D01*
X424081Y534670D01*
Y511810D01*
X424475Y509828D01*
X425597Y508148D01*
X431348Y502397D01*
X431527Y502278D01*
X431695Y501642D01*
X431573Y499192D01*
X431542Y499160D01*
X423201D01*
X422210Y498963D01*
X421370Y498401D01*
X419589Y496620D01*
X415090D01*
Y500380D01*
X407550D01*
Y505460D01*
X415090D01*
Y510210D01*
X408551D01*
X407194Y512750D01*
X407375Y513022D01*
X407770Y515004D01*
X407770Y515004D01*
Y539750D01*
X407375Y541732D01*
X406253Y543413D01*
X402443Y547223D01*
X400762Y548345D01*
X398780Y548740D01*
X396798Y548345D01*
X395117Y547223D01*
X393995Y545542D01*
X393601Y543560D01*
X393995Y541578D01*
X395117Y539897D01*
X397411Y537605D01*
Y531642D01*
X395728Y529590D01*
X394212D01*
X392812Y529010D01*
X391740Y527938D01*
X391160Y526538D01*
Y525022D01*
X391740Y523622D01*
X392533Y521970D01*
X391740Y520318D01*
X391160Y518918D01*
Y517402D01*
X391740Y516002D01*
X392206Y515536D01*
X392815Y514779D01*
X392877Y512154D01*
X392685Y511866D01*
X392290Y509884D01*
Y509735D01*
X391495Y508940D01*
X386280D01*
Y496900D01*
X387116D01*
Y484199D01*
X387100Y484124D01*
X387495Y482142D01*
X388618Y480462D01*
X389232Y480051D01*
Y477012D01*
X394645D01*
X394807Y476892D01*
X395365Y476320D01*
X396406Y474918D01*
X396386Y474821D01*
X396240Y474468D01*
Y474085D01*
X396165Y473710D01*
X396240Y473335D01*
Y472952D01*
X396242Y472948D01*
X396058Y472033D01*
X395365Y471100D01*
X394807Y470528D01*
X394645Y470408D01*
X389232D01*
Y456184D01*
X389690D01*
Y453043D01*
X383688Y447040D01*
X382782D01*
X381382Y446460D01*
X380310Y445388D01*
X379730Y443988D01*
Y442472D01*
X380310Y441072D01*
X381382Y440000D01*
X382782Y439420D01*
X384298D01*
X385698Y440000D01*
X387350Y440793D01*
X389002Y440000D01*
X390402Y439420D01*
X391918D01*
X393318Y440000D01*
X394970Y440793D01*
X396622Y440000D01*
X398022Y439420D01*
X399538D01*
X400938Y440000D01*
X402010Y441072D01*
X402590Y442472D01*
Y442489D01*
X404237Y444347D01*
X404937Y444500D01*
X405888D01*
X407288Y445080D01*
X408360Y446152D01*
X408940Y447552D01*
Y449068D01*
X408360Y450468D01*
X407288Y451540D01*
X405888Y452120D01*
X404372D01*
X403910Y451928D01*
X401616Y453128D01*
X401370Y453416D01*
Y454001D01*
X402232Y456184D01*
X408328D01*
Y461000D01*
X408869Y461809D01*
X409165Y463296D01*
X408869Y464783D01*
X408403Y465480D01*
Y470566D01*
X408107Y472053D01*
X407265Y473313D01*
X406106Y474472D01*
X407158Y477012D01*
X408328D01*
Y491026D01*
X408743Y491440D01*
X420661D01*
X421652Y491637D01*
X422493Y492199D01*
X424274Y493980D01*
X428537D01*
X429894Y491440D01*
X429555Y490932D01*
X429160Y488950D01*
Y483998D01*
X420665Y475503D01*
X415950D01*
Y468543D01*
X415850Y468043D01*
X415950Y467542D01*
Y463043D01*
X415950Y462963D01*
X415950D01*
Y460503D01*
X415950D01*
Y453793D01*
X415850Y453293D01*
Y442225D01*
X410358Y436732D01*
X409235Y435052D01*
X408840Y433070D01*
X409235Y431088D01*
X410358Y429408D01*
X412038Y428285D01*
X414020Y427891D01*
X416002Y428285D01*
X417682Y429408D01*
X424692Y436418D01*
X425815Y438098D01*
X426209Y440080D01*
Y447963D01*
X427990D01*
Y449053D01*
X433861D01*
Y447675D01*
X458833D01*
X459982Y445404D01*
X458678Y443280D01*
X440690D01*
X439699Y443083D01*
X438859Y442521D01*
X435459Y439121D01*
X434898Y438281D01*
X434701Y437290D01*
Y433705D01*
X433861D01*
Y421132D01*
X443241D01*
X444213Y418785D01*
X441558Y416130D01*
X434780D01*
Y404290D01*
X445220D01*
Y412467D01*
X448860Y416107D01*
X451400Y415055D01*
Y404290D01*
X453074D01*
X453639Y401750D01*
X453399Y401509D01*
X452819Y400109D01*
Y398593D01*
X453399Y397193D01*
X454471Y396121D01*
X455871Y395541D01*
X457387D01*
X458787Y396121D01*
X459859Y397193D01*
X460439Y398593D01*
Y400109D01*
X459859Y401509D01*
X459618Y401750D01*
X460183Y404290D01*
X461840D01*
Y416130D01*
X459380D01*
Y421132D01*
X460219D01*
Y433611D01*
X462544Y434224D01*
X470609Y426159D01*
X471449Y425597D01*
X472440Y425400D01*
X475992D01*
X476632Y424760D01*
X478032Y424180D01*
X479548D01*
X480948Y424760D01*
X482020Y425832D01*
X482600Y427232D01*
Y428748D01*
X482020Y430148D01*
X481227Y431800D01*
X482020Y433452D01*
X482600Y434852D01*
Y436368D01*
X482020Y437768D01*
X480948Y438840D01*
X479548Y439420D01*
X478032D01*
X476632Y438840D01*
X476035Y438243D01*
X473470D01*
X471127Y440585D01*
X472179Y443125D01*
X476250D01*
X477222Y443528D01*
X477625Y444500D01*
Y478790D01*
X477222Y479762D01*
X476250Y480165D01*
X471343D01*
X469619Y481152D01*
X469514Y482632D01*
X469514Y482682D01*
X469514Y484993D01*
X469514Y484993D01*
X469514Y485032D01*
Y486582D01*
X464864D01*
Y482632D01*
X467100D01*
X468562Y480092D01*
X468378Y479762D01*
X467975Y478790D01*
X467975Y478790D01*
X465601Y478360D01*
X457640D01*
Y470182D01*
X455404Y467947D01*
X454649Y467936D01*
X453770Y468148D01*
X452719Y468720D01*
X452683Y468901D01*
X452121Y469741D01*
X451680Y470182D01*
Y478360D01*
X451640D01*
Y488110D01*
X451640Y488110D01*
X451245Y490092D01*
X450650Y490983D01*
Y494080D01*
X446312D01*
X445510Y494240D01*
X444880D01*
X444078Y494080D01*
X440182D01*
X438447Y495559D01*
X438150Y496222D01*
Y497328D01*
X437730Y498340D01*
X438340Y499879D01*
X439010Y500881D01*
X444880D01*
X445682Y501040D01*
X450650D01*
Y511080D01*
X445682D01*
X444880Y511240D01*
X437155D01*
X434440Y513955D01*
Y532031D01*
X436838Y532866D01*
X438860Y531810D01*
Y529350D01*
X438860D01*
Y516810D01*
X450900D01*
Y520490D01*
X456404D01*
Y516247D01*
X459734D01*
Y510742D01*
X456404D01*
Y500302D01*
X468244D01*
Y509104D01*
X470463Y510456D01*
X470784Y510487D01*
X471571Y510330D01*
X473772D01*
X476084Y508932D01*
Y506908D01*
X476307Y505785D01*
X476943Y504833D01*
X477486Y504470D01*
X477379Y503932D01*
Y501908D01*
X477503Y501280D01*
X477859Y500749D01*
X478390Y500393D01*
X479017Y500269D01*
X486442D01*
X487003Y500380D01*
X493460D01*
Y505420D01*
X496000D01*
Y500380D01*
X500577D01*
X500943Y499833D01*
X501895Y499197D01*
X503018Y498974D01*
X504190D01*
Y502920D01*
X509270D01*
Y498974D01*
X510443D01*
X511565Y499197D01*
X512517Y499833D01*
X512925Y500444D01*
X513343Y500857D01*
X515740Y501771D01*
X515857Y501764D01*
X516132Y501650D01*
X517648D01*
X519760Y499776D01*
Y499230D01*
X527050D01*
Y496690D01*
X529590D01*
Y489150D01*
X534340D01*
X535730Y487186D01*
Y486170D01*
X544830D01*
Y495910D01*
X547370D01*
Y498450D01*
X559010D01*
Y504085D01*
X571500D01*
Y0D01*
X0D01*
Y812800D01*
X571500D01*
Y604703D01*
D02*
G37*
G36*
X421565Y621105D02*
Y612140D01*
Y604520D01*
X421640Y604145D01*
Y603762D01*
X421786Y603409D01*
X421861Y603033D01*
X422074Y602715D01*
X422220Y602362D01*
X422491Y602091D01*
X422703Y601773D01*
X423021Y601561D01*
X423292Y601290D01*
X423645Y601144D01*
X423963Y600931D01*
X424339Y600856D01*
X424692Y600710D01*
X425075D01*
X425450Y600635D01*
X433070D01*
X433445Y600710D01*
X433828D01*
X434181Y600856D01*
X434557Y600931D01*
X434875Y601144D01*
X435228Y601290D01*
X435499Y601561D01*
X435817Y601773D01*
X436029Y602091D01*
X436300Y602362D01*
X436446Y602715D01*
X438871Y603438D01*
X439004Y603440D01*
X439270Y603400D01*
X440690Y601980D01*
X524204D01*
Y591725D01*
X520254D01*
Y587725D01*
X526794D01*
Y585185D01*
X529334D01*
Y578645D01*
X533334D01*
Y579666D01*
X535330Y580980D01*
X547170D01*
Y591420D01*
X543610D01*
Y599182D01*
X544250Y599822D01*
X544830Y601222D01*
Y601980D01*
X568960D01*
X571500Y599440D01*
Y505460D01*
X533070D01*
Y517960D01*
X521030D01*
Y515510D01*
X515688D01*
X513376Y516908D01*
Y518932D01*
X513153Y520055D01*
X512936Y520380D01*
X506730D01*
Y522920D01*
X504190D01*
Y526866D01*
X503018D01*
X501895Y526643D01*
X501788Y526572D01*
X500233Y528467D01*
X500272Y528526D01*
X501902Y530391D01*
X518842D01*
Y551131D01*
X503915D01*
X503651Y551353D01*
X502427Y553671D01*
X502610Y554112D01*
Y555628D01*
X502030Y557028D01*
X500958Y558100D01*
X500288Y558378D01*
X499411Y559293D01*
X498948Y561220D01*
X499110Y561612D01*
Y563128D01*
X498530Y564528D01*
X497458Y565600D01*
X496058Y566180D01*
X494542D01*
X493142Y565600D01*
X492070Y564528D01*
X491490Y563128D01*
Y561612D01*
X491652Y561220D01*
X491189Y559293D01*
X490312Y558378D01*
X489642Y558100D01*
X488570Y557028D01*
X487990Y555628D01*
Y554112D01*
X488173Y553671D01*
X486949Y551353D01*
X486685Y551131D01*
X475182D01*
Y551074D01*
X472642Y550569D01*
X472547Y550798D01*
X471475Y551870D01*
X470075Y552450D01*
X468559D01*
X467159Y551870D01*
X466087Y550798D01*
X465507Y549398D01*
Y547882D01*
X463936Y545546D01*
X462255Y544423D01*
X461091Y543260D01*
X450900D01*
Y544350D01*
X438860D01*
Y543260D01*
X432670D01*
X431831Y543092D01*
X408369Y565745D01*
X408360Y566802D01*
X408940Y568202D01*
Y569718D01*
X408360Y571118D01*
X407567Y572770D01*
X408360Y574422D01*
X408940Y575822D01*
Y577338D01*
X408360Y578738D01*
X407288Y579810D01*
X405888Y580390D01*
X404372D01*
X402972Y579810D01*
X401900Y578738D01*
X401320Y577338D01*
Y576362D01*
X399772Y575357D01*
X398973Y575117D01*
X379730Y594360D01*
X365216D01*
X362849Y594778D01*
Y603878D01*
X353109D01*
Y608958D01*
X362849D01*
Y618058D01*
X360480D01*
Y622300D01*
X352940D01*
Y627380D01*
X360480D01*
Y631190D01*
X384221D01*
X385260Y630151D01*
X387362Y629280D01*
X389638D01*
X391740Y630151D01*
X392779Y631190D01*
X411480D01*
X421565Y621105D01*
D02*
G37*
G36*
X475182Y530391D02*
X477551D01*
Y524630D01*
X477503Y524560D01*
X477379Y523932D01*
Y521908D01*
X477503Y521280D01*
X477859Y520749D01*
X477503Y519560D01*
X477379Y518932D01*
Y516908D01*
X475196Y515510D01*
X472644D01*
X468244Y519910D01*
Y526687D01*
X466046D01*
X464185Y528832D01*
Y530348D01*
X465982Y532647D01*
X468244D01*
Y535582D01*
X475182D01*
Y530391D01*
D02*
G37*
G36*
X476250Y444500D02*
X463022D01*
X461489Y446405D01*
Y451421D01*
X456790D01*
Y456501D01*
X461489D01*
Y461518D01*
X459380D01*
Y464597D01*
X460033Y465250D01*
X460320D01*
Y472440D01*
X462860D01*
Y474980D01*
X469350D01*
Y478790D01*
X476250D01*
Y444500D01*
D02*
G37*
%LPC*%
G36*
X257298Y807720D02*
X255782D01*
X254382Y807140D01*
X252730Y806347D01*
X251078Y807140D01*
X249678Y807720D01*
X248162D01*
X246762Y807140D01*
X245690Y806068D01*
X245110Y804668D01*
Y803152D01*
X245690Y801752D01*
X246762Y800680D01*
X248162Y800100D01*
X249678D01*
X251078Y800680D01*
X252730Y801473D01*
X254382Y800680D01*
X255782Y800100D01*
X257298D01*
X258698Y800680D01*
X259770Y801752D01*
X260350Y803152D01*
Y804668D01*
X259770Y806068D01*
X258698Y807140D01*
X257298Y807720D01*
D02*
G37*
G36*
X532308Y789360D02*
X530792D01*
X529392Y788780D01*
X528320Y787708D01*
X527740Y786308D01*
Y784792D01*
X528320Y783392D01*
X529392Y782320D01*
X530792Y781740D01*
X532308D01*
X533708Y782320D01*
X534780Y783392D01*
X535360Y784792D01*
Y786308D01*
X534780Y787708D01*
X533708Y788780D01*
X532308Y789360D01*
D02*
G37*
G36*
X133528D02*
X132012D01*
X130612Y788780D01*
X129540Y787708D01*
X128960Y786308D01*
Y784792D01*
X129540Y783392D01*
X130612Y782320D01*
X132012Y781740D01*
X133528D01*
X134928Y782320D01*
X136000Y783392D01*
X136580Y784792D01*
Y786308D01*
X136000Y787708D01*
X134928Y788780D01*
X133528Y789360D01*
D02*
G37*
G36*
X330958Y786130D02*
X329442D01*
X328042Y785550D01*
X326970Y784478D01*
X326390Y783078D01*
Y781562D01*
X326970Y780162D01*
X328042Y779090D01*
X329442Y778510D01*
X330958D01*
X332358Y779090D01*
X333430Y780162D01*
X334010Y781562D01*
Y783078D01*
X333430Y784478D01*
X332358Y785550D01*
X330958Y786130D01*
D02*
G37*
G36*
X203268Y781740D02*
X201752D01*
X200352Y781160D01*
X199280Y780088D01*
X198700Y778688D01*
Y777172D01*
X199280Y775772D01*
X200352Y774700D01*
X201752Y774120D01*
X203268D01*
X204668Y774700D01*
X205740Y775772D01*
X206320Y777172D01*
Y778688D01*
X205740Y780088D01*
X204668Y781160D01*
X203268Y781740D01*
D02*
G37*
G36*
X292858Y792480D02*
X291342D01*
X289942Y791900D01*
X288870Y790828D01*
X288290Y789428D01*
Y787912D01*
X288870Y786512D01*
X289510Y785872D01*
Y768960D01*
X283070D01*
Y765630D01*
X276890D01*
Y768960D01*
X266450D01*
Y757120D01*
X276890D01*
Y760450D01*
X283070D01*
Y757120D01*
X291392D01*
X292210Y757120D01*
X292785Y756508D01*
X293697Y754658D01*
X293370Y753868D01*
Y752352D01*
X293413Y752249D01*
X291874Y749709D01*
X280010D01*
X278637Y749436D01*
X277472Y748658D01*
X276694Y747494D01*
X276421Y746120D01*
X276694Y744747D01*
X276986Y744310D01*
X276044Y741976D01*
X275861Y741770D01*
X274508D01*
X273517Y741573D01*
X272677Y741011D01*
X264759Y733093D01*
X264197Y732253D01*
X264000Y731262D01*
Y722093D01*
X257528Y715620D01*
X250050D01*
Y712290D01*
X243870D01*
Y715620D01*
X233480D01*
Y719070D01*
X233283Y720061D01*
X232721Y720901D01*
X227891Y725731D01*
X227051Y726293D01*
X226060Y726490D01*
X222645D01*
X222454Y726633D01*
X222589Y729333D01*
X223138Y729560D01*
X224210Y730632D01*
X224790Y732032D01*
Y732937D01*
X228883Y737030D01*
X233834D01*
X235194Y734493D01*
X234921Y733120D01*
X235194Y731747D01*
X235925Y730653D01*
X235057Y730073D01*
X234446Y729160D01*
X245260D01*
X256245D01*
X256339Y731440D01*
X256835Y732212D01*
X259901Y735279D01*
X260463Y736119D01*
X260660Y737110D01*
Y746943D01*
X260840Y747213D01*
X261148Y747340D01*
X262220Y748412D01*
X262800Y749812D01*
Y751328D01*
X262220Y752728D01*
X261148Y753800D01*
X259748Y754380D01*
X259532Y754580D01*
X260490Y757120D01*
X260490D01*
Y768960D01*
X250050D01*
Y757120D01*
X250050D01*
X250796Y755319D01*
X245187Y749709D01*
X238510D01*
X237137Y749436D01*
X237008Y749350D01*
X224790D01*
X223799Y749153D01*
X222959Y748591D01*
X211529Y737161D01*
X210967Y736321D01*
X210770Y735330D01*
Y727710D01*
X210967Y726719D01*
X211529Y725879D01*
X215339Y722069D01*
X216179Y721507D01*
X217170Y721310D01*
X224987D01*
X228300Y717997D01*
Y717816D01*
X227470Y715620D01*
X225760Y715620D01*
X217030D01*
Y712290D01*
X202418D01*
X201548Y713160D01*
X200148Y713740D01*
X198632D01*
X197232Y713160D01*
X196160Y712088D01*
X195580Y710688D01*
Y709172D01*
X196160Y707772D01*
X197232Y706700D01*
X198632Y706120D01*
X200148D01*
X201548Y706700D01*
X201958Y707110D01*
X217030D01*
Y703780D01*
X227470Y703780D01*
X228300Y701584D01*
Y700036D01*
X227470Y697840D01*
X225760Y697840D01*
X217030D01*
Y694740D01*
X212348D01*
X211708Y695380D01*
X210308Y695960D01*
X208792D01*
X207392Y695380D01*
X206320Y694308D01*
X205991Y693514D01*
X205963Y693495D01*
X200688Y688221D01*
X200401Y688340D01*
X198379D01*
X196512Y687567D01*
X195083Y686138D01*
X194310Y684270D01*
Y682250D01*
X195027Y680518D01*
X195732Y678269D01*
X195377Y677283D01*
X192954Y677000D01*
X192804Y676999D01*
X188521Y681281D01*
X187681Y681843D01*
X186690Y682040D01*
X170180D01*
X169189Y681843D01*
X168349Y681281D01*
X158189Y671121D01*
X157627Y670281D01*
X157430Y669290D01*
Y654184D01*
X155096Y652542D01*
X154134Y652624D01*
X153288Y653470D01*
X151888Y654050D01*
X150372D01*
X148972Y653470D01*
X147900Y652398D01*
X147320Y650998D01*
Y649482D01*
X147900Y648082D01*
X148972Y647010D01*
X150372Y646430D01*
X151278D01*
X155649Y642059D01*
X156489Y641497D01*
X156531Y641489D01*
X157217Y638855D01*
X156790Y638428D01*
X156210Y637028D01*
Y635512D01*
X156790Y634112D01*
X157636Y633266D01*
X157759Y631825D01*
X157636Y630384D01*
X156790Y629538D01*
X156210Y628138D01*
Y626622D01*
X156790Y625222D01*
X157862Y624150D01*
X159262Y623570D01*
X160778D01*
X162178Y624150D01*
X163250Y625222D01*
X163830Y626622D01*
Y628138D01*
X163250Y629538D01*
X162404Y630384D01*
X162281Y631825D01*
X162404Y633266D01*
X163250Y634112D01*
X163830Y635512D01*
Y637028D01*
X163250Y638428D01*
X162918Y638760D01*
X163964Y641300D01*
X165100D01*
X166091Y641497D01*
X166931Y642059D01*
X170610Y645738D01*
X173150Y645710D01*
X173458Y645710D01*
X184990D01*
Y645751D01*
X190930D01*
Y645710D01*
X191670D01*
Y629304D01*
X192065Y627322D01*
X193188Y625641D01*
X197651Y621177D01*
X199332Y620055D01*
X201314Y619660D01*
X212090D01*
X214072Y620055D01*
X215383Y620930D01*
X227330D01*
X229312Y621325D01*
X229810Y621657D01*
X231467Y622313D01*
X233562Y621721D01*
X233906Y621491D01*
X235889Y621096D01*
X236294Y621177D01*
X238839Y620385D01*
X239559Y619564D01*
X240177Y618638D01*
X241858Y617515D01*
X243840Y617121D01*
X256540D01*
X258522Y617515D01*
X260203Y618638D01*
X261325Y620318D01*
X261719Y622300D01*
X261325Y624282D01*
X260528Y625475D01*
X261325Y626668D01*
X261719Y628650D01*
Y656590D01*
X261325Y658572D01*
X260203Y660253D01*
X252582Y667872D01*
X250902Y668995D01*
X248920Y669389D01*
X245320D01*
Y673340D01*
X229172D01*
X228667Y675880D01*
X229488Y676220D01*
X230560Y677292D01*
X231140Y678692D01*
Y678872D01*
X231169Y678936D01*
X232976Y680726D01*
X233487Y680870D01*
X246810D01*
X247801Y681067D01*
X248641Y681629D01*
X250334Y683321D01*
X252527Y682412D01*
Y680002D01*
X252392Y679947D01*
X250963Y678518D01*
X250190Y676650D01*
Y674630D01*
X250963Y672762D01*
X252392Y671333D01*
X254259Y670560D01*
X256280D01*
X258148Y671333D01*
X259577Y672762D01*
X260035Y673870D01*
X262697D01*
X263155Y672762D01*
X264584Y671333D01*
X266451Y670560D01*
X268472D01*
X270340Y671333D01*
X271769Y672762D01*
X272542Y674630D01*
Y676650D01*
X271769Y678518D01*
X270340Y679947D01*
X270052Y680066D01*
Y683936D01*
X271898Y685933D01*
X272034Y686000D01*
X276890D01*
Y697840D01*
X274260D01*
Y703780D01*
X276890D01*
Y707110D01*
X283070D01*
Y703780D01*
X293510D01*
X294964Y701842D01*
X295099Y701641D01*
X297147Y699593D01*
X297122Y699158D01*
X296192Y696956D01*
X295950Y696900D01*
X295126Y696900D01*
X290950D01*
Y689610D01*
Y682320D01*
X295950D01*
X297964Y683590D01*
X298490Y683590D01*
X304186D01*
X315036Y672740D01*
X316296Y671898D01*
X317783Y671602D01*
X319887D01*
X320656Y671755D01*
X359071D01*
X364283Y666543D01*
X365543Y665701D01*
X367030Y665405D01*
X377190D01*
X377565Y665480D01*
X377948D01*
X378301Y665626D01*
X378677Y665701D01*
X378995Y665914D01*
X379348Y666060D01*
X379619Y666331D01*
X379937Y666543D01*
X380149Y666861D01*
X380420Y667132D01*
X380566Y667485D01*
X380779Y667803D01*
X380854Y668179D01*
X381000Y668532D01*
Y668915D01*
X381075Y669290D01*
Y676910D01*
X381000Y677285D01*
Y677668D01*
X380854Y678021D01*
X380779Y678397D01*
X380566Y678715D01*
X380420Y679068D01*
X380149Y679339D01*
X379937Y679657D01*
X379619Y679869D01*
X379348Y680140D01*
X378995Y680286D01*
X378677Y680499D01*
X378301Y680574D01*
X377948Y680720D01*
X377565D01*
X377190Y680795D01*
X376815Y680720D01*
X376432D01*
X376079Y680574D01*
X375703Y680499D01*
X375385Y680286D01*
X375032Y680140D01*
X374761Y679869D01*
X374443Y679657D01*
X374231Y679339D01*
X373960Y679068D01*
X373814Y678715D01*
X373601Y678397D01*
X373526Y678021D01*
X373380Y677668D01*
Y677285D01*
X373305Y676910D01*
Y673175D01*
X368639D01*
X363427Y678387D01*
X362167Y679229D01*
X360680Y679525D01*
X320040D01*
X319372Y679392D01*
X317520Y681243D01*
X318492Y683590D01*
X325606Y683590D01*
X327620Y682320D01*
X328444Y682320D01*
X332620D01*
Y689610D01*
Y696900D01*
X327620D01*
X325606Y695630D01*
X325080Y695630D01*
X316090D01*
X315059Y695630D01*
X313623Y697479D01*
X313783Y698084D01*
X314853Y699560D01*
X316037Y699560D01*
X331660D01*
X331660Y720300D01*
X333719Y721460D01*
X339380D01*
X341440Y720300D01*
X341440Y718920D01*
Y699560D01*
X358380D01*
Y720300D01*
X358380D01*
X357250Y721460D01*
Y725120D01*
X369312D01*
X369952Y724480D01*
X371352Y723900D01*
X372868D01*
X374268Y724480D01*
X375340Y725552D01*
X375920Y726952D01*
Y728468D01*
X375340Y729868D01*
X374268Y730940D01*
X372868Y731520D01*
X371352D01*
X369952Y730940D01*
X369312Y730300D01*
X357250D01*
Y733500D01*
X344790D01*
X344710Y733500D01*
X342250D01*
X342170Y733500D01*
X329710D01*
Y730070D01*
X325270D01*
Y733390D01*
X313430D01*
Y730760D01*
X312420D01*
X311429Y730563D01*
X310589Y730001D01*
X304700Y724112D01*
X302160Y725164D01*
Y742130D01*
X301963Y743121D01*
X301401Y743961D01*
X298409Y746953D01*
X298728Y749152D01*
X299054Y749762D01*
X299338Y749880D01*
X299368Y749910D01*
X299600Y749980D01*
X302196Y749785D01*
X302417Y749640D01*
X309319Y742739D01*
X310159Y742177D01*
X311150Y741980D01*
X313430D01*
Y739350D01*
X325270D01*
Y741400D01*
X329710D01*
Y737970D01*
X342170D01*
X342250Y737970D01*
X344710D01*
X344790Y737970D01*
X357250D01*
Y740360D01*
X369312D01*
X369952Y739720D01*
X371352Y739140D01*
X372868D01*
X374268Y739720D01*
X375340Y740792D01*
X375920Y742192D01*
Y743708D01*
X375340Y745108D01*
X374268Y746180D01*
X372868Y746760D01*
X371352D01*
X369952Y746180D01*
X369312Y745540D01*
X357250D01*
Y749558D01*
X358380Y751630D01*
X358380D01*
X358380Y751630D01*
Y772370D01*
X341440D01*
Y752550D01*
X341440Y751630D01*
X339571Y750010D01*
X333529D01*
X331660Y751630D01*
Y772370D01*
X314720D01*
Y764590D01*
X309910D01*
Y768960D01*
X299470D01*
Y759035D01*
X297996Y757000D01*
X297013Y756920D01*
X296422D01*
X295873Y756693D01*
X293674Y758046D01*
X293510Y758254D01*
X293510Y759108D01*
X293510Y759108D01*
X293510Y759121D01*
Y764598D01*
X293931Y765019D01*
X294493Y765859D01*
X294690Y766850D01*
Y785872D01*
X295330Y786512D01*
X295910Y787912D01*
Y789428D01*
X295330Y790828D01*
X294258Y791900D01*
X292858Y792480D01*
D02*
G37*
G36*
X423668Y765810D02*
X422152D01*
X420752Y765230D01*
X419906Y764384D01*
X418465Y764261D01*
X417024Y764384D01*
X416178Y765230D01*
X414778Y765810D01*
X413262D01*
X411862Y765230D01*
X410790Y764158D01*
X410210Y762758D01*
Y761242D01*
X410790Y759842D01*
X411862Y758770D01*
X413262Y758190D01*
X414778D01*
X416178Y758770D01*
X417024Y759616D01*
X418465Y759738D01*
X419906Y759616D01*
X420752Y758770D01*
X422152Y758190D01*
X423668D01*
X425068Y758770D01*
X426140Y759842D01*
X426720Y761242D01*
Y762758D01*
X426140Y764158D01*
X425068Y765230D01*
X423668Y765810D01*
D02*
G37*
G36*
X24888D02*
X23372D01*
X21972Y765230D01*
X21126Y764384D01*
X19685Y764261D01*
X18244Y764384D01*
X17398Y765230D01*
X15998Y765810D01*
X14482D01*
X13082Y765230D01*
X12010Y764158D01*
X11430Y762758D01*
Y761242D01*
X12010Y759842D01*
X13082Y758770D01*
X14482Y758190D01*
X15998D01*
X17398Y758770D01*
X18244Y759616D01*
X19685Y759738D01*
X21126Y759616D01*
X21972Y758770D01*
X23372Y758190D01*
X24888D01*
X26288Y758770D01*
X27360Y759842D01*
X27940Y761242D01*
Y762758D01*
X27360Y764158D01*
X26288Y765230D01*
X24888Y765810D01*
D02*
G37*
G36*
X65528Y792480D02*
X64012D01*
X62612Y791900D01*
X61540Y790828D01*
X60960Y789428D01*
Y787912D01*
X61540Y786512D01*
X61950Y786102D01*
Y771030D01*
X58620D01*
X58620Y760590D01*
X56424Y759760D01*
X54876D01*
X52680Y760590D01*
X52680Y762300D01*
Y771030D01*
X49580D01*
Y775712D01*
X50220Y776352D01*
X50800Y777752D01*
Y779268D01*
X50220Y780668D01*
X49148Y781740D01*
X47748Y782320D01*
X46232D01*
X46178Y782297D01*
X45594Y782881D01*
X44754Y783443D01*
X43763Y783640D01*
X38716D01*
X38597Y783928D01*
X37168Y785357D01*
X35301Y786130D01*
X33280D01*
X31412Y785357D01*
X29983Y783928D01*
X29210Y782060D01*
Y780040D01*
X29652Y778973D01*
X27499Y777534D01*
X25281Y779752D01*
X25400Y780040D01*
Y782060D01*
X24627Y783928D01*
X23198Y785357D01*
X21330Y786130D01*
X19310D01*
X17442Y785357D01*
X16013Y783928D01*
X15240Y782060D01*
Y780040D01*
X16013Y778172D01*
X17442Y776743D01*
X19310Y775970D01*
X21330D01*
X21618Y776089D01*
X31700Y766007D01*
Y763528D01*
X31060Y762888D01*
X30480Y761488D01*
Y759972D01*
X31060Y758572D01*
X32132Y757500D01*
X33532Y756920D01*
X33712D01*
X33776Y756891D01*
X35566Y755083D01*
X35710Y754573D01*
Y741250D01*
X35907Y740259D01*
X36469Y739419D01*
X38161Y737726D01*
X37253Y735533D01*
X34842D01*
X34787Y735668D01*
X33358Y737097D01*
X31490Y737870D01*
X29469D01*
X27602Y737097D01*
X26173Y735668D01*
X25400Y733801D01*
Y731779D01*
X26173Y729912D01*
X27602Y728483D01*
X28710Y728025D01*
Y725363D01*
X27602Y724905D01*
X26173Y723476D01*
X25400Y721609D01*
Y719587D01*
X26173Y717720D01*
X27602Y716291D01*
X29469Y715518D01*
X31490D01*
X33358Y716291D01*
X34787Y717720D01*
X35560Y719587D01*
Y720641D01*
X37492Y722572D01*
X38699D01*
X40840Y721610D01*
Y711170D01*
X52680D01*
Y713800D01*
X58620D01*
Y711170D01*
X61950D01*
Y704990D01*
X58620D01*
Y694550D01*
X56682Y693096D01*
X56481Y692961D01*
X54433Y690913D01*
X53998Y690938D01*
X51796Y691868D01*
X51740Y692110D01*
X51740Y692934D01*
Y697110D01*
X37160D01*
Y692110D01*
X37813Y691075D01*
X36574Y688535D01*
X19170D01*
X17683Y688239D01*
X16423Y687397D01*
X9318Y680292D01*
X9106Y679974D01*
X8835Y679703D01*
X8689Y679350D01*
X8476Y679032D01*
X8401Y678656D01*
X8255Y678303D01*
Y677920D01*
X8180Y677545D01*
Y669925D01*
Y662305D01*
X8255Y661930D01*
Y661547D01*
X8401Y661194D01*
X8476Y660818D01*
X8689Y660500D01*
X8835Y660147D01*
X9106Y659876D01*
X9318Y659558D01*
X9636Y659346D01*
X9907Y659075D01*
X10260Y658929D01*
X10578Y658716D01*
X10954Y658641D01*
X11307Y658495D01*
X11690D01*
X12065Y658420D01*
X12440Y658495D01*
X12823D01*
X13176Y658641D01*
X13552Y658716D01*
X13870Y658929D01*
X14223Y659075D01*
X14494Y659346D01*
X14812Y659558D01*
X15024Y659876D01*
X15295Y660147D01*
X15441Y660500D01*
X15654Y660818D01*
X15729Y661194D01*
X15875Y661547D01*
Y661930D01*
X15950Y662305D01*
Y669925D01*
Y675936D01*
X20779Y680765D01*
X38430D01*
Y678380D01*
X41860D01*
Y674170D01*
X38430D01*
X38430Y662454D01*
X37160Y660440D01*
X37160Y659616D01*
Y655440D01*
X44450D01*
X51740D01*
Y660440D01*
X50470Y662454D01*
X50470Y662980D01*
Y671970D01*
X50470Y673001D01*
X52319Y674437D01*
X52924Y674277D01*
X54400Y673207D01*
X54400Y672023D01*
Y656400D01*
X75140Y656400D01*
X76300Y654341D01*
Y648680D01*
X75140Y646620D01*
X73760Y646620D01*
X54400D01*
Y629680D01*
X75140D01*
Y629680D01*
X76300Y630810D01*
X79960D01*
Y618748D01*
X79320Y618108D01*
X78740Y616708D01*
Y615192D01*
X79320Y613792D01*
X80392Y612720D01*
X81792Y612140D01*
X83308D01*
X84708Y612720D01*
X85780Y613792D01*
X86360Y615192D01*
Y616708D01*
X85780Y618108D01*
X85140Y618748D01*
Y630810D01*
X88340D01*
Y643270D01*
X88340Y643350D01*
Y645810D01*
X88340Y645890D01*
Y658350D01*
X84910D01*
Y662790D01*
X88230D01*
Y674630D01*
X85600D01*
Y675640D01*
X85403Y676631D01*
X84841Y677471D01*
X78952Y683360D01*
X80004Y685900D01*
X96970D01*
X97961Y686097D01*
X98801Y686659D01*
X101793Y689651D01*
X103992Y689332D01*
X104602Y689006D01*
X104720Y688722D01*
X104750Y688691D01*
X104820Y688460D01*
X104625Y685864D01*
X104480Y685643D01*
X97579Y678741D01*
X97017Y677901D01*
X96820Y676910D01*
Y674630D01*
X94190D01*
Y662790D01*
X96240D01*
Y658350D01*
X92810D01*
Y645890D01*
X92810Y645810D01*
Y643350D01*
X92810Y643270D01*
Y630810D01*
X95200D01*
Y618748D01*
X94560Y618108D01*
X93980Y616708D01*
Y615192D01*
X94560Y613792D01*
X95632Y612720D01*
X97032Y612140D01*
X98548D01*
X99948Y612720D01*
X101020Y613792D01*
X101600Y615192D01*
Y616708D01*
X101020Y618108D01*
X100380Y618748D01*
Y630810D01*
X104398D01*
X106470Y629680D01*
Y629680D01*
X106470Y629680D01*
X127210D01*
Y646620D01*
X107390D01*
X106470Y646620D01*
X104850Y648489D01*
Y654531D01*
X106470Y656400D01*
X127210D01*
Y673340D01*
X119430D01*
Y678150D01*
X123800D01*
Y688590D01*
X113875D01*
X111840Y690064D01*
X111760Y691047D01*
Y691638D01*
X111532Y692187D01*
X112886Y694386D01*
X113094Y694550D01*
X113948Y694550D01*
X113948Y694550D01*
X113961Y694550D01*
X119438D01*
X119859Y694129D01*
X120699Y693567D01*
X121690Y693370D01*
X140712D01*
X141352Y692730D01*
X142752Y692150D01*
X144268D01*
X145668Y692730D01*
X146740Y693802D01*
X147320Y695202D01*
Y696718D01*
X146740Y698118D01*
X145668Y699190D01*
X144268Y699770D01*
X142752D01*
X141352Y699190D01*
X140712Y698550D01*
X123800D01*
Y704990D01*
X120470D01*
Y711170D01*
X123800D01*
Y721610D01*
X111960D01*
Y711170D01*
X115290D01*
Y704990D01*
X111960D01*
Y696668D01*
X111960Y695850D01*
X111348Y695275D01*
X109497Y694363D01*
X108708Y694690D01*
X107192D01*
X107089Y694647D01*
X104549Y696186D01*
Y708050D01*
X104276Y709423D01*
X103498Y710588D01*
X102333Y711366D01*
X100960Y711639D01*
X99587Y711366D01*
X99549Y711341D01*
X98937Y711160D01*
X96816Y712016D01*
X96610Y712199D01*
Y713551D01*
X96413Y714543D01*
X95851Y715383D01*
X87933Y723301D01*
X87093Y723863D01*
X86102Y724060D01*
X76933D01*
X70460Y730533D01*
Y738010D01*
X67130D01*
Y744190D01*
X70460D01*
Y754580D01*
X73910D01*
X74901Y754777D01*
X75741Y755339D01*
X80571Y760169D01*
X81133Y761009D01*
X81330Y762000D01*
Y765415D01*
X81473Y765605D01*
X84172Y765471D01*
X84400Y764922D01*
X85472Y763850D01*
X86872Y763270D01*
X87778D01*
X91870Y759177D01*
Y754225D01*
X89333Y752866D01*
X87960Y753139D01*
X86587Y752866D01*
X85493Y752135D01*
X84913Y753003D01*
X84000Y753614D01*
Y742800D01*
Y731815D01*
X86280Y731721D01*
X87052Y731225D01*
X90119Y728159D01*
X90959Y727597D01*
X91950Y727400D01*
X101783D01*
X102053Y727220D01*
X102180Y726912D01*
X103252Y725840D01*
X104652Y725260D01*
X106168D01*
X107568Y725840D01*
X108640Y726912D01*
X109220Y728312D01*
X109420Y728528D01*
X111960Y727570D01*
Y727570D01*
X123800D01*
Y738010D01*
X111960D01*
Y738010D01*
X110159Y737264D01*
X104549Y742874D01*
Y749550D01*
X104276Y750923D01*
X104190Y751052D01*
Y763270D01*
X103993Y764261D01*
X103431Y765101D01*
X92001Y776531D01*
X91161Y777093D01*
X90170Y777290D01*
X82550D01*
X81559Y777093D01*
X80719Y776531D01*
X76909Y772721D01*
X76347Y771881D01*
X76150Y770890D01*
Y763073D01*
X72837Y759760D01*
X72656D01*
X70460Y760590D01*
X70460Y762300D01*
Y771030D01*
X67130D01*
Y785642D01*
X68000Y786512D01*
X68580Y787912D01*
Y789428D01*
X68000Y790828D01*
X66928Y791900D01*
X65528Y792480D01*
D02*
G37*
G36*
X477700Y753614D02*
X476787Y753003D01*
X475728Y751419D01*
X475356Y749550D01*
Y745340D01*
X477700D01*
Y753614D01*
D02*
G37*
G36*
X78920D02*
X78007Y753003D01*
X76948Y751419D01*
X76576Y749550D01*
Y745340D01*
X78920D01*
Y753614D01*
D02*
G37*
G36*
X162048Y736600D02*
X160532D01*
X159132Y736020D01*
X157480Y735227D01*
X155828Y736020D01*
X154428Y736600D01*
X152912D01*
X151512Y736020D01*
X150440Y734948D01*
X149860Y733548D01*
Y732032D01*
X150440Y730632D01*
X151512Y729560D01*
X152912Y728980D01*
X154428D01*
X155828Y729560D01*
X157480Y730353D01*
X159132Y729560D01*
X160532Y728980D01*
X162048D01*
X163448Y729560D01*
X164520Y730632D01*
X165100Y732032D01*
Y733548D01*
X164520Y734948D01*
X163448Y736020D01*
X162048Y736600D01*
D02*
G37*
G36*
X477700Y740260D02*
X475356D01*
Y736050D01*
X475728Y734181D01*
X476787Y732597D01*
X477700Y731986D01*
Y740260D01*
D02*
G37*
G36*
X78920D02*
X76576D01*
Y736050D01*
X76948Y734181D01*
X78007Y732597D01*
X78920Y731986D01*
Y740260D01*
D02*
G37*
G36*
X256074Y724080D02*
X247800D01*
Y721736D01*
X252010D01*
X253879Y722108D01*
X255463Y723167D01*
X256074Y724080D01*
D02*
G37*
G36*
X242720D02*
X234446D01*
X235057Y723167D01*
X236641Y722108D01*
X238510Y721736D01*
X242720D01*
Y724080D01*
D02*
G37*
G36*
X559558Y736600D02*
X558042D01*
X556642Y736020D01*
X555570Y734948D01*
X554990Y733548D01*
Y732032D01*
X555570Y730632D01*
X556363Y728980D01*
X555570Y727328D01*
X554990Y725928D01*
Y724412D01*
X555570Y723012D01*
X556642Y721940D01*
X558042Y721360D01*
X559558D01*
X560958Y721940D01*
X562030Y723012D01*
X562610Y724412D01*
Y725928D01*
X562030Y727328D01*
X561237Y728980D01*
X562030Y730632D01*
X562610Y732032D01*
Y733548D01*
X562030Y734948D01*
X560958Y736020D01*
X559558Y736600D01*
D02*
G37*
G36*
X450520Y707190D02*
X445770D01*
Y702190D01*
X450520D01*
Y707190D01*
D02*
G37*
G36*
X440690D02*
X435940D01*
Y702190D01*
X440690D01*
Y707190D01*
D02*
G37*
G36*
X51740D02*
X46990D01*
Y702190D01*
X51740D01*
Y707190D01*
D02*
G37*
G36*
X41910D02*
X37160D01*
Y702190D01*
X41910D01*
Y707190D01*
D02*
G37*
G36*
X337700Y696900D02*
Y692150D01*
X342700D01*
Y696900D01*
X337700D01*
D02*
G37*
G36*
X285870D02*
X280870D01*
Y692150D01*
X285870D01*
Y696900D01*
D02*
G37*
G36*
X342700Y687070D02*
X337700D01*
Y682320D01*
X342700D01*
Y687070D01*
D02*
G37*
G36*
X285870D02*
X280870D01*
Y682320D01*
X285870D01*
Y687070D01*
D02*
G37*
G36*
X536698Y661670D02*
X535182D01*
X533782Y661090D01*
X532710Y660018D01*
X532130Y658618D01*
Y657102D01*
X532710Y655702D01*
X533782Y654630D01*
X535182Y654050D01*
X536698D01*
X538098Y654630D01*
X539170Y655702D01*
X539750Y657102D01*
Y658618D01*
X539170Y660018D01*
X538098Y661090D01*
X536698Y661670D01*
D02*
G37*
G36*
X137918D02*
X136402D01*
X135002Y661090D01*
X133930Y660018D01*
X133350Y658618D01*
Y657102D01*
X133930Y655702D01*
X135002Y654630D01*
X136402Y654050D01*
X137918D01*
X139318Y654630D01*
X140390Y655702D01*
X140970Y657102D01*
Y658618D01*
X140390Y660018D01*
X139318Y661090D01*
X137918Y661670D01*
D02*
G37*
G36*
X352548Y660400D02*
X351032D01*
X349632Y659820D01*
X348560Y658748D01*
X347980Y657348D01*
Y655832D01*
X348560Y654432D01*
X349632Y653360D01*
X351032Y652780D01*
X352548D01*
X353948Y653360D01*
X355020Y654432D01*
X355600Y655832D01*
Y657348D01*
X355020Y658748D01*
X353948Y659820D01*
X352548Y660400D01*
D02*
G37*
G36*
X339848D02*
X338332D01*
X336932Y659820D01*
X335860Y658748D01*
X335280Y657348D01*
Y655832D01*
X335860Y654432D01*
X336932Y653360D01*
X338332Y652780D01*
X339848D01*
X341248Y653360D01*
X342320Y654432D01*
X342900Y655832D01*
Y657348D01*
X342320Y658748D01*
X341248Y659820D01*
X339848Y660400D01*
D02*
G37*
G36*
X327148D02*
X325632D01*
X324232Y659820D01*
X323160Y658748D01*
X322580Y657348D01*
Y655832D01*
X323160Y654432D01*
X324232Y653360D01*
X325632Y652780D01*
X327148D01*
X328548Y653360D01*
X329620Y654432D01*
X330200Y655832D01*
Y657348D01*
X329620Y658748D01*
X328548Y659820D01*
X327148Y660400D01*
D02*
G37*
G36*
X296668D02*
X295152D01*
X293752Y659820D01*
X292680Y658748D01*
X292100Y657348D01*
Y655832D01*
X292680Y654432D01*
X293752Y653360D01*
X295152Y652780D01*
X296668D01*
X298068Y653360D01*
X299140Y654432D01*
X299720Y655832D01*
Y657348D01*
X299140Y658748D01*
X298068Y659820D01*
X296668Y660400D01*
D02*
G37*
G36*
X272538D02*
X271022D01*
X269622Y659820D01*
X268550Y658748D01*
X267970Y657348D01*
Y655832D01*
X268550Y654432D01*
X269622Y653360D01*
X271022Y652780D01*
X272538D01*
X273938Y653360D01*
X275010Y654432D01*
X275590Y655832D01*
Y657348D01*
X275010Y658748D01*
X273938Y659820D01*
X272538Y660400D01*
D02*
G37*
G36*
X450520Y650360D02*
X445770D01*
Y645360D01*
X450520D01*
Y650360D01*
D02*
G37*
G36*
X51740D02*
X46990D01*
Y645360D01*
X51740D01*
Y650360D01*
D02*
G37*
G36*
X41910D02*
X37160D01*
Y645360D01*
X41910D01*
Y650360D01*
D02*
G37*
G36*
X184138Y640720D02*
X181862D01*
X179760Y639849D01*
X178151Y638240D01*
X177280Y636138D01*
Y633862D01*
X178151Y631760D01*
X179760Y630151D01*
X181862Y629280D01*
X184138D01*
X186240Y630151D01*
X187849Y631760D01*
X188720Y633862D01*
Y636138D01*
X187849Y638240D01*
X186240Y639849D01*
X184138Y640720D01*
D02*
G37*
G36*
X335400Y632130D02*
X330400D01*
Y627380D01*
X335400D01*
Y632130D01*
D02*
G37*
G36*
X300478Y626110D02*
X298962D01*
X297562Y625530D01*
X296716Y624684D01*
X295275Y624562D01*
X293834Y624684D01*
X292988Y625530D01*
X291588Y626110D01*
X290072D01*
X288672Y625530D01*
X287600Y624458D01*
X287020Y623058D01*
Y621542D01*
X287600Y620142D01*
X288672Y619070D01*
X290072Y618490D01*
X291588D01*
X292988Y619070D01*
X293834Y619916D01*
X295275Y620038D01*
X296716Y619916D01*
X297562Y619070D01*
X298962Y618490D01*
X300478D01*
X301878Y619070D01*
X302950Y620142D01*
X303530Y621542D01*
Y623058D01*
X302950Y624458D01*
X301878Y625530D01*
X300478Y626110D01*
D02*
G37*
G36*
X314448Y628650D02*
X312932D01*
X311532Y628070D01*
X310460Y626998D01*
X309880Y625598D01*
Y624082D01*
X310460Y622682D01*
X311532Y621610D01*
X312932Y621030D01*
X314448D01*
X315848Y621610D01*
X316920Y622682D01*
X317500Y624082D01*
Y625598D01*
X316920Y626998D01*
X315848Y628070D01*
X314448Y628650D01*
D02*
G37*
G36*
X276348D02*
X274832D01*
X273432Y628070D01*
X272360Y626998D01*
X271780Y625598D01*
Y624082D01*
X272360Y622682D01*
X273432Y621610D01*
X274832Y621030D01*
X276348D01*
X277748Y621610D01*
X278820Y622682D01*
X279400Y624082D01*
Y625598D01*
X278820Y626998D01*
X277748Y628070D01*
X276348Y628650D01*
D02*
G37*
G36*
X323849Y618058D02*
X316649D01*
Y608958D01*
X323849D01*
Y618058D01*
D02*
G37*
G36*
X184908Y608330D02*
X183392D01*
X181992Y607750D01*
X180920Y606678D01*
X180340Y605278D01*
Y603762D01*
X180920Y602362D01*
X181992Y601290D01*
X183392Y600710D01*
X184908D01*
X186308Y601290D01*
X187380Y602362D01*
X187960Y603762D01*
Y605278D01*
X187380Y606678D01*
X186308Y607750D01*
X184908Y608330D01*
D02*
G37*
G36*
X283968Y595630D02*
X282452D01*
X281052Y595050D01*
X279980Y593978D01*
X279400Y592578D01*
Y591062D01*
X279850Y589976D01*
X279921Y589805D01*
X279672Y589296D01*
X278338Y587712D01*
X278102Y587810D01*
X277618Y588010D01*
X276102D01*
X274702Y587430D01*
X273630Y586358D01*
X273050Y584958D01*
Y583442D01*
X273630Y582042D01*
X274702Y580970D01*
X276102Y580390D01*
X277618D01*
X279018Y580970D01*
X280090Y582042D01*
X280670Y583442D01*
Y584958D01*
X280220Y586044D01*
X280149Y586214D01*
X280398Y586724D01*
X281732Y588308D01*
X281968Y588210D01*
X282452Y588010D01*
X283968D01*
X285368Y588590D01*
X286440Y589662D01*
X287020Y591062D01*
Y592578D01*
X286440Y593978D01*
X285368Y595050D01*
X283968Y595630D01*
D02*
G37*
G36*
X344928Y593090D02*
X343412D01*
X342012Y592510D01*
X340940Y591438D01*
X340360Y590038D01*
Y588522D01*
X340940Y587122D01*
X342012Y586050D01*
X343412Y585470D01*
X344928D01*
X346328Y586050D01*
X347400Y587122D01*
X347980Y588522D01*
Y590038D01*
X347400Y591438D01*
X346328Y592510D01*
X344928Y593090D01*
D02*
G37*
G36*
X336129Y603878D02*
X326389D01*
X316649D01*
Y595232D01*
X315965Y593987D01*
X315032Y592908D01*
X314072Y592510D01*
X313000Y591438D01*
X312420Y590038D01*
Y588522D01*
X313000Y587122D01*
X314072Y586050D01*
X315472Y585470D01*
X316988D01*
X318388Y586050D01*
X319234Y586896D01*
X320675Y587019D01*
X322116Y586896D01*
X322962Y586050D01*
X324362Y585470D01*
X325878D01*
X327278Y586050D01*
X328124Y586896D01*
X329565Y587019D01*
X331006Y586896D01*
X331852Y586050D01*
X333252Y585470D01*
X334768D01*
X336168Y586050D01*
X337240Y587122D01*
X337820Y588522D01*
Y590038D01*
X337240Y591438D01*
X336349Y592329D01*
X336134Y594725D01*
X336129Y595033D01*
X336129Y595275D01*
Y603878D01*
D02*
G37*
G36*
X228088Y593090D02*
X226572D01*
X225172Y592510D01*
X224100Y591438D01*
X223520Y590038D01*
Y588522D01*
X224100Y587122D01*
X225172Y586050D01*
X226572Y585470D01*
X228088D01*
X229488Y586050D01*
X230560Y587122D01*
X231140Y588522D01*
Y590038D01*
X230560Y591438D01*
X229488Y592510D01*
X228088Y593090D01*
D02*
G37*
G36*
X217928D02*
X216412D01*
X215012Y592510D01*
X213940Y591438D01*
X213360Y590038D01*
Y588522D01*
X213940Y587122D01*
X215012Y586050D01*
X216412Y585470D01*
X217928D01*
X219328Y586050D01*
X220400Y587122D01*
X220980Y588522D01*
Y590038D01*
X220400Y591438D01*
X219328Y592510D01*
X217928Y593090D01*
D02*
G37*
G36*
X200148Y593101D02*
X198632D01*
X197232Y592521D01*
X196160Y591449D01*
X195580Y590049D01*
Y588533D01*
X196160Y587132D01*
X197232Y586061D01*
X198632Y585481D01*
X200148D01*
X201548Y586061D01*
X202560Y587072D01*
X203582Y586050D01*
X204982Y585470D01*
X206498D01*
X207898Y586050D01*
X208970Y587122D01*
X209550Y588522D01*
Y590038D01*
X208970Y591438D01*
X207898Y592510D01*
X206498Y593090D01*
X204982D01*
X203582Y592510D01*
X202570Y591498D01*
X201548Y592521D01*
X200148Y593101D01*
D02*
G37*
G36*
X239518Y593090D02*
X238002D01*
X236602Y592510D01*
X235530Y591438D01*
X234950Y590038D01*
Y588522D01*
X235530Y587122D01*
X236602Y586050D01*
X238002Y585470D01*
X238754D01*
X239217Y585058D01*
X240129Y583688D01*
X240322Y583123D01*
X240030Y582418D01*
Y580902D01*
X240610Y579502D01*
X241682Y578430D01*
X243082Y577850D01*
X244598D01*
X245998Y578430D01*
X247070Y579502D01*
X247650Y580902D01*
Y582418D01*
X247070Y583818D01*
X245998Y584890D01*
X244598Y585470D01*
X243846D01*
X243382Y585882D01*
X242471Y587252D01*
X242278Y587817D01*
X242570Y588522D01*
Y590038D01*
X241990Y591438D01*
X240918Y592510D01*
X239518Y593090D01*
D02*
G37*
G36*
X369748Y582470D02*
X368232D01*
X366832Y581890D01*
X365760Y580818D01*
X365180Y579418D01*
Y577902D01*
X365760Y576502D01*
X366832Y575430D01*
X368232Y574850D01*
X369748D01*
X371148Y575430D01*
X372220Y576502D01*
X372800Y577902D01*
Y579418D01*
X372220Y580818D01*
X371148Y581890D01*
X369748Y582470D01*
D02*
G37*
G36*
X208551Y579120D02*
X207036D01*
X205635Y578540D01*
X204564Y577468D01*
X203983Y576068D01*
Y574552D01*
X204564Y573152D01*
X205635Y572080D01*
X207036Y571500D01*
X208551D01*
X209952Y572080D01*
X211023Y573152D01*
X211603Y574552D01*
Y576068D01*
X211023Y577468D01*
X209952Y578540D01*
X208551Y579120D01*
D02*
G37*
G36*
X98548Y558800D02*
X97032D01*
X95632Y558220D01*
X94786Y557374D01*
X93345Y557252D01*
X91904Y557374D01*
X91058Y558220D01*
X89658Y558800D01*
X88142D01*
X86742Y558220D01*
X85670Y557148D01*
X85090Y555748D01*
Y554232D01*
X85670Y552832D01*
X86742Y551760D01*
X88142Y551180D01*
X89658D01*
X91058Y551760D01*
X91904Y552606D01*
X93345Y552729D01*
X94786Y552606D01*
X95632Y551760D01*
X97032Y551180D01*
X98548D01*
X99948Y551760D01*
X101020Y552832D01*
X101600Y554232D01*
Y555748D01*
X101020Y557148D01*
X99948Y558220D01*
X98548Y558800D01*
D02*
G37*
G36*
X261108Y589280D02*
X259592D01*
X258192Y588700D01*
X257120Y587628D01*
X256540Y586228D01*
Y584712D01*
X257120Y583312D01*
X257881Y582551D01*
X258055Y581085D01*
X257881Y579619D01*
X257120Y578858D01*
X256540Y577458D01*
Y575942D01*
X257120Y574542D01*
X258192Y573470D01*
X259592Y572890D01*
X261108D01*
X262508Y573470D01*
X262890Y573852D01*
X264696Y573353D01*
X265487Y573013D01*
X266203Y571282D01*
X267632Y569853D01*
X269499Y569080D01*
X271521D01*
X273388Y569853D01*
X274817Y571282D01*
X274936Y571570D01*
X278910D01*
X279400Y571080D01*
Y570862D01*
X279980Y569462D01*
X280620Y568822D01*
Y564140D01*
X277060D01*
Y556184D01*
X276048Y555416D01*
X273799Y555855D01*
X273740Y555998D01*
X272668Y557070D01*
X271268Y557650D01*
X270362D01*
X262301Y565711D01*
X261461Y566273D01*
X260470Y566470D01*
X255886D01*
X255767Y566758D01*
X254338Y568187D01*
X252470Y568960D01*
X250450D01*
X248582Y568187D01*
X247153Y566758D01*
X246380Y564891D01*
Y562869D01*
X247153Y561002D01*
X247899Y560256D01*
X248546Y559372D01*
X248125Y557014D01*
X247650Y555868D01*
Y554352D01*
X248230Y552952D01*
X249302Y551880D01*
X250702Y551300D01*
X252218D01*
X253618Y551880D01*
X254464Y552726D01*
X255905Y552849D01*
X257346Y552726D01*
X258192Y551880D01*
X259592Y551300D01*
X261108D01*
X262508Y551880D01*
X263580Y552952D01*
X263745Y553350D01*
X264160Y553475D01*
X266700Y553082D01*
X267280Y551682D01*
X268352Y550610D01*
X269752Y550030D01*
X269932D01*
X269996Y550001D01*
X271786Y548194D01*
X271930Y547683D01*
Y534360D01*
X272127Y533369D01*
X272689Y532529D01*
X274381Y530836D01*
X273472Y528643D01*
X271063D01*
X271007Y528778D01*
X269578Y530207D01*
X267710Y530980D01*
X265690D01*
X263822Y530207D01*
X262393Y528778D01*
X261620Y526911D01*
Y524890D01*
X262393Y523022D01*
X263822Y521593D01*
X264930Y521135D01*
Y518473D01*
X263822Y518015D01*
X262393Y516586D01*
X261620Y514719D01*
Y512698D01*
X262393Y510830D01*
X263822Y509401D01*
X265690Y508628D01*
X267710D01*
X269578Y509401D01*
X271007Y510830D01*
X271780Y512698D01*
Y513751D01*
X273711Y515682D01*
X274919D01*
X277060Y514720D01*
Y504280D01*
X288900D01*
Y506910D01*
X294840D01*
Y504280D01*
X298170D01*
Y498100D01*
X294840D01*
Y487660D01*
X292902Y486206D01*
X292701Y486071D01*
X290653Y484023D01*
X290218Y484048D01*
X288016Y484978D01*
X287960Y485220D01*
X287960Y486044D01*
Y490220D01*
X273380D01*
Y485220D01*
X274033Y484185D01*
X272794Y481645D01*
X270750D01*
X269263Y481349D01*
X268003Y480507D01*
X263953Y476457D01*
X263111Y475197D01*
X262815Y473710D01*
Y429599D01*
X241093Y407877D01*
X240881Y407559D01*
X240610Y407288D01*
X240464Y406935D01*
X240251Y406617D01*
X240176Y406241D01*
X240030Y405888D01*
Y405505D01*
X239955Y405130D01*
Y397510D01*
Y389890D01*
X240030Y389515D01*
Y389132D01*
X240176Y388779D01*
X240251Y388403D01*
X240464Y388085D01*
X240610Y387732D01*
X240881Y387461D01*
X241093Y387143D01*
X241411Y386931D01*
X241682Y386660D01*
X242035Y386514D01*
X242353Y386301D01*
X242729Y386226D01*
X243082Y386080D01*
X243465D01*
X243840Y386005D01*
X244215Y386080D01*
X244598D01*
X244951Y386226D01*
X245327Y386301D01*
X245645Y386514D01*
X245998Y386660D01*
X246269Y386931D01*
X246587Y387143D01*
X246799Y387461D01*
X247070Y387732D01*
X247216Y388085D01*
X247429Y388403D01*
X247504Y388779D01*
X247650Y389132D01*
Y389515D01*
X247725Y389890D01*
Y397510D01*
Y403521D01*
X269447Y425243D01*
X270289Y426503D01*
X270585Y427990D01*
Y471800D01*
X272110Y473198D01*
X274650Y472593D01*
Y471490D01*
X278080D01*
Y467280D01*
X274650D01*
X274650Y455564D01*
X273380Y453550D01*
X273380Y452726D01*
Y448550D01*
X280670D01*
X287960D01*
Y453550D01*
X286690Y455564D01*
X286690Y456090D01*
Y465080D01*
X286690Y466111D01*
X288539Y467547D01*
X289144Y467388D01*
X290620Y466317D01*
X290620Y465133D01*
Y449510D01*
X311360Y449510D01*
X312520Y447450D01*
Y441790D01*
X311360Y439730D01*
X309980Y439730D01*
X290620D01*
Y422790D01*
X311360D01*
Y422790D01*
X312520Y423920D01*
X316180D01*
Y411858D01*
X315540Y411218D01*
X314960Y409818D01*
Y408302D01*
X315540Y406902D01*
X316612Y405830D01*
X318012Y405250D01*
X319528D01*
X320928Y405830D01*
X322000Y406902D01*
X322580Y408302D01*
Y409818D01*
X322000Y411218D01*
X321360Y411858D01*
Y423920D01*
X324560D01*
Y436380D01*
X324560Y436460D01*
Y438920D01*
X324560Y439000D01*
Y451460D01*
X321130D01*
Y455900D01*
X324450D01*
Y467740D01*
X321820D01*
Y468750D01*
X321623Y469741D01*
X321061Y470581D01*
X315172Y476470D01*
X316224Y479010D01*
X333190D01*
X334181Y479207D01*
X335021Y479769D01*
X338013Y482761D01*
X340212Y482442D01*
X340822Y482116D01*
X340940Y481832D01*
X340970Y481801D01*
X341040Y481570D01*
X340845Y478974D01*
X340700Y478753D01*
X333799Y471851D01*
X333237Y471011D01*
X333040Y470020D01*
Y467740D01*
X330410D01*
Y455900D01*
X332460D01*
Y451460D01*
X329030D01*
Y439000D01*
X329030Y438920D01*
Y436460D01*
X329030Y436380D01*
Y423920D01*
X331420D01*
Y411858D01*
X330780Y411218D01*
X330200Y409818D01*
Y408302D01*
X330780Y406902D01*
X331852Y405830D01*
X333252Y405250D01*
X334768D01*
X336168Y405830D01*
X337240Y406902D01*
X337820Y408302D01*
Y409818D01*
X337240Y411218D01*
X336600Y411858D01*
Y423920D01*
X340618D01*
X342690Y422790D01*
Y422790D01*
X342690Y422790D01*
X363430D01*
Y439730D01*
X343610D01*
X342690Y439730D01*
X341070Y441599D01*
Y447641D01*
X342690Y449510D01*
X363430D01*
Y466450D01*
X355650D01*
Y471260D01*
X360020D01*
Y481700D01*
X350095D01*
X348060Y483174D01*
X347980Y484157D01*
Y484748D01*
X347752Y485297D01*
X349106Y487496D01*
X349314Y487660D01*
X350168Y487660D01*
X350168Y487660D01*
X350181Y487660D01*
X355658D01*
X356079Y487239D01*
X356919Y486677D01*
X357910Y486480D01*
X376932D01*
X377572Y485840D01*
X378972Y485260D01*
X380488D01*
X381888Y485840D01*
X382960Y486912D01*
X383540Y488312D01*
Y489828D01*
X382960Y491228D01*
X381888Y492300D01*
X380488Y492880D01*
X378972D01*
X377572Y492300D01*
X376932Y491660D01*
X360020D01*
Y498100D01*
X356690D01*
Y504280D01*
X360020D01*
Y514720D01*
X348180D01*
Y504280D01*
X351510D01*
Y498100D01*
X348180D01*
Y489778D01*
X348180Y488960D01*
X347568Y488385D01*
X345718Y487473D01*
X344928Y487800D01*
X343412D01*
X343309Y487757D01*
X340769Y489296D01*
Y501160D01*
X340496Y502533D01*
X339718Y503698D01*
X338554Y504476D01*
X337180Y504749D01*
X335807Y504476D01*
X335370Y504184D01*
X333036Y505126D01*
X332830Y505309D01*
Y506661D01*
X332633Y507653D01*
X332071Y508493D01*
X324153Y516411D01*
X323313Y516973D01*
X322322Y517170D01*
X313153D01*
X306680Y523643D01*
Y531120D01*
X303350D01*
Y537300D01*
X306680D01*
Y547690D01*
X310130D01*
X311121Y547887D01*
X311961Y548449D01*
X316791Y553279D01*
X317353Y554119D01*
X317550Y555110D01*
Y558525D01*
X317693Y558716D01*
X320392Y558581D01*
X320620Y558032D01*
X321692Y556960D01*
X323092Y556380D01*
X323997D01*
X328090Y552287D01*
Y547336D01*
X325553Y545976D01*
X324180Y546249D01*
X322807Y545976D01*
X321713Y545245D01*
X321133Y546113D01*
X320220Y546724D01*
Y535910D01*
Y524925D01*
X322500Y524831D01*
X323272Y524335D01*
X326339Y521269D01*
X327179Y520707D01*
X328170Y520510D01*
X338003D01*
X338273Y520330D01*
X338400Y520022D01*
X339472Y518950D01*
X340872Y518370D01*
X342388D01*
X343788Y518950D01*
X344860Y520022D01*
X345440Y521422D01*
X345640Y521638D01*
X348180Y520680D01*
Y520680D01*
X360020D01*
Y531120D01*
X348180D01*
Y531120D01*
X346379Y530374D01*
X340769Y535984D01*
Y542660D01*
X340496Y544033D01*
X340410Y544162D01*
Y556380D01*
X340213Y557371D01*
X339651Y558211D01*
X328221Y569641D01*
X327381Y570203D01*
X326390Y570400D01*
X318770D01*
X317779Y570203D01*
X316939Y569641D01*
X313129Y565831D01*
X312567Y564991D01*
X312370Y564000D01*
Y556183D01*
X309057Y552870D01*
X308876D01*
X306680Y553700D01*
X306680Y555410D01*
Y564140D01*
X303350D01*
Y578752D01*
X304220Y579622D01*
X304800Y581022D01*
Y582538D01*
X304220Y583938D01*
X303148Y585010D01*
X301748Y585590D01*
X300232D01*
X298832Y585010D01*
X297760Y583938D01*
X297180Y582538D01*
Y581022D01*
X297760Y579622D01*
X298170Y579212D01*
Y564140D01*
X294840D01*
X294840Y553700D01*
X292644Y552870D01*
X291096D01*
X288900Y553700D01*
X288900Y555410D01*
Y564140D01*
X285800D01*
Y568822D01*
X286440Y569462D01*
X287020Y570862D01*
Y572378D01*
X286440Y573778D01*
X285368Y574850D01*
X283968Y575430D01*
X282452D01*
X282398Y575407D01*
X281814Y575991D01*
X280974Y576553D01*
X279983Y576750D01*
X274936D01*
X274817Y577038D01*
X273388Y578467D01*
X271521Y579240D01*
X269499D01*
X267632Y578467D01*
X266678Y577512D01*
X265758Y577492D01*
X264715Y577703D01*
X263910Y578063D01*
X263580Y578858D01*
X262819Y579619D01*
X262645Y581085D01*
X262819Y582551D01*
X263580Y583312D01*
X264160Y584712D01*
Y586228D01*
X263580Y587628D01*
X262508Y588700D01*
X261108Y589280D01*
D02*
G37*
G36*
X139188Y585470D02*
X137672D01*
X136272Y584890D01*
X135200Y583818D01*
X134620Y582418D01*
Y580902D01*
X135200Y579502D01*
X135610Y579092D01*
Y564020D01*
X132280D01*
X132280Y553580D01*
X130084Y552750D01*
X128536D01*
X126340Y553580D01*
X126340Y555290D01*
Y564020D01*
X123240D01*
Y568702D01*
X123880Y569342D01*
X124460Y570742D01*
Y572258D01*
X123880Y573658D01*
X122808Y574730D01*
X121408Y575310D01*
X119892D01*
X119838Y575287D01*
X119254Y575871D01*
X118414Y576433D01*
X117423Y576630D01*
X112376D01*
X112257Y576918D01*
X110828Y578347D01*
X108961Y579120D01*
X106939D01*
X105072Y578347D01*
X103643Y576918D01*
X102870Y575051D01*
Y573030D01*
X103312Y571963D01*
X101159Y570524D01*
X98941Y572742D01*
X99060Y573030D01*
Y575051D01*
X98287Y576918D01*
X96858Y578347D01*
X94991Y579120D01*
X92970D01*
X91102Y578347D01*
X89673Y576918D01*
X88900Y575051D01*
Y573030D01*
X89673Y571162D01*
X91102Y569733D01*
X92970Y568960D01*
X94991D01*
X95278Y569079D01*
X105360Y558997D01*
Y556518D01*
X104720Y555878D01*
X104140Y554478D01*
Y552962D01*
X104720Y551562D01*
X105792Y550490D01*
X107192Y549910D01*
X107372D01*
X107436Y549881D01*
X109226Y548074D01*
X109370Y547563D01*
Y534240D01*
X109567Y533249D01*
X110129Y532409D01*
X111821Y530716D01*
X110913Y528523D01*
X108502D01*
X108447Y528658D01*
X107018Y530087D01*
X105150Y530860D01*
X103130D01*
X101262Y530087D01*
X99833Y528658D01*
X99060Y526791D01*
Y524770D01*
X99833Y522902D01*
X101262Y521473D01*
X102370Y521015D01*
Y518353D01*
X101262Y517895D01*
X99833Y516466D01*
X99060Y514599D01*
Y512578D01*
X99833Y510710D01*
X101262Y509281D01*
X103130Y508508D01*
X105150D01*
X107018Y509281D01*
X108447Y510710D01*
X108566Y510998D01*
X112436D01*
X114433Y509152D01*
X114500Y509016D01*
Y504160D01*
X126340D01*
Y506790D01*
X132280D01*
Y504160D01*
X135610D01*
Y497980D01*
X132280D01*
Y487540D01*
X130342Y486086D01*
X130141Y485951D01*
X128092Y483903D01*
X127658Y483928D01*
X125456Y484858D01*
X125400Y485100D01*
X125400Y485924D01*
Y490100D01*
X110820D01*
Y485100D01*
X112090Y483086D01*
X112090Y482560D01*
Y471370D01*
X115520D01*
Y467160D01*
X112090D01*
Y464895D01*
X106680D01*
X105193Y464599D01*
X103933Y463757D01*
X100123Y459947D01*
X99281Y458687D01*
X98985Y457200D01*
Y425789D01*
X84883Y411687D01*
X80941Y407745D01*
X74930D01*
X74555Y407670D01*
X74172D01*
X73819Y407524D01*
X73443Y407449D01*
X73125Y407236D01*
X72772Y407090D01*
X72501Y406819D01*
X72183Y406607D01*
X71971Y406289D01*
X71700Y406018D01*
X71554Y405665D01*
X71341Y405347D01*
X71266Y404971D01*
X71120Y404618D01*
Y404235D01*
X71045Y403860D01*
X71120Y403485D01*
Y403102D01*
X71266Y402749D01*
X71341Y402373D01*
X71554Y402055D01*
X71700Y401702D01*
X71971Y401431D01*
X72183Y401113D01*
X72501Y400901D01*
X72772Y400630D01*
X73125Y400484D01*
X73443Y400271D01*
X73819Y400196D01*
X74172Y400050D01*
X74555D01*
X74930Y399975D01*
X82550D01*
X82925Y400050D01*
X83308D01*
X83661Y400196D01*
X84037Y400271D01*
X84355Y400484D01*
X84708Y400630D01*
X84979Y400901D01*
X85297Y401113D01*
X90377Y406193D01*
X105617Y421433D01*
X106459Y422693D01*
X106755Y424180D01*
Y455591D01*
X108062Y456899D01*
X110625Y456633D01*
X111549Y454585D01*
X110820Y453430D01*
X110820Y452606D01*
Y448430D01*
X118110D01*
X125400D01*
Y453430D01*
X124130Y455444D01*
X124130Y455970D01*
Y464960D01*
X124130Y465991D01*
X125979Y467427D01*
X126584Y467267D01*
X128060Y466197D01*
X128060Y465013D01*
Y449390D01*
X148800Y449390D01*
X149960Y447331D01*
Y441670D01*
X148800Y439610D01*
X147420Y439610D01*
X128060D01*
Y422670D01*
X148800D01*
Y422670D01*
X149960Y423800D01*
X153620D01*
Y411738D01*
X152980Y411098D01*
X152400Y409698D01*
Y408182D01*
X152980Y406782D01*
X154052Y405710D01*
X155452Y405130D01*
X156968D01*
X158368Y405710D01*
X159440Y406782D01*
X160020Y408182D01*
Y409698D01*
X159440Y411098D01*
X158800Y411738D01*
Y423800D01*
X162000D01*
Y436260D01*
X162000Y436340D01*
Y438800D01*
X162000Y438880D01*
Y451340D01*
X158570D01*
Y455780D01*
X161890D01*
Y467620D01*
X159260D01*
Y468630D01*
X159063Y469621D01*
X158501Y470461D01*
X152612Y476350D01*
X153664Y478890D01*
X170630D01*
X171621Y479087D01*
X172461Y479649D01*
X175453Y482641D01*
X177652Y482322D01*
X178262Y481996D01*
X178380Y481712D01*
X178410Y481682D01*
X178480Y481450D01*
X178285Y478854D01*
X178140Y478633D01*
X171239Y471731D01*
X170677Y470891D01*
X170480Y469900D01*
Y467620D01*
X167850D01*
Y455780D01*
X169900D01*
Y451340D01*
X166470D01*
Y438880D01*
X166470Y438800D01*
Y436340D01*
X166470Y436260D01*
Y423800D01*
X168860D01*
Y411738D01*
X167977Y410855D01*
X167397Y409455D01*
Y407939D01*
X167977Y406539D01*
X169049Y405467D01*
X170449Y404887D01*
X171965D01*
X173365Y405467D01*
X174437Y406539D01*
X175017Y407939D01*
Y409455D01*
X174437Y410855D01*
X174040Y411252D01*
Y423800D01*
X178058D01*
X180130Y422670D01*
Y422670D01*
X180130Y422670D01*
X200870D01*
Y439610D01*
X181050D01*
X180130Y439610D01*
X178510Y441479D01*
Y447521D01*
X180130Y449390D01*
X200870D01*
Y466330D01*
X193090D01*
Y471140D01*
X197460D01*
Y481580D01*
X187535D01*
X185500Y483054D01*
X185420Y484037D01*
Y484628D01*
X185193Y485177D01*
X186546Y487376D01*
X186754Y487540D01*
X187608Y487540D01*
X187608Y487540D01*
X187621Y487540D01*
X193098D01*
X193519Y487119D01*
X194359Y486557D01*
X195350Y486360D01*
X214372D01*
X215012Y485720D01*
X216412Y485140D01*
X217928D01*
X219328Y485720D01*
X220400Y486792D01*
X220980Y488192D01*
Y489708D01*
X220400Y491108D01*
X219328Y492180D01*
X217928Y492760D01*
X216412D01*
X215012Y492180D01*
X214372Y491540D01*
X197460D01*
Y497980D01*
X194130D01*
Y504160D01*
X197460D01*
Y514600D01*
X185620D01*
Y504160D01*
X188950D01*
Y497980D01*
X185620D01*
Y489658D01*
X185620Y488840D01*
X185008Y488265D01*
X183158Y487353D01*
X182368Y487680D01*
X180852D01*
X180749Y487637D01*
X178209Y489176D01*
Y501040D01*
X177936Y502413D01*
X177158Y503578D01*
X175993Y504356D01*
X174620Y504629D01*
X173247Y504356D01*
X173209Y504331D01*
X172596Y504150D01*
X170476Y505006D01*
X170270Y505189D01*
Y506541D01*
X170073Y507533D01*
X169511Y508373D01*
X161593Y516291D01*
X160753Y516853D01*
X159762Y517050D01*
X150593D01*
X144120Y523522D01*
Y531000D01*
X140790D01*
Y537180D01*
X144120D01*
Y547570D01*
X147570D01*
X148561Y547767D01*
X149401Y548329D01*
X154231Y553159D01*
X154793Y553999D01*
X154990Y554990D01*
Y558405D01*
X155133Y558596D01*
X157832Y558461D01*
X158060Y557912D01*
X159132Y556840D01*
X160532Y556260D01*
X161437D01*
X165530Y552167D01*
Y547215D01*
X162993Y545856D01*
X161620Y546129D01*
X160247Y545856D01*
X159153Y545125D01*
X158573Y545993D01*
X157660Y546604D01*
Y535790D01*
Y524805D01*
X159940Y524711D01*
X160712Y524215D01*
X163779Y521149D01*
X164619Y520587D01*
X165610Y520390D01*
X175443D01*
X175713Y520210D01*
X175840Y519902D01*
X176912Y518830D01*
X178312Y518250D01*
X179828D01*
X181228Y518830D01*
X182300Y519902D01*
X182880Y521302D01*
X183080Y521518D01*
X185620Y520560D01*
Y520560D01*
X197460D01*
Y531000D01*
X185620D01*
Y531000D01*
X183819Y530254D01*
X178209Y535863D01*
Y542540D01*
X177936Y543913D01*
X177850Y544042D01*
Y556260D01*
X177653Y557251D01*
X177091Y558091D01*
X165661Y569521D01*
X164821Y570083D01*
X163830Y570280D01*
X156210D01*
X155219Y570083D01*
X154379Y569521D01*
X150569Y565711D01*
X150007Y564871D01*
X149810Y563880D01*
Y556063D01*
X146497Y552750D01*
X146316D01*
X144120Y553580D01*
X144120Y555290D01*
Y564020D01*
X140790D01*
Y578632D01*
X141660Y579502D01*
X142240Y580902D01*
Y582418D01*
X141660Y583818D01*
X140588Y584890D01*
X139188Y585470D01*
D02*
G37*
G36*
X315140Y546724D02*
X314227Y546113D01*
X313168Y544529D01*
X312796Y542660D01*
Y538450D01*
X315140D01*
Y546724D01*
D02*
G37*
G36*
X152580Y546604D02*
X151667Y545993D01*
X150608Y544409D01*
X150236Y542540D01*
Y538330D01*
X152580D01*
Y546604D01*
D02*
G37*
G36*
X249678Y543560D02*
X248162D01*
X246762Y542980D01*
X245690Y541908D01*
X245110Y540508D01*
Y538992D01*
X245690Y537592D01*
X246483Y535940D01*
X245690Y534288D01*
X245110Y532888D01*
Y531372D01*
X245690Y529972D01*
X246762Y528900D01*
X248162Y528320D01*
X249678D01*
X251078Y528900D01*
X252150Y529972D01*
X252730Y531372D01*
Y532888D01*
X252150Y534288D01*
X251357Y535940D01*
X252150Y537592D01*
X252730Y538992D01*
Y540508D01*
X252150Y541908D01*
X251078Y542980D01*
X249678Y543560D01*
D02*
G37*
G36*
X315140Y533370D02*
X312796D01*
Y529160D01*
X313168Y527291D01*
X314227Y525707D01*
X315140Y525096D01*
Y533370D01*
D02*
G37*
G36*
X152580Y533250D02*
X150236D01*
Y529040D01*
X150608Y527171D01*
X151667Y525587D01*
X152580Y524976D01*
Y533250D01*
D02*
G37*
G36*
X287960Y500300D02*
X283210D01*
Y495300D01*
X287960D01*
Y500300D01*
D02*
G37*
G36*
X278130D02*
X273380D01*
Y495300D01*
X278130D01*
Y500300D01*
D02*
G37*
G36*
X125400Y500180D02*
X120650D01*
Y495180D01*
X125400D01*
Y500180D01*
D02*
G37*
G36*
X115570D02*
X110820D01*
Y495180D01*
X115570D01*
Y500180D01*
D02*
G37*
G36*
X469514Y495612D02*
X464864D01*
Y491662D01*
X469514D01*
Y495612D01*
D02*
G37*
G36*
X459784D02*
X455134D01*
Y491662D01*
X459784D01*
Y495612D01*
D02*
G37*
G36*
X524510Y494150D02*
X519760D01*
Y489150D01*
X524510D01*
Y494150D01*
D02*
G37*
G36*
X559010Y493370D02*
X549910D01*
Y486170D01*
X559010D01*
Y493370D01*
D02*
G37*
G36*
X459784Y486582D02*
X455134D01*
Y482632D01*
X459784D01*
Y486582D01*
D02*
G37*
G36*
X374138Y454780D02*
X372622D01*
X371222Y454200D01*
X370150Y453128D01*
X369570Y451728D01*
Y450212D01*
X370150Y448812D01*
X371222Y447740D01*
X372622Y447160D01*
X374138D01*
X375538Y447740D01*
X376610Y448812D01*
X377190Y450212D01*
Y451728D01*
X376610Y453128D01*
X375538Y454200D01*
X374138Y454780D01*
D02*
G37*
G36*
X211578Y454660D02*
X210062D01*
X208662Y454080D01*
X207590Y453008D01*
X207010Y451608D01*
Y450092D01*
X207590Y448692D01*
X208662Y447620D01*
X210062Y447040D01*
X211578D01*
X212978Y447620D01*
X214050Y448692D01*
X214630Y450092D01*
Y451608D01*
X214050Y453008D01*
X212978Y454080D01*
X211578Y454660D01*
D02*
G37*
G36*
X287960Y443470D02*
X283210D01*
Y438470D01*
X287960D01*
Y443470D01*
D02*
G37*
G36*
X278130D02*
X273380D01*
Y438470D01*
X278130D01*
Y443470D01*
D02*
G37*
G36*
X125400Y443350D02*
X120650D01*
Y438350D01*
X125400D01*
Y443350D01*
D02*
G37*
G36*
X115570D02*
X110820D01*
Y438350D01*
X115570D01*
Y443350D01*
D02*
G37*
G36*
X493518Y424180D02*
X492002D01*
X490602Y423600D01*
X489530Y422528D01*
X488950Y421128D01*
Y419612D01*
X489530Y418212D01*
X488417Y415732D01*
X488075Y415390D01*
X478240D01*
Y416130D01*
X467800D01*
Y404290D01*
X478240D01*
Y405031D01*
X489727D01*
X491075Y402845D01*
X490248Y400620D01*
X488760D01*
Y390080D01*
X498756D01*
X499143Y390080D01*
X501296Y389146D01*
X501453Y389146D01*
X505946D01*
Y395636D01*
Y402127D01*
X501296D01*
Y401933D01*
X499300Y400620D01*
X499160D01*
X496620Y401595D01*
Y403967D01*
X498517Y405864D01*
X500608D01*
X500762Y405710D01*
X502162Y405130D01*
X503678D01*
X505078Y405710D01*
X506150Y406782D01*
X506730Y408182D01*
Y409698D01*
X506150Y411098D01*
X505078Y412170D01*
X503678Y412750D01*
X502162D01*
X500762Y412170D01*
X500327Y411736D01*
X498544Y412493D01*
X497908Y412908D01*
X497545Y414732D01*
X496423Y416413D01*
X496149Y416595D01*
X495990Y418212D01*
X496570Y419612D01*
Y421128D01*
X495990Y422528D01*
X494918Y423600D01*
X493518Y424180D01*
D02*
G37*
G36*
X529649Y477520D02*
X524451D01*
X519318Y476707D01*
X514375Y475101D01*
X509744Y472741D01*
X505539Y469686D01*
X501864Y466011D01*
X498809Y461806D01*
X496449Y457175D01*
X494843Y452232D01*
X494030Y447099D01*
Y441901D01*
X494843Y436768D01*
X496449Y431825D01*
X498809Y427194D01*
X501864Y422989D01*
X505539Y419314D01*
X509744Y416259D01*
X514375Y413899D01*
X519318Y412293D01*
X524451Y411480D01*
X529649D01*
X534782Y412293D01*
X539725Y413899D01*
X544356Y416259D01*
X548561Y419314D01*
X552236Y422989D01*
X555291Y427194D01*
X557651Y431825D01*
X559257Y436768D01*
X560070Y441901D01*
Y447099D01*
X559257Y452232D01*
X557651Y457175D01*
X555291Y461806D01*
X552236Y466011D01*
X548561Y469686D01*
X544356Y472741D01*
X539725Y475101D01*
X534782Y476707D01*
X529649Y477520D01*
D02*
G37*
G36*
X47049D02*
X41851D01*
X36718Y476707D01*
X31775Y475101D01*
X27144Y472741D01*
X22939Y469686D01*
X19264Y466011D01*
X16209Y461806D01*
X13849Y457175D01*
X12243Y452232D01*
X11430Y447099D01*
Y441901D01*
X12243Y436768D01*
X13849Y431825D01*
X16209Y427194D01*
X19264Y422989D01*
X22939Y419314D01*
X27144Y416259D01*
X31775Y413899D01*
X36718Y412293D01*
X41851Y411480D01*
X47049D01*
X52182Y412293D01*
X57125Y413899D01*
X61756Y416259D01*
X65961Y419314D01*
X69636Y422989D01*
X72691Y427194D01*
X75051Y431825D01*
X76657Y436768D01*
X77470Y441901D01*
Y447099D01*
X76657Y452232D01*
X75051Y457175D01*
X72691Y461806D01*
X69636Y466011D01*
X65961Y469686D01*
X61756Y472741D01*
X57125Y475101D01*
X52182Y476707D01*
X47049Y477520D01*
D02*
G37*
G36*
X384043Y412750D02*
X382021D01*
X380154Y411977D01*
X378725Y410548D01*
X378267Y409440D01*
X375605D01*
X375147Y410548D01*
X373718Y411977D01*
X371851Y412750D01*
X369829D01*
X367962Y411977D01*
X366533Y410548D01*
X365760Y408680D01*
Y406660D01*
X366533Y404792D01*
X367962Y403363D01*
X369829Y402590D01*
X371851D01*
X373718Y403363D01*
X375147Y404792D01*
X375605Y405900D01*
X378267D01*
X378725Y404792D01*
X380154Y403363D01*
X382021Y402590D01*
X384043D01*
X385910Y403363D01*
X387339Y404792D01*
X388112Y406660D01*
Y408680D01*
X387339Y410548D01*
X385910Y411977D01*
X384043Y412750D01*
D02*
G37*
G36*
X428820Y416130D02*
X418380D01*
Y411615D01*
X409672Y402907D01*
X408608Y403064D01*
X406400Y404372D01*
Y405888D01*
X405820Y407288D01*
X404748Y408360D01*
X403348Y408940D01*
X401832D01*
X400432Y408360D01*
X399360Y407288D01*
X398780Y405888D01*
Y404372D01*
X399360Y402972D01*
X399002Y399952D01*
X398927Y399902D01*
X397805Y398222D01*
X397411Y396240D01*
X397805Y394258D01*
X398927Y392578D01*
X399002Y392528D01*
X399360Y389508D01*
X398780Y388108D01*
Y386592D01*
X399360Y385192D01*
X400432Y384120D01*
X401832Y383540D01*
X403348D01*
X404748Y384120D01*
X405820Y385192D01*
X406400Y386592D01*
Y388108D01*
X406229Y388521D01*
X407485Y390871D01*
X407717Y391060D01*
X410330D01*
X412312Y391455D01*
X413993Y392578D01*
X425705Y404290D01*
X428820D01*
Y416130D01*
D02*
G37*
G36*
X560126Y402601D02*
X555476D01*
Y398651D01*
X560126D01*
Y402601D01*
D02*
G37*
G36*
X515676Y402127D02*
X511026D01*
Y398176D01*
X515676D01*
Y402127D01*
D02*
G37*
G36*
X451608Y391160D02*
X450092D01*
X448692Y390580D01*
X447040Y389787D01*
X445388Y390580D01*
X443988Y391160D01*
X442472D01*
X441072Y390580D01*
X440000Y389508D01*
X439420Y388108D01*
Y386592D01*
X440000Y385192D01*
X441072Y384120D01*
X442472Y383540D01*
X443988D01*
X445388Y384120D01*
X447040Y384913D01*
X448692Y384120D01*
X450092Y383540D01*
X451608D01*
X453008Y384120D01*
X454080Y385192D01*
X454660Y386592D01*
Y388108D01*
X454080Y389508D01*
X453008Y390580D01*
X451608Y391160D01*
D02*
G37*
G36*
X560126Y393571D02*
X555476D01*
Y389621D01*
X560126D01*
Y393571D01*
D02*
G37*
G36*
X539238Y410210D02*
X537722D01*
X536322Y409630D01*
X535250Y408558D01*
X534670Y407158D01*
Y405642D01*
X535250Y404242D01*
X535890Y403602D01*
Y400620D01*
X533210D01*
Y390080D01*
X543396Y390080D01*
X545746Y389621D01*
X546100Y389621D01*
X550396D01*
Y396111D01*
Y402601D01*
X545746D01*
Y401933D01*
X543750Y400620D01*
X543610D01*
X541738Y401338D01*
X541420Y403952D01*
X541710Y404242D01*
X542290Y405642D01*
Y407158D01*
X541710Y408558D01*
X540638Y409630D01*
X539238Y410210D01*
D02*
G37*
G36*
X515676Y393097D02*
X511026D01*
Y389146D01*
X515676D01*
Y393097D01*
D02*
G37*
G36*
X558856Y384931D02*
X547016D01*
Y381940D01*
X543750D01*
Y384620D01*
X533210D01*
Y374080D01*
X543750D01*
Y376760D01*
X547016D01*
Y374491D01*
X558856D01*
Y384931D01*
D02*
G37*
G36*
X469388Y393700D02*
X467872D01*
X466472Y393120D01*
X465400Y392048D01*
X464820Y390648D01*
Y389132D01*
X465400Y387732D01*
X466472Y386660D01*
X467872Y386080D01*
X469491Y385671D01*
X469900Y384052D01*
X470480Y382652D01*
X471552Y381580D01*
X472952Y381000D01*
X474571Y380591D01*
X474980Y378972D01*
X475560Y377572D01*
X476632Y376500D01*
X478032Y375920D01*
X479548D01*
X480948Y376500D01*
X482020Y377572D01*
X482600Y378972D01*
Y380488D01*
X482020Y381888D01*
X480948Y382960D01*
X479548Y383540D01*
X477929Y383949D01*
X477520Y385568D01*
X476940Y386968D01*
X475868Y388040D01*
X474468Y388620D01*
X472849Y389029D01*
X472440Y390648D01*
X471860Y392048D01*
X470788Y393120D01*
X469388Y393700D01*
D02*
G37*
G36*
X499300Y384620D02*
X488760D01*
Y374080D01*
X499300D01*
Y376760D01*
X502566D01*
Y374016D01*
X514406D01*
Y384456D01*
X502566D01*
Y381940D01*
X499300D01*
Y384620D01*
D02*
G37*
G36*
X54351Y379730D02*
X52330D01*
X50462Y378957D01*
X49033Y377528D01*
X48260Y375661D01*
Y373639D01*
X48654Y372688D01*
X46767Y370720D01*
X46478Y370840D01*
X44962D01*
X43562Y370260D01*
X42828Y369526D01*
X41467Y369308D01*
X39868Y369495D01*
X39178Y370185D01*
X37778Y370765D01*
X36262D01*
X34862Y370185D01*
X33790Y369113D01*
X33660Y368798D01*
X30977Y368638D01*
X29548Y370067D01*
X27680Y370840D01*
X25659D01*
X23792Y370067D01*
X22363Y368638D01*
X21590Y366771D01*
Y364749D01*
X22363Y362882D01*
X23792Y361453D01*
X25659Y360680D01*
X27680D01*
X27968Y360799D01*
X38050Y350717D01*
Y348238D01*
X37410Y347598D01*
X36830Y346198D01*
Y344682D01*
X37410Y343282D01*
X38482Y342210D01*
X39882Y341630D01*
X40062D01*
X40126Y341601D01*
X41916Y339794D01*
X42060Y339283D01*
Y325960D01*
X42257Y324969D01*
X42819Y324129D01*
X44511Y322436D01*
X43602Y320243D01*
X41192D01*
X41137Y320378D01*
X39708Y321807D01*
X37840Y322580D01*
X35819D01*
X33952Y321807D01*
X32523Y320378D01*
X31750Y318510D01*
Y316490D01*
X32523Y314622D01*
X33952Y313193D01*
X35060Y312735D01*
Y310073D01*
X33952Y309615D01*
X32523Y308186D01*
X31750Y306318D01*
Y304298D01*
X32523Y302430D01*
X33952Y301001D01*
X35819Y300228D01*
X37840D01*
X39708Y301001D01*
X41137Y302430D01*
X41910Y304298D01*
Y305351D01*
X43842Y307282D01*
X45049D01*
X47190Y306320D01*
Y295880D01*
X59030D01*
Y298510D01*
X64970D01*
Y295880D01*
X68300D01*
Y289700D01*
X64970D01*
Y279260D01*
X63032Y277806D01*
X62831Y277671D01*
X60782Y275623D01*
X60348Y275648D01*
X58146Y276578D01*
X58090Y276820D01*
X58090Y277644D01*
Y281820D01*
X43510D01*
Y276820D01*
X44239Y275665D01*
X43093Y273125D01*
X13970D01*
X13595Y273050D01*
X13212D01*
X12859Y272904D01*
X12483Y272829D01*
X12165Y272616D01*
X11812Y272470D01*
X11541Y272199D01*
X11223Y271987D01*
X11011Y271669D01*
X10740Y271398D01*
X10594Y271045D01*
X10381Y270727D01*
X10306Y270351D01*
X10160Y269998D01*
Y269615D01*
X10085Y269240D01*
Y261620D01*
Y254000D01*
X10160Y253625D01*
Y253242D01*
X10306Y252889D01*
X10381Y252513D01*
X10594Y252195D01*
X10740Y251842D01*
X11011Y251571D01*
X11223Y251253D01*
X11541Y251041D01*
X11812Y250770D01*
X12165Y250624D01*
X12483Y250411D01*
X12859Y250336D01*
X13212Y250190D01*
X13595D01*
X13970Y250115D01*
X14345Y250190D01*
X14728D01*
X15081Y250336D01*
X15457Y250411D01*
X15775Y250624D01*
X16128Y250770D01*
X16399Y251041D01*
X16717Y251253D01*
X16929Y251571D01*
X17200Y251842D01*
X17346Y252195D01*
X17559Y252513D01*
X17634Y252889D01*
X17780Y253242D01*
Y253625D01*
X17855Y254000D01*
Y265355D01*
X44780D01*
Y263090D01*
X48210D01*
Y258880D01*
X44780D01*
X44780Y247164D01*
X43510Y245150D01*
X43510Y244326D01*
Y240150D01*
X50800D01*
X58090D01*
Y245150D01*
X56820Y247164D01*
X56820Y247690D01*
Y256680D01*
X56820Y257711D01*
X58669Y259147D01*
X59274Y258988D01*
X60750Y257917D01*
X60750Y256733D01*
Y241110D01*
X81490Y241110D01*
X82650Y239051D01*
Y233389D01*
X81490Y231330D01*
X80110Y231330D01*
X60750D01*
Y214390D01*
X81490D01*
Y214390D01*
X82650Y215520D01*
X86310D01*
Y203458D01*
X85670Y202818D01*
X85090Y201418D01*
Y199902D01*
X85670Y198502D01*
X86742Y197430D01*
X88142Y196850D01*
X89658D01*
X91058Y197430D01*
X92130Y198502D01*
X92710Y199902D01*
Y201418D01*
X92130Y202818D01*
X91490Y203458D01*
Y215520D01*
X94690D01*
Y227980D01*
X94690Y228060D01*
Y230520D01*
X94690Y230600D01*
Y243060D01*
X91260D01*
Y247500D01*
X94580D01*
Y259340D01*
X91950D01*
Y260350D01*
X91753Y261341D01*
X91191Y262181D01*
X85302Y268070D01*
X86354Y270610D01*
X103320D01*
X104311Y270807D01*
X105151Y271369D01*
X108143Y274361D01*
X110342Y274042D01*
X110952Y273716D01*
X111070Y273432D01*
X111100Y273402D01*
X111170Y273170D01*
X110975Y270574D01*
X110830Y270353D01*
X103929Y263451D01*
X103367Y262611D01*
X103170Y261620D01*
Y259340D01*
X100540D01*
Y247500D01*
X102590D01*
Y243060D01*
X99160D01*
Y230600D01*
X99160Y230520D01*
Y228060D01*
X99160Y227980D01*
Y215520D01*
X101550D01*
Y203458D01*
X100910Y202818D01*
X100330Y201418D01*
Y199902D01*
X100910Y198502D01*
X101982Y197430D01*
X103382Y196850D01*
X104898D01*
X106298Y197430D01*
X107370Y198502D01*
X107950Y199902D01*
Y201418D01*
X107370Y202818D01*
X106730Y203458D01*
Y215520D01*
X110748D01*
X112820Y214390D01*
Y214390D01*
X112820Y214390D01*
X133560D01*
Y231330D01*
X113740D01*
X112820Y231330D01*
X111200Y233199D01*
Y239241D01*
X112820Y241110D01*
X133560D01*
Y258050D01*
X125780D01*
Y262860D01*
X130150D01*
Y273300D01*
X120225D01*
X118190Y274774D01*
X118110Y275757D01*
Y276348D01*
X117882Y276897D01*
X119236Y279096D01*
X119444Y279260D01*
X120298Y279260D01*
X120298Y279260D01*
X120311Y279260D01*
X125788D01*
X126209Y278839D01*
X127049Y278277D01*
X128040Y278080D01*
X147062D01*
X147702Y277440D01*
X149102Y276860D01*
X150618D01*
X152018Y277440D01*
X153090Y278512D01*
X153670Y279912D01*
Y281428D01*
X153090Y282828D01*
X152018Y283900D01*
X150618Y284480D01*
X149102D01*
X147702Y283900D01*
X147062Y283260D01*
X130150D01*
Y289700D01*
X126820D01*
Y295880D01*
X130150D01*
Y306320D01*
X118310D01*
Y295880D01*
X121640D01*
Y289700D01*
X118310D01*
Y281378D01*
X118310Y280560D01*
X117698Y279985D01*
X115848Y279073D01*
X115058Y279400D01*
X113542D01*
X113439Y279357D01*
X110899Y280896D01*
Y292760D01*
X110626Y294133D01*
X109848Y295298D01*
X108684Y296076D01*
X107310Y296349D01*
X105937Y296076D01*
X105500Y295784D01*
X103166Y296726D01*
X102960Y296909D01*
Y298262D01*
X102763Y299253D01*
X102201Y300093D01*
X94283Y308011D01*
X93443Y308573D01*
X92452Y308770D01*
X83283D01*
X76810Y315243D01*
Y322720D01*
X73480D01*
Y328900D01*
X76810D01*
Y339290D01*
X80260D01*
X81251Y339487D01*
X82091Y340049D01*
X86921Y344879D01*
X87483Y345719D01*
X87680Y346710D01*
Y350125D01*
X87823Y350316D01*
X90522Y350181D01*
X90750Y349632D01*
X91822Y348560D01*
X93222Y347980D01*
X94128D01*
X98220Y343887D01*
Y338936D01*
X95683Y337576D01*
X94310Y337849D01*
X92937Y337576D01*
X91843Y336845D01*
X91263Y337713D01*
X90350Y338324D01*
Y327510D01*
Y316525D01*
X92630Y316431D01*
X93402Y315935D01*
X96469Y312869D01*
X97309Y312307D01*
X98300Y312110D01*
X108133D01*
X108403Y311930D01*
X108530Y311622D01*
X109602Y310550D01*
X111002Y309970D01*
X112518D01*
X113918Y310550D01*
X114990Y311622D01*
X115570Y313022D01*
X115770Y313238D01*
X118310Y312280D01*
Y312280D01*
X130150D01*
Y322720D01*
X118310D01*
Y322720D01*
X116509Y321974D01*
X110899Y327584D01*
Y334260D01*
X110626Y335633D01*
X110540Y335762D01*
Y347980D01*
X110343Y348971D01*
X109781Y349811D01*
X98351Y361241D01*
X97511Y361803D01*
X96520Y362000D01*
X88900D01*
X87909Y361803D01*
X87069Y361241D01*
X83259Y357431D01*
X82697Y356591D01*
X82500Y355600D01*
Y347783D01*
X79187Y344470D01*
X79006D01*
X76810Y345300D01*
X76810Y347010D01*
Y355740D01*
X73480D01*
Y370352D01*
X74350Y371222D01*
X74930Y372622D01*
Y374138D01*
X74350Y375538D01*
X73278Y376610D01*
X71878Y377190D01*
X70362D01*
X68962Y376610D01*
X67890Y375538D01*
X67310Y374138D01*
Y372622D01*
X67890Y371222D01*
X68300Y370812D01*
Y355740D01*
X64970D01*
X64970Y345300D01*
X62774Y344470D01*
X61226D01*
X59030Y345300D01*
X59030Y347010D01*
Y355740D01*
X55930D01*
Y360422D01*
X56570Y361062D01*
X57150Y362462D01*
Y363978D01*
X56570Y365378D01*
X55930Y366018D01*
Y370224D01*
X56218Y370343D01*
X57647Y371772D01*
X58420Y373639D01*
Y375661D01*
X57647Y377528D01*
X56218Y378957D01*
X54351Y379730D01*
D02*
G37*
G36*
X525958Y374070D02*
X524442D01*
X523042Y373490D01*
X521970Y372418D01*
X521390Y371018D01*
Y369502D01*
X521970Y368102D01*
X523042Y367030D01*
X524442Y366450D01*
X525958D01*
X527358Y367030D01*
X528430Y368102D01*
X529010Y369502D01*
Y371018D01*
X528430Y372418D01*
X527358Y373490D01*
X525958Y374070D01*
D02*
G37*
G36*
X332918D02*
X331402D01*
X330002Y373490D01*
X328930Y372418D01*
X328350Y371018D01*
Y369502D01*
X328930Y368102D01*
X330002Y367030D01*
X331402Y366450D01*
X332918D01*
X334318Y367030D01*
X335390Y368102D01*
X335970Y369502D01*
Y371018D01*
X335390Y372418D01*
X334318Y373490D01*
X332918Y374070D01*
D02*
G37*
G36*
X139878D02*
X138362D01*
X136962Y373490D01*
X135890Y372418D01*
X135310Y371018D01*
Y369502D01*
X135890Y368102D01*
X136962Y367030D01*
X138362Y366450D01*
X139878D01*
X141278Y367030D01*
X142350Y368102D01*
X142930Y369502D01*
Y371018D01*
X142350Y372418D01*
X141278Y373490D01*
X139878Y374070D01*
D02*
G37*
G36*
X417318Y350520D02*
X415802D01*
X414402Y349940D01*
X413556Y349094D01*
X412115Y348971D01*
X410674Y349094D01*
X409828Y349940D01*
X408428Y350520D01*
X406912D01*
X405512Y349940D01*
X404440Y348868D01*
X403860Y347468D01*
Y345952D01*
X404440Y344552D01*
X405512Y343480D01*
X406912Y342900D01*
X408428D01*
X409828Y343480D01*
X410674Y344326D01*
X412115Y344449D01*
X413556Y344326D01*
X414402Y343480D01*
X415802Y342900D01*
X417318D01*
X418718Y343480D01*
X419790Y344552D01*
X420370Y345952D01*
Y347468D01*
X419790Y348868D01*
X418718Y349940D01*
X417318Y350520D01*
D02*
G37*
G36*
X224278D02*
X222762D01*
X221362Y349940D01*
X220516Y349094D01*
X219075Y348971D01*
X217634Y349094D01*
X216788Y349940D01*
X215388Y350520D01*
X213872D01*
X212472Y349940D01*
X211400Y348868D01*
X210820Y347468D01*
Y345952D01*
X211400Y344552D01*
X212472Y343480D01*
X213872Y342900D01*
X215388D01*
X216788Y343480D01*
X217634Y344326D01*
X219075Y344449D01*
X220516Y344326D01*
X221362Y343480D01*
X222762Y342900D01*
X224278D01*
X225678Y343480D01*
X226750Y344552D01*
X227330Y345952D01*
Y347468D01*
X226750Y348868D01*
X225678Y349940D01*
X224278Y350520D01*
D02*
G37*
G36*
X457958Y377190D02*
X456442D01*
X455042Y376610D01*
X453970Y375538D01*
X453390Y374138D01*
Y372622D01*
X453970Y371222D01*
X454380Y370812D01*
Y355740D01*
X451050D01*
X451050Y345300D01*
X448854Y344470D01*
X447306D01*
X445110Y345300D01*
X445110Y347010D01*
Y355740D01*
X442010D01*
Y360422D01*
X442650Y361062D01*
X443230Y362462D01*
Y363978D01*
X442650Y365378D01*
X441578Y366450D01*
X440178Y367030D01*
X438662D01*
X438608Y367007D01*
X438024Y367591D01*
X437184Y368153D01*
X436193Y368350D01*
X431146D01*
X431027Y368638D01*
X429598Y370067D01*
X427730Y370840D01*
X425709D01*
X423842Y370067D01*
X422413Y368638D01*
X421640Y366771D01*
Y364749D01*
X422082Y363683D01*
X419929Y362244D01*
X417711Y364462D01*
X417830Y364749D01*
Y366771D01*
X417057Y368638D01*
X415628Y370067D01*
X413760Y370840D01*
X411740D01*
X409872Y370067D01*
X408443Y368638D01*
X407670Y366771D01*
Y364749D01*
X408443Y362882D01*
X409872Y361453D01*
X411740Y360680D01*
X413760D01*
X414048Y360799D01*
X424130Y350717D01*
Y348238D01*
X423490Y347598D01*
X422910Y346198D01*
Y344682D01*
X423490Y343282D01*
X424562Y342210D01*
X425962Y341630D01*
X426142D01*
X426206Y341601D01*
X427996Y339794D01*
X428140Y339283D01*
Y325960D01*
X428337Y324969D01*
X428899Y324129D01*
X430591Y322436D01*
X429683Y320243D01*
X427272D01*
X427217Y320378D01*
X425788Y321807D01*
X423921Y322580D01*
X421899D01*
X420032Y321807D01*
X418603Y320378D01*
X417830Y318510D01*
Y316490D01*
X418603Y314622D01*
X420032Y313193D01*
X421140Y312735D01*
Y310073D01*
X420032Y309615D01*
X418603Y308186D01*
X417830Y306318D01*
Y304298D01*
X418603Y302430D01*
X420032Y301001D01*
X421899Y300228D01*
X423921D01*
X425788Y301001D01*
X427217Y302430D01*
X427990Y304298D01*
Y305351D01*
X429921Y307282D01*
X431129D01*
X433270Y306320D01*
Y295880D01*
X445110D01*
Y298510D01*
X451050D01*
Y295880D01*
X454380D01*
Y289700D01*
X451050D01*
Y279260D01*
X449112Y277806D01*
X448911Y277671D01*
X446862Y275623D01*
X446428Y275648D01*
X444226Y276578D01*
X444170Y276820D01*
X444170Y277644D01*
Y281820D01*
X429590D01*
Y276820D01*
X430318Y275665D01*
X429173Y273125D01*
X402590D01*
X402215Y273050D01*
X401832D01*
X401479Y272904D01*
X401103Y272829D01*
X400785Y272616D01*
X400432Y272470D01*
X400161Y272199D01*
X399843Y271987D01*
X399631Y271669D01*
X399360Y271398D01*
X399214Y271045D01*
X399001Y270727D01*
X398926Y270351D01*
X398780Y269998D01*
Y269615D01*
X398705Y269240D01*
Y254000D01*
X398780Y253625D01*
Y253242D01*
X398926Y252889D01*
X399001Y252513D01*
X399214Y252195D01*
X399360Y251842D01*
X399631Y251571D01*
X399843Y251253D01*
X400161Y251041D01*
X400432Y250770D01*
X400785Y250624D01*
X401103Y250411D01*
X401479Y250336D01*
X401832Y250190D01*
X402215D01*
X402590Y250115D01*
X402965Y250190D01*
X403348D01*
X403701Y250336D01*
X404077Y250411D01*
X404395Y250624D01*
X404748Y250770D01*
X405019Y251041D01*
X405337Y251253D01*
X405549Y251571D01*
X405820Y251842D01*
X405966Y252195D01*
X406179Y252513D01*
X406254Y252889D01*
X406400Y253242D01*
Y253625D01*
X406475Y254000D01*
Y265355D01*
X430860D01*
Y263090D01*
X434290D01*
Y258880D01*
X430860D01*
X430860Y247164D01*
X429590Y245150D01*
X429590Y244326D01*
Y240150D01*
X436880D01*
X444170D01*
Y245150D01*
X442900Y247164D01*
X442900Y247690D01*
Y256680D01*
X442900Y257711D01*
X444749Y259147D01*
X445354Y258988D01*
X446830Y257917D01*
X446830Y256733D01*
Y241110D01*
X467570Y241110D01*
X468730Y239051D01*
Y233389D01*
X467570Y231330D01*
X466190Y231330D01*
X446830D01*
Y214390D01*
X467570D01*
Y214390D01*
X468730Y215520D01*
X472390D01*
Y203458D01*
X471750Y202818D01*
X471170Y201418D01*
Y199902D01*
X471750Y198502D01*
X472822Y197430D01*
X474222Y196850D01*
X475738D01*
X477138Y197430D01*
X478210Y198502D01*
X478790Y199902D01*
Y201418D01*
X478210Y202818D01*
X477570Y203458D01*
Y215520D01*
X480770D01*
Y227980D01*
X480770Y228060D01*
Y230520D01*
X480770Y230600D01*
Y243060D01*
X477340D01*
Y247500D01*
X480660D01*
Y259340D01*
X478030D01*
Y260350D01*
X477833Y261341D01*
X477271Y262181D01*
X471382Y268070D01*
X472434Y270610D01*
X489400D01*
X490391Y270807D01*
X491231Y271369D01*
X494223Y274361D01*
X496422Y274042D01*
X497032Y273716D01*
X497150Y273432D01*
X497180Y273402D01*
X497250Y273170D01*
X497055Y270574D01*
X496910Y270353D01*
X490009Y263451D01*
X489447Y262611D01*
X489250Y261620D01*
Y259340D01*
X486620D01*
Y247500D01*
X488670D01*
Y243060D01*
X485240D01*
Y230600D01*
X485240Y230520D01*
Y228060D01*
X485240Y227980D01*
Y215520D01*
X487630D01*
Y203458D01*
X486990Y202818D01*
X486410Y201418D01*
Y199902D01*
X486990Y198502D01*
X488062Y197430D01*
X489462Y196850D01*
X490978D01*
X492378Y197430D01*
X493450Y198502D01*
X494030Y199902D01*
Y201418D01*
X493450Y202818D01*
X492810Y203458D01*
Y215520D01*
X496828D01*
X498900Y214390D01*
Y214390D01*
X498900Y214390D01*
X519640D01*
Y231330D01*
X499820D01*
X498900Y231330D01*
X497280Y233199D01*
Y239241D01*
X498900Y241110D01*
X519640D01*
Y258050D01*
X511860D01*
Y262860D01*
X516230D01*
Y273300D01*
X506305D01*
X504270Y274774D01*
X504190Y275757D01*
Y276348D01*
X503963Y276897D01*
X505316Y279096D01*
X505524Y279260D01*
X506378Y279260D01*
X506378Y279260D01*
X506391Y279260D01*
X511868D01*
X512289Y278839D01*
X513129Y278277D01*
X514120Y278080D01*
X533142D01*
X533782Y277440D01*
X535182Y276860D01*
X536698D01*
X538098Y277440D01*
X539170Y278512D01*
X539750Y279912D01*
Y281428D01*
X539170Y282828D01*
X538098Y283900D01*
X536698Y284480D01*
X535182D01*
X533782Y283900D01*
X533142Y283260D01*
X516230D01*
Y289700D01*
X512900D01*
Y295880D01*
X516230D01*
Y306320D01*
X504390D01*
Y295880D01*
X507720D01*
Y289700D01*
X504390D01*
Y281378D01*
X504390Y280560D01*
X503778Y279985D01*
X501927Y279073D01*
X501138Y279400D01*
X499622D01*
X499519Y279357D01*
X496979Y280896D01*
Y292760D01*
X496706Y294133D01*
X495928Y295298D01*
X494763Y296076D01*
X493390Y296349D01*
X492017Y296076D01*
X491580Y295784D01*
X489246Y296726D01*
X489040Y296909D01*
Y298262D01*
X488843Y299253D01*
X488281Y300093D01*
X480363Y308011D01*
X479523Y308573D01*
X478532Y308770D01*
X469363D01*
X462890Y315243D01*
Y322720D01*
X459560D01*
Y328900D01*
X462890D01*
Y339290D01*
X466340D01*
X467331Y339487D01*
X468171Y340049D01*
X473001Y344879D01*
X473563Y345719D01*
X473760Y346710D01*
Y350125D01*
X473903Y350316D01*
X476603Y350181D01*
X476830Y349632D01*
X477902Y348560D01*
X479302Y347980D01*
X480207D01*
X484300Y343887D01*
Y338936D01*
X481763Y337576D01*
X480390Y337849D01*
X479017Y337576D01*
X477923Y336845D01*
X477343Y337713D01*
X476430Y338324D01*
Y327510D01*
Y316525D01*
X478710Y316431D01*
X479482Y315935D01*
X482549Y312869D01*
X483389Y312307D01*
X484380Y312110D01*
X494213D01*
X494483Y311930D01*
X494610Y311622D01*
X495682Y310550D01*
X497082Y309970D01*
X498598D01*
X499998Y310550D01*
X501070Y311622D01*
X501650Y313022D01*
X501850Y313238D01*
X504390Y312280D01*
Y312280D01*
X516230D01*
Y322720D01*
X504390D01*
Y322720D01*
X502589Y321974D01*
X496979Y327584D01*
Y334260D01*
X496706Y335633D01*
X496620Y335762D01*
Y347980D01*
X496423Y348971D01*
X495861Y349811D01*
X484431Y361241D01*
X483591Y361803D01*
X482600Y362000D01*
X474980D01*
X473989Y361803D01*
X473149Y361241D01*
X469339Y357431D01*
X468777Y356591D01*
X468580Y355600D01*
Y347783D01*
X465267Y344470D01*
X465086D01*
X462890Y345300D01*
X462890Y347010D01*
Y355740D01*
X459560D01*
Y370352D01*
X460430Y371222D01*
X461010Y372622D01*
Y374138D01*
X460430Y375538D01*
X459358Y376610D01*
X457958Y377190D01*
D02*
G37*
G36*
X264918D02*
X263402D01*
X262002Y376610D01*
X260930Y375538D01*
X260350Y374138D01*
Y372622D01*
X260930Y371222D01*
X261340Y370812D01*
Y355740D01*
X258010D01*
X258010Y345300D01*
X255814Y344470D01*
X254266D01*
X252070Y345300D01*
X252070Y347010D01*
Y355740D01*
X248970D01*
Y360422D01*
X249610Y361062D01*
X250190Y362462D01*
Y363978D01*
X249610Y365378D01*
X248538Y366450D01*
X247138Y367030D01*
X245622D01*
X245568Y367007D01*
X244984Y367591D01*
X244144Y368153D01*
X243153Y368350D01*
X238106D01*
X237987Y368638D01*
X236558Y370067D01*
X234690Y370840D01*
X232670D01*
X230802Y370067D01*
X229373Y368638D01*
X228600Y366771D01*
Y364749D01*
X229042Y363683D01*
X226889Y362244D01*
X224671Y364462D01*
X224790Y364749D01*
Y366771D01*
X224017Y368638D01*
X222588Y370067D01*
X220721Y370840D01*
X218699D01*
X216832Y370067D01*
X215403Y368638D01*
X214630Y366771D01*
Y364749D01*
X215403Y362882D01*
X216832Y361453D01*
X218699Y360680D01*
X220721D01*
X221008Y360799D01*
X231090Y350717D01*
Y348238D01*
X230450Y347598D01*
X229870Y346198D01*
Y344682D01*
X230450Y343282D01*
X231522Y342210D01*
X232922Y341630D01*
X233102D01*
X233166Y341601D01*
X234956Y339794D01*
X235100Y339283D01*
Y325960D01*
X235297Y324969D01*
X235859Y324129D01*
X237551Y322436D01*
X236642Y320243D01*
X234232D01*
X234177Y320378D01*
X232748Y321807D01*
X230881Y322580D01*
X228860D01*
X226992Y321807D01*
X225563Y320378D01*
X224790Y318510D01*
Y316490D01*
X225563Y314622D01*
X226992Y313193D01*
X228100Y312735D01*
Y310073D01*
X226992Y309615D01*
X225563Y308186D01*
X224790Y306318D01*
Y304298D01*
X225563Y302430D01*
X226992Y301001D01*
X228860Y300228D01*
X230881D01*
X232748Y301001D01*
X234177Y302430D01*
X234950Y304298D01*
Y305351D01*
X236882Y307282D01*
X238089D01*
X240230Y306320D01*
Y295880D01*
X252070D01*
Y298510D01*
X258010D01*
Y295880D01*
X261340D01*
Y289700D01*
X258010D01*
Y279260D01*
X256072Y277806D01*
X255871Y277671D01*
X253822Y275623D01*
X253388Y275648D01*
X251186Y276578D01*
X251130Y276820D01*
X251130Y277644D01*
Y281820D01*
X236550D01*
Y276820D01*
X237278Y275665D01*
X236133Y273125D01*
X207010D01*
X206635Y273050D01*
X206252D01*
X205899Y272904D01*
X205523Y272829D01*
X205205Y272616D01*
X204852Y272470D01*
X204581Y272199D01*
X204263Y271987D01*
X204051Y271669D01*
X203780Y271398D01*
X203634Y271045D01*
X203421Y270727D01*
X203346Y270351D01*
X203200Y269998D01*
Y269615D01*
X203125Y269240D01*
Y261620D01*
Y254000D01*
X203200Y253625D01*
Y253242D01*
X203346Y252889D01*
X203421Y252513D01*
X203634Y252195D01*
X203780Y251842D01*
X204051Y251571D01*
X204263Y251253D01*
X204581Y251041D01*
X204852Y250770D01*
X205205Y250624D01*
X205523Y250411D01*
X205899Y250336D01*
X206252Y250190D01*
X206635D01*
X207010Y250115D01*
X207385Y250190D01*
X207768D01*
X208121Y250336D01*
X208497Y250411D01*
X208815Y250624D01*
X209168Y250770D01*
X209439Y251041D01*
X209757Y251253D01*
X209969Y251571D01*
X210240Y251842D01*
X210386Y252195D01*
X210599Y252513D01*
X210674Y252889D01*
X210820Y253242D01*
Y253625D01*
X210895Y254000D01*
Y265355D01*
X237820D01*
Y263090D01*
X241250D01*
Y258880D01*
X237820D01*
X237820Y247164D01*
X236550Y245150D01*
X236550Y244326D01*
Y240150D01*
X243840D01*
X251130D01*
Y245150D01*
X249860Y247164D01*
X249860Y247690D01*
Y256680D01*
X249860Y257711D01*
X251709Y259147D01*
X252314Y258988D01*
X253790Y257917D01*
X253790Y256733D01*
Y241110D01*
X274530Y241110D01*
X275690Y239051D01*
Y233389D01*
X274530Y231330D01*
X273150Y231330D01*
X253790D01*
Y214390D01*
X274530D01*
Y214390D01*
X275690Y215520D01*
X279350D01*
Y203458D01*
X278710Y202818D01*
X278130Y201418D01*
Y199902D01*
X278710Y198502D01*
X279782Y197430D01*
X281182Y196850D01*
X282698D01*
X284098Y197430D01*
X285170Y198502D01*
X285750Y199902D01*
Y201418D01*
X285170Y202818D01*
X284530Y203458D01*
Y215520D01*
X287730D01*
Y227980D01*
X287730Y228060D01*
Y230520D01*
X287730Y230600D01*
Y243060D01*
X284300D01*
Y247500D01*
X287620D01*
Y259340D01*
X284990D01*
Y260350D01*
X284793Y261341D01*
X284231Y262181D01*
X278342Y268070D01*
X279394Y270610D01*
X296360D01*
X297351Y270807D01*
X298191Y271369D01*
X301183Y274361D01*
X303382Y274042D01*
X303992Y273716D01*
X304110Y273432D01*
X304140Y273402D01*
X304210Y273170D01*
X304015Y270574D01*
X303870Y270353D01*
X296969Y263451D01*
X296407Y262611D01*
X296210Y261620D01*
Y259340D01*
X293580D01*
Y247500D01*
X295630D01*
Y243060D01*
X292200D01*
Y230600D01*
X292200Y230520D01*
Y228060D01*
X292200Y227980D01*
Y215520D01*
X294590D01*
Y203458D01*
X293950Y202818D01*
X293370Y201418D01*
Y199902D01*
X293950Y198502D01*
X295022Y197430D01*
X296422Y196850D01*
X297938D01*
X299338Y197430D01*
X300410Y198502D01*
X300990Y199902D01*
Y201418D01*
X300410Y202818D01*
X299770Y203458D01*
Y215520D01*
X303788D01*
X305860Y214390D01*
Y214390D01*
X305860Y214390D01*
X326600D01*
Y231330D01*
X306780D01*
X305860Y231330D01*
X304240Y233199D01*
Y239241D01*
X305860Y241110D01*
X326600D01*
Y258050D01*
X318820D01*
Y262860D01*
X323190D01*
Y273300D01*
X313265D01*
X311230Y274774D01*
X311150Y275757D01*
Y276348D01*
X310923Y276897D01*
X312276Y279096D01*
X312484Y279260D01*
X313338Y279260D01*
X313338Y279260D01*
X313351Y279260D01*
X318828D01*
X319249Y278839D01*
X320089Y278277D01*
X321080Y278080D01*
X340102D01*
X340742Y277440D01*
X342142Y276860D01*
X343658D01*
X345058Y277440D01*
X346130Y278512D01*
X346710Y279912D01*
Y281428D01*
X346130Y282828D01*
X345058Y283900D01*
X343658Y284480D01*
X342142D01*
X340742Y283900D01*
X340102Y283260D01*
X323190D01*
Y289700D01*
X319860D01*
Y295880D01*
X323190D01*
Y306320D01*
X311350D01*
Y295880D01*
X314680D01*
Y289700D01*
X311350D01*
Y281378D01*
X311350Y280560D01*
X310738Y279985D01*
X308888Y279073D01*
X308098Y279400D01*
X306582D01*
X306479Y279357D01*
X303939Y280896D01*
Y292760D01*
X303666Y294133D01*
X302888Y295298D01*
X301723Y296076D01*
X300350Y296349D01*
X298977Y296076D01*
X298540Y295784D01*
X296206Y296726D01*
X296000Y296909D01*
Y298262D01*
X295803Y299253D01*
X295241Y300093D01*
X287323Y308011D01*
X286483Y308573D01*
X285492Y308770D01*
X276323D01*
X269850Y315243D01*
Y322720D01*
X266520D01*
Y328900D01*
X269850D01*
Y339290D01*
X273300D01*
X274291Y339487D01*
X275131Y340049D01*
X279961Y344879D01*
X280523Y345719D01*
X280720Y346710D01*
Y350125D01*
X280863Y350316D01*
X283563Y350181D01*
X283790Y349632D01*
X284862Y348560D01*
X286262Y347980D01*
X287167D01*
X291260Y343887D01*
Y338936D01*
X288723Y337576D01*
X287350Y337849D01*
X285977Y337576D01*
X284883Y336845D01*
X284303Y337713D01*
X283390Y338324D01*
Y327510D01*
Y316525D01*
X285670Y316431D01*
X286442Y315935D01*
X289509Y312869D01*
X290349Y312307D01*
X291340Y312110D01*
X301173D01*
X301443Y311930D01*
X301570Y311622D01*
X302642Y310550D01*
X304042Y309970D01*
X305558D01*
X306958Y310550D01*
X308030Y311622D01*
X308610Y313022D01*
X308810Y313238D01*
X311350Y312280D01*
Y312280D01*
X323190D01*
Y322720D01*
X311350D01*
Y322720D01*
X309549Y321974D01*
X303939Y327584D01*
Y334260D01*
X303666Y335633D01*
X303580Y335762D01*
Y347980D01*
X303383Y348971D01*
X302821Y349811D01*
X291391Y361241D01*
X290551Y361803D01*
X289560Y362000D01*
X281940D01*
X280949Y361803D01*
X280109Y361241D01*
X276299Y357431D01*
X275737Y356591D01*
X275540Y355600D01*
Y347783D01*
X272227Y344470D01*
X272046D01*
X269850Y345300D01*
X269850Y347010D01*
Y355740D01*
X266520D01*
Y370352D01*
X267390Y371222D01*
X267970Y372622D01*
Y374138D01*
X267390Y375538D01*
X266318Y376610D01*
X264918Y377190D01*
D02*
G37*
G36*
X471350Y338324D02*
X470437Y337713D01*
X469378Y336129D01*
X469006Y334260D01*
Y330050D01*
X471350D01*
Y338324D01*
D02*
G37*
G36*
X278310D02*
X277397Y337713D01*
X276338Y336129D01*
X275966Y334260D01*
Y330050D01*
X278310D01*
Y338324D01*
D02*
G37*
G36*
X85270D02*
X84357Y337713D01*
X83298Y336129D01*
X82926Y334260D01*
Y330050D01*
X85270D01*
Y338324D01*
D02*
G37*
G36*
X365248Y321310D02*
X363732D01*
X362332Y320730D01*
X360680Y319937D01*
X359028Y320730D01*
X357628Y321310D01*
X356112D01*
X354712Y320730D01*
X353640Y319658D01*
X353060Y318258D01*
Y316742D01*
X353640Y315342D01*
X354712Y314270D01*
X356112Y313690D01*
X357628D01*
X359028Y314270D01*
X360680Y315063D01*
X362332Y314270D01*
X363732Y313690D01*
X365248D01*
X366648Y314270D01*
X367720Y315342D01*
X368300Y316742D01*
Y318258D01*
X367720Y319658D01*
X366648Y320730D01*
X365248Y321310D01*
D02*
G37*
G36*
X471350Y324970D02*
X469006D01*
Y320760D01*
X469378Y318891D01*
X470437Y317307D01*
X471350Y316696D01*
Y324970D01*
D02*
G37*
G36*
X278310D02*
X275966D01*
Y320760D01*
X276338Y318891D01*
X277397Y317307D01*
X278310Y316696D01*
Y324970D01*
D02*
G37*
G36*
X85270D02*
X82926D01*
Y320760D01*
X83298Y318891D01*
X84357Y317307D01*
X85270Y316696D01*
Y324970D01*
D02*
G37*
G36*
X563368Y321310D02*
X561852D01*
X560452Y320730D01*
X559380Y319658D01*
X558800Y318258D01*
Y316742D01*
X559380Y315342D01*
X560173Y313690D01*
X559380Y312038D01*
X558800Y310638D01*
Y309122D01*
X559380Y307722D01*
X560452Y306650D01*
X561852Y306070D01*
X563368D01*
X564768Y306650D01*
X565840Y307722D01*
X566420Y309122D01*
Y310638D01*
X565840Y312038D01*
X565047Y313690D01*
X565840Y315342D01*
X566420Y316742D01*
Y318258D01*
X565840Y319658D01*
X564768Y320730D01*
X563368Y321310D01*
D02*
G37*
G36*
X170938D02*
X169422D01*
X168022Y320730D01*
X166950Y319658D01*
X166370Y318258D01*
Y316742D01*
X166950Y315342D01*
X167743Y313690D01*
X166950Y312038D01*
X166370Y310638D01*
Y309122D01*
X166950Y307722D01*
X168022Y306650D01*
X169422Y306070D01*
X170938D01*
X172338Y306650D01*
X173410Y307722D01*
X173990Y309122D01*
Y310638D01*
X173410Y312038D01*
X172617Y313690D01*
X173410Y315342D01*
X173990Y316742D01*
Y318258D01*
X173410Y319658D01*
X172338Y320730D01*
X170938Y321310D01*
D02*
G37*
G36*
X444170Y291900D02*
X439420D01*
Y286900D01*
X444170D01*
Y291900D01*
D02*
G37*
G36*
X434340D02*
X429590D01*
Y286900D01*
X434340D01*
Y291900D01*
D02*
G37*
G36*
X251130D02*
X246380D01*
Y286900D01*
X251130D01*
Y291900D01*
D02*
G37*
G36*
X241300D02*
X236550D01*
Y286900D01*
X241300D01*
Y291900D01*
D02*
G37*
G36*
X58090D02*
X53340D01*
Y286900D01*
X58090D01*
Y291900D01*
D02*
G37*
G36*
X48260D02*
X43510D01*
Y286900D01*
X48260D01*
Y291900D01*
D02*
G37*
G36*
X530348Y246380D02*
X528832D01*
X527432Y245800D01*
X526360Y244728D01*
X525780Y243328D01*
Y241812D01*
X526360Y240412D01*
X527432Y239340D01*
X528832Y238760D01*
X530348D01*
X531748Y239340D01*
X532820Y240412D01*
X533400Y241812D01*
Y243328D01*
X532820Y244728D01*
X531748Y245800D01*
X530348Y246380D01*
D02*
G37*
G36*
X337308D02*
X335792D01*
X334392Y245800D01*
X333320Y244728D01*
X332740Y243328D01*
Y241812D01*
X333320Y240412D01*
X334392Y239340D01*
X335792Y238760D01*
X337308D01*
X338708Y239340D01*
X339780Y240412D01*
X340360Y241812D01*
Y243328D01*
X339780Y244728D01*
X338708Y245800D01*
X337308Y246380D01*
D02*
G37*
G36*
X144268D02*
X142752D01*
X141352Y245800D01*
X140280Y244728D01*
X139700Y243328D01*
Y241812D01*
X140280Y240412D01*
X141352Y239340D01*
X142752Y238760D01*
X144268D01*
X145668Y239340D01*
X146740Y240412D01*
X147320Y241812D01*
Y243328D01*
X146740Y244728D01*
X145668Y245800D01*
X144268Y246380D01*
D02*
G37*
G36*
X444170Y235070D02*
X439420D01*
Y230070D01*
X444170D01*
Y235070D01*
D02*
G37*
G36*
X434340D02*
X429590D01*
Y230070D01*
X434340D01*
Y235070D01*
D02*
G37*
G36*
X251130D02*
X246380D01*
Y230070D01*
X251130D01*
Y235070D01*
D02*
G37*
G36*
X241300D02*
X236550D01*
Y230070D01*
X241300D01*
Y235070D01*
D02*
G37*
G36*
X58090D02*
X53340D01*
Y230070D01*
X58090D01*
Y235070D01*
D02*
G37*
G36*
X48260D02*
X43510D01*
Y230070D01*
X48260D01*
Y235070D01*
D02*
G37*
G36*
X220468Y199390D02*
X218952D01*
X217552Y198810D01*
X216480Y197738D01*
X215900Y196338D01*
Y194822D01*
X216480Y193422D01*
X217552Y192350D01*
X218952Y191770D01*
X220468D01*
X221868Y192350D01*
X222940Y193422D01*
X223520Y194822D01*
Y196338D01*
X222940Y197738D01*
X221868Y198810D01*
X220468Y199390D01*
D02*
G37*
G36*
X383938Y157099D02*
X381364D01*
X378876Y156433D01*
X376647Y155145D01*
X374826Y153324D01*
X373538Y151095D01*
X372872Y148607D01*
Y146033D01*
X373538Y143546D01*
X374826Y141316D01*
X376647Y139495D01*
X378876Y138207D01*
X381364Y137541D01*
X383938D01*
X386426Y138207D01*
X388655Y139495D01*
X390476Y141316D01*
X391764Y143546D01*
X392430Y146033D01*
Y148607D01*
X391764Y151095D01*
X390476Y153324D01*
X388655Y155145D01*
X386426Y156433D01*
X383938Y157099D01*
D02*
G37*
G36*
X356252D02*
X353678D01*
X351190Y156433D01*
X348961Y155145D01*
X347140Y153324D01*
X345852Y151095D01*
X345186Y148607D01*
Y146033D01*
X345852Y143546D01*
X347140Y141316D01*
X348961Y139495D01*
X351190Y138207D01*
X353678Y137541D01*
X356252D01*
X358740Y138207D01*
X360969Y139495D01*
X362790Y141316D01*
X364078Y143546D01*
X364744Y146033D01*
Y148607D01*
X364078Y151095D01*
X362790Y153324D01*
X360969Y155145D01*
X358740Y156433D01*
X356252Y157099D01*
D02*
G37*
G36*
X328566D02*
X325992D01*
X323504Y156433D01*
X321275Y155145D01*
X319454Y153324D01*
X318166Y151095D01*
X317500Y148607D01*
Y146033D01*
X318166Y143546D01*
X319454Y141316D01*
X321275Y139495D01*
X323504Y138207D01*
X325992Y137541D01*
X328566D01*
X331054Y138207D01*
X333283Y139495D01*
X335104Y141316D01*
X336392Y143546D01*
X337058Y146033D01*
Y148607D01*
X336392Y151095D01*
X335104Y153324D01*
X333283Y155145D01*
X331054Y156433D01*
X328566Y157099D01*
D02*
G37*
G36*
X300880D02*
X298306D01*
X295819Y156433D01*
X293589Y155145D01*
X291768Y153324D01*
X290480Y151095D01*
X289814Y148607D01*
Y146033D01*
X290480Y143546D01*
X291768Y141316D01*
X293589Y139495D01*
X295819Y138207D01*
X298306Y137541D01*
X300880D01*
X303368Y138207D01*
X305597Y139495D01*
X307418Y141316D01*
X308706Y143546D01*
X309372Y146033D01*
Y148607D01*
X308706Y151095D01*
X307418Y153324D01*
X305597Y155145D01*
X303368Y156433D01*
X300880Y157099D01*
D02*
G37*
G36*
X273194D02*
X270620D01*
X268132Y156433D01*
X265903Y155145D01*
X264082Y153324D01*
X262794Y151095D01*
X262128Y148607D01*
Y146033D01*
X262794Y143546D01*
X264082Y141316D01*
X265903Y139495D01*
X268132Y138207D01*
X270620Y137541D01*
X273194D01*
X275681Y138207D01*
X277911Y139495D01*
X279732Y141316D01*
X281020Y143546D01*
X281686Y146033D01*
Y148607D01*
X281020Y151095D01*
X279732Y153324D01*
X277911Y155145D01*
X275681Y156433D01*
X273194Y157099D01*
D02*
G37*
G36*
X245508D02*
X242934D01*
X240446Y156433D01*
X238217Y155145D01*
X236396Y153324D01*
X235108Y151095D01*
X234442Y148607D01*
Y146033D01*
X235108Y143546D01*
X236396Y141316D01*
X238217Y139495D01*
X240446Y138207D01*
X242934Y137541D01*
X245508D01*
X247995Y138207D01*
X250225Y139495D01*
X252046Y141316D01*
X253334Y143546D01*
X254000Y146033D01*
Y148607D01*
X253334Y151095D01*
X252046Y153324D01*
X250225Y155145D01*
X247995Y156433D01*
X245508Y157099D01*
D02*
G37*
G36*
X217822D02*
X215248D01*
X212761Y156433D01*
X210531Y155145D01*
X208710Y153324D01*
X207422Y151095D01*
X206756Y148607D01*
Y146033D01*
X207422Y143546D01*
X208710Y141316D01*
X210531Y139495D01*
X212761Y138207D01*
X215248Y137541D01*
X217822D01*
X220310Y138207D01*
X222539Y139495D01*
X224360Y141316D01*
X225648Y143546D01*
X226314Y146033D01*
Y148607D01*
X225648Y151095D01*
X224360Y153324D01*
X222539Y155145D01*
X220310Y156433D01*
X217822Y157099D01*
D02*
G37*
G36*
X190136D02*
X187562D01*
X185075Y156433D01*
X182845Y155145D01*
X181024Y153324D01*
X179736Y151095D01*
X179070Y148607D01*
Y146033D01*
X179736Y143546D01*
X181024Y141316D01*
X182845Y139495D01*
X185075Y138207D01*
X187562Y137541D01*
X190136D01*
X192624Y138207D01*
X194853Y139495D01*
X196674Y141316D01*
X197962Y143546D01*
X198628Y146033D01*
Y148607D01*
X197962Y151095D01*
X196674Y153324D01*
X194853Y155145D01*
X192624Y156433D01*
X190136Y157099D01*
D02*
G37*
G36*
X231833Y129921D02*
X231648D01*
Y120142D01*
X241427D01*
Y120327D01*
X240674Y123137D01*
X239219Y125656D01*
X237162Y127713D01*
X234643Y129168D01*
X231833Y129921D01*
D02*
G37*
G36*
X229108D02*
X228923D01*
X226113Y129168D01*
X223594Y127713D01*
X221537Y125656D01*
X220082Y123137D01*
X219329Y120327D01*
Y120142D01*
X229108D01*
Y129921D01*
D02*
G37*
G36*
X454375Y151638D02*
X450373D01*
X446447Y150857D01*
X442749Y149325D01*
X439421Y147102D01*
X436590Y144271D01*
X434367Y140943D01*
X432835Y137245D01*
X432054Y133319D01*
Y129317D01*
X432835Y125391D01*
X434367Y121693D01*
X436590Y118365D01*
X439421Y115534D01*
X442749Y113311D01*
X446447Y111779D01*
X450373Y110998D01*
X454375D01*
X458301Y111779D01*
X461999Y113311D01*
X465327Y115534D01*
X468158Y118365D01*
X470381Y121693D01*
X471913Y125391D01*
X472694Y129317D01*
Y133319D01*
X471913Y137245D01*
X470381Y140943D01*
X468158Y144271D01*
X465327Y147102D01*
X461999Y149325D01*
X458301Y150857D01*
X454375Y151638D01*
D02*
G37*
G36*
X121127D02*
X117125D01*
X113199Y150857D01*
X109501Y149325D01*
X106173Y147102D01*
X103342Y144271D01*
X101119Y140943D01*
X99587Y137245D01*
X98806Y133319D01*
Y129317D01*
X99587Y125391D01*
X101119Y121693D01*
X103342Y118365D01*
X106173Y115534D01*
X109501Y113311D01*
X113199Y111779D01*
X117125Y110998D01*
X121127D01*
X125053Y111779D01*
X128751Y113311D01*
X132079Y115534D01*
X134910Y118365D01*
X137133Y121693D01*
X138665Y125391D01*
X139446Y129317D01*
Y133319D01*
X138665Y137245D01*
X137133Y140943D01*
X134910Y144271D01*
X132079Y147102D01*
X128751Y149325D01*
X125053Y150857D01*
X121127Y151638D01*
D02*
G37*
G36*
X370095Y128651D02*
X367521D01*
X365033Y127985D01*
X362804Y126697D01*
X360983Y124876D01*
X359695Y122647D01*
X359029Y120159D01*
Y117585D01*
X359695Y115098D01*
X360983Y112868D01*
X362804Y111047D01*
X365033Y109759D01*
X367521Y109093D01*
X370095D01*
X372583Y109759D01*
X374812Y111047D01*
X376633Y112868D01*
X377921Y115098D01*
X378587Y117585D01*
Y120159D01*
X377921Y122647D01*
X376633Y124876D01*
X374812Y126697D01*
X372583Y127985D01*
X370095Y128651D01*
D02*
G37*
G36*
X342409D02*
X339835D01*
X337347Y127985D01*
X335118Y126697D01*
X333297Y124876D01*
X332009Y122647D01*
X331343Y120159D01*
Y117585D01*
X332009Y115098D01*
X333297Y112868D01*
X335118Y111047D01*
X337347Y109759D01*
X339835Y109093D01*
X342409D01*
X344897Y109759D01*
X347126Y111047D01*
X348947Y112868D01*
X350235Y115098D01*
X350901Y117585D01*
Y120159D01*
X350235Y122647D01*
X348947Y124876D01*
X347126Y126697D01*
X344897Y127985D01*
X342409Y128651D01*
D02*
G37*
G36*
X314723D02*
X312149D01*
X309662Y127985D01*
X307432Y126697D01*
X305611Y124876D01*
X304323Y122647D01*
X303657Y120159D01*
Y117585D01*
X304323Y115098D01*
X305611Y112868D01*
X307432Y111047D01*
X309662Y109759D01*
X312149Y109093D01*
X314723D01*
X317211Y109759D01*
X319440Y111047D01*
X321261Y112868D01*
X322549Y115098D01*
X323215Y117585D01*
Y120159D01*
X322549Y122647D01*
X321261Y124876D01*
X319440Y126697D01*
X317211Y127985D01*
X314723Y128651D01*
D02*
G37*
G36*
X287037D02*
X284463D01*
X281975Y127985D01*
X279746Y126697D01*
X277925Y124876D01*
X276637Y122647D01*
X275971Y120159D01*
Y117585D01*
X276637Y115098D01*
X277925Y112868D01*
X279746Y111047D01*
X281975Y109759D01*
X284463Y109093D01*
X287037D01*
X289524Y109759D01*
X291754Y111047D01*
X293575Y112868D01*
X294863Y115098D01*
X295529Y117585D01*
Y120159D01*
X294863Y122647D01*
X293575Y124876D01*
X291754Y126697D01*
X289524Y127985D01*
X287037Y128651D01*
D02*
G37*
G36*
X259351D02*
X256777D01*
X254289Y127985D01*
X252060Y126697D01*
X250239Y124876D01*
X248951Y122647D01*
X248285Y120159D01*
Y117585D01*
X248951Y115098D01*
X250239Y112868D01*
X252060Y111047D01*
X254289Y109759D01*
X256777Y109093D01*
X259351D01*
X261838Y109759D01*
X264068Y111047D01*
X265889Y112868D01*
X267177Y115098D01*
X267843Y117585D01*
Y120159D01*
X267177Y122647D01*
X265889Y124876D01*
X264068Y126697D01*
X261838Y127985D01*
X259351Y128651D01*
D02*
G37*
G36*
X203979D02*
X201405D01*
X198918Y127985D01*
X196688Y126697D01*
X194867Y124876D01*
X193579Y122647D01*
X192913Y120159D01*
Y117585D01*
X193579Y115098D01*
X194867Y112868D01*
X196688Y111047D01*
X198918Y109759D01*
X201405Y109093D01*
X203979D01*
X206467Y109759D01*
X208696Y111047D01*
X210517Y112868D01*
X211805Y115098D01*
X212471Y117585D01*
Y120159D01*
X211805Y122647D01*
X210517Y124876D01*
X208696Y126697D01*
X206467Y127985D01*
X203979Y128651D01*
D02*
G37*
G36*
X241427Y117602D02*
X231648D01*
Y107823D01*
X231833D01*
X234643Y108576D01*
X237162Y110031D01*
X239219Y112088D01*
X240674Y114607D01*
X241427Y117417D01*
Y117602D01*
D02*
G37*
G36*
X229108D02*
X219329D01*
Y117417D01*
X220082Y114607D01*
X221537Y112088D01*
X223594Y110031D01*
X226113Y108576D01*
X228923Y107823D01*
X229108D01*
Y117602D01*
D02*
G37*
G36*
X383938Y89535D02*
X381364D01*
X378876Y88869D01*
X376647Y87581D01*
X374826Y85760D01*
X373538Y83531D01*
X372872Y81043D01*
Y78469D01*
X373538Y75981D01*
X374826Y73752D01*
X376647Y71931D01*
X378876Y70643D01*
X381364Y69977D01*
X383938D01*
X386426Y70643D01*
X388655Y71931D01*
X390476Y73752D01*
X391764Y75981D01*
X392430Y78469D01*
Y81043D01*
X391764Y83531D01*
X390476Y85760D01*
X388655Y87581D01*
X386426Y88869D01*
X383938Y89535D01*
D02*
G37*
G36*
X356252D02*
X353678D01*
X351190Y88869D01*
X348961Y87581D01*
X347140Y85760D01*
X345852Y83531D01*
X345186Y81043D01*
Y78469D01*
X345852Y75981D01*
X347140Y73752D01*
X348961Y71931D01*
X351190Y70643D01*
X353678Y69977D01*
X356252D01*
X358740Y70643D01*
X360969Y71931D01*
X362790Y73752D01*
X364078Y75981D01*
X364744Y78469D01*
Y81043D01*
X364078Y83531D01*
X362790Y85760D01*
X360969Y87581D01*
X358740Y88869D01*
X356252Y89535D01*
D02*
G37*
G36*
X328566D02*
X325992D01*
X323504Y88869D01*
X321275Y87581D01*
X319454Y85760D01*
X318166Y83531D01*
X317500Y81043D01*
Y78469D01*
X318166Y75981D01*
X319454Y73752D01*
X321275Y71931D01*
X323504Y70643D01*
X325992Y69977D01*
X328566D01*
X331054Y70643D01*
X333283Y71931D01*
X335104Y73752D01*
X336392Y75981D01*
X337058Y78469D01*
Y81043D01*
X336392Y83531D01*
X335104Y85760D01*
X333283Y87581D01*
X331054Y88869D01*
X328566Y89535D01*
D02*
G37*
G36*
X300880D02*
X298306D01*
X295819Y88869D01*
X293589Y87581D01*
X291768Y85760D01*
X290480Y83531D01*
X289814Y81043D01*
Y78469D01*
X290480Y75981D01*
X291768Y73752D01*
X293589Y71931D01*
X295819Y70643D01*
X298306Y69977D01*
X300880D01*
X303368Y70643D01*
X305597Y71931D01*
X307418Y73752D01*
X308706Y75981D01*
X309372Y78469D01*
Y81043D01*
X308706Y83531D01*
X307418Y85760D01*
X305597Y87581D01*
X303368Y88869D01*
X300880Y89535D01*
D02*
G37*
G36*
X273194D02*
X270620D01*
X268132Y88869D01*
X265903Y87581D01*
X264082Y85760D01*
X262794Y83531D01*
X262128Y81043D01*
Y78469D01*
X262794Y75981D01*
X264082Y73752D01*
X265903Y71931D01*
X268132Y70643D01*
X270620Y69977D01*
X273194D01*
X275681Y70643D01*
X277911Y71931D01*
X279732Y73752D01*
X281020Y75981D01*
X281686Y78469D01*
Y81043D01*
X281020Y83531D01*
X279732Y85760D01*
X277911Y87581D01*
X275681Y88869D01*
X273194Y89535D01*
D02*
G37*
G36*
X245508D02*
X242934D01*
X240446Y88869D01*
X238217Y87581D01*
X236396Y85760D01*
X235108Y83531D01*
X234442Y81043D01*
Y78469D01*
X235108Y75981D01*
X236396Y73752D01*
X238217Y71931D01*
X240446Y70643D01*
X242934Y69977D01*
X245508D01*
X247995Y70643D01*
X250225Y71931D01*
X252046Y73752D01*
X253334Y75981D01*
X254000Y78469D01*
Y81043D01*
X253334Y83531D01*
X252046Y85760D01*
X250225Y87581D01*
X247995Y88869D01*
X245508Y89535D01*
D02*
G37*
G36*
X203958Y92710D02*
X202442D01*
X201042Y92130D01*
X199970Y91058D01*
X199390Y89658D01*
Y88142D01*
X199970Y86742D01*
X201042Y85670D01*
X202442Y85090D01*
X203958D01*
X204656Y85379D01*
X207011Y84702D01*
X207498Y83662D01*
X207422Y83531D01*
X206756Y81043D01*
Y78469D01*
X207422Y75981D01*
X208710Y73752D01*
X210531Y71931D01*
X212761Y70643D01*
X215248Y69977D01*
X217822D01*
X220310Y70643D01*
X222539Y71931D01*
X224360Y73752D01*
X225648Y75981D01*
X226314Y78469D01*
Y81043D01*
X225648Y83531D01*
X224360Y85760D01*
X222539Y87581D01*
X220310Y88869D01*
X217822Y89535D01*
X215248D01*
X212761Y88869D01*
X210531Y87581D01*
X210118Y87169D01*
X207156Y87799D01*
X207020Y88118D01*
X207010Y88550D01*
X207010Y88142D01*
X207010Y88142D01*
X207010Y89658D01*
X206430Y91058D01*
X205358Y92130D01*
X203958Y92710D01*
D02*
G37*
G36*
X190136Y89535D02*
X187562D01*
X185075Y88869D01*
X182845Y87581D01*
X181024Y85760D01*
X179736Y83531D01*
X179070Y81043D01*
Y78469D01*
X179736Y75981D01*
X181024Y73752D01*
X182845Y71931D01*
X185075Y70643D01*
X187562Y69977D01*
X190136D01*
X192624Y70643D01*
X194853Y71931D01*
X196674Y73752D01*
X197962Y75981D01*
X198628Y78469D01*
Y81043D01*
X197962Y83531D01*
X196674Y85760D01*
X194853Y87581D01*
X192624Y88869D01*
X190136Y89535D01*
D02*
G37*
G36*
X231833Y62357D02*
X231648D01*
Y52578D01*
X241427D01*
Y52763D01*
X240674Y55573D01*
X239219Y58092D01*
X237162Y60149D01*
X234643Y61604D01*
X231833Y62357D01*
D02*
G37*
G36*
X229108D02*
X228923D01*
X226113Y61604D01*
X223594Y60149D01*
X221537Y58092D01*
X220082Y55573D01*
X219329Y52763D01*
Y52578D01*
X229108D01*
Y62357D01*
D02*
G37*
G36*
X370095Y61087D02*
X367521D01*
X365033Y60421D01*
X362804Y59133D01*
X360983Y57312D01*
X359695Y55083D01*
X359029Y52595D01*
Y50021D01*
X359695Y47533D01*
X360983Y45304D01*
X362804Y43483D01*
X365033Y42195D01*
X367521Y41529D01*
X370095D01*
X372583Y42195D01*
X374812Y43483D01*
X376633Y45304D01*
X377921Y47533D01*
X378587Y50021D01*
Y52595D01*
X377921Y55083D01*
X376633Y57312D01*
X374812Y59133D01*
X372583Y60421D01*
X370095Y61087D01*
D02*
G37*
G36*
X342409D02*
X339835D01*
X337347Y60421D01*
X335118Y59133D01*
X333297Y57312D01*
X332009Y55083D01*
X331343Y52595D01*
Y50021D01*
X332009Y47533D01*
X333297Y45304D01*
X335118Y43483D01*
X337347Y42195D01*
X339835Y41529D01*
X342409D01*
X344897Y42195D01*
X347126Y43483D01*
X348947Y45304D01*
X350235Y47533D01*
X350901Y50021D01*
Y52595D01*
X350235Y55083D01*
X348947Y57312D01*
X347126Y59133D01*
X344897Y60421D01*
X342409Y61087D01*
D02*
G37*
G36*
X314723D02*
X312149D01*
X309662Y60421D01*
X307432Y59133D01*
X305611Y57312D01*
X304323Y55083D01*
X303657Y52595D01*
Y50021D01*
X304323Y47533D01*
X305611Y45304D01*
X307432Y43483D01*
X309662Y42195D01*
X312149Y41529D01*
X314723D01*
X317211Y42195D01*
X319440Y43483D01*
X321261Y45304D01*
X322549Y47533D01*
X323215Y50021D01*
Y52595D01*
X322549Y55083D01*
X321261Y57312D01*
X319440Y59133D01*
X317211Y60421D01*
X314723Y61087D01*
D02*
G37*
G36*
X287037D02*
X284463D01*
X281975Y60421D01*
X279746Y59133D01*
X277925Y57312D01*
X276637Y55083D01*
X275971Y52595D01*
Y50021D01*
X276637Y47533D01*
X277925Y45304D01*
X279746Y43483D01*
X281975Y42195D01*
X284463Y41529D01*
X287037D01*
X289524Y42195D01*
X291754Y43483D01*
X293575Y45304D01*
X294863Y47533D01*
X295529Y50021D01*
Y52595D01*
X294863Y55083D01*
X293575Y57312D01*
X291754Y59133D01*
X289524Y60421D01*
X287037Y61087D01*
D02*
G37*
G36*
X259351D02*
X256777D01*
X254289Y60421D01*
X252060Y59133D01*
X250239Y57312D01*
X248951Y55083D01*
X248285Y52595D01*
Y50021D01*
X248951Y47533D01*
X250239Y45304D01*
X252060Y43483D01*
X254289Y42195D01*
X256777Y41529D01*
X259351D01*
X261838Y42195D01*
X264068Y43483D01*
X265889Y45304D01*
X267177Y47533D01*
X267843Y50021D01*
Y52595D01*
X267177Y55083D01*
X265889Y57312D01*
X264068Y59133D01*
X261838Y60421D01*
X259351Y61087D01*
D02*
G37*
G36*
X203979D02*
X201405D01*
X198918Y60421D01*
X196688Y59133D01*
X194867Y57312D01*
X193579Y55083D01*
X192913Y52595D01*
Y50021D01*
X193579Y47533D01*
X194867Y45304D01*
X196688Y43483D01*
X198918Y42195D01*
X201405Y41529D01*
X203979D01*
X206467Y42195D01*
X208696Y43483D01*
X210517Y45304D01*
X211805Y47533D01*
X212471Y50021D01*
Y52595D01*
X211805Y55083D01*
X210517Y57312D01*
X208696Y59133D01*
X206467Y60421D01*
X203979Y61087D01*
D02*
G37*
G36*
X241427Y50038D02*
X231648D01*
Y40259D01*
X231833D01*
X234643Y41012D01*
X237162Y42467D01*
X239219Y44524D01*
X240674Y47043D01*
X241427Y49853D01*
Y50038D01*
D02*
G37*
G36*
X229108D02*
X219329D01*
Y49853D01*
X220082Y47043D01*
X221537Y44524D01*
X223594Y42467D01*
X226113Y41012D01*
X228923Y40259D01*
X229108D01*
Y50038D01*
D02*
G37*
G36*
X454375Y71628D02*
X450373D01*
X446447Y70847D01*
X442749Y69315D01*
X439421Y67092D01*
X436590Y64261D01*
X434367Y60933D01*
X432835Y57235D01*
X432054Y53309D01*
Y49307D01*
X432835Y45381D01*
X434367Y41683D01*
X436590Y38355D01*
X439421Y35524D01*
X442749Y33301D01*
X446447Y31769D01*
X450373Y30988D01*
X454375D01*
X458301Y31769D01*
X461999Y33301D01*
X465327Y35524D01*
X468158Y38355D01*
X470381Y41683D01*
X471913Y45381D01*
X472694Y49307D01*
Y53309D01*
X471913Y57235D01*
X470381Y60933D01*
X468158Y64261D01*
X465327Y67092D01*
X461999Y69315D01*
X458301Y70847D01*
X454375Y71628D01*
D02*
G37*
G36*
X121127D02*
X117125D01*
X113199Y70847D01*
X109501Y69315D01*
X106173Y67092D01*
X103342Y64261D01*
X101119Y60933D01*
X99587Y57235D01*
X98806Y53309D01*
Y49307D01*
X99587Y45381D01*
X101119Y41683D01*
X103342Y38355D01*
X106173Y35524D01*
X109501Y33301D01*
X113199Y31769D01*
X117125Y30988D01*
X121127D01*
X125053Y31769D01*
X128751Y33301D01*
X132079Y35524D01*
X134910Y38355D01*
X137133Y41683D01*
X138665Y45381D01*
X139446Y49307D01*
Y53309D01*
X138665Y57235D01*
X137133Y60933D01*
X134910Y64261D01*
X132079Y67092D01*
X128751Y69315D01*
X125053Y70847D01*
X121127Y71628D01*
D02*
G37*
G36*
X529649Y96520D02*
X524451D01*
X519318Y95707D01*
X514375Y94101D01*
X509744Y91741D01*
X505539Y88686D01*
X501864Y85011D01*
X498809Y80806D01*
X496449Y76175D01*
X494843Y71232D01*
X494030Y66099D01*
Y60901D01*
X494843Y55768D01*
X496449Y50825D01*
X498809Y46194D01*
X501864Y41989D01*
X505539Y38314D01*
X509744Y35259D01*
X514375Y32899D01*
X519318Y31293D01*
X524451Y30480D01*
X529649D01*
X534782Y31293D01*
X539725Y32899D01*
X544356Y35259D01*
X548561Y38314D01*
X552236Y41989D01*
X555291Y46194D01*
X557651Y50825D01*
X559257Y55768D01*
X560070Y60901D01*
Y66099D01*
X559257Y71232D01*
X557651Y76175D01*
X555291Y80806D01*
X552236Y85011D01*
X548561Y88686D01*
X544356Y91741D01*
X539725Y94101D01*
X534782Y95707D01*
X529649Y96520D01*
D02*
G37*
G36*
X47049D02*
X41851D01*
X36718Y95707D01*
X31775Y94101D01*
X27144Y91741D01*
X22939Y88686D01*
X19264Y85011D01*
X16209Y80806D01*
X13849Y76175D01*
X12243Y71232D01*
X11430Y66099D01*
Y60901D01*
X12243Y55768D01*
X13849Y50825D01*
X16209Y46194D01*
X19264Y41989D01*
X22939Y38314D01*
X27144Y35259D01*
X31775Y32899D01*
X36718Y31293D01*
X41851Y30480D01*
X47049D01*
X52182Y31293D01*
X57125Y32899D01*
X61756Y35259D01*
X65961Y38314D01*
X69636Y41989D01*
X72691Y46194D01*
X75051Y50825D01*
X76657Y55768D01*
X77470Y60901D01*
Y66099D01*
X76657Y71232D01*
X75051Y76175D01*
X72691Y80806D01*
X69636Y85011D01*
X65961Y88686D01*
X61756Y91741D01*
X57125Y94101D01*
X52182Y95707D01*
X47049Y96520D01*
D02*
G37*
G36*
X279868Y38825D02*
X278352D01*
X276952Y38245D01*
X275880Y37173D01*
X275300Y35773D01*
Y34257D01*
X275880Y32857D01*
X276952Y31785D01*
X278294Y30497D01*
X278151Y28748D01*
X278130Y28698D01*
Y27182D01*
X278710Y25782D01*
X279782Y24710D01*
X281182Y24130D01*
X282698D01*
X284098Y24710D01*
X285170Y25782D01*
X285750Y27182D01*
Y28698D01*
X285170Y30098D01*
X284098Y31170D01*
X282756Y32458D01*
X282899Y34207D01*
X282920Y34257D01*
Y35773D01*
X282340Y37173D01*
X281268Y38245D01*
X279868Y38825D01*
D02*
G37*
%LPD*%
G36*
X206129Y680339D02*
X207265Y678533D01*
X207166Y677374D01*
X206320Y676528D01*
X205740Y675128D01*
Y673612D01*
X206320Y672212D01*
X207392Y671140D01*
X208792Y670560D01*
X210308D01*
X211708Y671140D01*
X212780Y672212D01*
X214590Y671443D01*
X216458Y670669D01*
X218479D01*
X220346Y671443D01*
X221656Y672753D01*
X222491Y672763D01*
X224362Y672480D01*
X224580Y671674D01*
Y663725D01*
X222425Y661570D01*
X215570D01*
X215070Y661470D01*
X208610D01*
Y648930D01*
X208610D01*
Y646470D01*
X208610D01*
Y639760D01*
X208510Y639260D01*
Y633012D01*
X208428Y632929D01*
X207305Y631248D01*
X207060Y630019D01*
X203459D01*
X202029Y631449D01*
Y645710D01*
X202770D01*
Y656150D01*
X190930D01*
Y656109D01*
X184990D01*
Y656150D01*
X174040D01*
X173150Y656150D01*
X171500Y658007D01*
Y660254D01*
X173150Y662110D01*
X184990D01*
Y672550D01*
X173150D01*
Y669920D01*
X170760D01*
X169769Y669723D01*
X168929Y669161D01*
X167079Y667311D01*
X166517Y666471D01*
X166320Y665480D01*
Y651118D01*
X163830Y650998D01*
X163250Y652398D01*
X162610Y653038D01*
Y668217D01*
X171253Y676860D01*
X185617D01*
X189939Y672539D01*
X190779Y671977D01*
X190930Y671947D01*
Y662110D01*
X202770D01*
Y672550D01*
X199440D01*
Y672882D01*
X199243Y673873D01*
X199005Y674230D01*
X198767Y674593D01*
X197939Y676590D01*
X199291Y678180D01*
X200401D01*
X202268Y678953D01*
X203697Y680382D01*
X203713Y680422D01*
X206129Y680339D01*
D02*
G37*
G36*
X243951Y646620D02*
X224580D01*
Y631289D01*
X218869D01*
Y633930D01*
X220650D01*
Y646470D01*
X220650D01*
Y648671D01*
X221277Y651210D01*
X224570D01*
X226552Y651605D01*
X228232Y652728D01*
X231905Y656400D01*
X243951D01*
Y646620D01*
D02*
G37*
%LPC*%
G36*
X395728Y596900D02*
X394212D01*
X392812Y596320D01*
X391740Y595248D01*
X391160Y593848D01*
Y592332D01*
X391740Y590932D01*
X392812Y589860D01*
X394077Y588395D01*
X393849Y586891D01*
X393764Y586687D01*
Y585171D01*
X394344Y583771D01*
X395416Y582699D01*
X396816Y582119D01*
X398332D01*
X399732Y582699D01*
X400804Y583771D01*
X401384Y585171D01*
Y586687D01*
X400804Y588087D01*
X399732Y589159D01*
X398467Y590623D01*
X398695Y592128D01*
X398780Y592332D01*
Y593848D01*
X398200Y595248D01*
X397128Y596320D01*
X395728Y596900D01*
D02*
G37*
G36*
X524254Y582645D02*
X520254D01*
Y578645D01*
X524254D01*
Y582645D01*
D02*
G37*
G36*
X547170Y575020D02*
X535330D01*
Y571775D01*
X532064D01*
Y574455D01*
X521524D01*
Y572671D01*
X520959Y572133D01*
X518984Y571209D01*
X518283Y571500D01*
X516767D01*
X515367Y570920D01*
X514295Y569848D01*
X513715Y568448D01*
Y566932D01*
X514295Y565532D01*
X515367Y564460D01*
X516767Y563880D01*
X518283D01*
X518984Y564170D01*
X521524Y563915D01*
X522457Y563915D01*
X532064D01*
Y566596D01*
X535330D01*
Y564580D01*
X547170D01*
Y575020D01*
D02*
G37*
G36*
X461133Y571500D02*
X459617D01*
X458217Y570920D01*
X457145Y569848D01*
X456565Y568448D01*
Y566932D01*
X457145Y565532D01*
X458217Y564460D01*
X459617Y563880D01*
X461133D01*
X462533Y564460D01*
X463605Y565532D01*
X464185Y566932D01*
Y568448D01*
X463605Y569848D01*
X462533Y570920D01*
X461133Y571500D01*
D02*
G37*
G36*
X510443Y526866D02*
X509270D01*
Y525460D01*
X512883D01*
X512517Y526007D01*
X511565Y526643D01*
X510443Y526866D01*
D02*
G37*
G36*
X559010Y532370D02*
X549910D01*
Y525170D01*
X559010D01*
Y532370D01*
D02*
G37*
G36*
X544830D02*
X535730D01*
Y525170D01*
X544830D01*
Y532370D01*
D02*
G37*
G36*
X559010Y520090D02*
X549910D01*
Y512890D01*
X559010D01*
Y520090D01*
D02*
G37*
G36*
X544830D02*
X535730D01*
Y512890D01*
X544830D01*
Y520090D01*
D02*
G37*
G36*
X469350Y469900D02*
X465400D01*
Y465250D01*
X469350D01*
Y469900D01*
D02*
G37*
%LPD*%
D13*
X400050Y473710D02*
X401374D01*
X404518Y470566D01*
Y464058D02*
Y470566D01*
Y464058D02*
X405280Y463296D01*
X436880Y466935D02*
Y480060D01*
Y466935D02*
X443409Y460406D01*
Y454342D02*
Y460406D01*
Y454342D02*
X443790Y453961D01*
X425450Y604520D02*
Y612140D01*
Y604520D02*
X433070D01*
X320040Y675640D02*
X360680D01*
X367030Y669290D02*
X369570D01*
X377190D02*
Y676910D01*
X360680Y675640D02*
X367030Y669290D01*
X243840Y389890D02*
Y397510D01*
X402590Y254000D02*
Y269240D01*
X436760D01*
X266700Y427990D02*
Y473710D01*
X270750Y477760D01*
X280670D01*
X207010Y269240D02*
X243720D01*
X207010Y261620D02*
Y269240D01*
Y254000D02*
Y261620D01*
X13970Y269240D02*
X50680D01*
X13970Y261620D02*
Y269240D01*
Y254000D02*
Y261620D01*
X106680Y461010D02*
X117990D01*
X102870Y457200D02*
X106680Y461010D01*
X102870Y424180D02*
Y457200D01*
X87630Y408940D02*
X102870Y424180D01*
X82550Y403860D02*
X87630Y408940D01*
X74930Y403860D02*
X82550D01*
X243840Y397510D02*
Y405130D01*
X266700Y427990D01*
X425450Y612140D02*
Y624840D01*
X430530Y629920D01*
Y662940D01*
X435490Y667900D01*
X443230D01*
X369570Y669290D02*
X377190D01*
X317783Y675487D02*
X319887D01*
X303660Y689610D02*
X317783Y675487D01*
X12065Y669925D02*
Y677545D01*
Y662305D02*
Y669925D01*
Y677545D02*
X19170Y684650D01*
X44450D01*
X527050Y496440D02*
Y496690D01*
X545470Y495910D02*
X547370D01*
D15*
X552575Y379350D02*
X552936Y379711D01*
X538480Y379350D02*
X552575D01*
X508372D02*
X508486Y379236D01*
X494030Y379350D02*
X508372D01*
X405130Y484274D02*
X405280Y484124D01*
X405130Y484274D02*
Y491490D01*
X407670Y494030D01*
X420661D01*
X423201Y496570D01*
X434340D01*
X405280Y484124D02*
Y488188D01*
X494030Y395350D02*
Y405040D01*
X497444Y408454D01*
X502434D01*
X456620Y410210D02*
X456629Y410201D01*
Y399351D02*
Y410201D01*
X462860Y471740D02*
Y472440D01*
X456790Y465670D02*
X462860Y471740D01*
X456790Y453961D02*
Y465670D01*
X446460Y471740D02*
Y472440D01*
Y471740D02*
X450290Y467910D01*
Y453961D02*
Y467910D01*
X437290Y427419D02*
Y437290D01*
X440690Y440690D01*
X467360D01*
X444679Y434519D02*
X447040Y436880D01*
X444679Y428307D02*
Y434519D01*
X447040Y436880D02*
X463550D01*
X467360Y440690D02*
X472440Y435610D01*
X160020Y650240D02*
Y669290D01*
X170180Y679450D01*
X186690D01*
X191770Y674370D01*
X195362D01*
X196850Y672882D01*
Y667330D02*
Y672882D01*
X170760Y667330D02*
X179070D01*
X168910Y665480D02*
X170760Y667330D01*
X168910Y647700D02*
Y665480D01*
X165100Y643890D02*
X168910Y647700D01*
X157480Y643890D02*
X165100D01*
X151130Y650240D02*
X157480Y643890D01*
X226643Y679450D02*
X227330D01*
X223914Y676721D02*
X226643Y679450D01*
X218440Y676721D02*
X223914D01*
X217468Y675749D02*
X218440Y676721D01*
X209064Y691664D02*
X209550Y692150D01*
X207794Y691664D02*
X209064D01*
X199390Y683260D02*
X207794Y691664D01*
X538480Y395350D02*
Y406400D01*
X502434Y408454D02*
X502920Y408940D01*
X392280Y451970D02*
Y463296D01*
X383540Y443230D02*
X392280Y451970D01*
X398780Y450850D02*
Y463296D01*
X391160Y443230D02*
X398780Y450850D01*
X398272Y462788D02*
X398780Y463296D01*
X456790Y410380D02*
Y427419D01*
X456620Y410210D02*
X456790Y410380D01*
X449401Y426530D02*
X450290Y427419D01*
X449401Y420311D02*
Y426530D01*
X440000Y410910D02*
X449401Y420311D01*
X440000Y410210D02*
Y410910D01*
X472440Y435610D02*
X478790D01*
X463550Y436880D02*
X472440Y427990D01*
X478790D01*
X443790Y427419D02*
X444679Y428307D01*
X461590Y470470D02*
Y471170D01*
X370622Y407888D02*
X370840Y407670D01*
X266700Y513708D02*
X268075D01*
X272639Y518272D01*
X274520Y534360D02*
Y548048D01*
X266700Y525900D02*
X282980D01*
X251460Y563880D02*
X260470D01*
X270510Y553840D01*
Y574160D02*
X279983D01*
X323740Y494850D02*
X324180Y494410D01*
X323805Y494035D02*
X324180Y494410D01*
X322322Y514580D02*
X330240Y506661D01*
Y494410D02*
Y506661D01*
Y494410D02*
X330680D01*
X333190Y481600D02*
X336740Y485150D01*
Y493970D01*
X337180Y494410D01*
X342670Y477060D02*
X353520D01*
X353060Y476600D02*
X353520Y477060D01*
X354100Y476480D01*
Y492880D02*
Y509500D01*
Y476480D02*
X355370Y475210D01*
X354100Y492880D02*
X357910Y489070D01*
X379730D01*
X311500Y476480D02*
X319230Y468750D01*
X300990Y457980D02*
Y476250D01*
Y431260D02*
X317470D01*
X318540Y430190D01*
Y445190D02*
Y461130D01*
Y430190D02*
X318770Y429960D01*
Y409060D02*
Y429960D01*
X298220Y473940D02*
X300760Y476480D01*
X272639Y518272D02*
X287544D01*
X280670Y477760D02*
X288052D01*
X287544Y518272D02*
X290170Y520898D01*
X288052Y477760D02*
X294532Y484240D01*
X282980Y509500D02*
X300760D01*
X294532Y484240D02*
X306988D01*
X300760Y492880D02*
Y509500D01*
Y492880D02*
X301460D01*
X300760Y476480D02*
X311500D01*
X306988Y484240D02*
X309628Y481600D01*
X309880Y500500D02*
X310185Y500195D01*
X300760Y509500D02*
X320217D01*
X310185Y500195D02*
X316775D01*
X312080Y514580D02*
X322322D01*
X316775Y500195D02*
X317680Y499290D01*
Y494410D02*
Y499290D01*
X309628Y481600D02*
X333190D01*
X320217Y509500D02*
X323805Y505912D01*
X323740Y494100D02*
X323805Y494035D01*
Y505912D01*
X334010Y409060D02*
Y429150D01*
X335050Y430190D01*
Y445190D02*
Y461240D01*
X335630Y461820D01*
Y470020D01*
X342670Y477060D01*
X335050Y430190D02*
X351990D01*
X353060Y431260D01*
Y457980D02*
Y476600D01*
X318540Y461130D02*
X319230Y461820D01*
Y468750D01*
X274520Y548048D02*
X276752Y550280D01*
X274520Y534360D02*
X282980Y525900D01*
Y542520D02*
X283680D01*
X290170Y536030D01*
Y520898D02*
Y536030D01*
X282980Y542520D02*
X300760D01*
X276752Y550280D02*
X310130D01*
X300760Y525900D02*
Y542520D01*
Y525900D02*
X312080Y514580D01*
X310130Y550280D02*
X314960Y555110D01*
X317680Y535910D02*
X318120Y535470D01*
X317680Y535910D02*
X318120D01*
X324180Y534245D02*
Y535910D01*
Y534245D02*
X324620Y533805D01*
Y526650D02*
Y533805D01*
Y526650D02*
X328170Y523100D01*
X323850Y560190D02*
X330680Y553360D01*
Y535910D02*
Y553360D01*
X328170Y523100D02*
X338914D01*
X337180Y535910D02*
X337820Y536550D01*
Y556380D01*
X279983Y574160D02*
X282523Y571620D01*
X283210D01*
X282980Y558920D02*
X283210Y559150D01*
Y571620D01*
X300760Y558920D02*
Y581550D01*
X300990Y581780D01*
X314960Y555110D02*
Y564000D01*
X318770Y567810D01*
X326390D01*
X337820Y556380D01*
X338914Y523100D02*
X339348Y522666D01*
X341144D01*
X341630Y522180D01*
X337180Y535910D02*
X347190Y525900D01*
X354100D01*
X280670Y461010D02*
Y477760D01*
X300760Y476480D02*
X300990Y476250D01*
X526794Y602994D02*
X541020Y617220D01*
X526794Y585185D02*
Y602994D01*
X506730Y517920D02*
Y522920D01*
X482650Y508000D02*
X482730Y507920D01*
X473928Y508000D02*
X482650D01*
X472440Y506512D02*
X473928Y508000D01*
X472440Y496788D02*
Y506512D01*
Y496788D02*
X473928Y495300D01*
X504190D01*
X506730Y497840D01*
Y502920D01*
X53110Y334120D02*
X53810D01*
X60300Y327630D01*
Y312498D02*
Y327630D01*
X57674Y309872D02*
X60300Y312498D01*
X42769Y309872D02*
X57674D01*
X38205Y305308D02*
X42769Y309872D01*
X36830Y305308D02*
X38205D01*
X445540Y749410D02*
X446240D01*
X452730Y742920D01*
Y727788D02*
Y742920D01*
X450104Y725162D02*
X452730Y727788D01*
X442120Y725162D02*
X450104D01*
X437556Y720598D02*
X442120Y725162D01*
X429260Y720598D02*
X437556D01*
X238650Y691920D02*
Y692620D01*
X245140Y699110D01*
X260272D01*
X262898Y696484D01*
Y688500D02*
Y696484D01*
Y688500D02*
X267462Y683936D01*
Y675640D02*
Y683936D01*
X246150Y334120D02*
X246850D01*
X253340Y327630D01*
Y312498D02*
Y327630D01*
X250714Y309872D02*
X253340Y312498D01*
X235809Y309872D02*
X250714D01*
X231245Y305308D02*
X235809Y309872D01*
X229870Y305308D02*
X231245D01*
X439190Y334120D02*
X439890D01*
X446380Y327630D01*
Y312498D02*
Y327630D01*
X443754Y309872D02*
X446380Y312498D01*
X428849Y309872D02*
X443754D01*
X424285Y305308D02*
X428849Y309872D01*
X422910Y305308D02*
X424285D01*
X255270Y675640D02*
Y691920D01*
X199390Y683260D02*
X200025D01*
X429260Y732790D02*
X445540D01*
X433070Y760730D02*
Y767080D01*
X419100Y781050D02*
X433070Y767080D01*
X445083Y778510D02*
X445770D01*
X442543Y781050D02*
X445083Y778510D01*
X433070Y781050D02*
X442543D01*
X36830Y317500D02*
X53110D01*
X40640Y345440D02*
Y351790D01*
X26670Y365760D02*
X40640Y351790D01*
X53340Y363220D02*
Y374650D01*
X426720Y345440D02*
Y351790D01*
X412750Y365760D02*
X426720Y351790D01*
X438733Y363220D02*
X439420D01*
X436193Y365760D02*
X438733Y363220D01*
X426720Y365760D02*
X436193D01*
X422910Y317500D02*
X439190D01*
X229870D02*
X246150D01*
X233680Y345440D02*
Y351790D01*
X219710Y365760D02*
X233680Y351790D01*
X245693Y363220D02*
X246380D01*
X243153Y365760D02*
X245693Y363220D01*
X233680Y365760D02*
X243153D01*
X120420Y542400D02*
X121120D01*
X127610Y535910D01*
Y520778D02*
Y535910D01*
X124984Y518152D02*
X127610Y520778D01*
X117000Y518152D02*
X124984D01*
X112436Y513588D02*
X117000Y518152D01*
X104140Y513588D02*
X112436D01*
X104140Y525780D02*
X120420D01*
X107950Y553720D02*
Y560070D01*
X93980Y574040D02*
X107950Y560070D01*
X119963Y571500D02*
X120650D01*
X117423Y574040D02*
X119963Y571500D01*
X107950Y574040D02*
X117423D01*
X46760Y749410D02*
X47460D01*
X53950Y742920D01*
Y727788D02*
Y742920D01*
X51324Y725162D02*
X53950Y727788D01*
X36419Y725162D02*
X51324D01*
X31855Y720598D02*
X36419Y725162D01*
X30480Y720598D02*
X31855D01*
X30480Y732790D02*
X46760D01*
X34290Y760730D02*
Y767080D01*
X20320Y781050D02*
X34290Y767080D01*
X46303Y778510D02*
X46990D01*
X43763Y781050D02*
X46303Y778510D01*
X34290Y781050D02*
X43763D01*
X444262Y269360D02*
X450742Y275840D01*
X251222Y269360D02*
X257702Y275840D01*
X58182Y269360D02*
X64662Y275840D01*
X125492Y477640D02*
X131972Y484120D01*
X450612Y684650D02*
X457092Y691130D01*
X51832Y684650D02*
X58312Y691130D01*
X44450Y667900D02*
Y684650D01*
X64540Y683370D02*
X64770Y683140D01*
X62000Y680830D02*
X64540Y683370D01*
X64770Y664870D02*
Y683140D01*
X64540Y699770D02*
X65240D01*
X64540D02*
Y716390D01*
X98830Y668130D02*
X99410Y668710D01*
X98830Y652080D02*
Y668130D01*
X83010Y668710D02*
Y675640D01*
X82320Y668020D02*
X83010Y668710D01*
X75280Y683370D02*
X83010Y675640D01*
X82320Y652080D02*
Y668020D01*
X64540Y683370D02*
X75280D01*
X46760Y716390D02*
X64540D01*
Y788440D02*
X64770Y788670D01*
X64540Y765810D02*
Y788440D01*
Y732790D02*
Y749410D01*
X46760D02*
X64540D01*
X117300Y683950D02*
X117880Y683370D01*
X119150Y682100D01*
X106450Y683950D02*
X117300D01*
X116840Y683490D02*
X117300Y683950D01*
X116840Y664870D02*
Y683490D01*
X99410Y676910D02*
X106450Y683950D01*
X99410Y668710D02*
Y676910D01*
X117880Y699770D02*
Y716390D01*
X46990Y766040D02*
Y778510D01*
X46760Y765810D02*
X46990Y766040D01*
X101600Y743440D02*
Y763270D01*
X100960Y742800D02*
X101600Y743440D01*
X82550Y774700D02*
X90170D01*
X101600Y763270D01*
X110970Y732790D02*
X117880D01*
X100960Y742800D02*
X110970Y732790D01*
X78740Y770890D02*
X82550Y774700D01*
X73910Y757170D02*
X78740Y762000D01*
Y770890D01*
X40532Y757170D02*
X73910D01*
X38300Y741250D02*
X46760Y732790D01*
X38300Y754938D02*
X40532Y757170D01*
X38300Y741250D02*
Y754938D01*
X121690Y695960D02*
X143510D01*
X117880Y699770D02*
X121690Y695960D01*
X87630Y767080D02*
X94460Y760250D01*
Y742800D02*
Y760250D01*
X87960Y741135D02*
Y742800D01*
Y741135D02*
X88400Y740695D01*
X81460Y742800D02*
X81900Y742360D01*
X81460Y742800D02*
X81900D01*
X75860Y721470D02*
X86102D01*
X94020Y713551D01*
Y701300D02*
X94460D01*
X94020D02*
Y713551D01*
X64540Y732790D02*
X75860Y721470D01*
X87520Y701740D02*
X87960Y701300D01*
X87585Y700925D02*
X87960Y701300D01*
X83997Y716390D02*
X87585Y712802D01*
X87520Y700990D02*
X87585Y700925D01*
Y712802D01*
X64540Y716390D02*
X83997D01*
X100520Y700860D02*
X100960Y701300D01*
X100520Y692040D02*
Y700860D01*
X70768Y691130D02*
X73408Y688490D01*
X58312Y691130D02*
X70768D01*
X96970Y688490D02*
X100520Y692040D01*
X73408Y688490D02*
X96970D01*
X44450Y684650D02*
X51832D01*
X104924Y729556D02*
X105410Y729070D01*
X102694Y729990D02*
X103128Y729556D01*
X104924D01*
X91950Y729990D02*
X102694D01*
X88400Y733540D02*
Y740695D01*
Y733540D02*
X91950Y729990D01*
X73660Y707390D02*
X73965Y707085D01*
X80555D01*
X81460Y701300D02*
Y706180D01*
X80555Y707085D02*
X81460Y706180D01*
X541020Y586430D02*
X541250Y586200D01*
X541020Y586430D02*
Y601980D01*
X504030Y502920D02*
X506730D01*
X503950Y502840D02*
X504030Y502920D01*
X503950Y502548D02*
Y502840D01*
X540636Y569185D02*
X541250Y569800D01*
X526794Y569185D02*
X540636D01*
X436760Y269240D02*
X436880Y269360D01*
X243720Y269240D02*
X243840Y269360D01*
X50680Y269240D02*
X50800Y269360D01*
X117990Y461010D02*
X118110Y460890D01*
X296930Y703472D02*
X303410Y696992D01*
X319887Y675487D02*
X320040Y675640D01*
X303410Y689610D02*
X303660D01*
X482730Y517920D02*
Y522920D01*
X516689Y505460D02*
X516890D01*
X514229Y507920D02*
X516689Y505460D01*
X506730Y507920D02*
X514229D01*
X506730Y512920D02*
X525820D01*
X527050Y511690D01*
Y496690D02*
Y496940D01*
X510372Y538861D02*
Y540761D01*
X460711Y523080D02*
X462324Y521467D01*
X444880Y523080D02*
X460711D01*
X463024Y521467D02*
X471571Y512920D01*
X482730D01*
X462324Y505522D02*
Y521467D01*
X138200Y581430D02*
X138430Y581660D01*
X120420Y558800D02*
X120650Y559030D01*
X120420Y542400D02*
X138200D01*
Y525780D02*
Y542400D01*
X152400Y554990D02*
Y563880D01*
X156210Y567690D01*
X138200Y558800D02*
Y581430D01*
X147570Y550160D02*
X152400Y554990D01*
X195350Y488950D02*
X217170D01*
X156210Y567690D02*
X163830D01*
X161290Y560070D02*
X168120Y553240D01*
Y535790D02*
Y553240D01*
X163830Y567690D02*
X175260Y556260D01*
X161620Y534125D02*
X162060Y533685D01*
X155120Y535790D02*
X155560D01*
X161620Y534125D02*
Y535790D01*
X155120D02*
X155560Y535350D01*
X173070Y469900D02*
X180110Y476940D01*
X190500Y457860D02*
Y476480D01*
X156670Y461700D02*
Y468630D01*
X148940Y476360D02*
X156670Y468630D01*
X173070Y461700D02*
Y469900D01*
X120420Y509380D02*
X138200D01*
Y492760D02*
Y509380D01*
X118110Y460890D02*
Y477640D01*
X131972Y484120D02*
X144428D01*
X159762Y514460D02*
X167680Y506541D01*
X165610Y522980D02*
X176354D01*
X149520Y514460D02*
X159762D01*
X157657Y509380D02*
X161245Y505792D01*
X147625Y500075D02*
X154215D01*
X147320Y500380D02*
X147625Y500075D01*
X191540Y492760D02*
Y509380D01*
X174620Y535790D02*
X175260Y536430D01*
X174620Y535790D02*
X184630Y525780D01*
X175260Y536430D02*
Y556260D01*
X176788Y522546D02*
X178584D01*
X179070Y522060D01*
X176354Y522980D02*
X176788Y522546D01*
X161245Y493915D02*
Y505792D01*
X162060Y526530D02*
X165610Y522980D01*
X184630Y525780D02*
X191540D01*
X167680Y494290D02*
Y506541D01*
X162060Y526530D02*
Y533685D01*
X191540Y492760D02*
X195350Y488950D01*
X190960Y476940D02*
X191540Y476360D01*
X190500Y476480D02*
X190960Y476940D01*
X180110D02*
X190960D01*
X191540Y476360D02*
X192810Y475090D01*
X155120Y494290D02*
Y499170D01*
X167680Y494290D02*
X168120D01*
X174180Y493850D02*
X174620Y494290D01*
X154215Y500075D02*
X155120Y499170D01*
X161180Y493980D02*
X161245Y493915D01*
X161180Y494730D02*
X161620Y494290D01*
X170630Y481480D02*
X174180Y485030D01*
Y493850D01*
X161245Y493915D02*
X161620Y494290D01*
X147068Y481480D02*
X170630D01*
X118110Y477640D02*
X125492D01*
X135660Y473820D02*
X138200Y476360D01*
X144428Y484120D02*
X147068Y481480D01*
X138200Y476360D02*
X138430Y476130D01*
X138200Y476360D02*
X148940D01*
X138200Y492760D02*
X138900D01*
X138430Y457860D02*
Y476130D01*
X172490Y461120D02*
X173070Y461700D01*
X172490Y445070D02*
Y461120D01*
X155980Y461010D02*
X156670Y461700D01*
X155980Y445070D02*
Y461010D01*
X138200Y509380D02*
X157657D01*
X138200Y525780D02*
X149520Y514460D01*
X120650Y559030D02*
Y571500D01*
X111960Y534240D02*
Y547928D01*
Y534240D02*
X120420Y525780D01*
X111960Y547928D02*
X114192Y550160D01*
X147570D01*
X481330Y615950D02*
Y636850D01*
X88900Y200660D02*
Y221560D01*
X490220Y220750D02*
X491260Y221790D01*
X457200Y222860D02*
X473680D01*
X474750Y221790D01*
X474980Y221560D01*
X490220Y200660D02*
Y220750D01*
X474750Y236790D02*
Y252730D01*
X474980Y200660D02*
Y221560D01*
X491260Y236790D02*
Y252840D01*
Y221790D02*
X508200D01*
X509270Y222860D01*
X510310Y268080D02*
X511580Y266810D01*
X509270Y268200D02*
X509730Y268660D01*
X510310Y268080D01*
X509270Y249580D02*
Y268200D01*
X450742Y275840D02*
X463198D01*
X465838Y273200D02*
X489400D01*
X436880Y269360D02*
X444262D01*
X463198Y275840D02*
X465838Y273200D01*
X456970Y268080D02*
X467710D01*
X456970D02*
X457200Y267850D01*
X454430Y265540D02*
X456970Y268080D01*
X489400Y273200D02*
X492950Y276750D01*
X474750Y252730D02*
X475440Y253420D01*
X498880Y268660D02*
X509730D01*
X475440Y253420D02*
Y260350D01*
X467710Y268080D02*
X475440Y260350D01*
X436880Y252610D02*
Y269360D01*
X457200Y249580D02*
Y267850D01*
X491840Y261620D02*
X498880Y268660D01*
X491840Y253420D02*
Y261620D01*
X491260Y252840D02*
X491840Y253420D01*
X439190Y334120D02*
X456970D01*
Y350520D02*
Y373150D01*
X457200Y373380D01*
X439420Y350750D02*
Y363220D01*
X432962Y341880D02*
X466340D01*
X439190Y350520D02*
X439420Y350750D01*
X430730Y325960D02*
Y339648D01*
X432962Y341880D01*
X514120Y280670D02*
X535940D01*
X480830Y318250D02*
Y325405D01*
X430730Y325960D02*
X439190Y317500D01*
X468290Y306180D02*
X478532D01*
X456970Y317500D02*
X468290Y306180D01*
X456970Y317500D02*
Y334120D01*
X439190Y301100D02*
X456970D01*
X476427D01*
X474980Y359410D02*
X482600D01*
X480060Y351790D02*
X486890Y344960D01*
X482600Y359410D02*
X494030Y347980D01*
X466340Y341880D02*
X471170Y346710D01*
Y355600D02*
X474980Y359410D01*
X471170Y346710D02*
Y355600D01*
X480015Y285635D02*
Y297512D01*
X480830Y318250D02*
X484380Y314700D01*
X478532Y306180D02*
X486450Y298262D01*
Y286010D02*
Y298262D01*
X476427Y301100D02*
X480015Y297512D01*
X495124Y314700D02*
X495558Y314266D01*
X497354D01*
X497840Y313780D01*
X510310Y284480D02*
X514120Y280670D01*
X503400Y317500D02*
X510310D01*
X484380Y314700D02*
X495124D01*
X493390Y327510D02*
X503400Y317500D01*
X510310Y284480D02*
Y301100D01*
X492950Y276750D02*
Y285570D01*
X466395Y291795D02*
X472985D01*
X492950Y285570D02*
X493390Y286010D01*
X486450D02*
X486890D01*
X480015Y285635D02*
X480390Y286010D01*
X479950Y286450D02*
X480390Y286010D01*
X479950Y285700D02*
X480015Y285635D01*
X473890Y286010D02*
Y290890D01*
X472985Y291795D02*
X473890Y290890D01*
X456970Y284480D02*
Y301100D01*
X466090Y292100D02*
X466395Y291795D01*
X456970Y284480D02*
X457670D01*
X480390Y325845D02*
X480830Y325405D01*
X493390Y327510D02*
X494030Y328150D01*
X486890Y327510D02*
Y344960D01*
X473890Y327510D02*
X474330D01*
X480390Y325845D02*
Y327510D01*
X473890D02*
X474330Y327070D01*
X494030Y328150D02*
Y347980D01*
X171207Y408697D02*
X171450Y408940D01*
Y429030D01*
X349910Y726410D02*
X350980Y727480D01*
X351210Y727710D01*
X349910Y709930D02*
Y726410D01*
X303410Y689610D02*
X320160D01*
X350980Y743990D02*
X352020Y742950D01*
X349910Y762000D02*
X350980Y760930D01*
Y743990D02*
Y760930D01*
X304690Y709700D02*
X304920Y709930D01*
X304690Y709700D02*
X307230Y707160D01*
X304920Y709930D02*
X323190D01*
X288290Y709700D02*
Y710400D01*
X271670Y709700D02*
X288290D01*
X319350Y744570D02*
X319930Y743990D01*
X335980D01*
X312420Y728170D02*
X319350D01*
X320040Y727480D01*
X304690Y720440D02*
X312420Y728170D01*
X320040Y727480D02*
X335980D01*
X304690Y709700D02*
Y720440D01*
X271670Y691920D02*
Y709700D01*
X352020Y742950D02*
X372110D01*
X199390Y709930D02*
X199620Y709700D01*
X222250D01*
X238650D02*
X255270D01*
X238650Y691920D02*
Y709700D01*
X304110Y762460D02*
X304690Y763040D01*
X305960Y764310D01*
X304110Y751610D02*
Y762460D01*
X304570Y762000D01*
X323190D01*
X304110Y751610D02*
X311150Y744570D01*
X319350D01*
X351210Y727710D02*
X372110D01*
X271670Y763040D02*
X288290D01*
X209550Y692150D02*
X222020D01*
X222250Y691920D01*
X224790Y746760D02*
X244620D01*
X245260Y746120D01*
X213360Y727710D02*
Y735330D01*
X224790Y746760D01*
X255270Y756130D02*
Y763040D01*
X245260Y746120D02*
X255270Y756130D01*
X213360Y727710D02*
X217170Y723900D01*
X226060D02*
X230890Y719070D01*
X217170Y723900D02*
X226060D01*
X230890Y685692D02*
Y719070D01*
X246810Y683460D02*
X255270Y691920D01*
X230890Y685692D02*
X233122Y683460D01*
X246810D01*
X292100Y766850D02*
Y788670D01*
X288290Y763040D02*
X292100Y766850D01*
X220980Y732790D02*
X227810Y739620D01*
X245260D01*
Y733120D02*
X246925D01*
X247365Y733560D01*
X245260Y726620D02*
X245700Y727060D01*
X245260Y726620D02*
Y727060D01*
X266590Y721020D02*
Y731262D01*
X274508Y739180D01*
X286760D02*
Y739620D01*
X274508Y739180D02*
X286760D01*
X255270Y709700D02*
X266590Y721020D01*
X286320Y732680D02*
X286760Y733120D01*
X287135Y732745D01*
X271670Y729157D02*
X275258Y732745D01*
X287070Y732680D02*
X287135Y732745D01*
X275258D02*
X287135D01*
X271670Y709700D02*
Y729157D01*
X286760Y746120D02*
X287200Y745680D01*
X296020D01*
X296930Y715928D02*
X299570Y718568D01*
X296930Y703472D02*
Y715928D01*
X296020Y745680D02*
X299570Y742130D01*
Y718568D02*
Y742130D01*
X303410Y689610D02*
Y696992D01*
X258504Y750084D02*
X258990Y750570D01*
X258070Y747854D02*
X258504Y748288D01*
Y750084D01*
X258070Y737110D02*
Y747854D01*
X247365Y733560D02*
X254520D01*
X258070Y737110D01*
X280670Y718820D02*
X280975Y719125D01*
Y725715D01*
X281880Y726620D02*
X286760D01*
X280975Y725715D02*
X281880Y726620D01*
X480030Y638150D02*
X481100Y637080D01*
X481330Y636850D01*
X463550Y638150D02*
X480030D01*
X443230Y667900D02*
Y684650D01*
X496570Y636040D02*
X497610Y637080D01*
X514550D02*
X515620Y638150D01*
X497610Y637080D02*
X514550D01*
X463320Y683370D02*
X463550Y683140D01*
X460780Y680830D02*
X463320Y683370D01*
X463550Y664870D02*
Y683140D01*
X463320Y699770D02*
X464020D01*
X463320D02*
Y716390D01*
X497610Y668130D02*
X498190Y668710D01*
X497610Y652080D02*
Y668130D01*
X481790Y668710D02*
Y675640D01*
X481100Y668020D02*
X481790Y668710D01*
X474060Y683370D02*
X481790Y675640D01*
X481100Y652080D02*
Y668020D01*
X463320Y683370D02*
X474060D01*
X445540Y716390D02*
X463320D01*
X496570Y615950D02*
Y636040D01*
X463320Y788440D02*
X463550Y788670D01*
X463320Y765810D02*
Y788440D01*
Y732790D02*
Y749410D01*
X445540D02*
X463320D01*
X516080Y683950D02*
X516660Y683370D01*
X517930Y682100D01*
X505230Y683950D02*
X516080D01*
X515620Y683490D02*
X516080Y683950D01*
X515620Y664870D02*
Y683490D01*
X498190Y676910D02*
X505230Y683950D01*
X498190Y668710D02*
Y676910D01*
X516660Y699770D02*
Y716390D01*
X445770Y766040D02*
Y778510D01*
X445540Y765810D02*
X445770Y766040D01*
X500380Y743440D02*
Y763270D01*
X499740Y742800D02*
X500380Y743440D01*
X481330Y774700D02*
X488950D01*
X500380Y763270D01*
X509750Y732790D02*
X516660D01*
X499740Y742800D02*
X509750Y732790D01*
X477520Y770890D02*
X481330Y774700D01*
X472690Y757170D02*
X477520Y762000D01*
Y770890D01*
X439312Y757170D02*
X472690D01*
X437080Y741250D02*
X445540Y732790D01*
X437080Y754938D02*
X439312Y757170D01*
X437080Y741250D02*
Y754938D01*
X520470Y695960D02*
X542290D01*
X516660Y699770D02*
X520470Y695960D01*
X486410Y767080D02*
X493240Y760250D01*
Y742800D02*
Y760250D01*
X486740Y741135D02*
Y742800D01*
Y741135D02*
X487180Y740695D01*
X480240Y742800D02*
X480680Y742360D01*
X480240Y742800D02*
X480680D01*
X474640Y721470D02*
X484882D01*
X492800Y713551D01*
Y701300D02*
X493240D01*
X492800D02*
Y713551D01*
X463320Y732790D02*
X474640Y721470D01*
X486300Y701740D02*
X486740Y701300D01*
X486365Y700925D02*
X486740Y701300D01*
X482777Y716390D02*
X486365Y712802D01*
X486300Y700990D02*
X486365Y700925D01*
Y712802D01*
X463320Y716390D02*
X482777D01*
X499300Y700860D02*
X499740Y701300D01*
X499300Y692040D02*
Y700860D01*
X469548Y691130D02*
X472188Y688490D01*
X457092Y691130D02*
X469548D01*
X495750Y688490D02*
X499300Y692040D01*
X472188Y688490D02*
X495750D01*
X443230Y684650D02*
X450612D01*
X503704Y729556D02*
X504190Y729070D01*
X501474Y729990D02*
X501908Y729556D01*
X503704D01*
X490730Y729990D02*
X501474D01*
X487180Y733540D02*
Y740695D01*
Y733540D02*
X490730Y729990D01*
X472440Y707390D02*
X472745Y707085D01*
X479335D01*
X480240Y701300D02*
Y706180D01*
X479335Y707085D02*
X480240Y706180D01*
X81250Y638150D02*
X82320Y637080D01*
X82550Y636850D01*
X64770Y638150D02*
X81250D01*
X97790Y636040D02*
X98830Y637080D01*
X115770D02*
X116840Y638150D01*
X98830Y637080D02*
X115770D01*
X97790Y615950D02*
Y636040D01*
X82550Y615950D02*
Y636850D01*
X85090Y355600D02*
X88900Y359410D01*
X96520D02*
X107950Y347980D01*
X88900Y359410D02*
X96520D01*
X81630Y268080D02*
X89360Y260350D01*
X70890Y268080D02*
X81630D01*
X71120Y249580D02*
Y267850D01*
Y222860D02*
X87600D01*
X80010Y292100D02*
X80315Y291795D01*
X79758Y273200D02*
X103320D01*
X94750Y318250D02*
X98300Y314700D01*
X94750Y318250D02*
Y325405D01*
X98300Y314700D02*
X109044D01*
X87810Y327510D02*
X88250D01*
X87810D02*
X88250Y327070D01*
X94310Y325845D02*
X94750Y325405D01*
X94310Y325845D02*
Y327510D01*
X80315Y291795D02*
X86905D01*
X64662Y275840D02*
X77118D01*
X79758Y273200D01*
X70890Y301100D02*
X90347D01*
X70890Y317500D02*
X82210Y306180D01*
X92452D02*
X100370Y298262D01*
X82210Y306180D02*
X92452D01*
X93870Y285700D02*
X93935Y285635D01*
X86905Y291795D02*
X87810Y290890D01*
Y286010D02*
Y290890D01*
X93935Y285635D02*
Y297512D01*
X90347Y301100D02*
X93935Y297512D01*
Y285635D02*
X94310Y286010D01*
X93870Y286450D02*
X94310Y286010D01*
X100370D02*
Y298262D01*
Y286010D02*
X100810D01*
Y327510D02*
Y344960D01*
X93980Y351790D02*
X100810Y344960D01*
X46882Y341880D02*
X80260D01*
X85090Y346710D02*
Y355600D01*
X80260Y341880D02*
X85090Y346710D01*
X105180Y252840D02*
X105760Y253420D01*
X103320Y273200D02*
X106870Y276750D01*
X105760Y253420D02*
Y261620D01*
X112800Y268660D01*
X88670Y252730D02*
X89360Y253420D01*
Y260350D01*
X104140Y200660D02*
Y220750D01*
X88670Y236790D02*
Y252730D01*
X105180Y236790D02*
Y252840D01*
Y221790D02*
X122120D01*
X104140Y220750D02*
X105180Y221790D01*
X88670D02*
X88900Y221560D01*
X87600Y222860D02*
X88670Y221790D01*
X50800Y269360D02*
X58182D01*
X70890Y284480D02*
X71590D01*
X68350Y265540D02*
X70890Y268080D01*
X71120Y267850D01*
X50800Y252610D02*
Y269360D01*
X53110Y301100D02*
X70890D01*
Y284480D02*
Y301100D01*
Y373150D02*
X71120Y373380D01*
X70890Y350520D02*
Y373150D01*
X44650Y325960D02*
Y339648D01*
X46882Y341880D01*
X44650Y325960D02*
X53110Y317500D01*
Y350520D02*
X53340Y350750D01*
Y363220D01*
X53110Y334120D02*
X70890D01*
Y317500D02*
Y334120D01*
X109478Y314266D02*
X111274D01*
X109044Y314700D02*
X109478Y314266D01*
X111274D02*
X111760Y313780D01*
X107310Y327510D02*
X117320Y317500D01*
X124230D01*
X107310Y327510D02*
X107950Y328150D01*
Y347980D01*
X128040Y280670D02*
X149860D01*
X106870Y276750D02*
Y285570D01*
X107310Y286010D01*
X124230Y284480D02*
X128040Y280670D01*
X123190Y249580D02*
Y268200D01*
X123650Y268660D01*
X112800D02*
X123650D01*
X124230Y268080D02*
X125500Y266810D01*
X123650Y268660D02*
X124230Y268080D01*
X122120Y221790D02*
X123190Y222860D01*
X124230Y284480D02*
Y301100D01*
X280640Y222860D02*
X281710Y221790D01*
X281940Y221560D01*
X264160Y222860D02*
X280640D01*
X243840Y252610D02*
Y269360D01*
X297180Y220750D02*
X298220Y221790D01*
X315160D02*
X316230Y222860D01*
X298220Y221790D02*
X315160D01*
X263930Y268080D02*
X264160Y267850D01*
X261390Y265540D02*
X263930Y268080D01*
X264160Y249580D02*
Y267850D01*
X263930Y284480D02*
X264630D01*
X263930D02*
Y301100D01*
X298220Y252840D02*
X298800Y253420D01*
X298220Y236790D02*
Y252840D01*
X282400Y253420D02*
Y260350D01*
X281710Y252730D02*
X282400Y253420D01*
X274670Y268080D02*
X282400Y260350D01*
X281710Y236790D02*
Y252730D01*
X263930Y268080D02*
X274670D01*
X246150Y301100D02*
X263930D01*
X297180Y200660D02*
Y220750D01*
X263930Y373150D02*
X264160Y373380D01*
X263930Y350520D02*
Y373150D01*
Y317500D02*
Y334120D01*
X246150D02*
X263930D01*
X316690Y268660D02*
X317270Y268080D01*
X318540Y266810D01*
X305840Y268660D02*
X316690D01*
X316230Y268200D02*
X316690Y268660D01*
X316230Y249580D02*
Y268200D01*
X298800Y261620D02*
X305840Y268660D01*
X298800Y253420D02*
Y261620D01*
X281940Y200660D02*
Y221560D01*
X317270Y284480D02*
Y301100D01*
X246380Y350750D02*
Y363220D01*
X246150Y350520D02*
X246380Y350750D01*
X300990Y328150D02*
Y347980D01*
X300350Y327510D02*
X300990Y328150D01*
X281940Y359410D02*
X289560D01*
X300990Y347980D01*
X310360Y317500D02*
X317270D01*
X300350Y327510D02*
X310360Y317500D01*
X278130Y355600D02*
X281940Y359410D01*
X273300Y341880D02*
X278130Y346710D01*
Y355600D01*
X239922Y341880D02*
X273300D01*
X237690Y325960D02*
X246150Y317500D01*
X237690Y339648D02*
X239922Y341880D01*
X237690Y325960D02*
Y339648D01*
X321080Y280670D02*
X342900D01*
X317270Y284480D02*
X321080Y280670D01*
X287020Y351790D02*
X293850Y344960D01*
Y327510D02*
Y344960D01*
X287350Y325845D02*
Y327510D01*
Y325845D02*
X287790Y325405D01*
X280850Y327510D02*
X281290Y327070D01*
X280850Y327510D02*
X281290D01*
X275250Y306180D02*
X285492D01*
X293410Y298262D01*
Y286010D02*
X293850D01*
X293410D02*
Y298262D01*
X263930Y317500D02*
X275250Y306180D01*
X286910Y286450D02*
X287350Y286010D01*
X286975Y285635D02*
X287350Y286010D01*
X283387Y301100D02*
X286975Y297512D01*
X286910Y285700D02*
X286975Y285635D01*
Y297512D01*
X263930Y301100D02*
X283387D01*
X299910Y285570D02*
X300350Y286010D01*
X299910Y276750D02*
Y285570D01*
X270158Y275840D02*
X272798Y273200D01*
X257702Y275840D02*
X270158D01*
X296360Y273200D02*
X299910Y276750D01*
X272798Y273200D02*
X296360D01*
X243840Y269360D02*
X251222D01*
X304314Y314266D02*
X304800Y313780D01*
X302084Y314700D02*
X302518Y314266D01*
X304314D01*
X291340Y314700D02*
X302084D01*
X287790Y318250D02*
Y325405D01*
Y318250D02*
X291340Y314700D01*
X273050Y292100D02*
X273355Y291795D01*
X279945D01*
X280850Y286010D02*
Y290890D01*
X279945Y291795D02*
X280850Y290890D01*
X171450Y429030D02*
X172490Y430070D01*
X155980D02*
X156210Y429840D01*
Y408940D02*
Y429840D01*
X189430Y430070D02*
X190500Y431140D01*
X172490Y430070D02*
X189430D01*
X154910Y431140D02*
X155980Y430070D01*
X138430Y431140D02*
X154910D01*
D18*
X456790Y427419D02*
D03*
X450290D02*
D03*
X443790D02*
D03*
X437290D02*
D03*
Y453961D02*
D03*
X443790D02*
D03*
X450290D02*
D03*
X456790D02*
D03*
D19*
X482730Y522920D02*
D03*
X506730Y502920D02*
D03*
X482730Y517920D02*
D03*
Y512920D02*
D03*
Y507920D02*
D03*
Y502920D02*
D03*
X506730Y507920D02*
D03*
Y512920D02*
D03*
Y517920D02*
D03*
Y522920D02*
D03*
D20*
X499740Y742800D02*
D03*
X493240D02*
D03*
X486740D02*
D03*
X480240D02*
D03*
X499740Y701300D02*
D03*
X493240D02*
D03*
X486740D02*
D03*
X480240D02*
D03*
X100960Y742800D02*
D03*
X94460D02*
D03*
X87960D02*
D03*
X81460D02*
D03*
X100960Y701300D02*
D03*
X94460D02*
D03*
X87960D02*
D03*
X81460D02*
D03*
X337180Y535910D02*
D03*
X330680D02*
D03*
X324180D02*
D03*
X317680D02*
D03*
X337180Y494410D02*
D03*
X330680D02*
D03*
X324180D02*
D03*
X317680D02*
D03*
X493390Y327510D02*
D03*
X486890D02*
D03*
X480390D02*
D03*
X473890D02*
D03*
X493390Y286010D02*
D03*
X486890D02*
D03*
X480390D02*
D03*
X473890D02*
D03*
X300350Y327510D02*
D03*
X293850D02*
D03*
X287350D02*
D03*
X280850D02*
D03*
X300350Y286010D02*
D03*
X293850D02*
D03*
X287350D02*
D03*
X280850D02*
D03*
X107310Y327510D02*
D03*
X100810D02*
D03*
X94310D02*
D03*
X87810D02*
D03*
X107310Y286010D02*
D03*
X100810D02*
D03*
X94310D02*
D03*
X87810D02*
D03*
X174620Y535790D02*
D03*
X168120D02*
D03*
X161620D02*
D03*
X155120D02*
D03*
X174620Y494290D02*
D03*
X168120D02*
D03*
X161620D02*
D03*
X155120D02*
D03*
D21*
X245260Y746120D02*
D03*
Y739620D02*
D03*
Y733120D02*
D03*
Y726620D02*
D03*
X286760Y746120D02*
D03*
Y739620D02*
D03*
Y733120D02*
D03*
Y726620D02*
D03*
D22*
X419100Y781050D02*
D03*
X217468Y675749D02*
D03*
X20320Y781050D02*
D03*
X251460Y563880D02*
D03*
X412750Y365760D02*
D03*
X219710D02*
D03*
X26670D02*
D03*
X93980Y574040D02*
D03*
X433070Y781050D02*
D03*
X199390Y683260D02*
D03*
X34290Y781050D02*
D03*
X270510Y574160D02*
D03*
X426720Y365760D02*
D03*
X233680D02*
D03*
X53340Y374650D02*
D03*
X107950Y574040D02*
D03*
X429260Y732790D02*
D03*
X255270Y675640D02*
D03*
X30480Y732790D02*
D03*
X266700Y525900D02*
D03*
X422910Y317500D02*
D03*
X229870D02*
D03*
X36830D02*
D03*
X104140Y525780D02*
D03*
X429260Y720598D02*
D03*
X267462Y675640D02*
D03*
X30480Y720598D02*
D03*
X266700Y513708D02*
D03*
X422910Y305308D02*
D03*
X229870D02*
D03*
X36830D02*
D03*
X104140Y513588D02*
D03*
X541020Y617220D02*
D03*
X370840Y407670D02*
D03*
X383032D02*
D03*
D23*
X423600Y410210D02*
D03*
X440000D02*
D03*
X456620D02*
D03*
X473020D02*
D03*
X446460Y472440D02*
D03*
X462860D02*
D03*
X271670Y763040D02*
D03*
X255270D02*
D03*
X304690D02*
D03*
X288290D02*
D03*
X222250Y691920D02*
D03*
X238650D02*
D03*
X222250Y709700D02*
D03*
X238650D02*
D03*
X255270Y691920D02*
D03*
X271670D02*
D03*
X498190Y668710D02*
D03*
X481790D02*
D03*
X99410D02*
D03*
X83010D02*
D03*
X335630Y461820D02*
D03*
X319230D02*
D03*
X491840Y253420D02*
D03*
X475440D02*
D03*
X298800D02*
D03*
X282400D02*
D03*
X105760D02*
D03*
X89360D02*
D03*
X173070Y461700D02*
D03*
X156670D02*
D03*
X271670Y709700D02*
D03*
X255270D02*
D03*
X304690D02*
D03*
X288290D02*
D03*
D24*
X196850Y667330D02*
D03*
Y650930D02*
D03*
X179070Y667330D02*
D03*
Y650930D02*
D03*
X541250Y586200D02*
D03*
Y569800D02*
D03*
X508486Y395636D02*
D03*
Y379236D02*
D03*
X552936Y396111D02*
D03*
Y379711D02*
D03*
X462324Y489122D02*
D03*
Y505522D02*
D03*
Y521467D02*
D03*
Y537867D02*
D03*
X516660Y716390D02*
D03*
Y732790D02*
D03*
X117880Y716390D02*
D03*
Y732790D02*
D03*
X354100Y509500D02*
D03*
Y525900D02*
D03*
X510310Y301100D02*
D03*
Y317500D02*
D03*
X317270Y301100D02*
D03*
Y317500D02*
D03*
X124230Y301100D02*
D03*
Y317500D02*
D03*
X191540Y509380D02*
D03*
Y525780D02*
D03*
X516660Y683370D02*
D03*
Y699770D02*
D03*
X117880Y683370D02*
D03*
Y699770D02*
D03*
X354100Y476480D02*
D03*
Y492880D02*
D03*
X510310Y268080D02*
D03*
Y284480D02*
D03*
X317270Y268080D02*
D03*
Y284480D02*
D03*
X124230Y268080D02*
D03*
Y284480D02*
D03*
X191540Y476360D02*
D03*
Y492760D02*
D03*
X445540Y765810D02*
D03*
Y749410D02*
D03*
X46760Y765810D02*
D03*
Y749410D02*
D03*
X282980Y558920D02*
D03*
Y542520D02*
D03*
X439190Y350520D02*
D03*
Y334120D02*
D03*
X246150Y350520D02*
D03*
Y334120D02*
D03*
X53110Y350520D02*
D03*
Y334120D02*
D03*
X120420Y558800D02*
D03*
Y542400D02*
D03*
X463320Y765810D02*
D03*
Y749410D02*
D03*
X64540Y765810D02*
D03*
Y749410D02*
D03*
X300760Y558920D02*
D03*
Y542520D02*
D03*
X456970Y350520D02*
D03*
Y334120D02*
D03*
X263930Y350520D02*
D03*
Y334120D02*
D03*
X70890Y350520D02*
D03*
Y334120D02*
D03*
X138200Y558800D02*
D03*
Y542400D02*
D03*
X445540Y732790D02*
D03*
Y716390D02*
D03*
X46760Y732790D02*
D03*
Y716390D02*
D03*
X282980Y525900D02*
D03*
Y509500D02*
D03*
X439190Y317500D02*
D03*
Y301100D02*
D03*
X246150Y317500D02*
D03*
Y301100D02*
D03*
X53110Y317500D02*
D03*
Y301100D02*
D03*
X120420Y525780D02*
D03*
Y509380D02*
D03*
X319350Y744570D02*
D03*
Y728170D02*
D03*
X463320Y716390D02*
D03*
Y732790D02*
D03*
X64540Y716390D02*
D03*
Y732790D02*
D03*
X300760Y509500D02*
D03*
Y525900D02*
D03*
X456970Y301100D02*
D03*
Y317500D02*
D03*
X263930Y301100D02*
D03*
Y317500D02*
D03*
X70890Y301100D02*
D03*
Y317500D02*
D03*
X138200Y509380D02*
D03*
Y525780D02*
D03*
X463320Y683370D02*
D03*
Y699770D02*
D03*
X64540Y683370D02*
D03*
Y699770D02*
D03*
X300760Y476480D02*
D03*
Y492880D02*
D03*
X456970Y268080D02*
D03*
Y284480D02*
D03*
X263930Y268080D02*
D03*
Y284480D02*
D03*
X70890Y268080D02*
D03*
Y284480D02*
D03*
X138200Y476360D02*
D03*
Y492760D02*
D03*
D25*
X444880Y506060D02*
D03*
Y489060D02*
D03*
D26*
X526794Y585185D02*
D03*
Y569185D02*
D03*
X494030Y395350D02*
D03*
Y379350D02*
D03*
X538480Y395350D02*
D03*
Y379350D02*
D03*
D27*
X421970Y454233D02*
D03*
Y469233D02*
D03*
X527050Y511690D02*
D03*
Y496690D02*
D03*
X444880Y538080D02*
D03*
Y523080D02*
D03*
X497610Y652080D02*
D03*
Y637080D02*
D03*
X98830Y652080D02*
D03*
Y637080D02*
D03*
X335050Y445190D02*
D03*
Y430190D02*
D03*
X491260Y236790D02*
D03*
Y221790D02*
D03*
X298220Y236790D02*
D03*
Y221790D02*
D03*
X105180Y236790D02*
D03*
Y221790D02*
D03*
X172490Y445070D02*
D03*
Y430070D02*
D03*
X214630Y640200D02*
D03*
Y655200D02*
D03*
X443230Y684650D02*
D03*
Y699650D02*
D03*
X44450Y684650D02*
D03*
Y699650D02*
D03*
X280670Y477760D02*
D03*
Y492760D02*
D03*
X436880Y269360D02*
D03*
Y284360D02*
D03*
X243840Y269360D02*
D03*
Y284360D02*
D03*
X50800Y269360D02*
D03*
Y284360D02*
D03*
X118110Y477640D02*
D03*
Y492640D02*
D03*
X443230Y667900D02*
D03*
Y652900D02*
D03*
X44450Y667900D02*
D03*
Y652900D02*
D03*
X280670Y461010D02*
D03*
Y446010D02*
D03*
X436880Y252610D02*
D03*
Y237610D02*
D03*
X243840Y252610D02*
D03*
Y237610D02*
D03*
X50800Y252610D02*
D03*
Y237610D02*
D03*
X118110Y460890D02*
D03*
Y445890D02*
D03*
X481100Y652080D02*
D03*
Y637080D02*
D03*
X82320Y652080D02*
D03*
Y637080D02*
D03*
X318540Y445190D02*
D03*
Y430190D02*
D03*
X474750Y236790D02*
D03*
Y221790D02*
D03*
X281710Y236790D02*
D03*
Y221790D02*
D03*
X88670Y236790D02*
D03*
Y221790D02*
D03*
X155980Y445070D02*
D03*
Y430070D02*
D03*
D28*
X510372Y540761D02*
D03*
X483652D02*
D03*
X326389Y606418D02*
D03*
X353109D02*
D03*
X323190Y762000D02*
D03*
X349910D02*
D03*
X323190Y709930D02*
D03*
X349910D02*
D03*
D29*
X547370Y495910D02*
D03*
Y522630D02*
D03*
X515620Y664870D02*
D03*
Y638150D02*
D03*
X116840Y664870D02*
D03*
Y638150D02*
D03*
X353060Y457980D02*
D03*
Y431260D02*
D03*
X509270Y249580D02*
D03*
Y222860D02*
D03*
X316230Y249580D02*
D03*
Y222860D02*
D03*
X123190Y249580D02*
D03*
Y222860D02*
D03*
X190500Y457860D02*
D03*
Y431140D02*
D03*
X234950Y664870D02*
D03*
Y638150D02*
D03*
X463550Y664870D02*
D03*
Y638150D02*
D03*
X64770Y664870D02*
D03*
Y638150D02*
D03*
X300990Y457980D02*
D03*
Y431260D02*
D03*
X457200Y249580D02*
D03*
Y222860D02*
D03*
X264160Y249580D02*
D03*
Y222860D02*
D03*
X71120Y249580D02*
D03*
Y222860D02*
D03*
X138430Y457860D02*
D03*
Y431140D02*
D03*
D30*
X352940Y624840D02*
D03*
X337940D02*
D03*
X407550Y502920D02*
D03*
X392550D02*
D03*
X335980Y743990D02*
D03*
X350980D02*
D03*
X303410Y689610D02*
D03*
X288410D02*
D03*
X320160D02*
D03*
X335160D02*
D03*
X335980Y727480D02*
D03*
X350980D02*
D03*
D44*
X188849Y147320D02*
D03*
X382651D02*
D03*
X368808Y118872D02*
D03*
X354965Y147320D02*
D03*
X341122Y118872D02*
D03*
X327279Y147320D02*
D03*
X313436Y118872D02*
D03*
X299593Y147320D02*
D03*
X285750Y118872D02*
D03*
X271907Y147320D02*
D03*
X258064Y118872D02*
D03*
X244221Y147320D02*
D03*
X230378Y118872D02*
D03*
X216535Y147320D02*
D03*
X202692Y118872D02*
D03*
X382651Y79756D02*
D03*
X368808Y51308D02*
D03*
X354965Y79756D02*
D03*
X341122Y51308D02*
D03*
X327279Y79756D02*
D03*
X313436Y51308D02*
D03*
X299593Y79756D02*
D03*
X285750Y51308D02*
D03*
X271907Y79756D02*
D03*
X258064Y51308D02*
D03*
X244221Y79756D02*
D03*
X230378Y51308D02*
D03*
X216535Y79756D02*
D03*
X202692Y51308D02*
D03*
X188849Y79756D02*
D03*
D48*
X392280Y484124D02*
D03*
X405280D02*
D03*
Y463296D02*
D03*
X398780D02*
D03*
X392280D02*
D03*
D49*
X494730Y512920D02*
D03*
D50*
X392295Y484139D02*
Y501635D01*
X392550Y502920D02*
X392800D01*
X392295Y501635D02*
X392310Y501650D01*
X392280Y484124D02*
X392295Y484139D01*
X490220Y410210D02*
X492760Y412750D01*
X473020Y410210D02*
X490220D01*
X423600Y409510D02*
Y410210D01*
X410330Y396240D02*
X423600Y409510D01*
X402590Y396240D02*
X410330D01*
X421030Y468043D02*
X421970Y468983D01*
Y469233D01*
X444880Y489060D02*
X445510D01*
X446460Y488110D01*
Y472440D02*
Y488110D01*
X421970Y469483D02*
X434340Y481853D01*
Y488950D01*
X414020Y433070D02*
X421030Y440080D01*
Y453293D01*
X248920Y628650D02*
X256540D01*
X243840Y622300D02*
X256540D01*
X234950Y638150D02*
X235889Y637211D01*
Y626276D02*
Y637211D01*
X248920Y664210D02*
X249130Y664000D01*
Y628860D02*
Y664000D01*
X248920Y628650D02*
X249130Y628860D01*
X256540Y628650D02*
Y656590D01*
X248920Y664210D02*
X256540Y656590D01*
X235610Y664210D02*
X248920D01*
X234950Y664870D02*
X235610Y664210D01*
X233050Y664870D02*
X234950D01*
X224570Y656390D02*
X233050Y664870D01*
X215570Y656390D02*
X224570D01*
X214630Y655450D02*
X215570Y656390D01*
X214630Y655200D02*
Y655450D01*
X179070Y650930D02*
X196850D01*
Y629304D02*
Y650930D01*
Y629304D02*
X201314Y624840D01*
X212090D01*
X213690Y639260D02*
X214630Y640200D01*
X213690Y630866D02*
Y639260D01*
X212090Y629266D02*
X213690Y630866D01*
X212090Y624840D02*
Y629266D01*
X213360Y626110D02*
X219710D01*
X227330D01*
X398780Y543560D02*
X402590Y539750D01*
Y515004D02*
Y539750D01*
X397470Y509884D02*
X402590Y515004D01*
X397470Y507590D02*
Y509884D01*
X392800Y502920D02*
X397470Y507590D01*
X421030Y453293D02*
X421970Y454233D01*
X433913D02*
X434340Y454660D01*
X421970Y454233D02*
X433913D01*
X432670Y538080D02*
X444880D01*
X429260Y534670D02*
X432670Y538080D01*
X429260Y511810D02*
Y534670D01*
Y511810D02*
X435010Y506060D01*
X444880D01*
X465918Y540761D02*
X483652D01*
X462111Y538080D02*
X462324Y537867D01*
X444880Y538080D02*
X462111D01*
X463024Y537867D02*
X465918Y540761D01*
X482730Y539839D02*
X483652Y540761D01*
X482730Y522920D02*
Y539839D01*
X496570Y532130D02*
Y539750D01*
X498268Y540761D02*
X510372D01*
D51*
X498230Y512920D02*
D03*
X491230D02*
D03*
X494730Y520420D02*
D03*
Y505420D02*
D03*
X491800Y554870D02*
D03*
X498800D02*
D03*
X495300Y562370D02*
D03*
Y547370D02*
D03*
X128501Y92941D02*
D03*
X419141Y151724D02*
D03*
X41275Y186690D02*
D03*
X555625Y796290D02*
D03*
X546100Y662940D02*
D03*
X555625Y643890D02*
D03*
X546100Y624840D02*
D03*
X555625Y605790D02*
D03*
Y148590D02*
D03*
X546100Y129540D02*
D03*
X555625Y110490D02*
D03*
Y34290D02*
D03*
X546100Y15240D02*
D03*
X536575Y796290D02*
D03*
Y643890D02*
D03*
X527050Y624840D02*
D03*
Y320040D02*
D03*
X536575Y224790D02*
D03*
X527050Y205740D02*
D03*
Y129540D02*
D03*
X536575Y110490D02*
D03*
X527050Y15240D02*
D03*
X517525Y605790D02*
D03*
Y567690D02*
D03*
Y186690D02*
D03*
X508000Y167640D02*
D03*
X517525Y110490D02*
D03*
X508000Y15240D02*
D03*
X498475Y796290D02*
D03*
Y605790D02*
D03*
Y186690D02*
D03*
X488950Y167640D02*
D03*
Y91440D02*
D03*
Y53340D02*
D03*
X498475Y34290D02*
D03*
X488950Y15240D02*
D03*
X479425Y796290D02*
D03*
X469900Y167640D02*
D03*
X479425Y148590D02*
D03*
Y72390D02*
D03*
Y34290D02*
D03*
X469900Y15240D02*
D03*
X460375Y567690D02*
D03*
Y529590D02*
D03*
Y186690D02*
D03*
X450850Y15240D02*
D03*
X441325Y796290D02*
D03*
X431800Y358140D02*
D03*
X441325Y224790D02*
D03*
Y186690D02*
D03*
X431800Y167640D02*
D03*
Y91440D02*
D03*
Y15240D02*
D03*
X422275Y796290D02*
D03*
Y224790D02*
D03*
X412750Y205740D02*
D03*
X422275Y186690D02*
D03*
X412750Y167640D02*
D03*
Y91440D02*
D03*
X422275Y34290D02*
D03*
X412750Y15240D02*
D03*
X393700Y777240D02*
D03*
X403225Y339090D02*
D03*
Y300990D02*
D03*
Y224790D02*
D03*
X393700Y205740D02*
D03*
X403225Y186690D02*
D03*
X393700Y91440D02*
D03*
Y53340D02*
D03*
X403225Y34290D02*
D03*
X393700Y15240D02*
D03*
X384175Y796290D02*
D03*
X374650Y777240D02*
D03*
X384175Y758190D02*
D03*
Y681990D02*
D03*
Y453390D02*
D03*
X374650Y358140D02*
D03*
Y320040D02*
D03*
Y281940D02*
D03*
Y243840D02*
D03*
X384175Y34290D02*
D03*
X374650Y15240D02*
D03*
X365125Y796290D02*
D03*
X355600Y777240D02*
D03*
X365125Y415290D02*
D03*
Y339090D02*
D03*
Y300990D02*
D03*
X355600Y281940D02*
D03*
X365125Y262890D02*
D03*
X355600Y243840D02*
D03*
X365125Y224790D02*
D03*
X355600Y205740D02*
D03*
X365125Y186690D02*
D03*
X355600Y53340D02*
D03*
X365125Y34290D02*
D03*
X355600Y15240D02*
D03*
X346075Y796290D02*
D03*
X336550Y777240D02*
D03*
X346075Y224790D02*
D03*
X336550Y205740D02*
D03*
X346075Y34290D02*
D03*
X336550Y15240D02*
D03*
X327025Y796290D02*
D03*
Y186690D02*
D03*
Y34290D02*
D03*
X317500Y15240D02*
D03*
X298450Y777240D02*
D03*
X307975Y377190D02*
D03*
Y262890D02*
D03*
Y34290D02*
D03*
X298450Y15240D02*
D03*
X288925Y796290D02*
D03*
Y567690D02*
D03*
Y377190D02*
D03*
Y72390D02*
D03*
X279400Y15240D02*
D03*
X260350Y396240D02*
D03*
X269875Y186690D02*
D03*
X250825Y224790D02*
D03*
Y186690D02*
D03*
X241300Y129540D02*
D03*
X231775Y377190D02*
D03*
Y224790D02*
D03*
X222250Y205740D02*
D03*
X203200Y701040D02*
D03*
Y358140D02*
D03*
X212725Y339090D02*
D03*
X203200Y320040D02*
D03*
X212725Y300990D02*
D03*
X203200Y281940D02*
D03*
Y243840D02*
D03*
X212725Y224790D02*
D03*
X203200Y205740D02*
D03*
X193675Y796290D02*
D03*
Y758190D02*
D03*
Y377190D02*
D03*
X184150Y167640D02*
D03*
Y53340D02*
D03*
Y15240D02*
D03*
X165100Y777240D02*
D03*
Y739140D02*
D03*
Y701040D02*
D03*
Y358140D02*
D03*
X174625Y339090D02*
D03*
Y300990D02*
D03*
X165100Y281940D02*
D03*
X174625Y262890D02*
D03*
X165100Y243840D02*
D03*
X174625Y224790D02*
D03*
X165100Y205740D02*
D03*
X174625Y186690D02*
D03*
X165100Y167640D02*
D03*
X174625Y148590D02*
D03*
Y72390D02*
D03*
X165100Y15240D02*
D03*
X155575Y720090D02*
D03*
X146050Y662940D02*
D03*
Y624840D02*
D03*
X155575Y605790D02*
D03*
Y377190D02*
D03*
Y224790D02*
D03*
X146050Y205740D02*
D03*
X155575Y186690D02*
D03*
X146050Y167640D02*
D03*
X155575Y148590D02*
D03*
Y110490D02*
D03*
X146050Y91440D02*
D03*
X155575Y72390D02*
D03*
Y34290D02*
D03*
X146050Y15240D02*
D03*
X136525Y643890D02*
D03*
X127000Y624840D02*
D03*
X136525Y605790D02*
D03*
Y224790D02*
D03*
Y186690D02*
D03*
Y110490D02*
D03*
Y34290D02*
D03*
X127000Y15240D02*
D03*
X117475Y377190D02*
D03*
Y186690D02*
D03*
X107950Y167640D02*
D03*
Y15240D02*
D03*
X98425Y605790D02*
D03*
X88900Y586740D02*
D03*
X98425Y377190D02*
D03*
X88900Y167640D02*
D03*
X98425Y148590D02*
D03*
X88900Y129540D02*
D03*
Y91440D02*
D03*
X98425Y72390D02*
D03*
X88900Y53340D02*
D03*
X98425Y34290D02*
D03*
X88900Y15240D02*
D03*
X79375Y529590D02*
D03*
X69850Y472440D02*
D03*
X79375Y186690D02*
D03*
X69850Y167640D02*
D03*
X79375Y148590D02*
D03*
X69850Y91440D02*
D03*
X79375Y72390D02*
D03*
Y34290D02*
D03*
X69850Y15240D02*
D03*
X50800Y624840D02*
D03*
Y586740D02*
D03*
Y548640D02*
D03*
Y510540D02*
D03*
X60325Y491490D02*
D03*
Y186690D02*
D03*
X50800Y167640D02*
D03*
X60325Y148590D02*
D03*
Y110490D02*
D03*
X50800Y15240D02*
D03*
X31750Y586740D02*
D03*
X41275Y567690D02*
D03*
X31750Y548640D02*
D03*
X41275Y529590D02*
D03*
X31750Y510540D02*
D03*
X41275Y491490D02*
D03*
X31750Y396240D02*
D03*
X41275Y224790D02*
D03*
X31750Y129540D02*
D03*
X41275Y110490D02*
D03*
X31750Y15240D02*
D03*
X22225Y796290D02*
D03*
X12700Y777240D02*
D03*
Y739140D02*
D03*
Y701040D02*
D03*
Y624840D02*
D03*
X22225Y605790D02*
D03*
X12700Y586740D02*
D03*
X22225Y567690D02*
D03*
X12700Y548640D02*
D03*
X22225Y529590D02*
D03*
X12700Y510540D02*
D03*
X22225Y491490D02*
D03*
X12700Y472440D02*
D03*
X22225Y415290D02*
D03*
X12700Y396240D02*
D03*
Y358140D02*
D03*
Y320040D02*
D03*
Y281940D02*
D03*
Y243840D02*
D03*
Y205740D02*
D03*
Y167640D02*
D03*
X22225Y148590D02*
D03*
X12700Y129540D02*
D03*
X22225Y110490D02*
D03*
X12700Y91440D02*
D03*
X22225Y34290D02*
D03*
X12700Y15240D02*
D03*
X227330Y589280D02*
D03*
X217170D02*
D03*
X207793Y575310D02*
D03*
X238760Y589280D02*
D03*
X199390Y589291D02*
D03*
X205740Y589280D02*
D03*
X243840Y581660D02*
D03*
X260350Y576700D02*
D03*
Y585470D02*
D03*
X434340Y496570D02*
D03*
X472440Y452120D02*
D03*
X464820D02*
D03*
X478790Y379730D02*
D03*
X473710Y384810D02*
D03*
X468630Y389890D02*
D03*
X456629Y399351D02*
D03*
X450850Y387350D02*
D03*
X400050Y473710D02*
D03*
X306070Y306070D02*
D03*
X436880Y471170D02*
D03*
X434340Y488950D02*
D03*
X404397Y560332D02*
D03*
X405130Y448310D02*
D03*
X402590Y396240D02*
D03*
X436880Y480060D02*
D03*
X235889Y626276D02*
D03*
X256540Y622300D02*
D03*
X250190D02*
D03*
X205740Y431800D02*
D03*
X243840Y622300D02*
D03*
X184150Y604520D02*
D03*
X256540Y628650D02*
D03*
X248920D02*
D03*
X160020Y650240D02*
D03*
X151130D02*
D03*
X538480Y406400D02*
D03*
X502920Y408940D02*
D03*
X398780Y543560D02*
D03*
X394970Y518160D02*
D03*
Y525780D02*
D03*
X405130Y568960D02*
D03*
X275590Y624840D02*
D03*
X365760Y621030D02*
D03*
X373380D02*
D03*
X388620Y613410D02*
D03*
X396240D02*
D03*
X388620Y621030D02*
D03*
X396240D02*
D03*
X394970Y593090D02*
D03*
X425450Y588010D02*
D03*
Y595630D02*
D03*
Y604520D02*
D03*
X433070D02*
D03*
X405130Y576580D02*
D03*
X492760Y412750D02*
D03*
Y420370D02*
D03*
X402590Y387350D02*
D03*
X414020Y433070D02*
D03*
X369570Y669290D02*
D03*
X377190D02*
D03*
X425450Y612140D02*
D03*
X365760Y628650D02*
D03*
X373380D02*
D03*
X339090Y656590D02*
D03*
X381000Y621030D02*
D03*
X295910Y656590D02*
D03*
X271780D02*
D03*
X402590Y405130D02*
D03*
X243840Y397510D02*
D03*
X398780Y443230D02*
D03*
X391160D02*
D03*
X383540D02*
D03*
X443230Y387350D02*
D03*
X160020Y627380D02*
D03*
Y636270D02*
D03*
X212090Y624840D02*
D03*
X219710Y626110D02*
D03*
X227330D02*
D03*
X478790Y435610D02*
D03*
Y427990D02*
D03*
X402590Y254000D02*
D03*
Y261620D02*
D03*
Y269240D02*
D03*
X290830Y471290D02*
D03*
X289560Y478910D02*
D03*
X248920Y532130D02*
D03*
Y539750D02*
D03*
X270510Y553840D02*
D03*
X251460Y555110D02*
D03*
X260350D02*
D03*
X283210Y571620D02*
D03*
X300990Y581780D02*
D03*
X276860Y584200D02*
D03*
X318770Y409060D02*
D03*
X334010D02*
D03*
X373380Y450970D02*
D03*
X344170Y483990D02*
D03*
X379730Y489070D02*
D03*
X344170Y491490D02*
D03*
Y499110D02*
D03*
X309880Y500500D02*
D03*
X344170Y506730D02*
D03*
X339090Y509270D02*
D03*
X342900Y514350D02*
D03*
X341630Y522180D02*
D03*
X323850Y560190D02*
D03*
X368990Y578660D02*
D03*
X334010Y589280D02*
D03*
X325120D02*
D03*
X316230D02*
D03*
X344170D02*
D03*
X397574Y585929D02*
D03*
X45720Y367030D02*
D03*
X37020Y366955D02*
D03*
X500380Y283210D02*
D03*
Y290830D02*
D03*
Y297180D02*
D03*
X499110Y306070D02*
D03*
X495300Y300990D02*
D03*
X302260D02*
D03*
X307340Y298450D02*
D03*
Y290830D02*
D03*
Y283210D02*
D03*
X114300D02*
D03*
Y290830D02*
D03*
Y298450D02*
D03*
X113030Y306070D02*
D03*
X109220Y300990D02*
D03*
X176530Y509270D02*
D03*
X180340Y514350D02*
D03*
X182880Y506730D02*
D03*
X181610Y499110D02*
D03*
Y491490D02*
D03*
X501650Y718820D02*
D03*
X505460Y722630D02*
D03*
X506730Y715010D02*
D03*
Y699770D02*
D03*
X266700Y751840D02*
D03*
X274320Y753110D02*
D03*
X289560D02*
D03*
X270510Y748030D02*
D03*
X281940Y753110D02*
D03*
X107950Y698500D02*
D03*
Y713740D02*
D03*
X506730Y707390D02*
D03*
X102870Y717550D02*
D03*
X107950Y706120D02*
D03*
X106680Y722630D02*
D03*
X137160Y657860D02*
D03*
X34290Y760730D02*
D03*
X64770Y788670D02*
D03*
X54610Y678180D02*
D03*
X46990Y778510D02*
D03*
X143510Y695960D02*
D03*
X87630Y767080D02*
D03*
X53340Y685800D02*
D03*
X105410Y729070D02*
D03*
X107950Y690880D02*
D03*
X73660Y707390D02*
D03*
X469317Y548640D02*
D03*
X440690Y588010D02*
D03*
X433070D02*
D03*
X440690Y595630D02*
D03*
X433070D02*
D03*
X541020Y601980D02*
D03*
X203200Y88900D02*
D03*
X219710Y195580D02*
D03*
X416560Y346710D02*
D03*
X562610Y317500D02*
D03*
Y309880D02*
D03*
X364490Y317500D02*
D03*
X356870D02*
D03*
X207010Y254000D02*
D03*
Y261620D02*
D03*
Y269240D02*
D03*
X13970Y254000D02*
D03*
Y261620D02*
D03*
Y269240D02*
D03*
X170180Y309880D02*
D03*
Y317500D02*
D03*
X74930Y403860D02*
D03*
X82550D02*
D03*
X87630Y408940D02*
D03*
X243840Y389890D02*
D03*
Y405130D02*
D03*
X558800Y725170D02*
D03*
Y732790D02*
D03*
X377190Y676910D02*
D03*
X256540Y803910D02*
D03*
X248920D02*
D03*
X516890Y505460D02*
D03*
X381000Y628650D02*
D03*
X464820Y459740D02*
D03*
X472440Y467360D02*
D03*
Y459740D02*
D03*
Y474980D02*
D03*
X153670Y732790D02*
D03*
X161290D02*
D03*
X12065Y662305D02*
D03*
Y669925D02*
D03*
Y677545D02*
D03*
X496570Y532130D02*
D03*
Y539750D02*
D03*
X210820Y450850D02*
D03*
X217170Y488950D02*
D03*
X181610Y483870D02*
D03*
X179070Y522060D02*
D03*
X107950Y553720D02*
D03*
X120650Y571500D02*
D03*
X138430Y581660D02*
D03*
X127000Y478790D02*
D03*
X161290Y560070D02*
D03*
X147320Y500380D02*
D03*
X128270Y471170D02*
D03*
X481330Y615950D02*
D03*
X88900Y554990D02*
D03*
X326390Y656590D02*
D03*
X209550Y683260D02*
D03*
Y674370D02*
D03*
X351790Y656590D02*
D03*
X279110Y35015D02*
D03*
X281940Y27940D02*
D03*
X474980Y200660D02*
D03*
X139120Y370260D02*
D03*
X97790Y554990D02*
D03*
X88900Y200660D02*
D03*
X132770Y785550D02*
D03*
X299720Y622300D02*
D03*
X290830D02*
D03*
X313690Y624840D02*
D03*
X414020Y762000D02*
D03*
X283210Y591820D02*
D03*
X407670Y346710D02*
D03*
X332160Y370260D02*
D03*
X447040Y262890D02*
D03*
X490220Y200660D02*
D03*
X466090Y292100D02*
D03*
X529590Y242570D02*
D03*
X535940Y280670D02*
D03*
X500380Y275590D02*
D03*
X480060Y351790D02*
D03*
X439420Y363220D02*
D03*
X445770Y270510D02*
D03*
X497840Y313780D02*
D03*
X525200Y370260D02*
D03*
X426720Y345440D02*
D03*
X457200Y373380D02*
D03*
X171207Y408697D02*
D03*
X156210Y408940D02*
D03*
X330200Y782320D02*
D03*
X227330Y679450D02*
D03*
X372110Y742950D02*
D03*
X199390Y709930D02*
D03*
X309880Y699770D02*
D03*
X372110Y727710D02*
D03*
X209550Y692150D02*
D03*
X202510Y777930D02*
D03*
X292100Y788670D02*
D03*
X220980Y732790D02*
D03*
X302260Y698500D02*
D03*
X258990Y750570D02*
D03*
X297180Y753110D02*
D03*
X280670Y718820D02*
D03*
X535940Y657860D02*
D03*
X433070Y760730D02*
D03*
X496570Y615950D02*
D03*
X463550Y788670D02*
D03*
X453390Y678180D02*
D03*
X422910Y762000D02*
D03*
X445770Y778510D02*
D03*
X531550Y785550D02*
D03*
X542290Y695960D02*
D03*
X486410Y767080D02*
D03*
X452120Y685800D02*
D03*
X504190Y729070D02*
D03*
X506730Y690880D02*
D03*
X472440Y707390D02*
D03*
X97790Y615950D02*
D03*
X15240Y762000D02*
D03*
X82550Y615950D02*
D03*
X24130Y762000D02*
D03*
X80010Y292100D02*
D03*
X111760Y313780D02*
D03*
X59690Y270510D02*
D03*
X53340Y363220D02*
D03*
X60960Y262890D02*
D03*
X71120Y373380D02*
D03*
X143510Y242570D02*
D03*
X93980Y351790D02*
D03*
X149860Y280670D02*
D03*
X114300Y275590D02*
D03*
X104140Y200660D02*
D03*
X40640Y345440D02*
D03*
X336550Y242570D02*
D03*
X233680Y345440D02*
D03*
X297180Y200660D02*
D03*
X214630Y346710D02*
D03*
X264160Y373380D02*
D03*
X254000Y262890D02*
D03*
X281940Y200660D02*
D03*
X223520Y346710D02*
D03*
X246380Y363220D02*
D03*
X342900Y280670D02*
D03*
X287020Y351790D02*
D03*
X252730Y270510D02*
D03*
X304800Y313780D02*
D03*
X307340Y275590D02*
D03*
X273050Y292100D02*
D03*
D52*
X119126Y51308D02*
D03*
X452374D02*
D03*
X119126Y131318D02*
D03*
X452374D02*
D03*
D53*
X527050Y444500D02*
D03*
X44450D02*
D03*
X527050Y63500D02*
D03*
X44450D02*
D03*
M02*
