G04*
G04 #@! TF.GenerationSoftware,Altium Limited,Altium Designer,25.2.1 (25)*
G04*
G04 Layer_Color=8388736*
%FSLAX44Y44*%
%MOMM*%
G71*
G04*
G04 #@! TF.SameCoordinates,2E8F3C69-5834-473F-A2B3-8F5DD2D09B02*
G04*
G04*
G04 #@! TF.FilePolarity,Negative*
G04*
G01*
G75*
G04:AMPARAMS|DCode=29|XSize=1.0132mm|YSize=0.4732mm|CornerRadius=0.1354mm|HoleSize=0mm|Usage=FLASHONLY|Rotation=0.000|XOffset=0mm|YOffset=0mm|HoleType=Round|Shape=RoundedRectangle|*
%AMROUNDEDRECTD29*
21,1,1.0132,0.2025,0,0,0.0*
21,1,0.7425,0.4732,0,0,0.0*
1,1,0.2707,0.3713,-0.1013*
1,1,0.2707,-0.3713,-0.1013*
1,1,0.2707,-0.3713,0.1013*
1,1,0.2707,0.3713,0.1013*
%
%ADD29ROUNDEDRECTD29*%
%ADD30R,1.4032X2.2032*%
%ADD31O,0.6532X2.0032*%
%ADD32O,2.0032X0.6532*%
%ADD33C,0.9652*%
%ADD34R,1.1332X0.9932*%
%ADD35R,0.9932X1.1332*%
%ADD36R,1.1032X0.9532*%
%ADD37R,1.0032X1.0032*%
%ADD38R,1.1532X1.2032*%
%ADD39R,1.6432X2.0232*%
%ADD40R,2.0232X1.6432*%
%ADD41R,1.2032X1.1532*%
%ADD42C,1.7018*%
%ADD43C,0.2032*%
%ADD44C,6.5532*%
%ADD45C,0.7112*%
D29*
X482730Y522920D02*
D03*
X506730Y502920D02*
D03*
X482730Y517920D02*
D03*
Y512920D02*
D03*
Y507920D02*
D03*
Y502920D02*
D03*
X506730Y507920D02*
D03*
Y512920D02*
D03*
Y517920D02*
D03*
Y522920D02*
D03*
D30*
X494730Y512920D02*
D03*
D31*
X499740Y742800D02*
D03*
X493240D02*
D03*
X486740D02*
D03*
X480240D02*
D03*
X499740Y701300D02*
D03*
X493240D02*
D03*
X486740D02*
D03*
X480240D02*
D03*
X100960Y742800D02*
D03*
X94460D02*
D03*
X87960D02*
D03*
X81460D02*
D03*
X100960Y701300D02*
D03*
X94460D02*
D03*
X87960D02*
D03*
X81460D02*
D03*
X337180Y535910D02*
D03*
X330680D02*
D03*
X324180D02*
D03*
X317680D02*
D03*
X337180Y494410D02*
D03*
X330680D02*
D03*
X324180D02*
D03*
X317680D02*
D03*
X493390Y327510D02*
D03*
X486890D02*
D03*
X480390D02*
D03*
X473890D02*
D03*
X493390Y286010D02*
D03*
X486890D02*
D03*
X480390D02*
D03*
X473890D02*
D03*
X300350Y327510D02*
D03*
X293850D02*
D03*
X287350D02*
D03*
X280850D02*
D03*
X300350Y286010D02*
D03*
X293850D02*
D03*
X287350D02*
D03*
X280850D02*
D03*
X107310Y327510D02*
D03*
X100810D02*
D03*
X94310D02*
D03*
X87810D02*
D03*
X107310Y286010D02*
D03*
X100810D02*
D03*
X94310D02*
D03*
X87810D02*
D03*
X174620Y535790D02*
D03*
X168120D02*
D03*
X161620D02*
D03*
X155120D02*
D03*
X174620Y494290D02*
D03*
X168120D02*
D03*
X161620D02*
D03*
X155120D02*
D03*
D32*
X245260Y746120D02*
D03*
Y739620D02*
D03*
Y733120D02*
D03*
Y726620D02*
D03*
X286760Y746120D02*
D03*
Y739620D02*
D03*
Y733120D02*
D03*
Y726620D02*
D03*
D33*
X419100Y781050D02*
D03*
X207010Y665480D02*
D03*
X20320Y781050D02*
D03*
X251460Y563880D02*
D03*
X412750Y365760D02*
D03*
X219710D02*
D03*
X26670D02*
D03*
X93980Y574040D02*
D03*
X433070Y781050D02*
D03*
X199390Y683260D02*
D03*
X34290Y781050D02*
D03*
X270510Y574160D02*
D03*
X426720Y365760D02*
D03*
X233680D02*
D03*
X53340Y374650D02*
D03*
X107950Y574040D02*
D03*
X429260Y732790D02*
D03*
X255270Y675640D02*
D03*
X30480Y732790D02*
D03*
X266700Y525900D02*
D03*
X422910Y317500D02*
D03*
X229870D02*
D03*
X36830D02*
D03*
X104140Y525780D02*
D03*
X429260Y720598D02*
D03*
X267462Y675640D02*
D03*
X30480Y720598D02*
D03*
X266700Y513708D02*
D03*
X422910Y305308D02*
D03*
X229870D02*
D03*
X36830D02*
D03*
X104140Y513588D02*
D03*
X541020Y617220D02*
D03*
X412750Y412750D02*
D03*
X397510D02*
D03*
D34*
X541250Y586200D02*
D03*
Y569800D02*
D03*
X448310Y404550D02*
D03*
Y420950D02*
D03*
X466090Y404550D02*
D03*
Y420950D02*
D03*
X462324Y489122D02*
D03*
Y505522D02*
D03*
Y521467D02*
D03*
Y537867D02*
D03*
X516660Y716390D02*
D03*
Y732790D02*
D03*
X117880Y716390D02*
D03*
Y732790D02*
D03*
X354100Y509500D02*
D03*
Y525900D02*
D03*
X510310Y301100D02*
D03*
Y317500D02*
D03*
X317270Y301100D02*
D03*
Y317500D02*
D03*
X124230Y301100D02*
D03*
Y317500D02*
D03*
X191540Y509380D02*
D03*
Y525780D02*
D03*
X516660Y683370D02*
D03*
Y699770D02*
D03*
X117880Y683370D02*
D03*
Y699770D02*
D03*
X354100Y476480D02*
D03*
Y492880D02*
D03*
X510310Y268080D02*
D03*
Y284480D02*
D03*
X317270Y268080D02*
D03*
Y284480D02*
D03*
X124230Y268080D02*
D03*
Y284480D02*
D03*
X191540Y476360D02*
D03*
Y492760D02*
D03*
X445540Y765810D02*
D03*
Y749410D02*
D03*
X46760Y765810D02*
D03*
Y749410D02*
D03*
X282980Y558920D02*
D03*
Y542520D02*
D03*
X439190Y350520D02*
D03*
Y334120D02*
D03*
X246150Y350520D02*
D03*
Y334120D02*
D03*
X53110Y350520D02*
D03*
Y334120D02*
D03*
X120420Y558800D02*
D03*
Y542400D02*
D03*
X463320Y765810D02*
D03*
Y749410D02*
D03*
X64540Y765810D02*
D03*
Y749410D02*
D03*
X300760Y558920D02*
D03*
Y542520D02*
D03*
X456970Y350520D02*
D03*
Y334120D02*
D03*
X263930Y350520D02*
D03*
Y334120D02*
D03*
X70890Y350520D02*
D03*
Y334120D02*
D03*
X138200Y558800D02*
D03*
Y542400D02*
D03*
X445540Y732790D02*
D03*
Y716390D02*
D03*
X46760Y732790D02*
D03*
Y716390D02*
D03*
X282980Y525900D02*
D03*
Y509500D02*
D03*
X439190Y317500D02*
D03*
Y301100D02*
D03*
X246150Y317500D02*
D03*
Y301100D02*
D03*
X53110Y317500D02*
D03*
Y301100D02*
D03*
X120420Y525780D02*
D03*
Y509380D02*
D03*
X319350Y744570D02*
D03*
Y728170D02*
D03*
X463320Y716390D02*
D03*
Y732790D02*
D03*
X64540Y716390D02*
D03*
Y732790D02*
D03*
X300760Y509500D02*
D03*
Y525900D02*
D03*
X456970Y301100D02*
D03*
Y317500D02*
D03*
X263930Y301100D02*
D03*
Y317500D02*
D03*
X70890Y301100D02*
D03*
Y317500D02*
D03*
X138200Y509380D02*
D03*
Y525780D02*
D03*
X463320Y683370D02*
D03*
Y699770D02*
D03*
X64540Y683370D02*
D03*
Y699770D02*
D03*
X300760Y476480D02*
D03*
Y492880D02*
D03*
X456970Y268080D02*
D03*
Y284480D02*
D03*
X263930Y268080D02*
D03*
Y284480D02*
D03*
X70890Y268080D02*
D03*
Y284480D02*
D03*
X138200Y476360D02*
D03*
Y492760D02*
D03*
D35*
X271670Y763040D02*
D03*
X255270D02*
D03*
X304690D02*
D03*
X288290D02*
D03*
X222250Y691920D02*
D03*
X238650D02*
D03*
X222250Y709700D02*
D03*
X238650D02*
D03*
X255270Y691920D02*
D03*
X271670D02*
D03*
X498190Y668710D02*
D03*
X481790D02*
D03*
X99410D02*
D03*
X83010D02*
D03*
X335630Y461820D02*
D03*
X319230D02*
D03*
X491840Y253420D02*
D03*
X475440D02*
D03*
X298800D02*
D03*
X282400D02*
D03*
X105760D02*
D03*
X89360D02*
D03*
X173070Y461700D02*
D03*
X156670D02*
D03*
X271670Y709700D02*
D03*
X255270D02*
D03*
X304690D02*
D03*
X288290D02*
D03*
D36*
X444880Y506060D02*
D03*
Y489060D02*
D03*
D37*
X526794Y585185D02*
D03*
Y569185D02*
D03*
X448310Y453770D02*
D03*
Y437770D02*
D03*
X466090Y453770D02*
D03*
Y437770D02*
D03*
D38*
X527050Y511690D02*
D03*
Y496690D02*
D03*
X444880Y538080D02*
D03*
Y523080D02*
D03*
X497610Y652080D02*
D03*
Y637080D02*
D03*
X98830Y652080D02*
D03*
Y637080D02*
D03*
X335050Y445190D02*
D03*
Y430190D02*
D03*
X491260Y236790D02*
D03*
Y221790D02*
D03*
X298220Y236790D02*
D03*
Y221790D02*
D03*
X105180Y236790D02*
D03*
Y221790D02*
D03*
X172490Y445070D02*
D03*
Y430070D02*
D03*
X443230Y684650D02*
D03*
Y699650D02*
D03*
X44450Y684650D02*
D03*
Y699650D02*
D03*
X280670Y477760D02*
D03*
Y492760D02*
D03*
X436880Y269360D02*
D03*
Y284360D02*
D03*
X243840Y269360D02*
D03*
Y284360D02*
D03*
X50800Y269360D02*
D03*
Y284360D02*
D03*
X118110Y477640D02*
D03*
Y492640D02*
D03*
X443230Y667900D02*
D03*
Y652900D02*
D03*
X44450Y667900D02*
D03*
Y652900D02*
D03*
X280670Y461010D02*
D03*
Y446010D02*
D03*
X436880Y252610D02*
D03*
Y237610D02*
D03*
X243840Y252610D02*
D03*
Y237610D02*
D03*
X50800Y252610D02*
D03*
Y237610D02*
D03*
X118110Y460890D02*
D03*
Y445890D02*
D03*
X481100Y652080D02*
D03*
Y637080D02*
D03*
X82320Y652080D02*
D03*
Y637080D02*
D03*
X318540Y445190D02*
D03*
Y430190D02*
D03*
X474750Y236790D02*
D03*
Y221790D02*
D03*
X281710Y236790D02*
D03*
Y221790D02*
D03*
X88670Y236790D02*
D03*
Y221790D02*
D03*
X155980Y445070D02*
D03*
Y430070D02*
D03*
D39*
X510372Y540761D02*
D03*
X483652D02*
D03*
X326389Y606418D02*
D03*
X353109D02*
D03*
X323190Y762000D02*
D03*
X349910D02*
D03*
X323190Y709930D02*
D03*
X349910D02*
D03*
D40*
X547370Y495910D02*
D03*
Y522630D02*
D03*
X515620Y664870D02*
D03*
Y638150D02*
D03*
X116840Y664870D02*
D03*
Y638150D02*
D03*
X353060Y457980D02*
D03*
Y431260D02*
D03*
X509270Y249580D02*
D03*
Y222860D02*
D03*
X316230Y249580D02*
D03*
Y222860D02*
D03*
X123190Y249580D02*
D03*
Y222860D02*
D03*
X190500Y457860D02*
D03*
Y431140D02*
D03*
X463550Y664870D02*
D03*
Y638150D02*
D03*
X64770Y664870D02*
D03*
Y638150D02*
D03*
X300990Y457980D02*
D03*
Y431260D02*
D03*
X457200Y249580D02*
D03*
Y222860D02*
D03*
X264160Y249580D02*
D03*
Y222860D02*
D03*
X71120Y249580D02*
D03*
Y222860D02*
D03*
X138430Y457860D02*
D03*
Y431140D02*
D03*
D41*
X352940Y624840D02*
D03*
X337940D02*
D03*
X335980Y743990D02*
D03*
X350980D02*
D03*
X303410Y689610D02*
D03*
X288410D02*
D03*
X320160D02*
D03*
X335160D02*
D03*
X335980Y727480D02*
D03*
X350980D02*
D03*
D42*
X188849Y79756D02*
D03*
X202692Y51308D02*
D03*
X216535Y79756D02*
D03*
X230378Y51308D02*
D03*
X244221Y79756D02*
D03*
X258064Y51308D02*
D03*
X271907Y79756D02*
D03*
X285750Y51308D02*
D03*
X299593Y79756D02*
D03*
X313436Y51308D02*
D03*
X327279Y79756D02*
D03*
X341122Y51308D02*
D03*
X354965Y79756D02*
D03*
X368808Y51308D02*
D03*
X382651Y79756D02*
D03*
X188849Y147320D02*
D03*
X202692Y118872D02*
D03*
X216535Y147320D02*
D03*
X230378Y118872D02*
D03*
X244221Y147320D02*
D03*
X258064Y118872D02*
D03*
X271907Y147320D02*
D03*
X285750Y118872D02*
D03*
X299593Y147320D02*
D03*
X313436Y118872D02*
D03*
X327279Y147320D02*
D03*
X341122Y118872D02*
D03*
X354965Y147320D02*
D03*
X368808Y118872D02*
D03*
X382651Y147320D02*
D03*
D43*
X183000Y635000D02*
D03*
X388500D02*
D03*
D44*
X527050Y444500D02*
D03*
X44450D02*
D03*
X527050Y63500D02*
D03*
X44450D02*
D03*
D45*
X45720Y367030D02*
D03*
X37020Y366955D02*
D03*
X500380Y283210D02*
D03*
Y290830D02*
D03*
Y297180D02*
D03*
X499110Y306070D02*
D03*
X495300Y300990D02*
D03*
X302260D02*
D03*
X306070Y306070D02*
D03*
X307340Y298450D02*
D03*
Y290830D02*
D03*
Y283210D02*
D03*
X114300D02*
D03*
Y290830D02*
D03*
Y298450D02*
D03*
X113030Y306070D02*
D03*
X109220Y300990D02*
D03*
X344170Y491490D02*
D03*
Y499110D02*
D03*
Y506730D02*
D03*
X342900Y514350D02*
D03*
X339090Y509270D02*
D03*
X176530D02*
D03*
X180340Y514350D02*
D03*
X182880Y506730D02*
D03*
X181610Y499110D02*
D03*
Y491490D02*
D03*
X501650Y718820D02*
D03*
X505460Y722630D02*
D03*
X506730Y715010D02*
D03*
X256540Y572890D02*
D03*
X506730Y699770D02*
D03*
X266700Y751840D02*
D03*
X274320Y753110D02*
D03*
X289560D02*
D03*
X270510Y748030D02*
D03*
X281940Y753110D02*
D03*
X107950Y698500D02*
D03*
Y713740D02*
D03*
X506730Y707390D02*
D03*
X102870Y717550D02*
D03*
X107950Y706120D02*
D03*
X106680Y722630D02*
D03*
X137160Y657860D02*
D03*
X34290Y760730D02*
D03*
X64770Y788670D02*
D03*
X54610Y678180D02*
D03*
X46990Y778510D02*
D03*
X143510Y695960D02*
D03*
X87630Y767080D02*
D03*
X53340Y685800D02*
D03*
X105410Y729070D02*
D03*
X107950Y690880D02*
D03*
X73660Y707390D02*
D03*
X469317Y548640D02*
D03*
X440690Y588010D02*
D03*
X433070D02*
D03*
X425450Y595630D02*
D03*
X440690D02*
D03*
X425450Y588010D02*
D03*
X433070Y595630D02*
D03*
X541020Y601980D02*
D03*
X476250Y454660D02*
D03*
X203200Y88900D02*
D03*
X219710Y195580D02*
D03*
X416560Y346710D02*
D03*
X562610Y317500D02*
D03*
X401320Y261620D02*
D03*
X562610Y309880D02*
D03*
X401320Y254000D02*
D03*
Y269240D02*
D03*
X364490Y317500D02*
D03*
X356870D02*
D03*
X207010Y254000D02*
D03*
Y261620D02*
D03*
Y269240D02*
D03*
X13970Y254000D02*
D03*
Y261620D02*
D03*
Y269240D02*
D03*
X170180Y309880D02*
D03*
Y317500D02*
D03*
X248920Y532130D02*
D03*
Y539750D02*
D03*
X74930Y403860D02*
D03*
X82550D02*
D03*
X87630Y408940D02*
D03*
X243840Y389890D02*
D03*
Y397510D02*
D03*
Y405130D02*
D03*
X394970Y518160D02*
D03*
Y525780D02*
D03*
X558800Y725170D02*
D03*
Y732790D02*
D03*
X433070Y604520D02*
D03*
X425450D02*
D03*
Y612140D02*
D03*
X377190Y669290D02*
D03*
Y676910D02*
D03*
X369570Y669290D02*
D03*
X256540Y803910D02*
D03*
X248920D02*
D03*
X516890Y505460D02*
D03*
Y520700D02*
D03*
X396240Y621030D02*
D03*
Y613410D02*
D03*
X388620D02*
D03*
Y621030D02*
D03*
X381000D02*
D03*
X373380D02*
D03*
X365760D02*
D03*
X381000Y628650D02*
D03*
X373380D02*
D03*
X365760D02*
D03*
X471170Y467360D02*
D03*
X462280D02*
D03*
X453390D02*
D03*
X444500D02*
D03*
X471170Y474980D02*
D03*
X462280D02*
D03*
X453390D02*
D03*
X444500D02*
D03*
X153670Y732790D02*
D03*
X161290D02*
D03*
X12065Y662305D02*
D03*
Y669925D02*
D03*
Y677545D02*
D03*
X496570Y532130D02*
D03*
Y539750D02*
D03*
X210820Y450850D02*
D03*
X217170Y488950D02*
D03*
X181610Y483870D02*
D03*
X179070Y522060D02*
D03*
X107950Y553720D02*
D03*
X120650Y571500D02*
D03*
X138430Y581660D02*
D03*
X127000Y478790D02*
D03*
X161290Y560070D02*
D03*
X147320Y500380D02*
D03*
X128270Y471170D02*
D03*
X339090Y656590D02*
D03*
X481330Y615950D02*
D03*
X88900Y554990D02*
D03*
X326390Y656590D02*
D03*
X209550Y683260D02*
D03*
Y674370D02*
D03*
X351790Y656590D02*
D03*
X295910D02*
D03*
X279110Y35015D02*
D03*
X281940Y27940D02*
D03*
X474980Y200660D02*
D03*
X139120Y370260D02*
D03*
X97790Y554990D02*
D03*
X88900Y200660D02*
D03*
X132770Y785550D02*
D03*
X299720Y622300D02*
D03*
X290830D02*
D03*
X271780Y656590D02*
D03*
X275590Y624840D02*
D03*
X313690D02*
D03*
X316230Y589280D02*
D03*
X325120D02*
D03*
X394970Y593090D02*
D03*
X397574Y585929D02*
D03*
X368990Y578660D02*
D03*
X414020Y762000D02*
D03*
X283210Y591820D02*
D03*
X276860Y584200D02*
D03*
X344170Y589280D02*
D03*
X334010D02*
D03*
X200653Y589289D02*
D03*
X207793Y576758D02*
D03*
X251460Y555110D02*
D03*
X260350D02*
D03*
X220980Y589280D02*
D03*
X256540Y581660D02*
D03*
X241291Y589271D02*
D03*
X251460Y589280D02*
D03*
X231140D02*
D03*
X212090D02*
D03*
X407670Y346710D02*
D03*
X332160Y370260D02*
D03*
X447040Y262890D02*
D03*
X490220Y200660D02*
D03*
X466090Y292100D02*
D03*
X529590Y242570D02*
D03*
X535940Y280670D02*
D03*
X500380Y275590D02*
D03*
X480060Y351790D02*
D03*
X439420Y363220D02*
D03*
X445770Y270510D02*
D03*
X497840Y313780D02*
D03*
X525200Y370260D02*
D03*
X426720Y345440D02*
D03*
X457200Y373380D02*
D03*
X171207Y408697D02*
D03*
X156210Y408940D02*
D03*
X330200Y782320D02*
D03*
X227330Y679450D02*
D03*
X372110Y742950D02*
D03*
X199390Y709930D02*
D03*
X309880Y699770D02*
D03*
X372110Y727710D02*
D03*
X209550Y692150D02*
D03*
X202510Y777930D02*
D03*
X292100Y788670D02*
D03*
X220980Y732790D02*
D03*
X302260Y698500D02*
D03*
X258990Y750570D02*
D03*
X297180Y753110D02*
D03*
X280670Y718820D02*
D03*
X535940Y657860D02*
D03*
X433070Y760730D02*
D03*
X496570Y615950D02*
D03*
X463550Y788670D02*
D03*
X453390Y678180D02*
D03*
X422910Y762000D02*
D03*
X445770Y778510D02*
D03*
X531550Y785550D02*
D03*
X542290Y695960D02*
D03*
X486410Y767080D02*
D03*
X452120Y685800D02*
D03*
X504190Y729070D02*
D03*
X506730Y690880D02*
D03*
X472440Y707390D02*
D03*
X97790Y615950D02*
D03*
X15240Y762000D02*
D03*
X82550Y615950D02*
D03*
X24130Y762000D02*
D03*
X373380Y450970D02*
D03*
X270510Y553840D02*
D03*
X334010Y409060D02*
D03*
X300990Y581780D02*
D03*
X290830Y471290D02*
D03*
X318770Y409060D02*
D03*
X283210Y571620D02*
D03*
X379730Y489070D02*
D03*
X323850Y560190D02*
D03*
X289560Y478910D02*
D03*
X341630Y522180D02*
D03*
X344170Y483990D02*
D03*
X309880Y500500D02*
D03*
X80010Y292100D02*
D03*
X111760Y313780D02*
D03*
X59690Y270510D02*
D03*
X53340Y363220D02*
D03*
X60960Y262890D02*
D03*
X71120Y373380D02*
D03*
X143510Y242570D02*
D03*
X93980Y351790D02*
D03*
X149860Y280670D02*
D03*
X114300Y275590D02*
D03*
X104140Y200660D02*
D03*
X40640Y345440D02*
D03*
X336550Y242570D02*
D03*
X233680Y345440D02*
D03*
X297180Y200660D02*
D03*
X214630Y346710D02*
D03*
X264160Y373380D02*
D03*
X254000Y262890D02*
D03*
X281940Y200660D02*
D03*
X223520Y346710D02*
D03*
X246380Y363220D02*
D03*
X342900Y280670D02*
D03*
X287020Y351790D02*
D03*
X252730Y270510D02*
D03*
X304800Y313780D02*
D03*
X307340Y275590D02*
D03*
X273050Y292100D02*
D03*
X184150Y610870D02*
D03*
M02*
