G04*
G04 #@! TF.GenerationSoftware,Altium Limited,Altium Designer,25.2.1 (25)*
G04*
G04 Layer_Physical_Order=3*
G04 Layer_Color=16440176*
%FSLAX44Y44*%
%MOMM*%
G71*
G04*
G04 #@! TF.SameCoordinates,2E8F3C69-5834-473F-A2B3-8F5DD2D09B02*
G04*
G04*
G04 #@! TF.FilePolarity,Positive*
G04*
G01*
G75*
%ADD15C,0.2540*%
%ADD20C,0.7620*%
%ADD48C,0.3000*%
%ADD50C,6.3500*%
%ADD51C,0.5080*%
%ADD52C,0.3810*%
%ADD53C,1.5240*%
G36*
X571500Y0D02*
X0D01*
Y812800D01*
X571500D01*
Y0D01*
D02*
G37*
%LPC*%
G36*
X464308Y792480D02*
X462792D01*
X461392Y791900D01*
X460320Y790828D01*
X459740Y789428D01*
Y787912D01*
X460320Y786512D01*
X461392Y785440D01*
X462792Y784860D01*
X464308D01*
X465708Y785440D01*
X466780Y786512D01*
X467360Y787912D01*
Y789428D01*
X466780Y790828D01*
X465708Y791900D01*
X464308Y792480D01*
D02*
G37*
G36*
X292858D02*
X291342D01*
X289942Y791900D01*
X288870Y790828D01*
X288290Y789428D01*
Y787912D01*
X288870Y786512D01*
X289942Y785440D01*
X291342Y784860D01*
X292858D01*
X294258Y785440D01*
X295330Y786512D01*
X295910Y787912D01*
Y789428D01*
X295330Y790828D01*
X294258Y791900D01*
X292858Y792480D01*
D02*
G37*
G36*
X65528D02*
X64012D01*
X62612Y791900D01*
X61540Y790828D01*
X60960Y789428D01*
Y787912D01*
X61540Y786512D01*
X62612Y785440D01*
X64012Y784860D01*
X65528D01*
X66928Y785440D01*
X68000Y786512D01*
X68580Y787912D01*
Y789428D01*
X68000Y790828D01*
X66928Y791900D01*
X65528Y792480D01*
D02*
G37*
G36*
X508000Y803960D02*
X414020D01*
X413029Y803763D01*
X412189Y803201D01*
X403299Y794311D01*
X402737Y793471D01*
X402540Y792480D01*
Y688143D01*
X373577Y659180D01*
X354588D01*
X353948Y659820D01*
X352548Y660400D01*
X351032D01*
X349632Y659820D01*
X348560Y658748D01*
X347980Y657348D01*
Y655832D01*
X348560Y654432D01*
X349632Y653360D01*
X351032Y652780D01*
X352548D01*
X353948Y653360D01*
X354588Y654000D01*
X374650D01*
X375641Y654197D01*
X376481Y654759D01*
X406961Y685239D01*
X407523Y686079D01*
X407720Y687070D01*
Y761122D01*
X410210Y761242D01*
X410790Y759842D01*
X411862Y758770D01*
X412053Y758691D01*
Y661741D01*
X406061Y655749D01*
X405359Y654699D01*
X405113Y653460D01*
Y604091D01*
X403699Y602677D01*
X403069D01*
X402487Y603066D01*
X401248Y603312D01*
X392077D01*
X390838Y603066D01*
X389788Y602364D01*
X385696Y598272D01*
X384994Y597222D01*
X384748Y595983D01*
Y590197D01*
X384994Y588958D01*
X385696Y587908D01*
X389788Y583816D01*
X390838Y583114D01*
X392077Y582868D01*
X395247D01*
X395416Y582699D01*
X396816Y582119D01*
X398332D01*
X399732Y582699D01*
X400804Y583771D01*
X401384Y585171D01*
Y586687D01*
X401125Y587313D01*
X402127Y589378D01*
X402613Y589853D01*
X407670D01*
X408909Y590099D01*
X409959Y590801D01*
X418849Y599691D01*
X419551Y600741D01*
X419797Y601980D01*
Y651349D01*
X423929Y655481D01*
X424631Y656531D01*
X424877Y657770D01*
Y758691D01*
X425068Y758770D01*
X426140Y759842D01*
X426720Y761242D01*
Y762758D01*
X426140Y764158D01*
X425068Y765230D01*
X423668Y765810D01*
X422152D01*
X420752Y765230D01*
X419906Y764384D01*
X418465Y764261D01*
X417024Y764384D01*
X416178Y765230D01*
X414778Y765810D01*
X413262D01*
X411862Y765230D01*
X410790Y764158D01*
X410210Y762758D01*
X407720Y762878D01*
Y791407D01*
X415093Y798780D01*
X506927D01*
X521989Y783719D01*
X522829Y783157D01*
X523820Y782960D01*
X528752D01*
X529392Y782320D01*
X530792Y781740D01*
X532308D01*
X533708Y782320D01*
X534780Y783392D01*
X535360Y784792D01*
Y786308D01*
X534780Y787708D01*
X533708Y788780D01*
X532308Y789360D01*
X530792D01*
X529392Y788780D01*
X528752Y788140D01*
X524893D01*
X509831Y803201D01*
X508991Y803763D01*
X508000Y803960D01*
D02*
G37*
G36*
X446528Y782320D02*
X445012D01*
X443612Y781740D01*
X442540Y780668D01*
X441960Y779268D01*
Y777752D01*
X442540Y776352D01*
X443612Y775280D01*
X445012Y774700D01*
X446528D01*
X447928Y775280D01*
X449000Y776352D01*
X449580Y777752D01*
Y779268D01*
X449000Y780668D01*
X447928Y781740D01*
X446528Y782320D01*
D02*
G37*
G36*
X47748D02*
X46232D01*
X44832Y781740D01*
X43760Y780668D01*
X43180Y779268D01*
Y777752D01*
X43760Y776352D01*
X44832Y775280D01*
X46232Y774700D01*
X47748D01*
X49148Y775280D01*
X50220Y776352D01*
X50800Y777752D01*
Y779268D01*
X50220Y780668D01*
X49148Y781740D01*
X47748Y782320D01*
D02*
G37*
G36*
X24888Y765810D02*
X23372D01*
X21972Y765230D01*
X21126Y764384D01*
X19685Y764261D01*
X18244Y764384D01*
X17398Y765230D01*
X15998Y765810D01*
X14482D01*
X13082Y765230D01*
X12010Y764158D01*
X11430Y762758D01*
Y761242D01*
X12010Y759842D01*
X13082Y758770D01*
X14482Y758190D01*
X15998D01*
X17398Y758770D01*
X18244Y759616D01*
X19685Y759738D01*
X21126Y759616D01*
X21972Y758770D01*
X23372Y758190D01*
X24888D01*
X26288Y758770D01*
X27360Y759842D01*
X27940Y761242D01*
Y762758D01*
X27360Y764158D01*
X26288Y765230D01*
X24888Y765810D01*
D02*
G37*
G36*
X487168Y770890D02*
X485652D01*
X484252Y770310D01*
X483180Y769238D01*
X482600Y767838D01*
Y766322D01*
X483180Y764922D01*
X484252Y763850D01*
X485652Y763270D01*
X487168D01*
X488568Y763850D01*
X489640Y764922D01*
X490220Y766322D01*
Y767838D01*
X489640Y769238D01*
X488568Y770310D01*
X487168Y770890D01*
D02*
G37*
G36*
X88388D02*
X86872D01*
X85472Y770310D01*
X84400Y769238D01*
X83820Y767838D01*
Y766322D01*
X84400Y764922D01*
X85472Y763850D01*
X86872Y763270D01*
X88388D01*
X89788Y763850D01*
X90860Y764922D01*
X91440Y766322D01*
Y767838D01*
X90860Y769238D01*
X89788Y770310D01*
X88388Y770890D01*
D02*
G37*
G36*
X297938Y756920D02*
X296422D01*
X295022Y756340D01*
X293370Y755547D01*
X291718Y756340D01*
X290318Y756920D01*
X288802D01*
X287402Y756340D01*
X285750Y755547D01*
X284098Y756340D01*
X282698Y756920D01*
X281182D01*
X279782Y756340D01*
X278130Y755547D01*
X276478Y756340D01*
X275078Y756920D01*
X273562D01*
X272162Y756340D01*
X271090Y755268D01*
X268858Y755070D01*
X267458Y755650D01*
X265942D01*
X264542Y755070D01*
X263495Y754023D01*
X262946Y753971D01*
X260984Y753868D01*
X259748Y754380D01*
X258232D01*
X256832Y753800D01*
X255760Y752728D01*
X255180Y751328D01*
Y749812D01*
X255760Y748412D01*
X256832Y747340D01*
X258232Y746760D01*
X259748D01*
X261148Y747340D01*
X262195Y748387D01*
X262744Y748439D01*
X264365Y748524D01*
X266700Y747272D01*
X267280Y745872D01*
X268352Y744800D01*
X269752Y744220D01*
X271268D01*
X272668Y744800D01*
X273740Y745872D01*
X274320Y747272D01*
Y748788D01*
X276478Y749880D01*
X278130Y750673D01*
X279782Y749880D01*
X281182Y749300D01*
X282698D01*
X284098Y749880D01*
X285750Y750673D01*
X287402Y749880D01*
X288802Y749300D01*
X290318D01*
X291718Y749880D01*
X293370Y750673D01*
X295022Y749880D01*
X296422Y749300D01*
X297938D01*
X299338Y749880D01*
X300410Y750952D01*
X300990Y752352D01*
Y753868D01*
X300410Y755268D01*
X299338Y756340D01*
X297938Y756920D01*
D02*
G37*
G36*
X372868Y746760D02*
X371352D01*
X369952Y746180D01*
X368880Y745108D01*
X368300Y743708D01*
Y742192D01*
X368880Y740792D01*
X369952Y739720D01*
X371352Y739140D01*
X372868D01*
X374268Y739720D01*
X375340Y740792D01*
X375920Y742192D01*
Y743708D01*
X375340Y745108D01*
X374268Y746180D01*
X372868Y746760D01*
D02*
G37*
G36*
X221738Y736600D02*
X220222D01*
X218822Y736020D01*
X217750Y734948D01*
X217170Y733548D01*
Y732032D01*
X217750Y730632D01*
X218822Y729560D01*
X220222Y728980D01*
X221738D01*
X223138Y729560D01*
X224210Y730632D01*
X224790Y732032D01*
Y733548D01*
X224210Y734948D01*
X223138Y736020D01*
X221738Y736600D01*
D02*
G37*
G36*
X372868Y731520D02*
X371352D01*
X369952Y730940D01*
X368880Y729868D01*
X368300Y728468D01*
Y726952D01*
X368880Y725552D01*
X369952Y724480D01*
X371352Y723900D01*
X372868D01*
X374268Y724480D01*
X375340Y725552D01*
X375920Y726952D01*
Y728468D01*
X375340Y729868D01*
X374268Y730940D01*
X372868Y731520D01*
D02*
G37*
G36*
X330958Y786130D02*
X329442D01*
X328042Y785550D01*
X326970Y784478D01*
X326390Y783078D01*
Y781562D01*
X326970Y780162D01*
X327610Y779522D01*
Y731323D01*
X308807Y712520D01*
X281548D01*
X281428Y715010D01*
X282828Y715590D01*
X283900Y716662D01*
X284480Y718062D01*
Y719578D01*
X283900Y720978D01*
X282828Y722050D01*
X281428Y722630D01*
X279912D01*
X278512Y722050D01*
X277440Y720978D01*
X276860Y719578D01*
Y718062D01*
X277440Y716662D01*
X278512Y715590D01*
X279912Y715010D01*
X279792Y712520D01*
X255270D01*
X254279Y712323D01*
X253439Y711761D01*
X245819Y704141D01*
X245257Y703301D01*
X245060Y702310D01*
Y686873D01*
X240227Y682040D01*
X230128D01*
X229488Y682680D01*
X228088Y683260D01*
X226572D01*
X225172Y682680D01*
X224100Y681608D01*
X223520Y680208D01*
Y678692D01*
X224100Y677292D01*
X225172Y676220D01*
X226572Y675640D01*
X228088D01*
X229488Y676220D01*
X230128Y676860D01*
X241300D01*
X242291Y677057D01*
X243131Y677619D01*
X249481Y683969D01*
X250043Y684809D01*
X250240Y685800D01*
Y701237D01*
X256343Y707340D01*
X309880D01*
X310871Y707537D01*
X311711Y708099D01*
X332031Y728419D01*
X332593Y729259D01*
X332790Y730250D01*
Y779522D01*
X333430Y780162D01*
X334010Y781562D01*
Y783078D01*
X333430Y784478D01*
X332358Y785550D01*
X330958Y786130D01*
D02*
G37*
G36*
X200148Y713740D02*
X198632D01*
X197232Y713160D01*
X196160Y712088D01*
X195580Y710688D01*
Y709172D01*
X196160Y707772D01*
X197232Y706700D01*
X198632Y706120D01*
X200148D01*
X201548Y706700D01*
X202620Y707772D01*
X203200Y709172D01*
Y710688D01*
X202620Y712088D01*
X201548Y713160D01*
X200148Y713740D01*
D02*
G37*
G36*
X433828Y764540D02*
X432312D01*
X430912Y763960D01*
X429840Y762888D01*
X429260Y761488D01*
Y759972D01*
X429840Y758572D01*
X430480Y757932D01*
Y746760D01*
X430677Y745769D01*
X431239Y744929D01*
X437589Y738579D01*
X438429Y738017D01*
X439420Y737820D01*
X454857D01*
X460960Y731717D01*
Y678180D01*
X461157Y677189D01*
X461719Y676349D01*
X482039Y656029D01*
X482879Y655467D01*
X483870Y655270D01*
X533142D01*
X533782Y654630D01*
X535182Y654050D01*
X536698D01*
X538098Y654630D01*
X539170Y655702D01*
X539750Y657102D01*
Y658618D01*
X539170Y660018D01*
X538098Y661090D01*
X536698Y661670D01*
X535182D01*
X533782Y661090D01*
X533142Y660450D01*
X484943D01*
X466140Y679253D01*
Y706512D01*
X468630Y706632D01*
X469210Y705232D01*
X470282Y704160D01*
X471682Y703580D01*
X473198D01*
X474598Y704160D01*
X475670Y705232D01*
X476250Y706632D01*
Y708148D01*
X475670Y709548D01*
X474598Y710620D01*
X473198Y711200D01*
X471682D01*
X470282Y710620D01*
X469210Y709548D01*
X468630Y708148D01*
X466140Y708268D01*
Y732790D01*
X465943Y733781D01*
X465381Y734621D01*
X457761Y742241D01*
X456921Y742803D01*
X455930Y743000D01*
X440493D01*
X435660Y747833D01*
Y757932D01*
X436300Y758572D01*
X436880Y759972D01*
Y761488D01*
X436300Y762888D01*
X435228Y763960D01*
X433828Y764540D01*
D02*
G37*
G36*
X35048D02*
X33532D01*
X32132Y763960D01*
X31060Y762888D01*
X30480Y761488D01*
Y759972D01*
X31060Y758572D01*
X31700Y757932D01*
Y746760D01*
X31897Y745769D01*
X32459Y744929D01*
X38809Y738579D01*
X39649Y738017D01*
X40640Y737820D01*
X56077D01*
X62180Y731717D01*
Y678180D01*
X62377Y677189D01*
X62939Y676349D01*
X83259Y656029D01*
X84099Y655467D01*
X85090Y655270D01*
X134362D01*
X135002Y654630D01*
X136402Y654050D01*
X137918D01*
X139318Y654630D01*
X140390Y655702D01*
X140970Y657102D01*
Y658618D01*
X140390Y660018D01*
X139318Y661090D01*
X137918Y661670D01*
X136402D01*
X135002Y661090D01*
X134362Y660450D01*
X86163D01*
X67360Y679253D01*
Y706512D01*
X69850Y706632D01*
X70430Y705232D01*
X71502Y704160D01*
X72902Y703580D01*
X74418D01*
X75818Y704160D01*
X76890Y705232D01*
X77470Y706632D01*
Y708148D01*
X76890Y709548D01*
X75818Y710620D01*
X74418Y711200D01*
X72902D01*
X71502Y710620D01*
X70430Y709548D01*
X69850Y708148D01*
X67360Y708268D01*
Y732790D01*
X67163Y733781D01*
X66601Y734621D01*
X58981Y742241D01*
X58141Y742803D01*
X57150Y743000D01*
X41713D01*
X36880Y747833D01*
Y757932D01*
X37520Y758572D01*
X38100Y759972D01*
Y761488D01*
X37520Y762888D01*
X36448Y763960D01*
X35048Y764540D01*
D02*
G37*
G36*
X310638Y703580D02*
X309122D01*
X307722Y703000D01*
X306650Y701928D01*
X306070Y700528D01*
Y699012D01*
X306650Y697612D01*
X307722Y696540D01*
X309122Y695960D01*
X310638D01*
X312038Y696540D01*
X313110Y697612D01*
X313690Y699012D01*
Y700528D01*
X313110Y701928D01*
X312038Y703000D01*
X310638Y703580D01*
D02*
G37*
G36*
X543048Y699770D02*
X541532D01*
X540132Y699190D01*
X539060Y698118D01*
X538480Y696718D01*
Y695202D01*
X539060Y693802D01*
X540132Y692730D01*
X541532Y692150D01*
X543048D01*
X544448Y692730D01*
X545520Y693802D01*
X546100Y695202D01*
Y696718D01*
X545520Y698118D01*
X544448Y699190D01*
X543048Y699770D01*
D02*
G37*
G36*
X144268D02*
X142752D01*
X141352Y699190D01*
X140280Y698118D01*
X139700Y696718D01*
Y695202D01*
X140280Y693802D01*
X141352Y692730D01*
X142752Y692150D01*
X144268D01*
X145668Y692730D01*
X146740Y693802D01*
X147320Y695202D01*
Y696718D01*
X146740Y698118D01*
X145668Y699190D01*
X144268Y699770D01*
D02*
G37*
G36*
X504948Y732880D02*
X503432D01*
X502032Y732300D01*
X500960Y731228D01*
X500380Y729828D01*
Y728312D01*
X500960Y726912D01*
X502032Y725840D01*
X502211Y724937D01*
X501107Y722630D01*
X500892D01*
X499492Y722050D01*
X498420Y720978D01*
X497840Y719578D01*
Y718062D01*
X498420Y716662D01*
X499492Y715590D01*
X500892Y715010D01*
X502408D01*
X503500Y712852D01*
X504293Y711200D01*
X503500Y709548D01*
X502920Y708148D01*
Y706632D01*
X503500Y705232D01*
X504293Y703580D01*
X503500Y701928D01*
X502920Y700528D01*
Y699012D01*
X503500Y697612D01*
X504346Y696766D01*
X504468Y695325D01*
X504346Y693884D01*
X503500Y693038D01*
X502920Y691638D01*
Y690122D01*
X503500Y688722D01*
X504572Y687650D01*
X505972Y687070D01*
X507488D01*
X508888Y687650D01*
X509960Y688722D01*
X510540Y690122D01*
Y691638D01*
X509960Y693038D01*
X509114Y693884D01*
X508992Y695325D01*
X509114Y696766D01*
X509960Y697612D01*
X510540Y699012D01*
Y700528D01*
X509960Y701928D01*
X509167Y703580D01*
X509960Y705232D01*
X510540Y706632D01*
Y708148D01*
X509960Y709548D01*
X509167Y711200D01*
X509960Y712852D01*
X510540Y714252D01*
Y715768D01*
X509960Y717168D01*
X508888Y718240D01*
X508690Y720472D01*
X509270Y721872D01*
Y723388D01*
X508690Y724788D01*
X507618Y725860D01*
X507411Y726903D01*
X507420Y726912D01*
X508000Y728312D01*
Y729828D01*
X507420Y731228D01*
X506348Y732300D01*
X504948Y732880D01*
D02*
G37*
G36*
X106168D02*
X104652D01*
X103252Y732300D01*
X102180Y731228D01*
X101600Y729828D01*
Y728312D01*
X102180Y726912D01*
X103252Y725840D01*
X103459Y724798D01*
X103450Y724788D01*
X102870Y723388D01*
Y721872D01*
X100712Y720780D01*
X99640Y719708D01*
X99060Y718308D01*
Y716792D01*
X99640Y715392D01*
X100712Y714320D01*
X102112Y713740D01*
X103628D01*
X104720Y711582D01*
X105513Y709930D01*
X104720Y708278D01*
X104140Y706878D01*
Y705362D01*
X104720Y703962D01*
X105513Y702310D01*
X104720Y700658D01*
X104140Y699258D01*
Y697742D01*
X104720Y696342D01*
X105513Y694690D01*
X104720Y693038D01*
X104140Y691638D01*
Y690122D01*
X104720Y688722D01*
X105792Y687650D01*
X107192Y687070D01*
X108708D01*
X110108Y687650D01*
X111180Y688722D01*
X111760Y690122D01*
Y691638D01*
X111180Y693038D01*
X110387Y694690D01*
X111180Y696342D01*
X111760Y697742D01*
Y699258D01*
X111180Y700658D01*
X110387Y702310D01*
X111180Y703962D01*
X111760Y705362D01*
Y706878D01*
X111180Y708278D01*
X110387Y709930D01*
X111180Y711582D01*
X111760Y712982D01*
Y714498D01*
X111180Y715898D01*
X110108Y716970D01*
X109838Y717082D01*
X109549Y717754D01*
X109335Y719897D01*
X109910Y720472D01*
X110490Y721872D01*
Y723388D01*
X109910Y724788D01*
X108838Y725860D01*
X108631Y726903D01*
X108640Y726912D01*
X109220Y728312D01*
Y729828D01*
X108640Y731228D01*
X107568Y732300D01*
X106168Y732880D01*
D02*
G37*
G36*
X454148Y681990D02*
X452632D01*
X451232Y681410D01*
X450160Y680338D01*
X449580Y678938D01*
Y677422D01*
X450160Y676022D01*
X451232Y674950D01*
X452632Y674370D01*
X454148D01*
X455548Y674950D01*
X456620Y676022D01*
X457200Y677422D01*
Y678938D01*
X456620Y680338D01*
X455548Y681410D01*
X454148Y681990D01*
D02*
G37*
G36*
X55368D02*
X53852D01*
X52452Y681410D01*
X51380Y680338D01*
X50800Y678938D01*
Y677422D01*
X51380Y676022D01*
X52452Y674950D01*
X53852Y674370D01*
X55368D01*
X56768Y674950D01*
X57840Y676022D01*
X58420Y677422D01*
Y678938D01*
X57840Y680338D01*
X56768Y681410D01*
X55368Y681990D01*
D02*
G37*
G36*
X210308Y695960D02*
X208792D01*
X207392Y695380D01*
X206320Y694308D01*
X205740Y692908D01*
Y691392D01*
X206320Y689992D01*
X207166Y689146D01*
X207288Y687705D01*
X207166Y686264D01*
X206320Y685418D01*
X205740Y684018D01*
Y682502D01*
X206320Y681102D01*
X207166Y680256D01*
X207288Y678815D01*
X207166Y677374D01*
X206320Y676528D01*
X205740Y675128D01*
Y673612D01*
X206320Y672212D01*
X207392Y671140D01*
X208792Y670560D01*
X210308D01*
X211708Y671140D01*
X212780Y672212D01*
X213360Y673612D01*
Y675128D01*
X212780Y676528D01*
X211934Y677374D01*
X211812Y678815D01*
X211934Y680256D01*
X212780Y681102D01*
X213360Y682502D01*
Y684018D01*
X212780Y685418D01*
X211934Y686264D01*
X211812Y687705D01*
X211934Y689146D01*
X212780Y689992D01*
X213360Y691392D01*
Y692908D01*
X212780Y694308D01*
X211708Y695380D01*
X210308Y695960D01*
D02*
G37*
G36*
X133528Y789360D02*
X132012D01*
X130612Y788780D01*
X129540Y787708D01*
X128960Y786308D01*
Y784792D01*
X129540Y783392D01*
X130612Y782320D01*
X132012Y781740D01*
X133528D01*
X134928Y782320D01*
X135568Y782960D01*
X163337D01*
X168860Y777437D01*
Y676910D01*
X169057Y675919D01*
X169619Y675079D01*
X192479Y652219D01*
X193319Y651657D01*
X194310Y651460D01*
X257810D01*
X258801Y651657D01*
X259641Y652219D01*
X265623Y658201D01*
X266906Y657735D01*
X267970Y656955D01*
Y655832D01*
X268550Y654432D01*
X269622Y653360D01*
X271022Y652780D01*
X272538D01*
X273938Y653360D01*
X274578Y654000D01*
X275787D01*
X279350Y650437D01*
Y629946D01*
X279104Y629658D01*
X276810Y628459D01*
X276348Y628650D01*
X274832D01*
X273432Y628070D01*
X272360Y626998D01*
X272337Y626944D01*
X269337D01*
X268346Y626747D01*
X267505Y626185D01*
X263670Y622350D01*
X133350D01*
X132359Y622153D01*
X131519Y621591D01*
X80719Y570791D01*
X80157Y569951D01*
X79960Y568960D01*
Y548640D01*
X80157Y547649D01*
X80719Y546809D01*
X88850Y538677D01*
Y509823D01*
X89047Y508831D01*
X88904Y508546D01*
X85809Y508049D01*
X74075Y519783D01*
Y614572D01*
X76200Y616696D01*
X78740Y615644D01*
Y615192D01*
X79320Y613792D01*
X80392Y612720D01*
X81792Y612140D01*
X83308D01*
X84708Y612720D01*
X85086Y613098D01*
X85610Y613202D01*
X86660Y613904D01*
X88515Y615759D01*
X90170Y616260D01*
X91825Y615759D01*
X93680Y613904D01*
X94730Y613202D01*
X95254Y613098D01*
X95632Y612720D01*
X97032Y612140D01*
X98548D01*
X99948Y612720D01*
X101020Y613792D01*
X101600Y615192D01*
Y616708D01*
X101020Y618108D01*
X99948Y619180D01*
X98548Y619760D01*
X97032D01*
X96582Y622107D01*
Y624603D01*
X96336Y625842D01*
X95634Y626892D01*
X89682Y632844D01*
X88632Y633546D01*
X87393Y633792D01*
X76500D01*
X75262Y633546D01*
X74211Y632844D01*
X62199Y620832D01*
X61498Y619782D01*
X61251Y618543D01*
Y515812D01*
X61498Y514573D01*
X62199Y513522D01*
X77408Y498314D01*
Y459105D01*
X77046Y458855D01*
X73774Y459681D01*
X72691Y461806D01*
X69636Y466011D01*
X65961Y469686D01*
X61756Y472741D01*
X57125Y475101D01*
X52182Y476707D01*
X47049Y477520D01*
X41851D01*
X36718Y476707D01*
X31775Y475101D01*
X27144Y472741D01*
X22939Y469686D01*
X19264Y466011D01*
X16209Y461806D01*
X13849Y457175D01*
X12243Y452232D01*
X11430Y447099D01*
Y441901D01*
X12243Y436768D01*
X13849Y431825D01*
X16209Y427194D01*
X19264Y422989D01*
X22939Y419314D01*
X27144Y416259D01*
X31775Y413899D01*
X36718Y412293D01*
X41851Y411480D01*
X47049D01*
X52182Y412293D01*
X54451Y413030D01*
X57348Y411301D01*
X57427Y410868D01*
X40044Y393484D01*
X39576Y393391D01*
X38526Y392690D01*
X21396Y375560D01*
X20694Y374509D01*
X20448Y373271D01*
Y163005D01*
X20694Y161766D01*
X21396Y160716D01*
X38351Y143761D01*
X38351Y143761D01*
X80261Y101851D01*
X81311Y101149D01*
X82550Y100903D01*
X93274D01*
X124633Y69544D01*
X123267Y67318D01*
X120752Y67818D01*
X117500D01*
X114310Y67183D01*
X111306Y65939D01*
X108602Y64132D01*
X106302Y61832D01*
X104495Y59128D01*
X103251Y56124D01*
X102616Y52934D01*
Y49682D01*
X103251Y46492D01*
X104495Y43488D01*
X106302Y40784D01*
X108602Y38484D01*
X111306Y36677D01*
X114310Y35433D01*
X117500Y34798D01*
X120752D01*
X123942Y35433D01*
X126946Y36677D01*
X129650Y38484D01*
X131950Y40784D01*
X133757Y43488D01*
X135001Y46492D01*
X135636Y49682D01*
Y52934D01*
X135136Y55449D01*
X137362Y56815D01*
X167256Y26921D01*
X168306Y26219D01*
X169545Y25973D01*
X223952D01*
X224184Y25741D01*
X225234Y25039D01*
X226473Y24793D01*
X279699D01*
X279782Y24710D01*
X281182Y24130D01*
X282698D01*
X284098Y24710D01*
X285170Y25782D01*
X285750Y27182D01*
Y28698D01*
X285170Y30098D01*
X284098Y31170D01*
X282756Y32458D01*
X282899Y34207D01*
X282920Y34257D01*
Y35773D01*
X282340Y37173D01*
X281268Y38245D01*
X279868Y38825D01*
X278352D01*
X276952Y38245D01*
X276324Y37617D01*
X230444D01*
X230213Y37849D01*
X229162Y38551D01*
X227924Y38797D01*
X173516D01*
X99534Y112779D01*
X98484Y113481D01*
X97245Y113727D01*
X86521D01*
X47419Y152829D01*
X47419Y152829D01*
X41441Y158807D01*
X41441Y158807D01*
X33272Y166976D01*
Y361843D01*
X33504Y362118D01*
X35812Y363331D01*
X36262Y363145D01*
X37778D01*
X39178Y363725D01*
X39912Y364459D01*
X41273Y364677D01*
X42872Y364490D01*
X43562Y363800D01*
X44962Y363220D01*
X46478D01*
X46990Y363432D01*
X49091Y362630D01*
X49707Y362036D01*
X50110Y361062D01*
X51182Y359990D01*
X52582Y359410D01*
X54098D01*
X55498Y359990D01*
X56570Y361062D01*
X57150Y362462D01*
Y363978D01*
X56570Y365378D01*
X55498Y366450D01*
X54098Y367030D01*
X52582D01*
X52070Y366818D01*
X49969Y367620D01*
X49353Y368214D01*
X48950Y369188D01*
X47878Y370260D01*
X46478Y370840D01*
X44962D01*
X43562Y370260D01*
X42828Y369526D01*
X41467Y369308D01*
X39868Y369495D01*
X39178Y370185D01*
X38728Y370371D01*
X37954Y372861D01*
X37984Y373219D01*
X44940Y380174D01*
X45407Y380267D01*
X46457Y380969D01*
X52409Y386921D01*
X53111Y387971D01*
X53221Y388525D01*
X86310Y421614D01*
X88850Y420562D01*
Y416560D01*
X89047Y415569D01*
X89609Y414729D01*
X113739Y390599D01*
X114579Y390037D01*
X115570Y389840D01*
X128467D01*
X136530Y381777D01*
Y373058D01*
X135890Y372418D01*
X135310Y371018D01*
Y369502D01*
X135890Y368102D01*
X136962Y367030D01*
X138362Y366450D01*
X139878D01*
X141278Y367030D01*
X142350Y368102D01*
X142930Y369502D01*
Y371018D01*
X142350Y372418D01*
X141710Y373058D01*
Y382850D01*
X141513Y383841D01*
X140951Y384681D01*
X131371Y394261D01*
X130531Y394823D01*
X129540Y395020D01*
X116643D01*
X94030Y417633D01*
Y422167D01*
X94541Y422679D01*
X95103Y423519D01*
X95300Y424510D01*
Y508553D01*
X95103Y509544D01*
X94541Y510384D01*
X94030Y510895D01*
Y539750D01*
X93833Y540741D01*
X93271Y541581D01*
X86805Y548048D01*
X86940Y548929D01*
X88142Y551180D01*
X89658D01*
X91058Y551760D01*
X91904Y552606D01*
X93345Y552729D01*
X94786Y552606D01*
X95632Y551760D01*
X97032Y551180D01*
X98548D01*
X99948Y551760D01*
X101020Y552832D01*
X101600Y554232D01*
Y555748D01*
X101020Y557148D01*
X99948Y558220D01*
X98548Y558800D01*
X97032D01*
X95632Y558220D01*
X94786Y557374D01*
X93345Y557252D01*
X91904Y557374D01*
X91058Y558220D01*
X89658Y558800D01*
X88142D01*
X87680Y558609D01*
X85386Y559808D01*
X85140Y560096D01*
Y567887D01*
X134423Y617170D01*
X183272D01*
X183392Y614680D01*
X181992Y614100D01*
X180920Y613028D01*
X180340Y611628D01*
Y610112D01*
X180920Y608712D01*
X181560Y608072D01*
Y602709D01*
X181049Y602198D01*
X180487Y601357D01*
X180290Y600366D01*
Y591820D01*
X180487Y590829D01*
X181049Y589989D01*
X196119Y574919D01*
X196959Y574357D01*
X197950Y574160D01*
X205003D01*
X205635Y573528D01*
X207036Y572948D01*
X208551D01*
X209952Y573528D01*
X211023Y574600D01*
X211603Y576000D01*
Y577516D01*
X211023Y578916D01*
X209952Y579988D01*
X208551Y580568D01*
X207036D01*
X205635Y579988D01*
X204987Y579340D01*
X199023D01*
X185470Y592893D01*
Y599294D01*
X185981Y599805D01*
X186543Y600645D01*
X186740Y601636D01*
Y608072D01*
X187380Y608712D01*
X187960Y610112D01*
Y611628D01*
X187380Y613028D01*
X186308Y614100D01*
X184908Y614680D01*
X185028Y617170D01*
X264743D01*
X265734Y617367D01*
X266574Y617929D01*
X266833Y618188D01*
X268679Y616511D01*
X268117Y615671D01*
X267920Y614680D01*
Y571303D01*
X263087Y566470D01*
X251250D01*
X250259Y566273D01*
X249419Y565711D01*
X233119Y549412D01*
X232557Y548571D01*
X232360Y547580D01*
Y429260D01*
X232557Y428269D01*
X233119Y427429D01*
X271219Y389329D01*
X272059Y388767D01*
X273050Y388570D01*
X310187D01*
X328350Y370407D01*
Y369502D01*
X328930Y368102D01*
X330002Y367030D01*
X331402Y366450D01*
X332918D01*
X334318Y367030D01*
X335390Y368102D01*
X335970Y369502D01*
Y371018D01*
X335390Y372418D01*
X334318Y373490D01*
X332918Y374070D01*
X332012D01*
X313091Y392991D01*
X312251Y393553D01*
X311260Y393750D01*
X274123D01*
X237540Y430333D01*
Y546507D01*
X245190Y554158D01*
X245569Y554188D01*
X248039Y553414D01*
X248230Y552952D01*
X249302Y551880D01*
X250702Y551300D01*
X252218D01*
X253618Y551880D01*
X254464Y552726D01*
X255905Y552849D01*
X257346Y552726D01*
X258192Y551880D01*
X259592Y551300D01*
X261108D01*
X262508Y551880D01*
X263580Y552952D01*
X264160Y554352D01*
Y555868D01*
X263580Y557268D01*
X262508Y558340D01*
X261241Y558865D01*
X261692Y561267D01*
X261760Y561290D01*
X264160D01*
X265151Y561487D01*
X265991Y562049D01*
X272341Y568399D01*
X272903Y569239D01*
X273100Y570230D01*
Y579094D01*
X273346Y579382D01*
X275640Y580582D01*
X276102Y580390D01*
X277618D01*
X279018Y580970D01*
X280090Y582042D01*
X280670Y583442D01*
Y584958D01*
X280220Y586044D01*
X280149Y586214D01*
X280398Y586724D01*
X281732Y588308D01*
X281968Y588210D01*
X282452Y588010D01*
X283968D01*
X285368Y588590D01*
X286440Y589662D01*
X287020Y591062D01*
Y592578D01*
X286440Y593978D01*
X285368Y595050D01*
X283968Y595630D01*
X282452D01*
X281052Y595050D01*
X279980Y593978D01*
X279400Y592578D01*
Y591062D01*
X279850Y589976D01*
X279921Y589805D01*
X279672Y589296D01*
X278338Y587712D01*
X278102Y587810D01*
X277618Y588010D01*
X276102D01*
X275640Y587818D01*
X273346Y589018D01*
X273100Y589306D01*
Y613607D01*
X275393Y615900D01*
X278220D01*
X279211Y616097D01*
X280051Y616659D01*
X283771Y620378D01*
X284333Y621219D01*
X284422Y621327D01*
X285830Y621444D01*
X287150Y621228D01*
X287600Y620142D01*
X288672Y619070D01*
X290072Y618490D01*
X291588D01*
X292988Y619070D01*
X293834Y619916D01*
X295275Y620038D01*
X296716Y619916D01*
X297562Y619070D01*
X298962Y618490D01*
X300478D01*
X301878Y619070D01*
X302552Y619743D01*
X302950Y620142D01*
X305713Y620174D01*
X309228Y616659D01*
X310069Y616097D01*
X311060Y615900D01*
X348177D01*
X350470Y613607D01*
Y590158D01*
X347980Y590038D01*
X347400Y591438D01*
X346328Y592510D01*
X344928Y593090D01*
X343412D01*
X342012Y592510D01*
X340940Y591438D01*
X340360Y590038D01*
Y588522D01*
X340940Y587122D01*
X342012Y586050D01*
X343412Y585470D01*
X344928D01*
X346328Y586050D01*
X347400Y587122D01*
X347980Y588522D01*
X350470Y588402D01*
Y586740D01*
X350667Y585749D01*
X351229Y584909D01*
X358090Y578047D01*
Y560070D01*
X358287Y559079D01*
X358849Y558239D01*
X361389Y555699D01*
X362229Y555137D01*
X363220Y554940D01*
X395167D01*
X402540Y547567D01*
Y466090D01*
X402737Y465099D01*
X403299Y464259D01*
X473149Y394409D01*
X473989Y393847D01*
X474980Y393650D01*
X498147D01*
X521390Y370407D01*
Y369502D01*
X521970Y368102D01*
X523042Y367030D01*
X524442Y366450D01*
X525958D01*
X527358Y367030D01*
X528430Y368102D01*
X529010Y369502D01*
Y371018D01*
X528430Y372418D01*
X527358Y373490D01*
X525958Y374070D01*
X525052D01*
X501051Y398071D01*
X500211Y398633D01*
X499220Y398830D01*
X476053D01*
X407720Y467163D01*
Y548640D01*
X407523Y549631D01*
X406961Y550471D01*
X398071Y559361D01*
X397231Y559923D01*
X396240Y560120D01*
X364293D01*
X363270Y561143D01*
Y575877D01*
X365531Y576444D01*
X365810Y576452D01*
X366832Y575430D01*
X368232Y574850D01*
X369748D01*
X371148Y575430D01*
X372220Y576502D01*
X372800Y577902D01*
Y579418D01*
X372220Y580818D01*
X371148Y581890D01*
X369748Y582470D01*
X368843D01*
X360730Y590583D01*
Y616379D01*
X360730Y616784D01*
X360769Y617384D01*
X362895Y618507D01*
X363602Y617800D01*
X365002Y617220D01*
X366518D01*
X367918Y617800D01*
X369570Y618593D01*
X371222Y617800D01*
X372622Y617220D01*
X374138D01*
X375538Y617800D01*
X377190Y618593D01*
X378842Y617800D01*
X380242Y617220D01*
X381758D01*
X383158Y617800D01*
X383400Y617916D01*
X383941Y617781D01*
X385390Y615568D01*
X384810Y614168D01*
Y612652D01*
X385390Y611252D01*
X386462Y610180D01*
X387862Y609600D01*
X389378D01*
X390778Y610180D01*
X392430Y610973D01*
X394082Y610180D01*
X395482Y609600D01*
X396998D01*
X398398Y610180D01*
X399470Y611252D01*
X400050Y612652D01*
Y614168D01*
X399470Y615568D01*
X398677Y617220D01*
X399470Y618872D01*
X400050Y620272D01*
Y621788D01*
X399470Y623188D01*
X398398Y624260D01*
X396998Y624840D01*
X395482D01*
X394082Y624260D01*
X392430Y623467D01*
X390778Y624260D01*
X389378Y624840D01*
X387862D01*
X386462Y624260D01*
X385830Y623957D01*
X384310Y625477D01*
X384958Y627973D01*
X387350Y629285D01*
X387362Y629280D01*
X389638D01*
X391740Y630151D01*
X393349Y631760D01*
X394220Y633862D01*
Y636138D01*
X393349Y638240D01*
X391740Y639849D01*
X389638Y640720D01*
X387362D01*
X385260Y639849D01*
X383651Y638240D01*
X382780Y636138D01*
Y634786D01*
X382213Y633496D01*
X380612Y632460D01*
X380242D01*
X378842Y631880D01*
X377190Y631087D01*
X375538Y631880D01*
X374138Y632460D01*
X372622D01*
X371222Y631880D01*
X369570Y631087D01*
X367918Y631880D01*
X366518Y632460D01*
X365002D01*
X363602Y631880D01*
X362530Y630808D01*
X361950Y629408D01*
Y627892D01*
X362530Y626492D01*
X363323Y624840D01*
X362530Y623188D01*
X361950Y621788D01*
X361950Y620272D01*
X361914Y620056D01*
X359750Y618836D01*
X359261Y619326D01*
X351915Y626671D01*
X351075Y627233D01*
X350084Y627430D01*
X316488D01*
X315848Y628070D01*
X314448Y628650D01*
X312932D01*
X311532Y628070D01*
X311200Y627738D01*
X308660Y628784D01*
Y646430D01*
X308463Y647421D01*
X307901Y648261D01*
X299720Y656442D01*
Y657348D01*
X299140Y658748D01*
X298808Y659080D01*
X299854Y661620D01*
X317697D01*
X322580Y656738D01*
Y655832D01*
X323160Y654432D01*
X324232Y653360D01*
X325632Y652780D01*
X327148D01*
X328548Y653360D01*
X329620Y654432D01*
X330200Y655832D01*
Y657348D01*
X329620Y658748D01*
X328548Y659820D01*
X327148Y660400D01*
X326242D01*
X323337Y663306D01*
X324301Y665934D01*
X325881Y666136D01*
X335280Y656738D01*
Y655832D01*
X335860Y654432D01*
X336932Y653360D01*
X338332Y652780D01*
X339848D01*
X341248Y653360D01*
X342320Y654432D01*
X342900Y655832D01*
Y657348D01*
X342320Y658748D01*
X341248Y659820D01*
X339848Y660400D01*
X338942D01*
X328221Y671121D01*
X327381Y671683D01*
X326390Y671880D01*
X265866D01*
X264875Y671683D01*
X264035Y671121D01*
X254633Y661720D01*
X201733D01*
X190550Y672903D01*
Y762307D01*
X202362Y774120D01*
X203268D01*
X204668Y774700D01*
X205740Y775772D01*
X206320Y777172D01*
Y778688D01*
X205740Y780088D01*
X204668Y781160D01*
X203268Y781740D01*
X201752D01*
X200352Y781160D01*
X199280Y780088D01*
X198700Y778688D01*
Y777783D01*
X186129Y765211D01*
X185567Y764371D01*
X185370Y763380D01*
Y671830D01*
X185567Y670839D01*
X186129Y669999D01*
X195065Y661062D01*
X194229Y658306D01*
X193801Y658221D01*
X174040Y677983D01*
Y778510D01*
X173843Y779501D01*
X173281Y780341D01*
X166241Y787381D01*
X165401Y787943D01*
X164410Y788140D01*
X135568D01*
X134928Y788780D01*
X133528Y789360D01*
D02*
G37*
G36*
X184138Y640720D02*
X181862D01*
X179760Y639849D01*
X178151Y638240D01*
X177280Y636138D01*
Y633862D01*
X178151Y631760D01*
X179760Y630151D01*
X181862Y629280D01*
X184138D01*
X186240Y630151D01*
X187849Y631760D01*
X188720Y633862D01*
Y636138D01*
X187849Y638240D01*
X186240Y639849D01*
X184138Y640720D01*
D02*
G37*
G36*
X542030Y622300D02*
X540009D01*
X538142Y621527D01*
X536713Y620098D01*
X535940Y618231D01*
Y616209D01*
X536713Y614342D01*
X538142Y612913D01*
X540009Y612140D01*
X542030D01*
X543898Y612913D01*
X545327Y614342D01*
X546100Y616209D01*
Y618231D01*
X545327Y620098D01*
X543898Y621527D01*
X542030Y622300D01*
D02*
G37*
G36*
X497328Y619760D02*
X495812D01*
X494412Y619180D01*
X493340Y618108D01*
X492760Y616708D01*
Y615192D01*
X493340Y613792D01*
X494412Y612720D01*
X495812Y612140D01*
X497328D01*
X498728Y612720D01*
X499800Y613792D01*
X500380Y615192D01*
Y616708D01*
X499800Y618108D01*
X498728Y619180D01*
X497328Y619760D01*
D02*
G37*
G36*
X482088D02*
X480572D01*
X479172Y619180D01*
X478100Y618108D01*
X477520Y616708D01*
Y615192D01*
X478100Y613792D01*
X479172Y612720D01*
X480572Y612140D01*
X482088D01*
X483488Y612720D01*
X484560Y613792D01*
X485140Y615192D01*
Y616708D01*
X484560Y618108D01*
X483488Y619180D01*
X482088Y619760D01*
D02*
G37*
G36*
X541778Y605790D02*
X540262D01*
X538862Y605210D01*
X537790Y604138D01*
X537210Y602738D01*
Y601222D01*
X537790Y599822D01*
X538862Y598750D01*
X540262Y598170D01*
X541778D01*
X543178Y598750D01*
X544250Y599822D01*
X544830Y601222D01*
Y602738D01*
X544250Y604138D01*
X543178Y605210D01*
X541778Y605790D01*
D02*
G37*
G36*
X441448Y599440D02*
X439932D01*
X438532Y598860D01*
X436880Y598067D01*
X435228Y598860D01*
X433828Y599440D01*
X432312D01*
X430912Y598860D01*
X429260Y598067D01*
X427608Y598860D01*
X426208Y599440D01*
X424692D01*
X423292Y598860D01*
X422220Y597788D01*
X421640Y596388D01*
Y594872D01*
X422220Y593472D01*
X423013Y591820D01*
X422220Y590168D01*
X421640Y588768D01*
Y587252D01*
X422220Y585852D01*
X423292Y584780D01*
X424692Y584200D01*
X426208D01*
X427608Y584780D01*
X429260Y585573D01*
X430912Y584780D01*
X432312Y584200D01*
X433828D01*
X435228Y584780D01*
X436880Y585573D01*
X438532Y584780D01*
X439932Y584200D01*
X441448D01*
X442848Y584780D01*
X443920Y585852D01*
X444500Y587252D01*
Y588768D01*
X443920Y590168D01*
X443127Y591820D01*
X443920Y593472D01*
X444500Y594872D01*
Y596388D01*
X443920Y597788D01*
X442848Y598860D01*
X441448Y599440D01*
D02*
G37*
G36*
X334768Y593090D02*
X333252D01*
X331852Y592510D01*
X331006Y591664D01*
X329565Y591541D01*
X328124Y591664D01*
X327278Y592510D01*
X325878Y593090D01*
X324362D01*
X322962Y592510D01*
X322116Y591664D01*
X320675Y591541D01*
X319234Y591664D01*
X318388Y592510D01*
X316988Y593090D01*
X315472D01*
X314072Y592510D01*
X313000Y591438D01*
X312420Y590038D01*
Y588522D01*
X313000Y587122D01*
X314072Y586050D01*
X315472Y585470D01*
X316988D01*
X318388Y586050D01*
X319234Y586896D01*
X320675Y587019D01*
X322116Y586896D01*
X322962Y586050D01*
X324362Y585470D01*
X325878D01*
X327278Y586050D01*
X328124Y586896D01*
X329565Y587019D01*
X331006Y586896D01*
X331852Y586050D01*
X333252Y585470D01*
X334768D01*
X336168Y586050D01*
X337240Y587122D01*
X337820Y588522D01*
Y590038D01*
X337240Y591438D01*
X336168Y592510D01*
X334768Y593090D01*
D02*
G37*
G36*
X221738D02*
X220222D01*
X218822Y592510D01*
X217976Y591664D01*
X216535Y591541D01*
X215094Y591664D01*
X214248Y592510D01*
X212848Y593090D01*
X211332D01*
X209932Y592510D01*
X208860Y591438D01*
X208280Y590038D01*
Y588522D01*
X208860Y587122D01*
X209932Y586050D01*
X211332Y585470D01*
X212848D01*
X214248Y586050D01*
X215094Y586896D01*
X216535Y587019D01*
X217976Y586896D01*
X218822Y586050D01*
X220222Y585470D01*
X221738D01*
X223138Y586050D01*
X224210Y587122D01*
X224790Y588522D01*
Y590038D01*
X224210Y591438D01*
X223138Y592510D01*
X221738Y593090D01*
D02*
G37*
G36*
X201411Y593099D02*
X199895D01*
X198495Y592519D01*
X197423Y591447D01*
X196843Y590046D01*
Y588531D01*
X197423Y587130D01*
X198495Y586059D01*
X199895Y585479D01*
X201411D01*
X202812Y586059D01*
X203883Y587130D01*
X204463Y588531D01*
Y590046D01*
X203883Y591447D01*
X202812Y592519D01*
X201411Y593099D01*
D02*
G37*
G36*
X231898Y593090D02*
X230382D01*
X228982Y592510D01*
X227910Y591438D01*
X227330Y590038D01*
Y588522D01*
X227910Y587122D01*
X228982Y586050D01*
X230382Y585470D01*
X231898D01*
X233298Y586050D01*
X234370Y587122D01*
X234950Y588522D01*
X237481Y588513D01*
X238061Y587113D01*
X239133Y586041D01*
X240533Y585461D01*
X242049D01*
X243449Y586041D01*
X244521Y587113D01*
X245101Y588513D01*
Y590029D01*
X244521Y591429D01*
X243449Y592501D01*
X242049Y593081D01*
X240533D01*
X239133Y592501D01*
X238061Y591429D01*
X237481Y590029D01*
X234950Y590038D01*
X234370Y591438D01*
X233298Y592510D01*
X231898Y593090D01*
D02*
G37*
G36*
X301748Y585590D02*
X300232D01*
X298832Y585010D01*
X297760Y583938D01*
X297180Y582538D01*
Y581022D01*
X297760Y579622D01*
X298832Y578550D01*
X300232Y577970D01*
X301748D01*
X303148Y578550D01*
X304220Y579622D01*
X304800Y581022D01*
Y582538D01*
X304220Y583938D01*
X303148Y585010D01*
X301748Y585590D01*
D02*
G37*
G36*
X139188Y585470D02*
X137672D01*
X136272Y584890D01*
X135200Y583818D01*
X134620Y582418D01*
Y580902D01*
X135200Y579502D01*
X136272Y578430D01*
X137672Y577850D01*
X139188D01*
X140588Y578430D01*
X141660Y579502D01*
X142240Y580902D01*
Y582418D01*
X141660Y583818D01*
X140588Y584890D01*
X139188Y585470D01*
D02*
G37*
G36*
X252218Y593090D02*
X250702D01*
X249302Y592510D01*
X248230Y591438D01*
X247650Y590038D01*
Y588522D01*
X248230Y587122D01*
X249302Y586050D01*
X250702Y585470D01*
X251454D01*
X251917Y585058D01*
X252829Y583688D01*
X253022Y583123D01*
X252730Y582418D01*
Y580902D01*
X253310Y579502D01*
X254071Y578741D01*
X254245Y577275D01*
X254071Y575809D01*
X253310Y575048D01*
X252730Y573648D01*
Y572132D01*
X253310Y570732D01*
X254382Y569660D01*
X255782Y569080D01*
X257298D01*
X258698Y569660D01*
X259770Y570732D01*
X260350Y572132D01*
Y573648D01*
X259770Y575048D01*
X259009Y575809D01*
X258835Y577275D01*
X259009Y578741D01*
X259770Y579502D01*
X260350Y580902D01*
Y582418D01*
X259770Y583818D01*
X258698Y584890D01*
X257298Y585470D01*
X256546D01*
X256082Y585882D01*
X255171Y587252D01*
X254978Y587817D01*
X255270Y588522D01*
Y590038D01*
X254690Y591438D01*
X253618Y592510D01*
X252218Y593090D01*
D02*
G37*
G36*
X283968Y575430D02*
X282452D01*
X281052Y574850D01*
X279980Y573778D01*
X279400Y572378D01*
Y570862D01*
X279980Y569462D01*
X281052Y568390D01*
X282452Y567810D01*
X283968D01*
X285368Y568390D01*
X286440Y569462D01*
X287020Y570862D01*
Y572378D01*
X286440Y573778D01*
X285368Y574850D01*
X283968Y575430D01*
D02*
G37*
G36*
X121408Y575310D02*
X119892D01*
X118492Y574730D01*
X117420Y573658D01*
X116840Y572258D01*
Y570742D01*
X117420Y569342D01*
X118492Y568270D01*
X119892Y567690D01*
X121408D01*
X122808Y568270D01*
X123880Y569342D01*
X124460Y570742D01*
Y572258D01*
X123880Y573658D01*
X122808Y574730D01*
X121408Y575310D01*
D02*
G37*
G36*
X495851Y565140D02*
X494749D01*
X493731Y564718D01*
X492952Y563939D01*
X492530Y562921D01*
Y561819D01*
X492952Y560801D01*
X493731Y560022D01*
X494749Y559600D01*
X495851D01*
X496869Y560022D01*
X497648Y560801D01*
X498070Y561819D01*
Y562921D01*
X497648Y563939D01*
X496869Y564718D01*
X495851Y565140D01*
D02*
G37*
G36*
X499351Y557640D02*
X498249D01*
X497231Y557218D01*
X496767Y556754D01*
X495300Y556578D01*
X493833Y556754D01*
X493369Y557218D01*
X492351Y557640D01*
X491249D01*
X490231Y557218D01*
X489452Y556439D01*
X489030Y555421D01*
Y554319D01*
X489452Y553301D01*
X490231Y552522D01*
X491249Y552100D01*
X492351D01*
X493369Y552522D01*
X493833Y552986D01*
X495300Y553162D01*
X496767Y552986D01*
X497231Y552522D01*
X498249Y552100D01*
X499351D01*
X500369Y552522D01*
X501148Y553301D01*
X501570Y554319D01*
Y555421D01*
X501148Y556439D01*
X500369Y557218D01*
X499351Y557640D01*
D02*
G37*
G36*
X324608Y564000D02*
X323092D01*
X321692Y563420D01*
X320620Y562348D01*
X320040Y560948D01*
Y559432D01*
X320620Y558032D01*
X321692Y556960D01*
X323092Y556380D01*
X324608D01*
X326008Y556960D01*
X327080Y558032D01*
X327660Y559432D01*
Y560948D01*
X327080Y562348D01*
X326008Y563420D01*
X324608Y564000D01*
D02*
G37*
G36*
X162048Y563880D02*
X160532D01*
X159132Y563300D01*
X158060Y562228D01*
X157480Y560828D01*
Y559312D01*
X158060Y557912D01*
X159132Y556840D01*
X160532Y556260D01*
X162048D01*
X163448Y556840D01*
X164520Y557912D01*
X165100Y559312D01*
Y560828D01*
X164520Y562228D01*
X163448Y563300D01*
X162048Y563880D01*
D02*
G37*
G36*
X470075Y552450D02*
X468559D01*
X467159Y551870D01*
X466087Y550798D01*
X465507Y549398D01*
Y547882D01*
X466087Y546482D01*
X467159Y545410D01*
X468559Y544830D01*
X470075D01*
X471475Y545410D01*
X472547Y546482D01*
X473127Y547882D01*
Y549398D01*
X472547Y550798D01*
X471475Y551870D01*
X470075Y552450D01*
D02*
G37*
G36*
X495851Y550140D02*
X494749D01*
X493731Y549718D01*
X492952Y548939D01*
X492530Y547921D01*
Y546819D01*
X492952Y545801D01*
X493433Y545320D01*
X493728Y544614D01*
X493712Y542280D01*
X493340Y541908D01*
X492760Y540508D01*
Y538992D01*
X493340Y537592D01*
X494133Y535940D01*
X493340Y534288D01*
X492760Y532888D01*
Y531372D01*
X493340Y529972D01*
X494412Y528900D01*
X495812Y528320D01*
X497328D01*
X498728Y528900D01*
X499800Y529972D01*
X500380Y531372D01*
Y532888D01*
X499800Y534288D01*
X499007Y535940D01*
X499800Y537592D01*
X500380Y538992D01*
Y540508D01*
X499800Y541908D01*
X498728Y542980D01*
X498400Y543116D01*
X497671Y545718D01*
X497707Y545943D01*
X498070Y546819D01*
Y547921D01*
X497648Y548939D01*
X496869Y549718D01*
X495851Y550140D01*
D02*
G37*
G36*
X495281Y523190D02*
X494179D01*
X493161Y522768D01*
X492382Y521989D01*
X491960Y520971D01*
Y519869D01*
X492382Y518851D01*
X493161Y518072D01*
X494179Y517650D01*
X495281D01*
X496299Y518072D01*
X497078Y518851D01*
X497500Y519869D01*
Y520971D01*
X497078Y521989D01*
X496299Y522768D01*
X495281Y523190D01*
D02*
G37*
G36*
X517648Y524510D02*
X516132D01*
X514732Y523930D01*
X513660Y522858D01*
X513080Y521458D01*
Y519942D01*
X513660Y518542D01*
X514732Y517470D01*
X516132Y516890D01*
X517648D01*
X519048Y517470D01*
X520120Y518542D01*
X520700Y519942D01*
Y521458D01*
X520120Y522858D01*
X519048Y523930D01*
X517648Y524510D01*
D02*
G37*
G36*
X498781Y515690D02*
X497679D01*
X496661Y515268D01*
X496197Y514804D01*
X494730Y514628D01*
X493263Y514804D01*
X492799Y515268D01*
X491781Y515690D01*
X490679D01*
X489661Y515268D01*
X488882Y514489D01*
X488460Y513471D01*
Y512369D01*
X488882Y511351D01*
X489661Y510572D01*
X490679Y510150D01*
X491781D01*
X492799Y510572D01*
X493263Y511036D01*
X494730Y511212D01*
X496197Y511036D01*
X496661Y510572D01*
X497679Y510150D01*
X498781D01*
X499799Y510572D01*
X500578Y511351D01*
X501000Y512369D01*
Y513471D01*
X500578Y514489D01*
X499799Y515268D01*
X498781Y515690D01*
D02*
G37*
G36*
X495281Y508190D02*
X494179D01*
X493161Y507768D01*
X492382Y506989D01*
X491960Y505971D01*
Y504869D01*
X492382Y503851D01*
X493161Y503072D01*
X494179Y502650D01*
X495281D01*
X496299Y503072D01*
X497078Y503851D01*
X497500Y504869D01*
Y505971D01*
X497078Y506989D01*
X496299Y507768D01*
X495281Y508190D01*
D02*
G37*
G36*
X517648Y509270D02*
X516132D01*
X514732Y508690D01*
X513660Y507618D01*
X513080Y506218D01*
Y504702D01*
X513660Y503302D01*
X514732Y502230D01*
X516132Y501650D01*
X517648D01*
X519048Y502230D01*
X520120Y503302D01*
X520700Y504702D01*
Y506218D01*
X520120Y507618D01*
X519048Y508690D01*
X517648Y509270D01*
D02*
G37*
G36*
X271268Y557650D02*
X269752D01*
X268352Y557070D01*
X267280Y555998D01*
X266700Y554598D01*
Y553082D01*
X267280Y551682D01*
X267920Y551042D01*
Y539870D01*
X268117Y538879D01*
X268679Y538039D01*
X275029Y531689D01*
X275869Y531127D01*
X276860Y530930D01*
X292297D01*
X298400Y524827D01*
Y471290D01*
X298597Y470299D01*
X299159Y469459D01*
X319479Y449139D01*
X320319Y448577D01*
X321310Y448380D01*
X370582D01*
X371222Y447740D01*
X372622Y447160D01*
X374138D01*
X375538Y447740D01*
X376610Y448812D01*
X377190Y450212D01*
Y451728D01*
X376610Y453128D01*
X375538Y454200D01*
X374138Y454780D01*
X372622D01*
X371222Y454200D01*
X370582Y453560D01*
X322383D01*
X303580Y472363D01*
Y499622D01*
X306070Y499742D01*
X306650Y498342D01*
X307722Y497270D01*
X309122Y496690D01*
X310638D01*
X312038Y497270D01*
X313110Y498342D01*
X313690Y499742D01*
Y501258D01*
X313110Y502658D01*
X312038Y503730D01*
X310638Y504310D01*
X309122D01*
X307722Y503730D01*
X306650Y502658D01*
X306070Y501258D01*
X303580Y501378D01*
Y525900D01*
X303383Y526891D01*
X302821Y527731D01*
X295201Y535351D01*
X294361Y535913D01*
X293370Y536110D01*
X277933D01*
X273100Y540943D01*
Y551042D01*
X273740Y551682D01*
X274320Y553082D01*
Y554598D01*
X273740Y555998D01*
X272668Y557070D01*
X271268Y557650D01*
D02*
G37*
G36*
X108708Y557530D02*
X107192D01*
X105792Y556950D01*
X104720Y555878D01*
X104140Y554478D01*
Y552962D01*
X104720Y551562D01*
X105360Y550922D01*
Y539750D01*
X105557Y538759D01*
X106119Y537919D01*
X112469Y531569D01*
X113309Y531007D01*
X114300Y530810D01*
X129737D01*
X135840Y524707D01*
Y471170D01*
X136037Y470179D01*
X136599Y469339D01*
X156919Y449019D01*
X157759Y448457D01*
X158750Y448260D01*
X208022D01*
X208662Y447620D01*
X210062Y447040D01*
X211578D01*
X212978Y447620D01*
X214050Y448692D01*
X214630Y450092D01*
Y451608D01*
X214050Y453008D01*
X212978Y454080D01*
X211578Y454660D01*
X210062D01*
X208662Y454080D01*
X208022Y453440D01*
X159823D01*
X141020Y472243D01*
Y499502D01*
X143510Y499622D01*
X144090Y498222D01*
X145162Y497150D01*
X146562Y496570D01*
X148078D01*
X149478Y497150D01*
X150550Y498222D01*
X151130Y499622D01*
Y501138D01*
X150550Y502538D01*
X149478Y503610D01*
X148078Y504190D01*
X146562D01*
X145162Y503610D01*
X144090Y502538D01*
X143510Y501138D01*
X141020Y501258D01*
Y525780D01*
X140823Y526771D01*
X140261Y527611D01*
X132641Y535231D01*
X131801Y535793D01*
X130810Y535990D01*
X115373D01*
X110540Y540823D01*
Y550922D01*
X111180Y551562D01*
X111760Y552962D01*
Y554478D01*
X111180Y555878D01*
X110108Y556950D01*
X108708Y557530D01*
D02*
G37*
G36*
X380488Y492880D02*
X378972D01*
X377572Y492300D01*
X376500Y491228D01*
X375920Y489828D01*
Y488312D01*
X376500Y486912D01*
X377572Y485840D01*
X378972Y485260D01*
X380488D01*
X381888Y485840D01*
X382960Y486912D01*
X383540Y488312D01*
Y489828D01*
X382960Y491228D01*
X381888Y492300D01*
X380488Y492880D01*
D02*
G37*
G36*
X217928Y492760D02*
X216412D01*
X215012Y492180D01*
X213940Y491108D01*
X213360Y489708D01*
Y488192D01*
X213940Y486792D01*
X215012Y485720D01*
X216412Y485140D01*
X217928D01*
X219328Y485720D01*
X220400Y486792D01*
X220980Y488192D01*
Y489708D01*
X220400Y491108D01*
X219328Y492180D01*
X217928Y492760D01*
D02*
G37*
G36*
X342388Y525990D02*
X340872D01*
X339472Y525410D01*
X338400Y524338D01*
X337820Y522938D01*
Y521422D01*
X338400Y520022D01*
X339017Y519405D01*
X339474Y518921D01*
X339670Y516508D01*
Y516508D01*
X339532Y516176D01*
X339090Y515108D01*
Y513592D01*
X336932Y512500D01*
X335860Y511428D01*
X335280Y510028D01*
Y508512D01*
X335860Y507112D01*
X336932Y506040D01*
X338332Y505460D01*
X339848D01*
X340466Y505716D01*
X340940Y504572D01*
X341733Y502920D01*
X340940Y501268D01*
X340360Y499868D01*
Y498352D01*
X340940Y496952D01*
X341733Y495300D01*
X340940Y493648D01*
X340360Y492248D01*
Y490732D01*
X340940Y489332D01*
X341748Y487740D01*
X340940Y486148D01*
X340360Y484748D01*
Y483232D01*
X340940Y481832D01*
X342012Y480760D01*
X343412Y480180D01*
X344928D01*
X346328Y480760D01*
X347400Y481832D01*
X347980Y483232D01*
Y484748D01*
X347400Y486148D01*
X346592Y487740D01*
X347400Y489332D01*
X347980Y490732D01*
Y492248D01*
X347400Y493648D01*
X346607Y495300D01*
X347400Y496952D01*
X347980Y498352D01*
Y499868D01*
X347400Y501268D01*
X346607Y502920D01*
X347400Y504572D01*
X347980Y505972D01*
Y507488D01*
X347400Y508888D01*
X346328Y509960D01*
X346130Y512192D01*
X346710Y513592D01*
Y515108D01*
X346130Y516508D01*
X345513Y517125D01*
X345056Y517609D01*
X344860Y520022D01*
Y520022D01*
X344998Y520354D01*
X345440Y521422D01*
Y522938D01*
X344860Y524338D01*
X343788Y525410D01*
X342388Y525990D01*
D02*
G37*
G36*
X179828Y525870D02*
X178312D01*
X176912Y525290D01*
X175840Y524218D01*
X175260Y522818D01*
Y521302D01*
X175840Y519902D01*
X176887Y518855D01*
X176939Y518306D01*
X177042Y516344D01*
X176530Y515108D01*
Y513592D01*
X174372Y512500D01*
X173300Y511428D01*
X172720Y510028D01*
Y508512D01*
X173300Y507112D01*
X174372Y506040D01*
X175772Y505460D01*
X177288D01*
X177498Y505520D01*
X178537Y504501D01*
X178507Y501395D01*
X178380Y501268D01*
X177800Y499868D01*
Y498352D01*
X178380Y496952D01*
X179173Y495300D01*
X178380Y493648D01*
X177800Y492248D01*
Y490732D01*
X178380Y489332D01*
X179173Y487680D01*
X178380Y486028D01*
X177800Y484628D01*
Y483112D01*
X178380Y481712D01*
X179452Y480640D01*
X180852Y480060D01*
X182368D01*
X183768Y480640D01*
X184840Y481712D01*
X185420Y483112D01*
Y484628D01*
X184840Y486028D01*
X184047Y487680D01*
X184840Y489332D01*
X185420Y490732D01*
Y492248D01*
X184840Y493648D01*
X184047Y495300D01*
X184840Y496952D01*
X185420Y498352D01*
Y499868D01*
X184840Y501268D01*
X185038Y503500D01*
X186110Y504572D01*
X186690Y505972D01*
Y507488D01*
X186110Y508888D01*
X185038Y509960D01*
X184962Y509992D01*
X183777Y511864D01*
X183894Y512974D01*
X184150Y513592D01*
Y515108D01*
X183570Y516508D01*
X182523Y517555D01*
X182471Y518104D01*
X182368Y520066D01*
X182880Y521302D01*
Y522818D01*
X182300Y524218D01*
X181228Y525290D01*
X179828Y525870D01*
D02*
G37*
G36*
X291588Y475100D02*
X290072D01*
X288672Y474520D01*
X287600Y473448D01*
X287020Y472048D01*
Y470532D01*
X287600Y469132D01*
X288672Y468060D01*
X290072Y467480D01*
X291588D01*
X292988Y468060D01*
X294060Y469132D01*
X294640Y470532D01*
Y472048D01*
X294060Y473448D01*
X292988Y474520D01*
X291588Y475100D01*
D02*
G37*
G36*
X129028Y474980D02*
X127512D01*
X126112Y474400D01*
X125040Y473328D01*
X124460Y471928D01*
Y470412D01*
X125040Y469012D01*
X126112Y467940D01*
X127512Y467360D01*
X129028D01*
X130428Y467940D01*
X131500Y469012D01*
X132080Y470412D01*
Y471928D01*
X131500Y473328D01*
X130428Y474400D01*
X129028Y474980D01*
D02*
G37*
G36*
X477008Y458470D02*
X475492D01*
X474092Y457890D01*
X473020Y456818D01*
X472440Y455418D01*
Y453902D01*
X473020Y452502D01*
X474092Y451430D01*
X475492Y450850D01*
X477008D01*
X478408Y451430D01*
X479480Y452502D01*
X480060Y453902D01*
Y455418D01*
X479480Y456818D01*
X478408Y457890D01*
X477008Y458470D01*
D02*
G37*
G36*
X414020Y419097D02*
Y414020D01*
X419097D01*
X418133Y416347D01*
X416347Y418133D01*
X414020Y419097D01*
D02*
G37*
G36*
X411480D02*
X409153Y418133D01*
X407367Y416347D01*
X406403Y414020D01*
X411480D01*
Y419097D01*
D02*
G37*
G36*
X529649Y477520D02*
X524451D01*
X519318Y476707D01*
X514375Y475101D01*
X509744Y472741D01*
X505539Y469686D01*
X501864Y466011D01*
X498809Y461806D01*
X496449Y457175D01*
X494843Y452232D01*
X494030Y447099D01*
Y441901D01*
X494843Y436768D01*
X496449Y431825D01*
X498809Y427194D01*
X501864Y422989D01*
X505539Y419314D01*
X509744Y416259D01*
X514375Y413899D01*
X519318Y412293D01*
X524451Y411480D01*
X529649D01*
X534782Y412293D01*
X539725Y413899D01*
X544356Y416259D01*
X548561Y419314D01*
X552236Y422989D01*
X555291Y427194D01*
X557651Y431825D01*
X559257Y436768D01*
X560070Y441901D01*
Y447099D01*
X559257Y452232D01*
X557651Y457175D01*
X555291Y461806D01*
X552236Y466011D01*
X548561Y469686D01*
X544356Y472741D01*
X539725Y475101D01*
X534782Y476707D01*
X529649Y477520D01*
D02*
G37*
G36*
X334768Y412870D02*
X333252D01*
X331852Y412290D01*
X331474Y411912D01*
X330950Y411808D01*
X329900Y411106D01*
X328045Y409251D01*
X326390Y408750D01*
X324735Y409251D01*
X322880Y411106D01*
X321830Y411808D01*
X321306Y411912D01*
X320928Y412290D01*
X319528Y412870D01*
X318012D01*
X316612Y412290D01*
X315540Y411218D01*
X314960Y409818D01*
Y408302D01*
X315540Y406902D01*
X316612Y405830D01*
X318012Y405250D01*
X319528D01*
X319978Y402903D01*
Y400407D01*
X320224Y399168D01*
X320926Y398118D01*
X349223Y369821D01*
X350273Y369119D01*
X351512Y368873D01*
X370769D01*
X377763Y361879D01*
Y173900D01*
X378009Y172661D01*
X378711Y171611D01*
X403753Y146569D01*
Y126391D01*
X383469Y106107D01*
X342900D01*
X341661Y105861D01*
X340611Y105159D01*
X330510Y95058D01*
X325569D01*
X324579Y97598D01*
X331346Y104365D01*
X332048Y105415D01*
X332294Y106654D01*
Y111535D01*
X334834Y112587D01*
X335663Y111758D01*
X337691Y110588D01*
X339952Y109982D01*
X342292D01*
X344553Y110588D01*
X346581Y111758D01*
X348236Y113413D01*
X349406Y115441D01*
X350012Y117702D01*
Y120042D01*
X349406Y122303D01*
X349306Y122478D01*
X357833Y131005D01*
X358950D01*
X360188Y131251D01*
X361239Y131953D01*
X372136Y142851D01*
X374662Y142726D01*
X375184Y142473D01*
X375537Y141861D01*
X377192Y140206D01*
X379220Y139036D01*
X381481Y138430D01*
X383821D01*
X386082Y139036D01*
X388110Y140206D01*
X389765Y141861D01*
X390935Y143889D01*
X391541Y146150D01*
Y148490D01*
X390935Y150751D01*
X389765Y152779D01*
X388110Y154434D01*
X386082Y155604D01*
X383821Y156210D01*
X381481D01*
X379220Y155604D01*
X377192Y154434D01*
X376363Y153605D01*
X373823Y154657D01*
Y163847D01*
X373577Y165086D01*
X372875Y166136D01*
X357652Y181359D01*
X356602Y182061D01*
X355363Y182307D01*
X309643D01*
X297640Y194310D01*
X297753Y195270D01*
X298471Y197071D01*
X299338Y197430D01*
X300410Y198502D01*
X300990Y199902D01*
Y201418D01*
X300410Y202818D01*
X299338Y203890D01*
X297938Y204470D01*
X296422D01*
X295022Y203890D01*
X294644Y203512D01*
X294120Y203408D01*
X293070Y202706D01*
X291215Y200851D01*
X289560Y200350D01*
X287905Y200851D01*
X286050Y202706D01*
X285000Y203408D01*
X284476Y203512D01*
X284098Y203890D01*
X282698Y204470D01*
X281182D01*
X279782Y203890D01*
X278710Y202818D01*
X278130Y201418D01*
Y199902D01*
X278710Y198502D01*
X279782Y197430D01*
X281182Y196850D01*
X282698D01*
X283148Y194503D01*
Y192007D01*
X283394Y190768D01*
X284096Y189718D01*
X303383Y170431D01*
X304433Y169729D01*
X305672Y169483D01*
X351392D01*
X360999Y159876D01*
Y157035D01*
X358459Y155568D01*
X358396Y155604D01*
X356135Y156210D01*
X353795D01*
X351534Y155604D01*
X349506Y154434D01*
X347851Y152779D01*
X346681Y150751D01*
X346075Y148490D01*
Y146150D01*
X346681Y143889D01*
X347851Y141861D01*
X349506Y140206D01*
X351534Y139036D01*
X352851Y138683D01*
X353235Y138072D01*
X353656Y136343D01*
X353630Y135958D01*
X344728Y127056D01*
X344553Y127156D01*
X342292Y127762D01*
X339952D01*
X337691Y127156D01*
X335663Y125986D01*
X334834Y125157D01*
X332294Y126209D01*
Y126755D01*
X332048Y127994D01*
X331346Y129044D01*
X328693Y131697D01*
Y138495D01*
X330710Y139036D01*
X332738Y140206D01*
X334393Y141861D01*
X335563Y143889D01*
X336169Y146150D01*
Y148490D01*
X335563Y150751D01*
X334393Y152779D01*
X332738Y154434D01*
X330710Y155604D01*
X328449Y156210D01*
X326109D01*
X323848Y155604D01*
X321820Y154434D01*
X320165Y152779D01*
X318995Y150751D01*
X318389Y148490D01*
Y146150D01*
X318995Y143889D01*
X320165Y141861D01*
X321820Y140206D01*
X322219Y139976D01*
Y130356D01*
X322465Y129117D01*
X323167Y128067D01*
X325820Y125414D01*
Y119234D01*
X323280Y118025D01*
X322326Y118800D01*
Y120042D01*
X321720Y122303D01*
X320550Y124331D01*
X318895Y125986D01*
X316867Y127156D01*
X314606Y127762D01*
X312266D01*
X310005Y127156D01*
X307977Y125986D01*
X306322Y124331D01*
X305152Y122303D01*
X304546Y120042D01*
Y117702D01*
X305152Y115441D01*
X306322Y113413D01*
X307977Y111758D01*
X308427Y111499D01*
X308886Y108633D01*
X307786Y107377D01*
X191533D01*
X104600Y194310D01*
X104713Y195270D01*
X105431Y197071D01*
X106298Y197430D01*
X107370Y198502D01*
X107950Y199902D01*
Y201418D01*
X107370Y202818D01*
X106298Y203890D01*
X104898Y204470D01*
X103382D01*
X101982Y203890D01*
X101604Y203512D01*
X101080Y203408D01*
X100030Y202706D01*
X98175Y200851D01*
X96520Y200350D01*
X94865Y200851D01*
X93010Y202706D01*
X91960Y203408D01*
X91436Y203512D01*
X91058Y203890D01*
X89658Y204470D01*
X88142D01*
X86742Y203890D01*
X85670Y202818D01*
X85090Y201418D01*
Y199902D01*
X85670Y198502D01*
X86742Y197430D01*
X88142Y196850D01*
X89658D01*
X90108Y194503D01*
Y192007D01*
X90354Y190768D01*
X91056Y189718D01*
X185273Y95501D01*
X186323Y94799D01*
X187562Y94553D01*
X306220D01*
X307272Y92013D01*
X303199Y87940D01*
X303024Y88040D01*
X300763Y88646D01*
X298423D01*
X296162Y88040D01*
X294134Y86870D01*
X292479Y85215D01*
X291309Y83187D01*
X290703Y80926D01*
Y78586D01*
X291309Y76325D01*
X292479Y74297D01*
X294134Y72642D01*
X296162Y71472D01*
X298423Y70866D01*
X300763D01*
X303024Y71472D01*
X305052Y72642D01*
X306707Y74297D01*
X307877Y76325D01*
X308483Y78586D01*
Y80926D01*
X307877Y83187D01*
X307777Y83362D01*
X312618Y88203D01*
X319561D01*
X320613Y85663D01*
X320165Y85215D01*
X318995Y83187D01*
X318389Y80926D01*
Y78586D01*
X318995Y76325D01*
X320165Y74297D01*
X321820Y72642D01*
X323848Y71472D01*
X325526Y71022D01*
X326446Y69398D01*
X326693Y68326D01*
X325983Y67364D01*
X298569D01*
X297330Y67118D01*
X296280Y66416D01*
X289356Y59492D01*
X289181Y59592D01*
X286920Y60198D01*
X284580D01*
X282319Y59592D01*
X280291Y58422D01*
X278636Y56767D01*
X277466Y54739D01*
X276860Y52478D01*
Y50138D01*
X277466Y47877D01*
X278636Y45849D01*
X280291Y44194D01*
X282319Y43024D01*
X284580Y42418D01*
X286920D01*
X289181Y43024D01*
X291209Y44194D01*
X292864Y45849D01*
X294034Y47877D01*
X294640Y50138D01*
Y52478D01*
X294034Y54739D01*
X293934Y54914D01*
X299910Y60890D01*
X307172D01*
X307892Y58684D01*
X307905Y58350D01*
X306322Y56767D01*
X305152Y54739D01*
X304546Y52478D01*
Y50138D01*
X305152Y47877D01*
X306322Y45849D01*
X307977Y44194D01*
X310005Y43024D01*
X312266Y42418D01*
X314606D01*
X316867Y43024D01*
X318895Y44194D01*
X320550Y45849D01*
X321720Y47877D01*
X322326Y50138D01*
Y52478D01*
X321720Y54739D01*
X320550Y56767D01*
X318967Y58350D01*
X318980Y58684D01*
X319700Y60890D01*
X328712D01*
X329951Y61136D01*
X331001Y61838D01*
X343329Y74166D01*
X344031Y75216D01*
X344166Y75896D01*
X346441Y76284D01*
X346729Y76241D01*
X347851Y74297D01*
X349506Y72642D01*
X351534Y71472D01*
X353795Y70866D01*
X356135D01*
X358396Y71472D01*
X360424Y72642D01*
X362079Y74297D01*
X363249Y76325D01*
X363855Y78586D01*
Y80926D01*
X363249Y83187D01*
X362079Y85215D01*
X360424Y86870D01*
X358396Y88040D01*
X356135Y88646D01*
X353795D01*
X351534Y88040D01*
X349506Y86870D01*
X347851Y85215D01*
X344605Y84601D01*
X344277Y84802D01*
Y90689D01*
X346871Y93283D01*
X387440D01*
X388679Y93529D01*
X389729Y94231D01*
X415629Y120131D01*
X416331Y121181D01*
X416577Y122420D01*
Y150540D01*
X416331Y151779D01*
X415629Y152829D01*
X413769Y154689D01*
X413769Y154689D01*
X390587Y177871D01*
Y365850D01*
X390341Y367089D01*
X389639Y368139D01*
X377029Y380749D01*
X375979Y381451D01*
X374740Y381697D01*
X355483D01*
X334470Y402710D01*
X334583Y403670D01*
X335301Y405471D01*
X336168Y405830D01*
X337240Y406902D01*
X337820Y408302D01*
Y409818D01*
X337240Y411218D01*
X336168Y412290D01*
X334768Y412870D01*
D02*
G37*
G36*
X398521Y417830D02*
X396499D01*
X394632Y417057D01*
X393203Y415628D01*
X392430Y413760D01*
Y411740D01*
X393203Y409872D01*
X394632Y408443D01*
X396499Y407670D01*
X398521D01*
X400388Y408443D01*
X401817Y409872D01*
X402590Y411740D01*
Y413760D01*
X401817Y415628D01*
X400388Y417057D01*
X398521Y417830D01*
D02*
G37*
G36*
X419097Y411480D02*
X414020D01*
Y406403D01*
X416347Y407367D01*
X418133Y409153D01*
X419097Y411480D01*
D02*
G37*
G36*
X411480D02*
X406403D01*
X407367Y409153D01*
X409153Y407367D01*
X411480Y406403D01*
Y411480D01*
D02*
G37*
G36*
X457958Y377190D02*
X456442D01*
X455042Y376610D01*
X453970Y375538D01*
X453390Y374138D01*
Y372622D01*
X453970Y371222D01*
X455042Y370150D01*
X456442Y369570D01*
X457958D01*
X459358Y370150D01*
X460430Y371222D01*
X461010Y372622D01*
Y374138D01*
X460430Y375538D01*
X459358Y376610D01*
X457958Y377190D01*
D02*
G37*
G36*
X264918D02*
X263402D01*
X262002Y376610D01*
X260930Y375538D01*
X260350Y374138D01*
Y372622D01*
X260930Y371222D01*
X262002Y370150D01*
X263402Y369570D01*
X264918D01*
X266318Y370150D01*
X267390Y371222D01*
X267970Y372622D01*
Y374138D01*
X267390Y375538D01*
X266318Y376610D01*
X264918Y377190D01*
D02*
G37*
G36*
X71878D02*
X70362D01*
X68962Y376610D01*
X67890Y375538D01*
X67310Y374138D01*
Y372622D01*
X67890Y371222D01*
X68962Y370150D01*
X70362Y369570D01*
X71878D01*
X73278Y370150D01*
X74350Y371222D01*
X74930Y372622D01*
Y374138D01*
X74350Y375538D01*
X73278Y376610D01*
X71878Y377190D01*
D02*
G37*
G36*
X440178Y367030D02*
X438662D01*
X437262Y366450D01*
X436190Y365378D01*
X435610Y363978D01*
Y362462D01*
X436190Y361062D01*
X437262Y359990D01*
X438662Y359410D01*
X440178D01*
X441578Y359990D01*
X442650Y361062D01*
X443230Y362462D01*
Y363978D01*
X442650Y365378D01*
X441578Y366450D01*
X440178Y367030D01*
D02*
G37*
G36*
X247138D02*
X245622D01*
X244222Y366450D01*
X243150Y365378D01*
X242570Y363978D01*
Y362462D01*
X243150Y361062D01*
X244222Y359990D01*
X245622Y359410D01*
X247138D01*
X248538Y359990D01*
X249610Y361062D01*
X250190Y362462D01*
Y363978D01*
X249610Y365378D01*
X248538Y366450D01*
X247138Y367030D01*
D02*
G37*
G36*
X417318Y350520D02*
X415802D01*
X414402Y349940D01*
X413556Y349094D01*
X412115Y348971D01*
X410674Y349094D01*
X409828Y349940D01*
X408428Y350520D01*
X406912D01*
X405512Y349940D01*
X404440Y348868D01*
X403860Y347468D01*
Y345952D01*
X404440Y344552D01*
X405512Y343480D01*
X406912Y342900D01*
X408428D01*
X409828Y343480D01*
X410674Y344326D01*
X412115Y344449D01*
X413556Y344326D01*
X414402Y343480D01*
X415802Y342900D01*
X417318D01*
X418718Y343480D01*
X419790Y344552D01*
X420370Y345952D01*
Y347468D01*
X419790Y348868D01*
X418718Y349940D01*
X417318Y350520D01*
D02*
G37*
G36*
X224278D02*
X222762D01*
X221362Y349940D01*
X220516Y349094D01*
X219075Y348971D01*
X217634Y349094D01*
X216788Y349940D01*
X215388Y350520D01*
X213872D01*
X212472Y349940D01*
X211400Y348868D01*
X210820Y347468D01*
Y345952D01*
X211400Y344552D01*
X212472Y343480D01*
X213872Y342900D01*
X215388D01*
X216788Y343480D01*
X217634Y344326D01*
X219075Y344449D01*
X220516Y344326D01*
X221362Y343480D01*
X222762Y342900D01*
X224278D01*
X225678Y343480D01*
X226750Y344552D01*
X227330Y345952D01*
Y347468D01*
X226750Y348868D01*
X225678Y349940D01*
X224278Y350520D01*
D02*
G37*
G36*
X480818Y355600D02*
X479302D01*
X477902Y355020D01*
X476830Y353948D01*
X476250Y352548D01*
Y351032D01*
X476830Y349632D01*
X477902Y348560D01*
X479302Y347980D01*
X480818D01*
X482218Y348560D01*
X483290Y349632D01*
X483870Y351032D01*
Y352548D01*
X483290Y353948D01*
X482218Y355020D01*
X480818Y355600D01*
D02*
G37*
G36*
X287778D02*
X286262D01*
X284862Y355020D01*
X283790Y353948D01*
X283210Y352548D01*
Y351032D01*
X283790Y349632D01*
X284862Y348560D01*
X286262Y347980D01*
X287778D01*
X289178Y348560D01*
X290250Y349632D01*
X290830Y351032D01*
Y352548D01*
X290250Y353948D01*
X289178Y355020D01*
X287778Y355600D01*
D02*
G37*
G36*
X94738D02*
X93222D01*
X91822Y355020D01*
X90750Y353948D01*
X90170Y352548D01*
Y351032D01*
X90750Y349632D01*
X91822Y348560D01*
X93222Y347980D01*
X94738D01*
X96138Y348560D01*
X97210Y349632D01*
X97790Y351032D01*
Y352548D01*
X97210Y353948D01*
X96138Y355020D01*
X94738Y355600D01*
D02*
G37*
G36*
X427478Y349250D02*
X425962D01*
X424562Y348670D01*
X423490Y347598D01*
X422910Y346198D01*
Y344682D01*
X423490Y343282D01*
X424130Y342642D01*
Y331470D01*
X424327Y330479D01*
X424889Y329639D01*
X431239Y323289D01*
X432079Y322727D01*
X433070Y322530D01*
X448507D01*
X454610Y316427D01*
Y262890D01*
X454807Y261899D01*
X455369Y261059D01*
X475689Y240739D01*
X476529Y240177D01*
X477520Y239980D01*
X526792D01*
X527432Y239340D01*
X528832Y238760D01*
X530348D01*
X531748Y239340D01*
X532820Y240412D01*
X533400Y241812D01*
Y243328D01*
X532820Y244728D01*
X531748Y245800D01*
X530348Y246380D01*
X528832D01*
X527432Y245800D01*
X526792Y245160D01*
X478593D01*
X459790Y263963D01*
Y291222D01*
X462280Y291342D01*
X462860Y289942D01*
X463932Y288870D01*
X465332Y288290D01*
X466848D01*
X468248Y288870D01*
X469320Y289942D01*
X469900Y291342D01*
Y292858D01*
X469320Y294258D01*
X468248Y295330D01*
X466848Y295910D01*
X465332D01*
X463932Y295330D01*
X462860Y294258D01*
X462280Y292858D01*
X459790Y292978D01*
Y317500D01*
X459593Y318491D01*
X459031Y319331D01*
X451411Y326951D01*
X450571Y327513D01*
X449580Y327710D01*
X434143D01*
X429310Y332543D01*
Y342642D01*
X429950Y343282D01*
X430530Y344682D01*
Y346198D01*
X429950Y347598D01*
X428878Y348670D01*
X427478Y349250D01*
D02*
G37*
G36*
X234438D02*
X232922D01*
X231522Y348670D01*
X230450Y347598D01*
X229870Y346198D01*
Y344682D01*
X230450Y343282D01*
X231090Y342642D01*
Y331470D01*
X231287Y330479D01*
X231849Y329639D01*
X238199Y323289D01*
X239039Y322727D01*
X240030Y322530D01*
X255467D01*
X261570Y316427D01*
Y262890D01*
X261767Y261899D01*
X262329Y261059D01*
X282649Y240739D01*
X283489Y240177D01*
X284480Y239980D01*
X333752D01*
X334392Y239340D01*
X335792Y238760D01*
X337308D01*
X338708Y239340D01*
X339780Y240412D01*
X340360Y241812D01*
Y243328D01*
X339780Y244728D01*
X338708Y245800D01*
X337308Y246380D01*
X335792D01*
X334392Y245800D01*
X333752Y245160D01*
X285553D01*
X266750Y263963D01*
Y291222D01*
X269240Y291342D01*
X269820Y289942D01*
X270892Y288870D01*
X272292Y288290D01*
X273808D01*
X275208Y288870D01*
X276280Y289942D01*
X276860Y291342D01*
Y292858D01*
X276280Y294258D01*
X275208Y295330D01*
X273808Y295910D01*
X272292D01*
X270892Y295330D01*
X269820Y294258D01*
X269240Y292858D01*
X266750Y292978D01*
Y317500D01*
X266553Y318491D01*
X265991Y319331D01*
X258371Y326951D01*
X257531Y327513D01*
X256540Y327710D01*
X241103D01*
X236270Y332543D01*
Y342642D01*
X236910Y343282D01*
X237490Y344682D01*
Y346198D01*
X236910Y347598D01*
X235838Y348670D01*
X234438Y349250D01*
D02*
G37*
G36*
X41398D02*
X39882D01*
X38482Y348670D01*
X37410Y347598D01*
X36830Y346198D01*
Y344682D01*
X37410Y343282D01*
X38050Y342642D01*
Y331470D01*
X38247Y330479D01*
X38809Y329639D01*
X45159Y323289D01*
X45999Y322727D01*
X46990Y322530D01*
X62427D01*
X68530Y316427D01*
Y262890D01*
X68727Y261899D01*
X69289Y261059D01*
X89609Y240739D01*
X90449Y240177D01*
X91440Y239980D01*
X140712D01*
X141352Y239340D01*
X142752Y238760D01*
X144268D01*
X145668Y239340D01*
X146740Y240412D01*
X147320Y241812D01*
Y243328D01*
X146740Y244728D01*
X145668Y245800D01*
X144268Y246380D01*
X142752D01*
X141352Y245800D01*
X140712Y245160D01*
X92513D01*
X73710Y263963D01*
Y291222D01*
X76200Y291342D01*
X76780Y289942D01*
X77852Y288870D01*
X79252Y288290D01*
X80768D01*
X82168Y288870D01*
X83240Y289942D01*
X83820Y291342D01*
Y292858D01*
X83240Y294258D01*
X82168Y295330D01*
X80768Y295910D01*
X79252D01*
X77852Y295330D01*
X76780Y294258D01*
X76200Y292858D01*
X73710Y292978D01*
Y317500D01*
X73513Y318491D01*
X72951Y319331D01*
X65331Y326951D01*
X64491Y327513D01*
X63500Y327710D01*
X48063D01*
X43230Y332543D01*
Y342642D01*
X43870Y343282D01*
X44450Y344682D01*
Y346198D01*
X43870Y347598D01*
X42798Y348670D01*
X41398Y349250D01*
D02*
G37*
G36*
X536698Y284480D02*
X535182D01*
X533782Y283900D01*
X532710Y282828D01*
X532130Y281428D01*
Y279912D01*
X532710Y278512D01*
X533782Y277440D01*
X535182Y276860D01*
X536698D01*
X538098Y277440D01*
X539170Y278512D01*
X539750Y279912D01*
Y281428D01*
X539170Y282828D01*
X538098Y283900D01*
X536698Y284480D01*
D02*
G37*
G36*
X343658D02*
X342142D01*
X340742Y283900D01*
X339670Y282828D01*
X339090Y281428D01*
Y279912D01*
X339670Y278512D01*
X340742Y277440D01*
X342142Y276860D01*
X343658D01*
X345058Y277440D01*
X346130Y278512D01*
X346710Y279912D01*
Y281428D01*
X346130Y282828D01*
X345058Y283900D01*
X343658Y284480D01*
D02*
G37*
G36*
X150618D02*
X149102D01*
X147702Y283900D01*
X146630Y282828D01*
X146050Y281428D01*
Y279912D01*
X146630Y278512D01*
X147702Y277440D01*
X149102Y276860D01*
X150618D01*
X152018Y277440D01*
X153090Y278512D01*
X153670Y279912D01*
Y281428D01*
X153090Y282828D01*
X152018Y283900D01*
X150618Y284480D01*
D02*
G37*
G36*
X498598Y317590D02*
X497082D01*
X495682Y317010D01*
X494610Y315938D01*
X494030Y314538D01*
Y313022D01*
X494610Y311622D01*
X495657Y310575D01*
X495709Y310026D01*
X495812Y308064D01*
X495300Y306828D01*
Y305312D01*
X493142Y304220D01*
X492070Y303148D01*
X491490Y301748D01*
Y300232D01*
X492070Y298832D01*
X493142Y297760D01*
X494542Y297180D01*
X496058D01*
X497150Y295022D01*
Y292988D01*
X496570Y291588D01*
Y290072D01*
X497150Y288672D01*
X497943Y287020D01*
X497150Y285368D01*
X496570Y283968D01*
Y282452D01*
X497150Y281052D01*
X497943Y279400D01*
X497150Y277748D01*
X496570Y276348D01*
Y274832D01*
X497150Y273432D01*
X498222Y272360D01*
X499622Y271780D01*
X501138D01*
X502538Y272360D01*
X503610Y273432D01*
X504190Y274832D01*
Y276348D01*
X503610Y277748D01*
X502817Y279400D01*
X503610Y281052D01*
X504190Y282452D01*
Y283968D01*
X503610Y285368D01*
X502817Y287020D01*
X503610Y288672D01*
X504190Y290072D01*
Y291588D01*
X503610Y292988D01*
X502593Y294005D01*
X503610Y295022D01*
X504190Y296422D01*
Y297938D01*
X503610Y299338D01*
X502538Y300410D01*
X502268Y300522D01*
X501978Y301194D01*
X501765Y303337D01*
X502340Y303912D01*
X502920Y305312D01*
Y306828D01*
X502340Y308228D01*
X501293Y309275D01*
X501241Y309824D01*
X501138Y311786D01*
X501650Y313022D01*
Y314538D01*
X501070Y315938D01*
X499998Y317010D01*
X498598Y317590D01*
D02*
G37*
G36*
X305558D02*
X304042D01*
X302642Y317010D01*
X301570Y315938D01*
X300990Y314538D01*
Y313022D01*
X301570Y311622D01*
X302617Y310575D01*
X302669Y310026D01*
X302772Y308064D01*
X302260Y306828D01*
Y305312D01*
X300102Y304220D01*
X299030Y303148D01*
X298450Y301748D01*
Y300232D01*
X299030Y298832D01*
X300102Y297760D01*
X301502Y297180D01*
X303018D01*
X303636Y297436D01*
X304110Y296292D01*
X304903Y294640D01*
X304110Y292988D01*
X303530Y291588D01*
Y290072D01*
X304110Y288672D01*
X304903Y287020D01*
X304110Y285368D01*
X303530Y283968D01*
Y282452D01*
X304110Y281052D01*
X304903Y279400D01*
X304110Y277748D01*
X303530Y276348D01*
Y274832D01*
X304110Y273432D01*
X305182Y272360D01*
X306582Y271780D01*
X308098D01*
X309498Y272360D01*
X310570Y273432D01*
X311150Y274832D01*
Y276348D01*
X310570Y277748D01*
X309777Y279400D01*
X310570Y281052D01*
X311150Y282452D01*
Y283968D01*
X310570Y285368D01*
X309777Y287020D01*
X310570Y288672D01*
X311150Y290072D01*
Y291588D01*
X310570Y292988D01*
X309777Y294640D01*
X310570Y296292D01*
X311150Y297692D01*
Y299208D01*
X310570Y300608D01*
X309498Y301680D01*
X309300Y303912D01*
X309880Y305312D01*
Y306828D01*
X309300Y308228D01*
X308253Y309275D01*
X308201Y309824D01*
X308098Y311786D01*
X308610Y313022D01*
Y314538D01*
X308030Y315938D01*
X306958Y317010D01*
X305558Y317590D01*
D02*
G37*
G36*
X112518D02*
X111002D01*
X109602Y317010D01*
X108530Y315938D01*
X107950Y314538D01*
Y313022D01*
X108530Y311622D01*
X109577Y310575D01*
X109629Y310026D01*
X109732Y308064D01*
X109220Y306828D01*
Y305312D01*
X107062Y304220D01*
X105990Y303148D01*
X105410Y301748D01*
Y300232D01*
X105990Y298832D01*
X107062Y297760D01*
X108462Y297180D01*
X109978D01*
X110596Y297436D01*
X111070Y296292D01*
X111863Y294640D01*
X111070Y292988D01*
X110490Y291588D01*
Y290072D01*
X111070Y288672D01*
X111863Y287020D01*
X111070Y285368D01*
X110490Y283968D01*
Y282452D01*
X111070Y281052D01*
X111863Y279400D01*
X111070Y277748D01*
X110490Y276348D01*
Y274832D01*
X111070Y273432D01*
X112142Y272360D01*
X113542Y271780D01*
X115058D01*
X116458Y272360D01*
X117530Y273432D01*
X118110Y274832D01*
Y276348D01*
X117530Y277748D01*
X116737Y279400D01*
X117530Y281052D01*
X118110Y282452D01*
Y283968D01*
X117530Y285368D01*
X116737Y287020D01*
X117530Y288672D01*
X118110Y290072D01*
Y291588D01*
X117530Y292988D01*
X116737Y294640D01*
X117530Y296292D01*
X118110Y297692D01*
Y299208D01*
X117530Y300608D01*
X116458Y301680D01*
X116260Y303912D01*
X116840Y305312D01*
Y306828D01*
X116260Y308228D01*
X115213Y309275D01*
X115161Y309824D01*
X115058Y311786D01*
X115570Y313022D01*
Y314538D01*
X114990Y315938D01*
X113918Y317010D01*
X112518Y317590D01*
D02*
G37*
G36*
X447798Y266700D02*
X446282D01*
X444882Y266120D01*
X443810Y265048D01*
X443230Y263648D01*
Y262132D01*
X443810Y260732D01*
X444882Y259660D01*
X446282Y259080D01*
X447798D01*
X449198Y259660D01*
X450270Y260732D01*
X450850Y262132D01*
Y263648D01*
X450270Y265048D01*
X449198Y266120D01*
X447798Y266700D01*
D02*
G37*
G36*
X254758D02*
X253242D01*
X251842Y266120D01*
X250770Y265048D01*
X250190Y263648D01*
Y262132D01*
X250770Y260732D01*
X251842Y259660D01*
X253242Y259080D01*
X254758D01*
X256158Y259660D01*
X257230Y260732D01*
X257810Y262132D01*
Y263648D01*
X257230Y265048D01*
X256158Y266120D01*
X254758Y266700D01*
D02*
G37*
G36*
X61718D02*
X60202D01*
X58802Y266120D01*
X57730Y265048D01*
X57150Y263648D01*
Y262132D01*
X57730Y260732D01*
X58802Y259660D01*
X60202Y259080D01*
X61718D01*
X63118Y259660D01*
X64190Y260732D01*
X64770Y262132D01*
Y263648D01*
X64190Y265048D01*
X63118Y266120D01*
X61718Y266700D01*
D02*
G37*
G36*
X490978Y204470D02*
X489462D01*
X488062Y203890D01*
X486990Y202818D01*
X486410Y201418D01*
Y199902D01*
X486990Y198502D01*
X488062Y197430D01*
X489462Y196850D01*
X490978D01*
X492378Y197430D01*
X493450Y198502D01*
X494030Y199902D01*
Y201418D01*
X493450Y202818D01*
X492378Y203890D01*
X490978Y204470D01*
D02*
G37*
G36*
X475738D02*
X474222D01*
X472822Y203890D01*
X471750Y202818D01*
X471170Y201418D01*
Y199902D01*
X471750Y198502D01*
X472822Y197430D01*
X474222Y196850D01*
X475738D01*
X477138Y197430D01*
X478210Y198502D01*
X478790Y199902D01*
Y201418D01*
X478210Y202818D01*
X477138Y203890D01*
X475738Y204470D01*
D02*
G37*
G36*
X273077Y156210D02*
X270737D01*
X268476Y155604D01*
X266448Y154434D01*
X264793Y152779D01*
X263623Y150751D01*
X263017Y148490D01*
Y146150D01*
X263623Y143889D01*
X264793Y141861D01*
X266448Y140206D01*
X268476Y139036D01*
X270737Y138430D01*
X273077D01*
X275338Y139036D01*
X277366Y140206D01*
X279021Y141861D01*
X280191Y143889D01*
X280797Y146150D01*
Y148490D01*
X280191Y150751D01*
X279021Y152779D01*
X277366Y154434D01*
X275338Y155604D01*
X273077Y156210D01*
D02*
G37*
G36*
X245391D02*
X243051D01*
X240790Y155604D01*
X238762Y154434D01*
X237107Y152779D01*
X235937Y150751D01*
X235331Y148490D01*
Y146150D01*
X235937Y143889D01*
X237107Y141861D01*
X238762Y140206D01*
X240790Y139036D01*
X243051Y138430D01*
X245391D01*
X247652Y139036D01*
X249680Y140206D01*
X251335Y141861D01*
X252505Y143889D01*
X253111Y146150D01*
Y148490D01*
X252505Y150751D01*
X251335Y152779D01*
X249680Y154434D01*
X247652Y155604D01*
X245391Y156210D01*
D02*
G37*
G36*
X217705D02*
X215365D01*
X213104Y155604D01*
X211076Y154434D01*
X209421Y152779D01*
X208251Y150751D01*
X207645Y148490D01*
Y146150D01*
X208251Y143889D01*
X209421Y141861D01*
X211076Y140206D01*
X213104Y139036D01*
X215365Y138430D01*
X217705D01*
X219966Y139036D01*
X221994Y140206D01*
X223649Y141861D01*
X224819Y143889D01*
X225425Y146150D01*
Y148490D01*
X224819Y150751D01*
X223649Y152779D01*
X221994Y154434D01*
X219966Y155604D01*
X217705Y156210D01*
D02*
G37*
G36*
X190019D02*
X187679D01*
X185418Y155604D01*
X183390Y154434D01*
X181735Y152779D01*
X180565Y150751D01*
X179959Y148490D01*
Y146150D01*
X180565Y143889D01*
X181735Y141861D01*
X183390Y140206D01*
X185418Y139036D01*
X187679Y138430D01*
X190019D01*
X192280Y139036D01*
X194308Y140206D01*
X195963Y141861D01*
X197133Y143889D01*
X197739Y146150D01*
Y148490D01*
X197133Y150751D01*
X195963Y152779D01*
X194308Y154434D01*
X192280Y155604D01*
X190019Y156210D01*
D02*
G37*
G36*
X156968Y412750D02*
X155452D01*
X154052Y412170D01*
X152980Y411098D01*
X152400Y409698D01*
Y408182D01*
X152980Y406782D01*
X154052Y405710D01*
X155227Y405223D01*
X157296Y403154D01*
Y388016D01*
X157543Y386777D01*
X158244Y385727D01*
X183453Y360519D01*
Y181520D01*
X183699Y180281D01*
X184401Y179231D01*
X202091Y161541D01*
X203141Y160839D01*
X204380Y160593D01*
X276699D01*
X281511Y155781D01*
X281511Y155781D01*
X284685Y152606D01*
X285736Y151904D01*
X286975Y151658D01*
X287584D01*
X290713Y148529D01*
X290703Y148490D01*
Y146150D01*
X291309Y143889D01*
X292479Y141861D01*
X294134Y140206D01*
X296162Y139036D01*
X298423Y138430D01*
X299595D01*
X300647Y135890D01*
X290914Y126156D01*
X289181Y127156D01*
X286920Y127762D01*
X284580D01*
X282319Y127156D01*
X280291Y125986D01*
X278636Y124331D01*
X277466Y122303D01*
X276860Y120042D01*
Y117702D01*
X277466Y115441D01*
X278636Y113413D01*
X280291Y111758D01*
X282319Y110588D01*
X284580Y109982D01*
X286920D01*
X289181Y110588D01*
X291209Y111758D01*
X292864Y113413D01*
X294034Y115441D01*
X294640Y117702D01*
Y120042D01*
X294495Y120582D01*
X313947Y140034D01*
X314649Y141084D01*
X314895Y142323D01*
Y152317D01*
X314649Y153556D01*
X313947Y154607D01*
X303704Y164849D01*
X302654Y165551D01*
X301416Y165797D01*
X289631D01*
X282959Y172469D01*
X281909Y173171D01*
X280670Y173417D01*
X208351D01*
X196277Y185491D01*
Y364490D01*
X196031Y365729D01*
X195329Y366779D01*
X170121Y391987D01*
Y403154D01*
X171854Y404887D01*
X171965D01*
X173365Y405467D01*
X174437Y406539D01*
X175017Y407939D01*
Y409455D01*
X174437Y410855D01*
X173365Y411927D01*
X171965Y412507D01*
X170449D01*
X169049Y411927D01*
X167977Y410855D01*
X167490Y409680D01*
X165364Y407553D01*
X164617Y407327D01*
X162800D01*
X162054Y407553D01*
X160020Y409587D01*
Y409698D01*
X159440Y411098D01*
X158368Y412170D01*
X156968Y412750D01*
D02*
G37*
G36*
X454000Y147828D02*
X450748D01*
X447558Y147193D01*
X444554Y145949D01*
X441850Y144142D01*
X439550Y141842D01*
X437743Y139138D01*
X436498Y136134D01*
X435864Y132944D01*
Y129692D01*
X436498Y126502D01*
X437743Y123498D01*
X439550Y120794D01*
X441850Y118494D01*
X444554Y116687D01*
X447558Y115442D01*
X450748Y114808D01*
X454000D01*
X457190Y115442D01*
X460194Y116687D01*
X462898Y118494D01*
X465198Y120794D01*
X467005Y123498D01*
X468250Y126502D01*
X468884Y129692D01*
Y132944D01*
X468250Y136134D01*
X467005Y139138D01*
X465198Y141842D01*
X462898Y144142D01*
X460194Y145949D01*
X457190Y147193D01*
X454000Y147828D01*
D02*
G37*
G36*
X120752D02*
X117500D01*
X114310Y147193D01*
X111306Y145949D01*
X108602Y144142D01*
X106302Y141842D01*
X104495Y139138D01*
X103251Y136134D01*
X102616Y132944D01*
Y129692D01*
X103251Y126502D01*
X104495Y123498D01*
X106302Y120794D01*
X108602Y118494D01*
X111306Y116687D01*
X114310Y115442D01*
X117500Y114808D01*
X120752D01*
X123942Y115442D01*
X126946Y116687D01*
X129650Y118494D01*
X131950Y120794D01*
X133757Y123498D01*
X135001Y126502D01*
X135636Y129692D01*
Y132944D01*
X135001Y136134D01*
X133757Y139138D01*
X131950Y141842D01*
X129650Y144142D01*
X126946Y145949D01*
X123942Y147193D01*
X120752Y147828D01*
D02*
G37*
G36*
X369978Y127762D02*
X367638D01*
X365377Y127156D01*
X363349Y125986D01*
X361694Y124331D01*
X360524Y122303D01*
X359918Y120042D01*
Y117702D01*
X360524Y115441D01*
X361694Y113413D01*
X363349Y111758D01*
X365377Y110588D01*
X367638Y109982D01*
X369978D01*
X372239Y110588D01*
X374267Y111758D01*
X375922Y113413D01*
X377092Y115441D01*
X377698Y117702D01*
Y120042D01*
X377092Y122303D01*
X375922Y124331D01*
X374267Y125986D01*
X372239Y127156D01*
X369978Y127762D01*
D02*
G37*
G36*
X259234D02*
X256894D01*
X254633Y127156D01*
X252605Y125986D01*
X250950Y124331D01*
X249780Y122303D01*
X249174Y120042D01*
Y117702D01*
X249780Y115441D01*
X250950Y113413D01*
X252605Y111758D01*
X254633Y110588D01*
X256894Y109982D01*
X259234D01*
X261495Y110588D01*
X263523Y111758D01*
X265178Y113413D01*
X266348Y115441D01*
X266954Y117702D01*
Y120042D01*
X266348Y122303D01*
X265178Y124331D01*
X263523Y125986D01*
X261495Y127156D01*
X259234Y127762D01*
D02*
G37*
G36*
X231548D02*
X229208D01*
X226947Y127156D01*
X224919Y125986D01*
X223264Y124331D01*
X222094Y122303D01*
X221488Y120042D01*
Y117702D01*
X222094Y115441D01*
X223264Y113413D01*
X224919Y111758D01*
X226947Y110588D01*
X229208Y109982D01*
X231548D01*
X233809Y110588D01*
X235837Y111758D01*
X237492Y113413D01*
X238662Y115441D01*
X239268Y117702D01*
Y120042D01*
X238662Y122303D01*
X237492Y124331D01*
X235837Y125986D01*
X233809Y127156D01*
X231548Y127762D01*
D02*
G37*
G36*
X203862D02*
X201522D01*
X199261Y127156D01*
X197233Y125986D01*
X195578Y124331D01*
X194408Y122303D01*
X193802Y120042D01*
Y117702D01*
X194408Y115441D01*
X195578Y113413D01*
X197233Y111758D01*
X199261Y110588D01*
X201522Y109982D01*
X203862D01*
X206123Y110588D01*
X208151Y111758D01*
X209806Y113413D01*
X210976Y115441D01*
X211582Y117702D01*
Y120042D01*
X210976Y122303D01*
X209806Y124331D01*
X208151Y125986D01*
X206123Y127156D01*
X203862Y127762D01*
D02*
G37*
G36*
X383821Y88646D02*
X381481D01*
X379220Y88040D01*
X377192Y86870D01*
X375537Y85215D01*
X374367Y83187D01*
X373761Y80926D01*
Y78586D01*
X374367Y76325D01*
X375537Y74297D01*
X377192Y72642D01*
X379220Y71472D01*
X381481Y70866D01*
X383821D01*
X386082Y71472D01*
X388110Y72642D01*
X389765Y74297D01*
X390935Y76325D01*
X391541Y78586D01*
Y80926D01*
X390935Y83187D01*
X389765Y85215D01*
X388110Y86870D01*
X386082Y88040D01*
X383821Y88646D01*
D02*
G37*
G36*
X273077D02*
X270737D01*
X268476Y88040D01*
X266448Y86870D01*
X264793Y85215D01*
X263623Y83187D01*
X263017Y80926D01*
Y78586D01*
X263623Y76325D01*
X264793Y74297D01*
X266448Y72642D01*
X268476Y71472D01*
X270737Y70866D01*
X273077D01*
X275338Y71472D01*
X277366Y72642D01*
X279021Y74297D01*
X280191Y76325D01*
X280797Y78586D01*
Y80926D01*
X280191Y83187D01*
X279021Y85215D01*
X277366Y86870D01*
X275338Y88040D01*
X273077Y88646D01*
D02*
G37*
G36*
X245391D02*
X243051D01*
X240790Y88040D01*
X238762Y86870D01*
X237107Y85215D01*
X235937Y83187D01*
X235331Y80926D01*
Y78586D01*
X235937Y76325D01*
X237107Y74297D01*
X238762Y72642D01*
X240790Y71472D01*
X243051Y70866D01*
X245391D01*
X247652Y71472D01*
X249680Y72642D01*
X251335Y74297D01*
X252505Y76325D01*
X253111Y78586D01*
Y80926D01*
X252505Y83187D01*
X251335Y85215D01*
X249680Y86870D01*
X247652Y88040D01*
X245391Y88646D01*
D02*
G37*
G36*
X217705D02*
X215365D01*
X213104Y88040D01*
X211076Y86870D01*
X209421Y85215D01*
X208251Y83187D01*
X207645Y80926D01*
Y78586D01*
X208251Y76325D01*
X209421Y74297D01*
X211076Y72642D01*
X213104Y71472D01*
X215365Y70866D01*
X217705D01*
X219966Y71472D01*
X221994Y72642D01*
X223649Y74297D01*
X224819Y76325D01*
X225425Y78586D01*
Y80926D01*
X224819Y83187D01*
X223649Y85215D01*
X221994Y86870D01*
X219966Y88040D01*
X217705Y88646D01*
D02*
G37*
G36*
X190019D02*
X187679D01*
X185418Y88040D01*
X183390Y86870D01*
X181735Y85215D01*
X180565Y83187D01*
X179959Y80926D01*
Y78586D01*
X180565Y76325D01*
X181735Y74297D01*
X183390Y72642D01*
X185418Y71472D01*
X187679Y70866D01*
X190019D01*
X192280Y71472D01*
X194308Y72642D01*
X195963Y74297D01*
X197133Y76325D01*
X197739Y78586D01*
Y80926D01*
X197133Y83187D01*
X195963Y85215D01*
X194308Y86870D01*
X192280Y88040D01*
X190019Y88646D01*
D02*
G37*
G36*
X369978Y60198D02*
X367638D01*
X365377Y59592D01*
X363349Y58422D01*
X361694Y56767D01*
X360524Y54739D01*
X359918Y52478D01*
Y50138D01*
X360524Y47877D01*
X361694Y45849D01*
X363349Y44194D01*
X365377Y43024D01*
X367638Y42418D01*
X369978D01*
X372239Y43024D01*
X374267Y44194D01*
X375922Y45849D01*
X377092Y47877D01*
X377698Y50138D01*
Y52478D01*
X377092Y54739D01*
X375922Y56767D01*
X374267Y58422D01*
X372239Y59592D01*
X369978Y60198D01*
D02*
G37*
G36*
X342292D02*
X339952D01*
X337691Y59592D01*
X335663Y58422D01*
X334008Y56767D01*
X332838Y54739D01*
X332232Y52478D01*
Y50138D01*
X332838Y47877D01*
X334008Y45849D01*
X335663Y44194D01*
X337691Y43024D01*
X339952Y42418D01*
X342292D01*
X344553Y43024D01*
X346581Y44194D01*
X348236Y45849D01*
X349406Y47877D01*
X350012Y50138D01*
Y52478D01*
X349406Y54739D01*
X348236Y56767D01*
X346581Y58422D01*
X344553Y59592D01*
X342292Y60198D01*
D02*
G37*
G36*
X259234D02*
X256894D01*
X254633Y59592D01*
X252605Y58422D01*
X250950Y56767D01*
X249780Y54739D01*
X249174Y52478D01*
Y50138D01*
X249780Y47877D01*
X250950Y45849D01*
X252605Y44194D01*
X254633Y43024D01*
X256894Y42418D01*
X259234D01*
X261495Y43024D01*
X263523Y44194D01*
X265178Y45849D01*
X266348Y47877D01*
X266954Y50138D01*
Y52478D01*
X266348Y54739D01*
X265178Y56767D01*
X263523Y58422D01*
X261495Y59592D01*
X259234Y60198D01*
D02*
G37*
G36*
X231548D02*
X229208D01*
X226947Y59592D01*
X224919Y58422D01*
X223264Y56767D01*
X222094Y54739D01*
X221488Y52478D01*
Y50138D01*
X222094Y47877D01*
X223264Y45849D01*
X224919Y44194D01*
X226947Y43024D01*
X229208Y42418D01*
X231548D01*
X233809Y43024D01*
X235837Y44194D01*
X237492Y45849D01*
X238662Y47877D01*
X239268Y50138D01*
Y52478D01*
X238662Y54739D01*
X237492Y56767D01*
X235837Y58422D01*
X233809Y59592D01*
X231548Y60198D01*
D02*
G37*
G36*
X203862D02*
X201522D01*
X199261Y59592D01*
X197233Y58422D01*
X195578Y56767D01*
X194408Y54739D01*
X193802Y52478D01*
Y50138D01*
X194408Y47877D01*
X195578Y45849D01*
X197233Y44194D01*
X199261Y43024D01*
X201522Y42418D01*
X203862D01*
X206123Y43024D01*
X208151Y44194D01*
X209806Y45849D01*
X210976Y47877D01*
X211582Y50138D01*
Y52478D01*
X210976Y54739D01*
X209806Y56767D01*
X208151Y58422D01*
X206123Y59592D01*
X203862Y60198D01*
D02*
G37*
G36*
X454000Y67818D02*
X450748D01*
X447558Y67183D01*
X444554Y65939D01*
X441850Y64132D01*
X439550Y61832D01*
X437743Y59128D01*
X436498Y56124D01*
X435864Y52934D01*
Y49682D01*
X436498Y46492D01*
X437743Y43488D01*
X439550Y40784D01*
X441850Y38484D01*
X444554Y36677D01*
X447558Y35433D01*
X450748Y34798D01*
X454000D01*
X457190Y35433D01*
X460194Y36677D01*
X462898Y38484D01*
X465198Y40784D01*
X467005Y43488D01*
X468250Y46492D01*
X468884Y49682D01*
Y52934D01*
X468250Y56124D01*
X467005Y59128D01*
X465198Y61832D01*
X462898Y64132D01*
X460194Y65939D01*
X457190Y67183D01*
X454000Y67818D01*
D02*
G37*
G36*
X529649Y96520D02*
X524451D01*
X519318Y95707D01*
X514375Y94101D01*
X509744Y91741D01*
X505539Y88686D01*
X501864Y85011D01*
X498809Y80806D01*
X496449Y76175D01*
X494843Y71232D01*
X494030Y66099D01*
Y60901D01*
X494843Y55768D01*
X496449Y50825D01*
X498809Y46194D01*
X501864Y41989D01*
X505539Y38314D01*
X509744Y35259D01*
X514375Y32899D01*
X519318Y31293D01*
X524451Y30480D01*
X529649D01*
X534782Y31293D01*
X539725Y32899D01*
X544356Y35259D01*
X548561Y38314D01*
X552236Y41989D01*
X555291Y46194D01*
X557651Y50825D01*
X559257Y55768D01*
X560070Y60901D01*
Y66099D01*
X559257Y71232D01*
X557651Y76175D01*
X555291Y80806D01*
X552236Y85011D01*
X548561Y88686D01*
X544356Y91741D01*
X539725Y94101D01*
X534782Y95707D01*
X529649Y96520D01*
D02*
G37*
G36*
X47049D02*
X41851D01*
X36718Y95707D01*
X31775Y94101D01*
X27144Y91741D01*
X22939Y88686D01*
X19264Y85011D01*
X16209Y80806D01*
X13849Y76175D01*
X12243Y71232D01*
X11430Y66099D01*
Y60901D01*
X12243Y55768D01*
X13849Y50825D01*
X16209Y46194D01*
X19264Y41989D01*
X22939Y38314D01*
X27144Y35259D01*
X31775Y32899D01*
X36718Y31293D01*
X41851Y30480D01*
X47049D01*
X52182Y31293D01*
X57125Y32899D01*
X61756Y35259D01*
X65961Y38314D01*
X69636Y41989D01*
X72691Y46194D01*
X75051Y50825D01*
X76657Y55768D01*
X77470Y60901D01*
Y66099D01*
X76657Y71232D01*
X75051Y76175D01*
X72691Y80806D01*
X69636Y85011D01*
X65961Y88686D01*
X61756Y91741D01*
X57125Y94101D01*
X52182Y95707D01*
X47049Y96520D01*
D02*
G37*
%LPD*%
G36*
X293012Y659080D02*
X292680Y658748D01*
X292100Y657348D01*
Y655832D01*
X292680Y654432D01*
X293752Y653360D01*
X295152Y652780D01*
X296057D01*
X303480Y645357D01*
Y627406D01*
X303234Y627118D01*
X300940Y625919D01*
X300478Y626110D01*
X298962D01*
X297562Y625530D01*
X296716Y624684D01*
X295275Y624562D01*
X293834Y624684D01*
X292988Y625530D01*
X291588Y626110D01*
X290072D01*
X288672Y625530D01*
X287600Y624458D01*
X287020Y623058D01*
X284715Y623169D01*
X284530Y624376D01*
Y651510D01*
X284333Y652501D01*
X283771Y653341D01*
X278691Y658421D01*
X277851Y658983D01*
X277360Y659080D01*
X277610Y661620D01*
X291966D01*
X293012Y659080D01*
D02*
G37*
D15*
X85090Y657860D02*
X137160D01*
X64770Y678180D02*
Y732790D01*
Y678180D02*
X85090Y657860D01*
X34290Y746760D02*
Y760730D01*
X57150Y740410D02*
X64770Y732790D01*
X34290Y746760D02*
X40640Y740410D01*
X57150D01*
X234950Y429260D02*
Y547580D01*
Y429260D02*
X273050Y391160D01*
X234950Y547580D02*
X251250Y563880D01*
X107950Y539750D02*
Y553720D01*
X114300Y533400D02*
X130810D01*
X107950Y539750D02*
X114300Y533400D01*
X158750Y450850D02*
X210820D01*
X138430Y471170D02*
X158750Y450850D01*
X138430Y471170D02*
Y525780D01*
X130810Y533400D02*
X138430Y525780D01*
X326390Y669290D02*
X339090Y656590D01*
X265866Y669290D02*
X326390D01*
X91440Y509823D02*
X92710Y508553D01*
X91440Y509823D02*
Y539750D01*
X92710Y424510D02*
Y508553D01*
X82550Y548640D02*
X91440Y539750D01*
X82550Y548640D02*
Y568960D01*
X405130Y687070D02*
Y792480D01*
X414020Y801370D01*
X508000D01*
X523820Y785550D01*
X531550D01*
X187960Y763380D02*
X202510Y777930D01*
X187960Y671830D02*
Y763380D01*
Y671830D02*
X200660Y659130D01*
X255706D01*
X265866Y669290D01*
X318770Y664210D02*
X326390Y656590D01*
X267970Y664210D02*
X318770D01*
X257810Y654050D02*
X267970Y664210D01*
X194310Y654050D02*
X257810D01*
X171450Y676910D02*
X194310Y654050D01*
X351790Y656590D02*
X374650D01*
X405130Y687070D01*
X295910Y656590D02*
X306070Y646430D01*
Y623480D02*
Y646430D01*
X82550Y568960D02*
X133350Y619760D01*
X264743D01*
X171450Y676910D02*
Y778510D01*
X164410Y785550D02*
X171450Y778510D01*
X132770Y785550D02*
X164410D01*
X306070Y623480D02*
X311060Y618490D01*
X349250D01*
X91440Y423240D02*
X92710Y424510D01*
X91440Y416560D02*
Y423240D01*
X115570Y392430D02*
X129540D01*
X91440Y416560D02*
X115570Y392430D01*
X129540D02*
X139120Y382850D01*
Y370260D02*
Y382850D01*
X271780Y656590D02*
X276860D01*
X281940Y651510D01*
Y622210D02*
Y651510D01*
X278220Y618490D02*
X281940Y622210D01*
X274320Y618490D02*
X278220D01*
X275104Y624354D02*
X275590Y624840D01*
X269337Y624354D02*
X275104D01*
X264743Y619760D02*
X269337Y624354D01*
X313690Y624840D02*
X350084D01*
X358140Y616784D01*
Y589510D02*
X368990Y578660D01*
X270510Y570230D02*
Y614680D01*
X353060Y586740D02*
X360680Y579120D01*
X349250Y618490D02*
X353060Y614680D01*
X358140Y589510D02*
Y616784D01*
X353060Y586740D02*
Y614680D01*
X360680Y560070D02*
Y579120D01*
X197950Y576750D02*
X207786D01*
X207793Y576758D01*
X182880Y591820D02*
X197950Y576750D01*
X264160Y563880D02*
X270510Y570230D01*
X251250Y563880D02*
X264160D01*
X311260Y391160D02*
X332160Y370260D01*
X184150Y601636D02*
Y610870D01*
X182880Y600366D02*
X184150Y601636D01*
X182880Y591820D02*
Y600366D01*
X270510Y614680D02*
X274320Y618490D01*
X273050Y391160D02*
X311260D01*
X360680Y560070D02*
X363220Y557530D01*
X396240D01*
X405130Y548640D01*
Y466090D02*
Y548640D01*
Y466090D02*
X474980Y396240D01*
X499220D01*
X525200Y370260D01*
X426720Y331470D02*
Y345440D01*
Y331470D02*
X433070Y325120D01*
X449580D01*
X457200Y317500D01*
Y262890D02*
Y317500D01*
Y262890D02*
X477520Y242570D01*
X529590D01*
X330200Y730250D02*
Y782320D01*
X255270Y709930D02*
X309880D01*
X330200Y730250D01*
X227330Y679450D02*
X241300D01*
X247650Y702310D02*
X255270Y709930D01*
X241300Y679450D02*
X247650Y685800D01*
Y702310D01*
X483870Y657860D02*
X535940D01*
X463550Y678180D02*
Y732790D01*
Y678180D02*
X483870Y657860D01*
X433070Y746760D02*
Y760730D01*
X455930Y740410D02*
X463550Y732790D01*
X433070Y746760D02*
X439420Y740410D01*
X455930D01*
X321310Y450970D02*
X373380D01*
X300990Y471290D02*
Y525900D01*
Y471290D02*
X321310Y450970D01*
X270510Y539870D02*
Y553840D01*
X293370Y533520D02*
X300990Y525900D01*
X270510Y539870D02*
X276860Y533520D01*
X293370D01*
X91440Y242570D02*
X143510D01*
X71120Y262890D02*
Y317500D01*
X63500Y325120D02*
X71120Y317500D01*
Y262890D02*
X91440Y242570D01*
X46990Y325120D02*
X63500D01*
X40640Y331470D02*
X46990Y325120D01*
X40640Y331470D02*
Y345440D01*
X284480Y242570D02*
X336550D01*
X264160Y262890D02*
Y317500D01*
Y262890D02*
X284480Y242570D01*
X233680Y331470D02*
Y345440D01*
X256540Y325120D02*
X264160Y317500D01*
X233680Y331470D02*
X240030Y325120D01*
X256540D01*
D20*
X541020Y617220D02*
D03*
X412750Y412750D02*
D03*
X397510D02*
D03*
D48*
X498230Y512920D02*
D03*
X491230D02*
D03*
X494730Y520420D02*
D03*
Y505420D02*
D03*
X491800Y554870D02*
D03*
X498800D02*
D03*
X495300Y562370D02*
D03*
Y547370D02*
D03*
D50*
X527050Y444500D02*
D03*
X44450D02*
D03*
X527050Y63500D02*
D03*
X44450D02*
D03*
D51*
X45720Y367030D02*
D03*
X37020Y366955D02*
D03*
X500380Y283210D02*
D03*
Y290830D02*
D03*
Y297180D02*
D03*
X499110Y306070D02*
D03*
X495300Y300990D02*
D03*
X302260D02*
D03*
X306070Y306070D02*
D03*
X307340Y298450D02*
D03*
Y290830D02*
D03*
Y283210D02*
D03*
X114300D02*
D03*
Y290830D02*
D03*
Y298450D02*
D03*
X113030Y306070D02*
D03*
X109220Y300990D02*
D03*
X344170Y491490D02*
D03*
Y499110D02*
D03*
Y506730D02*
D03*
X342900Y514350D02*
D03*
X339090Y509270D02*
D03*
X176530D02*
D03*
X180340Y514350D02*
D03*
X182880Y506730D02*
D03*
X181610Y499110D02*
D03*
Y491490D02*
D03*
X501650Y718820D02*
D03*
X505460Y722630D02*
D03*
X506730Y715010D02*
D03*
X256540Y572890D02*
D03*
X506730Y699770D02*
D03*
X266700Y751840D02*
D03*
X274320Y753110D02*
D03*
X289560D02*
D03*
X270510Y748030D02*
D03*
X281940Y753110D02*
D03*
X107950Y698500D02*
D03*
Y713740D02*
D03*
X506730Y707390D02*
D03*
X102870Y717550D02*
D03*
X107950Y706120D02*
D03*
X106680Y722630D02*
D03*
X137160Y657860D02*
D03*
X34290Y760730D02*
D03*
X64770Y788670D02*
D03*
X54610Y678180D02*
D03*
X46990Y778510D02*
D03*
X143510Y695960D02*
D03*
X87630Y767080D02*
D03*
X53340Y685800D02*
D03*
X105410Y729070D02*
D03*
X107950Y690880D02*
D03*
X73660Y707390D02*
D03*
X469317Y548640D02*
D03*
X440690Y588010D02*
D03*
X433070D02*
D03*
X425450Y595630D02*
D03*
X440690D02*
D03*
X425450Y588010D02*
D03*
X433070Y595630D02*
D03*
X541020Y601980D02*
D03*
X476250Y454660D02*
D03*
X203200Y88900D02*
D03*
X219710Y195580D02*
D03*
X416560Y346710D02*
D03*
X562610Y317500D02*
D03*
X401320Y261620D02*
D03*
X562610Y309880D02*
D03*
X401320Y254000D02*
D03*
Y269240D02*
D03*
X364490Y317500D02*
D03*
X356870D02*
D03*
X207010Y254000D02*
D03*
Y261620D02*
D03*
Y269240D02*
D03*
X13970Y254000D02*
D03*
Y261620D02*
D03*
Y269240D02*
D03*
X170180Y309880D02*
D03*
Y317500D02*
D03*
X248920Y532130D02*
D03*
Y539750D02*
D03*
X74930Y403860D02*
D03*
X82550D02*
D03*
X87630Y408940D02*
D03*
X243840Y389890D02*
D03*
Y397510D02*
D03*
Y405130D02*
D03*
X394970Y518160D02*
D03*
Y525780D02*
D03*
X558800Y725170D02*
D03*
Y732790D02*
D03*
X433070Y604520D02*
D03*
X425450D02*
D03*
Y612140D02*
D03*
X377190Y669290D02*
D03*
Y676910D02*
D03*
X369570Y669290D02*
D03*
X256540Y803910D02*
D03*
X248920D02*
D03*
X516890Y505460D02*
D03*
Y520700D02*
D03*
X396240Y621030D02*
D03*
Y613410D02*
D03*
X388620D02*
D03*
Y621030D02*
D03*
X381000D02*
D03*
X373380D02*
D03*
X365760D02*
D03*
X381000Y628650D02*
D03*
X373380D02*
D03*
X365760D02*
D03*
X471170Y467360D02*
D03*
X462280D02*
D03*
X453390D02*
D03*
X444500D02*
D03*
X471170Y474980D02*
D03*
X462280D02*
D03*
X453390D02*
D03*
X444500D02*
D03*
X153670Y732790D02*
D03*
X161290D02*
D03*
X12065Y662305D02*
D03*
Y669925D02*
D03*
Y677545D02*
D03*
X496570Y532130D02*
D03*
Y539750D02*
D03*
X210820Y450850D02*
D03*
X217170Y488950D02*
D03*
X181610Y483870D02*
D03*
X179070Y522060D02*
D03*
X107950Y553720D02*
D03*
X120650Y571500D02*
D03*
X138430Y581660D02*
D03*
X127000Y478790D02*
D03*
X161290Y560070D02*
D03*
X147320Y500380D02*
D03*
X128270Y471170D02*
D03*
X339090Y656590D02*
D03*
X481330Y615950D02*
D03*
X88900Y554990D02*
D03*
X326390Y656590D02*
D03*
X209550Y683260D02*
D03*
Y674370D02*
D03*
X351790Y656590D02*
D03*
X295910D02*
D03*
X279110Y35015D02*
D03*
X281940Y27940D02*
D03*
X474980Y200660D02*
D03*
X139120Y370260D02*
D03*
X97790Y554990D02*
D03*
X88900Y200660D02*
D03*
X132770Y785550D02*
D03*
X299720Y622300D02*
D03*
X290830D02*
D03*
X271780Y656590D02*
D03*
X275590Y624840D02*
D03*
X313690D02*
D03*
X316230Y589280D02*
D03*
X325120D02*
D03*
X394970Y593090D02*
D03*
X397574Y585929D02*
D03*
X368990Y578660D02*
D03*
X414020Y762000D02*
D03*
X283210Y591820D02*
D03*
X276860Y584200D02*
D03*
X344170Y589280D02*
D03*
X334010D02*
D03*
X200653Y589289D02*
D03*
X207793Y576758D02*
D03*
X251460Y555110D02*
D03*
X260350D02*
D03*
X220980Y589280D02*
D03*
X256540Y581660D02*
D03*
X241291Y589271D02*
D03*
X251460Y589280D02*
D03*
X231140D02*
D03*
X212090D02*
D03*
X407670Y346710D02*
D03*
X332160Y370260D02*
D03*
X447040Y262890D02*
D03*
X490220Y200660D02*
D03*
X466090Y292100D02*
D03*
X529590Y242570D02*
D03*
X535940Y280670D02*
D03*
X500380Y275590D02*
D03*
X480060Y351790D02*
D03*
X439420Y363220D02*
D03*
X445770Y270510D02*
D03*
X497840Y313780D02*
D03*
X525200Y370260D02*
D03*
X426720Y345440D02*
D03*
X457200Y373380D02*
D03*
X171207Y408697D02*
D03*
X156210Y408940D02*
D03*
X330200Y782320D02*
D03*
X227330Y679450D02*
D03*
X372110Y742950D02*
D03*
X199390Y709930D02*
D03*
X309880Y699770D02*
D03*
X372110Y727710D02*
D03*
X209550Y692150D02*
D03*
X202510Y777930D02*
D03*
X292100Y788670D02*
D03*
X220980Y732790D02*
D03*
X302260Y698500D02*
D03*
X258990Y750570D02*
D03*
X297180Y753110D02*
D03*
X280670Y718820D02*
D03*
X535940Y657860D02*
D03*
X433070Y760730D02*
D03*
X496570Y615950D02*
D03*
X463550Y788670D02*
D03*
X453390Y678180D02*
D03*
X422910Y762000D02*
D03*
X445770Y778510D02*
D03*
X531550Y785550D02*
D03*
X542290Y695960D02*
D03*
X486410Y767080D02*
D03*
X452120Y685800D02*
D03*
X504190Y729070D02*
D03*
X506730Y690880D02*
D03*
X472440Y707390D02*
D03*
X97790Y615950D02*
D03*
X15240Y762000D02*
D03*
X82550Y615950D02*
D03*
X24130Y762000D02*
D03*
X373380Y450970D02*
D03*
X270510Y553840D02*
D03*
X334010Y409060D02*
D03*
X300990Y581780D02*
D03*
X290830Y471290D02*
D03*
X318770Y409060D02*
D03*
X283210Y571620D02*
D03*
X379730Y489070D02*
D03*
X323850Y560190D02*
D03*
X289560Y478910D02*
D03*
X341630Y522180D02*
D03*
X344170Y483990D02*
D03*
X309880Y500500D02*
D03*
X80010Y292100D02*
D03*
X111760Y313780D02*
D03*
X59690Y270510D02*
D03*
X53340Y363220D02*
D03*
X60960Y262890D02*
D03*
X71120Y373380D02*
D03*
X143510Y242570D02*
D03*
X93980Y351790D02*
D03*
X149860Y280670D02*
D03*
X114300Y275590D02*
D03*
X104140Y200660D02*
D03*
X40640Y345440D02*
D03*
X336550Y242570D02*
D03*
X233680Y345440D02*
D03*
X297180Y200660D02*
D03*
X214630Y346710D02*
D03*
X264160Y373380D02*
D03*
X254000Y262890D02*
D03*
X281940Y200660D02*
D03*
X223520Y346710D02*
D03*
X246380Y363220D02*
D03*
X342900Y280670D02*
D03*
X287020Y351790D02*
D03*
X252730Y270510D02*
D03*
X304800Y313780D02*
D03*
X307340Y275590D02*
D03*
X273050Y292100D02*
D03*
X184150Y610870D02*
D03*
D52*
X23685Y373271D02*
X40815Y390401D01*
X41538D01*
X23685Y163005D02*
Y373271D01*
X80645Y429507D02*
Y499655D01*
X44168Y383258D02*
X50120Y389210D01*
Y390002D02*
X86995Y426877D01*
X30035Y369848D02*
X43445Y383258D01*
X30035Y165635D02*
Y369848D01*
X41538Y390401D02*
X80645Y429507D01*
X50120Y389210D02*
Y390002D01*
X43445Y383258D02*
X44168D01*
X86995Y426877D02*
Y502285D01*
X23685Y163005D02*
X40640Y146050D01*
X30035Y165635D02*
X39152Y156518D01*
X70838Y518442D02*
Y615913D01*
Y518442D02*
X86995Y502285D01*
X64488Y515812D02*
X80645Y499655D01*
X64488Y515812D02*
Y618543D01*
X160534Y388016D02*
X186690Y361860D01*
X193040Y184150D02*
X207010Y170180D01*
X166884Y390647D02*
X193040Y364490D01*
X186690Y181520D02*
X204380Y163830D01*
X186690Y181520D02*
Y361860D01*
X193040Y184150D02*
Y364490D01*
X64488Y618543D02*
X76500Y630555D01*
X87393D01*
X93345Y624603D01*
Y618817D02*
X95969Y616193D01*
X97547D01*
X93345Y618817D02*
Y624603D01*
X97547Y616193D02*
X97790Y615950D01*
X84371Y616193D02*
X86995Y618817D01*
Y621973D01*
X82793Y616193D02*
X84371D01*
X84763Y624205D02*
X86995Y621973D01*
X79131Y624205D02*
X84763D01*
X70838Y615913D02*
X79131Y624205D01*
X82550Y615950D02*
X82793Y616193D01*
X416560Y601980D02*
Y652690D01*
X407670Y593090D02*
X416560Y601980D01*
Y652690D02*
X421640Y657770D01*
X408350Y602750D02*
Y653460D01*
X227924Y35560D02*
X229104Y34380D01*
X225293Y29210D02*
X226473Y28030D01*
X278475Y34380D02*
X279110Y35015D01*
X169545Y29210D02*
X225293D01*
X172175Y35560D02*
X227924D01*
X226473Y28030D02*
X281850D01*
X229104Y34380D02*
X278475D01*
X281850Y28030D02*
X281940Y27940D01*
X94615Y104140D02*
X169545Y29210D01*
X341040Y76455D02*
Y92030D01*
X328712Y64127D02*
X341040Y76455D01*
X298569Y64127D02*
X328712D01*
X285750Y51308D02*
X298569Y64127D01*
X299593Y79756D02*
X311277Y91440D01*
X321900D02*
X322281Y91821D01*
X331851D01*
X311277Y91440D02*
X321900D01*
X316276Y118872D02*
X322707Y112441D01*
X329057Y106654D02*
Y126755D01*
X311277Y105537D02*
X318960D01*
X321590Y99187D02*
X329057Y106654D01*
X313907Y99187D02*
X321590D01*
X187562Y97790D02*
X312510D01*
X313907Y99187D01*
X318960Y105537D02*
X322707Y109284D01*
X190192Y104140D02*
X309880D01*
X325456Y130356D02*
Y145497D01*
X313436Y118872D02*
X316276D01*
X322707Y109284D02*
Y112441D01*
X309880Y104140D02*
X311277Y105537D01*
X325456Y130356D02*
X329057Y126755D01*
X325456Y145497D02*
X327279Y147320D01*
X341040Y92030D02*
X345530Y96520D01*
X387440D01*
X413340Y122420D02*
Y150540D01*
X411480Y152400D02*
X413340Y150540D01*
X387350Y176530D02*
X411480Y152400D01*
X387440Y96520D02*
X413340Y122420D01*
X411480Y152400D02*
X411480D01*
X387350Y176530D02*
Y365850D01*
X331851Y91821D02*
X342900Y102870D01*
X384810D01*
X406990Y125050D01*
Y147910D01*
X381000Y173900D02*
X406990Y147910D01*
X381000Y173900D02*
Y363220D01*
X93345Y192007D02*
X187562Y97790D01*
X99695Y194637D02*
X190192Y104140D01*
X40640Y146050D02*
X40640D01*
X82550Y104140D01*
X39152Y156518D02*
X45130Y150540D01*
Y150540D02*
Y150540D01*
X39152Y156518D02*
X39152D01*
X45130Y150540D02*
X85180Y110490D01*
X97245D01*
X90721Y200417D02*
X93345Y197793D01*
X102319Y200417D02*
X103897D01*
X93345Y192007D02*
Y197793D01*
X99695Y194637D02*
Y197793D01*
X102319Y200417D01*
X89143D02*
X90721D01*
X103897D02*
X104140Y200660D01*
X88900D02*
X89143Y200417D01*
X296500Y147320D02*
X299593D01*
X288925Y154895D02*
X296500Y147320D01*
X286975Y154895D02*
X288925D01*
X283800Y158070D02*
X286975Y154895D01*
X204380Y163830D02*
X278040D01*
X283800Y158070D01*
X280670Y170180D02*
X288290Y162560D01*
X288207Y118872D02*
X311658Y142323D01*
X285750Y118872D02*
X288207D01*
X311658Y142323D02*
Y152317D01*
X301416Y162560D02*
X311658Y152317D01*
X288290Y162560D02*
X301416D01*
X207010Y170180D02*
X280670D01*
X82550Y104140D02*
X94615D01*
X97245Y110490D02*
X172175Y35560D01*
X372110Y372110D02*
X381000Y363220D01*
X320591Y408817D02*
X323215Y406193D01*
Y400407D02*
X351512Y372110D01*
X319013Y408817D02*
X320591D01*
X323215Y400407D02*
Y406193D01*
X318770Y409060D02*
X319013Y408817D01*
X351512Y372110D02*
X372110D01*
X374740Y378460D02*
X387350Y365850D01*
X333767Y408817D02*
X334010Y409060D01*
X332189Y408817D02*
X333767D01*
X329565Y403037D02*
X354142Y378460D01*
X329565Y403037D02*
Y406193D01*
X332189Y408817D01*
X354142Y378460D02*
X374740D01*
X394970Y593090D02*
X395084Y593204D01*
X399139D02*
X399253Y593090D01*
X407670D01*
X395084Y593204D02*
X399139D01*
X421640Y657770D02*
Y760386D01*
X397398Y586105D02*
X397574Y585929D01*
X387985Y590197D02*
X392077Y586105D01*
X387985Y595983D02*
X392077Y600075D01*
X401248D02*
X401883Y599440D01*
X392077Y586105D02*
X397398D01*
X401883Y599440D02*
X405040D01*
X392077Y600075D02*
X401248D01*
X387985Y590197D02*
Y595983D01*
X405040Y599440D02*
X408350Y602750D01*
X415290Y660400D02*
Y760386D01*
X408350Y653460D02*
X415290Y660400D01*
X414020Y761656D02*
Y762000D01*
Y761656D02*
X415290Y760386D01*
X422910Y761656D02*
Y762000D01*
X421640Y760386D02*
X422910Y761656D01*
X166884Y390647D02*
Y404495D01*
X171085Y408697D02*
X171207D01*
X166884Y404495D02*
X171085Y408697D01*
X156210Y408819D02*
X160534Y404495D01*
Y388016D02*
Y404495D01*
X156210Y408819D02*
Y408940D01*
X364236Y153751D02*
Y161217D01*
X357805Y147320D02*
X364236Y153751D01*
X370586Y145878D02*
Y163847D01*
X358950Y134242D02*
X370586Y145878D01*
X355363Y179070D02*
X370586Y163847D01*
X354965Y147320D02*
X357805D01*
X341122Y118872D02*
X356492Y134242D01*
X358950D01*
X308302Y179070D02*
X355363D01*
X296937Y200417D02*
X297180Y200660D01*
X295359Y200417D02*
X296937D01*
X292735Y194637D02*
X308302Y179070D01*
X292735Y194637D02*
Y197793D01*
X295359Y200417D01*
X352733Y172720D02*
X364236Y161217D01*
X305672Y172720D02*
X352733D01*
X281940Y200660D02*
X282183Y200417D01*
X286385Y192007D02*
X305672Y172720D01*
X283761Y200417D02*
X286385Y197793D01*
Y192007D02*
Y197793D01*
X282183Y200417D02*
X283761D01*
D53*
X452374Y131318D02*
D03*
X119126D02*
D03*
X452374Y51308D02*
D03*
X119126D02*
D03*
X188849Y79756D02*
D03*
X202692Y51308D02*
D03*
X216535Y79756D02*
D03*
X230378Y51308D02*
D03*
X244221Y79756D02*
D03*
X258064Y51308D02*
D03*
X271907Y79756D02*
D03*
X285750Y51308D02*
D03*
X299593Y79756D02*
D03*
X313436Y51308D02*
D03*
X327279Y79756D02*
D03*
X341122Y51308D02*
D03*
X354965Y79756D02*
D03*
X368808Y51308D02*
D03*
X382651Y79756D02*
D03*
X188849Y147320D02*
D03*
X202692Y118872D02*
D03*
X216535Y147320D02*
D03*
X230378Y118872D02*
D03*
X244221Y147320D02*
D03*
X258064Y118872D02*
D03*
X271907Y147320D02*
D03*
X285750Y118872D02*
D03*
X299593Y147320D02*
D03*
X313436Y118872D02*
D03*
X327279Y147320D02*
D03*
X341122Y118872D02*
D03*
X354965Y147320D02*
D03*
X368808Y118872D02*
D03*
X382651Y147320D02*
D03*
M02*
