G04*
G04 #@! TF.GenerationSoftware,Altium Limited,Altium Designer,25.2.1 (25)*
G04*
G04 Layer_Physical_Order=3*
G04 Layer_Color=6736896*
%FSLAX44Y44*%
%MOMM*%
G71*
G04*
G04 #@! TF.SameCoordinates,DD28D0EF-0707-4658-9377-252522D621C3*
G04*
G04*
G04 #@! TF.FilePolarity,Positive*
G04*
G01*
G75*
%ADD15C,0.2540*%
%ADD25C,0.7620*%
%ADD48C,1.7018*%
%ADD54C,0.7620*%
%ADD55C,0.5080*%
%ADD56C,3.8100*%
%ADD57C,6.3500*%
%ADD58C,1.5240*%
G36*
X571500Y0D02*
X0D01*
Y812800D01*
X571500D01*
Y0D01*
D02*
G37*
%LPC*%
G36*
X257298Y807720D02*
X255782D01*
X254382Y807140D01*
X252730Y806347D01*
X251078Y807140D01*
X249678Y807720D01*
X248162D01*
X246762Y807140D01*
X245690Y806068D01*
X245110Y804668D01*
Y803152D01*
X245690Y801752D01*
X246762Y800680D01*
X248162Y800100D01*
X249678D01*
X251078Y800680D01*
X252730Y801473D01*
X254382Y800680D01*
X255782Y800100D01*
X257298D01*
X258698Y800680D01*
X259770Y801752D01*
X260350Y803152D01*
Y804668D01*
X259770Y806068D01*
X258698Y807140D01*
X257298Y807720D01*
D02*
G37*
G36*
X508000Y803960D02*
X390906D01*
X389915Y803763D01*
X389075Y803201D01*
X349959Y764085D01*
X349397Y763245D01*
X349200Y762254D01*
Y659388D01*
X348560Y658748D01*
X347980Y657348D01*
Y655832D01*
X348560Y654432D01*
X349632Y653360D01*
X351032Y652780D01*
X352548D01*
X353948Y653360D01*
X355020Y654432D01*
X355600Y655832D01*
Y657348D01*
X355020Y658748D01*
X354380Y659388D01*
Y761181D01*
X391979Y798780D01*
X506927D01*
X521989Y783719D01*
X522829Y783157D01*
X523820Y782960D01*
X528752D01*
X529392Y782320D01*
X530792Y781740D01*
X532308D01*
X533708Y782320D01*
X534780Y783392D01*
X535360Y784792D01*
Y786308D01*
X534780Y787708D01*
X533708Y788780D01*
X532308Y789360D01*
X530792D01*
X529392Y788780D01*
X528752Y788140D01*
X524893D01*
X509831Y803201D01*
X508991Y803763D01*
X508000Y803960D01*
D02*
G37*
G36*
X446528Y782320D02*
X445012D01*
X443612Y781740D01*
X442540Y780668D01*
X441960Y779268D01*
Y777752D01*
X442540Y776352D01*
X443612Y775280D01*
X445012Y774700D01*
X446528D01*
X447928Y775280D01*
X449000Y776352D01*
X449580Y777752D01*
Y779268D01*
X449000Y780668D01*
X447928Y781740D01*
X446528Y782320D01*
D02*
G37*
G36*
X47748D02*
X46232D01*
X44832Y781740D01*
X43760Y780668D01*
X43180Y779268D01*
Y777752D01*
X43760Y776352D01*
X44832Y775280D01*
X46232Y774700D01*
X47748D01*
X49148Y775280D01*
X50220Y776352D01*
X50800Y777752D01*
Y779268D01*
X50220Y780668D01*
X49148Y781740D01*
X47748Y782320D01*
D02*
G37*
G36*
X423668Y765810D02*
X422152D01*
X420752Y765230D01*
X419906Y764384D01*
X418465Y764261D01*
X417024Y764384D01*
X416178Y765230D01*
X414778Y765810D01*
X413262D01*
X411862Y765230D01*
X410790Y764158D01*
X410210Y762758D01*
Y761242D01*
X410790Y759842D01*
X411862Y758770D01*
X413262Y758190D01*
X414778D01*
X416178Y758770D01*
X417024Y759616D01*
X418465Y759738D01*
X419906Y759616D01*
X420752Y758770D01*
X422152Y758190D01*
X423668D01*
X425068Y758770D01*
X426140Y759842D01*
X426720Y761242D01*
Y762758D01*
X426140Y764158D01*
X425068Y765230D01*
X423668Y765810D01*
D02*
G37*
G36*
X24888D02*
X23372D01*
X21972Y765230D01*
X21126Y764384D01*
X19685Y764261D01*
X18244Y764384D01*
X17398Y765230D01*
X15998Y765810D01*
X14482D01*
X13082Y765230D01*
X12010Y764158D01*
X11430Y762758D01*
Y761242D01*
X12010Y759842D01*
X13082Y758770D01*
X14482Y758190D01*
X15998D01*
X17398Y758770D01*
X18244Y759616D01*
X19685Y759738D01*
X21126Y759616D01*
X21972Y758770D01*
X23372Y758190D01*
X24888D01*
X26288Y758770D01*
X27360Y759842D01*
X27940Y761242D01*
Y762758D01*
X27360Y764158D01*
X26288Y765230D01*
X24888Y765810D01*
D02*
G37*
G36*
X292858Y792480D02*
X291342D01*
X289942Y791900D01*
X288870Y790828D01*
X288290Y789428D01*
Y787912D01*
X288870Y786512D01*
X289510Y785872D01*
Y769423D01*
X285947Y765860D01*
X271780D01*
X270789Y765663D01*
X269949Y765101D01*
X264357Y759510D01*
X260350D01*
X259693Y759379D01*
X259035Y759510D01*
X256360D01*
X255369Y759313D01*
X254528Y758751D01*
X237507Y741730D01*
X227330D01*
X226339Y741533D01*
X225499Y740971D01*
X221127Y736600D01*
X220222D01*
X218822Y736020D01*
X217750Y734948D01*
X217170Y733548D01*
Y732032D01*
X217750Y730632D01*
X218822Y729560D01*
X220222Y728980D01*
X221738D01*
X223138Y729560D01*
X224210Y730632D01*
X224790Y732032D01*
Y732937D01*
X228403Y736550D01*
X238580D01*
X239571Y736747D01*
X240411Y737309D01*
X252720Y749618D01*
X253099Y749648D01*
X255568Y748874D01*
X255760Y748412D01*
X256490Y747682D01*
Y744220D01*
X256687Y743229D01*
X257249Y742389D01*
X257760Y741877D01*
Y739140D01*
X257957Y738149D01*
X258519Y737309D01*
X276860Y718968D01*
Y718062D01*
X277440Y716662D01*
X278512Y715590D01*
X279912Y715010D01*
X279792Y712520D01*
X202188D01*
X201548Y713160D01*
X200148Y713740D01*
X198632D01*
X197232Y713160D01*
X196160Y712088D01*
X196138Y712034D01*
X193598Y712540D01*
Y765355D01*
X202362Y774120D01*
X203268D01*
X204668Y774700D01*
X205740Y775772D01*
X206320Y777172D01*
Y778688D01*
X205740Y780088D01*
X204668Y781160D01*
X203268Y781740D01*
X201752D01*
X200352Y781160D01*
X199280Y780088D01*
X198700Y778688D01*
Y777783D01*
X189177Y768259D01*
X188615Y767419D01*
X188418Y766428D01*
Y749326D01*
X188172Y749038D01*
X185878Y747839D01*
X185416Y748030D01*
X183900D01*
X182500Y747450D01*
X182013Y746963D01*
X180467Y746602D01*
X178921Y746963D01*
X178434Y747450D01*
X177034Y748030D01*
X175518D01*
X174118Y747450D01*
X174040Y747372D01*
X171500Y748424D01*
Y781050D01*
X171303Y782041D01*
X170741Y782881D01*
X166241Y787381D01*
X165401Y787943D01*
X164410Y788140D01*
X135568D01*
X134928Y788780D01*
X133528Y789360D01*
X132012D01*
X130612Y788780D01*
X129540Y787708D01*
X128960Y786308D01*
Y784792D01*
X129540Y783392D01*
X130612Y782320D01*
X132012Y781740D01*
X133528D01*
X134928Y782320D01*
X135568Y782960D01*
X163337D01*
X166320Y779977D01*
Y736734D01*
X163780Y735688D01*
X163448Y736020D01*
X162048Y736600D01*
X160532D01*
X159132Y736020D01*
X157480Y735227D01*
X155828Y736020D01*
X154428Y736600D01*
X152912D01*
X151512Y736020D01*
X150440Y734948D01*
X149860Y733548D01*
Y732032D01*
X150440Y730632D01*
X151512Y729560D01*
X152912Y728980D01*
X154428D01*
X155828Y729560D01*
X157480Y730353D01*
X159132Y729560D01*
X160532Y728980D01*
X162048D01*
X163448Y729560D01*
X163780Y729892D01*
X166320Y728846D01*
Y718312D01*
X164588Y716280D01*
X163072D01*
X161672Y715700D01*
X160655Y714683D01*
X159638Y715700D01*
X158238Y716280D01*
X156722D01*
X155322Y715700D01*
X154250Y714628D01*
X153670Y713228D01*
Y711712D01*
X154250Y710312D01*
X155322Y709240D01*
X156722Y708660D01*
X158238D01*
X159638Y709240D01*
X160655Y710257D01*
X161672Y709240D01*
X163072Y708660D01*
X164588D01*
X166320Y706628D01*
Y679450D01*
X166517Y678459D01*
X167079Y677619D01*
X192479Y652219D01*
X193319Y651657D01*
X194310Y651460D01*
X257810D01*
X258801Y651657D01*
X259641Y652219D01*
X265623Y658201D01*
X266906Y657735D01*
X267970Y656955D01*
Y655832D01*
X268550Y654432D01*
X269622Y653360D01*
X271022Y652780D01*
X272538D01*
X273938Y653360D01*
X274578Y654000D01*
X275787D01*
X279350Y650437D01*
Y629946D01*
X279104Y629658D01*
X276810Y628459D01*
X276348Y628650D01*
X274832D01*
X273432Y628070D01*
X272360Y626998D01*
X272337Y626944D01*
X269337D01*
X268346Y626747D01*
X267505Y626185D01*
X262890Y621570D01*
X260350Y622622D01*
Y623058D01*
X259770Y624458D01*
X258753Y625475D01*
X259770Y626492D01*
X260350Y627892D01*
Y629408D01*
X259770Y630808D01*
X258698Y631880D01*
X257298Y632460D01*
X255782D01*
X254382Y631880D01*
X252730Y631087D01*
X251078Y631880D01*
X249678Y632460D01*
X248162D01*
X246762Y631880D01*
X245690Y630808D01*
X245110Y629408D01*
Y628457D01*
X244957Y627757D01*
X243099Y626110D01*
X243082D01*
X242239Y625761D01*
X240219Y626639D01*
X239699Y627034D01*
X239118Y628434D01*
X238047Y629506D01*
X236646Y630086D01*
X235131D01*
X233730Y629506D01*
X233070Y628845D01*
X231782Y628549D01*
X230051Y628777D01*
X229488Y629340D01*
X228088Y629920D01*
X226572D01*
X225172Y629340D01*
X223520Y628547D01*
X221868Y629340D01*
X220468Y629920D01*
X218952D01*
X217552Y629340D01*
X216480Y628268D01*
X214248Y628070D01*
X212848Y628650D01*
X211332D01*
X209932Y628070D01*
X208860Y626998D01*
X208280Y625598D01*
Y624082D01*
X208860Y622682D01*
X209192Y622350D01*
X208146Y619810D01*
X182512D01*
X181460Y622350D01*
X181538Y622428D01*
X182118Y623828D01*
Y625344D01*
X181538Y626744D01*
X181349Y626933D01*
X181382Y627087D01*
X182594Y629280D01*
X184138D01*
X185800Y629968D01*
X186123Y629752D01*
X186703Y628352D01*
X187775Y627280D01*
X189175Y626700D01*
X190691D01*
X192091Y627280D01*
X193163Y628352D01*
X193743Y629752D01*
Y631268D01*
X193163Y632668D01*
X192091Y633740D01*
X190691Y634320D01*
X189175D01*
X188720Y635904D01*
Y636138D01*
X187849Y638240D01*
X186240Y639849D01*
X184138Y640720D01*
X181862D01*
X179760Y639849D01*
X178151Y638240D01*
X177280Y636138D01*
Y633862D01*
X178151Y631760D01*
X178975Y630936D01*
X177923Y628396D01*
X177550D01*
X176150Y627816D01*
X175078Y626744D01*
X174498Y625344D01*
Y623828D01*
X175078Y622428D01*
X175156Y622350D01*
X174104Y619810D01*
X133350D01*
X132359Y619613D01*
X131519Y619051D01*
X80564Y568097D01*
X78807Y568199D01*
X77754Y568878D01*
X77811Y569702D01*
X94541Y586433D01*
X95103Y587273D01*
X95300Y588264D01*
Y609797D01*
X97642Y612140D01*
X98548D01*
X99948Y612720D01*
X101020Y613792D01*
X101600Y615192D01*
Y616708D01*
X101020Y618108D01*
X99948Y619180D01*
X98548Y619760D01*
X97032D01*
X95632Y619180D01*
X94560Y618108D01*
X93980Y616708D01*
Y615802D01*
X91860Y613683D01*
X90170Y612991D01*
X88480Y613683D01*
X86360Y615802D01*
Y616708D01*
X85780Y618108D01*
X84708Y619180D01*
X83308Y619760D01*
X81792D01*
X80392Y619180D01*
X79320Y618108D01*
X78740Y616708D01*
Y615192D01*
X79320Y613792D01*
X80392Y612720D01*
X81792Y612140D01*
X82697D01*
X85040Y609797D01*
Y591441D01*
X67003Y573403D01*
X66441Y572563D01*
X66244Y571572D01*
Y502533D01*
X65978Y502369D01*
X63704Y501754D01*
X63118Y502340D01*
X61718Y502920D01*
X60202D01*
X58802Y502340D01*
X57730Y501268D01*
X57150Y499868D01*
Y498352D01*
X57600Y497266D01*
X57670Y497095D01*
X57422Y496586D01*
X56088Y495002D01*
X55851Y495100D01*
X55368Y495300D01*
X53852D01*
X52452Y494720D01*
X51380Y493648D01*
X50800Y492248D01*
Y490732D01*
X51380Y489332D01*
X52452Y488260D01*
X53852Y487680D01*
X55368D01*
X56768Y488260D01*
X57840Y489332D01*
X58420Y490732D01*
Y492248D01*
X57970Y493334D01*
X57899Y493504D01*
X58148Y494014D01*
X59482Y495598D01*
X59718Y495500D01*
X60202Y495300D01*
X61718D01*
X63118Y495880D01*
X63704Y496466D01*
X65978Y495851D01*
X66244Y495687D01*
Y484560D01*
X66441Y483569D01*
X67003Y482729D01*
X77928Y471803D01*
Y456539D01*
X75388Y456137D01*
X75051Y457175D01*
X72691Y461806D01*
X69636Y466011D01*
X65961Y469686D01*
X61756Y472741D01*
X57125Y475101D01*
X52182Y476707D01*
X47049Y477520D01*
X41851D01*
X36718Y476707D01*
X31775Y475101D01*
X27144Y472741D01*
X22939Y469686D01*
X19264Y466011D01*
X16209Y461806D01*
X13849Y457175D01*
X12243Y452232D01*
X11430Y447099D01*
Y441901D01*
X12243Y436768D01*
X13849Y431825D01*
X16209Y427194D01*
X19264Y422989D01*
X22939Y419314D01*
X27144Y416259D01*
X31775Y413899D01*
X36718Y412293D01*
X41851Y411480D01*
X47049D01*
X52182Y412293D01*
X57125Y413899D01*
X61756Y416259D01*
X65961Y419314D01*
X69636Y422989D01*
X72691Y427194D01*
X75051Y431825D01*
X75388Y432863D01*
X77928Y432461D01*
Y423897D01*
X64545Y410514D01*
X60778D01*
X60778Y410514D01*
X56570D01*
X55579Y410317D01*
X54739Y409755D01*
X18997Y374013D01*
X18435Y373173D01*
X18238Y372182D01*
Y273952D01*
X17316Y273305D01*
X15698Y272648D01*
X14728Y273050D01*
X13212D01*
X11812Y272470D01*
X10740Y271398D01*
X10160Y269998D01*
Y268482D01*
X10740Y267082D01*
X11533Y265430D01*
X10740Y263778D01*
X10160Y262378D01*
Y260862D01*
X10740Y259462D01*
X11533Y257810D01*
X10740Y256158D01*
X10160Y254758D01*
Y253242D01*
X10740Y251842D01*
X11812Y250770D01*
X13212Y250190D01*
X14728D01*
X15698Y250592D01*
X17316Y249935D01*
X18238Y249288D01*
Y198556D01*
X18435Y197565D01*
X18997Y196725D01*
X72086Y143635D01*
Y113212D01*
X72283Y112221D01*
X72845Y111381D01*
X105793Y78433D01*
X106633Y77871D01*
X107624Y77674D01*
X126617D01*
X180215Y24077D01*
X181055Y23515D01*
X182046Y23318D01*
X311385D01*
X312376Y23515D01*
X313216Y24077D01*
X331777Y42638D01*
X332339Y43478D01*
X332413Y43853D01*
X334027Y44653D01*
X335076Y44782D01*
X335663Y44194D01*
X337691Y43024D01*
X339952Y42418D01*
X342292D01*
X344553Y43024D01*
X346581Y44194D01*
X348236Y45849D01*
X349406Y47877D01*
X350012Y50138D01*
Y52478D01*
X349406Y54739D01*
X348970Y55494D01*
X351360Y57883D01*
X352256Y56987D01*
X353096Y56426D01*
X354087Y56228D01*
X358451D01*
X358906Y55901D01*
X360242Y53689D01*
X359918Y52478D01*
Y50138D01*
X360524Y47877D01*
X361694Y45849D01*
X363349Y44194D01*
X365377Y43024D01*
X367638Y42418D01*
X369978D01*
X372239Y43024D01*
X374267Y44194D01*
X375922Y45849D01*
X377092Y47877D01*
X377698Y50138D01*
Y52478D01*
X377092Y54739D01*
X376656Y55494D01*
X379046Y57883D01*
X379942Y56987D01*
X380782Y56426D01*
X381773Y56228D01*
X411188D01*
X412179Y56426D01*
X413020Y56987D01*
X433961Y77928D01*
X464638D01*
X465629Y78125D01*
X466469Y78687D01*
X558599Y170817D01*
X559161Y171657D01*
X559358Y172648D01*
Y304425D01*
X561852Y306070D01*
X563368D01*
X564768Y306650D01*
X565840Y307722D01*
X566420Y309122D01*
Y310638D01*
X565840Y312038D01*
X565047Y313690D01*
X565840Y315342D01*
X566420Y316742D01*
Y318258D01*
X565840Y319658D01*
X564768Y320730D01*
X563368Y321310D01*
X561852D01*
X559358Y322955D01*
Y372944D01*
X559161Y373935D01*
X558599Y374775D01*
X527683Y405691D01*
X526843Y406253D01*
X525852Y406450D01*
X508762D01*
X506730Y408182D01*
Y409698D01*
X506150Y411098D01*
X505078Y412170D01*
X503678Y412750D01*
X502162D01*
X500762Y412170D01*
X499690Y411098D01*
X499110Y409698D01*
Y408182D01*
X497537Y406841D01*
X495013Y407181D01*
X494918Y409520D01*
X495990Y410592D01*
X496570Y411992D01*
Y413508D01*
X495990Y414908D01*
X495197Y416560D01*
X495990Y418212D01*
X496570Y419612D01*
Y421128D01*
X495990Y422528D01*
X494918Y423600D01*
X493518Y424180D01*
X492002D01*
X490602Y423600D01*
X489530Y422528D01*
X488950Y421128D01*
Y419612D01*
X489530Y418212D01*
X490323Y416560D01*
X489530Y414908D01*
X489142Y413971D01*
X487468Y413276D01*
X486410Y413111D01*
X477773Y421747D01*
X478933Y424180D01*
X479548D01*
X480948Y424760D01*
X482020Y425832D01*
X482600Y427232D01*
Y428748D01*
X482020Y430148D01*
X481227Y431800D01*
X482020Y433452D01*
X482600Y434852D01*
Y436368D01*
X482020Y437768D01*
X480948Y438840D01*
X479548Y439420D01*
X478032D01*
X476632Y438840D01*
X475560Y437768D01*
X474980Y436368D01*
Y434852D01*
X475560Y433452D01*
X476353Y431800D01*
X475560Y430148D01*
X474980Y428748D01*
Y428133D01*
X472547Y426973D01*
X434053Y465468D01*
X435491Y467621D01*
X436122Y467360D01*
X437638D01*
X439038Y467940D01*
X440110Y469012D01*
X440690Y470412D01*
Y471928D01*
X440110Y473328D01*
X439264Y474174D01*
X439142Y475615D01*
X439264Y477056D01*
X440110Y477902D01*
X440690Y479302D01*
Y480818D01*
X440110Y482218D01*
X439038Y483290D01*
X437901Y483761D01*
X437432Y485031D01*
X437188Y486410D01*
X437570Y486792D01*
X438150Y488192D01*
Y489708D01*
X437570Y491108D01*
X437768Y493340D01*
X438840Y494412D01*
X439420Y495812D01*
Y497328D01*
X438840Y498728D01*
X437768Y499800D01*
X436368Y500380D01*
X434852D01*
X433452Y499800D01*
X432612Y498960D01*
X431533Y499099D01*
X430072Y499739D01*
Y548329D01*
X456749Y575006D01*
X473782D01*
X474773Y575203D01*
X475613Y575765D01*
X493321Y593473D01*
X493883Y594313D01*
X494080Y595304D01*
Y609797D01*
X496423Y612140D01*
X497328D01*
X498728Y612720D01*
X499800Y613792D01*
X500380Y615192D01*
Y616708D01*
X499800Y618108D01*
X498728Y619180D01*
X497328Y619760D01*
X495812D01*
X494412Y619180D01*
X493340Y618108D01*
X492760Y616708D01*
Y615802D01*
X490640Y613683D01*
X488950Y612991D01*
X487260Y613683D01*
X485140Y615802D01*
Y616708D01*
X484560Y618108D01*
X483488Y619180D01*
X482088Y619760D01*
X480572D01*
X479172Y619180D01*
X478100Y618108D01*
X477520Y616708D01*
Y615192D01*
X478100Y613792D01*
X479172Y612720D01*
X480572Y612140D01*
X481478D01*
X483820Y609797D01*
Y598481D01*
X470605Y585266D01*
X453572D01*
X452581Y585069D01*
X451741Y584507D01*
X420928Y553694D01*
X419498Y553979D01*
X418388Y554642D01*
Y652272D01*
X418191Y653263D01*
X417629Y654103D01*
X403910Y667823D01*
Y714664D01*
X403713Y715656D01*
X403151Y716496D01*
X379946Y739701D01*
X379105Y740263D01*
X378114Y740460D01*
X377952D01*
X375920Y742192D01*
Y743708D01*
X375340Y745108D01*
X374268Y746180D01*
X372868Y746760D01*
X371352D01*
X369952Y746180D01*
X368880Y745108D01*
X368300Y743708D01*
Y742192D01*
X368880Y740792D01*
X369828Y739844D01*
Y739358D01*
X370025Y738367D01*
X370587Y737527D01*
X371093Y737020D01*
X371785Y735330D01*
X371093Y733640D01*
X370587Y733133D01*
X370025Y732293D01*
X369828Y731302D01*
Y730816D01*
X368880Y729868D01*
X368300Y728468D01*
Y726952D01*
X368880Y725552D01*
X369952Y724480D01*
X371352Y723900D01*
X372868D01*
X374268Y724480D01*
X375340Y725552D01*
X375532Y726014D01*
X378001Y726788D01*
X378380Y726758D01*
X393650Y711488D01*
Y664646D01*
X393847Y663655D01*
X394409Y662815D01*
X408128Y649095D01*
Y583232D01*
X407629Y582708D01*
X405588Y581517D01*
X404368Y581759D01*
X402386Y581365D01*
X400705Y580243D01*
X399583Y578562D01*
X399532Y578307D01*
X393115Y571890D01*
X391992Y570209D01*
X391598Y568227D01*
Y546567D01*
X389092Y545481D01*
X375211Y559361D01*
X374371Y559923D01*
X373380Y560120D01*
X364293D01*
X355650Y568763D01*
Y584746D01*
X358190Y585798D01*
X361133Y582855D01*
X361973Y582293D01*
X362964Y582096D01*
X365737D01*
X365760Y582042D01*
X366832Y580970D01*
X368232Y580390D01*
X369748D01*
X371148Y580970D01*
X372220Y582042D01*
X372800Y583442D01*
Y584958D01*
X372220Y586358D01*
X371148Y587430D01*
X369748Y588010D01*
X368232D01*
X366832Y587430D01*
X366678Y587276D01*
X364037D01*
X360730Y590583D01*
Y616379D01*
X360730Y616784D01*
X360769Y617384D01*
X362895Y618507D01*
X363602Y617800D01*
X365002Y617220D01*
X366518D01*
X367918Y617800D01*
X369570Y618593D01*
X371222Y617800D01*
X372622Y617220D01*
X374138D01*
X375538Y617800D01*
X377190Y618593D01*
X378842Y617800D01*
X380242Y617220D01*
X381758D01*
X383158Y617800D01*
X383400Y617916D01*
X383941Y617781D01*
X385390Y615568D01*
X384810Y614168D01*
Y612652D01*
X385390Y611252D01*
X386462Y610180D01*
X387862Y609600D01*
X389378D01*
X390778Y610180D01*
X392430Y610973D01*
X394082Y610180D01*
X395482Y609600D01*
X396998D01*
X398398Y610180D01*
X399470Y611252D01*
X400050Y612652D01*
Y614168D01*
X399470Y615568D01*
X398677Y617220D01*
X399470Y618872D01*
X400050Y620272D01*
Y621788D01*
X399470Y623188D01*
X398398Y624260D01*
X396998Y624840D01*
X395482D01*
X394082Y624260D01*
X392430Y623467D01*
X390778Y624260D01*
X389378Y624840D01*
X387862D01*
X386462Y624260D01*
X386220Y624144D01*
X385679Y624279D01*
X384476Y626116D01*
X384958Y627973D01*
X387350Y629285D01*
X387362Y629280D01*
X389638D01*
X391740Y630151D01*
X393349Y631760D01*
X394220Y633862D01*
Y636138D01*
X393349Y638240D01*
X391740Y639849D01*
X389638Y640720D01*
X387362D01*
X385260Y639849D01*
X383651Y638240D01*
X382780Y636138D01*
Y634786D01*
X382213Y633496D01*
X380612Y632460D01*
X380242D01*
X378842Y631880D01*
X377190Y631087D01*
X375538Y631880D01*
X374138Y632460D01*
X372622D01*
X371222Y631880D01*
X369570Y631087D01*
X367918Y631880D01*
X366518Y632460D01*
X365002D01*
X363602Y631880D01*
X362530Y630808D01*
X361950Y629408D01*
Y627892D01*
X362530Y626492D01*
X363323Y624840D01*
X362530Y623188D01*
X361950Y621788D01*
X361950Y620272D01*
X361914Y620056D01*
X359750Y618836D01*
X359261Y619326D01*
X351915Y626671D01*
X351075Y627233D01*
X350084Y627430D01*
X316488D01*
X315848Y628070D01*
X314448Y628650D01*
X312932D01*
X311532Y628070D01*
X311200Y627738D01*
X308660Y628784D01*
Y646430D01*
X308463Y647421D01*
X307901Y648261D01*
X299720Y656442D01*
Y657348D01*
X299140Y658748D01*
X298808Y659080D01*
X299854Y661620D01*
X317697D01*
X322580Y656738D01*
Y655832D01*
X323160Y654432D01*
X324232Y653360D01*
X325632Y652780D01*
X327148D01*
X328548Y653360D01*
X329620Y654432D01*
X330200Y655832D01*
Y657348D01*
X329620Y658748D01*
X328548Y659820D01*
X327148Y660400D01*
X326242D01*
X323337Y663306D01*
X324301Y665934D01*
X325881Y666136D01*
X335280Y656738D01*
Y655832D01*
X335860Y654432D01*
X336932Y653360D01*
X338332Y652780D01*
X339848D01*
X341248Y653360D01*
X342320Y654432D01*
X342900Y655832D01*
Y657348D01*
X342320Y658748D01*
X341248Y659820D01*
X339848Y660400D01*
X338942D01*
X328221Y671121D01*
X327381Y671683D01*
X326390Y671880D01*
X265866D01*
X264875Y671683D01*
X264035Y671121D01*
X254633Y661720D01*
X201733D01*
X193598Y669855D01*
Y707320D01*
X196138Y707826D01*
X196160Y707772D01*
X197232Y706700D01*
X198632Y706120D01*
X200148D01*
X201548Y706700D01*
X202188Y707340D01*
X298738D01*
X301308Y704770D01*
X301338Y704391D01*
X300564Y701921D01*
X300102Y701730D01*
X299030Y700658D01*
X298450Y699258D01*
Y697742D01*
X299030Y696342D01*
X300102Y695270D01*
X301502Y694690D01*
X303018D01*
X304418Y695270D01*
X305129Y695981D01*
X305965Y695778D01*
X306404Y694739D01*
X306223Y692592D01*
X295672Y682040D01*
X230128D01*
X229488Y682680D01*
X228088Y683260D01*
X226572D01*
X225172Y682680D01*
X224100Y681608D01*
X223520Y680208D01*
Y678692D01*
X224100Y677292D01*
X225172Y676220D01*
X226572Y675640D01*
X228088D01*
X229488Y676220D01*
X230128Y676860D01*
X296744D01*
X297735Y677057D01*
X298575Y677619D01*
X332031Y711075D01*
X332593Y711915D01*
X332790Y712906D01*
Y779522D01*
X333430Y780162D01*
X334010Y781562D01*
Y783078D01*
X333430Y784478D01*
X332358Y785550D01*
X330958Y786130D01*
X329442D01*
X328042Y785550D01*
X326970Y784478D01*
X326390Y783078D01*
Y781562D01*
X326970Y780162D01*
X327610Y779522D01*
Y713979D01*
X315772Y702140D01*
X313110Y701928D01*
X312038Y703000D01*
X310638Y703580D01*
X309823D01*
X301642Y711761D01*
X300801Y712323D01*
X299810Y712520D01*
X281548D01*
X281428Y715010D01*
X282828Y715590D01*
X283900Y716662D01*
X284480Y718062D01*
Y718968D01*
X299011Y733499D01*
X299573Y734339D01*
X299770Y735330D01*
Y750312D01*
X300410Y750952D01*
X300990Y752352D01*
Y753868D01*
X300410Y755268D01*
X299338Y756340D01*
X297938Y756920D01*
X296422D01*
X295022Y756340D01*
X293950Y755268D01*
X293370Y753868D01*
Y752352D01*
X293950Y750952D01*
X294590Y750312D01*
Y736403D01*
X280818Y722630D01*
X280522D01*
X262940Y740213D01*
Y742950D01*
X262743Y743941D01*
X262181Y744781D01*
X261670Y745293D01*
Y747862D01*
X262220Y748412D01*
X262800Y749812D01*
Y751328D01*
X262609Y751790D01*
X263808Y754084D01*
X264096Y754330D01*
X265430D01*
X266421Y754527D01*
X267261Y755089D01*
X272853Y760680D01*
X287020D01*
X288011Y760877D01*
X288851Y761439D01*
X293931Y766519D01*
X294493Y767359D01*
X294690Y768350D01*
Y785872D01*
X295330Y786512D01*
X295910Y787912D01*
Y789428D01*
X295330Y790828D01*
X294258Y791900D01*
X292858Y792480D01*
D02*
G37*
G36*
X559558Y736600D02*
X558042D01*
X556642Y736020D01*
X555570Y734948D01*
X554990Y733548D01*
Y732032D01*
X555570Y730632D01*
X556363Y728980D01*
X555570Y727328D01*
X554990Y725928D01*
Y724412D01*
X555570Y723012D01*
X556642Y721940D01*
X558042Y721360D01*
X559558D01*
X560958Y721940D01*
X562030Y723012D01*
X562610Y724412D01*
Y725928D01*
X562030Y727328D01*
X561237Y728980D01*
X562030Y730632D01*
X562610Y732032D01*
Y733548D01*
X562030Y734948D01*
X560958Y736020D01*
X559558Y736600D01*
D02*
G37*
G36*
X464308Y792480D02*
X462792D01*
X461392Y791900D01*
X460320Y790828D01*
X459740Y789428D01*
Y787912D01*
X460320Y786512D01*
X460960Y785872D01*
Y689323D01*
X458390Y686752D01*
X458011Y686722D01*
X455541Y687496D01*
X455350Y687958D01*
X454278Y689030D01*
X452878Y689610D01*
X451362D01*
X449962Y689030D01*
X448890Y687958D01*
X448310Y686558D01*
Y685042D01*
X448890Y683642D01*
X449962Y682570D01*
X450160Y680338D01*
X449580Y678938D01*
Y677422D01*
X450160Y676022D01*
X451232Y674950D01*
X452632Y674370D01*
X454148D01*
X455548Y674950D01*
X456620Y676022D01*
X457200Y677422D01*
Y678237D01*
X465381Y686419D01*
X465943Y687259D01*
X466140Y688250D01*
Y706512D01*
X468630Y706632D01*
X469210Y705232D01*
X470282Y704160D01*
X471682Y703580D01*
X472588D01*
X487119Y689049D01*
X487959Y688487D01*
X488950Y688290D01*
X503932D01*
X504572Y687650D01*
X505972Y687070D01*
X507488D01*
X508888Y687650D01*
X509960Y688722D01*
X510540Y690122D01*
Y691638D01*
X509960Y693038D01*
X508888Y694110D01*
X507488Y694690D01*
X505972D01*
X504572Y694110D01*
X503932Y693470D01*
X490023D01*
X476250Y707243D01*
Y707538D01*
X493833Y725120D01*
X496570D01*
X497561Y725317D01*
X498401Y725879D01*
X498913Y726390D01*
X501482D01*
X502032Y725840D01*
X503432Y725260D01*
X504948D01*
X505410Y725452D01*
X507704Y724252D01*
X507950Y723964D01*
Y722630D01*
X508147Y721639D01*
X508709Y720799D01*
X514300Y715207D01*
Y701040D01*
X514497Y700049D01*
X515059Y699209D01*
X520139Y694129D01*
X520979Y693567D01*
X521970Y693370D01*
X539492D01*
X540132Y692730D01*
X541532Y692150D01*
X543048D01*
X544448Y692730D01*
X545520Y693802D01*
X546100Y695202D01*
Y696718D01*
X545520Y698118D01*
X544448Y699190D01*
X543048Y699770D01*
X541532D01*
X540132Y699190D01*
X539492Y698550D01*
X523043D01*
X519480Y702113D01*
Y716280D01*
X519283Y717271D01*
X518721Y718111D01*
X513130Y723703D01*
Y731700D01*
X513130Y731700D01*
X512933Y732691D01*
X512371Y733532D01*
X495350Y750553D01*
Y760730D01*
X495153Y761721D01*
X494591Y762561D01*
X490220Y766933D01*
Y767838D01*
X489640Y769238D01*
X488568Y770310D01*
X487168Y770890D01*
X485652D01*
X484252Y770310D01*
X483180Y769238D01*
X482600Y767838D01*
Y766322D01*
X483180Y764922D01*
X484252Y763850D01*
X485652Y763270D01*
X486558D01*
X490170Y759657D01*
Y749481D01*
X490367Y748489D01*
X490929Y747649D01*
X503238Y735340D01*
X503268Y734961D01*
X502494Y732492D01*
X502032Y732300D01*
X501302Y731570D01*
X497840D01*
X496849Y731373D01*
X496009Y730811D01*
X495497Y730300D01*
X492760D01*
X491769Y730103D01*
X490929Y729541D01*
X472588Y711200D01*
X471682D01*
X470282Y710620D01*
X469210Y709548D01*
X468630Y708148D01*
X466140Y708268D01*
Y785872D01*
X466780Y786512D01*
X467360Y787912D01*
Y789428D01*
X466780Y790828D01*
X465708Y791900D01*
X464308Y792480D01*
D02*
G37*
G36*
X65528D02*
X64012D01*
X62612Y791900D01*
X61540Y790828D01*
X60960Y789428D01*
Y787912D01*
X61540Y786512D01*
X62180Y785872D01*
Y689323D01*
X59610Y686752D01*
X59231Y686722D01*
X56761Y687496D01*
X56570Y687958D01*
X55498Y689030D01*
X54098Y689610D01*
X52582D01*
X51182Y689030D01*
X50110Y687958D01*
X49530Y686558D01*
Y685042D01*
X50110Y683642D01*
X51182Y682570D01*
X51380Y680338D01*
X50800Y678938D01*
Y677422D01*
X51380Y676022D01*
X52452Y674950D01*
X53852Y674370D01*
X55368D01*
X56768Y674950D01*
X57840Y676022D01*
X58420Y677422D01*
Y678237D01*
X66601Y686419D01*
X67163Y687259D01*
X67360Y688250D01*
Y706512D01*
X69850Y706632D01*
X70430Y705232D01*
X71502Y704160D01*
X72902Y703580D01*
X73808D01*
X88339Y689049D01*
X89179Y688487D01*
X90170Y688290D01*
X105152D01*
X105792Y687650D01*
X107192Y687070D01*
X108708D01*
X110108Y687650D01*
X111180Y688722D01*
X111760Y690122D01*
Y691638D01*
X111180Y693038D01*
X110108Y694110D01*
X108708Y694690D01*
X107192D01*
X105792Y694110D01*
X105152Y693470D01*
X91243D01*
X77470Y707243D01*
Y707538D01*
X95053Y725120D01*
X97790D01*
X98781Y725317D01*
X99621Y725879D01*
X100133Y726390D01*
X102702D01*
X103252Y725840D01*
X104652Y725260D01*
X106168D01*
X106630Y725452D01*
X108924Y724252D01*
X109170Y723964D01*
Y722630D01*
X109367Y721639D01*
X109929Y720799D01*
X115520Y715207D01*
Y701040D01*
X115717Y700049D01*
X116279Y699209D01*
X121359Y694129D01*
X122199Y693567D01*
X123190Y693370D01*
X140712D01*
X141352Y692730D01*
X142752Y692150D01*
X144268D01*
X145668Y692730D01*
X146740Y693802D01*
X147320Y695202D01*
Y696718D01*
X146740Y698118D01*
X145668Y699190D01*
X144268Y699770D01*
X142752D01*
X141352Y699190D01*
X140712Y698550D01*
X124263D01*
X120700Y702113D01*
Y716280D01*
X120503Y717271D01*
X119941Y718111D01*
X114350Y723703D01*
Y727710D01*
X114219Y728367D01*
X114350Y729025D01*
Y731700D01*
X114153Y732691D01*
X113591Y733532D01*
X96570Y750553D01*
Y760730D01*
X96373Y761721D01*
X95811Y762561D01*
X91440Y766933D01*
Y767838D01*
X90860Y769238D01*
X89788Y770310D01*
X88388Y770890D01*
X86872D01*
X85472Y770310D01*
X84400Y769238D01*
X83820Y767838D01*
Y766322D01*
X84400Y764922D01*
X85472Y763850D01*
X86872Y763270D01*
X87778D01*
X91390Y759657D01*
Y749481D01*
X91587Y748489D01*
X92149Y747649D01*
X104458Y735340D01*
X104488Y734961D01*
X103714Y732492D01*
X103252Y732300D01*
X102522Y731570D01*
X99060D01*
X98069Y731373D01*
X97229Y730811D01*
X96717Y730300D01*
X93980D01*
X92989Y730103D01*
X92149Y729541D01*
X73808Y711200D01*
X72902D01*
X71502Y710620D01*
X70430Y709548D01*
X69850Y708148D01*
X67360Y708268D01*
Y785872D01*
X68000Y786512D01*
X68580Y787912D01*
Y789428D01*
X68000Y790828D01*
X66928Y791900D01*
X65528Y792480D01*
D02*
G37*
G36*
X377948Y680720D02*
X376432D01*
X375032Y680140D01*
X373960Y679068D01*
X373380Y677668D01*
Y676152D01*
X373960Y674752D01*
X374076Y674510D01*
X373941Y673969D01*
X371728Y672520D01*
X370328Y673100D01*
X368812D01*
X367412Y672520D01*
X366340Y671448D01*
X365760Y670048D01*
Y668532D01*
X366340Y667132D01*
X367412Y666060D01*
X368812Y665480D01*
X370328D01*
X371728Y666060D01*
X373380Y666853D01*
X375032Y666060D01*
X376432Y665480D01*
X377948D01*
X379348Y666060D01*
X380420Y667132D01*
X381000Y668532D01*
Y670048D01*
X380420Y671448D01*
X379627Y673100D01*
X380420Y674752D01*
X381000Y676152D01*
Y677668D01*
X380420Y679068D01*
X379348Y680140D01*
X377948Y680720D01*
D02*
G37*
G36*
X210308Y695960D02*
X208792D01*
X207392Y695380D01*
X206320Y694308D01*
X205740Y692908D01*
Y691392D01*
X206320Y689992D01*
X207166Y689146D01*
X207288Y687705D01*
X207166Y686264D01*
X206320Y685418D01*
X205740Y684018D01*
Y682502D01*
X206320Y681102D01*
X207166Y680256D01*
X207288Y678815D01*
X207166Y677374D01*
X206320Y676528D01*
X205740Y675128D01*
Y673612D01*
X206320Y672212D01*
X207392Y671140D01*
X208792Y670560D01*
X210308D01*
X211708Y671140D01*
X212780Y672212D01*
X213360Y673612D01*
Y675128D01*
X212780Y676528D01*
X211934Y677374D01*
X211812Y678815D01*
X211934Y680256D01*
X212780Y681102D01*
X213360Y682502D01*
Y684018D01*
X212780Y685418D01*
X211934Y686264D01*
X211812Y687705D01*
X211934Y689146D01*
X212780Y689992D01*
X213360Y691392D01*
Y692908D01*
X212780Y694308D01*
X211708Y695380D01*
X210308Y695960D01*
D02*
G37*
G36*
X163318Y676910D02*
X161802D01*
X160402Y676330D01*
X159330Y675258D01*
X158750Y673858D01*
Y672342D01*
X159330Y670942D01*
X160402Y669870D01*
X161802Y669290D01*
X163318D01*
X164718Y669870D01*
X165790Y670942D01*
X166370Y672342D01*
Y673858D01*
X165790Y675258D01*
X164718Y676330D01*
X163318Y676910D01*
D02*
G37*
G36*
X12823Y681355D02*
X11307D01*
X9907Y680775D01*
X8835Y679703D01*
X8255Y678303D01*
Y676787D01*
X8835Y675387D01*
X9628Y673735D01*
X8835Y672083D01*
X8255Y670683D01*
Y669167D01*
X8835Y667767D01*
X9628Y666115D01*
X8835Y664463D01*
X8255Y663063D01*
Y661547D01*
X8835Y660147D01*
X9907Y659075D01*
X11307Y658495D01*
X12823D01*
X14223Y659075D01*
X15295Y660147D01*
X15875Y661547D01*
Y663063D01*
X15295Y664463D01*
X14502Y666115D01*
X15295Y667767D01*
X15875Y669167D01*
Y670683D01*
X15295Y672083D01*
X14502Y673735D01*
X15295Y675387D01*
X15875Y676787D01*
Y678303D01*
X15295Y679703D01*
X14223Y680775D01*
X12823Y681355D01*
D02*
G37*
G36*
X433828Y764540D02*
X432312D01*
X430912Y763960D01*
X429840Y762888D01*
X429260Y761488D01*
Y759972D01*
X429840Y758572D01*
X430480Y757932D01*
Y675640D01*
X430677Y674649D01*
X431239Y673809D01*
X449019Y656029D01*
X449859Y655467D01*
X450850Y655270D01*
X533142D01*
X533782Y654630D01*
X535182Y654050D01*
X536698D01*
X538098Y654630D01*
X539170Y655702D01*
X539750Y657102D01*
Y658618D01*
X539170Y660018D01*
X538098Y661090D01*
X536698Y661670D01*
X535182D01*
X533782Y661090D01*
X533142Y660450D01*
X451923D01*
X435660Y676713D01*
Y757932D01*
X436300Y758572D01*
X436880Y759972D01*
Y761488D01*
X436300Y762888D01*
X435228Y763960D01*
X433828Y764540D01*
D02*
G37*
G36*
X35048D02*
X33532D01*
X32132Y763960D01*
X31060Y762888D01*
X30480Y761488D01*
Y759972D01*
X31060Y758572D01*
X31700Y757932D01*
Y675894D01*
X31897Y674903D01*
X32459Y674063D01*
X50493Y656029D01*
X51333Y655467D01*
X52324Y655270D01*
X134362D01*
X135002Y654630D01*
X136402Y654050D01*
X137918D01*
X139318Y654630D01*
X140390Y655702D01*
X140970Y657102D01*
Y658618D01*
X140390Y660018D01*
X139318Y661090D01*
X137918Y661670D01*
X136402D01*
X135002Y661090D01*
X134362Y660450D01*
X53397D01*
X36880Y676967D01*
Y757932D01*
X37520Y758572D01*
X38100Y759972D01*
Y761488D01*
X37520Y762888D01*
X36448Y763960D01*
X35048Y764540D01*
D02*
G37*
G36*
X153158Y655320D02*
X151642D01*
X150242Y654740D01*
X149170Y653668D01*
X148590Y652268D01*
Y650752D01*
X149170Y649352D01*
X150242Y648280D01*
X151642Y647700D01*
X153158D01*
X154558Y648280D01*
X156790Y648082D01*
X157862Y647010D01*
X159262Y646430D01*
X160778D01*
X162178Y647010D01*
X163250Y648082D01*
X163830Y649482D01*
Y650998D01*
X163250Y652398D01*
X162178Y653470D01*
X160778Y654050D01*
X159262D01*
X157862Y653470D01*
X155630Y653668D01*
X154558Y654740D01*
X153158Y655320D01*
D02*
G37*
G36*
X542030Y622300D02*
X540009D01*
X538142Y621527D01*
X536713Y620098D01*
X535940Y618231D01*
Y616209D01*
X536713Y614342D01*
X538142Y612913D01*
X540009Y612140D01*
X542030D01*
X543898Y612913D01*
X545327Y614342D01*
X546100Y616209D01*
Y618231D01*
X545327Y620098D01*
X543898Y621527D01*
X542030Y622300D01*
D02*
G37*
G36*
X22348Y588010D02*
X20832D01*
X19432Y587430D01*
X19050Y587048D01*
X18668Y587430D01*
X17268Y588010D01*
X15752D01*
X14352Y587430D01*
X13280Y586358D01*
X12700Y584958D01*
Y583442D01*
X13280Y582042D01*
X14352Y580970D01*
X15752Y580390D01*
X17268D01*
X18668Y580970D01*
X19050Y581352D01*
X19432Y580970D01*
X20832Y580390D01*
X22348D01*
X23748Y580970D01*
X24820Y582042D01*
X25400Y583442D01*
Y584958D01*
X24820Y586358D01*
X23748Y587430D01*
X22348Y588010D01*
D02*
G37*
G36*
X426208Y615950D02*
X424692D01*
X423292Y615370D01*
X422220Y614298D01*
X421640Y612898D01*
Y611382D01*
X422220Y609982D01*
X423013Y608330D01*
X422220Y606678D01*
X421640Y605278D01*
Y603762D01*
X422220Y602362D01*
X423066Y601516D01*
X423189Y600075D01*
X423066Y598634D01*
X422220Y597788D01*
X421640Y596388D01*
Y594872D01*
X422220Y593472D01*
X423013Y591820D01*
X422220Y590168D01*
X421640Y588768D01*
Y587252D01*
X422220Y585852D01*
X423292Y584780D01*
X424692Y584200D01*
X426208D01*
X427608Y584780D01*
X429260Y585573D01*
X430912Y584780D01*
X432312Y584200D01*
X433828D01*
X435228Y584780D01*
X436880Y585573D01*
X438532Y584780D01*
X439932Y584200D01*
X441448D01*
X442848Y584780D01*
X443920Y585852D01*
X444500Y587252D01*
Y588768D01*
X443920Y590168D01*
X443127Y591820D01*
X443920Y593472D01*
X444500Y594872D01*
Y596388D01*
X443920Y597788D01*
X442848Y598860D01*
X441448Y599440D01*
X439932D01*
X438532Y598860D01*
X437832Y598524D01*
X436332Y599339D01*
X436093Y602155D01*
X436300Y602362D01*
X436880Y603762D01*
Y605278D01*
X436300Y606678D01*
X435228Y607750D01*
X433828Y608330D01*
X432312D01*
X430912Y607750D01*
X430280Y607447D01*
X428377Y609350D01*
X428680Y609982D01*
X429260Y611382D01*
Y612898D01*
X428680Y614298D01*
X427608Y615370D01*
X426208Y615950D01*
D02*
G37*
G36*
X40128Y576580D02*
X38612D01*
X37212Y576000D01*
X35560Y575207D01*
X33908Y576000D01*
X32508Y576580D01*
X30992D01*
X29592Y576000D01*
X28520Y574928D01*
X27940Y573528D01*
Y572012D01*
X28520Y570612D01*
X29592Y569540D01*
X30992Y568960D01*
X32508D01*
X33908Y569540D01*
X35560Y570333D01*
X37212Y569540D01*
X38612Y568960D01*
X40128D01*
X41528Y569540D01*
X42600Y570612D01*
X43180Y572012D01*
Y573528D01*
X42600Y574928D01*
X41528Y576000D01*
X40128Y576580D01*
D02*
G37*
G36*
X496570Y567342D02*
Y563640D01*
X500272D01*
X499607Y565248D01*
X498178Y566677D01*
X496570Y567342D01*
D02*
G37*
G36*
X494030D02*
X492422Y566677D01*
X490993Y565248D01*
X490327Y563640D01*
X494030D01*
Y567342D01*
D02*
G37*
G36*
X500534Y561100D02*
X495300D01*
X490066D01*
X488922Y559177D01*
X487493Y557748D01*
X486828Y556140D01*
X491800D01*
Y553600D01*
X486828D01*
X487493Y551992D01*
X488922Y550563D01*
X490066Y548640D01*
X495300D01*
X500534D01*
X501678Y550563D01*
X503107Y551992D01*
X503773Y553600D01*
X498800D01*
Y556140D01*
X503773D01*
X503107Y557748D01*
X501678Y559177D01*
X500534Y561100D01*
D02*
G37*
G36*
X470075Y552450D02*
X468559D01*
X467159Y551870D01*
X466087Y550798D01*
X465507Y549398D01*
Y547882D01*
X466087Y546482D01*
X467159Y545410D01*
X468559Y544830D01*
X470075D01*
X471475Y545410D01*
X472547Y546482D01*
X473127Y547882D01*
Y549398D01*
X472547Y550798D01*
X471475Y551870D01*
X470075Y552450D01*
D02*
G37*
G36*
X500272Y546100D02*
X496570D01*
Y542397D01*
X498178Y543063D01*
X499607Y544492D01*
X500272Y546100D01*
D02*
G37*
G36*
X494030D02*
X490327D01*
X490993Y544492D01*
X492422Y543063D01*
X494030Y542397D01*
Y546100D01*
D02*
G37*
G36*
X496000Y525392D02*
Y521690D01*
X499702D01*
X499037Y523298D01*
X497608Y524727D01*
X496000Y525392D01*
D02*
G37*
G36*
X493460D02*
X491852Y524727D01*
X490423Y523298D01*
X489757Y521690D01*
X493460D01*
Y525392D01*
D02*
G37*
G36*
X19808Y509270D02*
X18292D01*
X16892Y508690D01*
X15240Y507897D01*
X13588Y508690D01*
X12188Y509270D01*
X10672D01*
X9272Y508690D01*
X8200Y507618D01*
X7620Y506218D01*
Y504702D01*
X8200Y503302D01*
X9272Y502230D01*
X10672Y501650D01*
X12188D01*
X13588Y502230D01*
X15240Y503023D01*
X16892Y502230D01*
X18292Y501650D01*
X19808D01*
X21208Y502230D01*
X22280Y503302D01*
X22860Y504702D01*
Y506218D01*
X22280Y507618D01*
X21208Y508690D01*
X19808Y509270D01*
D02*
G37*
G36*
X499964Y519150D02*
X489496D01*
X488352Y517227D01*
X486923Y515798D01*
X486258Y514190D01*
X491230D01*
Y511650D01*
X486258D01*
X486923Y510042D01*
X488352Y508613D01*
X489496Y506690D01*
X499964D01*
X501108Y508613D01*
X502537Y510042D01*
X503203Y511650D01*
X498230D01*
Y514190D01*
X503203D01*
X502537Y515798D01*
X501108Y517227D01*
X499964Y519150D01*
D02*
G37*
G36*
X499702Y504150D02*
X496000D01*
Y500448D01*
X497608Y501113D01*
X499037Y502542D01*
X499702Y504150D01*
D02*
G37*
G36*
X493460D02*
X489757D01*
X490423Y502542D01*
X491852Y501113D01*
X493460Y500448D01*
Y504150D01*
D02*
G37*
G36*
X475738Y490220D02*
X474222D01*
X472822Y489640D01*
X471750Y488568D01*
X471170Y487168D01*
Y485652D01*
X471750Y484252D01*
X472822Y483180D01*
X474222Y482600D01*
X475738D01*
X477138Y483180D01*
X478210Y484252D01*
X478790Y485652D01*
Y487168D01*
X478210Y488568D01*
X477138Y489640D01*
X475738Y490220D01*
D02*
G37*
G36*
X473198Y478790D02*
X471682D01*
X470282Y478210D01*
X469210Y477138D01*
X468630Y475738D01*
Y474222D01*
X469210Y472822D01*
X470003Y471170D01*
X469210Y469518D01*
X468630Y468118D01*
Y466602D01*
X469210Y465202D01*
X469326Y464960D01*
X469191Y464419D01*
X466978Y462970D01*
X465578Y463550D01*
X464062D01*
X462662Y462970D01*
X461590Y461898D01*
X461010Y460498D01*
Y458982D01*
X461590Y457582D01*
X462383Y455930D01*
X461590Y454278D01*
X461010Y452878D01*
Y451362D01*
X461590Y449962D01*
X462662Y448890D01*
X464062Y448310D01*
X465578D01*
X466978Y448890D01*
X468630Y449683D01*
X470282Y448890D01*
X471682Y448310D01*
X473198D01*
X474598Y448890D01*
X475670Y449962D01*
X476250Y451362D01*
Y452878D01*
X475670Y454278D01*
X474877Y455930D01*
X475670Y457582D01*
X476250Y458982D01*
Y460498D01*
X475670Y461898D01*
X474877Y463550D01*
X475670Y465202D01*
X476250Y466602D01*
Y468118D01*
X475670Y469518D01*
X474877Y471170D01*
X475670Y472822D01*
X476250Y474222D01*
Y475738D01*
X475670Y477138D01*
X474598Y478210D01*
X473198Y478790D01*
D02*
G37*
G36*
X529649Y477520D02*
X524451D01*
X519318Y476707D01*
X514375Y475101D01*
X509744Y472741D01*
X505539Y469686D01*
X501864Y466011D01*
X498809Y461806D01*
X496449Y457175D01*
X494843Y452232D01*
X494030Y447099D01*
Y441901D01*
X494843Y436768D01*
X496449Y431825D01*
X498809Y427194D01*
X501864Y422989D01*
X505539Y419314D01*
X509744Y416259D01*
X514375Y413899D01*
X519318Y412293D01*
X524451Y411480D01*
X529649D01*
X534782Y412293D01*
X539725Y413899D01*
X544356Y416259D01*
X548561Y419314D01*
X552236Y422989D01*
X555291Y427194D01*
X557651Y431825D01*
X559257Y436768D01*
X560070Y441901D01*
Y447099D01*
X559257Y452232D01*
X557651Y457175D01*
X555291Y461806D01*
X552236Y466011D01*
X548561Y469686D01*
X544356Y472741D01*
X539725Y475101D01*
X534782Y476707D01*
X529649Y477520D01*
D02*
G37*
G36*
X539238Y410210D02*
X537722D01*
X536322Y409630D01*
X535250Y408558D01*
X534670Y407158D01*
Y405642D01*
X535250Y404242D01*
X536322Y403170D01*
X537722Y402590D01*
X539238D01*
X540638Y403170D01*
X541710Y404242D01*
X542290Y405642D01*
Y407158D01*
X541710Y408558D01*
X540638Y409630D01*
X539238Y410210D01*
D02*
G37*
G36*
X454375Y71628D02*
X450373D01*
X446447Y70847D01*
X442749Y69315D01*
X439421Y67092D01*
X436590Y64261D01*
X434367Y60933D01*
X432835Y57235D01*
X432054Y53309D01*
Y49307D01*
X432835Y45381D01*
X434367Y41683D01*
X436590Y38355D01*
X439421Y35524D01*
X442749Y33301D01*
X446447Y31769D01*
X450373Y30988D01*
X454375D01*
X458301Y31769D01*
X461999Y33301D01*
X465327Y35524D01*
X468158Y38355D01*
X470381Y41683D01*
X471913Y45381D01*
X472694Y49307D01*
Y53309D01*
X471913Y57235D01*
X470381Y60933D01*
X468158Y64261D01*
X465327Y67092D01*
X461999Y69315D01*
X458301Y70847D01*
X454375Y71628D01*
D02*
G37*
G36*
X121127D02*
X117125D01*
X113199Y70847D01*
X109501Y69315D01*
X106173Y67092D01*
X103342Y64261D01*
X101119Y60933D01*
X99587Y57235D01*
X98806Y53309D01*
Y49307D01*
X99587Y45381D01*
X101119Y41683D01*
X103342Y38355D01*
X106173Y35524D01*
X109501Y33301D01*
X113199Y31769D01*
X117125Y30988D01*
X121127D01*
X125053Y31769D01*
X128751Y33301D01*
X132079Y35524D01*
X134910Y38355D01*
X137133Y41683D01*
X138665Y45381D01*
X139446Y49307D01*
Y53309D01*
X138665Y57235D01*
X137133Y60933D01*
X134910Y64261D01*
X132079Y67092D01*
X128751Y69315D01*
X125053Y70847D01*
X121127Y71628D01*
D02*
G37*
G36*
X529649Y96520D02*
X524451D01*
X519318Y95707D01*
X514375Y94101D01*
X509744Y91741D01*
X505539Y88686D01*
X501864Y85011D01*
X498809Y80806D01*
X496449Y76175D01*
X494843Y71232D01*
X494030Y66099D01*
Y60901D01*
X494843Y55768D01*
X496449Y50825D01*
X498809Y46194D01*
X501864Y41989D01*
X505539Y38314D01*
X509744Y35259D01*
X514375Y32899D01*
X519318Y31293D01*
X524451Y30480D01*
X529649D01*
X534782Y31293D01*
X539725Y32899D01*
X544356Y35259D01*
X548561Y38314D01*
X552236Y41989D01*
X555291Y46194D01*
X557651Y50825D01*
X559257Y55768D01*
X560070Y60901D01*
Y66099D01*
X559257Y71232D01*
X557651Y76175D01*
X555291Y80806D01*
X552236Y85011D01*
X548561Y88686D01*
X544356Y91741D01*
X539725Y94101D01*
X534782Y95707D01*
X529649Y96520D01*
D02*
G37*
G36*
X47049D02*
X41851D01*
X36718Y95707D01*
X31775Y94101D01*
X27144Y91741D01*
X22939Y88686D01*
X19264Y85011D01*
X16209Y80806D01*
X13849Y76175D01*
X12243Y71232D01*
X11430Y66099D01*
Y60901D01*
X12243Y55768D01*
X13849Y50825D01*
X16209Y46194D01*
X19264Y41989D01*
X22939Y38314D01*
X27144Y35259D01*
X31775Y32899D01*
X36718Y31293D01*
X41851Y30480D01*
X47049D01*
X52182Y31293D01*
X57125Y32899D01*
X61756Y35259D01*
X65961Y38314D01*
X69636Y41989D01*
X72691Y46194D01*
X75051Y50825D01*
X76657Y55768D01*
X77470Y60901D01*
Y66099D01*
X76657Y71232D01*
X75051Y76175D01*
X72691Y80806D01*
X69636Y85011D01*
X65961Y88686D01*
X61756Y91741D01*
X57125Y94101D01*
X52182Y95707D01*
X47049Y96520D01*
D02*
G37*
%LPD*%
G36*
X182013Y741477D02*
X182500Y740990D01*
X183900Y740410D01*
X185416D01*
X185878Y740602D01*
X188172Y739402D01*
X188418Y739114D01*
Y668782D01*
X188615Y667791D01*
X189177Y666951D01*
X195065Y661062D01*
X194229Y658306D01*
X193801Y658221D01*
X171500Y680523D01*
Y740016D01*
X174040Y741068D01*
X174118Y740990D01*
X175518Y740410D01*
X177034D01*
X178434Y740990D01*
X178921Y741477D01*
X180467Y741838D01*
X182013Y741477D01*
D02*
G37*
G36*
X293012Y659080D02*
X292680Y658748D01*
X292100Y657348D01*
Y655832D01*
X292680Y654432D01*
X293752Y653360D01*
X295152Y652780D01*
X296057D01*
X303480Y645357D01*
Y627406D01*
X303234Y627118D01*
X300940Y625919D01*
X300478Y626110D01*
X298962D01*
X297562Y625530D01*
X296716Y624684D01*
X295275Y624562D01*
X293834Y624684D01*
X292988Y625530D01*
X291588Y626110D01*
X290072D01*
X288672Y625530D01*
X287600Y624458D01*
X287020Y623058D01*
X284530Y623178D01*
Y651510D01*
X284333Y652501D01*
X283771Y653341D01*
X278691Y658421D01*
X277851Y658983D01*
X277360Y659080D01*
X277610Y661620D01*
X291966D01*
X293012Y659080D01*
D02*
G37*
G36*
X287020Y621709D02*
Y621542D01*
X287600Y620142D01*
X288672Y619070D01*
X290072Y618490D01*
X291588D01*
X292988Y619070D01*
X293834Y619916D01*
X295275Y620038D01*
X296716Y619916D01*
X297562Y619070D01*
X298962Y618490D01*
X300478D01*
X301878Y619070D01*
X302552Y619743D01*
X302950Y620142D01*
X305713Y620174D01*
X309228Y616659D01*
X310069Y616097D01*
X311060Y615900D01*
X348177D01*
X350470Y613607D01*
Y590158D01*
X347980Y590038D01*
X347400Y591438D01*
X346328Y592510D01*
X344928Y593090D01*
X343412D01*
X342012Y592510D01*
X340940Y591438D01*
X340360Y590038D01*
Y588522D01*
X340940Y587122D01*
X342012Y586050D01*
X343412Y585470D01*
X344928D01*
X346328Y586050D01*
X347400Y587122D01*
X347980Y588522D01*
X350470Y588402D01*
Y567690D01*
X350667Y566699D01*
X351229Y565859D01*
X361389Y555699D01*
X362229Y555137D01*
X363220Y554940D01*
X372307D01*
X395117Y532130D01*
X394212Y529590D01*
X392812Y529010D01*
X391740Y527938D01*
X391160Y526538D01*
Y525022D01*
X391740Y523622D01*
X392533Y521970D01*
X391740Y520318D01*
X391160Y518918D01*
Y517402D01*
X391740Y516002D01*
X392812Y514930D01*
X394212Y514350D01*
X395728D01*
X397128Y514930D01*
X398200Y516002D01*
X398780Y517402D01*
Y518918D01*
X398200Y520318D01*
X397407Y521970D01*
X397820Y522830D01*
X399799Y523671D01*
X400984Y523707D01*
X401545Y523311D01*
Y479552D01*
X399813Y477520D01*
X398297D01*
X396897Y476940D01*
X395825Y475868D01*
X395245Y474468D01*
Y472952D01*
X395825Y471552D01*
X396897Y470480D01*
X398297Y469900D01*
X399813D01*
X401545Y467868D01*
Y448853D01*
X399284Y447040D01*
X397768D01*
X396368Y446460D01*
X394843Y445634D01*
X393318Y446460D01*
X391918Y447040D01*
X390402D01*
X389002Y446460D01*
X387350Y445667D01*
X385698Y446460D01*
X384298Y447040D01*
X382782D01*
X381382Y446460D01*
X380310Y445388D01*
X379730Y443988D01*
Y442472D01*
X380310Y441072D01*
X380950Y440432D01*
Y434397D01*
X344371Y397817D01*
X343809Y396977D01*
X343612Y395986D01*
Y389386D01*
X342972Y388746D01*
X342584Y387809D01*
X340910Y387114D01*
X339852Y386949D01*
X331520Y395281D01*
Y402907D01*
X333862Y405250D01*
X334768D01*
X336168Y405830D01*
X337240Y406902D01*
X337820Y408302D01*
Y409818D01*
X337240Y411218D01*
X336168Y412290D01*
X334768Y412870D01*
X333252D01*
X331852Y412290D01*
X330780Y411218D01*
X330200Y409818D01*
Y408913D01*
X328080Y406793D01*
X326390Y406101D01*
X324700Y406793D01*
X322580Y408913D01*
Y409818D01*
X322000Y411218D01*
X320928Y412290D01*
X319528Y412870D01*
X318012D01*
X316612Y412290D01*
X315540Y411218D01*
X314960Y409818D01*
Y408302D01*
X315540Y406902D01*
X316612Y405830D01*
X318012Y405250D01*
X318918D01*
X321260Y402907D01*
Y392104D01*
X321457Y391113D01*
X322019Y390273D01*
X337949Y374343D01*
X338789Y373781D01*
X339780Y373584D01*
X362147D01*
X382982Y352749D01*
Y247832D01*
X383179Y246841D01*
X383741Y246001D01*
X400941Y228801D01*
X401781Y228239D01*
X402772Y228042D01*
X481527D01*
X502108Y207461D01*
Y189033D01*
X475177Y162102D01*
X472092D01*
X471429Y163212D01*
X471144Y164642D01*
X486971Y180469D01*
X487533Y181309D01*
X487730Y182300D01*
Y194507D01*
X490073Y196850D01*
X490978D01*
X492378Y197430D01*
X493450Y198502D01*
X494030Y199902D01*
Y201418D01*
X493450Y202818D01*
X492378Y203890D01*
X490978Y204470D01*
X489462D01*
X488062Y203890D01*
X486990Y202818D01*
X486410Y201418D01*
Y200513D01*
X484290Y198393D01*
X482600Y197701D01*
X480910Y198393D01*
X478790Y200513D01*
Y201418D01*
X478210Y202818D01*
X477138Y203890D01*
X475738Y204470D01*
X474222D01*
X472822Y203890D01*
X471750Y202818D01*
X471170Y201418D01*
Y199902D01*
X471750Y198502D01*
X472822Y197430D01*
X474222Y196850D01*
X475127D01*
X477470Y194507D01*
Y185477D01*
X465779Y173786D01*
X425715D01*
X424724Y173589D01*
X423884Y173027D01*
X392670Y141813D01*
X390637Y143373D01*
X390935Y143889D01*
X391541Y146150D01*
Y148490D01*
X390935Y150751D01*
X389765Y152779D01*
X388110Y154434D01*
X386082Y155604D01*
X383821Y156210D01*
X381481D01*
X379220Y155604D01*
X377192Y154434D01*
X376605Y153846D01*
X375556Y153975D01*
X373942Y154775D01*
X373868Y155150D01*
X373306Y155990D01*
X340013Y189283D01*
X339173Y189845D01*
X338182Y190042D01*
X302481D01*
X298132Y194390D01*
X298102Y194769D01*
X298876Y197239D01*
X299338Y197430D01*
X300410Y198502D01*
X300990Y199902D01*
Y201418D01*
X300410Y202818D01*
X299338Y203890D01*
X297938Y204470D01*
X296422D01*
X295022Y203890D01*
X294074Y202942D01*
X293588D01*
X292597Y202745D01*
X291757Y202183D01*
X291250Y201677D01*
X289560Y200985D01*
X287870Y201677D01*
X287363Y202183D01*
X286523Y202745D01*
X285532Y202942D01*
X285047D01*
X284098Y203890D01*
X282698Y204470D01*
X281182D01*
X279782Y203890D01*
X278710Y202818D01*
X278130Y201418D01*
Y199902D01*
X278710Y198502D01*
X279782Y197430D01*
X281182Y196850D01*
X282698D01*
X284430Y194818D01*
Y194656D01*
X284627Y193664D01*
X285189Y192824D01*
X297369Y180644D01*
X297344Y180203D01*
X296548Y178104D01*
X114103D01*
X101650Y190557D01*
Y194507D01*
X103993Y196850D01*
X104898D01*
X106298Y197430D01*
X107370Y198502D01*
X107950Y199902D01*
Y201418D01*
X107370Y202818D01*
X106298Y203890D01*
X104898Y204470D01*
X103382D01*
X101982Y203890D01*
X100910Y202818D01*
X100330Y201418D01*
Y200513D01*
X98210Y198393D01*
X96520Y197701D01*
X94830Y198393D01*
X92710Y200513D01*
Y201418D01*
X92130Y202818D01*
X91058Y203890D01*
X89658Y204470D01*
X88142D01*
X86742Y203890D01*
X85670Y202818D01*
X85090Y201418D01*
Y199902D01*
X85670Y198502D01*
X86742Y197430D01*
X88142Y196850D01*
X89047D01*
X91390Y194507D01*
Y187380D01*
X91587Y186389D01*
X92149Y185549D01*
X109095Y168603D01*
X109935Y168041D01*
X110926Y167844D01*
X319257D01*
X328351Y158750D01*
X327299Y156210D01*
X326109D01*
X323848Y155604D01*
X321820Y154434D01*
X320165Y152779D01*
X318995Y150751D01*
X318389Y148490D01*
Y146150D01*
X318995Y143889D01*
X320165Y141861D01*
X321820Y140206D01*
X323848Y139036D01*
X324428Y138880D01*
Y132950D01*
X322736Y130722D01*
X322622Y130647D01*
X321631Y130450D01*
X320790Y129889D01*
X317622Y126721D01*
X316867Y127156D01*
X314606Y127762D01*
X312266D01*
X310005Y127156D01*
X308737Y126425D01*
X306658Y127322D01*
X306197Y127788D01*
Y128674D01*
X306000Y129665D01*
X305439Y130505D01*
X301921Y134023D01*
Y138740D01*
X303024Y139036D01*
X305052Y140206D01*
X306707Y141861D01*
X307877Y143889D01*
X308483Y146150D01*
Y148490D01*
X307877Y150751D01*
X306707Y152779D01*
X305052Y154434D01*
X303024Y155604D01*
X300763Y156210D01*
X298423D01*
X296162Y155604D01*
X294134Y154434D01*
X292479Y152779D01*
X291309Y150751D01*
X290703Y148490D01*
Y146150D01*
X291309Y143889D01*
X292479Y141861D01*
X294134Y140206D01*
X296162Y139036D01*
X296742Y138880D01*
Y132950D01*
X295050Y130722D01*
X294935Y130647D01*
X293944Y130450D01*
X293104Y129889D01*
X289936Y126721D01*
X289181Y127156D01*
X286920Y127762D01*
X284580D01*
X282319Y127156D01*
X280291Y125986D01*
X278636Y124331D01*
X277466Y122303D01*
X276860Y120042D01*
Y117702D01*
X277466Y115441D01*
X278636Y113413D01*
X280291Y111758D01*
X282319Y110588D01*
X284580Y109982D01*
X285770D01*
X286822Y107442D01*
X284840Y105460D01*
X190557D01*
X179882Y116135D01*
Y131898D01*
X179685Y132889D01*
X179123Y133729D01*
X151255Y161597D01*
X150415Y162159D01*
X149424Y162356D01*
X100133D01*
X62788Y199701D01*
Y211779D01*
X78543Y227534D01*
X168982D01*
X169973Y227731D01*
X170813Y228293D01*
X185001Y242481D01*
X185563Y243321D01*
X185760Y244312D01*
Y368264D01*
X185563Y369255D01*
X185001Y370095D01*
X168838Y386258D01*
Y402787D01*
X170938Y404887D01*
X171965D01*
X173365Y405467D01*
X174437Y406539D01*
X175017Y407939D01*
Y409455D01*
X174437Y410855D01*
X173365Y411927D01*
X171965Y412507D01*
X170449D01*
X169049Y411927D01*
X167977Y410855D01*
X167397Y409455D01*
Y408671D01*
X165399Y406673D01*
X163708Y405981D01*
X162018Y406673D01*
X160020Y408671D01*
Y409698D01*
X159440Y411098D01*
X158368Y412170D01*
X156968Y412750D01*
X155452D01*
X154052Y412170D01*
X152980Y411098D01*
X152400Y409698D01*
Y408182D01*
X152980Y406782D01*
X154052Y405710D01*
X155452Y405130D01*
X156236D01*
X158579Y402787D01*
Y383081D01*
X158776Y382090D01*
X159337Y381250D01*
X175500Y365087D01*
Y320886D01*
X175077Y320638D01*
X172960Y320108D01*
X172338Y320730D01*
X170938Y321310D01*
X169422D01*
X168022Y320730D01*
X166950Y319658D01*
X166370Y318258D01*
Y316742D01*
X166950Y315342D01*
X167743Y313690D01*
X166950Y312038D01*
X166370Y310638D01*
Y309122D01*
X166950Y307722D01*
X168022Y306650D01*
X169422Y306070D01*
X170938D01*
X172338Y306650D01*
X172960Y307272D01*
X175077Y306742D01*
X175500Y306493D01*
Y247489D01*
X165805Y237794D01*
X147714D01*
X146662Y240334D01*
X146740Y240412D01*
X147320Y241812D01*
Y243328D01*
X146740Y244728D01*
X145668Y245800D01*
X144268Y246380D01*
X142752D01*
X141352Y245800D01*
X140712Y245160D01*
X57715D01*
X43230Y259645D01*
Y342642D01*
X43870Y343282D01*
X44450Y344682D01*
Y346198D01*
X43870Y347598D01*
X42798Y348670D01*
X41398Y349250D01*
X39882D01*
X38482Y348670D01*
X37410Y347598D01*
X36830Y346198D01*
Y344682D01*
X37410Y343282D01*
X38050Y342642D01*
Y258572D01*
X38247Y257581D01*
X38809Y256741D01*
X54811Y240739D01*
X55651Y240177D01*
X56642Y239980D01*
X72453D01*
X72757Y239558D01*
X73535Y237035D01*
X53287Y216787D01*
X52725Y215947D01*
X52528Y214956D01*
Y196524D01*
X52725Y195533D01*
X53287Y194693D01*
X95125Y152855D01*
X95965Y152293D01*
X96956Y152096D01*
X109553D01*
X110058Y149556D01*
X109501Y149325D01*
X106173Y147102D01*
X103342Y144271D01*
X101119Y140943D01*
X99587Y137245D01*
X98806Y133319D01*
Y129317D01*
X99587Y125391D01*
X101119Y121693D01*
X103342Y118365D01*
X106173Y115534D01*
X109501Y113311D01*
X113199Y111779D01*
X117125Y110998D01*
X121127D01*
X125053Y111779D01*
X128751Y113311D01*
X132079Y115534D01*
X134910Y118365D01*
X137133Y121693D01*
X138665Y125391D01*
X139446Y129317D01*
Y133319D01*
X138665Y137245D01*
X137133Y140943D01*
X134910Y144271D01*
X132079Y147102D01*
X128751Y149325D01*
X128194Y149556D01*
X128699Y152096D01*
X146247D01*
X169622Y128721D01*
Y112958D01*
X169819Y111967D01*
X170381Y111127D01*
X185549Y95959D01*
X186389Y95397D01*
X187380Y95200D01*
X202322D01*
X202442Y92710D01*
X201042Y92130D01*
X199970Y91058D01*
X199390Y89658D01*
Y88142D01*
X199970Y86742D01*
X201042Y85670D01*
X202442Y85090D01*
X203958D01*
X205358Y85670D01*
X206430Y86742D01*
X207010Y88142D01*
Y89658D01*
X206430Y91058D01*
X205358Y92130D01*
X203958Y92710D01*
X204078Y95200D01*
X288017D01*
X289008Y95397D01*
X289848Y95959D01*
X304091Y110202D01*
X304653Y111042D01*
X304727Y111417D01*
X306341Y112217D01*
X307390Y112346D01*
X307977Y111758D01*
X310005Y110588D01*
X312266Y109982D01*
X314606D01*
X316867Y110588D01*
X318895Y111758D01*
X320550Y113413D01*
X321720Y115441D01*
X322326Y117702D01*
Y120042D01*
X321720Y122303D01*
X321284Y123058D01*
X323674Y125447D01*
X324570Y124551D01*
X325410Y123990D01*
X326401Y123792D01*
X330765D01*
X331220Y123465D01*
X332556Y121252D01*
X332232Y120042D01*
Y117702D01*
X332838Y115441D01*
X334008Y113413D01*
X335663Y111758D01*
X335839Y108724D01*
X335463Y108254D01*
X323397D01*
X322406Y108057D01*
X321566Y107495D01*
X309192Y95121D01*
X308630Y94281D01*
X308433Y93290D01*
Y87080D01*
X305893Y86028D01*
X305052Y86870D01*
X303024Y88040D01*
X300763Y88646D01*
X298423D01*
X296162Y88040D01*
X294134Y86870D01*
X292479Y85215D01*
X291309Y83187D01*
X290703Y80926D01*
Y78586D01*
X291309Y76325D01*
X292479Y74297D01*
X294134Y72642D01*
X296162Y71472D01*
X296742Y71316D01*
Y65386D01*
X295050Y63158D01*
X294936Y63083D01*
X293944Y62886D01*
X293104Y62325D01*
X289936Y59156D01*
X289181Y59592D01*
X286920Y60198D01*
X284580D01*
X282319Y59592D01*
X280291Y58422D01*
X278636Y56767D01*
X277466Y54739D01*
X276860Y52478D01*
Y50138D01*
X277466Y47877D01*
X278636Y45849D01*
X280291Y44194D01*
X282319Y43024D01*
X284580Y42418D01*
X286920D01*
X289181Y43024D01*
X291209Y44194D01*
X292864Y45849D01*
X294034Y47877D01*
X294640Y50138D01*
Y52478D01*
X294034Y54739D01*
X293598Y55494D01*
X295988Y57883D01*
X296884Y56987D01*
X297724Y56426D01*
X298715Y56228D01*
X303079D01*
X303534Y55901D01*
X304870Y53689D01*
X304546Y52478D01*
Y50138D01*
X305152Y47877D01*
X306322Y45849D01*
X307977Y44194D01*
X310005Y43024D01*
X312266Y42418D01*
X313456D01*
X314508Y39878D01*
X308208Y33578D01*
X185223D01*
X131625Y87175D01*
X130785Y87737D01*
X129794Y87934D01*
X110801D01*
X82346Y116389D01*
Y146812D01*
X82149Y147803D01*
X81587Y148643D01*
X28498Y201733D01*
Y369005D01*
X59747Y400254D01*
X67722D01*
X68713Y400451D01*
X69553Y401013D01*
X86310Y417770D01*
X88850Y416718D01*
Y416560D01*
X89047Y415569D01*
X89609Y414729D01*
X113739Y390599D01*
X114579Y390037D01*
X115570Y389840D01*
X128467D01*
X136530Y381777D01*
Y373058D01*
X135890Y372418D01*
X135310Y371018D01*
Y369502D01*
X135890Y368102D01*
X136962Y367030D01*
X138362Y366450D01*
X139878D01*
X141278Y367030D01*
X142350Y368102D01*
X142930Y369502D01*
Y371018D01*
X142350Y372418D01*
X141710Y373058D01*
Y382850D01*
X141513Y383841D01*
X140951Y384681D01*
X131371Y394261D01*
X130531Y394823D01*
X129540Y395020D01*
X116643D01*
X94030Y417633D01*
Y539750D01*
X93833Y540741D01*
X93271Y541581D01*
X84738Y550115D01*
X84751Y550159D01*
X85148Y550478D01*
X87763Y551337D01*
X88142Y551180D01*
X89658D01*
X91058Y551760D01*
X91904Y552606D01*
X93345Y552729D01*
X94786Y552606D01*
X95632Y551760D01*
X97032Y551180D01*
X98548D01*
X99948Y551760D01*
X101020Y552832D01*
X101600Y554232D01*
Y555748D01*
X101020Y557148D01*
X99948Y558220D01*
X98548Y558800D01*
X97032D01*
X95632Y558220D01*
X94786Y557374D01*
X93345Y557252D01*
X91904Y557374D01*
X91058Y558220D01*
X89658Y558800D01*
X88142D01*
X86742Y558220D01*
X85670Y557148D01*
X85648Y557094D01*
X83108Y557600D01*
Y563315D01*
X134423Y614630D01*
X262203D01*
X263194Y614827D01*
X264034Y615389D01*
X266565Y617920D01*
X268538Y616301D01*
X268117Y615671D01*
X267920Y614680D01*
Y571303D01*
X263087Y566470D01*
X251250D01*
X250259Y566273D01*
X249419Y565711D01*
X233119Y549412D01*
X232557Y548571D01*
X232360Y547580D01*
Y424942D01*
X232557Y423951D01*
X233119Y423111D01*
X240349Y415880D01*
X240390Y414112D01*
X240027Y412934D01*
X238640Y412377D01*
X237740Y412750D01*
X236224D01*
X234824Y412170D01*
X234315Y411661D01*
X234060Y411916D01*
X232660Y412496D01*
X231144D01*
X229744Y411916D01*
X228672Y410844D01*
X228092Y409444D01*
Y407928D01*
X228672Y406528D01*
X229744Y405456D01*
X231144Y404876D01*
X232660D01*
X234060Y405456D01*
X234569Y405965D01*
X234824Y405710D01*
X236224Y405130D01*
X237740D01*
X239140Y405710D01*
X240157Y406727D01*
X241174Y405710D01*
X242574Y405130D01*
X244090D01*
X245490Y405710D01*
X246562Y406782D01*
X249351Y406878D01*
X266901Y389329D01*
X267741Y388767D01*
X268732Y388570D01*
X310187D01*
X328350Y370407D01*
Y369502D01*
X328930Y368102D01*
X330002Y367030D01*
X331402Y366450D01*
X332918D01*
X334318Y367030D01*
X335390Y368102D01*
X335970Y369502D01*
Y371018D01*
X335390Y372418D01*
X334318Y373490D01*
X332918Y374070D01*
X332012D01*
X313091Y392991D01*
X312251Y393553D01*
X311260Y393750D01*
X269805D01*
X242193Y421361D01*
X242788Y422869D01*
X243438Y423708D01*
X244634D01*
X246034Y424288D01*
X247686Y425067D01*
X249302Y424252D01*
X250702Y423672D01*
X252218D01*
X253618Y424252D01*
X254690Y425324D01*
X255270Y426724D01*
Y428240D01*
X254690Y429640D01*
X253618Y430712D01*
X252218Y431292D01*
X250702D01*
X249302Y430712D01*
X247650Y429933D01*
X246034Y430748D01*
X244634Y431328D01*
X243118D01*
X241718Y430748D01*
X240646Y429676D01*
X240066Y428276D01*
X237540Y428309D01*
Y546507D01*
X245110Y554078D01*
X246199Y553895D01*
X247833Y553209D01*
X248230Y552252D01*
X249302Y551180D01*
X250702Y550600D01*
X252218D01*
X253618Y551180D01*
X254690Y552252D01*
X255491Y552482D01*
X257551Y552521D01*
X258192Y551880D01*
X259592Y551300D01*
X261108D01*
X262508Y551880D01*
X263580Y552952D01*
X264160Y554352D01*
Y555868D01*
X263580Y557268D01*
X262508Y558340D01*
X261108Y558920D01*
X261518Y561290D01*
X264160D01*
X265151Y561487D01*
X265991Y562049D01*
X272341Y568399D01*
X272903Y569239D01*
X273100Y570230D01*
Y580898D01*
X274832Y582930D01*
X276348D01*
X277748Y583510D01*
X278820Y584582D01*
X279400Y585982D01*
Y586415D01*
X281597Y588054D01*
X281747Y588092D01*
X281944Y588010D01*
X283460D01*
X284860Y588590D01*
X285932Y589662D01*
X286512Y591062D01*
Y592578D01*
X285932Y593978D01*
X284860Y595050D01*
X283460Y595630D01*
X281944D01*
X280544Y595050D01*
X279472Y593978D01*
X278892Y592578D01*
Y592145D01*
X276695Y590506D01*
X276545Y590468D01*
X276348Y590550D01*
X274832D01*
X273100Y592582D01*
Y613607D01*
X275393Y615900D01*
X278220D01*
X279211Y616097D01*
X280051Y616659D01*
X283771Y620378D01*
X284333Y621219D01*
X284480Y621960D01*
X287020Y621709D01*
D02*
G37*
G36*
X407916Y555469D02*
X408128Y555214D01*
Y529942D01*
X407089Y529300D01*
X405588Y528984D01*
X398617Y535955D01*
X398638Y536274D01*
X399618Y538547D01*
X400762Y538775D01*
X402443Y539897D01*
X403565Y541578D01*
X403960Y543560D01*
X403565Y545542D01*
X402443Y547223D01*
X401957Y547708D01*
Y554470D01*
X403639Y556522D01*
X405155D01*
X405588Y556702D01*
X407916Y555469D01*
D02*
G37*
G36*
X88850Y538677D02*
Y478982D01*
X86310Y477930D01*
X76504Y487737D01*
Y547536D01*
X77614Y548200D01*
X79044Y548484D01*
X88850Y538677D01*
D02*
G37*
G36*
X409307Y428699D02*
X410147Y428137D01*
X411138Y427940D01*
X414217D01*
X448405Y393753D01*
X448134Y391100D01*
X446361Y390113D01*
X445388Y390580D01*
X443988Y391160D01*
X442472D01*
X441072Y390580D01*
X440000Y389508D01*
X439420Y388108D01*
Y386592D01*
X440000Y385192D01*
X441072Y384120D01*
X442472Y383540D01*
X443988D01*
X445388Y384120D01*
X447040Y384913D01*
X448692Y384120D01*
X450092Y383540D01*
X451608D01*
X453008Y384120D01*
X454080Y385192D01*
X456869Y385288D01*
X473729Y368429D01*
X474569Y367867D01*
X475560Y367670D01*
X522402D01*
X523042Y367030D01*
X524442Y366450D01*
X525958D01*
X527358Y367030D01*
X528430Y368102D01*
X528563Y368423D01*
X531247Y369189D01*
X531411Y369166D01*
X538430Y362147D01*
Y286512D01*
X536698Y284480D01*
X535182D01*
X533782Y283900D01*
X533142Y283260D01*
X516693D01*
X513130Y286823D01*
Y300990D01*
X512933Y301981D01*
X512371Y302821D01*
X506780Y308413D01*
Y312420D01*
X506649Y313077D01*
X506780Y313735D01*
Y316410D01*
X506583Y317401D01*
X506021Y318242D01*
X489000Y335263D01*
Y345440D01*
X488803Y346431D01*
X488241Y347271D01*
X483870Y351642D01*
Y352548D01*
X483290Y353948D01*
X482218Y355020D01*
X480818Y355600D01*
X479302D01*
X477902Y355020D01*
X476830Y353948D01*
X476250Y352548D01*
Y351032D01*
X476830Y349632D01*
X477902Y348560D01*
X479302Y347980D01*
X480207D01*
X483820Y344367D01*
Y334190D01*
X484017Y333199D01*
X484579Y332359D01*
X496888Y320050D01*
X496918Y319671D01*
X496144Y317201D01*
X495682Y317010D01*
X494952Y316280D01*
X491490D01*
X490499Y316083D01*
X489659Y315521D01*
X489147Y315010D01*
X486410D01*
X485419Y314813D01*
X484579Y314251D01*
X466237Y295910D01*
X465332D01*
X463932Y295330D01*
X462860Y294258D01*
X462280Y292858D01*
X459790Y292978D01*
Y370582D01*
X460430Y371222D01*
X461010Y372622D01*
Y374138D01*
X460430Y375538D01*
X459358Y376610D01*
X457958Y377190D01*
X456442D01*
X455042Y376610D01*
X453970Y375538D01*
X453390Y374138D01*
Y372622D01*
X453970Y371222D01*
X454610Y370582D01*
Y274032D01*
X452040Y271462D01*
X451661Y271432D01*
X449192Y272206D01*
X449000Y272668D01*
X447928Y273740D01*
X446528Y274320D01*
X445012D01*
X443612Y273740D01*
X442540Y272668D01*
X441960Y271268D01*
Y269752D01*
X442540Y268352D01*
X443612Y267280D01*
X443810Y265048D01*
X443230Y263648D01*
Y262132D01*
X443810Y260732D01*
X444882Y259660D01*
X446282Y259080D01*
X447798D01*
X449198Y259660D01*
X450270Y260732D01*
X450850Y262132D01*
Y262947D01*
X459031Y271129D01*
X459593Y271969D01*
X459790Y272960D01*
Y291222D01*
X462280Y291342D01*
X462860Y289942D01*
X463932Y288870D01*
X465332Y288290D01*
X466237D01*
X480769Y273759D01*
X481609Y273197D01*
X482600Y273000D01*
X497582D01*
X498222Y272360D01*
X499622Y271780D01*
X501138D01*
X502538Y272360D01*
X503610Y273432D01*
X504190Y274832D01*
Y276348D01*
X503610Y277748D01*
X502538Y278820D01*
X501138Y279400D01*
X499622D01*
X498222Y278820D01*
X497582Y278180D01*
X483673D01*
X469900Y291952D01*
Y292248D01*
X487483Y309830D01*
X490220D01*
X491211Y310027D01*
X492051Y310589D01*
X492563Y311100D01*
X495132D01*
X495682Y310550D01*
X497082Y309970D01*
X498598D01*
X499060Y310161D01*
X501354Y308962D01*
X501600Y308674D01*
Y307340D01*
X501797Y306349D01*
X502359Y305509D01*
X507950Y299917D01*
Y285750D01*
X508147Y284759D01*
X508709Y283919D01*
X513789Y278839D01*
X514629Y278277D01*
X515620Y278080D01*
X533142D01*
X533782Y277440D01*
X535182Y276860D01*
X536698D01*
X538430Y274828D01*
Y184715D01*
X453079Y99364D01*
X379975D01*
X379003Y101710D01*
X388749Y111456D01*
X398018D01*
X399009Y111653D01*
X399849Y112215D01*
X439477Y151842D01*
X442188D01*
X442749Y149325D01*
X439421Y147102D01*
X436590Y144271D01*
X434367Y140943D01*
X432835Y137245D01*
X432054Y133319D01*
Y129317D01*
X432835Y125391D01*
X434367Y121693D01*
X436590Y118365D01*
X439421Y115534D01*
X442749Y113311D01*
X446447Y111779D01*
X450373Y110998D01*
X454375D01*
X458301Y111779D01*
X461999Y113311D01*
X465327Y115534D01*
X468158Y118365D01*
X470381Y121693D01*
X471913Y125391D01*
X472694Y129317D01*
Y133319D01*
X471913Y137245D01*
X470381Y140943D01*
X468158Y144271D01*
X465327Y147102D01*
X461999Y149325D01*
X462560Y151842D01*
X478354D01*
X479345Y152039D01*
X480185Y152601D01*
X511609Y184025D01*
X512171Y184865D01*
X512368Y185856D01*
Y210638D01*
X512171Y211629D01*
X511609Y212469D01*
X486638Y237440D01*
X486664Y237881D01*
X487460Y239980D01*
X526792D01*
X527432Y239340D01*
X528832Y238760D01*
X530348D01*
X531748Y239340D01*
X532820Y240412D01*
X533400Y241812D01*
Y243328D01*
X532820Y244728D01*
X531748Y245800D01*
X530348Y246380D01*
X528832D01*
X527432Y245800D01*
X526792Y245160D01*
X443033D01*
X429310Y258883D01*
Y260350D01*
Y342642D01*
X429950Y343282D01*
X430530Y344682D01*
Y346198D01*
X429950Y347598D01*
X428878Y348670D01*
X427478Y349250D01*
X425962D01*
X424562Y348670D01*
X423490Y347598D01*
X422910Y346198D01*
Y344682D01*
X423490Y343282D01*
X424130Y342642D01*
Y260350D01*
Y257810D01*
X424327Y256819D01*
X424889Y255979D01*
X440026Y240842D01*
X440000Y240401D01*
X439204Y238302D01*
X405949D01*
X393242Y251009D01*
Y355926D01*
X393045Y356917D01*
X392483Y357757D01*
X367155Y383085D01*
X366315Y383647D01*
X365324Y383844D01*
X351939D01*
X350012Y385830D01*
Y387346D01*
X349432Y388746D01*
X348792Y389386D01*
Y394913D01*
X385371Y431493D01*
X385933Y432333D01*
X386030Y432824D01*
X388570Y432574D01*
Y412908D01*
X386030Y411856D01*
X385910Y411977D01*
X384043Y412750D01*
X382021D01*
X380154Y411977D01*
X378725Y410548D01*
X377952Y408680D01*
Y406660D01*
X378725Y404792D01*
X380154Y403363D01*
X382021Y402590D01*
X384043D01*
X385910Y403363D01*
X386030Y403484D01*
X388570Y402432D01*
Y387350D01*
X388767Y386359D01*
X389329Y385519D01*
X398219Y376629D01*
X399059Y376067D01*
X400050Y375870D01*
X428494D01*
X429134Y375230D01*
X430534Y374650D01*
X432050D01*
X433450Y375230D01*
X434522Y376302D01*
X435102Y377702D01*
Y379218D01*
X434522Y380618D01*
X433450Y381690D01*
X432050Y382270D01*
X430534D01*
X429134Y381690D01*
X428494Y381050D01*
X409823D01*
X409659Y381316D01*
X409044Y383590D01*
X409630Y384176D01*
X410210Y385576D01*
Y387092D01*
X409630Y388492D01*
X408558Y389564D01*
X407158Y390144D01*
X405642D01*
X404242Y389564D01*
X403170Y388492D01*
X402590Y387092D01*
Y385576D01*
X403098Y384350D01*
X403055Y383882D01*
X402196Y381696D01*
X401066Y381470D01*
X400673Y381500D01*
X393750Y388423D01*
Y400926D01*
X396290Y401978D01*
X396368Y401900D01*
X397768Y401320D01*
X399284D01*
X400684Y401900D01*
X401756Y402972D01*
X402336Y404372D01*
Y405888D01*
X401756Y407288D01*
X401116Y407928D01*
Y433298D01*
X403656Y434350D01*
X409307Y428699D01*
D02*
G37*
G36*
X481205Y388059D02*
X482045Y387497D01*
X483036Y387300D01*
X513277D01*
X524106Y376471D01*
X524129Y376307D01*
X523363Y373623D01*
X523042Y373490D01*
X522402Y372850D01*
X476633D01*
X474824Y374659D01*
X476596Y376465D01*
X477997Y375885D01*
X479512D01*
X480913Y376465D01*
X481984Y377536D01*
X482565Y378937D01*
Y380452D01*
X481984Y381853D01*
X480913Y382924D01*
X479512Y383505D01*
X477893Y383913D01*
X477485Y385532D01*
X476904Y386933D01*
X475833Y388004D01*
X474432Y388585D01*
X472813Y388993D01*
X472405Y390612D01*
X471824Y392013D01*
X470753Y393084D01*
X469352Y393665D01*
X467837D01*
X466436Y393084D01*
X465365Y392013D01*
X464785Y390612D01*
Y389097D01*
X465365Y387696D01*
X463559Y385924D01*
X418450Y431032D01*
X418718Y432380D01*
X419790Y433452D01*
X420370Y434852D01*
Y436368D01*
X419790Y437768D01*
X418718Y438840D01*
X417318Y439420D01*
X415802D01*
X414402Y438840D01*
X413330Y437768D01*
X412750Y436368D01*
Y436173D01*
X410210Y435121D01*
X406725Y438606D01*
Y445340D01*
X408457Y447372D01*
X409973D01*
X411373Y447952D01*
X412445Y449024D01*
X413025Y450424D01*
Y451940D01*
X412445Y453340D01*
X414321Y454942D01*
X481205Y388059D01*
D02*
G37*
G36*
X356037Y158750D02*
X354985Y156210D01*
X353795D01*
X351534Y155604D01*
X349506Y154434D01*
X348919Y153846D01*
X347870Y153975D01*
X346256Y154775D01*
X346182Y155150D01*
X345620Y155990D01*
X324368Y177242D01*
X324393Y177683D01*
X325190Y179782D01*
X335005D01*
X356037Y158750D01*
D02*
G37*
G36*
X433827Y162416D02*
X434112Y160986D01*
X394841Y121716D01*
X389897D01*
X389612Y122507D01*
X389475Y124256D01*
X389917Y124551D01*
X428892Y163526D01*
X433164D01*
X433827Y162416D01*
D02*
G37*
G36*
X352256Y124551D02*
X353096Y123990D01*
X354087Y123792D01*
X358451D01*
X358906Y123465D01*
X360242Y121252D01*
X359918Y120042D01*
Y117702D01*
X360524Y115441D01*
X361694Y113413D01*
X363349Y111758D01*
X363525Y108724D01*
X363149Y108254D01*
X346781D01*
X346405Y108724D01*
X346581Y111758D01*
X348236Y113413D01*
X349406Y115441D01*
X350012Y117702D01*
Y120042D01*
X349406Y122303D01*
X348970Y123058D01*
X351360Y125447D01*
X352256Y124551D01*
D02*
G37*
G36*
X548024Y176208D02*
X548208Y174935D01*
X462351Y89078D01*
X461078Y89262D01*
X460182Y91958D01*
X545328Y177104D01*
X548024Y176208D01*
D02*
G37*
G36*
X371003Y95648D02*
X364183Y88827D01*
X363621Y87987D01*
X363502Y87384D01*
X362410Y86761D01*
X360884Y86409D01*
X360424Y86870D01*
X358396Y88040D01*
X356135Y88646D01*
X353795D01*
X351534Y88040D01*
X349506Y86870D01*
X347851Y85215D01*
X346681Y83187D01*
X346075Y80926D01*
Y78586D01*
X346681Y76325D01*
X347851Y74297D01*
X349506Y72642D01*
X351534Y71472D01*
X352114Y71316D01*
Y65386D01*
X350422Y63158D01*
X350308Y63083D01*
X349316Y62886D01*
X348476Y62325D01*
X345308Y59156D01*
X344553Y59592D01*
X342292Y60198D01*
X339952D01*
X337691Y59592D01*
X336423Y58861D01*
X334344Y59758D01*
X333883Y60224D01*
Y61110D01*
X333686Y62101D01*
X333125Y62941D01*
X329607Y66459D01*
Y71176D01*
X330710Y71472D01*
X332738Y72642D01*
X334393Y74297D01*
X335563Y76325D01*
X336169Y78586D01*
Y80926D01*
X335563Y83187D01*
X334393Y85215D01*
X332738Y86870D01*
X330710Y88040D01*
X328449Y88646D01*
X326109D01*
X323848Y88040D01*
X321820Y86870D01*
X321233Y86282D01*
X318693Y87334D01*
Y90113D01*
X326574Y97994D01*
X370031D01*
X371003Y95648D01*
D02*
G37*
G36*
X428088Y86564D02*
X408012Y66488D01*
X384979D01*
Y71176D01*
X386082Y71472D01*
X388110Y72642D01*
X389765Y74297D01*
X390935Y76325D01*
X391541Y78586D01*
Y80926D01*
X390935Y83187D01*
X389765Y85215D01*
X388415Y86564D01*
X388631Y87833D01*
X389319Y89104D01*
X427036D01*
X428088Y86564D01*
D02*
G37*
%LPC*%
G36*
X184908Y608330D02*
X183392D01*
X181992Y607750D01*
X180920Y606678D01*
X180340Y605278D01*
Y603762D01*
X180920Y602362D01*
X181560Y601722D01*
Y592836D01*
X181757Y591845D01*
X182319Y591005D01*
X199845Y573479D01*
X200685Y572917D01*
X201676Y572720D01*
X204995D01*
X205635Y572080D01*
X207036Y571500D01*
X208551D01*
X209952Y572080D01*
X211023Y573152D01*
X211603Y574552D01*
Y576068D01*
X211023Y577468D01*
X209952Y578540D01*
X208551Y579120D01*
X207036D01*
X205635Y578540D01*
X204995Y577900D01*
X202749D01*
X197211Y583438D01*
X198263Y585978D01*
X198624D01*
X200024Y586558D01*
X201070Y587604D01*
X202127Y586547D01*
X203527Y585967D01*
X205042D01*
X206443Y586547D01*
X207515Y587619D01*
X208095Y589019D01*
Y590535D01*
X207515Y591936D01*
X206443Y593007D01*
X205042Y593587D01*
X203527D01*
X202127Y593007D01*
X201081Y591962D01*
X200024Y593018D01*
X198624Y593598D01*
X197108D01*
X195708Y593018D01*
X194636Y591946D01*
X194056Y590546D01*
Y590185D01*
X191516Y589132D01*
X186740Y593909D01*
Y601722D01*
X187380Y602362D01*
X187960Y603762D01*
Y605278D01*
X187380Y606678D01*
X186308Y607750D01*
X184908Y608330D01*
D02*
G37*
G36*
X317296Y593398D02*
X315780D01*
X314380Y592818D01*
X313308Y591746D01*
X312728Y590346D01*
Y588830D01*
X313308Y587430D01*
X314380Y586358D01*
X315780Y585778D01*
X317296D01*
X318696Y586358D01*
X319234Y586896D01*
X321155Y587059D01*
X322243Y586768D01*
X322962Y586050D01*
X324362Y585470D01*
X325878D01*
X327278Y586050D01*
X328124Y586896D01*
X329565Y587019D01*
X331006Y586896D01*
X331852Y586050D01*
X333252Y585470D01*
X334768D01*
X336168Y586050D01*
X337240Y587122D01*
X337820Y588522D01*
Y590038D01*
X337240Y591438D01*
X336168Y592510D01*
X334768Y593090D01*
X333252D01*
X331852Y592510D01*
X331006Y591664D01*
X329565Y591541D01*
X328124Y591664D01*
X327278Y592510D01*
X325878Y593090D01*
X324362D01*
X322962Y592510D01*
X322424Y591972D01*
X320503Y591809D01*
X319415Y592100D01*
X318696Y592818D01*
X317296Y593398D01*
D02*
G37*
G36*
X228088Y593090D02*
X226572D01*
X225172Y592510D01*
X224100Y591438D01*
X223520Y590038D01*
Y588522D01*
X224100Y587122D01*
X225172Y586050D01*
X226572Y585470D01*
X228088D01*
X229488Y586050D01*
X230560Y587122D01*
X231140Y588522D01*
Y590038D01*
X230560Y591438D01*
X229488Y592510D01*
X228088Y593090D01*
D02*
G37*
G36*
X217928D02*
X216412D01*
X215012Y592510D01*
X213940Y591438D01*
X213360Y590038D01*
Y588522D01*
X213940Y587122D01*
X215012Y586050D01*
X216412Y585470D01*
X217928D01*
X219328Y586050D01*
X220400Y587122D01*
X220980Y588522D01*
Y590038D01*
X220400Y591438D01*
X219328Y592510D01*
X217928Y593090D01*
D02*
G37*
G36*
X239518D02*
X238002D01*
X236602Y592510D01*
X235530Y591438D01*
X234950Y590038D01*
Y588522D01*
X235530Y587122D01*
X236602Y586050D01*
X238002Y585470D01*
X238754D01*
X239217Y585058D01*
X240129Y583688D01*
X240322Y583123D01*
X240030Y582418D01*
Y580902D01*
X240610Y579502D01*
X241682Y578430D01*
X243082Y577850D01*
X244598D01*
X245998Y578430D01*
X247070Y579502D01*
X247650Y580902D01*
Y582418D01*
X247070Y583818D01*
X245998Y584890D01*
X244598Y585470D01*
X243846D01*
X243382Y585882D01*
X242471Y587252D01*
X242278Y587817D01*
X242570Y588522D01*
Y590038D01*
X241990Y591438D01*
X240918Y592510D01*
X239518Y593090D01*
D02*
G37*
G36*
X261108Y589280D02*
X259592D01*
X258192Y588700D01*
X257120Y587628D01*
X256540Y586228D01*
Y584712D01*
X257120Y583312D01*
X257881Y582551D01*
X258055Y581085D01*
X257881Y579619D01*
X257120Y578858D01*
X256540Y577458D01*
Y575942D01*
X257120Y574542D01*
X258192Y573470D01*
X259592Y572890D01*
X261108D01*
X262508Y573470D01*
X263580Y574542D01*
X264160Y575942D01*
Y577458D01*
X263580Y578858D01*
X262819Y579619D01*
X262645Y581085D01*
X262819Y582551D01*
X263580Y583312D01*
X264160Y584712D01*
Y586228D01*
X263580Y587628D01*
X262508Y588700D01*
X261108Y589280D01*
D02*
G37*
G36*
X283968Y575430D02*
X282452D01*
X281052Y574850D01*
X279980Y573778D01*
X279400Y572378D01*
Y570862D01*
X279980Y569462D01*
X281052Y568390D01*
X282452Y567810D01*
X283968D01*
X285368Y568390D01*
X286440Y569462D01*
X287020Y570862D01*
Y572378D01*
X286440Y573778D01*
X285368Y574850D01*
X283968Y575430D01*
D02*
G37*
G36*
X121408Y575310D02*
X119892D01*
X118492Y574730D01*
X117420Y573658D01*
X116840Y572258D01*
Y570742D01*
X117420Y569342D01*
X118492Y568270D01*
X119892Y567690D01*
X121408D01*
X122808Y568270D01*
X123880Y569342D01*
X124460Y570742D01*
Y572258D01*
X123880Y573658D01*
X122808Y574730D01*
X121408Y575310D01*
D02*
G37*
G36*
X249678Y543560D02*
X248162D01*
X246762Y542980D01*
X245690Y541908D01*
X245110Y540508D01*
Y538992D01*
X245690Y537592D01*
X246483Y535940D01*
X245690Y534288D01*
X245110Y532888D01*
Y531372D01*
X245690Y529972D01*
X246762Y528900D01*
X248162Y528320D01*
X249678D01*
X251078Y528900D01*
X252150Y529972D01*
X252730Y531372D01*
Y532888D01*
X252150Y534288D01*
X251357Y535940D01*
X252150Y537592D01*
X252730Y538992D01*
Y540508D01*
X252150Y541908D01*
X251078Y542980D01*
X249678Y543560D01*
D02*
G37*
G36*
X301748Y585590D02*
X300232D01*
X298832Y585010D01*
X297760Y583938D01*
X297180Y582538D01*
Y581022D01*
X297760Y579622D01*
X298400Y578982D01*
Y482433D01*
X295830Y479862D01*
X295451Y479832D01*
X292981Y480606D01*
X292790Y481068D01*
X291718Y482140D01*
X290318Y482720D01*
X288802D01*
X287402Y482140D01*
X286330Y481068D01*
X285750Y479668D01*
Y478152D01*
X286330Y476752D01*
X287402Y475680D01*
X287600Y473448D01*
X287020Y472048D01*
Y470532D01*
X287600Y469132D01*
X288672Y468060D01*
X290072Y467480D01*
X291588D01*
X292988Y468060D01*
X294060Y469132D01*
X294640Y470532D01*
Y471347D01*
X302821Y479529D01*
X303383Y480369D01*
X303580Y481360D01*
Y499622D01*
X306070Y499742D01*
X306650Y498342D01*
X307722Y497270D01*
X309122Y496690D01*
X310028D01*
X324559Y482159D01*
X325399Y481597D01*
X326390Y481400D01*
X341372D01*
X342012Y480760D01*
X343412Y480180D01*
X344928D01*
X346328Y480760D01*
X347400Y481832D01*
X347980Y483232D01*
Y484748D01*
X347400Y486148D01*
X346328Y487220D01*
X344928Y487800D01*
X343412D01*
X342012Y487220D01*
X341372Y486580D01*
X327463D01*
X313690Y500353D01*
Y500648D01*
X331273Y518230D01*
X334010D01*
X335001Y518427D01*
X335841Y518989D01*
X336353Y519500D01*
X338922D01*
X339472Y518950D01*
X340872Y518370D01*
X342388D01*
X342850Y518562D01*
X345144Y517362D01*
X345390Y517074D01*
Y515740D01*
X345588Y514749D01*
X346149Y513909D01*
X351740Y508317D01*
Y494150D01*
X351937Y493159D01*
X352499Y492319D01*
X357579Y487239D01*
X358419Y486677D01*
X359410Y486480D01*
X376932D01*
X377572Y485840D01*
X378972Y485260D01*
X380488D01*
X381888Y485840D01*
X382960Y486912D01*
X383540Y488312D01*
Y489828D01*
X382960Y491228D01*
X381888Y492300D01*
X380488Y492880D01*
X378972D01*
X377572Y492300D01*
X376932Y491660D01*
X360483D01*
X356920Y495223D01*
Y509390D01*
X356723Y510381D01*
X356161Y511221D01*
X350570Y516813D01*
Y524810D01*
X350373Y525801D01*
X349811Y526642D01*
X332790Y543663D01*
Y553840D01*
X332593Y554831D01*
X332031Y555671D01*
X327660Y560042D01*
Y560948D01*
X327080Y562348D01*
X326008Y563420D01*
X324608Y564000D01*
X323092D01*
X321692Y563420D01*
X320620Y562348D01*
X320040Y560948D01*
Y559432D01*
X320620Y558032D01*
X321692Y556960D01*
X323092Y556380D01*
X323997D01*
X327610Y552767D01*
Y542590D01*
X327807Y541599D01*
X328369Y540759D01*
X340678Y528450D01*
X340708Y528071D01*
X339934Y525602D01*
X339472Y525410D01*
X338742Y524680D01*
X335280D01*
X334289Y524483D01*
X333449Y523921D01*
X332937Y523410D01*
X330200D01*
X329209Y523213D01*
X328369Y522651D01*
X310028Y504310D01*
X309122D01*
X307722Y503730D01*
X306650Y502658D01*
X306070Y501258D01*
X303580Y501378D01*
Y578982D01*
X304220Y579622D01*
X304800Y581022D01*
Y582538D01*
X304220Y583938D01*
X303148Y585010D01*
X301748Y585590D01*
D02*
G37*
G36*
X139188Y585470D02*
X137672D01*
X136272Y584890D01*
X135200Y583818D01*
X134620Y582418D01*
Y580902D01*
X135200Y579502D01*
X135840Y578862D01*
Y482313D01*
X133270Y479742D01*
X132891Y479712D01*
X130421Y480486D01*
X130230Y480948D01*
X129158Y482020D01*
X127758Y482600D01*
X126242D01*
X124842Y482020D01*
X123770Y480948D01*
X123190Y479548D01*
Y478032D01*
X123770Y476632D01*
X124842Y475560D01*
X125040Y473328D01*
X124460Y471928D01*
Y470412D01*
X125040Y469012D01*
X126112Y467940D01*
X127512Y467360D01*
X129028D01*
X130428Y467940D01*
X131500Y469012D01*
X132080Y470412D01*
Y471227D01*
X140261Y479408D01*
X140823Y480249D01*
X141020Y481240D01*
Y499502D01*
X143510Y499622D01*
X144090Y498222D01*
X145162Y497150D01*
X146562Y496570D01*
X147467D01*
X161999Y482039D01*
X162839Y481477D01*
X163830Y481280D01*
X178812D01*
X179452Y480640D01*
X180852Y480060D01*
X182368D01*
X183768Y480640D01*
X184840Y481712D01*
X185420Y483112D01*
Y484628D01*
X184840Y486028D01*
X183768Y487100D01*
X182368Y487680D01*
X180852D01*
X179452Y487100D01*
X178812Y486460D01*
X164903D01*
X151130Y500233D01*
Y500527D01*
X168713Y518110D01*
X171450D01*
X172441Y518307D01*
X173281Y518869D01*
X173793Y519380D01*
X176362D01*
X176912Y518830D01*
X178312Y518250D01*
X179828D01*
X180290Y518442D01*
X182584Y517242D01*
X182830Y516954D01*
Y515620D01*
X183027Y514629D01*
X183589Y513789D01*
X189180Y508197D01*
Y494030D01*
X189377Y493039D01*
X189939Y492199D01*
X195019Y487119D01*
X195859Y486557D01*
X196850Y486360D01*
X214372D01*
X215012Y485720D01*
X216412Y485140D01*
X217928D01*
X219328Y485720D01*
X220400Y486792D01*
X220980Y488192D01*
Y489708D01*
X220400Y491108D01*
X219328Y492180D01*
X217928Y492760D01*
X216412D01*
X215012Y492180D01*
X214372Y491540D01*
X197923D01*
X194360Y495103D01*
Y509270D01*
X194163Y510261D01*
X193601Y511101D01*
X188010Y516693D01*
Y520700D01*
X187879Y521357D01*
X188010Y522015D01*
Y524690D01*
X187813Y525681D01*
X187251Y526522D01*
X170230Y543543D01*
Y553720D01*
X170033Y554711D01*
X169471Y555551D01*
X165100Y559922D01*
Y560828D01*
X164520Y562228D01*
X163448Y563300D01*
X162048Y563880D01*
X160532D01*
X159132Y563300D01*
X158060Y562228D01*
X157480Y560828D01*
Y559312D01*
X158060Y557912D01*
X159132Y556840D01*
X160532Y556260D01*
X161437D01*
X165050Y552647D01*
Y542471D01*
X165247Y541479D01*
X165809Y540639D01*
X178118Y528330D01*
X178148Y527951D01*
X177374Y525481D01*
X176912Y525290D01*
X176182Y524560D01*
X172720D01*
X171729Y524363D01*
X170889Y523801D01*
X170377Y523290D01*
X167640D01*
X166649Y523093D01*
X165809Y522531D01*
X147467Y504190D01*
X146562D01*
X145162Y503610D01*
X144090Y502538D01*
X143510Y501138D01*
X141020Y501258D01*
Y578862D01*
X141660Y579502D01*
X142240Y580902D01*
Y582418D01*
X141660Y583818D01*
X140588Y584890D01*
X139188Y585470D01*
D02*
G37*
G36*
X271268Y557650D02*
X269752D01*
X268352Y557070D01*
X267280Y555998D01*
X266700Y554598D01*
Y553082D01*
X267280Y551682D01*
X267920Y551042D01*
Y469138D01*
X268117Y468147D01*
X268679Y467307D01*
X286847Y449139D01*
X287687Y448577D01*
X288678Y448380D01*
X370582D01*
X371222Y447740D01*
X372622Y447160D01*
X374138D01*
X375538Y447740D01*
X376610Y448812D01*
X377190Y450212D01*
Y451728D01*
X376610Y453128D01*
X375538Y454200D01*
X374138Y454780D01*
X372622D01*
X371222Y454200D01*
X370582Y453560D01*
X289751D01*
X273100Y470211D01*
Y551042D01*
X273740Y551682D01*
X274320Y553082D01*
Y554598D01*
X273740Y555998D01*
X272668Y557070D01*
X271268Y557650D01*
D02*
G37*
G36*
X108708Y557530D02*
X107192D01*
X105792Y556950D01*
X104720Y555878D01*
X104140Y554478D01*
Y552962D01*
X104720Y551562D01*
X105360Y550922D01*
Y468122D01*
X105557Y467131D01*
X106119Y466291D01*
X123391Y449019D01*
X124231Y448457D01*
X125222Y448260D01*
X208022D01*
X208662Y447620D01*
X210062Y447040D01*
X211578D01*
X212978Y447620D01*
X214050Y448692D01*
X214630Y450092D01*
Y451608D01*
X214050Y453008D01*
X212978Y454080D01*
X211578Y454660D01*
X210062D01*
X208662Y454080D01*
X208022Y453440D01*
X126295D01*
X110540Y469195D01*
Y550922D01*
X111180Y551562D01*
X111760Y552962D01*
Y554478D01*
X111180Y555878D01*
X110108Y556950D01*
X108708Y557530D01*
D02*
G37*
G36*
X107692Y439674D02*
X106176D01*
X104776Y439094D01*
X103704Y438022D01*
X103124Y436622D01*
Y435106D01*
X103704Y433706D01*
X104631Y432435D01*
X103704Y431164D01*
X103124Y429764D01*
Y428248D01*
X103704Y426848D01*
X104661Y425891D01*
X105361Y423889D01*
X105474Y423525D01*
X104902Y422144D01*
Y420628D01*
X105482Y419228D01*
X106554Y418156D01*
X107954Y417576D01*
X109470D01*
X110870Y418156D01*
X111942Y419228D01*
X112522Y420628D01*
Y422144D01*
X111942Y423544D01*
X110985Y424501D01*
X110285Y426503D01*
X110172Y426867D01*
X110744Y428248D01*
Y429764D01*
X110164Y431164D01*
X109237Y432435D01*
X110164Y433706D01*
X110744Y435106D01*
Y436622D01*
X110164Y438022D01*
X109092Y439094D01*
X107692Y439674D01*
D02*
G37*
G36*
X218436Y411480D02*
X216920D01*
X215520Y410900D01*
X215392Y410772D01*
X213741Y410111D01*
X212090Y410772D01*
X211962Y410900D01*
X210562Y411480D01*
X209046D01*
X207646Y410900D01*
X206574Y409828D01*
X205994Y408428D01*
Y406912D01*
X206574Y405512D01*
X207646Y404440D01*
X209046Y403860D01*
X210562D01*
X211962Y404440D01*
X212090Y404568D01*
X213741Y405229D01*
X215392Y404568D01*
X215520Y404440D01*
X216920Y403860D01*
X218436D01*
X219836Y404440D01*
X220908Y405512D01*
X221488Y406912D01*
Y408428D01*
X220908Y409828D01*
X219836Y410900D01*
X218436Y411480D01*
D02*
G37*
G36*
X196846Y411226D02*
X195330D01*
X193930Y410646D01*
X192278Y409853D01*
X190626Y410646D01*
X189226Y411226D01*
X187710D01*
X186310Y410646D01*
X185238Y409574D01*
X184658Y408174D01*
Y406658D01*
X185238Y405258D01*
X186310Y404186D01*
X187710Y403606D01*
X189226D01*
X190626Y404186D01*
X192278Y404979D01*
X193930Y404186D01*
X195330Y403606D01*
X196846D01*
X198246Y404186D01*
X199318Y405258D01*
X199898Y406658D01*
Y408174D01*
X199318Y409574D01*
X198246Y410646D01*
X196846Y411226D01*
D02*
G37*
G36*
X247138Y367030D02*
X245622D01*
X244222Y366450D01*
X243150Y365378D01*
X242570Y363978D01*
Y362462D01*
X243150Y361062D01*
X244222Y359990D01*
X245622Y359410D01*
X247138D01*
X248538Y359990D01*
X249610Y361062D01*
X250190Y362462D01*
Y363978D01*
X249610Y365378D01*
X248538Y366450D01*
X247138Y367030D01*
D02*
G37*
G36*
X54098D02*
X52582D01*
X51182Y366450D01*
X50110Y365378D01*
X49530Y363978D01*
Y362462D01*
X50110Y361062D01*
X51182Y359990D01*
X52582Y359410D01*
X54098D01*
X55498Y359990D01*
X56570Y361062D01*
X57150Y362462D01*
Y363978D01*
X56570Y365378D01*
X55498Y366450D01*
X54098Y367030D01*
D02*
G37*
G36*
X372360Y358648D02*
X370844D01*
X369444Y358068D01*
X368372Y356996D01*
X367792Y355596D01*
Y354080D01*
X368372Y352680D01*
X368679Y352373D01*
X369182Y350774D01*
X368679Y349175D01*
X368372Y348868D01*
X367792Y347468D01*
Y345952D01*
X368372Y344552D01*
X369444Y343480D01*
X370844Y342900D01*
X372360D01*
X373760Y343480D01*
X374832Y344552D01*
X375412Y345952D01*
Y347468D01*
X374832Y348868D01*
X374525Y349175D01*
X374022Y350774D01*
X374525Y352373D01*
X374832Y352680D01*
X375412Y354080D01*
Y355596D01*
X374832Y356996D01*
X373760Y358068D01*
X372360Y358648D01*
D02*
G37*
G36*
X372867Y333502D02*
X370845D01*
X368978Y332729D01*
X367549Y331300D01*
X366776Y329432D01*
Y327411D01*
X367549Y325544D01*
X368978Y324115D01*
X370845Y323342D01*
X372867D01*
X374734Y324115D01*
X376163Y325544D01*
X376936Y327411D01*
Y329432D01*
X376163Y331300D01*
X374734Y332729D01*
X372867Y333502D01*
D02*
G37*
G36*
X365248Y321310D02*
X363732D01*
X362332Y320730D01*
X360680Y319937D01*
X359028Y320730D01*
X357628Y321310D01*
X356112D01*
X354712Y320730D01*
X353640Y319658D01*
X353060Y318258D01*
Y316742D01*
X353640Y315342D01*
X354712Y314270D01*
X356112Y313690D01*
X357628D01*
X359028Y314270D01*
X360680Y315063D01*
X362332Y314270D01*
X363732Y313690D01*
X365248D01*
X366648Y314270D01*
X367720Y315342D01*
X368300Y316742D01*
Y318258D01*
X367720Y319658D01*
X366648Y320730D01*
X365248Y321310D01*
D02*
G37*
G36*
X264918Y377190D02*
X263402D01*
X262002Y376610D01*
X260930Y375538D01*
X260350Y374138D01*
Y372622D01*
X260930Y371222D01*
X261570Y370582D01*
Y274032D01*
X259000Y271462D01*
X258621Y271432D01*
X256152Y272206D01*
X255960Y272668D01*
X254888Y273740D01*
X253488Y274320D01*
X251972D01*
X250572Y273740D01*
X249500Y272668D01*
X248920Y271268D01*
Y269752D01*
X249500Y268352D01*
X250572Y267280D01*
X250770Y265048D01*
X250190Y263648D01*
Y262132D01*
X250770Y260732D01*
X251842Y259660D01*
X253242Y259080D01*
X254758D01*
X256158Y259660D01*
X257230Y260732D01*
X257810Y262132D01*
Y262947D01*
X265991Y271129D01*
X266553Y271969D01*
X266750Y272960D01*
Y291222D01*
X269240Y291342D01*
X269820Y289942D01*
X270892Y288870D01*
X272292Y288290D01*
X273197D01*
X287729Y273759D01*
X288569Y273197D01*
X289560Y273000D01*
X304542D01*
X305182Y272360D01*
X306582Y271780D01*
X308098D01*
X309498Y272360D01*
X310570Y273432D01*
X311150Y274832D01*
Y276348D01*
X310570Y277748D01*
X309498Y278820D01*
X308098Y279400D01*
X306582D01*
X305182Y278820D01*
X304542Y278180D01*
X290633D01*
X276860Y291952D01*
Y292248D01*
X294443Y309830D01*
X297180D01*
X298171Y310027D01*
X299011Y310589D01*
X299523Y311100D01*
X302092D01*
X302642Y310550D01*
X304042Y309970D01*
X305558D01*
X306020Y310161D01*
X308314Y308962D01*
X308560Y308674D01*
Y307340D01*
X308757Y306349D01*
X309319Y305509D01*
X314910Y299917D01*
Y285750D01*
X315107Y284759D01*
X315669Y283919D01*
X320749Y278839D01*
X321589Y278277D01*
X322580Y278080D01*
X340102D01*
X340742Y277440D01*
X342142Y276860D01*
X343658D01*
X345058Y277440D01*
X346130Y278512D01*
X346710Y279912D01*
Y281428D01*
X346130Y282828D01*
X345058Y283900D01*
X343658Y284480D01*
X342142D01*
X340742Y283900D01*
X340102Y283260D01*
X323653D01*
X320090Y286823D01*
Y300990D01*
X319893Y301981D01*
X319331Y302821D01*
X313740Y308413D01*
Y312420D01*
X313609Y313077D01*
X313740Y313735D01*
Y316410D01*
X313543Y317401D01*
X312981Y318242D01*
X295960Y335263D01*
Y345440D01*
X295763Y346431D01*
X295201Y347271D01*
X290830Y351642D01*
Y352548D01*
X290250Y353948D01*
X289178Y355020D01*
X287778Y355600D01*
X286262D01*
X284862Y355020D01*
X283790Y353948D01*
X283210Y352548D01*
Y351032D01*
X283790Y349632D01*
X284862Y348560D01*
X286262Y347980D01*
X287167D01*
X290780Y344367D01*
Y334190D01*
X290977Y333199D01*
X291539Y332359D01*
X303848Y320050D01*
X303878Y319671D01*
X303104Y317201D01*
X302642Y317010D01*
X301912Y316280D01*
X298450D01*
X297459Y316083D01*
X296619Y315521D01*
X296107Y315010D01*
X293370D01*
X292379Y314813D01*
X291539Y314251D01*
X273197Y295910D01*
X272292D01*
X270892Y295330D01*
X269820Y294258D01*
X269240Y292858D01*
X266750Y292978D01*
Y370582D01*
X267390Y371222D01*
X267970Y372622D01*
Y374138D01*
X267390Y375538D01*
X266318Y376610D01*
X264918Y377190D01*
D02*
G37*
G36*
X71878D02*
X70362D01*
X68962Y376610D01*
X67890Y375538D01*
X67310Y374138D01*
Y372622D01*
X67890Y371222D01*
X68530Y370582D01*
Y274032D01*
X65960Y271462D01*
X65581Y271432D01*
X63112Y272206D01*
X62920Y272668D01*
X61848Y273740D01*
X60448Y274320D01*
X58932D01*
X57532Y273740D01*
X56460Y272668D01*
X55880Y271268D01*
Y269752D01*
X56460Y268352D01*
X57532Y267280D01*
X57730Y265048D01*
X57150Y263648D01*
Y262132D01*
X57730Y260732D01*
X58802Y259660D01*
X60202Y259080D01*
X61718D01*
X63118Y259660D01*
X64190Y260732D01*
X64770Y262132D01*
Y262947D01*
X72951Y271129D01*
X73513Y271969D01*
X73710Y272960D01*
Y291222D01*
X76200Y291342D01*
X76780Y289942D01*
X77852Y288870D01*
X79252Y288290D01*
X80157D01*
X94689Y273759D01*
X95529Y273197D01*
X96520Y273000D01*
X111502D01*
X112142Y272360D01*
X113542Y271780D01*
X115058D01*
X116458Y272360D01*
X117530Y273432D01*
X118110Y274832D01*
Y276348D01*
X117530Y277748D01*
X116458Y278820D01*
X115058Y279400D01*
X113542D01*
X112142Y278820D01*
X111502Y278180D01*
X97593D01*
X83820Y291952D01*
Y292248D01*
X101403Y309830D01*
X104140D01*
X105131Y310027D01*
X105971Y310589D01*
X106483Y311100D01*
X109052D01*
X109602Y310550D01*
X111002Y309970D01*
X112518D01*
X112980Y310161D01*
X115274Y308962D01*
X115520Y308674D01*
Y307340D01*
X115717Y306349D01*
X116279Y305509D01*
X121870Y299917D01*
Y285750D01*
X122067Y284759D01*
X122629Y283919D01*
X127709Y278839D01*
X128549Y278277D01*
X129540Y278080D01*
X147062D01*
X147702Y277440D01*
X149102Y276860D01*
X150618D01*
X152018Y277440D01*
X153090Y278512D01*
X153670Y279912D01*
Y281428D01*
X153090Y282828D01*
X152018Y283900D01*
X150618Y284480D01*
X149102D01*
X147702Y283900D01*
X147062Y283260D01*
X130613D01*
X127050Y286823D01*
Y300990D01*
X126853Y301981D01*
X126291Y302821D01*
X120700Y308413D01*
Y312420D01*
X120569Y313077D01*
X120700Y313735D01*
Y316410D01*
X120503Y317401D01*
X119941Y318242D01*
X102920Y335263D01*
Y345440D01*
X102723Y346431D01*
X102161Y347271D01*
X97790Y351642D01*
Y352548D01*
X97210Y353948D01*
X96138Y355020D01*
X94738Y355600D01*
X93222D01*
X91822Y355020D01*
X90750Y353948D01*
X90170Y352548D01*
Y351032D01*
X90750Y349632D01*
X91822Y348560D01*
X93222Y347980D01*
X94128D01*
X97740Y344367D01*
Y334190D01*
X97937Y333199D01*
X98499Y332359D01*
X110808Y320050D01*
X110838Y319671D01*
X110064Y317201D01*
X109602Y317010D01*
X108872Y316280D01*
X105410D01*
X104419Y316083D01*
X103579Y315521D01*
X103067Y315010D01*
X100330D01*
X99339Y314813D01*
X98499Y314251D01*
X80157Y295910D01*
X79252D01*
X77852Y295330D01*
X76780Y294258D01*
X76200Y292858D01*
X73710Y292978D01*
Y370582D01*
X74350Y371222D01*
X74930Y372622D01*
Y374138D01*
X74350Y375538D01*
X73278Y376610D01*
X71878Y377190D01*
D02*
G37*
G36*
X207768Y273050D02*
X206252D01*
X204852Y272470D01*
X203780Y271398D01*
X203200Y269998D01*
Y268482D01*
X203780Y267082D01*
X204573Y265430D01*
X203780Y263778D01*
X203200Y262378D01*
Y260862D01*
X203780Y259462D01*
X204573Y257810D01*
X203780Y256158D01*
X203200Y254758D01*
Y253242D01*
X203780Y251842D01*
X204852Y250770D01*
X206252Y250190D01*
X207768D01*
X209168Y250770D01*
X210240Y251842D01*
X210820Y253242D01*
Y254758D01*
X210240Y256158D01*
X209447Y257810D01*
X210240Y259462D01*
X210820Y260862D01*
Y262378D01*
X210240Y263778D01*
X209447Y265430D01*
X210240Y267082D01*
X210820Y268482D01*
Y269998D01*
X210240Y271398D01*
X209168Y272470D01*
X207768Y273050D01*
D02*
G37*
G36*
X234438Y349250D02*
X232922D01*
X231522Y348670D01*
X230450Y347598D01*
X229870Y346198D01*
Y344682D01*
X230450Y343282D01*
X231090Y342642D01*
Y260350D01*
X231287Y259359D01*
X231849Y258519D01*
X249629Y240739D01*
X250469Y240177D01*
X251460Y239980D01*
X333752D01*
X334392Y239340D01*
X335792Y238760D01*
X337308D01*
X338708Y239340D01*
X339780Y240412D01*
X340360Y241812D01*
Y243328D01*
X339780Y244728D01*
X338708Y245800D01*
X337308Y246380D01*
X335792D01*
X334392Y245800D01*
X333752Y245160D01*
X252533D01*
X236270Y261423D01*
Y342642D01*
X236910Y343282D01*
X237490Y344682D01*
Y346198D01*
X236910Y347598D01*
X235838Y348670D01*
X234438Y349250D01*
D02*
G37*
G36*
X220468Y199390D02*
X218952D01*
X217552Y198810D01*
X216480Y197738D01*
X215900Y196338D01*
Y194822D01*
X216480Y193422D01*
X217552Y192350D01*
X218952Y191770D01*
X220468D01*
X221868Y192350D01*
X222940Y193422D01*
X223520Y194822D01*
Y196338D01*
X222940Y197738D01*
X221868Y198810D01*
X220468Y199390D01*
D02*
G37*
G36*
X273077Y156210D02*
X270737D01*
X268476Y155604D01*
X266448Y154434D01*
X264793Y152779D01*
X263623Y150751D01*
X263017Y148490D01*
Y146150D01*
X263623Y143889D01*
X264793Y141861D01*
X266448Y140206D01*
X268476Y139036D01*
X270737Y138430D01*
X273077D01*
X275338Y139036D01*
X277366Y140206D01*
X279021Y141861D01*
X280191Y143889D01*
X280797Y146150D01*
Y148490D01*
X280191Y150751D01*
X279021Y152779D01*
X277366Y154434D01*
X275338Y155604D01*
X273077Y156210D01*
D02*
G37*
G36*
X245391D02*
X243051D01*
X240790Y155604D01*
X238762Y154434D01*
X237107Y152779D01*
X235937Y150751D01*
X235331Y148490D01*
Y146150D01*
X235937Y143889D01*
X237107Y141861D01*
X238762Y140206D01*
X240790Y139036D01*
X243051Y138430D01*
X245391D01*
X247652Y139036D01*
X249680Y140206D01*
X251335Y141861D01*
X252505Y143889D01*
X253111Y146150D01*
Y148490D01*
X252505Y150751D01*
X251335Y152779D01*
X249680Y154434D01*
X247652Y155604D01*
X245391Y156210D01*
D02*
G37*
G36*
X217705D02*
X215365D01*
X213104Y155604D01*
X211076Y154434D01*
X209421Y152779D01*
X208251Y150751D01*
X207645Y148490D01*
Y146150D01*
X208251Y143889D01*
X209421Y141861D01*
X211076Y140206D01*
X213104Y139036D01*
X215365Y138430D01*
X217705D01*
X219966Y139036D01*
X221994Y140206D01*
X223649Y141861D01*
X224819Y143889D01*
X225425Y146150D01*
Y148490D01*
X224819Y150751D01*
X223649Y152779D01*
X221994Y154434D01*
X219966Y155604D01*
X217705Y156210D01*
D02*
G37*
G36*
X190136Y157099D02*
X187562D01*
X185075Y156433D01*
X182845Y155145D01*
X181024Y153324D01*
X179736Y151095D01*
X179070Y148607D01*
Y146033D01*
X179736Y143546D01*
X181024Y141316D01*
X182845Y139495D01*
X185075Y138207D01*
X187562Y137541D01*
X190136D01*
X192624Y138207D01*
X194853Y139495D01*
X196674Y141316D01*
X197962Y143546D01*
X198628Y146033D01*
Y148607D01*
X197962Y151095D01*
X196674Y153324D01*
X194853Y155145D01*
X192624Y156433D01*
X190136Y157099D01*
D02*
G37*
G36*
X231716Y129032D02*
X231648D01*
Y120142D01*
X240538D01*
Y120210D01*
X239846Y122794D01*
X238508Y125110D01*
X236616Y127002D01*
X234300Y128340D01*
X231716Y129032D01*
D02*
G37*
G36*
X229108D02*
X229040D01*
X226456Y128340D01*
X224140Y127002D01*
X222248Y125110D01*
X220910Y122794D01*
X220218Y120210D01*
Y120142D01*
X229108D01*
Y129032D01*
D02*
G37*
G36*
X259234Y127762D02*
X256894D01*
X254633Y127156D01*
X252605Y125986D01*
X250950Y124331D01*
X249780Y122303D01*
X249174Y120042D01*
Y117702D01*
X249780Y115441D01*
X250950Y113413D01*
X252605Y111758D01*
X254633Y110588D01*
X256894Y109982D01*
X259234D01*
X261495Y110588D01*
X263523Y111758D01*
X265178Y113413D01*
X266348Y115441D01*
X266954Y117702D01*
Y120042D01*
X266348Y122303D01*
X265178Y124331D01*
X263523Y125986D01*
X261495Y127156D01*
X259234Y127762D01*
D02*
G37*
G36*
X203862D02*
X201522D01*
X199261Y127156D01*
X197233Y125986D01*
X195578Y124331D01*
X194408Y122303D01*
X193802Y120042D01*
Y117702D01*
X194408Y115441D01*
X195578Y113413D01*
X197233Y111758D01*
X199261Y110588D01*
X201522Y109982D01*
X203862D01*
X206123Y110588D01*
X208151Y111758D01*
X209806Y113413D01*
X210976Y115441D01*
X211582Y117702D01*
Y120042D01*
X210976Y122303D01*
X209806Y124331D01*
X208151Y125986D01*
X206123Y127156D01*
X203862Y127762D01*
D02*
G37*
G36*
X240538Y117602D02*
X231648D01*
Y108712D01*
X231716D01*
X234300Y109404D01*
X236616Y110742D01*
X238508Y112634D01*
X239846Y114950D01*
X240538Y117534D01*
Y117602D01*
D02*
G37*
G36*
X229108D02*
X220218D01*
Y117534D01*
X220910Y114950D01*
X222248Y112634D01*
X224140Y110742D01*
X226456Y109404D01*
X229040Y108712D01*
X229108D01*
Y117602D01*
D02*
G37*
G36*
X273077Y88646D02*
X270737D01*
X268476Y88040D01*
X266448Y86870D01*
X264793Y85215D01*
X263623Y83187D01*
X263017Y80926D01*
Y78586D01*
X263623Y76325D01*
X264793Y74297D01*
X266448Y72642D01*
X268476Y71472D01*
X270737Y70866D01*
X273077D01*
X275338Y71472D01*
X277366Y72642D01*
X279021Y74297D01*
X280191Y76325D01*
X280797Y78586D01*
Y80926D01*
X280191Y83187D01*
X279021Y85215D01*
X277366Y86870D01*
X275338Y88040D01*
X273077Y88646D01*
D02*
G37*
G36*
X245391D02*
X243051D01*
X240790Y88040D01*
X238762Y86870D01*
X237107Y85215D01*
X235937Y83187D01*
X235331Y80926D01*
Y78586D01*
X235937Y76325D01*
X237107Y74297D01*
X238762Y72642D01*
X240790Y71472D01*
X243051Y70866D01*
X245391D01*
X247652Y71472D01*
X249680Y72642D01*
X251335Y74297D01*
X252505Y76325D01*
X253111Y78586D01*
Y80926D01*
X252505Y83187D01*
X251335Y85215D01*
X249680Y86870D01*
X247652Y88040D01*
X245391Y88646D01*
D02*
G37*
G36*
X217705D02*
X215365D01*
X213104Y88040D01*
X211076Y86870D01*
X209421Y85215D01*
X208251Y83187D01*
X207645Y80926D01*
Y78586D01*
X208251Y76325D01*
X209421Y74297D01*
X211076Y72642D01*
X213104Y71472D01*
X215365Y70866D01*
X217705D01*
X219966Y71472D01*
X221994Y72642D01*
X223649Y74297D01*
X224819Y76325D01*
X225425Y78586D01*
Y80926D01*
X224819Y83187D01*
X223649Y85215D01*
X221994Y86870D01*
X219966Y88040D01*
X217705Y88646D01*
D02*
G37*
G36*
X190136Y89535D02*
X187562D01*
X185075Y88869D01*
X182845Y87581D01*
X181024Y85760D01*
X179736Y83531D01*
X179070Y81043D01*
Y78469D01*
X179736Y75981D01*
X181024Y73752D01*
X182845Y71931D01*
X185075Y70643D01*
X187562Y69977D01*
X190136D01*
X192624Y70643D01*
X194853Y71931D01*
X196674Y73752D01*
X197962Y75981D01*
X198628Y78469D01*
Y81043D01*
X197962Y83531D01*
X196674Y85760D01*
X194853Y87581D01*
X192624Y88869D01*
X190136Y89535D01*
D02*
G37*
G36*
X231716Y61468D02*
X231648D01*
Y52578D01*
X240538D01*
Y52646D01*
X239846Y55230D01*
X238508Y57546D01*
X236616Y59438D01*
X234300Y60776D01*
X231716Y61468D01*
D02*
G37*
G36*
X229108D02*
X229040D01*
X226456Y60776D01*
X224140Y59438D01*
X222248Y57546D01*
X220910Y55230D01*
X220218Y52646D01*
Y52578D01*
X229108D01*
Y61468D01*
D02*
G37*
G36*
X259234Y60198D02*
X256894D01*
X254633Y59592D01*
X252605Y58422D01*
X250950Y56767D01*
X249780Y54739D01*
X249174Y52478D01*
Y50138D01*
X249780Y47877D01*
X250950Y45849D01*
X252605Y44194D01*
X254633Y43024D01*
X256894Y42418D01*
X259234D01*
X261495Y43024D01*
X263523Y44194D01*
X265178Y45849D01*
X266348Y47877D01*
X266954Y50138D01*
Y52478D01*
X266348Y54739D01*
X265178Y56767D01*
X263523Y58422D01*
X261495Y59592D01*
X259234Y60198D01*
D02*
G37*
G36*
X203862D02*
X201522D01*
X199261Y59592D01*
X197233Y58422D01*
X195578Y56767D01*
X194408Y54739D01*
X193802Y52478D01*
Y50138D01*
X194408Y47877D01*
X195578Y45849D01*
X197233Y44194D01*
X199261Y43024D01*
X201522Y42418D01*
X203862D01*
X206123Y43024D01*
X208151Y44194D01*
X209806Y45849D01*
X210976Y47877D01*
X211582Y50138D01*
Y52478D01*
X210976Y54739D01*
X209806Y56767D01*
X208151Y58422D01*
X206123Y59592D01*
X203862Y60198D01*
D02*
G37*
G36*
X240538Y50038D02*
X231648D01*
Y41148D01*
X231716D01*
X234300Y41840D01*
X236616Y43178D01*
X238508Y45070D01*
X239846Y47386D01*
X240538Y49970D01*
Y50038D01*
D02*
G37*
G36*
X229108D02*
X220218D01*
Y49970D01*
X220910Y47386D01*
X222248Y45070D01*
X224140Y43178D01*
X226456Y41840D01*
X229040Y41148D01*
X229108D01*
Y50038D01*
D02*
G37*
G36*
X440178Y367030D02*
X438662D01*
X437262Y366450D01*
X436190Y365378D01*
X435610Y363978D01*
Y362462D01*
X436190Y361062D01*
X437262Y359990D01*
X438662Y359410D01*
X440178D01*
X441578Y359990D01*
X442650Y361062D01*
X443230Y362462D01*
Y363978D01*
X442650Y365378D01*
X441578Y366450D01*
X440178Y367030D01*
D02*
G37*
G36*
X407158Y358140D02*
X405642D01*
X404242Y357560D01*
X403170Y356488D01*
X402590Y355088D01*
Y353572D01*
X403170Y352172D01*
X403731Y351611D01*
X404125Y350357D01*
X403837Y348519D01*
X403424Y348106D01*
X402844Y346706D01*
Y345190D01*
X403424Y343790D01*
X404496Y342718D01*
X405896Y342138D01*
X407412D01*
X408812Y342718D01*
X409884Y343790D01*
X410464Y345190D01*
Y346706D01*
X409884Y348106D01*
X409323Y348667D01*
X408929Y349921D01*
X409217Y351759D01*
X409630Y352172D01*
X410210Y353572D01*
Y355088D01*
X409630Y356488D01*
X408558Y357560D01*
X407158Y358140D01*
D02*
G37*
G36*
X403348Y273050D02*
X401832D01*
X400432Y272470D01*
X399360Y271398D01*
X398780Y269998D01*
Y268482D01*
X399360Y267082D01*
X400153Y265430D01*
X399360Y263778D01*
X398780Y262378D01*
Y260862D01*
X399360Y259462D01*
X400153Y257810D01*
X399360Y256158D01*
X398780Y254758D01*
Y253242D01*
X399360Y251842D01*
X400432Y250770D01*
X401832Y250190D01*
X403348D01*
X404748Y250770D01*
X405820Y251842D01*
X406400Y253242D01*
Y254758D01*
X405820Y256158D01*
X405027Y257810D01*
X405820Y259462D01*
X406400Y260862D01*
Y262378D01*
X405820Y263778D01*
X405027Y265430D01*
X405820Y267082D01*
X406400Y268482D01*
Y269998D01*
X405820Y271398D01*
X404748Y272470D01*
X403348Y273050D01*
D02*
G37*
%LPD*%
D15*
X398526Y405130D02*
Y443230D01*
X168910Y679450D02*
Y781050D01*
X164410Y785550D02*
X168910Y781050D01*
Y679450D02*
X194310Y654050D01*
X191008Y668782D02*
X200660Y659130D01*
X191008Y766428D02*
X202510Y777930D01*
X191008Y668782D02*
Y766428D01*
X346202Y386588D02*
Y395986D01*
X234950Y424942D02*
Y547580D01*
X268732Y391160D02*
X311260D01*
X234950Y424942D02*
X268732Y391160D01*
X323850Y392104D02*
X339780Y376174D01*
X323850Y392104D02*
Y403980D01*
X328930Y394208D02*
Y403980D01*
X334010Y409060D01*
X318770D02*
X323850Y403980D01*
X391160Y387350D02*
X400050Y378460D01*
X431292D01*
X390652Y249936D02*
X404876Y235712D01*
X365324Y381254D02*
X390652Y355926D01*
X385572Y247832D02*
Y353822D01*
Y247832D02*
X402772Y230632D01*
X390652Y249936D02*
Y355926D01*
X363220Y376174D02*
X385572Y353822D01*
X391160Y387350D02*
Y443230D01*
X383540Y433324D02*
Y443230D01*
X346202Y395986D02*
X383540Y433324D01*
X87630Y590368D02*
Y610870D01*
X82550Y615950D02*
X87630Y610870D01*
X92710D02*
X97790Y615950D01*
X92710Y588264D02*
Y610870D01*
X73914Y569468D02*
X92710Y588264D01*
X68834Y571572D02*
X87630Y590368D01*
X139120Y370260D02*
Y382850D01*
X404135Y437533D02*
Y526775D01*
X339780Y376174D02*
X363220D01*
X328930Y394208D02*
X341884Y381254D01*
X365324D01*
X67722Y402844D02*
X85598Y420720D01*
X80518Y422824D02*
Y472876D01*
X65618Y407924D02*
X80518Y422824D01*
X60778Y407924D02*
X65618D01*
X85598Y420720D02*
Y474980D01*
X58674Y402844D02*
X67722D01*
X115570Y392430D02*
X129540D01*
X91440Y416560D02*
X115570Y392430D01*
X91440Y416560D02*
Y539750D01*
X171085Y408697D02*
X171207D01*
X166248Y403860D02*
X171085Y408697D01*
X156210Y408819D02*
Y408940D01*
Y408819D02*
X161168Y403860D01*
Y383081D02*
Y403860D01*
X166248Y385186D02*
Y403860D01*
X351790Y656590D02*
Y762254D01*
X313690Y624840D02*
X350084D01*
X358140Y616784D01*
Y589510D02*
X362964Y584686D01*
X368504D01*
X368990Y584200D01*
X358140Y589510D02*
Y616784D01*
X161168Y383081D02*
X178090Y366160D01*
X270510Y614680D02*
X274320Y618490D01*
X264160Y563880D02*
X270510Y570230D01*
Y614680D01*
X353060Y567690D02*
Y614680D01*
Y567690D02*
X363220Y557530D01*
X351790Y762254D02*
X390906Y801370D01*
X508000D01*
X401320Y666750D02*
Y714664D01*
X396240Y664646D02*
X410718Y650168D01*
X376010Y732790D02*
X396240Y712560D01*
Y664646D02*
Y712560D01*
X378114Y737870D02*
X401320Y714664D01*
X326390Y669290D02*
X339090Y656590D01*
X410718Y462208D02*
Y650168D01*
X415798Y464312D02*
Y652272D01*
X401320Y666750D02*
X415798Y652272D01*
X373906Y737870D02*
X378114D01*
X372418Y739358D02*
X373906Y737870D01*
X372110Y742950D02*
X372418Y742642D01*
Y728018D02*
Y731302D01*
X372110Y727710D02*
X372418Y728018D01*
Y739358D02*
Y742642D01*
X373906Y732790D02*
X376010D01*
X372418Y731302D02*
X373906Y732790D01*
X373380Y557530D02*
X404135Y526775D01*
Y437533D02*
X411138Y430530D01*
X415290D01*
X475560Y370260D01*
X525200D01*
X415798Y464312D02*
X485140Y394970D01*
X410718Y462208D02*
X483036Y389890D01*
X514350D01*
X485140Y394970D02*
X516454D01*
X491998Y403860D02*
X525852D01*
X489894Y398780D02*
X523748D01*
X422402Y466272D02*
Y551506D01*
Y466272D02*
X489894Y398780D01*
X427482Y468376D02*
Y549402D01*
Y468376D02*
X491998Y403860D01*
X363220Y557530D02*
X373380D01*
X80518Y564388D02*
X133350Y617220D01*
X80518Y550672D02*
X91440Y539750D01*
X80518Y550672D02*
Y564388D01*
X201676Y575310D02*
X207793D01*
X184150Y592836D02*
X201676Y575310D01*
X184150Y592836D02*
Y604520D01*
X34290Y675894D02*
X52324Y657860D01*
X34290Y675894D02*
Y760730D01*
X107950Y468122D02*
Y553720D01*
X227330Y679450D02*
X296744D01*
X330200Y712906D01*
X270510Y469138D02*
X288678Y450970D01*
X426720Y257810D02*
X441960Y242570D01*
X133350Y617220D02*
X262203D01*
X318770Y664210D02*
X326390Y656590D01*
X271780D02*
X276860D01*
X281940Y651510D01*
X262203Y617220D02*
X269337Y624354D01*
X275104D01*
X275590Y624840D01*
X255706Y659130D02*
X265866Y669290D01*
X257810Y654050D02*
X267970Y664210D01*
X200660Y659130D02*
X255706D01*
X194310Y654050D02*
X257810D01*
X265866Y669290D02*
X326390D01*
X295910Y656590D02*
X306070Y646430D01*
X288678Y450970D02*
X373380D01*
X251250Y563880D02*
X264160D01*
X52324Y657860D02*
X137160D01*
X234950Y547580D02*
X251250Y563880D01*
X141406Y450850D02*
X210820D01*
X56642Y242570D02*
X143510D01*
X426720Y257810D02*
Y260350D01*
X508000Y801370D02*
X523820Y785550D01*
X531550D01*
X267970Y664210D02*
X318770D01*
X306070Y623480D02*
Y646430D01*
X132770Y785550D02*
X164410D01*
X40640Y258572D02*
Y345440D01*
Y258572D02*
X56642Y242570D01*
X306070Y623480D02*
X311060Y618490D01*
X349250D01*
X426720Y260350D02*
Y345440D01*
X233680Y260350D02*
Y345440D01*
X251460Y242570D02*
X336550D01*
X129540Y392430D02*
X139120Y382850D01*
X233680Y260350D02*
X251460Y242570D01*
X281940Y622210D02*
Y651510D01*
X278220Y618490D02*
X281940Y622210D01*
X274320Y618490D02*
X278220D01*
X349250D02*
X353060Y614680D01*
X311260Y391160D02*
X332160Y370260D01*
X441960Y242570D02*
X529590D01*
X330200Y712906D02*
Y782320D01*
X450850Y657860D02*
X535940D01*
X433070Y675640D02*
X450850Y657860D01*
X433070Y675640D02*
Y760730D01*
X125222Y450850D02*
X141406D01*
X107950Y468122D02*
X125222Y450850D01*
X270510Y469138D02*
Y553840D01*
X124460Y285750D02*
X129540Y280670D01*
X149860D01*
X124460Y285750D02*
Y300990D01*
X118110Y313735D02*
Y316410D01*
X96520Y275590D02*
X114300D01*
X100330Y334190D02*
X118110Y316410D01*
X118110Y313735D02*
X118110Y313735D01*
X100330Y334190D02*
Y345440D01*
X60960Y262890D02*
X61050D01*
X71120Y272960D01*
Y373380D01*
X118110Y307340D02*
Y312420D01*
X80010Y292100D02*
X96520Y275590D01*
X80010Y292100D02*
X100330Y312420D01*
X104140D01*
X105410Y313690D01*
X111670D01*
X111760Y313780D01*
X118110Y307340D02*
X124460Y300990D01*
X93980Y351790D02*
X100330Y345440D01*
X73914Y486664D02*
X85598Y474980D01*
X68834Y484560D02*
Y571572D01*
Y484560D02*
X80518Y472876D01*
X73914Y486664D02*
Y569468D01*
X138430Y481240D02*
Y581660D01*
X128360Y471170D02*
X138430Y481240D01*
X128270Y471170D02*
X128360D01*
X147320Y500380D02*
X163830Y483870D01*
X147320Y500380D02*
X167640Y520700D01*
X163830Y483870D02*
X181610D01*
X172720Y521970D02*
X178980D01*
X167640Y520700D02*
X171450D01*
X172720Y521970D01*
X161290Y560070D02*
X167640Y553720D01*
Y542471D02*
Y553720D01*
X185420Y515620D02*
Y520700D01*
Y522015D02*
X185420Y522015D01*
X191770Y494030D02*
X196850Y488950D01*
X191770Y494030D02*
Y509270D01*
X185420Y515620D02*
X191770Y509270D01*
X185420Y522015D02*
Y524690D01*
X178980Y521970D02*
X179070Y522060D01*
X196850Y488950D02*
X217170D01*
X167640Y542471D02*
X185420Y524690D01*
X510540Y731700D02*
X510540Y731700D01*
X510540Y722630D02*
Y731700D01*
X347980Y515740D02*
Y524810D01*
Y515740D02*
X354330Y509390D01*
X290830Y471290D02*
X290920D01*
X300990Y481360D01*
Y581780D01*
X323850Y560190D02*
X330200Y553840D01*
Y542590D02*
Y553840D01*
Y520820D02*
X334010D01*
X335280Y522090D01*
X341540D01*
X330200Y542590D02*
X347980Y524810D01*
X341540Y522090D02*
X341630Y522180D01*
X309880Y500500D02*
X326390Y483990D01*
X309880Y500500D02*
X330200Y520820D01*
X326390Y483990D02*
X344170D01*
X354330Y494150D02*
Y509390D01*
Y494150D02*
X359410Y489070D01*
X379730D01*
X64770Y688250D02*
Y788670D01*
X54700Y678180D02*
X64770Y688250D01*
X54610Y678180D02*
X54700D01*
X118110Y701040D02*
Y716280D01*
X111760Y729025D02*
Y731700D01*
X123190Y695960D02*
X143510D01*
X118110Y701040D02*
X123190Y695960D01*
X93980Y749481D02*
Y760730D01*
X87630Y767080D02*
X93980Y760730D01*
X111760Y729025D02*
X111760Y729025D01*
X93980Y749481D02*
X111760Y731700D01*
X111760Y722630D02*
X118110Y716280D01*
X111760Y722630D02*
Y727710D01*
X105320Y728980D02*
X105410Y729070D01*
X99060Y728980D02*
X105320D01*
X97790Y727710D02*
X99060Y728980D01*
X93980Y727710D02*
X97790D01*
X73660Y707390D02*
X93980Y727710D01*
X73660Y707390D02*
X90170Y690880D01*
X107950D01*
X515620Y280670D02*
X535940D01*
X510540Y285750D02*
X515620Y280670D01*
X510540Y285750D02*
Y300990D01*
X457200Y272960D02*
Y373380D01*
X504190Y307340D02*
X510540Y300990D01*
X447040Y262890D02*
X447130D01*
X457200Y272960D01*
X486410Y312420D02*
X490220D01*
X482600Y275590D02*
X500380D01*
X466090Y292100D02*
X486410Y312420D01*
X466090Y292100D02*
X482600Y275590D01*
X486410Y334190D02*
X504190Y316410D01*
Y313735D02*
Y316410D01*
X504190Y313735D02*
X504190Y313735D01*
X497750Y313690D02*
X497840Y313780D01*
X504190Y307340D02*
Y312420D01*
X491490Y313690D02*
X497750D01*
X486410Y334190D02*
Y345440D01*
X490220Y312420D02*
X491490Y313690D01*
X480060Y351790D02*
X486410Y345440D01*
X199390Y709930D02*
X299810D01*
X309880Y699860D01*
Y699770D02*
Y699860D01*
X271780Y763270D02*
X287020D01*
X256360Y756920D02*
X259035D01*
X292100Y768350D02*
Y788670D01*
X287020Y763270D02*
X292100Y768350D01*
X227330Y739140D02*
X238580D01*
X220980Y732790D02*
X227330Y739140D01*
X259035Y756920D02*
X259035Y756920D01*
X238580Y739140D02*
X256360Y756920D01*
X265430Y756920D02*
X271780Y763270D01*
X260350Y756920D02*
X265430D01*
X258990Y750570D02*
X259080Y750480D01*
Y744220D02*
Y750480D01*
Y744220D02*
X260350Y742950D01*
Y739140D02*
Y742950D01*
Y739140D02*
X280670Y718820D01*
X297180Y735330D01*
Y753110D01*
X463550Y688250D02*
Y788670D01*
X453480Y678180D02*
X463550Y688250D01*
X453390Y678180D02*
X453480D01*
X516890Y701040D02*
Y716280D01*
X521970Y695960D02*
X542290D01*
X516890Y701040D02*
X521970Y695960D01*
X492760Y749481D02*
Y760730D01*
X486410Y767080D02*
X492760Y760730D01*
Y749481D02*
X510540Y731700D01*
X510540Y722630D02*
X516890Y716280D01*
X504100Y728980D02*
X504190Y729070D01*
X497840Y728980D02*
X504100D01*
X496570Y727710D02*
X497840Y728980D01*
X492760Y727710D02*
X496570D01*
X472440Y707390D02*
X492760Y727710D01*
X472440Y707390D02*
X488950Y690880D01*
X506730D01*
X264160Y272960D02*
Y373380D01*
X254090Y262890D02*
X264160Y272960D01*
X254000Y262890D02*
X254090D01*
X317500Y285750D02*
Y300990D01*
X311150Y313735D02*
Y316410D01*
X322580Y280670D02*
X342900D01*
X317500Y285750D02*
X322580Y280670D01*
X293370Y334190D02*
Y345440D01*
X287020Y351790D02*
X293370Y345440D01*
X311150Y313735D02*
X311150Y313735D01*
X293370Y334190D02*
X311150Y316410D01*
X311150Y307340D02*
X317500Y300990D01*
X311150Y307340D02*
Y312420D01*
X304710Y313690D02*
X304800Y313780D01*
X298450Y313690D02*
X304710D01*
X297180Y312420D02*
X298450Y313690D01*
X293370Y312420D02*
X297180D01*
X273050Y292100D02*
X293370Y312420D01*
X273050Y292100D02*
X289560Y275590D01*
X307340D01*
X20828Y372182D02*
X56570Y407924D01*
X58674Y402844D02*
X58674Y402844D01*
X60778Y407924D02*
X60778Y407924D01*
X56570Y407924D02*
X60778D01*
X25908Y370078D02*
X58674Y402844D01*
X25908Y200660D02*
Y370078D01*
X20828Y198556D02*
Y372182D01*
X387676Y114046D02*
X398018D01*
X438404Y154432D01*
X478354D01*
X509778Y185856D02*
Y210638D01*
X478354Y154432D02*
X509778Y185856D01*
X484704Y235712D02*
X509778Y210638D01*
X404876Y235712D02*
X484704D01*
X385572Y119126D02*
X395914D01*
X436300Y159512D01*
X476250D01*
X504698Y187960D02*
Y208534D01*
X476250Y159512D02*
X504698Y187960D01*
X482600Y230632D02*
X504698Y208534D01*
X402772Y230632D02*
X482600D01*
X377896Y91694D02*
X456256D01*
X454152Y96774D02*
X541020Y183642D01*
X375792Y96774D02*
X454152D01*
X371094Y84892D02*
X377896Y91694D01*
X456256D02*
X546100Y181538D01*
X366014Y86996D02*
X375792Y96774D01*
X411188Y58818D02*
X432888Y80518D01*
X462534Y85598D02*
X551688Y174752D01*
X432888Y80518D02*
X464638D01*
X556768Y172648D01*
X430784Y85598D02*
X462534D01*
X409084Y63898D02*
X430784Y85598D01*
X371094Y69513D02*
Y84892D01*
X360400Y58818D02*
X371094Y69513D01*
X366014Y71617D02*
Y86996D01*
X358296Y63898D02*
X366014Y71617D01*
X372110Y105664D02*
X385572Y119126D01*
X323397Y105664D02*
X372110D01*
X311023Y93290D02*
X323397Y105664D01*
X302924Y63898D02*
X311023Y71998D01*
Y93290D01*
X299331Y65386D02*
Y79494D01*
X299593Y79756D01*
X299331Y65386D02*
X300819Y63898D01*
X302924D01*
X374214Y100584D02*
X387676Y114046D01*
X325501Y100584D02*
X374214D01*
X316103Y91186D02*
X325501Y100584D01*
X298715Y58818D02*
X305028D01*
X316103Y69894D02*
Y91186D01*
X285750Y51308D02*
X294936Y60494D01*
X297040D01*
X298715Y58818D01*
X305028D02*
X316103Y69894D01*
X383877Y131462D02*
X385981D01*
X388086Y126382D02*
X427819Y166116D01*
X382389Y147058D02*
X382651Y147320D01*
X382389Y132950D02*
Y147058D01*
Y132950D02*
X383877Y131462D01*
X380098Y128058D02*
X381773Y126382D01*
X377994Y128058D02*
X380098D01*
X368808Y118872D02*
X377994Y128058D01*
X381773Y126382D02*
X388086D01*
X385981Y131462D02*
X425715Y171196D01*
X302260Y121014D02*
X303608Y122361D01*
X299331Y132950D02*
Y147058D01*
X302260Y112033D02*
Y121014D01*
X299331Y132950D02*
X303608Y128674D01*
X288017Y97790D02*
X302260Y112033D01*
X303608Y122361D02*
Y128674D01*
X187380Y97790D02*
X288017D01*
X299331Y147058D02*
X299593Y147320D01*
X172212Y112958D02*
Y129794D01*
Y112958D02*
X187380Y97790D01*
X147320Y154686D02*
X172212Y129794D01*
X55118Y196524D02*
X96956Y154686D01*
X147320D01*
X55118Y196524D02*
Y214956D01*
X75366Y235204D01*
X166878D01*
X178090Y246416D01*
Y366160D01*
X189484Y102870D02*
X285912D01*
X297180Y114138D01*
X298528Y124465D02*
Y126570D01*
X297040Y128058D02*
X298528Y126570D01*
X294936Y128058D02*
X297040D01*
X297180Y123118D02*
X298528Y124465D01*
X297180Y114138D02*
Y123118D01*
X285750Y118872D02*
X294936Y128058D01*
X177292Y115062D02*
X189484Y102870D01*
X177292Y115062D02*
Y131898D01*
X99060Y159766D02*
X149424D01*
X177292Y131898D01*
X60198Y198628D02*
X99060Y159766D01*
X60198Y198628D02*
Y212852D01*
X77470Y230124D01*
X168982D01*
X183170Y244312D01*
X166248Y385186D02*
X183170Y368264D01*
Y244312D02*
Y368264D01*
X20828Y198556D02*
X74676Y144708D01*
X25908Y200660D02*
X79756Y146812D01*
X473782Y577596D02*
X491490Y595304D01*
Y610870D01*
X496570Y615950D01*
X455676Y577596D02*
X473782D01*
X427482Y549402D02*
X455676Y577596D01*
X525852Y403860D02*
X556768Y372944D01*
Y172648D02*
Y372944D01*
X377994Y60494D02*
X380098D01*
X368808Y51308D02*
X377994Y60494D01*
X381773Y58818D02*
X411188D01*
X380098Y60494D02*
X381773Y58818D01*
X486410Y597408D02*
Y610870D01*
X471678Y582676D02*
X486410Y597408D01*
X481330Y615950D02*
X486410Y610870D01*
X422402Y551506D02*
X453572Y582676D01*
X471678D01*
X523748Y398780D02*
X551688Y370840D01*
Y174752D02*
Y370840D01*
X382389Y65386D02*
Y79494D01*
X383877Y63898D02*
X409084D01*
X382389Y79494D02*
X382651Y79756D01*
X382389Y65386D02*
X383877Y63898D01*
X516454Y394970D02*
X546100Y365324D01*
X514350Y389890D02*
X541020Y363220D01*
Y183642D02*
Y363220D01*
X546100Y181538D02*
Y365324D01*
X356191Y63898D02*
X358296D01*
X354087Y58818D02*
X360400D01*
X354703Y65386D02*
X356191Y63898D01*
X354703Y79494D02*
X354965Y79756D01*
X354703Y65386D02*
Y79494D01*
X341122Y51308D02*
X350308Y60494D01*
X352412D02*
X354087Y58818D01*
X350308Y60494D02*
X352412D01*
X324866Y55554D02*
X326214Y56901D01*
X324726Y60494D02*
X326214Y59006D01*
Y56901D02*
Y59006D01*
X309280Y30988D02*
X324866Y46574D01*
X311385Y25908D02*
X329946Y44469D01*
Y53450D01*
X331294Y54797D02*
Y61110D01*
X327017Y65386D02*
X331294Y61110D01*
X329946Y53450D02*
X331294Y54797D01*
X327017Y65386D02*
Y79494D01*
X313436Y51308D02*
X322622Y60494D01*
X324726D01*
X324866Y46574D02*
Y55554D01*
X182046Y25908D02*
X311385D01*
X327017Y79494D02*
X327279Y79756D01*
X184150Y30988D02*
X309280D01*
X127690Y80264D02*
X182046Y25908D01*
X107624Y80264D02*
X127690D01*
X74676Y113212D02*
X107624Y80264D01*
X74676Y113212D02*
Y144708D01*
X129794Y85344D02*
X184150Y30988D01*
X109728Y85344D02*
X129794D01*
X79756Y115316D02*
X109728Y85344D01*
X79756Y115316D02*
Y146812D01*
X343789Y137458D02*
Y154159D01*
X332714Y126382D02*
X343789Y137458D01*
X326401Y126382D02*
X332714D01*
X322622Y128058D02*
X324726D01*
X326401Y126382D01*
X313436Y118872D02*
X322622Y128058D01*
X322434Y175514D02*
X343789Y154159D01*
X113030Y175514D02*
X322434D01*
X99060Y189484D02*
X113030Y175514D01*
X99060Y189484D02*
Y195580D01*
X104140Y200660D01*
X110926Y170434D02*
X320329D01*
X330610Y131462D02*
X338709Y139562D01*
X327017Y147058D02*
X327279Y147320D01*
X327017Y132950D02*
Y147058D01*
Y132950D02*
X328505Y131462D01*
X330610D01*
X338709Y139562D02*
Y152054D01*
X320329Y170434D02*
X338709Y152054D01*
X93980Y187380D02*
X110926Y170434D01*
X93980Y187380D02*
Y195580D01*
X88900Y200660D02*
X93980Y195580D01*
X299304Y182372D02*
X336077D01*
X366395Y152054D01*
X301408Y187452D02*
X338182D01*
X292100Y196760D02*
X301408Y187452D01*
X338182D02*
X371475Y154159D01*
X287020Y194656D02*
X299304Y182372D01*
X354087Y126382D02*
X360400D01*
X352412Y128058D02*
X354087Y126382D01*
X360400D02*
X371475Y137458D01*
X350308Y128058D02*
X352412D01*
X371475Y137458D02*
Y154159D01*
X341122Y118872D02*
X350308Y128058D01*
X358296Y131462D02*
X366395Y139562D01*
X354703Y132950D02*
Y147058D01*
Y132950D02*
X356191Y131462D01*
X354703Y147058D02*
X354965Y147320D01*
X366395Y139562D02*
Y152054D01*
X356191Y131462D02*
X358296D01*
X287020Y194656D02*
Y198864D01*
X281940Y200660D02*
X282248Y200352D01*
X285532D01*
X287020Y198864D01*
X296872Y200352D02*
X297180Y200660D01*
X292100Y198864D02*
X293588Y200352D01*
X296872D01*
X292100Y196760D02*
Y198864D01*
X425715Y171196D02*
X466852D01*
X427819Y166116D02*
X468956D01*
X466852Y171196D02*
X480060Y184404D01*
Y195580D01*
X474980Y200660D02*
X480060Y195580D01*
X468956Y166116D02*
X485140Y182300D01*
Y195580D01*
X490220Y200660D01*
D25*
X541020Y617220D02*
D03*
X371856Y328422D02*
D03*
X383032Y407670D02*
D03*
D48*
X188849Y147320D02*
D03*
Y79756D02*
D03*
D54*
X404368Y575818D02*
Y576580D01*
X396777Y545563D02*
X398780Y543560D01*
X396777Y545563D02*
Y568227D01*
X404368Y575818D01*
D55*
X498230Y512920D02*
D03*
X491230D02*
D03*
X494730Y520420D02*
D03*
Y505420D02*
D03*
X491800Y554870D02*
D03*
X498800D02*
D03*
X495300Y562370D02*
D03*
Y547370D02*
D03*
X178308Y624586D02*
D03*
X431292Y378460D02*
D03*
X398526Y405130D02*
D03*
Y443230D02*
D03*
X416560Y435610D02*
D03*
X184658Y744220D02*
D03*
X176276D02*
D03*
X346202Y386588D02*
D03*
X371602Y354838D02*
D03*
Y346710D02*
D03*
X406654Y345948D02*
D03*
X406400Y354330D02*
D03*
X196088Y407416D02*
D03*
X243876Y427518D02*
D03*
X251460Y427482D02*
D03*
X217678Y407670D02*
D03*
X243332Y408940D02*
D03*
X318770Y409060D02*
D03*
X209804Y407670D02*
D03*
X188468Y407416D02*
D03*
X472440Y452120D02*
D03*
X478790Y435610D02*
D03*
Y427990D02*
D03*
X189933Y630510D02*
D03*
X39370Y572770D02*
D03*
X82550Y615950D02*
D03*
X97790D02*
D03*
X108712Y421386D02*
D03*
X106934Y429006D02*
D03*
Y435864D02*
D03*
X139120Y370260D02*
D03*
X409215Y451182D02*
D03*
X406400Y386334D02*
D03*
X156210Y408940D02*
D03*
X231902Y408686D02*
D03*
X236982Y408940D02*
D03*
X205740Y431800D02*
D03*
X464820Y459740D02*
D03*
X472440D02*
D03*
X373380Y628650D02*
D03*
X365760D02*
D03*
X381000D02*
D03*
X365760Y621030D02*
D03*
X351790Y656590D02*
D03*
X60960Y499110D02*
D03*
X468595Y389855D02*
D03*
X152400Y651510D02*
D03*
X313690Y624840D02*
D03*
X299720Y622300D02*
D03*
X377190Y669290D02*
D03*
X260350Y576700D02*
D03*
X316538Y589588D02*
D03*
X368990Y584200D02*
D03*
X325120Y589280D02*
D03*
X334010D02*
D03*
X344170D02*
D03*
X248920Y532130D02*
D03*
Y539750D02*
D03*
X197866Y589788D02*
D03*
X204285Y589777D02*
D03*
X275590Y586740D02*
D03*
X282702Y591820D02*
D03*
X377190Y676910D02*
D03*
X369570Y669290D02*
D03*
X339090Y656590D02*
D03*
X372110Y727710D02*
D03*
Y742950D02*
D03*
X399055Y473710D02*
D03*
X450850Y387350D02*
D03*
X443230D02*
D03*
X478755Y379695D02*
D03*
X473675Y384775D02*
D03*
X394970Y525780D02*
D03*
X398780Y543560D02*
D03*
X404397Y560332D02*
D03*
X59690Y270510D02*
D03*
X80010Y292100D02*
D03*
X111760Y313780D02*
D03*
X53340Y363220D02*
D03*
X60960Y262890D02*
D03*
X71120Y373380D02*
D03*
X143510Y242570D02*
D03*
X93980Y351790D02*
D03*
X149860Y280670D02*
D03*
X114300Y275590D02*
D03*
X40640Y345440D02*
D03*
X127000Y478790D02*
D03*
X210820Y450850D02*
D03*
X217170Y488950D02*
D03*
X181610Y483870D02*
D03*
X179070Y522060D02*
D03*
X107950Y553720D02*
D03*
X120650Y571500D02*
D03*
X138430Y581660D02*
D03*
X161290Y560070D02*
D03*
X147320Y500380D02*
D03*
X128270Y471170D02*
D03*
X434340Y488950D02*
D03*
X435610Y496570D02*
D03*
X405130Y568960D02*
D03*
X404368Y576580D02*
D03*
X425450Y588010D02*
D03*
Y595630D02*
D03*
X396240Y613410D02*
D03*
Y621030D02*
D03*
X425450Y604520D02*
D03*
Y612140D02*
D03*
X502920Y408940D02*
D03*
X492760Y420370D02*
D03*
X474980Y486410D02*
D03*
X472440Y474980D02*
D03*
X562610Y309880D02*
D03*
Y317500D02*
D03*
X235889Y626276D02*
D03*
X243840Y622300D02*
D03*
X157480Y712470D02*
D03*
X163830D02*
D03*
X162560Y673100D02*
D03*
X160020Y650240D02*
D03*
X54610Y491490D02*
D03*
X19050Y505460D02*
D03*
X11430D02*
D03*
X16510Y584200D02*
D03*
X31750Y572770D02*
D03*
X21590Y584200D02*
D03*
X326390Y656590D02*
D03*
X271780D02*
D03*
X252730Y270510D02*
D03*
X452120Y685800D02*
D03*
X302260Y698500D02*
D03*
X445770Y270510D02*
D03*
X12065Y677545D02*
D03*
Y669925D02*
D03*
Y662305D02*
D03*
X161290Y732790D02*
D03*
X153670D02*
D03*
X472440Y467360D02*
D03*
X248920Y803910D02*
D03*
X256540D02*
D03*
X558800Y732790D02*
D03*
Y725170D02*
D03*
X170180Y317500D02*
D03*
Y309880D02*
D03*
X13970Y269240D02*
D03*
Y261620D02*
D03*
Y254000D02*
D03*
X207010Y269240D02*
D03*
Y261620D02*
D03*
Y254000D02*
D03*
X356870Y317500D02*
D03*
X364490D02*
D03*
X219710Y195580D02*
D03*
X203200Y88900D02*
D03*
X53340Y685800D02*
D03*
X289560Y478910D02*
D03*
X402590Y269240D02*
D03*
Y261620D02*
D03*
Y254000D02*
D03*
X433070Y604520D02*
D03*
X394970Y518160D02*
D03*
X464820Y452120D02*
D03*
X538480Y406400D02*
D03*
X184150Y604520D02*
D03*
X227330Y589280D02*
D03*
X217170D02*
D03*
X207793Y575310D02*
D03*
X238760Y589280D02*
D03*
X243840Y581660D02*
D03*
X260350Y585470D02*
D03*
X306070Y306070D02*
D03*
X436880Y471170D02*
D03*
Y480060D02*
D03*
X256540Y622300D02*
D03*
X250190D02*
D03*
X256540Y628650D02*
D03*
X248920D02*
D03*
X275590Y624840D02*
D03*
X373380Y621030D02*
D03*
X388620Y613410D02*
D03*
Y621030D02*
D03*
X492760Y412750D02*
D03*
X381000Y621030D02*
D03*
X295910Y656590D02*
D03*
X391160Y443230D02*
D03*
X383540D02*
D03*
X212090Y624840D02*
D03*
X219710Y626110D02*
D03*
X227330D02*
D03*
X290830Y471290D02*
D03*
X270510Y553840D02*
D03*
X251460Y554410D02*
D03*
X260350Y555110D02*
D03*
X283210Y571620D02*
D03*
X300990Y581780D02*
D03*
X334010Y409060D02*
D03*
X373380Y450970D02*
D03*
X344170Y483990D02*
D03*
X379730Y489070D02*
D03*
X344170Y491490D02*
D03*
Y499110D02*
D03*
X309880Y500500D02*
D03*
X344170Y506730D02*
D03*
X339090Y509270D02*
D03*
X342900Y514350D02*
D03*
X341630Y522180D02*
D03*
X323850Y560190D02*
D03*
X500380Y283210D02*
D03*
Y290830D02*
D03*
Y297180D02*
D03*
X499110Y306070D02*
D03*
X495300Y300990D02*
D03*
X302260D02*
D03*
X307340Y298450D02*
D03*
Y290830D02*
D03*
Y283210D02*
D03*
X114300D02*
D03*
Y290830D02*
D03*
Y298450D02*
D03*
X113030Y306070D02*
D03*
X109220Y300990D02*
D03*
X176530Y509270D02*
D03*
X180340Y514350D02*
D03*
X182880Y506730D02*
D03*
X181610Y499110D02*
D03*
Y491490D02*
D03*
X501650Y718820D02*
D03*
X505460Y722630D02*
D03*
X506730Y715010D02*
D03*
Y699770D02*
D03*
X266700Y751840D02*
D03*
X274320Y753110D02*
D03*
X289560D02*
D03*
X270510Y748030D02*
D03*
X281940Y753110D02*
D03*
X107950Y698500D02*
D03*
Y713740D02*
D03*
X506730Y707390D02*
D03*
X102870Y717550D02*
D03*
X107950Y706120D02*
D03*
X106680Y722630D02*
D03*
X137160Y657860D02*
D03*
X34290Y760730D02*
D03*
X64770Y788670D02*
D03*
X54610Y678180D02*
D03*
X46990Y778510D02*
D03*
X143510Y695960D02*
D03*
X87630Y767080D02*
D03*
X105410Y729070D02*
D03*
X107950Y690880D02*
D03*
X73660Y707390D02*
D03*
X469317Y548640D02*
D03*
X440690Y588010D02*
D03*
X433070D02*
D03*
X440690Y595630D02*
D03*
X433070D02*
D03*
X541020Y601980D02*
D03*
X496570Y532130D02*
D03*
Y539750D02*
D03*
X481330Y615950D02*
D03*
X88900Y554990D02*
D03*
X209550Y683260D02*
D03*
Y674370D02*
D03*
X474980Y200660D02*
D03*
X97790Y554990D02*
D03*
X88900Y200660D02*
D03*
X132770Y785550D02*
D03*
X290830Y622300D02*
D03*
X414020Y762000D02*
D03*
X332160Y370260D02*
D03*
X447040Y262890D02*
D03*
X490220Y200660D02*
D03*
X466090Y292100D02*
D03*
X529590Y242570D02*
D03*
X535940Y280670D02*
D03*
X500380Y275590D02*
D03*
X480060Y351790D02*
D03*
X439420Y363220D02*
D03*
X497840Y313780D02*
D03*
X525200Y370260D02*
D03*
X426720Y345440D02*
D03*
X457200Y373380D02*
D03*
X171207Y408697D02*
D03*
X330200Y782320D02*
D03*
X227330Y679450D02*
D03*
X199390Y709930D02*
D03*
X309880Y699770D02*
D03*
X209550Y692150D02*
D03*
X202510Y777930D02*
D03*
X292100Y788670D02*
D03*
X220980Y732790D02*
D03*
X258990Y750570D02*
D03*
X297180Y753110D02*
D03*
X280670Y718820D02*
D03*
X535940Y657860D02*
D03*
X433070Y760730D02*
D03*
X496570Y615950D02*
D03*
X463550Y788670D02*
D03*
X453390Y678180D02*
D03*
X422910Y762000D02*
D03*
X445770Y778510D02*
D03*
X531550Y785550D02*
D03*
X542290Y695960D02*
D03*
X486410Y767080D02*
D03*
X504190Y729070D02*
D03*
X506730Y690880D02*
D03*
X472440Y707390D02*
D03*
X15240Y762000D02*
D03*
X24130D02*
D03*
X104140Y200660D02*
D03*
X336550Y242570D02*
D03*
X233680Y345440D02*
D03*
X297180Y200660D02*
D03*
X264160Y373380D02*
D03*
X254000Y262890D02*
D03*
X281940Y200660D02*
D03*
X246380Y363220D02*
D03*
X342900Y280670D02*
D03*
X287020Y351790D02*
D03*
X304800Y313780D02*
D03*
X307340Y275590D02*
D03*
X273050Y292100D02*
D03*
D56*
X119126Y51308D02*
D03*
X452374D02*
D03*
X119126Y131318D02*
D03*
X452374D02*
D03*
D57*
X527050Y444500D02*
D03*
X44450D02*
D03*
X527050Y63500D02*
D03*
X44450D02*
D03*
D58*
X382651Y147320D02*
D03*
X368808Y118872D02*
D03*
X354965Y147320D02*
D03*
X341122Y118872D02*
D03*
X327279Y147320D02*
D03*
X313436Y118872D02*
D03*
X299593Y147320D02*
D03*
X285750Y118872D02*
D03*
X271907Y147320D02*
D03*
X258064Y118872D02*
D03*
X244221Y147320D02*
D03*
X230378Y118872D02*
D03*
X216535Y147320D02*
D03*
X202692Y118872D02*
D03*
X382651Y79756D02*
D03*
X368808Y51308D02*
D03*
X354965Y79756D02*
D03*
X341122Y51308D02*
D03*
X327279Y79756D02*
D03*
X313436Y51308D02*
D03*
X299593Y79756D02*
D03*
X285750Y51308D02*
D03*
X271907Y79756D02*
D03*
X258064Y51308D02*
D03*
X244221Y79756D02*
D03*
X230378Y51308D02*
D03*
X216535Y79756D02*
D03*
X202692Y51308D02*
D03*
M02*
