G04*
G04 #@! TF.GenerationSoftware,Altium Limited,Altium Designer,25.2.1 (25)*
G04*
G04 Layer_Physical_Order=4*
G04 Layer_Color=16711680*
%FSLAX44Y44*%
%MOMM*%
G71*
G04*
G04 #@! TF.SameCoordinates,2E8F3C69-5834-473F-A2B3-8F5DD2D09B02*
G04*
G04*
G04 #@! TF.FilePolarity,Positive*
G04*
G01*
G75*
%ADD12C,0.5080*%
%ADD15C,0.2540*%
G04:AMPARAMS|DCode=17|XSize=0.81mm|YSize=0.27mm|CornerRadius=0.0338mm|HoleSize=0mm|Usage=FLASHONLY|Rotation=0.000|XOffset=0mm|YOffset=0mm|HoleType=Round|Shape=RoundedRectangle|*
%AMROUNDEDRECTD17*
21,1,0.8100,0.2025,0,0,0.0*
21,1,0.7425,0.2700,0,0,0.0*
1,1,0.0675,0.3713,-0.1013*
1,1,0.0675,-0.3713,-0.1013*
1,1,0.0675,-0.3713,0.1013*
1,1,0.0675,0.3713,0.1013*
%
%ADD17ROUNDEDRECTD17*%
%ADD18O,0.4500X1.8000*%
%ADD19O,1.8000X0.4500*%
%ADD20C,0.7620*%
%ADD21R,0.9300X0.7900*%
%ADD22R,0.7900X0.9300*%
%ADD23R,0.9000X0.7500*%
%ADD25R,0.9500X1.0000*%
%ADD26R,1.4400X1.8200*%
%ADD27R,1.8200X1.4400*%
%ADD28R,1.0000X0.9500*%
%ADD42C,1.7018*%
%ADD46R,1.2000X2.0000*%
%ADD47C,0.7620*%
%ADD48C,0.3000*%
%ADD49C,3.0480*%
%ADD50C,6.3500*%
%ADD51C,0.5080*%
%ADD52C,0.3810*%
%ADD54R,0.4000X1.6000*%
G36*
X571500Y0D02*
X485980D01*
X485609Y173D01*
X485307Y364D01*
X483975Y1796D01*
Y163301D01*
X483974Y163302D01*
X483975Y163303D01*
X483774Y163784D01*
X483572Y164273D01*
X483571Y164273D01*
X483571Y164275D01*
X481772Y166068D01*
X481770Y166068D01*
X481770Y166069D01*
X481277Y166272D01*
X480799Y166469D01*
X480798Y166468D01*
X480797Y166469D01*
X301122Y165889D01*
X300146Y168234D01*
X301992Y170081D01*
X336550D01*
X338532Y170475D01*
X340213Y171597D01*
X387202Y218587D01*
X388325Y220268D01*
X388719Y222250D01*
Y343634D01*
X389743Y344318D01*
X428865Y383441D01*
X442343D01*
X443278Y380900D01*
X437589Y375211D01*
X437027Y374371D01*
X436830Y373380D01*
Y366018D01*
X436190Y365378D01*
X435610Y363978D01*
Y362462D01*
X436190Y361062D01*
X437262Y359990D01*
X438662Y359410D01*
X440178D01*
X441578Y359990D01*
X442650Y361062D01*
X443230Y362462D01*
Y363978D01*
X442650Y365378D01*
X442010Y366018D01*
Y372307D01*
X446843Y377140D01*
X452094D01*
X452382Y376894D01*
X453582Y374600D01*
X453390Y374138D01*
Y372622D01*
X453970Y371222D01*
X455042Y370150D01*
X456442Y369570D01*
X457958D01*
X459358Y370150D01*
X460430Y371222D01*
X461010Y372622D01*
Y373745D01*
X462074Y374525D01*
X463357Y374991D01*
X469907Y368440D01*
X468855Y365900D01*
X465830D01*
Y363270D01*
X459890D01*
Y365900D01*
X448050D01*
Y355460D01*
X459890D01*
Y358090D01*
X465830D01*
Y355460D01*
X474916D01*
X475104Y355312D01*
X476404Y352920D01*
X476250Y352548D01*
Y351032D01*
X474135Y349500D01*
X465830D01*
Y339060D01*
X469040D01*
Y335640D01*
X465440D01*
X465360Y335640D01*
X462900D01*
X462820Y335640D01*
X459220D01*
Y339060D01*
X459890D01*
Y349500D01*
X448050D01*
Y339060D01*
X454040D01*
Y335640D01*
X450360D01*
Y335640D01*
X448077Y334694D01*
X443669Y339101D01*
X442829Y339663D01*
X441838Y339860D01*
X435963D01*
X430530Y345293D01*
Y346198D01*
X429950Y347598D01*
X428878Y348670D01*
X427478Y349250D01*
X425962D01*
X424562Y348670D01*
X423490Y347598D01*
X420597Y347251D01*
X420363Y347485D01*
X419790Y348868D01*
X418718Y349940D01*
X417318Y350520D01*
X415802D01*
X414402Y349940D01*
X413556Y349094D01*
X412115Y348971D01*
X410674Y349094D01*
X409828Y349940D01*
X408428Y350520D01*
X406912D01*
X405512Y349940D01*
X404440Y348868D01*
X403860Y347468D01*
Y345952D01*
X404440Y344552D01*
X405512Y343480D01*
X406741Y342971D01*
X411878Y337834D01*
Y331555D01*
X411910Y331392D01*
Y324290D01*
X423750D01*
Y331350D01*
X426290Y332402D01*
X429426Y329266D01*
X429690Y329090D01*
Y324290D01*
X441530D01*
Y330597D01*
X443877Y331569D01*
X447657Y327789D01*
X448497Y327227D01*
X449488Y327030D01*
X450360D01*
Y323600D01*
X462820D01*
X462900Y323600D01*
X465360D01*
X465440Y323600D01*
X469040D01*
Y319110D01*
X469146Y318581D01*
X469221Y318087D01*
X468764Y317210D01*
X467818Y315780D01*
X466962Y315208D01*
X466184Y314043D01*
X465911Y312670D01*
Y299170D01*
X465987Y298789D01*
X464745Y297547D01*
X464183Y296707D01*
X463986Y295716D01*
Y295352D01*
X463932Y295330D01*
X462860Y294258D01*
X462280Y292858D01*
Y291342D01*
X462860Y289942D01*
X463932Y288870D01*
X463720Y286208D01*
X455846Y278334D01*
X453359D01*
X452360Y280460D01*
X452360Y280874D01*
Y301200D01*
X438200D01*
Y307890D01*
X441530D01*
Y318330D01*
X429690D01*
Y307890D01*
X433020D01*
Y299110D01*
X433217Y298119D01*
X433779Y297279D01*
X435420Y295637D01*
Y280460D01*
X435475D01*
X436475Y278150D01*
X435155Y276530D01*
X426760D01*
X426680Y276530D01*
X424220D01*
X424140Y276530D01*
X420540D01*
Y280460D01*
X425640D01*
Y301200D01*
X420420D01*
Y307890D01*
X423750D01*
Y318330D01*
X411910D01*
Y307890D01*
X415240D01*
Y301200D01*
X408700D01*
Y280460D01*
X415360D01*
Y276530D01*
X411680D01*
Y264490D01*
X413970D01*
Y259800D01*
X410640D01*
Y249360D01*
X422480D01*
Y259800D01*
X419150D01*
Y264490D01*
X424140D01*
X424220Y264490D01*
X426680D01*
X426760Y264490D01*
X431750D01*
Y259800D01*
X428420D01*
Y249360D01*
X440260D01*
Y259800D01*
X436930D01*
Y264490D01*
X439220D01*
Y273118D01*
X445721Y279619D01*
X446283Y280459D01*
X446283Y280460D01*
X449266D01*
X449676Y279185D01*
X449689Y277920D01*
X449173Y277575D01*
X445918Y274320D01*
X445012D01*
X443612Y273740D01*
X442540Y272668D01*
X441960Y271268D01*
Y269752D01*
X442540Y268352D01*
X443612Y267280D01*
X443810Y265048D01*
X443230Y263648D01*
Y262132D01*
X443810Y260732D01*
X444882Y259660D01*
X446282Y259080D01*
X447188D01*
X453920Y252347D01*
Y248010D01*
X450240D01*
Y239130D01*
X450187Y239051D01*
X449990Y238060D01*
Y232550D01*
X446660D01*
Y222110D01*
X458500D01*
Y232550D01*
X455170D01*
Y235970D01*
X462700D01*
X462780Y235970D01*
X465240D01*
X467770Y235754D01*
Y232550D01*
X464440D01*
Y222110D01*
X476280D01*
Y232550D01*
X472950D01*
Y235970D01*
X477780D01*
Y244597D01*
X479450Y246268D01*
X481990Y245215D01*
Y235970D01*
X486820D01*
Y232550D01*
X483490D01*
Y222110D01*
X495330D01*
Y232550D01*
X492000D01*
Y235946D01*
X494530Y235970D01*
X496990D01*
Y235970D01*
X497070Y235970D01*
X504600D01*
Y232550D01*
X501270D01*
Y222110D01*
X513110D01*
Y232550D01*
X509780D01*
Y238060D01*
X512103Y239400D01*
X527372D01*
X527432Y239340D01*
X528832Y238760D01*
X530348D01*
X531748Y239340D01*
X532820Y240412D01*
X533400Y241812D01*
Y243328D01*
X532820Y244728D01*
X531748Y245800D01*
X530348Y246380D01*
X528832D01*
X527432Y245800D01*
X526360Y244728D01*
X526298Y244580D01*
X509530D01*
Y248010D01*
X501143D01*
X492405Y256747D01*
X492589Y257670D01*
Y271170D01*
X492404Y272100D01*
X493274Y273759D01*
X493970Y274640D01*
X496650D01*
X497150Y273432D01*
X498222Y272360D01*
X499622Y271780D01*
X501138D01*
X502538Y272360D01*
X502680Y272502D01*
X505220Y271450D01*
Y252520D01*
X522160D01*
Y273260D01*
X517996D01*
X517181Y274650D01*
X518558Y277190D01*
X521850D01*
Y284480D01*
X526930D01*
Y277190D01*
X530713D01*
X531930Y277190D01*
X532109Y277188D01*
X532204Y277070D01*
X530994Y274530D01*
X530670D01*
Y265430D01*
X537870D01*
Y274530D01*
X537710D01*
X537205Y277070D01*
X538098Y277440D01*
X539170Y278512D01*
X539750Y279912D01*
Y281428D01*
X539170Y282828D01*
X538098Y283900D01*
X536698Y284480D01*
X535182D01*
X534470Y284185D01*
X532506Y285099D01*
X531930Y285640D01*
X531930Y291770D01*
X532710Y292036D01*
Y297180D01*
X528760D01*
Y294310D01*
X528760Y292530D01*
X526535Y291770D01*
X525301D01*
X524070Y293800D01*
X524070Y294310D01*
Y305640D01*
X521440D01*
Y311580D01*
X524070D01*
Y323420D01*
X513630D01*
Y320090D01*
X504075D01*
X502844Y322630D01*
X503610Y323600D01*
X509650D01*
Y335640D01*
X505970D01*
Y339060D01*
X513230D01*
Y340740D01*
X519887D01*
X519980Y340648D01*
Y333170D01*
X530420D01*
Y343015D01*
X532960Y344067D01*
X536380Y340648D01*
Y333170D01*
X546820D01*
Y345010D01*
X544190D01*
Y350950D01*
X546820D01*
Y362790D01*
X536380D01*
Y351565D01*
X534149Y350203D01*
X534111Y350241D01*
X533271Y350803D01*
X532280Y351000D01*
X530420D01*
Y362790D01*
X527790D01*
Y367462D01*
X528430Y368102D01*
X529010Y369502D01*
Y371018D01*
X528430Y372418D01*
X527358Y373490D01*
X525958Y374070D01*
X524442D01*
X523042Y373490D01*
X521970Y372418D01*
X521390Y371018D01*
Y369502D01*
X521970Y368102D01*
X522610Y367462D01*
Y362790D01*
X519980D01*
X519480Y365123D01*
Y365760D01*
X519283Y366751D01*
X518721Y367591D01*
X516041Y370271D01*
X515201Y370833D01*
X514210Y371030D01*
X474643D01*
X464772Y380900D01*
X465706Y383441D01*
X474980D01*
X476962Y383835D01*
X478643Y384958D01*
X490073Y396387D01*
X491195Y398068D01*
X491590Y400050D01*
Y441073D01*
X494129Y441273D01*
X494843Y436768D01*
X496449Y431825D01*
X498809Y427194D01*
X501864Y422989D01*
X505539Y419314D01*
X509744Y416259D01*
X514375Y413899D01*
X519318Y412293D01*
X524451Y411480D01*
X529649D01*
X534782Y412293D01*
X539725Y413899D01*
X544356Y416259D01*
X548561Y419314D01*
X552236Y422989D01*
X555291Y427194D01*
X557651Y431825D01*
X559257Y436768D01*
X560070Y441901D01*
Y447099D01*
X559257Y452232D01*
X557651Y457175D01*
X555291Y461806D01*
X552236Y466011D01*
X548561Y469686D01*
X544356Y472741D01*
X539725Y475101D01*
X534782Y476707D01*
X529649Y477520D01*
X524451D01*
X519318Y476707D01*
X514375Y475101D01*
X509744Y472741D01*
X505539Y469686D01*
X501864Y466011D01*
X498809Y461806D01*
X496449Y457175D01*
X494843Y452232D01*
X494129Y447727D01*
X491590Y447927D01*
Y455930D01*
Y472835D01*
X499985Y481231D01*
X520700D01*
X522682Y481625D01*
X524362Y482747D01*
X547792Y506177D01*
X547793Y506177D01*
X548915Y507858D01*
X549310Y509840D01*
X549310Y509840D01*
Y532620D01*
X549900D01*
Y542660D01*
X544932D01*
X544130Y542820D01*
X543328Y542660D01*
X538360D01*
Y532620D01*
X538951D01*
Y511985D01*
X518555Y491590D01*
X497840D01*
X495858Y491195D01*
X494178Y490073D01*
X482747Y478643D01*
X481625Y476962D01*
X481231Y474980D01*
Y461110D01*
X477520D01*
X477520Y461110D01*
X475538Y460715D01*
X473857Y459593D01*
X472588Y458322D01*
X471465Y456642D01*
X471071Y454660D01*
X471465Y452678D01*
X472588Y450998D01*
X474268Y449875D01*
X476250Y449481D01*
X478232Y449875D01*
X478690Y450181D01*
X481231Y449053D01*
Y402195D01*
X472835Y393800D01*
X426720D01*
X424738Y393405D01*
X423353Y392480D01*
X411283D01*
X400100Y403663D01*
Y408324D01*
X400388Y408443D01*
X401817Y409872D01*
X402590Y411740D01*
Y413760D01*
X401817Y415628D01*
X400388Y417057D01*
X398521Y417830D01*
X396499D01*
X394632Y417057D01*
X393203Y415628D01*
X392430Y413760D01*
Y411740D01*
X393203Y409872D01*
X394632Y408443D01*
X394920Y408324D01*
Y402590D01*
X395117Y401599D01*
X395679Y400759D01*
X408379Y388059D01*
X409219Y387497D01*
X410210Y387300D01*
X414757D01*
X415729Y384954D01*
X382417Y351642D01*
X382268Y351419D01*
X381558Y351277D01*
X379878Y350155D01*
X378755Y348474D01*
X378360Y346492D01*
Y224395D01*
X334405Y180439D01*
X299847D01*
X297865Y180045D01*
X296185Y178923D01*
X277930Y160668D01*
X275390Y161720D01*
Y172390D01*
X262850D01*
Y172390D01*
X260390D01*
Y172390D01*
X247850D01*
Y163762D01*
X246050Y161963D01*
X243510Y163015D01*
Y172680D01*
X243510Y172760D01*
Y175220D01*
X243510Y175300D01*
Y187760D01*
X240080D01*
Y189230D01*
X239883Y190221D01*
X239321Y191061D01*
X232971Y197411D01*
X232131Y197973D01*
X231140Y198170D01*
X222508D01*
X221868Y198810D01*
X220468Y199390D01*
X218952D01*
X217552Y198810D01*
X216480Y197738D01*
X215900Y196338D01*
Y194822D01*
X216480Y193422D01*
X217552Y192350D01*
X218952Y191770D01*
X220468D01*
X221868Y192350D01*
X222508Y192990D01*
X230067D01*
X232757Y190300D01*
X231705Y187760D01*
X231470D01*
Y175300D01*
X231470Y175220D01*
Y172760D01*
X231470Y172680D01*
Y169080D01*
X225510D01*
Y172290D01*
X222180D01*
Y175590D01*
X225860D01*
Y187630D01*
X214144Y187630D01*
X212130Y188900D01*
X211306Y188900D01*
X207130D01*
Y181610D01*
X204590D01*
Y179070D01*
X197050D01*
Y174320D01*
X197439D01*
X198670Y172290D01*
X198670Y171780D01*
Y166642D01*
X197772Y166003D01*
X196130Y165330D01*
X196080Y165351D01*
X195599Y165549D01*
X195598Y165548D01*
X195597Y165549D01*
X88896Y165205D01*
X88412Y165003D01*
X87928Y164802D01*
X87927Y164800D01*
X87925Y164799D01*
X87726Y164315D01*
X87525Y163830D01*
Y1270D01*
X85302Y0D01*
X0D01*
Y812800D01*
X571500D01*
Y0D01*
D02*
G37*
G36*
X501390Y355460D02*
X513230D01*
X514300Y353363D01*
Y351597D01*
X513956Y350922D01*
X512143Y349500D01*
X501390D01*
Y341944D01*
X500987Y341341D01*
X500790Y340350D01*
Y335640D01*
X497190D01*
X497110Y335640D01*
Y335640D01*
X494650D01*
Y335640D01*
X490970D01*
Y339060D01*
X495450D01*
Y349500D01*
X485985D01*
X483870Y351032D01*
X483870Y352548D01*
X483716Y352920D01*
X485016Y355312D01*
X485204Y355460D01*
X495450D01*
Y358090D01*
X501390D01*
Y355460D01*
D02*
G37*
G36*
X513630Y311580D02*
X516260D01*
Y305640D01*
X513630D01*
Y298162D01*
X507559Y292091D01*
X506997Y291251D01*
X506848Y290500D01*
X503120D01*
Y281328D01*
X501138Y279400D01*
X500064Y279400D01*
X499731Y279623D01*
X498740Y279820D01*
X479990D01*
X478999Y279623D01*
X478159Y279061D01*
X475092Y275995D01*
X474320Y275499D01*
X472040Y275405D01*
Y264420D01*
Y253606D01*
X472953Y254217D01*
X473533Y255085D01*
X474627Y254354D01*
X476000Y254081D01*
X476432Y254167D01*
X477684Y251826D01*
X473867Y248010D01*
X465320D01*
X465240Y248010D01*
X462780D01*
X462700Y248010D01*
X459100D01*
Y253420D01*
X458903Y254411D01*
X458341Y255251D01*
X450850Y262743D01*
Y263648D01*
X450270Y265048D01*
X449198Y266120D01*
X449000Y268352D01*
X449580Y269752D01*
Y270658D01*
X452077Y273155D01*
X456918D01*
X457910Y273352D01*
X458750Y273913D01*
X475357Y290520D01*
X485010D01*
X486001Y290717D01*
X486841Y291279D01*
X490456Y294894D01*
X491018Y295734D01*
X491144Y296369D01*
X491538Y296632D01*
X492316Y297797D01*
X492589Y299170D01*
Y310324D01*
X492716Y310406D01*
X495129Y311103D01*
X495682Y310550D01*
X497082Y309970D01*
X498598D01*
X499998Y310550D01*
X501070Y311622D01*
X501650Y313022D01*
Y313240D01*
X503320Y314910D01*
X513630D01*
Y311580D01*
D02*
G37*
G36*
X206430Y159180D02*
X210380D01*
Y164222D01*
X213271Y164231D01*
X215070Y162438D01*
Y160450D01*
X221847D01*
X234039Y148259D01*
X234442Y147989D01*
Y146033D01*
X235108Y143546D01*
X236396Y141316D01*
X238217Y139495D01*
X240446Y138207D01*
X242934Y137541D01*
X245508D01*
X247995Y138207D01*
X250225Y139495D01*
X252046Y141316D01*
X253334Y143546D01*
X254000Y146033D01*
Y148607D01*
X253334Y151095D01*
X252046Y153324D01*
X250225Y155145D01*
X249581Y155517D01*
Y158168D01*
X251763Y160350D01*
X260310D01*
X260390Y160350D01*
Y160350D01*
X262850D01*
Y160350D01*
X269317D01*
Y156750D01*
X268132Y156433D01*
X265903Y155145D01*
X264082Y153324D01*
X262794Y151095D01*
X262128Y148607D01*
Y146033D01*
X262794Y143546D01*
X264082Y141316D01*
X265903Y139495D01*
X266728Y139019D01*
Y127630D01*
X264188Y126578D01*
X264068Y126697D01*
X261838Y127985D01*
X259351Y128651D01*
X256777D01*
X254289Y127985D01*
X252060Y126697D01*
X250239Y124876D01*
X248951Y122647D01*
X248285Y120159D01*
Y119738D01*
X245745D01*
X244754Y119541D01*
X243914Y118979D01*
X242697Y117762D01*
X240157Y118814D01*
Y120159D01*
X239491Y122647D01*
X238203Y124876D01*
X236382Y126697D01*
X234153Y127985D01*
X231665Y128651D01*
X229091D01*
X226604Y127985D01*
X225541Y127371D01*
X217885Y135027D01*
X217872Y135568D01*
X218722Y137782D01*
X220310Y138207D01*
X222539Y139495D01*
X224360Y141316D01*
X225648Y143546D01*
X226314Y146033D01*
Y148607D01*
X225648Y151095D01*
X224360Y153324D01*
X222539Y155145D01*
X220310Y156433D01*
X217822Y157099D01*
X215248D01*
X212761Y156433D01*
X210531Y155145D01*
X208710Y153324D01*
X207422Y151095D01*
X206756Y148607D01*
Y146033D01*
X207422Y143546D01*
X208710Y141316D01*
X210276Y139750D01*
X210121Y138661D01*
X209408Y137210D01*
X198120D01*
X197129Y137013D01*
X196289Y136451D01*
X191417Y131580D01*
X185560D01*
X185310Y131530D01*
X176960D01*
Y121090D01*
X188800D01*
Y126400D01*
X192490D01*
X193000Y126502D01*
X193640Y125944D01*
X194175Y125262D01*
X194608Y124429D01*
X193579Y122647D01*
X192913Y120159D01*
Y117585D01*
X193579Y115098D01*
X194867Y112868D01*
X196688Y111047D01*
X198549Y109972D01*
X198865Y108275D01*
X198829Y107241D01*
X185617Y94030D01*
X179790D01*
Y97360D01*
X169350D01*
Y85520D01*
X177952D01*
X178761Y84618D01*
X179589Y82980D01*
X179070Y81043D01*
Y78469D01*
X179736Y75981D01*
X181024Y73752D01*
X182845Y71931D01*
X185075Y70643D01*
X187562Y69977D01*
X190136D01*
X192624Y70643D01*
X194853Y71931D01*
X196674Y73752D01*
X197962Y75981D01*
X198628Y78469D01*
Y81043D01*
X197962Y83531D01*
X196674Y85760D01*
X194853Y87581D01*
X192624Y88869D01*
X191637Y89133D01*
X190878Y91966D01*
X201733Y102820D01*
X208596D01*
X209310Y102738D01*
X210193Y100079D01*
X209224Y99110D01*
X208280D01*
X207289Y98913D01*
X206449Y98351D01*
X201855Y93757D01*
X201293Y92917D01*
X201145Y92173D01*
X201042Y92130D01*
X199970Y91058D01*
X199390Y89658D01*
Y88142D01*
X199970Y86742D01*
X201042Y85670D01*
X202442Y85090D01*
X203958D01*
X204656Y85379D01*
X206981Y84711D01*
X207616Y84336D01*
X207708Y84025D01*
X207422Y83531D01*
X206756Y81043D01*
Y78469D01*
X207422Y75981D01*
X208710Y73752D01*
X210531Y71931D01*
X212761Y70643D01*
X215248Y69977D01*
X217822D01*
X219339Y70383D01*
X220653Y68106D01*
X214069Y61521D01*
X213507Y60681D01*
X213310Y59690D01*
Y57555D01*
X210770Y56874D01*
X210517Y57312D01*
X208696Y59133D01*
X206467Y60421D01*
X203979Y61087D01*
X201405D01*
X198918Y60421D01*
X196688Y59133D01*
X194867Y57312D01*
X193579Y55083D01*
X192913Y52595D01*
Y50021D01*
X193579Y47533D01*
X194867Y45304D01*
X196688Y43483D01*
X198918Y42195D01*
X201369Y41539D01*
X201911Y41211D01*
X203400Y40275D01*
X203400Y38989D01*
Y28780D01*
X203400Y28399D01*
X202480Y26240D01*
X202480Y26111D01*
Y21590D01*
X208970D01*
Y19050D01*
D01*
Y21590D01*
X215460D01*
X215460Y25929D01*
X215940Y28270D01*
X218400D01*
Y28270D01*
X222780D01*
Y24970D01*
X220150D01*
Y13130D01*
X230590D01*
Y24970D01*
X227960D01*
Y28270D01*
X230940D01*
Y36648D01*
X232209Y37917D01*
X232771Y38757D01*
X232968Y39748D01*
Y41878D01*
X234153Y42195D01*
X236382Y43483D01*
X238203Y45304D01*
X239091Y46842D01*
X241631Y46161D01*
Y40090D01*
X237920D01*
Y29650D01*
X249760D01*
Y40090D01*
X246811D01*
Y46161D01*
X249351Y46842D01*
X250239Y45304D01*
X252060Y43483D01*
X254289Y42195D01*
X255650Y41831D01*
Y37550D01*
X255700Y37300D01*
Y29650D01*
X267540D01*
Y40090D01*
X263272D01*
X262591Y42630D01*
X264068Y43483D01*
X265889Y45304D01*
X267177Y47533D01*
X267843Y50021D01*
Y52595D01*
X267177Y55083D01*
X265889Y57312D01*
X264068Y59133D01*
X261838Y60421D01*
X259351Y61087D01*
X256777D01*
X254289Y60421D01*
X252060Y59133D01*
X250239Y57312D01*
X249351Y55774D01*
X246811Y56455D01*
Y70326D01*
X247995Y70643D01*
X250225Y71931D01*
X252046Y73752D01*
X253334Y75981D01*
X254000Y78469D01*
Y81043D01*
X253334Y83531D01*
X252046Y85760D01*
X250225Y87581D01*
X249569Y87960D01*
X249607Y90500D01*
X256500D01*
X256580Y90500D01*
X259040D01*
X259120Y90500D01*
X262720D01*
Y87960D01*
X262917Y86969D01*
X263479Y86129D01*
X263996Y85612D01*
X262794Y83531D01*
X262128Y81043D01*
Y78469D01*
X262794Y75981D01*
X264082Y73752D01*
X265903Y71931D01*
X268132Y70643D01*
X270620Y69977D01*
X273194D01*
X275681Y70643D01*
X277911Y71931D01*
X279732Y73752D01*
X281020Y75981D01*
X281686Y78469D01*
Y81043D01*
X281020Y83531D01*
X279732Y85760D01*
X277911Y87581D01*
X277087Y88057D01*
Y110114D01*
X279627Y111166D01*
X279746Y111047D01*
X281975Y109759D01*
X284463Y109093D01*
X287037D01*
X289524Y109759D01*
X291754Y111047D01*
X293575Y112868D01*
X294863Y115098D01*
X295529Y117585D01*
Y120159D01*
X294863Y122647D01*
X293575Y124876D01*
X291754Y126697D01*
X289524Y127985D01*
X287037Y128651D01*
X284463D01*
X281975Y127985D01*
X279746Y126697D01*
X279627Y126578D01*
X277087Y127630D01*
Y139019D01*
X277911Y139495D01*
X279732Y141316D01*
X281020Y143546D01*
X281686Y146033D01*
Y148607D01*
X281439Y149528D01*
X296411Y164499D01*
X480801Y165094D01*
X482600Y163301D01*
Y1796D01*
X481330Y1270D01*
X88900D01*
Y163830D01*
X195601Y164174D01*
X197400Y162381D01*
Y159180D01*
X201350D01*
Y166370D01*
X206430D01*
Y159180D01*
D02*
G37*
G36*
X221879Y123709D02*
X221265Y122647D01*
X220599Y120159D01*
Y117585D01*
X221265Y115098D01*
X222553Y112868D01*
X224374Y111047D01*
X225252Y110540D01*
X224571Y108000D01*
X208499D01*
X207818Y110540D01*
X208696Y111047D01*
X210517Y112868D01*
X211805Y115098D01*
X212471Y117585D01*
Y120159D01*
X211805Y122647D01*
X210517Y124876D01*
X208696Y126697D01*
X206467Y127985D01*
X203979Y128651D01*
X201405D01*
X198918Y127985D01*
X198496Y127741D01*
X196936Y129774D01*
X199193Y132030D01*
X213557D01*
X221879Y123709D01*
D02*
G37*
G36*
X250239Y112868D02*
X252060Y111047D01*
X254289Y109759D01*
X256777Y109093D01*
X259351D01*
X261838Y109759D01*
X264068Y111047D01*
X264188Y111166D01*
X266728Y110114D01*
Y102540D01*
X259120D01*
X259040Y102540D01*
X256580D01*
X256500Y102540D01*
X244040D01*
Y93290D01*
X243990Y93040D01*
Y92324D01*
X241450Y91272D01*
X238560Y94163D01*
Y102540D01*
X238392D01*
X237340Y105080D01*
X246818Y114558D01*
X249263D01*
X250239Y112868D01*
D02*
G37*
G36*
X238016Y87381D02*
X236396Y85760D01*
X235108Y83531D01*
X234442Y81043D01*
Y78469D01*
X235108Y75981D01*
X235722Y74919D01*
X231730Y70928D01*
X225128D01*
X224252Y72323D01*
X224021Y73413D01*
X224360Y73752D01*
X225648Y75981D01*
X226314Y78469D01*
Y81043D01*
X225648Y83531D01*
X224360Y85760D01*
X222539Y87581D01*
X221883Y87960D01*
X222564Y90500D01*
X223480D01*
X223560Y90500D01*
X226020D01*
X226100Y90500D01*
X234897D01*
X238016Y87381D01*
D02*
G37*
G36*
X240446Y70643D02*
X241631Y70326D01*
Y56455D01*
X239091Y55774D01*
X238203Y57312D01*
X236382Y59133D01*
X234153Y60421D01*
X231665Y61087D01*
X229091D01*
X226604Y60421D01*
X224374Y59133D01*
X222553Y57312D01*
X221265Y55083D01*
X221030Y54203D01*
X218490Y54538D01*
Y58617D01*
X225621Y65748D01*
X232803D01*
X233794Y65945D01*
X234634Y66507D01*
X239384Y71257D01*
X240446Y70643D01*
D02*
G37*
%LPC*%
G36*
X239600Y799550D02*
X227760D01*
Y796920D01*
X221820D01*
Y799550D01*
X209980D01*
Y789110D01*
X219364D01*
X220795Y789110D01*
X222362Y787049D01*
X222280Y786468D01*
X221967Y786001D01*
X221770Y785010D01*
Y783150D01*
X209980D01*
Y780520D01*
X205308D01*
X204668Y781160D01*
X203268Y781740D01*
X201752D01*
X200352Y781160D01*
X199280Y780088D01*
X198700Y778688D01*
Y777172D01*
X199280Y775772D01*
X200352Y774700D01*
X201752Y774120D01*
X203268D01*
X204668Y774700D01*
X205308Y775340D01*
X209980D01*
Y772710D01*
X207647Y772210D01*
X207010D01*
X206019Y772013D01*
X205179Y771451D01*
X202499Y768771D01*
X201937Y767931D01*
X201740Y766940D01*
Y727373D01*
X191209Y716841D01*
X190647Y716001D01*
X190450Y715010D01*
Y698500D01*
X190647Y697509D01*
X191209Y696669D01*
X197559Y690319D01*
X198399Y689757D01*
X199390Y689560D01*
X205606D01*
X207248Y687226D01*
X207166Y686264D01*
X206320Y685418D01*
X205740Y684018D01*
Y682502D01*
X206320Y681102D01*
X207166Y680256D01*
X207288Y678815D01*
X207166Y677374D01*
X206320Y676528D01*
X205740Y675128D01*
Y673612D01*
X206320Y672212D01*
X207392Y671140D01*
X208792Y670560D01*
X210308D01*
X211708Y671140D01*
X212572Y672004D01*
X213135D01*
X220044Y665096D01*
X221094Y664394D01*
X222332Y664148D01*
X232327D01*
X233566Y664394D01*
X234617Y665096D01*
X235500Y665979D01*
X238040Y664927D01*
Y664640D01*
X248480D01*
Y676480D01*
X241008D01*
X239956Y679020D01*
X243356Y682420D01*
X248480D01*
Y694260D01*
X242173D01*
X241201Y696607D01*
X244981Y700387D01*
X245543Y701227D01*
X245740Y702218D01*
Y703090D01*
X249170D01*
Y715550D01*
X249170Y715630D01*
Y718090D01*
X249170Y718170D01*
Y721770D01*
X253660D01*
X254189Y721876D01*
X254683Y721951D01*
X255560Y721494D01*
X256990Y720548D01*
X257562Y719692D01*
X258727Y718914D01*
X260100Y718641D01*
X273600D01*
X273981Y718717D01*
X275223Y717475D01*
X276063Y716913D01*
X277054Y716716D01*
X277418D01*
X277440Y716662D01*
X278512Y715590D01*
X279912Y715010D01*
X281428D01*
X282828Y715590D01*
X283900Y716662D01*
X286689Y716758D01*
X294436Y709012D01*
Y706089D01*
X292310Y705090D01*
X291896Y705090D01*
X271570D01*
Y690930D01*
X264880D01*
Y694260D01*
X254440D01*
Y682420D01*
X264880D01*
Y685750D01*
X273660D01*
X274651Y685947D01*
X275491Y686509D01*
X277132Y688150D01*
X292310D01*
Y688205D01*
X294620Y689205D01*
X296240Y687886D01*
Y679490D01*
X296240Y679410D01*
Y676950D01*
X296240Y676870D01*
Y673270D01*
X292310D01*
Y678370D01*
X271570D01*
Y673150D01*
X264880D01*
Y676480D01*
X254440D01*
Y664640D01*
X264880D01*
Y667970D01*
X271570D01*
Y662747D01*
X271188Y661109D01*
X269686Y659846D01*
X269622Y659820D01*
X268550Y658748D01*
X267970Y657348D01*
Y655832D01*
X268281Y655080D01*
X267405Y653158D01*
X266850Y652540D01*
X265335D01*
Y651270D01*
X261715D01*
Y652540D01*
X259715D01*
Y642000D01*
X254635D01*
Y652540D01*
X252635D01*
Y651270D01*
X190405D01*
Y638707D01*
X187865Y638202D01*
X187849Y638240D01*
X186240Y639849D01*
X184138Y640720D01*
X181862D01*
X179760Y639849D01*
X178151Y638240D01*
X177280Y636138D01*
Y633862D01*
X178151Y631760D01*
X179760Y630151D01*
X181862Y629280D01*
X184138D01*
X186240Y630151D01*
X187849Y631760D01*
X188058Y632264D01*
X190405Y632730D01*
X191000Y632730D01*
X252635D01*
Y631460D01*
X253362D01*
X254720Y628920D01*
X254573Y628700D01*
X198495D01*
X197504Y628503D01*
X196664Y627941D01*
X186034Y617311D01*
X185615Y616685D01*
X183610Y614680D01*
X183392D01*
X181992Y614100D01*
X180920Y613028D01*
X180340Y611628D01*
Y610112D01*
X180920Y608712D01*
X181992Y607640D01*
X183392Y607060D01*
X184908D01*
X186308Y607640D01*
X186595Y607927D01*
X189135Y606875D01*
Y595460D01*
X191135D01*
Y606000D01*
X196215D01*
Y595460D01*
X196788D01*
Y590261D01*
X196843Y589981D01*
Y588531D01*
X197423Y587130D01*
X198495Y586059D01*
X199895Y585479D01*
X201411D01*
X202812Y586059D01*
X203883Y587130D01*
X204365Y588293D01*
X206217Y589152D01*
X206877Y589385D01*
X207559Y588966D01*
X208375Y588292D01*
X208860Y587122D01*
X209932Y586050D01*
X211332Y585470D01*
X212848D01*
X214248Y586050D01*
X215094Y586896D01*
X216535Y587019D01*
X217976Y586896D01*
X218822Y586050D01*
X220222Y585470D01*
X221738D01*
X223138Y586050D01*
X224210Y587122D01*
X224550Y587944D01*
X224963Y588104D01*
X227330Y588522D01*
X227910Y587122D01*
X228982Y586050D01*
X230382Y585470D01*
X231898D01*
X233298Y586050D01*
X234370Y587122D01*
X234734Y588002D01*
X236020Y588518D01*
X237481Y588513D01*
X238061Y587113D01*
X239133Y586041D01*
X240533Y585461D01*
X242049D01*
X243449Y586041D01*
X244521Y587113D01*
X244708Y587563D01*
X247198Y588337D01*
X247556Y588307D01*
X247869Y587994D01*
X248230Y587122D01*
X249302Y586050D01*
X250702Y585470D01*
X251454D01*
X251917Y585058D01*
X252829Y583688D01*
X253022Y583123D01*
X252730Y582418D01*
Y580902D01*
X253310Y579502D01*
X254071Y578741D01*
X254245Y577275D01*
X254071Y575809D01*
X253310Y575048D01*
X252730Y573648D01*
Y572132D01*
X253310Y570732D01*
X254382Y569660D01*
X255782Y569080D01*
X257298D01*
X258391Y569533D01*
X261620D01*
X262859Y569779D01*
X263909Y570481D01*
X267084Y573656D01*
X267786Y574706D01*
X268032Y575945D01*
Y594804D01*
X268571Y595460D01*
X272988D01*
Y585179D01*
X273050Y584866D01*
Y583442D01*
X273630Y582042D01*
X274702Y580970D01*
X276102Y580390D01*
X277618D01*
X278080Y580582D01*
X280374Y579382D01*
X280620Y579094D01*
Y574418D01*
X279980Y573778D01*
X279400Y572378D01*
Y570862D01*
X279980Y569462D01*
X281052Y568390D01*
X282452Y567810D01*
X283968D01*
X285368Y568390D01*
X286440Y569462D01*
X287020Y570862D01*
Y572378D01*
X286440Y573778D01*
X285800Y574418D01*
Y580707D01*
X290633Y585540D01*
X295884D01*
X296172Y585294D01*
X297372Y583000D01*
X297180Y582538D01*
Y581022D01*
X297760Y579622D01*
X298832Y578550D01*
X300232Y577970D01*
X301748D01*
X303148Y578550D01*
X304220Y579622D01*
X304800Y581022D01*
Y582145D01*
X305864Y582925D01*
X307147Y583391D01*
X313697Y576840D01*
X312645Y574300D01*
X309620D01*
Y571670D01*
X303680D01*
Y574300D01*
X291840D01*
Y563860D01*
X303680D01*
Y566490D01*
X309620D01*
Y563860D01*
X318706D01*
X318894Y563712D01*
X320194Y561320D01*
X320040Y560948D01*
Y559432D01*
X317925Y557900D01*
X309620D01*
Y547460D01*
X312830D01*
Y544040D01*
X309230D01*
X309150Y544040D01*
X306690D01*
X306610Y544040D01*
X303010D01*
Y547460D01*
X303680D01*
Y557900D01*
X291840D01*
Y547460D01*
X297830D01*
Y544040D01*
X294150D01*
Y544040D01*
X291866Y543094D01*
X287459Y547501D01*
X286619Y548063D01*
X285628Y548260D01*
X279753D01*
X274320Y553693D01*
Y554598D01*
X273740Y555998D01*
X272668Y557070D01*
X271268Y557650D01*
X269752D01*
X268352Y557070D01*
X267280Y555998D01*
X264387Y555651D01*
X264153Y555885D01*
X263580Y557268D01*
X262508Y558340D01*
X261108Y558920D01*
X259592D01*
X258192Y558340D01*
X257346Y557494D01*
X255905Y557371D01*
X254464Y557494D01*
X253618Y558340D01*
X252218Y558920D01*
X250702D01*
X249302Y558340D01*
X248230Y557268D01*
X247650Y555868D01*
Y554352D01*
X248230Y552952D01*
X249302Y551880D01*
X250531Y551371D01*
X255667Y546234D01*
Y539955D01*
X255700Y539792D01*
Y532690D01*
X267540D01*
Y539750D01*
X270080Y540802D01*
X273216Y537666D01*
X273480Y537490D01*
Y532690D01*
X285320D01*
Y538997D01*
X287667Y539969D01*
X291447Y536189D01*
X292287Y535627D01*
X293278Y535430D01*
X294150D01*
Y532000D01*
X306610D01*
X306690Y532000D01*
X309150D01*
X309230Y532000D01*
X312830D01*
Y527510D01*
X312936Y526981D01*
X313011Y526487D01*
X312554Y525610D01*
X311608Y524180D01*
X310752Y523608D01*
X309974Y522443D01*
X309701Y521070D01*
Y507570D01*
X309777Y507189D01*
X308535Y505947D01*
X307973Y505107D01*
X307776Y504116D01*
Y503753D01*
X307722Y503730D01*
X306650Y502658D01*
X306070Y501258D01*
Y499742D01*
X306650Y498342D01*
X307722Y497270D01*
X307510Y494608D01*
X299636Y486734D01*
X297150D01*
X296150Y488860D01*
X296150Y489274D01*
Y509600D01*
X281990D01*
Y516290D01*
X285320D01*
Y526730D01*
X273480D01*
Y516290D01*
X276810D01*
Y507510D01*
X277007Y506519D01*
X277569Y505679D01*
X279210Y504038D01*
Y488860D01*
X279265D01*
X280265Y486550D01*
X278946Y484930D01*
X270550D01*
X270470Y484930D01*
X268010D01*
X267930Y484930D01*
X264330D01*
Y488860D01*
X269430D01*
Y509600D01*
X264210D01*
Y516290D01*
X267540D01*
Y526730D01*
X255700D01*
Y516290D01*
X259030D01*
Y509600D01*
X252490D01*
Y488860D01*
X259150D01*
Y484930D01*
X255470D01*
Y472890D01*
X257760D01*
Y468200D01*
X254430D01*
Y457760D01*
X266270D01*
Y468200D01*
X262940D01*
Y472890D01*
X267930D01*
X268010Y472890D01*
X270470D01*
X270550Y472890D01*
X275540D01*
Y468200D01*
X272210D01*
Y457760D01*
X284050D01*
Y468200D01*
X280720D01*
Y472890D01*
X283010D01*
Y481517D01*
X289511Y488019D01*
X290073Y488859D01*
X290073Y488860D01*
X293056D01*
X293466Y487585D01*
X293479Y486320D01*
X292963Y485975D01*
X289708Y482720D01*
X288802D01*
X287402Y482140D01*
X286330Y481068D01*
X285750Y479668D01*
Y478152D01*
X286330Y476752D01*
X287402Y475680D01*
X287600Y473448D01*
X287020Y472048D01*
Y470532D01*
X287600Y469132D01*
X288672Y468060D01*
X290072Y467480D01*
X290977D01*
X297710Y460747D01*
Y456410D01*
X294030D01*
Y447530D01*
X293977Y447451D01*
X293780Y446460D01*
Y440950D01*
X290450D01*
Y430510D01*
X302290D01*
Y440950D01*
X298960D01*
Y444370D01*
X306490D01*
X306570Y444370D01*
X309030D01*
X311560Y444154D01*
Y440950D01*
X308230D01*
Y430510D01*
X320070D01*
Y440950D01*
X316740D01*
Y444370D01*
X321570D01*
Y452998D01*
X323240Y454668D01*
X325780Y453615D01*
Y444370D01*
X330610D01*
Y440950D01*
X327280D01*
Y430510D01*
X339120D01*
Y440950D01*
X335790D01*
Y444346D01*
X338320Y444370D01*
X340780D01*
Y444370D01*
X340860Y444370D01*
X348390D01*
Y440950D01*
X345060D01*
Y430510D01*
X356900D01*
Y440950D01*
X353570D01*
Y446460D01*
X355893Y447800D01*
X371162D01*
X371222Y447740D01*
X372622Y447160D01*
X374138D01*
X375538Y447740D01*
X376610Y448812D01*
X377190Y450212D01*
Y451728D01*
X376610Y453128D01*
X375538Y454200D01*
X374138Y454780D01*
X372622D01*
X371222Y454200D01*
X370150Y453128D01*
X370089Y452980D01*
X353320D01*
Y456410D01*
X344933D01*
X336195Y465147D01*
X336379Y466070D01*
Y479570D01*
X336194Y480500D01*
X337065Y482159D01*
X337760Y483040D01*
X340439D01*
X340940Y481832D01*
X342012Y480760D01*
X343412Y480180D01*
X344928D01*
X344939Y480185D01*
X347329Y480546D01*
X347329D01*
X347330Y480546D01*
Y480546D01*
X347333Y480545D01*
X347333Y480545D01*
X347338Y480542D01*
D01*
X349010Y479850D01*
X349010Y479511D01*
Y460920D01*
X365950D01*
Y481660D01*
X361786D01*
X360971Y483050D01*
X362348Y485590D01*
X365640D01*
Y492880D01*
X370720D01*
Y485590D01*
X374503D01*
X375720Y485590D01*
X375899Y485588D01*
X375994Y485470D01*
X374784Y482930D01*
X374460D01*
Y473830D01*
X381660D01*
Y482930D01*
X381500D01*
X380995Y485470D01*
X381888Y485840D01*
X382960Y486912D01*
X383540Y488312D01*
Y489828D01*
X382960Y491228D01*
X381888Y492300D01*
X380488Y492880D01*
X378972D01*
X378260Y492585D01*
X376296Y493499D01*
X375720Y494040D01*
X375720Y500170D01*
X376500Y500436D01*
Y505580D01*
X372550D01*
Y502710D01*
X372550Y500930D01*
X370325Y500170D01*
X369091D01*
X367860Y502200D01*
X367860Y502710D01*
Y514040D01*
X365230D01*
Y519980D01*
X367860D01*
Y531820D01*
X357420D01*
Y528490D01*
X347865D01*
X346634Y531030D01*
X347399Y532000D01*
X353440D01*
Y544040D01*
X349760D01*
Y547460D01*
X357020D01*
Y549140D01*
X363677D01*
X363770Y549048D01*
Y541570D01*
X374210D01*
Y551415D01*
X376750Y552468D01*
X380170Y549048D01*
Y541570D01*
X390610D01*
Y553410D01*
X387980D01*
Y559350D01*
X390610D01*
Y571190D01*
X380170D01*
Y561806D01*
X380170Y560375D01*
X378109Y558808D01*
X377528Y558890D01*
X377061Y559203D01*
X376070Y559400D01*
X374210D01*
Y571190D01*
X371580D01*
Y575862D01*
X372220Y576502D01*
X372800Y577902D01*
Y579418D01*
X372220Y580818D01*
X371148Y581890D01*
X369748Y582470D01*
X368232D01*
X366832Y581890D01*
X365760Y580818D01*
X365180Y579418D01*
Y577902D01*
X365760Y576502D01*
X366400Y575862D01*
Y571190D01*
X363770D01*
X363270Y573523D01*
Y574160D01*
X363073Y575151D01*
X362511Y575991D01*
X359831Y578671D01*
X358991Y579233D01*
X358000Y579430D01*
X318433D01*
X314739Y583123D01*
X315017Y584014D01*
X315985Y585470D01*
X316988D01*
X318388Y586050D01*
X319234Y586896D01*
X320675Y587019D01*
X322116Y586896D01*
X322962Y586050D01*
X324362Y585470D01*
X325878D01*
X327278Y586050D01*
X328124Y586896D01*
X329565Y587019D01*
X331006Y586896D01*
X331852Y586050D01*
X333252Y585470D01*
X334768D01*
X336168Y586050D01*
X337240Y587122D01*
X337509Y587771D01*
X339631Y588517D01*
X340357Y588515D01*
X340367Y588505D01*
X340940Y587122D01*
X342012Y586050D01*
X343412Y585470D01*
X344928D01*
X346328Y586050D01*
X347400Y587122D01*
X347980Y588522D01*
Y590038D01*
X347400Y591438D01*
X346328Y592510D01*
X346177Y592920D01*
X347856Y595460D01*
X349885D01*
Y606000D01*
Y616540D01*
X348615D01*
Y606000D01*
X343535D01*
Y616540D01*
X341535D01*
Y615270D01*
X331565D01*
Y616540D01*
X329565D01*
Y606000D01*
X324485D01*
Y616540D01*
X322485D01*
Y615270D01*
X312515D01*
Y616540D01*
X310515D01*
Y606000D01*
X305435D01*
Y616540D01*
X304862D01*
Y620051D01*
X304616Y621290D01*
X303914Y622340D01*
X303530Y622724D01*
Y623058D01*
X302950Y624458D01*
X301878Y625530D01*
X300478Y626110D01*
X298962D01*
X297562Y625530D01*
X296716Y624684D01*
X295275Y624562D01*
X293834Y624684D01*
X292988Y625530D01*
X291588Y626110D01*
X290072D01*
X288672Y625530D01*
X287600Y624458D01*
X287020Y623058D01*
Y621542D01*
X287600Y620142D01*
X288425Y619317D01*
X288583Y619080D01*
X288011Y616912D01*
X287856Y616540D01*
X284385D01*
Y615270D01*
X274415D01*
Y616540D01*
X272415D01*
Y606000D01*
X267335D01*
Y616540D01*
X265335D01*
Y615270D01*
X255365D01*
Y616540D01*
X253365D01*
Y606000D01*
X248285D01*
Y616540D01*
X246285D01*
Y615270D01*
X236315D01*
Y616540D01*
X234315D01*
Y606000D01*
X229235D01*
Y616540D01*
X227235D01*
Y615270D01*
X217265D01*
Y616540D01*
X215265D01*
Y606000D01*
X210185D01*
Y616540D01*
X208185D01*
Y615270D01*
X198215D01*
Y616540D01*
X195906D01*
X194934Y618887D01*
X199568Y623520D01*
X257810D01*
X258801Y623717D01*
X259641Y624279D01*
X264816Y629454D01*
X265378Y630294D01*
X265575Y631285D01*
Y631460D01*
X267335D01*
Y642000D01*
X272415D01*
Y631460D01*
X273635D01*
Y628154D01*
X273432Y628070D01*
X272360Y626998D01*
X271780Y625598D01*
Y624082D01*
X272360Y622682D01*
X273432Y621610D01*
X274832Y621030D01*
X276348D01*
X277748Y621610D01*
X278820Y622682D01*
X279400Y624082D01*
Y625598D01*
X278820Y626998D01*
X278815Y627003D01*
Y631460D01*
X280035D01*
Y642000D01*
X285115D01*
Y631460D01*
X287115D01*
Y632730D01*
X290735D01*
Y631460D01*
X292735D01*
Y642000D01*
X297815D01*
Y631460D01*
X299815D01*
Y632730D01*
X303435D01*
Y631460D01*
X305435D01*
Y642000D01*
Y652540D01*
X303435D01*
X303435Y652540D01*
Y652540D01*
X303114Y653017D01*
X302916Y653311D01*
X301826Y654401D01*
X299720Y656508D01*
Y657348D01*
X299140Y658748D01*
X298068Y659820D01*
X296668Y660400D01*
X295358D01*
X295152Y660400D01*
X295095Y660381D01*
X293985Y660279D01*
X292442Y661585D01*
X292429Y661602D01*
X292310Y662617D01*
X292310Y663746D01*
Y668090D01*
X296240D01*
Y664410D01*
X308280D01*
Y666700D01*
X312970D01*
Y663370D01*
X323410D01*
Y675210D01*
X312970D01*
Y671880D01*
X308280D01*
Y676870D01*
X308280Y676950D01*
Y679410D01*
X308280Y679490D01*
Y684480D01*
X312970D01*
Y681150D01*
X323410D01*
Y692990D01*
X312970D01*
Y689660D01*
X308280D01*
Y691950D01*
X299653D01*
X293151Y698451D01*
X292311Y699013D01*
X292310Y699013D01*
Y701996D01*
X293585Y702406D01*
X294850Y702419D01*
X295194Y701903D01*
X298450Y698648D01*
Y697742D01*
X299030Y696342D01*
X300102Y695270D01*
X301502Y694690D01*
X303018D01*
X304418Y695270D01*
X305490Y696342D01*
X307722Y696540D01*
X309122Y695960D01*
X310638D01*
X312038Y696540D01*
X313110Y697612D01*
X313690Y699012D01*
Y699918D01*
X320423Y706650D01*
X324760D01*
Y702970D01*
X333640D01*
X333719Y702917D01*
X334710Y702720D01*
X340220D01*
Y699390D01*
X350660D01*
Y711230D01*
X340220D01*
Y707900D01*
X336800D01*
Y715430D01*
X336800Y715510D01*
Y717970D01*
X337016Y720500D01*
X340220D01*
Y717170D01*
X350660D01*
Y729010D01*
X340220D01*
Y725680D01*
X336800D01*
Y730510D01*
X328172D01*
X326502Y732180D01*
X327555Y734720D01*
X336800D01*
Y739550D01*
X340220D01*
Y736220D01*
X350660D01*
Y748060D01*
X340220D01*
Y744730D01*
X336824D01*
X336800Y747260D01*
Y749720D01*
X336800D01*
X336800Y749800D01*
Y757330D01*
X340220D01*
Y754000D01*
X350660D01*
Y765840D01*
X340220D01*
Y762510D01*
X334710D01*
X333370Y764833D01*
Y780102D01*
X333430Y780162D01*
X334010Y781562D01*
Y783078D01*
X333430Y784478D01*
X332358Y785550D01*
X330958Y786130D01*
X329442D01*
X328042Y785550D01*
X326970Y784478D01*
X326390Y783078D01*
Y781562D01*
X326970Y780162D01*
X328042Y779090D01*
X328190Y779028D01*
Y762260D01*
X324760D01*
Y753873D01*
X316023Y745135D01*
X315100Y745319D01*
X301600D01*
X300670Y745134D01*
X299011Y746004D01*
X298130Y746700D01*
Y749380D01*
X299338Y749880D01*
X300410Y750952D01*
X300990Y752352D01*
Y753868D01*
X300986Y753879D01*
X300624Y756269D01*
Y756269D01*
X300624Y756270D01*
X300624D01*
X300625Y756273D01*
X300625Y756273D01*
X300628Y756279D01*
D01*
X301320Y757950D01*
X301659Y757950D01*
X320250D01*
Y774890D01*
X299510D01*
Y770726D01*
X298120Y769911D01*
X295580Y771288D01*
Y774580D01*
X288290D01*
Y779660D01*
X295580D01*
Y783443D01*
X295580Y784660D01*
X295582Y784839D01*
X295700Y784934D01*
X298240Y783724D01*
Y783400D01*
X307340D01*
Y790600D01*
X298240D01*
Y790440D01*
X295700Y789935D01*
X295330Y790828D01*
X294258Y791900D01*
X292858Y792480D01*
X291342D01*
X289942Y791900D01*
X288870Y790828D01*
X288290Y789428D01*
Y787912D01*
X288585Y787200D01*
X287671Y785236D01*
X287130Y784660D01*
X281000Y784660D01*
X280734Y785440D01*
X275590D01*
Y781490D01*
X278460D01*
X280240Y781490D01*
X281000Y779265D01*
Y778031D01*
X278970Y776800D01*
X278460Y776800D01*
X267130D01*
Y774170D01*
X261190D01*
Y776800D01*
X249350D01*
Y766360D01*
X252680D01*
Y756805D01*
X250140Y755574D01*
X249170Y756339D01*
Y762380D01*
X237130D01*
Y758700D01*
X233710D01*
Y765960D01*
X232030D01*
Y772617D01*
X232122Y772710D01*
X239600D01*
Y783150D01*
X229755D01*
X228703Y785690D01*
X232122Y789110D01*
X239600D01*
Y799550D01*
D02*
G37*
G36*
X321520Y802880D02*
X312420D01*
Y795680D01*
X321520D01*
Y802880D01*
D02*
G37*
G36*
X307340D02*
X298240D01*
Y795680D01*
X307340D01*
Y802880D01*
D02*
G37*
G36*
X280240Y794470D02*
X275590D01*
Y790520D01*
X280240D01*
Y794470D01*
D02*
G37*
G36*
X270510D02*
X265860D01*
Y790520D01*
X270510D01*
Y794470D01*
D02*
G37*
G36*
X321520Y790600D02*
X312420D01*
Y783400D01*
X321520D01*
Y790600D01*
D02*
G37*
G36*
X256540Y807795D02*
X248920D01*
X248545Y807720D01*
X248162D01*
X247809Y807574D01*
X247433Y807499D01*
X247115Y807286D01*
X246762Y807140D01*
X246491Y806869D01*
X246173Y806657D01*
X245961Y806339D01*
X245690Y806068D01*
X245544Y805715D01*
X245331Y805397D01*
X245256Y805021D01*
X245110Y804668D01*
Y804285D01*
X245035Y803910D01*
X245110Y803535D01*
Y803152D01*
X245256Y802799D01*
X245331Y802423D01*
X245544Y802105D01*
X245690Y801752D01*
X245961Y801481D01*
X246173Y801163D01*
X246491Y800951D01*
X246762Y800680D01*
X247115Y800534D01*
X247433Y800321D01*
X247809Y800246D01*
X248162Y800100D01*
X248545D01*
X248920Y800025D01*
X251385D01*
Y793200D01*
X249350D01*
Y782760D01*
X261190D01*
Y793200D01*
X259155D01*
Y801075D01*
X259287Y801163D01*
X259499Y801481D01*
X259770Y801752D01*
X259916Y802105D01*
X260129Y802423D01*
X260204Y802799D01*
X260350Y803152D01*
Y803535D01*
X260425Y803910D01*
X260350Y804285D01*
Y804668D01*
X260204Y805021D01*
X260129Y805397D01*
X259916Y805715D01*
X259770Y806068D01*
X259499Y806339D01*
X259287Y806657D01*
X258969Y806869D01*
X258698Y807140D01*
X258345Y807286D01*
X258027Y807499D01*
X257651Y807574D01*
X257298Y807720D01*
X256915D01*
X256540Y807795D01*
D02*
G37*
G36*
X270510Y785440D02*
X265860D01*
Y781490D01*
X270510D01*
Y785440D01*
D02*
G37*
G36*
X468630Y797610D02*
X452120D01*
X451129Y797413D01*
X450289Y796851D01*
X443939Y790501D01*
X443377Y789661D01*
X443180Y788670D01*
Y781308D01*
X442540Y780668D01*
X441960Y779268D01*
Y777752D01*
X442540Y776352D01*
X443612Y775280D01*
X445012Y774700D01*
X446528D01*
X447928Y775280D01*
X449000Y776352D01*
X449580Y777752D01*
Y779268D01*
X449000Y780668D01*
X448360Y781308D01*
Y787597D01*
X453193Y792430D01*
X458444D01*
X458732Y792184D01*
X459931Y789890D01*
X459740Y789428D01*
Y787912D01*
X460320Y786512D01*
X461392Y785440D01*
X462792Y784860D01*
X464308D01*
X465708Y785440D01*
X466780Y786512D01*
X467360Y787912D01*
Y789035D01*
X468424Y789815D01*
X469707Y790281D01*
X476258Y783730D01*
X475205Y781190D01*
X472180D01*
Y778560D01*
X466240D01*
Y781190D01*
X454400D01*
Y770750D01*
X466240D01*
Y773380D01*
X472180D01*
Y770750D01*
X481266D01*
X481454Y770602D01*
X482754Y768210D01*
X482600Y767838D01*
Y766322D01*
X480485Y764790D01*
X472180D01*
Y754350D01*
X475390D01*
Y750930D01*
X471790D01*
X471710Y750930D01*
X469250D01*
X469170Y750930D01*
X465570D01*
Y754350D01*
X466240D01*
Y764790D01*
X454400D01*
Y754350D01*
X460390D01*
Y750930D01*
X456710D01*
Y750930D01*
X454426Y749984D01*
X450019Y754391D01*
X449179Y754953D01*
X448188Y755150D01*
X442313D01*
X436880Y760583D01*
Y761488D01*
X436300Y762888D01*
X435228Y763960D01*
X433828Y764540D01*
X432312D01*
X430912Y763960D01*
X429840Y762888D01*
X426947Y762541D01*
X426713Y762775D01*
X426140Y764158D01*
X425068Y765230D01*
X423668Y765810D01*
X422152D01*
X420752Y765230D01*
X419906Y764384D01*
X418465Y764261D01*
X417024Y764384D01*
X416178Y765230D01*
X414778Y765810D01*
X413262D01*
X411862Y765230D01*
X410790Y764158D01*
X410210Y762758D01*
Y761242D01*
X410790Y759842D01*
X411862Y758770D01*
X413091Y758261D01*
X418228Y753124D01*
Y746845D01*
X418260Y746682D01*
Y739580D01*
X430100D01*
Y746640D01*
X432640Y747692D01*
X435776Y744556D01*
X436040Y744380D01*
Y739580D01*
X447880D01*
Y745887D01*
X450227Y746859D01*
X454007Y743079D01*
X454847Y742517D01*
X455838Y742320D01*
X456710D01*
Y738890D01*
X469170D01*
X469250Y738890D01*
X471710D01*
X471790Y738890D01*
X475390D01*
Y734400D01*
X475495Y733871D01*
X475571Y733377D01*
X475114Y732500D01*
X474168Y731070D01*
X473312Y730498D01*
X472534Y729333D01*
X472261Y727960D01*
Y714460D01*
X472337Y714079D01*
X471095Y712837D01*
X470533Y711997D01*
X470336Y711006D01*
Y710642D01*
X470282Y710620D01*
X469210Y709548D01*
X468630Y708148D01*
Y706632D01*
X469210Y705232D01*
X470282Y704160D01*
X470680Y703995D01*
X471454Y701424D01*
X471424Y701147D01*
X463901Y693624D01*
X459710D01*
X458710Y695750D01*
X458710Y696164D01*
Y716490D01*
X444550D01*
Y723180D01*
X447880D01*
Y733620D01*
X436040D01*
Y723180D01*
X439370D01*
Y714400D01*
X439567Y713409D01*
X440129Y712569D01*
X441770Y710928D01*
Y695750D01*
X441825D01*
X442825Y693440D01*
X441506Y691820D01*
X433110D01*
X433030Y691820D01*
X430570D01*
X430490Y691820D01*
X426890D01*
Y695750D01*
X431990D01*
Y716490D01*
X426770D01*
Y723180D01*
X430100D01*
Y733620D01*
X418260D01*
Y723180D01*
X421590D01*
Y716490D01*
X415050D01*
Y695750D01*
X421710D01*
Y691820D01*
X418030D01*
Y679780D01*
X420320D01*
Y675090D01*
X416990D01*
Y664650D01*
X428830D01*
Y675090D01*
X425500D01*
Y679780D01*
X430490D01*
X430570Y679780D01*
X433030D01*
X433110Y679780D01*
X438100D01*
Y675090D01*
X434770D01*
Y664650D01*
X446610D01*
Y675090D01*
X443280D01*
Y679780D01*
X445570D01*
Y688408D01*
X452071Y694909D01*
X452633Y695749D01*
X452633Y695750D01*
X455616D01*
X456026Y694475D01*
X456039Y693210D01*
X455523Y692866D01*
X452267Y689610D01*
X451362D01*
X449962Y689030D01*
X448890Y687958D01*
X448310Y686558D01*
Y685042D01*
X448890Y683642D01*
X449962Y682570D01*
X450160Y680338D01*
X449580Y678938D01*
Y677422D01*
X450160Y676022D01*
X451232Y674950D01*
X452632Y674370D01*
X453537D01*
X460270Y667637D01*
Y663300D01*
X456590D01*
Y654420D01*
X456537Y654341D01*
X456340Y653350D01*
Y647840D01*
X453010D01*
Y637400D01*
X464850D01*
Y647840D01*
X461520D01*
Y651260D01*
X469050D01*
X469130Y651260D01*
X471590D01*
X474120Y651044D01*
Y647840D01*
X470790D01*
Y637400D01*
X482630D01*
Y647840D01*
X479300D01*
Y651260D01*
X484130D01*
Y659887D01*
X485800Y661557D01*
X488340Y660505D01*
Y651260D01*
X493170D01*
Y647840D01*
X489840D01*
Y637400D01*
X501680D01*
Y647840D01*
X498350D01*
Y651236D01*
X500880Y651260D01*
X503340D01*
Y651260D01*
X503420Y651260D01*
X510950D01*
Y647840D01*
X507620D01*
Y637400D01*
X519460D01*
Y647840D01*
X516130D01*
Y653350D01*
X518453Y654690D01*
X533722D01*
X533782Y654630D01*
X535182Y654050D01*
X536698D01*
X538098Y654630D01*
X539170Y655702D01*
X539750Y657102D01*
Y658618D01*
X539170Y660018D01*
X538098Y661090D01*
X536698Y661670D01*
X535182D01*
X533782Y661090D01*
X532710Y660018D01*
X532649Y659870D01*
X515880D01*
Y663300D01*
X507492D01*
X498755Y672037D01*
X498939Y672960D01*
Y686460D01*
X498754Y687390D01*
X499624Y689049D01*
X500320Y689930D01*
X502999D01*
X503500Y688722D01*
X504572Y687650D01*
X505972Y687070D01*
X507488D01*
X507499Y687074D01*
X509889Y687436D01*
X509889D01*
X509890Y687436D01*
Y687436D01*
X509893Y687434D01*
X509893Y687435D01*
X509898Y687432D01*
D01*
X511570Y686740D01*
X511570Y686401D01*
Y667810D01*
X528510D01*
Y688550D01*
X524346D01*
X523531Y689940D01*
X524908Y692480D01*
X528200D01*
Y699770D01*
X533280D01*
Y692480D01*
X537063D01*
X538280Y692480D01*
X538459Y692478D01*
X538554Y692360D01*
X537344Y689820D01*
X537020D01*
Y680720D01*
X544220D01*
Y689820D01*
X544060D01*
X543555Y692360D01*
X544448Y692730D01*
X545520Y693802D01*
X546100Y695202D01*
Y696718D01*
X545520Y698118D01*
X544448Y699190D01*
X543048Y699770D01*
X541532D01*
X540820Y699475D01*
X538856Y700389D01*
X538280Y700930D01*
X538280Y707060D01*
X539060Y707326D01*
Y712470D01*
X535110D01*
Y709600D01*
X535110Y707820D01*
X532885Y707060D01*
X531651D01*
X530420Y709090D01*
X530420Y709600D01*
Y720930D01*
X527790D01*
Y726870D01*
X530420D01*
Y738710D01*
X519980D01*
Y735380D01*
X510425D01*
X509194Y737920D01*
X509959Y738890D01*
X516000D01*
Y750930D01*
X512320D01*
Y754350D01*
X519580D01*
Y756030D01*
X526237D01*
X526330Y755938D01*
Y748460D01*
X536770D01*
Y758305D01*
X539310Y759358D01*
X542730Y755938D01*
Y748460D01*
X553170D01*
Y760300D01*
X550540D01*
Y766240D01*
X553170D01*
Y778080D01*
X542730D01*
Y768696D01*
X542730Y767265D01*
X540669Y765698D01*
X540088Y765780D01*
X539621Y766093D01*
X538630Y766290D01*
X536770D01*
Y778080D01*
X534140D01*
Y782752D01*
X534780Y783392D01*
X535360Y784792D01*
Y786308D01*
X534780Y787708D01*
X533708Y788780D01*
X532308Y789360D01*
X530792D01*
X529392Y788780D01*
X528320Y787708D01*
X527740Y786308D01*
Y784792D01*
X528320Y783392D01*
X528960Y782752D01*
Y778080D01*
X526330D01*
X525830Y780413D01*
Y781050D01*
X525633Y782041D01*
X525071Y782881D01*
X522391Y785561D01*
X521551Y786123D01*
X520560Y786320D01*
X480993D01*
X470461Y796851D01*
X469621Y797413D01*
X468630Y797610D01*
D02*
G37*
G36*
X69850D02*
X53340D01*
X52349Y797413D01*
X51509Y796851D01*
X45159Y790501D01*
X44597Y789661D01*
X44400Y788670D01*
Y781308D01*
X43760Y780668D01*
X43180Y779268D01*
Y777752D01*
X43760Y776352D01*
X44832Y775280D01*
X46232Y774700D01*
X47748D01*
X49148Y775280D01*
X50220Y776352D01*
X50800Y777752D01*
Y779268D01*
X50220Y780668D01*
X49580Y781308D01*
Y787597D01*
X54413Y792430D01*
X59664D01*
X59952Y792184D01*
X61151Y789890D01*
X60960Y789428D01*
Y787912D01*
X61540Y786512D01*
X62612Y785440D01*
X64012Y784860D01*
X65528D01*
X66928Y785440D01*
X68000Y786512D01*
X68580Y787912D01*
Y789035D01*
X69644Y789815D01*
X70927Y790281D01*
X77477Y783730D01*
X76425Y781190D01*
X73400D01*
Y778560D01*
X67460D01*
Y781190D01*
X55620D01*
Y770750D01*
X67460D01*
Y773380D01*
X73400D01*
Y770750D01*
X82486D01*
X82674Y770602D01*
X83974Y768210D01*
X83820Y767838D01*
Y766322D01*
X81705Y764790D01*
X73400D01*
Y754350D01*
X76610D01*
Y750930D01*
X73010D01*
X72930Y750930D01*
X70470D01*
X70390Y750930D01*
X66790D01*
Y754350D01*
X67460D01*
Y764790D01*
X55620D01*
Y754350D01*
X61610D01*
Y750930D01*
X57930D01*
Y750930D01*
X55647Y749984D01*
X51239Y754391D01*
X50399Y754953D01*
X49408Y755150D01*
X43533D01*
X38100Y760583D01*
Y761488D01*
X37520Y762888D01*
X36448Y763960D01*
X35048Y764540D01*
X33532D01*
X32132Y763960D01*
X31236Y763064D01*
X30925Y762872D01*
X28167Y762541D01*
X27933Y762775D01*
X27360Y764158D01*
X26288Y765230D01*
X24888Y765810D01*
X23372D01*
X21972Y765230D01*
X21126Y764384D01*
X19685Y764261D01*
X18244Y764384D01*
X17398Y765230D01*
X15998Y765810D01*
X14482D01*
X13082Y765230D01*
X12010Y764158D01*
X11430Y762758D01*
Y761242D01*
X12010Y759842D01*
X13082Y758770D01*
X14311Y758261D01*
X19447Y753124D01*
Y746845D01*
X19480Y746682D01*
Y739580D01*
X31320D01*
Y746640D01*
X33860Y747692D01*
X36996Y744556D01*
X37260Y744380D01*
Y739580D01*
X49100D01*
Y745887D01*
X51447Y746859D01*
X55227Y743079D01*
X56067Y742517D01*
X57058Y742320D01*
X57930D01*
Y738890D01*
X70390D01*
X70470Y738890D01*
X72930D01*
X73010Y738890D01*
X76610D01*
Y734400D01*
X76715Y733871D01*
X76791Y733377D01*
X76334Y732500D01*
X75388Y731070D01*
X74532Y730498D01*
X73754Y729333D01*
X73481Y727960D01*
Y714460D01*
X73557Y714079D01*
X72315Y712837D01*
X71753Y711997D01*
X71556Y711006D01*
Y710642D01*
X71502Y710620D01*
X70430Y709548D01*
X69850Y708148D01*
Y706632D01*
X70430Y705232D01*
X71502Y704160D01*
X71598Y701371D01*
X63851Y693624D01*
X60929D01*
X59930Y695750D01*
X59930Y696164D01*
Y716490D01*
X45770D01*
Y723180D01*
X49100D01*
Y733620D01*
X37260D01*
Y723180D01*
X40590D01*
Y714400D01*
X40787Y713409D01*
X41349Y712569D01*
X42990Y710928D01*
Y695750D01*
X43045D01*
X44045Y693440D01*
X42726Y691820D01*
X34330D01*
X34250Y691820D01*
X31790D01*
X31710Y691820D01*
X28110D01*
Y695750D01*
X33210D01*
Y716490D01*
X27990D01*
Y723180D01*
X31320D01*
Y733620D01*
X19480D01*
Y723180D01*
X22810D01*
Y716490D01*
X16270D01*
Y695750D01*
X22930D01*
Y691820D01*
X19250D01*
Y679780D01*
X21540D01*
Y675090D01*
X18210D01*
Y671683D01*
X15670Y671178D01*
X15295Y672083D01*
X14502Y673735D01*
X15295Y675387D01*
X15875Y676787D01*
Y678303D01*
X15295Y679703D01*
X14223Y680775D01*
X12823Y681355D01*
X11307D01*
X9907Y680775D01*
X8835Y679703D01*
X8255Y678303D01*
Y676787D01*
X8835Y675387D01*
X9628Y673735D01*
X8835Y672083D01*
X8255Y670683D01*
Y669167D01*
X8835Y667767D01*
X9628Y666115D01*
X8835Y664463D01*
X8255Y663063D01*
Y661547D01*
X8835Y660147D01*
X9907Y659075D01*
X11307Y658495D01*
X12823D01*
X14223Y659075D01*
X15295Y660147D01*
X15875Y661547D01*
Y663063D01*
X15295Y664463D01*
X14502Y666115D01*
X15295Y667767D01*
X15670Y668672D01*
X18210Y668167D01*
Y664650D01*
X30050D01*
Y675090D01*
X26720D01*
Y679780D01*
X31710D01*
X31790Y679780D01*
X34250D01*
X34330Y679780D01*
X39320D01*
Y675090D01*
X35990D01*
Y664650D01*
X47830D01*
Y675090D01*
X44500D01*
Y679780D01*
X46790D01*
Y688408D01*
X53291Y694909D01*
X53853Y695749D01*
X53853Y695750D01*
X56836D01*
X57246Y694475D01*
X57259Y693210D01*
X56743Y692866D01*
X53488Y689610D01*
X52582D01*
X51182Y689030D01*
X50110Y687958D01*
X49530Y686558D01*
Y685042D01*
X50110Y683642D01*
X51182Y682570D01*
X51380Y680338D01*
X50800Y678938D01*
Y677422D01*
X51380Y676022D01*
X52452Y674950D01*
X53852Y674370D01*
X54757D01*
X61490Y667637D01*
Y663300D01*
X57810D01*
Y654420D01*
X57757Y654341D01*
X57560Y653350D01*
Y647840D01*
X54230D01*
Y637400D01*
X66070D01*
Y647840D01*
X62740D01*
Y651260D01*
X70270D01*
X70350Y651260D01*
X72810D01*
X75340Y651044D01*
Y647840D01*
X72010D01*
Y637400D01*
X83850D01*
Y647840D01*
X80520D01*
Y651260D01*
X85350D01*
Y659887D01*
X87020Y661557D01*
X89560Y660505D01*
Y651260D01*
X94390D01*
Y647840D01*
X91060D01*
Y637400D01*
X102900D01*
Y647840D01*
X99570D01*
Y651236D01*
X102100Y651260D01*
X104560D01*
Y651260D01*
X104640Y651260D01*
X112170D01*
Y647840D01*
X108840D01*
Y637400D01*
X120680D01*
Y647840D01*
X117350D01*
Y653350D01*
X119673Y654690D01*
X134942D01*
X135002Y654630D01*
X136402Y654050D01*
X137918D01*
X139318Y654630D01*
X140390Y655702D01*
X140970Y657102D01*
Y658618D01*
X140390Y660018D01*
X139318Y661090D01*
X137918Y661670D01*
X136402D01*
X135002Y661090D01*
X133930Y660018D01*
X133869Y659870D01*
X117100D01*
Y663300D01*
X108713D01*
X99975Y672037D01*
X100159Y672960D01*
Y686460D01*
X99974Y687390D01*
X100844Y689049D01*
X101540Y689930D01*
X104220D01*
X104720Y688722D01*
X105792Y687650D01*
X107192Y687070D01*
X108708D01*
X108719Y687074D01*
X111109Y687436D01*
X111109D01*
X111110Y687436D01*
Y687436D01*
X111113Y687434D01*
X111113Y687435D01*
X111118Y687432D01*
D01*
X112790Y686740D01*
X112790Y686401D01*
Y667810D01*
X129730D01*
Y688550D01*
X125566D01*
X124751Y689940D01*
X126128Y692480D01*
X129420D01*
Y699770D01*
X134500D01*
Y692480D01*
X138283D01*
X139500Y692480D01*
X139679Y692478D01*
X139774Y692360D01*
X138564Y689820D01*
X138240D01*
Y680720D01*
X145440D01*
Y689820D01*
X145280D01*
X144775Y692360D01*
X145668Y692730D01*
X146740Y693802D01*
X147320Y695202D01*
Y696718D01*
X146740Y698118D01*
X145668Y699190D01*
X144268Y699770D01*
X142752D01*
X142040Y699475D01*
X140076Y700389D01*
X139500Y700930D01*
X139500Y707060D01*
X140280Y707326D01*
Y712470D01*
X136330D01*
Y709600D01*
X136330Y707820D01*
X134105Y707060D01*
X132871D01*
X131640Y709090D01*
X131640Y709600D01*
Y720930D01*
X129010D01*
Y726870D01*
X131640D01*
Y738710D01*
X121200D01*
Y735380D01*
X111645D01*
X110414Y737920D01*
X111180Y738890D01*
X117220D01*
Y750930D01*
X113540D01*
Y754350D01*
X120800D01*
Y756030D01*
X127457D01*
X127550Y755938D01*
Y748460D01*
X137990D01*
Y758305D01*
X140530Y759358D01*
X143950Y755938D01*
Y748460D01*
X154390D01*
Y760300D01*
X151760D01*
Y766240D01*
X154390D01*
Y778080D01*
X143950D01*
Y768696D01*
X143950Y767265D01*
X141889Y765698D01*
X141308Y765780D01*
X140841Y766093D01*
X139850Y766290D01*
X137990D01*
Y778080D01*
X135360D01*
Y782752D01*
X136000Y783392D01*
X136580Y784792D01*
Y786308D01*
X136000Y787708D01*
X134928Y788780D01*
X133528Y789360D01*
X132012D01*
X130612Y788780D01*
X129540Y787708D01*
X128960Y786308D01*
Y784792D01*
X129540Y783392D01*
X130180Y782752D01*
Y778080D01*
X127550D01*
X127050Y780413D01*
Y781050D01*
X126853Y782041D01*
X126291Y782881D01*
X123611Y785561D01*
X122771Y786123D01*
X121780Y786320D01*
X82213D01*
X71681Y796851D01*
X70841Y797413D01*
X69850Y797610D01*
D02*
G37*
G36*
X367060Y765840D02*
X356620D01*
Y754000D01*
X359250D01*
Y748060D01*
X356620D01*
Y736220D01*
X367060D01*
Y739054D01*
X369600Y740072D01*
X369952Y739720D01*
X371352Y739140D01*
X372257D01*
X377140Y734257D01*
Y731654D01*
X374600Y730608D01*
X374268Y730940D01*
X372868Y731520D01*
X371352D01*
X369952Y730940D01*
X369138Y730126D01*
X368053Y729543D01*
X366696Y729010D01*
X365985Y729010D01*
X356620D01*
Y717170D01*
X359250D01*
Y711230D01*
X356620D01*
Y699390D01*
X366980D01*
X367060Y699390D01*
X369520Y699197D01*
Y695763D01*
X363417Y689660D01*
X339810D01*
Y692990D01*
X329370D01*
Y681150D01*
X339810D01*
Y684480D01*
X364490D01*
X365481Y684677D01*
X366321Y685239D01*
X373759Y692676D01*
X374631Y692651D01*
X376484Y692092D01*
X376625Y691438D01*
X357067Y671880D01*
X339810D01*
Y675210D01*
X329370D01*
Y663370D01*
X339810D01*
Y666700D01*
X358140D01*
X359131Y666897D01*
X359971Y667459D01*
X363413Y670901D01*
X364696Y670435D01*
X365760Y669655D01*
Y668532D01*
X366340Y667132D01*
X367412Y666060D01*
X368812Y665480D01*
X370328D01*
X371728Y666060D01*
X373380Y666853D01*
X375032Y666060D01*
X376432Y665480D01*
X377948D01*
X379348Y666060D01*
X380420Y667132D01*
X381000Y668532D01*
Y670048D01*
X380420Y671448D01*
X379627Y673100D01*
X380420Y674752D01*
X381000Y676152D01*
Y677668D01*
X380420Y679068D01*
X379348Y680140D01*
X377948Y680720D01*
X376825D01*
X376045Y681784D01*
X375579Y683067D01*
X381561Y689049D01*
X382123Y689889D01*
X382320Y690880D01*
Y735330D01*
X382123Y736321D01*
X381561Y737161D01*
X375920Y742803D01*
Y743708D01*
X375340Y745108D01*
X374268Y746180D01*
X372868Y746760D01*
X371352D01*
X369952Y746180D01*
X369600Y745828D01*
X367060Y746846D01*
Y748060D01*
X364430D01*
Y754000D01*
X367060D01*
Y765840D01*
D02*
G37*
G36*
X148040Y738710D02*
X137600D01*
Y726870D01*
X148040D01*
Y728905D01*
X161290D01*
X161665Y728980D01*
X162048D01*
X162401Y729126D01*
X162777Y729201D01*
X163095Y729414D01*
X163448Y729560D01*
X163719Y729831D01*
X164037Y730043D01*
X164249Y730361D01*
X164520Y730632D01*
X164666Y730985D01*
X164879Y731303D01*
X164954Y731679D01*
X165100Y732032D01*
Y732415D01*
X165175Y732790D01*
X165100Y733165D01*
Y733548D01*
X164954Y733901D01*
X164879Y734277D01*
X164666Y734595D01*
X164520Y734948D01*
X164249Y735219D01*
X164037Y735537D01*
X163719Y735749D01*
X163448Y736020D01*
X163095Y736166D01*
X162777Y736379D01*
X162401Y736454D01*
X162048Y736600D01*
X161665D01*
X161290Y736675D01*
X148040D01*
Y738710D01*
D02*
G37*
G36*
X546820D02*
X536380D01*
Y726870D01*
X546820D01*
Y728905D01*
X554915D01*
Y725170D01*
X554990Y724795D01*
Y724412D01*
X555136Y724059D01*
X555211Y723683D01*
X555424Y723365D01*
X555570Y723012D01*
X555841Y722741D01*
X556053Y722423D01*
X556371Y722211D01*
X556642Y721940D01*
X556995Y721794D01*
X557313Y721581D01*
X557689Y721506D01*
X558042Y721360D01*
X558425D01*
X558800Y721285D01*
X559175Y721360D01*
X559558D01*
X559911Y721506D01*
X560287Y721581D01*
X560605Y721794D01*
X560958Y721940D01*
X561229Y722211D01*
X561547Y722423D01*
X561759Y722741D01*
X562030Y723012D01*
X562176Y723365D01*
X562389Y723683D01*
X562464Y724059D01*
X562610Y724412D01*
Y724795D01*
X562685Y725170D01*
Y732790D01*
X562610Y733165D01*
Y733548D01*
X562464Y733901D01*
X562389Y734277D01*
X562176Y734595D01*
X562030Y734948D01*
X561759Y735219D01*
X561547Y735537D01*
X561229Y735749D01*
X560958Y736020D01*
X560605Y736166D01*
X560287Y736379D01*
X559911Y736454D01*
X559558Y736600D01*
X559175D01*
X558800Y736675D01*
X546820D01*
Y738710D01*
D02*
G37*
G36*
X149310Y722200D02*
X145360D01*
Y717550D01*
X149310D01*
Y722200D01*
D02*
G37*
G36*
X548090D02*
X544140D01*
Y717550D01*
X548090D01*
Y722200D01*
D02*
G37*
G36*
X140280D02*
X136330D01*
Y717550D01*
X140280D01*
Y722200D01*
D02*
G37*
G36*
X539060D02*
X535110D01*
Y717550D01*
X539060D01*
Y722200D01*
D02*
G37*
G36*
X548090Y712470D02*
X544140D01*
Y707820D01*
X548090D01*
Y712470D01*
D02*
G37*
G36*
X149310D02*
X145360D01*
Y707820D01*
X149310D01*
Y712470D01*
D02*
G37*
G36*
X556500Y689820D02*
X549300D01*
Y680720D01*
X556500D01*
Y689820D01*
D02*
G37*
G36*
X157720D02*
X150520D01*
Y680720D01*
X157720D01*
Y689820D01*
D02*
G37*
G36*
X556500Y675640D02*
X549300D01*
Y666540D01*
X556500D01*
Y675640D01*
D02*
G37*
G36*
X544220D02*
X537020D01*
Y666540D01*
X544220D01*
Y675640D01*
D02*
G37*
G36*
X157720D02*
X150520D01*
Y666540D01*
X157720D01*
Y675640D01*
D02*
G37*
G36*
X145440D02*
X138240D01*
Y666540D01*
X145440D01*
Y675640D01*
D02*
G37*
G36*
X352548Y660400D02*
X351032D01*
X349632Y659820D01*
X348560Y658748D01*
X347980Y657348D01*
Y655832D01*
X348292Y655080D01*
X347415Y653158D01*
X346860Y652540D01*
X344020D01*
X343465Y653158D01*
X342589Y655080D01*
X342900Y655832D01*
Y657348D01*
X342320Y658748D01*
X341248Y659820D01*
X339848Y660400D01*
X338332D01*
X336932Y659820D01*
X335860Y658748D01*
X335280Y657348D01*
Y655832D01*
X335592Y655080D01*
X334715Y653158D01*
X334160Y652540D01*
X331320D01*
X330765Y653158D01*
X329888Y655080D01*
X330200Y655832D01*
Y657348D01*
X329620Y658748D01*
X328548Y659820D01*
X327148Y660400D01*
X325632D01*
X324232Y659820D01*
X323160Y658748D01*
X322580Y657348D01*
Y655832D01*
X322892Y655080D01*
X322015Y653158D01*
X321460Y652540D01*
X316135D01*
Y651270D01*
X312515D01*
Y652540D01*
X310515D01*
Y642000D01*
Y631460D01*
X311418D01*
Y627956D01*
X310460Y626998D01*
X309880Y625598D01*
Y624082D01*
X310460Y622682D01*
X311532Y621610D01*
X312932Y621030D01*
X314448D01*
X315848Y621610D01*
X316920Y622682D01*
X317500Y624082D01*
Y625598D01*
X316920Y626998D01*
X316597Y627321D01*
Y631460D01*
X318135D01*
Y642000D01*
X323215D01*
Y631460D01*
X325215D01*
Y632730D01*
X328835D01*
Y631460D01*
X330835D01*
Y642000D01*
X335915D01*
Y631460D01*
X337915D01*
Y632730D01*
X341535D01*
Y631460D01*
X343535D01*
Y642000D01*
X348615D01*
Y631460D01*
X350615D01*
Y632730D01*
X354235D01*
Y631460D01*
X360575D01*
Y616540D01*
X354965D01*
Y606000D01*
Y595460D01*
X356235D01*
Y606000D01*
X361315D01*
Y595460D01*
X362585D01*
Y606000D01*
X367665D01*
Y595460D01*
X369665D01*
Y596730D01*
X381095D01*
Y605685D01*
X402590D01*
X403562Y606088D01*
X403965Y607060D01*
Y633730D01*
X403562Y634702D01*
X402590Y635105D01*
X394220D01*
Y636138D01*
X393349Y638240D01*
X391740Y639849D01*
X389638Y640720D01*
X387362D01*
X385260Y639849D01*
X384280Y638869D01*
X381740Y639758D01*
Y642000D01*
X381337Y642972D01*
X381095Y643072D01*
Y651270D01*
X369665D01*
Y652540D01*
X367665D01*
Y642254D01*
X367560Y642000D01*
Y642000D01*
X362585D01*
Y652540D01*
X361315D01*
Y642000D01*
X356235D01*
Y653080D01*
X356165Y653158D01*
X355289Y655080D01*
X355600Y655832D01*
Y657348D01*
X355020Y658748D01*
X353948Y659820D01*
X352548Y660400D01*
D02*
G37*
G36*
X542030Y622300D02*
X540009D01*
X538142Y621527D01*
X536713Y620098D01*
X535940Y618231D01*
Y616209D01*
X536713Y614342D01*
X538142Y612913D01*
X540009Y612140D01*
X542030D01*
X543898Y612913D01*
X545327Y614342D01*
X546100Y616209D01*
Y618231D01*
X545327Y620098D01*
X543898Y621527D01*
X542030Y622300D01*
D02*
G37*
G36*
X446610Y658690D02*
X434770D01*
Y648250D01*
X438100D01*
Y623570D01*
X438297Y622579D01*
X438859Y621739D01*
X446296Y614301D01*
X446271Y613429D01*
X445712Y611576D01*
X445058Y611435D01*
X425500Y630993D01*
Y648250D01*
X428830D01*
Y658690D01*
X416990D01*
Y648250D01*
X420320D01*
Y629920D01*
X420517Y628929D01*
X421079Y628089D01*
X442669Y606499D01*
X443509Y605937D01*
X444500Y605740D01*
X488950D01*
X489941Y605937D01*
X490781Y606499D01*
X496423Y612140D01*
X497328D01*
X498728Y612720D01*
X499800Y613792D01*
X500380Y615192D01*
Y616708D01*
X499800Y618108D01*
X499448Y618460D01*
X500466Y621000D01*
X501680D01*
Y623630D01*
X507620D01*
Y621000D01*
X519460D01*
Y631440D01*
X507620D01*
Y628810D01*
X501680D01*
Y631440D01*
X489840D01*
Y621000D01*
X492674D01*
X493692Y618460D01*
X493340Y618108D01*
X492760Y616708D01*
Y615802D01*
X487877Y610920D01*
X485274D01*
X484228Y613460D01*
X484560Y613792D01*
X485140Y615192D01*
Y616708D01*
X484560Y618108D01*
X483746Y618922D01*
X483163Y620007D01*
X482630Y621365D01*
X482630Y622075D01*
Y631440D01*
X470790D01*
Y628810D01*
X464850D01*
Y631440D01*
X453010D01*
Y621080D01*
X453010Y621000D01*
X452817Y618540D01*
X449383D01*
X443280Y624643D01*
Y648250D01*
X446610D01*
Y658690D01*
D02*
G37*
G36*
X47830D02*
X35990D01*
Y648250D01*
X39320D01*
Y623570D01*
X39517Y622579D01*
X40079Y621739D01*
X47516Y614301D01*
X47491Y613429D01*
X46932Y611576D01*
X46278Y611435D01*
X26720Y630993D01*
Y648250D01*
X30050D01*
Y658690D01*
X18210D01*
Y648250D01*
X21540D01*
Y629920D01*
X21737Y628929D01*
X22299Y628089D01*
X43889Y606499D01*
X44729Y605937D01*
X45720Y605740D01*
X90170D01*
X91161Y605937D01*
X92001Y606499D01*
X97642Y612140D01*
X98548D01*
X99948Y612720D01*
X101020Y613792D01*
X101600Y615192D01*
Y616708D01*
X101020Y618108D01*
X100668Y618460D01*
X101686Y621000D01*
X102900D01*
Y623630D01*
X108840D01*
Y621000D01*
X120680D01*
Y631440D01*
X108840D01*
Y628810D01*
X102900D01*
Y631440D01*
X91060D01*
Y621000D01*
X93894D01*
X94912Y618460D01*
X94560Y618108D01*
X93980Y616708D01*
Y615802D01*
X89097Y610920D01*
X86494D01*
X85448Y613460D01*
X85780Y613792D01*
X86360Y615192D01*
Y616708D01*
X85780Y618108D01*
X84966Y618922D01*
X84383Y620007D01*
X83850Y621365D01*
X83850Y622075D01*
Y631440D01*
X72010D01*
Y628810D01*
X66070D01*
Y631440D01*
X54230D01*
Y621080D01*
X54230Y621000D01*
X54037Y618540D01*
X50603D01*
X44500Y624643D01*
Y648250D01*
X47830D01*
Y658690D01*
D02*
G37*
G36*
X487490Y594290D02*
X480290D01*
Y585190D01*
X487490D01*
Y594290D01*
D02*
G37*
G36*
X475210D02*
X468010D01*
Y585190D01*
X475210D01*
Y594290D01*
D02*
G37*
G36*
X395728Y596900D02*
X394212D01*
X392812Y596320D01*
X391740Y595248D01*
X391160Y593848D01*
Y592332D01*
X391740Y590932D01*
X392812Y589860D01*
X394077Y588395D01*
X393849Y586891D01*
X393764Y586687D01*
Y585171D01*
X394344Y583771D01*
X395416Y582699D01*
X396816Y582119D01*
X398332D01*
X399732Y582699D01*
X400804Y583771D01*
X401384Y585171D01*
Y586687D01*
X400804Y588087D01*
X399732Y589159D01*
X398467Y590623D01*
X398695Y592128D01*
X398780Y592332D01*
Y593848D01*
X398200Y595248D01*
X397128Y596320D01*
X395728Y596900D01*
D02*
G37*
G36*
X143510Y590600D02*
X127000D01*
X126009Y590403D01*
X125169Y589841D01*
X118819Y583491D01*
X118257Y582651D01*
X118060Y581660D01*
Y574298D01*
X117420Y573658D01*
X116840Y572258D01*
Y570742D01*
X117420Y569342D01*
X118492Y568270D01*
X119892Y567690D01*
X121408D01*
X122808Y568270D01*
X123880Y569342D01*
X124460Y570742D01*
Y572258D01*
X123880Y573658D01*
X123240Y574298D01*
Y580587D01*
X128073Y585420D01*
X133324D01*
X133612Y585174D01*
X134811Y582880D01*
X134620Y582418D01*
Y580902D01*
X135200Y579502D01*
X136272Y578430D01*
X137672Y577850D01*
X139188D01*
X140588Y578430D01*
X141660Y579502D01*
X142240Y580902D01*
Y582025D01*
X143304Y582805D01*
X144587Y583271D01*
X151138Y576720D01*
X150085Y574180D01*
X147060D01*
Y571550D01*
X141120D01*
Y574180D01*
X129280D01*
Y563740D01*
X141120D01*
Y566370D01*
X147060D01*
Y563740D01*
X156146D01*
X156334Y563592D01*
X157634Y561200D01*
X157480Y560828D01*
Y559312D01*
X155365Y557780D01*
X147060D01*
Y547340D01*
X150270D01*
Y543920D01*
X146670D01*
X146590Y543920D01*
X144130D01*
X144050Y543920D01*
X140450D01*
Y547340D01*
X141120D01*
Y557780D01*
X129280D01*
Y547340D01*
X135270D01*
Y543920D01*
X131590D01*
Y543920D01*
X129306Y542974D01*
X124899Y547381D01*
X124059Y547943D01*
X123068Y548140D01*
X117193D01*
X111760Y553573D01*
Y554478D01*
X111180Y555878D01*
X110108Y556950D01*
X108708Y557530D01*
X107192D01*
X105792Y556950D01*
X104896Y556054D01*
X104585Y555862D01*
X101827Y555531D01*
X101593Y555765D01*
X101020Y557148D01*
X99948Y558220D01*
X98548Y558800D01*
X97032D01*
X95632Y558220D01*
X94786Y557374D01*
X93345Y557252D01*
X91904Y557374D01*
X91058Y558220D01*
X89658Y558800D01*
X88142D01*
X86742Y558220D01*
X85670Y557148D01*
X85090Y555748D01*
Y554232D01*
X85670Y552832D01*
X86742Y551760D01*
X87971Y551251D01*
X93108Y546114D01*
Y539835D01*
X93140Y539672D01*
Y532570D01*
X104980D01*
Y539630D01*
X107520Y540682D01*
X110656Y537546D01*
X110920Y537369D01*
Y532570D01*
X122760D01*
Y538877D01*
X125107Y539849D01*
X128887Y536069D01*
X129727Y535507D01*
X130718Y535310D01*
X131590D01*
Y531880D01*
X144050D01*
X144130Y531880D01*
X146590D01*
X146670Y531880D01*
X150270D01*
Y527390D01*
X150375Y526861D01*
X150451Y526367D01*
X149994Y525490D01*
X149048Y524060D01*
X148192Y523488D01*
X147414Y522323D01*
X147141Y520950D01*
Y507450D01*
X147217Y507069D01*
X145975Y505827D01*
X145413Y504987D01*
X145216Y503996D01*
Y503633D01*
X145162Y503610D01*
X144090Y502538D01*
X143510Y501138D01*
Y499622D01*
X144090Y498222D01*
X145162Y497150D01*
X145411Y494298D01*
X137727Y486614D01*
X134590D01*
X133590Y488740D01*
X133590Y489154D01*
Y509480D01*
X119430D01*
Y516170D01*
X122760D01*
Y526610D01*
X110920D01*
Y516170D01*
X114250D01*
Y507390D01*
X114447Y506399D01*
X115009Y505559D01*
X116650Y503918D01*
Y488740D01*
X116705D01*
X117705Y486430D01*
X116385Y484810D01*
X107990D01*
X107910Y484810D01*
X105450D01*
X105370Y484810D01*
X101770D01*
Y488740D01*
X106870D01*
Y509480D01*
X101650D01*
Y516170D01*
X104980D01*
Y526610D01*
X93140D01*
Y516170D01*
X96470D01*
Y509480D01*
X89930D01*
Y488740D01*
X96590D01*
Y484810D01*
X92910D01*
Y472770D01*
X95200D01*
Y468080D01*
X91870D01*
Y457640D01*
X103710D01*
Y468080D01*
X100380D01*
Y472770D01*
X105370D01*
X105450Y472770D01*
X107910D01*
X107990Y472770D01*
X112980D01*
Y468080D01*
X109650D01*
Y457640D01*
X121490D01*
Y468080D01*
X118160D01*
Y472770D01*
X120450D01*
Y481398D01*
X126951Y487899D01*
X127513Y488739D01*
X127513Y488740D01*
X130496D01*
X130906Y487465D01*
X130919Y486200D01*
X130403Y485855D01*
X127148Y482600D01*
X126242D01*
X124842Y482020D01*
X123770Y480948D01*
X123190Y479548D01*
Y478032D01*
X123770Y476632D01*
X124842Y475560D01*
X125040Y473328D01*
X124460Y471928D01*
Y470412D01*
X125040Y469012D01*
X126112Y467940D01*
X127512Y467360D01*
X128418D01*
X135150Y460627D01*
Y456290D01*
X131470D01*
Y447410D01*
X131417Y447331D01*
X131220Y446340D01*
Y440830D01*
X127890D01*
Y430390D01*
X139730D01*
Y440830D01*
X136400D01*
Y444250D01*
X143930D01*
X144010Y444250D01*
X146470D01*
X149000Y444034D01*
Y440830D01*
X145670D01*
Y430390D01*
X157510D01*
Y440830D01*
X154180D01*
Y444250D01*
X159010D01*
Y452878D01*
X160680Y454548D01*
X163220Y453495D01*
Y444250D01*
X168050D01*
Y440830D01*
X164720D01*
Y430390D01*
X176560D01*
Y440830D01*
X173230D01*
Y444226D01*
X175760Y444250D01*
X178220D01*
Y444250D01*
X178300Y444250D01*
X185830D01*
Y440830D01*
X182500D01*
Y430390D01*
X194340D01*
Y440830D01*
X191010D01*
Y446340D01*
X193333Y447680D01*
X208602D01*
X208662Y447620D01*
X210062Y447040D01*
X211578D01*
X212978Y447620D01*
X214050Y448692D01*
X214630Y450092D01*
Y451608D01*
X214050Y453008D01*
X212978Y454080D01*
X211578Y454660D01*
X210062D01*
X208662Y454080D01*
X207590Y453008D01*
X207528Y452860D01*
X190760D01*
Y456290D01*
X182372D01*
X173635Y465027D01*
X173819Y465950D01*
Y479450D01*
X173634Y480380D01*
X174505Y482039D01*
X175200Y482920D01*
X177880D01*
X178380Y481712D01*
X179452Y480640D01*
X180852Y480060D01*
X182368D01*
X182379Y480064D01*
X184769Y480426D01*
X184769D01*
X184770Y480426D01*
Y480426D01*
X184773Y480424D01*
X184773Y480425D01*
X184778Y480422D01*
D01*
X186450Y479730D01*
X186450Y479391D01*
Y460800D01*
X203390D01*
Y481540D01*
X199226D01*
X198411Y482930D01*
X199788Y485470D01*
X203080D01*
Y492760D01*
X208160D01*
Y485470D01*
X211943D01*
X213160Y485470D01*
X213339Y485468D01*
X213434Y485350D01*
X212224Y482810D01*
X211900D01*
Y473710D01*
X219100D01*
Y482810D01*
X218940D01*
X218435Y485350D01*
X219328Y485720D01*
X220400Y486792D01*
X220980Y488192D01*
Y489708D01*
X220400Y491108D01*
X219328Y492180D01*
X217928Y492760D01*
X216412D01*
X215700Y492465D01*
X213736Y493379D01*
X213160Y493920D01*
X213160Y500050D01*
X213940Y500316D01*
Y505460D01*
X209990D01*
Y502590D01*
X209990Y500810D01*
X207765Y500050D01*
X206531D01*
X205300Y502080D01*
X205300Y502590D01*
Y513920D01*
X202670D01*
Y519860D01*
X205300D01*
Y531700D01*
X194860D01*
Y528370D01*
X185305D01*
X184074Y530910D01*
X184839Y531880D01*
X190880D01*
Y543920D01*
X187200D01*
Y547340D01*
X194460D01*
Y549020D01*
X201117D01*
X201210Y548927D01*
Y541450D01*
X211650D01*
Y551295D01*
X214190Y552347D01*
X217610Y548927D01*
Y541450D01*
X228050D01*
Y553290D01*
X225420D01*
Y559230D01*
X228050D01*
Y571070D01*
X217610D01*
Y561686D01*
X217610Y560255D01*
X215549Y558688D01*
X214968Y558770D01*
X214501Y559083D01*
X213510Y559280D01*
X211650D01*
Y571070D01*
X210655D01*
X210054Y573171D01*
X210034Y573610D01*
X211023Y574600D01*
X211603Y576000D01*
Y577516D01*
X211023Y578916D01*
X209952Y579988D01*
X208551Y580568D01*
X207036D01*
X205635Y579988D01*
X204564Y578916D01*
X203983Y577516D01*
Y576000D01*
X204081Y575764D01*
X204037Y575698D01*
X203840Y574707D01*
Y571070D01*
X201210D01*
X200710Y573403D01*
Y574040D01*
X200513Y575031D01*
X199951Y575871D01*
X197271Y578551D01*
X196431Y579113D01*
X195440Y579310D01*
X155873D01*
X145341Y589841D01*
X144501Y590403D01*
X143510Y590600D01*
D02*
G37*
G36*
X487490Y580110D02*
X480290D01*
Y571010D01*
X487490D01*
Y580110D01*
D02*
G37*
G36*
X475210D02*
X468010D01*
Y571010D01*
X475210D01*
Y580110D01*
D02*
G37*
G36*
X426208Y615950D02*
X424692D01*
X423292Y615370D01*
X422220Y614298D01*
X421640Y612898D01*
Y611382D01*
X422220Y609982D01*
X423013Y608330D01*
X422220Y606678D01*
X421640Y605278D01*
Y603762D01*
X421809Y603355D01*
X421778Y602887D01*
X420887Y600688D01*
X420668Y600412D01*
X420265Y599440D01*
Y548640D01*
X420668Y547668D01*
X421640Y547265D01*
X427321D01*
X427694Y547420D01*
X428089Y547500D01*
X428166Y547615D01*
X428293Y547668D01*
X428448Y548041D01*
X428671Y548377D01*
X429129Y550727D01*
X430420Y551790D01*
X431393Y552260D01*
X449790D01*
Y555918D01*
X449797Y555944D01*
X452330Y557508D01*
X452332Y557507D01*
X452450Y557160D01*
Y549424D01*
X451180Y547410D01*
X451180D01*
X451115Y544897D01*
X451060Y543750D01*
X448640Y543750D01*
X441960D01*
Y534010D01*
Y524270D01*
X451060D01*
Y529840D01*
X451180Y532330D01*
X453600Y532330D01*
X455930D01*
Y539870D01*
X458470D01*
Y542410D01*
X465760D01*
Y543450D01*
X465809Y543518D01*
X468300Y544938D01*
X468559Y544830D01*
X470075D01*
X471475Y545410D01*
X472547Y546482D01*
X474439Y546669D01*
X476654Y544850D01*
Y543857D01*
X476877Y542735D01*
X477513Y541783D01*
X478465Y541147D01*
X479588Y540924D01*
X480760D01*
Y544870D01*
X485840D01*
Y540924D01*
X487012D01*
X488135Y541147D01*
X489087Y541783D01*
X489453Y542330D01*
X492760D01*
Y546262D01*
X492951Y545801D01*
X493731Y545021D01*
X494749Y544599D01*
X495851D01*
X496869Y545021D01*
X497649Y545801D01*
X497840Y546262D01*
Y542330D01*
X503027D01*
X503587Y542219D01*
X511012D01*
X511640Y542343D01*
X512171Y542699D01*
X512527Y543230D01*
X512651Y543857D01*
Y545882D01*
X512545Y546420D01*
X513087Y546783D01*
X513723Y547735D01*
X513946Y548857D01*
Y550882D01*
X516258Y552280D01*
X521786D01*
Y548248D01*
X533626D01*
Y558688D01*
X530296D01*
Y565060D01*
X533626D01*
Y567691D01*
X538110D01*
Y565390D01*
X550150D01*
Y577930D01*
X550150D01*
Y578941D01*
X551006Y579981D01*
X554279Y580126D01*
X554891Y579515D01*
Y563485D01*
X551225Y559819D01*
X544130D01*
X543328Y559660D01*
X538360D01*
Y549620D01*
X543328D01*
X544130Y549460D01*
X553370D01*
X555352Y549855D01*
X557033Y550978D01*
X563732Y557677D01*
X564855Y559358D01*
X565249Y561340D01*
Y581660D01*
X564855Y583642D01*
X563732Y585322D01*
X558732Y590322D01*
X557052Y591445D01*
X555070Y591839D01*
X550150D01*
Y592930D01*
X538110D01*
Y591839D01*
X533626D01*
Y591900D01*
X521786D01*
Y591860D01*
X512940D01*
Y593020D01*
X496000D01*
Y572280D01*
X502121D01*
Y567410D01*
X497840D01*
Y563478D01*
X497649Y563939D01*
X496869Y564719D01*
X495851Y565140D01*
X494749D01*
X493731Y564719D01*
X492951Y563939D01*
X492760Y563478D01*
Y567410D01*
X487573D01*
X487012Y567522D01*
X479588D01*
X479277Y567460D01*
X477021D01*
X476756Y567570D01*
X476347Y567788D01*
X476279Y567767D01*
X476213Y567795D01*
X462385D01*
Y581660D01*
X461982Y582632D01*
X461010Y583035D01*
X447145D01*
Y599440D01*
X446742Y600412D01*
X445770Y600815D01*
X438199D01*
X437973Y600999D01*
X436711Y603355D01*
X436880Y603762D01*
Y605278D01*
X436300Y606678D01*
X435228Y607750D01*
X433828Y608330D01*
X432312D01*
X430912Y607750D01*
X430670Y607634D01*
X430129Y607769D01*
X428680Y609982D01*
X429260Y611382D01*
Y612898D01*
X428680Y614298D01*
X427608Y615370D01*
X426208Y615950D01*
D02*
G37*
G36*
X534896Y543558D02*
X530246D01*
Y539608D01*
X534896D01*
Y543558D01*
D02*
G37*
G36*
X525166D02*
X520516D01*
Y539608D01*
X525166D01*
Y543558D01*
D02*
G37*
G36*
X436880Y543750D02*
X427780D01*
Y536550D01*
X436880D01*
Y543750D01*
D02*
G37*
G36*
X465760Y537330D02*
X461010D01*
Y532330D01*
X465760D01*
Y537330D01*
D02*
G37*
G36*
X534896Y534528D02*
X530246D01*
Y530578D01*
X534896D01*
Y534528D01*
D02*
G37*
G36*
X525166D02*
X520516D01*
Y530578D01*
X525166D01*
Y534528D01*
D02*
G37*
G36*
X248920Y543635D02*
X248545Y543560D01*
X248162D01*
X247809Y543414D01*
X247433Y543339D01*
X247115Y543126D01*
X246762Y542980D01*
X246491Y542709D01*
X246173Y542497D01*
X245961Y542179D01*
X245690Y541908D01*
X245544Y541555D01*
X245331Y541237D01*
X245256Y540861D01*
X245110Y540508D01*
Y540125D01*
X245035Y539750D01*
Y533739D01*
X240961Y529665D01*
X221700D01*
Y531700D01*
X211260D01*
Y519860D01*
X221700D01*
Y521895D01*
X242570D01*
X244057Y522191D01*
X245317Y523033D01*
X251667Y529383D01*
X251879Y529701D01*
X252150Y529972D01*
X252296Y530325D01*
X252509Y530643D01*
X252584Y531019D01*
X252730Y531372D01*
Y531755D01*
X252805Y532130D01*
Y539750D01*
X252730Y540125D01*
Y540508D01*
X252584Y540861D01*
X252509Y541237D01*
X252296Y541555D01*
X252150Y541908D01*
X251879Y542179D01*
X251667Y542497D01*
X251349Y542709D01*
X251078Y542980D01*
X250725Y543126D01*
X250407Y543339D01*
X250031Y543414D01*
X249678Y543560D01*
X249295D01*
X248920Y543635D01*
D02*
G37*
G36*
X436880Y531470D02*
X427780D01*
Y524270D01*
X436880D01*
Y531470D01*
D02*
G37*
G36*
X495281Y523190D02*
X494179D01*
X493161Y522768D01*
X492382Y521989D01*
X491960Y520971D01*
Y519869D01*
X492382Y518851D01*
X493161Y518072D01*
X494179Y517650D01*
X495281D01*
X496299Y518072D01*
X497078Y518851D01*
X497500Y519869D01*
Y520971D01*
X497078Y521989D01*
X496299Y522768D01*
X495281Y523190D01*
D02*
G37*
G36*
X517648Y524510D02*
X516132D01*
X514732Y523930D01*
X513660Y522858D01*
X513080Y521458D01*
Y519942D01*
X513660Y518542D01*
X514732Y517470D01*
X516132Y516890D01*
X517648D01*
X519048Y517470D01*
X520120Y518542D01*
X520700Y519942D01*
Y521458D01*
X520120Y522858D01*
X519048Y523930D01*
X517648Y524510D01*
D02*
G37*
G36*
X498781Y515690D02*
X497679D01*
X496661Y515268D01*
X496197Y514804D01*
X494730Y514628D01*
X493263Y514804D01*
X492799Y515268D01*
X491781Y515690D01*
X490679D01*
X489661Y515268D01*
X488882Y514489D01*
X488460Y513471D01*
Y512369D01*
X488882Y511351D01*
X489661Y510572D01*
X490679Y510150D01*
X491781D01*
X492799Y510572D01*
X493263Y511036D01*
X494730Y511212D01*
X496197Y511036D01*
X496661Y510572D01*
X497679Y510150D01*
X498781D01*
X499799Y510572D01*
X500578Y511351D01*
X501000Y512369D01*
Y513471D01*
X500578Y514489D01*
X499799Y515268D01*
X498781Y515690D01*
D02*
G37*
G36*
X384260Y531820D02*
X373820D01*
Y519980D01*
X384260D01*
Y521895D01*
X391085D01*
Y518160D01*
X391160Y517785D01*
Y517402D01*
X391306Y517049D01*
X391381Y516673D01*
X391594Y516355D01*
X391740Y516002D01*
X392011Y515731D01*
X392223Y515413D01*
X392541Y515201D01*
X392812Y514930D01*
X393165Y514784D01*
X393483Y514571D01*
X393859Y514496D01*
X394212Y514350D01*
X394595D01*
X394970Y514275D01*
X395345Y514350D01*
X395728D01*
X396081Y514496D01*
X396457Y514571D01*
X396775Y514784D01*
X397128Y514930D01*
X397399Y515201D01*
X397717Y515413D01*
X397929Y515731D01*
X398200Y516002D01*
X398346Y516355D01*
X398559Y516673D01*
X398634Y517049D01*
X398780Y517402D01*
Y517785D01*
X398855Y518160D01*
Y525780D01*
X398780Y526155D01*
Y526538D01*
X398634Y526891D01*
X398559Y527267D01*
X398346Y527585D01*
X398200Y527938D01*
X397929Y528209D01*
X397717Y528527D01*
X397399Y528739D01*
X397128Y529010D01*
X396775Y529156D01*
X396457Y529369D01*
X396081Y529444D01*
X395728Y529590D01*
X395345D01*
X394970Y529665D01*
X384260D01*
Y531820D01*
D02*
G37*
G36*
X385530Y515310D02*
X381580D01*
Y510660D01*
X385530D01*
Y515310D01*
D02*
G37*
G36*
X376500D02*
X372550D01*
Y510660D01*
X376500D01*
Y515310D01*
D02*
G37*
G36*
X222970Y515190D02*
X219020D01*
Y510540D01*
X222970D01*
Y515190D01*
D02*
G37*
G36*
X213940D02*
X209990D01*
Y510540D01*
X213940D01*
Y515190D01*
D02*
G37*
G36*
X495281Y508190D02*
X494179D01*
X493161Y507768D01*
X492382Y506989D01*
X491960Y505971D01*
Y504869D01*
X492382Y503851D01*
X493161Y503072D01*
X494179Y502650D01*
X495281D01*
X496299Y503072D01*
X497078Y503851D01*
X497500Y504869D01*
Y505971D01*
X497078Y506989D01*
X496299Y507768D01*
X495281Y508190D01*
D02*
G37*
G36*
X517648Y509270D02*
X516132D01*
X514732Y508690D01*
X513660Y507618D01*
X513080Y506218D01*
Y504702D01*
X513660Y503302D01*
X514732Y502230D01*
X516132Y501650D01*
X517648D01*
X519048Y502230D01*
X520120Y503302D01*
X520700Y504702D01*
Y506218D01*
X520120Y507618D01*
X519048Y508690D01*
X517648Y509270D01*
D02*
G37*
G36*
X385530Y505580D02*
X381580D01*
Y500930D01*
X385530D01*
Y505580D01*
D02*
G37*
G36*
X222970Y505460D02*
X219020D01*
Y500810D01*
X222970D01*
Y505460D01*
D02*
G37*
G36*
X471928Y478790D02*
X470412D01*
X469012Y478210D01*
X468166Y477364D01*
X466725Y477242D01*
X465284Y477364D01*
X464438Y478210D01*
X463038Y478790D01*
X461522D01*
X460122Y478210D01*
X459276Y477364D01*
X457835Y477242D01*
X456394Y477364D01*
X455548Y478210D01*
X454148Y478790D01*
X452632D01*
X451232Y478210D01*
X450386Y477364D01*
X448945Y477242D01*
X447504Y477364D01*
X446658Y478210D01*
X445258Y478790D01*
X443742D01*
X442342Y478210D01*
X441270Y477138D01*
X440690Y475738D01*
Y474222D01*
X441270Y472822D01*
X442063Y471170D01*
X441270Y469518D01*
X440690Y468118D01*
Y466602D01*
X441270Y465202D01*
X442342Y464130D01*
X443742Y463550D01*
X445258D01*
X446658Y464130D01*
X447504Y464976D01*
X448945Y465098D01*
X450386Y464976D01*
X451232Y464130D01*
X452632Y463550D01*
X454148D01*
X455548Y464130D01*
X456394Y464976D01*
X457835Y465098D01*
X459276Y464976D01*
X460122Y464130D01*
X461522Y463550D01*
X463038D01*
X464438Y464130D01*
X465284Y464976D01*
X466725Y465098D01*
X468166Y464976D01*
X469012Y464130D01*
X470412Y463550D01*
X471928D01*
X473328Y464130D01*
X474400Y465202D01*
X474980Y466602D01*
Y468118D01*
X474400Y469518D01*
X473607Y471170D01*
X474400Y472822D01*
X474980Y474222D01*
Y475738D01*
X474400Y477138D01*
X473328Y478210D01*
X471928Y478790D01*
D02*
G37*
G36*
X393940Y482930D02*
X386740D01*
Y473830D01*
X393940D01*
Y482930D01*
D02*
G37*
G36*
X231380Y482810D02*
X224180D01*
Y473710D01*
X231380D01*
Y482810D01*
D02*
G37*
G36*
X393940Y468750D02*
X386740D01*
Y459650D01*
X393940D01*
Y468750D01*
D02*
G37*
G36*
X381660D02*
X374460D01*
Y459650D01*
X381660D01*
Y468750D01*
D02*
G37*
G36*
X231380Y468630D02*
X224180D01*
Y459530D01*
X231380D01*
Y468630D01*
D02*
G37*
G36*
X219100D02*
X211900D01*
Y459530D01*
X219100D01*
Y468630D01*
D02*
G37*
G36*
X47049Y477520D02*
X41851D01*
X36718Y476707D01*
X31775Y475101D01*
X27144Y472741D01*
X22939Y469686D01*
X19264Y466011D01*
X16209Y461806D01*
X13849Y457175D01*
X12243Y452232D01*
X11430Y447099D01*
Y441901D01*
X12243Y436768D01*
X13849Y431825D01*
X16209Y427194D01*
X19264Y422989D01*
X22939Y419314D01*
X27144Y416259D01*
X31775Y413899D01*
X36718Y412293D01*
X41851Y411480D01*
X47049D01*
X52182Y412293D01*
X57125Y413899D01*
X61756Y416259D01*
X65961Y419314D01*
X69636Y422989D01*
X72691Y427194D01*
X75051Y431825D01*
X76657Y436768D01*
X77470Y441901D01*
Y447099D01*
X76657Y452232D01*
X75051Y457175D01*
X72691Y461806D01*
X69636Y466011D01*
X65961Y469686D01*
X61756Y472741D01*
X57125Y475101D01*
X52182Y476707D01*
X47049Y477520D01*
D02*
G37*
G36*
X413760Y417830D02*
X411740D01*
X409872Y417057D01*
X408443Y415628D01*
X407670Y413760D01*
Y411740D01*
X408443Y409872D01*
X409872Y408443D01*
X411740Y407670D01*
X413760D01*
X415628Y408443D01*
X417057Y409872D01*
X417830Y411740D01*
Y413760D01*
X417057Y415628D01*
X415628Y417057D01*
X413760Y417830D01*
D02*
G37*
G36*
X88388Y412750D02*
X86872D01*
X85472Y412170D01*
X84400Y411098D01*
X83820Y409698D01*
X83411Y408079D01*
X81792Y407670D01*
X80392Y407090D01*
X78740Y406297D01*
X77088Y407090D01*
X75688Y407670D01*
X74172D01*
X72772Y407090D01*
X71700Y406018D01*
X71120Y404618D01*
Y403102D01*
X71700Y401702D01*
X72772Y400630D01*
X74172Y400050D01*
X75688D01*
X77088Y400630D01*
X78740Y401423D01*
X80392Y400630D01*
X81792Y400050D01*
X83308D01*
X84708Y400630D01*
X85780Y401702D01*
X86360Y403102D01*
X86769Y404721D01*
X88388Y405130D01*
X89788Y405710D01*
X90860Y406782D01*
X91440Y408182D01*
Y409698D01*
X90860Y411098D01*
X89788Y412170D01*
X88388Y412750D01*
D02*
G37*
G36*
X284050Y451800D02*
X272210D01*
Y441360D01*
X275540D01*
Y416680D01*
X275737Y415689D01*
X276299Y414849D01*
X283736Y407411D01*
X283711Y406539D01*
X283152Y404686D01*
X282498Y404545D01*
X262940Y424103D01*
Y441360D01*
X266270D01*
Y451800D01*
X254430D01*
Y441360D01*
X257760D01*
Y423030D01*
X257957Y422039D01*
X258519Y421199D01*
X280109Y399609D01*
X280949Y399047D01*
X281940Y398850D01*
X326390D01*
X327381Y399047D01*
X328221Y399609D01*
X333862Y405250D01*
X334768D01*
X336168Y405830D01*
X337240Y406902D01*
X337820Y408302D01*
Y409818D01*
X337240Y411218D01*
X336888Y411570D01*
X337906Y414110D01*
X339120D01*
Y416740D01*
X345060D01*
Y414110D01*
X356900D01*
Y424550D01*
X345060D01*
Y421920D01*
X339120D01*
Y424550D01*
X327280D01*
Y414110D01*
X330114D01*
X331132Y411570D01*
X330780Y411218D01*
X330200Y409818D01*
Y408913D01*
X325317Y404030D01*
X322714D01*
X321668Y406570D01*
X322000Y406902D01*
X322580Y408302D01*
Y409818D01*
X322000Y411218D01*
X321186Y412032D01*
X320603Y413117D01*
X320070Y414474D01*
X320070Y415186D01*
Y424550D01*
X308230D01*
Y421920D01*
X302290D01*
Y424550D01*
X290450D01*
Y414190D01*
X290450Y414110D01*
X290257Y411650D01*
X286823D01*
X280720Y417753D01*
Y441360D01*
X284050D01*
Y451800D01*
D02*
G37*
G36*
X121490Y451680D02*
X109650D01*
Y441240D01*
X112980D01*
Y416560D01*
X113177Y415569D01*
X113739Y414729D01*
X121176Y407291D01*
X121151Y406419D01*
X120592Y404566D01*
X119938Y404425D01*
X100380Y423983D01*
Y441240D01*
X103710D01*
Y451680D01*
X91870D01*
Y441240D01*
X95200D01*
Y422910D01*
X95397Y421919D01*
X95959Y421079D01*
X117549Y399489D01*
X118389Y398927D01*
X119380Y398730D01*
X163830D01*
X164821Y398927D01*
X165661Y399489D01*
X171059Y404887D01*
X171965D01*
X173365Y405467D01*
X174437Y406539D01*
X175017Y407939D01*
Y409455D01*
X174437Y410855D01*
X173842Y411450D01*
X174436Y413687D01*
X174621Y413990D01*
X176560D01*
Y416620D01*
X182500D01*
Y413990D01*
X194340D01*
Y424430D01*
X182500D01*
Y421800D01*
X176560D01*
Y424430D01*
X164720D01*
Y413990D01*
X167793D01*
X167978Y413687D01*
X168572Y411450D01*
X167977Y410855D01*
X167397Y409455D01*
Y408549D01*
X162757Y403910D01*
X160154D01*
X159108Y406450D01*
X159440Y406782D01*
X160020Y408182D01*
Y409698D01*
X159440Y411098D01*
X158626Y411912D01*
X158043Y412997D01*
X157510Y414355D01*
X157510Y415065D01*
Y424430D01*
X145670D01*
Y421800D01*
X139730D01*
Y424430D01*
X127890D01*
Y414070D01*
X127890Y413990D01*
X127697Y411530D01*
X124263D01*
X118160Y417633D01*
Y441240D01*
X121490D01*
Y451680D01*
D02*
G37*
G36*
X244598Y408940D02*
X243082D01*
X241682Y408360D01*
X240610Y407288D01*
X240030Y405888D01*
Y404372D01*
X240610Y402972D01*
X241403Y401320D01*
X240610Y399668D01*
X240030Y398268D01*
Y396752D01*
X240610Y395352D01*
X241403Y393700D01*
X240610Y392048D01*
X240030Y390648D01*
Y389132D01*
X240610Y387732D01*
X241682Y386660D01*
X243082Y386080D01*
X244598D01*
X245998Y386660D01*
X247070Y387732D01*
X247650Y389132D01*
Y390648D01*
X247070Y392048D01*
X246277Y393700D01*
X247070Y395352D01*
X247650Y396752D01*
Y398268D01*
X247070Y399668D01*
X246277Y401320D01*
X247070Y402972D01*
X247650Y404372D01*
Y405888D01*
X247070Y407288D01*
X245998Y408360D01*
X244598Y408940D01*
D02*
G37*
G36*
X76200Y382320D02*
X59690D01*
X58699Y382123D01*
X57859Y381561D01*
X51509Y375211D01*
X50947Y374371D01*
X50750Y373380D01*
Y370974D01*
X48210Y369928D01*
X47878Y370260D01*
X46478Y370840D01*
X44962D01*
X43562Y370260D01*
X42828Y369526D01*
X41467Y369308D01*
X39868Y369495D01*
X39178Y370185D01*
X37778Y370765D01*
X36262D01*
X34862Y370185D01*
X33790Y369113D01*
X33210Y367713D01*
Y366197D01*
X33790Y364797D01*
X34862Y363725D01*
X34908Y361338D01*
X33694Y360125D01*
X33664Y360105D01*
X26286Y352727D01*
X25584Y351676D01*
X25338Y350438D01*
Y340443D01*
X25584Y339204D01*
X26286Y338153D01*
X27169Y337270D01*
X26117Y334730D01*
X25830D01*
Y324290D01*
X37670D01*
Y331762D01*
X40210Y332814D01*
X43610Y329414D01*
Y324290D01*
X55450D01*
Y330597D01*
X57797Y331569D01*
X61577Y327789D01*
X62417Y327227D01*
X63408Y327030D01*
X64280D01*
Y323600D01*
X76740D01*
X76820Y323600D01*
X79280D01*
X79360Y323600D01*
X82960D01*
Y319110D01*
X83066Y318581D01*
X83141Y318087D01*
X82684Y317210D01*
X81738Y315780D01*
X80882Y315208D01*
X80104Y314043D01*
X79831Y312670D01*
Y299170D01*
X79907Y298789D01*
X78665Y297547D01*
X78103Y296707D01*
X77906Y295716D01*
Y295352D01*
X77852Y295330D01*
X76780Y294258D01*
X76200Y292858D01*
Y291342D01*
X76780Y289942D01*
X77852Y288870D01*
X77640Y286208D01*
X69766Y278334D01*
X67280D01*
X66280Y280460D01*
X66280Y280874D01*
Y301200D01*
X52120D01*
Y307890D01*
X55450D01*
Y318330D01*
X43610D01*
Y307890D01*
X46940D01*
Y299110D01*
X47137Y298119D01*
X47699Y297279D01*
X49340Y295637D01*
Y280460D01*
X49395D01*
X50395Y278150D01*
X49075Y276530D01*
X40680D01*
X40600Y276530D01*
X38140D01*
X38060Y276530D01*
X34460D01*
Y280460D01*
X39560D01*
Y301200D01*
X34340D01*
Y307890D01*
X37670D01*
Y318330D01*
X25830D01*
Y307890D01*
X29160D01*
Y301200D01*
X22620D01*
Y280460D01*
X29280D01*
Y276530D01*
X25600D01*
Y264490D01*
X27890D01*
Y259800D01*
X24560D01*
Y249360D01*
X36400D01*
Y259800D01*
X33070D01*
Y264490D01*
X38060D01*
X38140Y264490D01*
X40600D01*
X40680Y264490D01*
X45670D01*
Y259800D01*
X42340D01*
Y249360D01*
X54180D01*
Y259800D01*
X50850D01*
Y264490D01*
X53140D01*
Y273118D01*
X59641Y279619D01*
X60203Y280459D01*
X60203Y280460D01*
X63186D01*
X63596Y279185D01*
X63609Y277920D01*
X63093Y277575D01*
X59837Y274320D01*
X58932D01*
X57532Y273740D01*
X56460Y272668D01*
X55880Y271268D01*
Y269752D01*
X56460Y268352D01*
X57532Y267280D01*
X57730Y265048D01*
X57150Y263648D01*
Y262132D01*
X57730Y260732D01*
X58802Y259660D01*
X60202Y259080D01*
X61108D01*
X67840Y252347D01*
Y248010D01*
X64160D01*
Y239130D01*
X64107Y239051D01*
X63910Y238060D01*
Y232550D01*
X60580D01*
Y222110D01*
X72420D01*
Y232550D01*
X69090D01*
Y235970D01*
X76620D01*
X76700Y235970D01*
X79160D01*
X81690Y235754D01*
Y232550D01*
X78360D01*
Y222110D01*
X90200D01*
Y232550D01*
X86870D01*
Y235970D01*
X91700D01*
Y244597D01*
X93370Y246268D01*
X95910Y245215D01*
Y235970D01*
X100740D01*
Y232550D01*
X97410D01*
Y222110D01*
X109250D01*
Y232550D01*
X105920D01*
Y235946D01*
X108450Y235970D01*
X110910D01*
Y235970D01*
X110990Y235970D01*
X118520D01*
Y232550D01*
X115190D01*
Y222110D01*
X127030D01*
Y232550D01*
X123700D01*
Y238060D01*
X126023Y239400D01*
X141292D01*
X141352Y239340D01*
X142752Y238760D01*
X144268D01*
X145668Y239340D01*
X146740Y240412D01*
X147320Y241812D01*
Y243328D01*
X146740Y244728D01*
X145668Y245800D01*
X144268Y246380D01*
X142752D01*
X141352Y245800D01*
X140280Y244728D01*
X140218Y244580D01*
X123450D01*
Y248010D01*
X115063D01*
X106325Y256747D01*
X106509Y257670D01*
Y271170D01*
X106324Y272100D01*
X107194Y273759D01*
X107890Y274640D01*
X110569D01*
X111070Y273432D01*
X112142Y272360D01*
X113542Y271780D01*
X115058D01*
X115069Y271784D01*
X117459Y272146D01*
X117459D01*
X117460Y272146D01*
Y272146D01*
X117463Y272145D01*
X117463Y272145D01*
X117469Y272142D01*
D01*
X119140Y271450D01*
X119140Y271111D01*
Y252520D01*
X136080D01*
Y273260D01*
X131916D01*
X131101Y274650D01*
X132478Y277190D01*
X135770D01*
Y284480D01*
X140850D01*
Y277190D01*
X144633D01*
X145850Y277190D01*
X146029Y277188D01*
X146124Y277070D01*
X144914Y274530D01*
X144590D01*
Y265430D01*
X151790D01*
Y274530D01*
X151630D01*
X151125Y277070D01*
X152018Y277440D01*
X153090Y278512D01*
X153670Y279912D01*
Y281428D01*
X153090Y282828D01*
X152018Y283900D01*
X150618Y284480D01*
X149102D01*
X148390Y284185D01*
X146426Y285099D01*
X145850Y285640D01*
X145850Y291770D01*
X146630Y292036D01*
Y297180D01*
X142680D01*
Y294310D01*
X142680Y292530D01*
X140455Y291770D01*
X139221D01*
X137990Y293800D01*
X137990Y294310D01*
Y305640D01*
X135360D01*
Y311580D01*
X137990D01*
Y323420D01*
X127550D01*
Y320090D01*
X117995D01*
X116764Y322630D01*
X117529Y323600D01*
X123570D01*
Y335640D01*
X119890D01*
Y339060D01*
X127150D01*
Y340740D01*
X133807D01*
X133900Y340648D01*
Y333170D01*
X144340D01*
Y343015D01*
X146880Y344067D01*
X150300Y340648D01*
Y333170D01*
X160740D01*
Y345010D01*
X158110D01*
Y350950D01*
X160740D01*
Y362790D01*
X150300D01*
Y353406D01*
X150300Y351975D01*
X148239Y350408D01*
X147658Y350490D01*
X147191Y350803D01*
X146200Y351000D01*
X144340D01*
Y362790D01*
X141710D01*
Y367462D01*
X142350Y368102D01*
X142930Y369502D01*
Y371018D01*
X142350Y372418D01*
X141278Y373490D01*
X139878Y374070D01*
X138362D01*
X136962Y373490D01*
X135890Y372418D01*
X135310Y371018D01*
Y369502D01*
X135890Y368102D01*
X136530Y367462D01*
Y362790D01*
X133900D01*
X133400Y365123D01*
Y365760D01*
X133203Y366751D01*
X132641Y367591D01*
X129961Y370271D01*
X129121Y370833D01*
X128130Y371030D01*
X88563D01*
X78031Y381561D01*
X77191Y382123D01*
X76200Y382320D01*
D02*
G37*
G36*
X269240D02*
X252730D01*
X251739Y382123D01*
X250899Y381561D01*
X244549Y375211D01*
X243987Y374371D01*
X243790Y373380D01*
Y366018D01*
X243150Y365378D01*
X242570Y363978D01*
Y362462D01*
X243150Y361062D01*
X244222Y359990D01*
X245622Y359410D01*
X247138D01*
X248538Y359990D01*
X249610Y361062D01*
X250190Y362462D01*
Y363978D01*
X249610Y365378D01*
X248970Y366018D01*
Y372307D01*
X253803Y377140D01*
X259054D01*
X259342Y376894D01*
X260541Y374600D01*
X260350Y374138D01*
Y372622D01*
X260930Y371222D01*
X262002Y370150D01*
X263402Y369570D01*
X264918D01*
X266318Y370150D01*
X267390Y371222D01*
X267970Y372622D01*
Y373745D01*
X269034Y374525D01*
X270317Y374991D01*
X276868Y368440D01*
X275815Y365900D01*
X272790D01*
Y363270D01*
X266850D01*
Y365900D01*
X255010D01*
Y355460D01*
X266850D01*
Y358090D01*
X272790D01*
Y355460D01*
X281876D01*
X282064Y355312D01*
X283364Y352920D01*
X283210Y352548D01*
Y351032D01*
X281095Y349500D01*
X272790D01*
Y339060D01*
X276000D01*
Y335640D01*
X272400D01*
X272320Y335640D01*
X269860D01*
X269780Y335640D01*
X266180D01*
Y339060D01*
X266850D01*
Y349500D01*
X255010D01*
Y339060D01*
X261000D01*
Y335640D01*
X257320D01*
Y335640D01*
X255037Y334694D01*
X250629Y339101D01*
X249789Y339663D01*
X248798Y339860D01*
X242923D01*
X237490Y345293D01*
Y346198D01*
X236910Y347598D01*
X235838Y348670D01*
X234438Y349250D01*
X232922D01*
X231522Y348670D01*
X230450Y347598D01*
X227557Y347251D01*
X227323Y347485D01*
X226750Y348868D01*
X225678Y349940D01*
X224278Y350520D01*
X222762D01*
X221362Y349940D01*
X220516Y349094D01*
X219075Y348971D01*
X217634Y349094D01*
X216788Y349940D01*
X215388Y350520D01*
X213872D01*
X212472Y349940D01*
X211400Y348868D01*
X210820Y347468D01*
Y345952D01*
X211400Y344552D01*
X212472Y343480D01*
X213701Y342971D01*
X218838Y337834D01*
Y331555D01*
X218870Y331392D01*
Y324290D01*
X230710D01*
Y331350D01*
X233250Y332402D01*
X236386Y329266D01*
X236650Y329090D01*
Y324290D01*
X248490D01*
Y330597D01*
X250837Y331569D01*
X254617Y327789D01*
X255457Y327227D01*
X256448Y327030D01*
X257320D01*
Y323600D01*
X269780D01*
X269860Y323600D01*
X272320D01*
X272400Y323600D01*
X276000D01*
Y319110D01*
X276105Y318581D01*
X276181Y318087D01*
X275724Y317210D01*
X274778Y315780D01*
X273922Y315208D01*
X273144Y314043D01*
X272871Y312670D01*
Y299170D01*
X272947Y298789D01*
X271705Y297547D01*
X271143Y296707D01*
X270946Y295716D01*
Y295352D01*
X270892Y295330D01*
X269820Y294258D01*
X269240Y292858D01*
Y291342D01*
X269820Y289942D01*
X270892Y288870D01*
X270680Y286208D01*
X262806Y278334D01*
X260319D01*
X259320Y280460D01*
X259320Y280874D01*
Y301200D01*
X245160D01*
Y307890D01*
X248490D01*
Y318330D01*
X236650D01*
Y307890D01*
X239980D01*
Y299110D01*
X240177Y298119D01*
X240739Y297279D01*
X242380Y295637D01*
Y280460D01*
X242435D01*
X243435Y278150D01*
X242115Y276530D01*
X233720D01*
X233640Y276530D01*
X231180D01*
X231100Y276530D01*
X227500D01*
Y280460D01*
X232600D01*
Y301200D01*
X227380D01*
Y307890D01*
X230710D01*
Y318330D01*
X218870D01*
Y307890D01*
X222200D01*
Y301200D01*
X215660D01*
Y280460D01*
X222320D01*
Y276530D01*
X218640D01*
Y264490D01*
X220930D01*
Y259800D01*
X217600D01*
Y249360D01*
X229440D01*
Y259800D01*
X226110D01*
Y264490D01*
X231100D01*
X231180Y264490D01*
X233640D01*
X233720Y264490D01*
X238710D01*
Y259800D01*
X235380D01*
Y249360D01*
X247220D01*
Y259800D01*
X243890D01*
Y264490D01*
X246180D01*
Y273118D01*
X252681Y279619D01*
X253243Y280459D01*
X253243Y280460D01*
X256226D01*
X256636Y279185D01*
X256649Y277920D01*
X256133Y277575D01*
X252878Y274320D01*
X251972D01*
X250572Y273740D01*
X249500Y272668D01*
X248920Y271268D01*
Y269752D01*
X249500Y268352D01*
X250572Y267280D01*
X250770Y265048D01*
X250190Y263648D01*
Y262132D01*
X250770Y260732D01*
X251842Y259660D01*
X253242Y259080D01*
X254147D01*
X260880Y252347D01*
Y248010D01*
X257200D01*
Y239130D01*
X257147Y239051D01*
X256950Y238060D01*
Y232550D01*
X253620D01*
Y222110D01*
X265460D01*
Y232550D01*
X262130D01*
Y235970D01*
X269660D01*
X269740Y235970D01*
X272200D01*
X274730Y235754D01*
Y232550D01*
X271400D01*
Y222110D01*
X283240D01*
Y232550D01*
X279910D01*
Y235970D01*
X284740D01*
Y244597D01*
X286410Y246268D01*
X288950Y245215D01*
Y235970D01*
X293780D01*
Y232550D01*
X290450D01*
Y222110D01*
X302290D01*
Y232550D01*
X298960D01*
Y235946D01*
X301490Y235970D01*
X303950D01*
Y235970D01*
X304030Y235970D01*
X311560D01*
Y232550D01*
X308230D01*
Y222110D01*
X320070D01*
Y232550D01*
X316740D01*
Y238060D01*
X319063Y239400D01*
X334332D01*
X334392Y239340D01*
X335792Y238760D01*
X337308D01*
X338708Y239340D01*
X339780Y240412D01*
X340360Y241812D01*
Y243328D01*
X339780Y244728D01*
X338708Y245800D01*
X337308Y246380D01*
X335792D01*
X334392Y245800D01*
X333320Y244728D01*
X333259Y244580D01*
X316490D01*
Y248010D01*
X308102D01*
X299365Y256747D01*
X299549Y257670D01*
Y271170D01*
X299364Y272100D01*
X300235Y273759D01*
X300930Y274640D01*
X303610D01*
X304110Y273432D01*
X305182Y272360D01*
X306582Y271780D01*
X308098D01*
X308109Y271784D01*
X310499Y272146D01*
X310499D01*
X310500Y272146D01*
Y272146D01*
X310503Y272145D01*
X310503Y272145D01*
X310508Y272142D01*
D01*
X312180Y271450D01*
X312180Y271111D01*
Y252520D01*
X329120D01*
Y273260D01*
X324956D01*
X324141Y274650D01*
X325518Y277190D01*
X328810D01*
Y284480D01*
X333890D01*
Y277190D01*
X337673D01*
X338890Y277190D01*
X339069Y277188D01*
X339164Y277070D01*
X337954Y274530D01*
X337630D01*
Y265430D01*
X344830D01*
Y274530D01*
X344670D01*
X344165Y277070D01*
X345058Y277440D01*
X346130Y278512D01*
X346710Y279912D01*
Y281428D01*
X346130Y282828D01*
X345058Y283900D01*
X343658Y284480D01*
X342142D01*
X341430Y284185D01*
X339466Y285099D01*
X338890Y285640D01*
X338890Y291770D01*
X339670Y292036D01*
Y297180D01*
X335720D01*
Y294310D01*
X335720Y292530D01*
X333495Y291770D01*
X332261D01*
X331030Y293800D01*
X331030Y294310D01*
Y305640D01*
X328400D01*
Y311580D01*
X331030D01*
Y323420D01*
X320590D01*
Y320090D01*
X311035D01*
X309804Y322630D01*
X310569Y323600D01*
X316610D01*
Y335640D01*
X312930D01*
Y339060D01*
X320190D01*
Y340740D01*
X326847D01*
X326940Y340648D01*
Y333170D01*
X337380D01*
Y343015D01*
X339920Y344067D01*
X343340Y340648D01*
Y333170D01*
X353780D01*
Y345010D01*
X351150D01*
Y350950D01*
X353780D01*
Y362790D01*
X343340D01*
Y353406D01*
X343340Y351975D01*
X341279Y350408D01*
X340698Y350490D01*
X340231Y350803D01*
X339240Y351000D01*
X337380D01*
Y362790D01*
X334750D01*
Y367462D01*
X335390Y368102D01*
X335970Y369502D01*
Y371018D01*
X335390Y372418D01*
X334318Y373490D01*
X332918Y374070D01*
X331402D01*
X330002Y373490D01*
X328930Y372418D01*
X328350Y371018D01*
Y369502D01*
X328930Y368102D01*
X329570Y367462D01*
Y362790D01*
X326940D01*
X326440Y365123D01*
Y365760D01*
X326243Y366751D01*
X325681Y367591D01*
X323001Y370271D01*
X322161Y370833D01*
X321170Y371030D01*
X281603D01*
X271071Y381561D01*
X270231Y382123D01*
X269240Y382320D01*
D02*
G37*
G36*
X347430Y323420D02*
X336990D01*
Y311580D01*
X347430D01*
Y313615D01*
X364490D01*
X364865Y313690D01*
X365248D01*
X365601Y313836D01*
X365977Y313911D01*
X366295Y314124D01*
X366648Y314270D01*
X366919Y314541D01*
X367237Y314753D01*
X367449Y315071D01*
X367720Y315342D01*
X367866Y315695D01*
X368079Y316013D01*
X368154Y316389D01*
X368300Y316742D01*
Y317125D01*
X368375Y317500D01*
X368300Y317875D01*
Y318258D01*
X368154Y318611D01*
X368079Y318987D01*
X367866Y319305D01*
X367720Y319658D01*
X367449Y319929D01*
X367237Y320247D01*
X366919Y320459D01*
X366648Y320730D01*
X366295Y320876D01*
X365977Y321089D01*
X365601Y321164D01*
X365248Y321310D01*
X364865D01*
X364490Y321385D01*
X347430D01*
Y323420D01*
D02*
G37*
G36*
X540470D02*
X530030D01*
Y311580D01*
X540470D01*
Y313615D01*
X558725D01*
Y309880D01*
X558800Y309505D01*
Y309122D01*
X558946Y308769D01*
X559021Y308393D01*
X559234Y308075D01*
X559380Y307722D01*
X559651Y307451D01*
X559863Y307133D01*
X560181Y306921D01*
X560452Y306650D01*
X560805Y306504D01*
X561123Y306291D01*
X561499Y306216D01*
X561852Y306070D01*
X562235D01*
X562610Y305995D01*
X562985Y306070D01*
X563368D01*
X563721Y306216D01*
X564097Y306291D01*
X564415Y306504D01*
X564768Y306650D01*
X565039Y306921D01*
X565357Y307133D01*
X565569Y307451D01*
X565840Y307722D01*
X565986Y308075D01*
X566199Y308393D01*
X566274Y308769D01*
X566420Y309122D01*
Y309505D01*
X566495Y309880D01*
Y317500D01*
X566420Y317875D01*
Y318258D01*
X566274Y318611D01*
X566199Y318987D01*
X565986Y319305D01*
X565840Y319658D01*
X565569Y319929D01*
X565357Y320247D01*
X565039Y320459D01*
X564768Y320730D01*
X564415Y320876D01*
X564097Y321089D01*
X563721Y321164D01*
X563368Y321310D01*
X562985D01*
X562610Y321385D01*
X540470D01*
Y323420D01*
D02*
G37*
G36*
X154390D02*
X143950D01*
Y311580D01*
X154390D01*
Y313615D01*
X166295D01*
Y309880D01*
X166370Y309505D01*
Y309122D01*
X166516Y308769D01*
X166591Y308393D01*
X166804Y308075D01*
X166950Y307722D01*
X167221Y307451D01*
X167433Y307133D01*
X167751Y306921D01*
X168022Y306650D01*
X168375Y306504D01*
X168693Y306291D01*
X169069Y306216D01*
X169422Y306070D01*
X169805D01*
X170180Y305995D01*
X170555Y306070D01*
X170938D01*
X171291Y306216D01*
X171667Y306291D01*
X171985Y306504D01*
X172338Y306650D01*
X172609Y306921D01*
X172927Y307133D01*
X173139Y307451D01*
X173410Y307722D01*
X173556Y308075D01*
X173769Y308393D01*
X173844Y308769D01*
X173990Y309122D01*
Y309505D01*
X174065Y309880D01*
Y317500D01*
X173990Y317875D01*
Y318258D01*
X173844Y318611D01*
X173769Y318987D01*
X173556Y319305D01*
X173410Y319658D01*
X173139Y319929D01*
X172927Y320247D01*
X172609Y320459D01*
X172338Y320730D01*
X171985Y320876D01*
X171667Y321089D01*
X171291Y321164D01*
X170938Y321310D01*
X170555D01*
X170180Y321385D01*
X154390D01*
Y323420D01*
D02*
G37*
G36*
X348700Y306910D02*
X344750D01*
Y302260D01*
X348700D01*
Y306910D01*
D02*
G37*
G36*
X541740D02*
X537790D01*
Y302260D01*
X541740D01*
Y306910D01*
D02*
G37*
G36*
X155660D02*
X151710D01*
Y302260D01*
X155660D01*
Y306910D01*
D02*
G37*
G36*
X339670D02*
X335720D01*
Y302260D01*
X339670D01*
Y306910D01*
D02*
G37*
G36*
X532710D02*
X528760D01*
Y302260D01*
X532710D01*
Y306910D01*
D02*
G37*
G36*
X146630D02*
X142680D01*
Y302260D01*
X146630D01*
Y306910D01*
D02*
G37*
G36*
X541740Y297180D02*
X537790D01*
Y292530D01*
X541740D01*
Y297180D01*
D02*
G37*
G36*
X348700D02*
X344750D01*
Y292530D01*
X348700D01*
Y297180D01*
D02*
G37*
G36*
X155660D02*
X151710D01*
Y292530D01*
X155660D01*
Y297180D01*
D02*
G37*
G36*
X550150Y274530D02*
X542950D01*
Y265430D01*
X550150D01*
Y274530D01*
D02*
G37*
G36*
X164070D02*
X156870D01*
Y265430D01*
X164070D01*
Y274530D01*
D02*
G37*
G36*
X357110D02*
X349910D01*
Y265430D01*
X357110D01*
Y274530D01*
D02*
G37*
G36*
X550150Y260350D02*
X542950D01*
Y251250D01*
X550150D01*
Y260350D01*
D02*
G37*
G36*
X537870D02*
X530670D01*
Y251250D01*
X537870D01*
Y260350D01*
D02*
G37*
G36*
X357110D02*
X349910D01*
Y251250D01*
X357110D01*
Y260350D01*
D02*
G37*
G36*
X344830D02*
X337630D01*
Y251250D01*
X344830D01*
Y260350D01*
D02*
G37*
G36*
X164070D02*
X156870D01*
Y251250D01*
X164070D01*
Y260350D01*
D02*
G37*
G36*
X151790D02*
X144590D01*
Y251250D01*
X151790D01*
Y260350D01*
D02*
G37*
G36*
X402078Y273050D02*
X400562D01*
X399162Y272470D01*
X398090Y271398D01*
X397510Y269998D01*
Y268482D01*
X398090Y267082D01*
X398883Y265430D01*
X398090Y263778D01*
X397510Y262378D01*
Y260862D01*
X398090Y259462D01*
X398883Y257810D01*
X398090Y256158D01*
X397510Y254758D01*
Y253242D01*
X398090Y251842D01*
X399162Y250770D01*
X400562Y250190D01*
X402078D01*
X403478Y250770D01*
X404550Y251842D01*
X405130Y253242D01*
Y254758D01*
X404550Y256158D01*
X403757Y257810D01*
X404550Y259462D01*
X405130Y260862D01*
Y262378D01*
X404550Y263778D01*
X403757Y265430D01*
X404550Y267082D01*
X405130Y268482D01*
Y269998D01*
X404550Y271398D01*
X403478Y272470D01*
X402078Y273050D01*
D02*
G37*
G36*
X207768D02*
X206252D01*
X204852Y272470D01*
X203780Y271398D01*
X203200Y269998D01*
Y268482D01*
X203780Y267082D01*
X204573Y265430D01*
X203780Y263778D01*
X203200Y262378D01*
Y260862D01*
X203780Y259462D01*
X204573Y257810D01*
X203780Y256158D01*
X203200Y254758D01*
Y253242D01*
X203780Y251842D01*
X204852Y250770D01*
X206252Y250190D01*
X207768D01*
X209168Y250770D01*
X210240Y251842D01*
X210820Y253242D01*
Y254758D01*
X210240Y256158D01*
X209447Y257810D01*
X210240Y259462D01*
X210820Y260862D01*
Y262378D01*
X210240Y263778D01*
X209447Y265430D01*
X210240Y267082D01*
X210820Y268482D01*
Y269998D01*
X210240Y271398D01*
X209168Y272470D01*
X207768Y273050D01*
D02*
G37*
G36*
X14728D02*
X13212D01*
X11812Y272470D01*
X10740Y271398D01*
X10160Y269998D01*
Y268482D01*
X10740Y267082D01*
X11533Y265430D01*
X10740Y263778D01*
X10160Y262378D01*
Y260862D01*
X10740Y259462D01*
X11533Y257810D01*
X10740Y256158D01*
X10160Y254758D01*
Y253242D01*
X10740Y251842D01*
X11812Y250770D01*
X13212Y250190D01*
X14728D01*
X16128Y250770D01*
X17200Y251842D01*
X17780Y253242D01*
Y254758D01*
X17200Y256158D01*
X16407Y257810D01*
X17200Y259462D01*
X17780Y260862D01*
Y262378D01*
X17200Y263778D01*
X16407Y265430D01*
X17200Y267082D01*
X17780Y268482D01*
Y269998D01*
X17200Y271398D01*
X16128Y272470D01*
X14728Y273050D01*
D02*
G37*
G36*
X440260Y243400D02*
X428420D01*
Y232960D01*
X431750D01*
Y208280D01*
X431947Y207289D01*
X432509Y206449D01*
X439946Y199011D01*
X439921Y198139D01*
X439362Y196286D01*
X438708Y196145D01*
X419150Y215703D01*
Y232960D01*
X422480D01*
Y243400D01*
X410640D01*
Y232960D01*
X413970D01*
Y214630D01*
X414167Y213639D01*
X414729Y212799D01*
X436319Y191209D01*
X437159Y190647D01*
X438150Y190450D01*
X482600D01*
X483591Y190647D01*
X484431Y191209D01*
X490073Y196850D01*
X490978D01*
X492378Y197430D01*
X493450Y198502D01*
X494030Y199902D01*
Y201418D01*
X493450Y202818D01*
X493098Y203170D01*
X494116Y205710D01*
X495330D01*
Y208340D01*
X501270D01*
Y205710D01*
X513110D01*
Y216150D01*
X501270D01*
Y213520D01*
X495330D01*
Y216150D01*
X483490D01*
Y205710D01*
X486324D01*
X487342Y203170D01*
X486990Y202818D01*
X486410Y201418D01*
Y200513D01*
X481527Y195630D01*
X478924D01*
X477878Y198170D01*
X478210Y198502D01*
X478790Y199902D01*
Y201418D01*
X478210Y202818D01*
X477396Y203632D01*
X476813Y204717D01*
X476280Y206075D01*
X476280Y206785D01*
Y216150D01*
X464440D01*
Y213520D01*
X458500D01*
Y216150D01*
X446660D01*
Y205790D01*
X446660Y205710D01*
X446467Y203250D01*
X443033D01*
X436930Y209353D01*
Y232960D01*
X440260D01*
Y243400D01*
D02*
G37*
G36*
X247220D02*
X235380D01*
Y232960D01*
X238710D01*
Y208280D01*
X238907Y207289D01*
X239469Y206449D01*
X246906Y199011D01*
X246881Y198139D01*
X246322Y196286D01*
X245668Y196145D01*
X226110Y215703D01*
Y232960D01*
X229440D01*
Y243400D01*
X217600D01*
Y232960D01*
X220930D01*
Y214630D01*
X221127Y213639D01*
X221689Y212799D01*
X243279Y191209D01*
X244119Y190647D01*
X245110Y190450D01*
X289560D01*
X290551Y190647D01*
X291391Y191209D01*
X297033Y196850D01*
X297938D01*
X299338Y197430D01*
X300410Y198502D01*
X300990Y199902D01*
Y201418D01*
X300410Y202818D01*
X300058Y203170D01*
X301076Y205710D01*
X302290D01*
Y208340D01*
X308230D01*
Y205710D01*
X320070D01*
Y216150D01*
X308230D01*
Y213520D01*
X302290D01*
Y216150D01*
X290450D01*
Y205710D01*
X293284D01*
X294302Y203170D01*
X293950Y202818D01*
X293370Y201418D01*
Y200513D01*
X288487Y195630D01*
X285884D01*
X284838Y198170D01*
X285170Y198502D01*
X285750Y199902D01*
Y201418D01*
X285170Y202818D01*
X284356Y203632D01*
X283773Y204717D01*
X283240Y206075D01*
X283240Y206785D01*
Y216150D01*
X271400D01*
Y213520D01*
X265460D01*
Y216150D01*
X253620D01*
Y205790D01*
X253620Y205710D01*
X253427Y203250D01*
X249993D01*
X243890Y209353D01*
Y232960D01*
X247220D01*
Y243400D01*
D02*
G37*
G36*
X54180D02*
X42340D01*
Y232960D01*
X45670D01*
Y208280D01*
X45867Y207289D01*
X46429Y206449D01*
X53866Y199011D01*
X53841Y198139D01*
X53282Y196286D01*
X52628Y196145D01*
X33070Y215703D01*
Y232960D01*
X36400D01*
Y243400D01*
X24560D01*
Y232960D01*
X27890D01*
Y214630D01*
X28087Y213639D01*
X28649Y212799D01*
X50239Y191209D01*
X51079Y190647D01*
X52070Y190450D01*
X96520D01*
X97511Y190647D01*
X98351Y191209D01*
X103993Y196850D01*
X104898D01*
X106298Y197430D01*
X107370Y198502D01*
X107950Y199902D01*
Y201418D01*
X107370Y202818D01*
X107018Y203170D01*
X108036Y205710D01*
X109250D01*
Y208340D01*
X115190D01*
Y205710D01*
X127030D01*
Y216150D01*
X115190D01*
Y213520D01*
X109250D01*
Y216150D01*
X97410D01*
Y205710D01*
X100244D01*
X101262Y203170D01*
X100910Y202818D01*
X100330Y201418D01*
Y200513D01*
X95447Y195630D01*
X92844D01*
X91798Y198170D01*
X92130Y198502D01*
X92710Y199902D01*
Y201418D01*
X92130Y202818D01*
X91316Y203632D01*
X90733Y204717D01*
X90200Y206075D01*
X90200Y206785D01*
Y216150D01*
X78360D01*
Y213520D01*
X72420D01*
Y216150D01*
X60580D01*
Y205790D01*
X60580Y205710D01*
X60387Y203250D01*
X56953D01*
X50850Y209353D01*
Y232960D01*
X54180D01*
Y243400D01*
D02*
G37*
G36*
X202050Y188900D02*
X197050D01*
Y184150D01*
X202050D01*
Y188900D01*
D02*
G37*
G36*
X529649Y96520D02*
X524451D01*
X519318Y95707D01*
X514375Y94101D01*
X509744Y91741D01*
X505539Y88686D01*
X501864Y85011D01*
X498809Y80806D01*
X496449Y76175D01*
X494843Y71232D01*
X494030Y66099D01*
Y60901D01*
X494843Y55768D01*
X496449Y50825D01*
X498809Y46194D01*
X501864Y41989D01*
X505539Y38314D01*
X509744Y35259D01*
X514375Y32899D01*
X519318Y31293D01*
X524451Y30480D01*
X529649D01*
X534782Y31293D01*
X539725Y32899D01*
X544356Y35259D01*
X548561Y38314D01*
X552236Y41989D01*
X555291Y46194D01*
X557651Y50825D01*
X559257Y55768D01*
X560070Y60901D01*
Y66099D01*
X559257Y71232D01*
X557651Y76175D01*
X555291Y80806D01*
X552236Y85011D01*
X548561Y88686D01*
X544356Y91741D01*
X539725Y94101D01*
X534782Y95707D01*
X529649Y96520D01*
D02*
G37*
G36*
X47049D02*
X41851D01*
X36718Y95707D01*
X31775Y94101D01*
X27144Y91741D01*
X22939Y88686D01*
X19264Y85011D01*
X16209Y80806D01*
X13849Y76175D01*
X12243Y71232D01*
X11430Y66099D01*
Y60901D01*
X12243Y55768D01*
X13849Y50825D01*
X16209Y46194D01*
X19264Y41989D01*
X22939Y38314D01*
X27144Y35259D01*
X31775Y32899D01*
X36718Y31293D01*
X41851Y30480D01*
X47049D01*
X52182Y31293D01*
X57125Y32899D01*
X61756Y35259D01*
X65961Y38314D01*
X69636Y41989D01*
X72691Y46194D01*
X75051Y50825D01*
X76657Y55768D01*
X77470Y60901D01*
Y66099D01*
X76657Y71232D01*
X75051Y76175D01*
X72691Y80806D01*
X69636Y85011D01*
X65961Y88686D01*
X61756Y91741D01*
X57125Y94101D01*
X52182Y95707D01*
X47049Y96520D01*
D02*
G37*
%LPD*%
G36*
X221849Y766686D02*
X223270Y764873D01*
Y754120D01*
X230826D01*
X231429Y753717D01*
X232420Y753520D01*
X237130D01*
Y749920D01*
X237130Y749840D01*
X237130D01*
Y747380D01*
X237130D01*
Y743700D01*
X233710D01*
Y748180D01*
X223270D01*
Y738715D01*
X221738Y736600D01*
X220222Y736600D01*
X219850Y736446D01*
X217458Y737746D01*
X217310Y737934D01*
Y748180D01*
X214680D01*
Y754120D01*
X217310D01*
Y765960D01*
X219407Y767030D01*
X221173D01*
X221849Y766686D01*
D02*
G37*
G36*
X267130Y766360D02*
X274608D01*
X280679Y760289D01*
X281519Y759727D01*
X282270Y759578D01*
Y755850D01*
X291442D01*
X293370Y753868D01*
X293370Y752794D01*
X293147Y752461D01*
X292950Y751470D01*
Y732720D01*
X293147Y731729D01*
X293709Y730889D01*
X296775Y727822D01*
X297271Y727050D01*
X297365Y724770D01*
X308350D01*
X319164D01*
X318553Y725683D01*
X317685Y726263D01*
X318416Y727357D01*
X318689Y728730D01*
X318603Y729163D01*
X320944Y730414D01*
X324760Y726598D01*
Y718050D01*
X324760Y717970D01*
Y715510D01*
X324760Y715430D01*
Y711830D01*
X319350D01*
X318359Y711633D01*
X317519Y711071D01*
X310028Y703580D01*
X309122D01*
X307722Y703000D01*
X306650Y701928D01*
X304418Y701730D01*
X303018Y702310D01*
X302113D01*
X299615Y704807D01*
Y710084D01*
X299418Y711075D01*
X298857Y711916D01*
X282250Y728523D01*
Y737740D01*
X282053Y738731D01*
X281491Y739571D01*
X277876Y743186D01*
X277036Y743748D01*
X276401Y743874D01*
X276138Y744268D01*
X274973Y745046D01*
X273600Y745319D01*
X262446D01*
X262364Y745446D01*
X261667Y747859D01*
X262220Y748412D01*
X262800Y749812D01*
Y751328D01*
X262220Y752728D01*
X261148Y753800D01*
X259748Y754380D01*
X259530D01*
X257860Y756050D01*
Y766360D01*
X261190D01*
Y768990D01*
X267130D01*
Y766360D01*
D02*
G37*
G36*
X220222Y728980D02*
X221738D01*
X223270Y726865D01*
Y718560D01*
X233710D01*
Y721770D01*
X237130D01*
Y718170D01*
X237130Y718090D01*
Y715630D01*
X237130Y715550D01*
Y711950D01*
X233710D01*
Y712620D01*
X223270D01*
Y700780D01*
X233710D01*
Y706770D01*
X237130D01*
Y703090D01*
X237130D01*
X238076Y700807D01*
X233669Y696399D01*
X233107Y695559D01*
X232910Y694568D01*
Y688693D01*
X227477Y683260D01*
X226572D01*
X225172Y682680D01*
X224100Y681608D01*
X221444Y681832D01*
X219395Y683881D01*
X218345Y684582D01*
X217106Y684829D01*
X213194D01*
X213109Y684914D01*
X212943Y685025D01*
X212780Y685418D01*
X211934Y686264D01*
X211812Y687705D01*
X211934Y689146D01*
X212780Y689992D01*
X213360Y691392D01*
Y692908D01*
X212780Y694308D01*
X211708Y695380D01*
X210308Y695960D01*
X208792D01*
X207392Y695380D01*
X206752Y694740D01*
X200463D01*
X195630Y699573D01*
Y704824D01*
X195876Y705112D01*
X198170Y706311D01*
X198632Y706120D01*
X200148D01*
X201548Y706700D01*
X202620Y707772D01*
X203200Y709172D01*
Y710688D01*
X202620Y712088D01*
X201548Y713160D01*
X200148Y713740D01*
X199025D01*
X198245Y714804D01*
X197779Y716087D01*
X204330Y722637D01*
X206870Y721585D01*
Y718560D01*
X209500D01*
Y712620D01*
X206870D01*
Y700780D01*
X217310D01*
Y712620D01*
X214680D01*
Y718560D01*
X217310D01*
Y727646D01*
X217458Y727834D01*
X219850Y729134D01*
X220222Y728980D01*
D02*
G37*
G36*
X345180Y563860D02*
X357020D01*
X358090Y561763D01*
Y559997D01*
X357746Y559322D01*
X355933Y557900D01*
X345180D01*
Y550344D01*
X344777Y549741D01*
X344580Y548750D01*
Y544040D01*
X340980D01*
X340900Y544040D01*
Y544040D01*
X338440D01*
Y544040D01*
X334760D01*
Y547460D01*
X339240D01*
Y557900D01*
X329775D01*
X327660Y559432D01*
X327660Y560948D01*
X327506Y561320D01*
X328806Y563712D01*
X328994Y563860D01*
X339240D01*
Y566490D01*
X345180D01*
Y563860D01*
D02*
G37*
G36*
X357420Y519980D02*
X360050D01*
Y514040D01*
X357420D01*
Y506562D01*
X351349Y500491D01*
X350787Y499651D01*
X350638Y498900D01*
X346910D01*
Y489728D01*
X344928Y487800D01*
X343854Y487800D01*
X343521Y488023D01*
X342530Y488220D01*
X323780D01*
X322789Y488023D01*
X321949Y487461D01*
X318882Y484395D01*
X318110Y483899D01*
X315830Y483805D01*
Y472820D01*
Y462006D01*
X316743Y462617D01*
X317323Y463485D01*
X318417Y462754D01*
X319790Y462481D01*
X320223Y462567D01*
X321474Y460226D01*
X317658Y456410D01*
X309110D01*
X309030Y456410D01*
X306570D01*
X306490Y456410D01*
X302890D01*
Y461820D01*
X302693Y462811D01*
X302131Y463651D01*
X294640Y471143D01*
Y472048D01*
X294060Y473448D01*
X292988Y474520D01*
X292790Y476752D01*
X293370Y478152D01*
Y479058D01*
X295867Y481554D01*
X300708D01*
X301700Y481752D01*
X302540Y482313D01*
X319147Y498920D01*
X328800D01*
X329791Y499117D01*
X330631Y499679D01*
X334246Y503294D01*
X334808Y504134D01*
X334934Y504769D01*
X335328Y505032D01*
X336106Y506197D01*
X336379Y507570D01*
Y518724D01*
X336507Y518806D01*
X338919Y519503D01*
X339472Y518950D01*
X340872Y518370D01*
X342388D01*
X343788Y518950D01*
X344860Y520022D01*
X345440Y521422D01*
Y521640D01*
X347110Y523310D01*
X357420D01*
Y519980D01*
D02*
G37*
%LPC*%
G36*
X319164Y719690D02*
X310890D01*
Y717346D01*
X315100D01*
X316969Y717718D01*
X318553Y718777D01*
X319164Y719690D01*
D02*
G37*
G36*
X305810D02*
X297536D01*
X298147Y718777D01*
X299731Y717718D01*
X301600Y717346D01*
X305810D01*
Y719690D01*
D02*
G37*
G36*
X310750Y483634D02*
X309837Y483023D01*
X308778Y481439D01*
X308406Y479570D01*
Y475360D01*
X310750D01*
Y483634D01*
D02*
G37*
G36*
Y470280D02*
X308406D01*
Y466070D01*
X308778Y464201D01*
X309837Y462617D01*
X310750Y462006D01*
Y470280D01*
D02*
G37*
%LPD*%
G36*
X507740Y770750D02*
X519580D01*
X520650Y768653D01*
Y766887D01*
X520306Y766211D01*
X518493Y764790D01*
X507740D01*
Y757234D01*
X507337Y756631D01*
X507140Y755640D01*
Y750930D01*
X503540D01*
X503460Y750930D01*
Y750930D01*
X501000D01*
Y750930D01*
X497320D01*
Y754350D01*
X501800D01*
Y764790D01*
X492335D01*
X490220Y766322D01*
X490220Y767838D01*
X490066Y768210D01*
X491366Y770602D01*
X491554Y770750D01*
X501800D01*
Y773380D01*
X507740D01*
Y770750D01*
D02*
G37*
G36*
X519980Y726870D02*
X522610D01*
Y720930D01*
X519980D01*
Y713453D01*
X513909Y707381D01*
X513347Y706541D01*
X513198Y705790D01*
X509470D01*
Y696618D01*
X507488Y694690D01*
X506414Y694690D01*
X506081Y694913D01*
X505090Y695110D01*
X486340D01*
X485349Y694913D01*
X484509Y694351D01*
X481442Y691285D01*
X480670Y690789D01*
X478390Y690695D01*
Y679710D01*
Y668896D01*
X479303Y669507D01*
X479883Y670375D01*
X480977Y669644D01*
X482350Y669371D01*
X482783Y669457D01*
X484034Y667116D01*
X480218Y663300D01*
X471670D01*
X471590Y663300D01*
X469130D01*
X469050Y663300D01*
X465450D01*
Y668710D01*
X465253Y669701D01*
X464691Y670541D01*
X457200Y678033D01*
Y678938D01*
X456620Y680338D01*
X455548Y681410D01*
X455350Y683642D01*
X455930Y685042D01*
Y685947D01*
X458427Y688445D01*
X464974D01*
X465965Y688642D01*
X466805Y689203D01*
X483413Y705810D01*
X491360D01*
X492351Y706007D01*
X493191Y706569D01*
X496806Y710184D01*
X497368Y711024D01*
X497494Y711659D01*
X497888Y711922D01*
X498666Y713087D01*
X498939Y714460D01*
Y725614D01*
X499067Y725696D01*
X501479Y726393D01*
X502032Y725840D01*
X503432Y725260D01*
X504948D01*
X506348Y725840D01*
X507420Y726912D01*
X508000Y728312D01*
Y728530D01*
X509670Y730200D01*
X519980D01*
Y726870D01*
D02*
G37*
%LPC*%
G36*
X473310Y690524D02*
X472397Y689913D01*
X471338Y688329D01*
X470966Y686460D01*
Y682250D01*
X473310D01*
Y690524D01*
D02*
G37*
G36*
Y677170D02*
X470966D01*
Y672960D01*
X471338Y671091D01*
X472397Y669507D01*
X473310Y668896D01*
Y677170D01*
D02*
G37*
%LPD*%
G36*
X108960Y770750D02*
X120800D01*
X121870Y768653D01*
Y766887D01*
X121526Y766211D01*
X119713Y764790D01*
X108960D01*
Y757234D01*
X108557Y756631D01*
X108360Y755640D01*
Y750930D01*
X104760D01*
X104680Y750930D01*
Y750930D01*
X102220D01*
Y750930D01*
X98540D01*
Y754350D01*
X103020D01*
Y764790D01*
X93555D01*
X91440Y766322D01*
X91440Y767838D01*
X91286Y768210D01*
X92586Y770602D01*
X92774Y770750D01*
X103020D01*
Y773380D01*
X108960D01*
Y770750D01*
D02*
G37*
G36*
X121200Y726870D02*
X123830D01*
Y720930D01*
X121200D01*
Y713453D01*
X115129Y707381D01*
X114567Y706541D01*
X114418Y705790D01*
X110690D01*
Y696618D01*
X108708Y694690D01*
X107634Y694690D01*
X107301Y694913D01*
X106310Y695110D01*
X87560D01*
X86569Y694913D01*
X85729Y694351D01*
X82662Y691285D01*
X81890Y690789D01*
X79610Y690695D01*
Y679710D01*
Y668896D01*
X80523Y669507D01*
X81103Y670375D01*
X82197Y669644D01*
X83570Y669371D01*
X84003Y669457D01*
X85254Y667116D01*
X81438Y663300D01*
X72890D01*
X72810Y663300D01*
X70350D01*
X70270Y663300D01*
X66670D01*
Y668710D01*
X66473Y669701D01*
X65911Y670541D01*
X58420Y678033D01*
Y678938D01*
X57840Y680338D01*
X56768Y681410D01*
X56570Y683642D01*
X57150Y685042D01*
Y685947D01*
X59647Y688445D01*
X64924D01*
X65915Y688642D01*
X66755Y689203D01*
X83363Y705810D01*
X92580D01*
X93571Y706007D01*
X94411Y706569D01*
X98026Y710184D01*
X98588Y711024D01*
X98714Y711659D01*
X99108Y711922D01*
X99886Y713087D01*
X100159Y714460D01*
Y725614D01*
X100287Y725696D01*
X102699Y726393D01*
X103252Y725840D01*
X104652Y725260D01*
X106168D01*
X107568Y725840D01*
X108640Y726912D01*
X109220Y728312D01*
Y728530D01*
X110890Y730200D01*
X121200D01*
Y726870D01*
D02*
G37*
%LPC*%
G36*
X74530Y690524D02*
X73617Y689913D01*
X72558Y688329D01*
X72186Y686460D01*
Y682250D01*
X74530D01*
Y690524D01*
D02*
G37*
G36*
Y677170D02*
X72186D01*
Y672960D01*
X72558Y671091D01*
X73617Y669507D01*
X74530Y668896D01*
Y677170D01*
D02*
G37*
%LPD*%
G36*
X380365Y631460D02*
X382365D01*
X382365Y631460D01*
X384626Y630785D01*
X385260Y630151D01*
X387362Y629280D01*
X389638D01*
X391740Y630151D01*
X393349Y631760D01*
X394165Y633730D01*
X402590D01*
Y607060D01*
X381095D01*
Y615270D01*
X361950D01*
Y632730D01*
X366935D01*
Y631460D01*
X368935D01*
Y642000D01*
X374015D01*
Y631460D01*
X375285D01*
Y642000D01*
X380365D01*
Y631460D01*
D02*
G37*
G36*
X182620Y563740D02*
X194460D01*
X195530Y561643D01*
Y559877D01*
X195186Y559202D01*
X193373Y557780D01*
X182620D01*
Y550224D01*
X182217Y549621D01*
X182020Y548630D01*
Y543920D01*
X178420D01*
X178340Y543920D01*
Y543920D01*
X175880D01*
Y543920D01*
X172200D01*
Y547340D01*
X176680D01*
Y557780D01*
X167215D01*
X165100Y559312D01*
X165100Y560828D01*
X164946Y561200D01*
X166246Y563592D01*
X166434Y563740D01*
X176680D01*
Y566370D01*
X182620D01*
Y563740D01*
D02*
G37*
G36*
X194860Y519860D02*
X197490D01*
Y513920D01*
X194860D01*
Y506442D01*
X188789Y500371D01*
X188227Y499531D01*
X188078Y498780D01*
X184350D01*
Y489608D01*
X182368Y487680D01*
X181294Y487680D01*
X180961Y487903D01*
X179970Y488100D01*
X161220D01*
X160229Y487903D01*
X159389Y487341D01*
X156322Y484275D01*
X155550Y483779D01*
X153270Y483685D01*
Y472700D01*
Y461886D01*
X154183Y462497D01*
X154763Y463365D01*
X155857Y462634D01*
X157230Y462361D01*
X157662Y462447D01*
X158914Y460106D01*
X155098Y456290D01*
X146550D01*
X146470Y456290D01*
X144010D01*
X143930Y456290D01*
X140330D01*
Y461700D01*
X140133Y462691D01*
X139571Y463531D01*
X132080Y471022D01*
Y471928D01*
X131500Y473328D01*
X130428Y474400D01*
X130230Y476632D01*
X130810Y478032D01*
Y478937D01*
X133307Y481435D01*
X138800D01*
X139791Y481632D01*
X140631Y482193D01*
X157239Y498800D01*
X166240D01*
X167231Y498997D01*
X168071Y499559D01*
X171686Y503174D01*
X172248Y504014D01*
X172374Y504649D01*
X172768Y504912D01*
X173546Y506077D01*
X173819Y507450D01*
Y518604D01*
X173946Y518686D01*
X176359Y519383D01*
X176912Y518830D01*
X178312Y518250D01*
X179828D01*
X181228Y518830D01*
X182300Y519902D01*
X182880Y521302D01*
Y521520D01*
X184550Y523190D01*
X194860D01*
Y519860D01*
D02*
G37*
%LPC*%
G36*
X148190Y483514D02*
X147277Y482903D01*
X146218Y481319D01*
X145846Y479450D01*
Y475240D01*
X148190D01*
Y483514D01*
D02*
G37*
G36*
Y470160D02*
X145846D01*
Y465950D01*
X146218Y464081D01*
X147277Y462497D01*
X148190Y461886D01*
Y470160D01*
D02*
G37*
%LPD*%
G36*
X521786Y581460D02*
X533626D01*
Y581480D01*
X536022D01*
X538110Y580390D01*
Y577930D01*
X538110D01*
Y572870D01*
X533626D01*
Y575500D01*
X521786D01*
Y565060D01*
X525116D01*
Y558688D01*
X521786D01*
Y557460D01*
X514834D01*
X512651Y558857D01*
Y560882D01*
X512527Y561510D01*
X512171Y562041D01*
X512527Y563230D01*
X512651Y563857D01*
Y565882D01*
X512527Y566510D01*
X512480Y566580D01*
Y572280D01*
X512940D01*
Y581501D01*
X521786D01*
Y581460D01*
D02*
G37*
G36*
X497840Y557471D02*
X497231Y557219D01*
X496451Y556439D01*
X496030Y555421D01*
Y554870D01*
Y554319D01*
X496451Y553301D01*
X497231Y552521D01*
X497840Y552269D01*
Y548478D01*
X497649Y548939D01*
X496869Y549719D01*
X495851Y550140D01*
X494749D01*
X493731Y549719D01*
X492951Y548939D01*
X492760Y548478D01*
Y552269D01*
X493369Y552521D01*
X494149Y553301D01*
X494571Y554319D01*
Y554870D01*
Y555421D01*
X494149Y556439D01*
X493369Y557219D01*
X492760Y557471D01*
Y561263D01*
X492951Y560801D01*
X493731Y560021D01*
X494749Y559599D01*
X495851D01*
X496869Y560021D01*
X497649Y560801D01*
X497840Y561263D01*
Y557471D01*
D02*
G37*
G36*
X445770Y581660D02*
X461010D01*
Y566420D01*
X476213D01*
X476654Y565882D01*
Y563857D01*
X476877Y562735D01*
X477121Y562370D01*
X476877Y562005D01*
X476654Y560882D01*
Y558857D01*
X474342Y557460D01*
X464490D01*
Y561140D01*
X453600D01*
X452450Y561140D01*
X451060Y563104D01*
Y570470D01*
X441960D01*
Y560730D01*
X439420D01*
Y558190D01*
X427780D01*
Y551180D01*
X427780Y550990D01*
X427321Y548640D01*
X421640D01*
Y599440D01*
X445770D01*
Y581660D01*
D02*
G37*
%LPC*%
G36*
X436880Y570470D02*
X427780D01*
Y563270D01*
X436880D01*
Y570470D01*
D02*
G37*
%LPD*%
G36*
X66302Y376894D02*
X67502Y374600D01*
X67310Y374138D01*
Y372622D01*
X67890Y371222D01*
X68962Y370150D01*
X70362Y369570D01*
X71878D01*
X73278Y370150D01*
X74350Y371222D01*
X74930Y372622D01*
Y373745D01*
X75994Y374525D01*
X77277Y374991D01*
X83827Y368440D01*
X82775Y365900D01*
X79750D01*
Y363270D01*
X73810D01*
Y365900D01*
X61970D01*
Y355460D01*
X73810D01*
Y358090D01*
X79750D01*
Y355460D01*
X88836D01*
X89024Y355312D01*
X90324Y352920D01*
X90170Y352548D01*
Y351032D01*
X88055Y349500D01*
X79750D01*
Y339060D01*
X82960D01*
Y335640D01*
X79360D01*
X79280Y335640D01*
X76820D01*
X76740Y335640D01*
X73140D01*
Y339060D01*
X73810D01*
Y349500D01*
X61970D01*
Y339060D01*
X67960D01*
Y335640D01*
X64280D01*
Y335640D01*
X61996Y334694D01*
X57589Y339101D01*
X56749Y339663D01*
X55758Y339860D01*
X49883D01*
X44450Y345293D01*
Y346198D01*
X43870Y347598D01*
X42798Y348670D01*
X43029Y351324D01*
X46834Y355128D01*
X47536Y356178D01*
X47782Y357417D01*
Y360071D01*
X49338Y360733D01*
X50322Y360850D01*
X51182Y359990D01*
X52582Y359410D01*
X54098D01*
X55498Y359990D01*
X56570Y361062D01*
X57150Y362462D01*
Y363978D01*
X56570Y365378D01*
X55930Y366018D01*
Y372307D01*
X60763Y377140D01*
X66014D01*
X66302Y376894D01*
D02*
G37*
G36*
X115310Y355460D02*
X127150D01*
X128220Y353363D01*
Y351597D01*
X127876Y350922D01*
X126063Y349500D01*
X115310D01*
Y341944D01*
X114907Y341341D01*
X114710Y340350D01*
Y335640D01*
X111110D01*
X111030Y335640D01*
Y335640D01*
X108570D01*
Y335640D01*
X104890D01*
Y339060D01*
X109370D01*
Y349500D01*
X99905D01*
X97790Y351032D01*
X97790Y352548D01*
X97636Y352920D01*
X98936Y355312D01*
X99124Y355460D01*
X109370D01*
Y358090D01*
X115310D01*
Y355460D01*
D02*
G37*
G36*
X127550Y311580D02*
X130180D01*
Y305640D01*
X127550D01*
Y298162D01*
X121479Y292091D01*
X120917Y291251D01*
X120768Y290500D01*
X117040D01*
Y281328D01*
X115058Y279400D01*
X113984Y279400D01*
X113651Y279623D01*
X112660Y279820D01*
X93910D01*
X92919Y279623D01*
X92079Y279061D01*
X89012Y275995D01*
X88240Y275499D01*
X85960Y275405D01*
Y264420D01*
Y253606D01*
X86873Y254217D01*
X87453Y255085D01*
X88547Y254354D01*
X89920Y254081D01*
X90352Y254167D01*
X91604Y251826D01*
X87788Y248010D01*
X79240D01*
X79160Y248010D01*
X76700D01*
X76620Y248010D01*
X73020D01*
Y253420D01*
X72823Y254411D01*
X72261Y255251D01*
X64770Y262743D01*
Y263648D01*
X64190Y265048D01*
X63118Y266120D01*
X62920Y268352D01*
X63500Y269752D01*
Y270658D01*
X65997Y273155D01*
X70838D01*
X71830Y273352D01*
X72670Y273913D01*
X89277Y290520D01*
X98930D01*
X99921Y290717D01*
X100761Y291279D01*
X104376Y294894D01*
X104938Y295734D01*
X105064Y296369D01*
X105458Y296632D01*
X106236Y297797D01*
X106509Y299170D01*
Y310324D01*
X106636Y310406D01*
X109049Y311103D01*
X109602Y310550D01*
X111002Y309970D01*
X112518D01*
X113918Y310550D01*
X114990Y311622D01*
X115570Y313022D01*
Y313240D01*
X117240Y314910D01*
X127550D01*
Y311580D01*
D02*
G37*
%LPC*%
G36*
X80880Y275234D02*
X79967Y274623D01*
X78908Y273039D01*
X78536Y271170D01*
Y266960D01*
X80880D01*
Y275234D01*
D02*
G37*
G36*
Y261880D02*
X78536D01*
Y257670D01*
X78908Y255801D01*
X79967Y254217D01*
X80880Y253606D01*
Y261880D01*
D02*
G37*
%LPD*%
G36*
X308350Y355460D02*
X320190D01*
X321260Y353363D01*
Y351597D01*
X320916Y350922D01*
X319103Y349500D01*
X308350D01*
Y341944D01*
X307947Y341341D01*
X307750Y340350D01*
Y335640D01*
X304150D01*
X304070Y335640D01*
Y335640D01*
X301610D01*
Y335640D01*
X297930D01*
Y339060D01*
X302410D01*
Y349500D01*
X292945D01*
X290830Y351032D01*
X290830Y352548D01*
X290676Y352920D01*
X291976Y355312D01*
X292164Y355460D01*
X302410D01*
Y358090D01*
X308350D01*
Y355460D01*
D02*
G37*
G36*
X320590Y311580D02*
X323220D01*
Y305640D01*
X320590D01*
Y298162D01*
X314519Y292091D01*
X313957Y291251D01*
X313808Y290500D01*
X310080D01*
Y281328D01*
X308098Y279400D01*
X307024Y279400D01*
X306691Y279623D01*
X305700Y279820D01*
X286950D01*
X285959Y279623D01*
X285119Y279061D01*
X282052Y275995D01*
X281280Y275499D01*
X279000Y275405D01*
Y264420D01*
Y253606D01*
X279913Y254217D01*
X280493Y255085D01*
X281587Y254354D01*
X282960Y254081D01*
X283393Y254167D01*
X284644Y251826D01*
X280828Y248010D01*
X272280D01*
X272200Y248010D01*
X269740D01*
X269660Y248010D01*
X266060D01*
Y253420D01*
X265863Y254411D01*
X265301Y255251D01*
X257810Y262743D01*
Y263648D01*
X257230Y265048D01*
X256158Y266120D01*
X255960Y268352D01*
X256540Y269752D01*
Y270658D01*
X259037Y273155D01*
X263878D01*
X264869Y273352D01*
X265710Y273913D01*
X282317Y290520D01*
X291970D01*
X292961Y290717D01*
X293801Y291279D01*
X297416Y294894D01*
X297978Y295734D01*
X298104Y296369D01*
X298498Y296632D01*
X299276Y297797D01*
X299549Y299170D01*
Y310324D01*
X299676Y310406D01*
X302089Y311103D01*
X302642Y310550D01*
X304042Y309970D01*
X305558D01*
X306958Y310550D01*
X308030Y311622D01*
X308610Y313022D01*
Y313240D01*
X310280Y314910D01*
X320590D01*
Y311580D01*
D02*
G37*
%LPC*%
G36*
X273920Y275234D02*
X273007Y274623D01*
X271948Y273039D01*
X271576Y271170D01*
Y266960D01*
X273920D01*
Y275234D01*
D02*
G37*
G36*
Y261880D02*
X271576D01*
Y257670D01*
X271948Y255801D01*
X273007Y254217D01*
X273920Y253606D01*
Y261880D01*
D02*
G37*
G36*
X466960Y275234D02*
X466047Y274623D01*
X464988Y273039D01*
X464616Y271170D01*
Y266960D01*
X466960D01*
Y275234D01*
D02*
G37*
G36*
Y261880D02*
X464616D01*
Y257670D01*
X464988Y255801D01*
X466047Y254217D01*
X466960Y253606D01*
Y261880D01*
D02*
G37*
G36*
X383938Y157099D02*
X381364D01*
X378876Y156433D01*
X376647Y155145D01*
X374826Y153324D01*
X373538Y151095D01*
X372872Y148607D01*
Y146033D01*
X373538Y143546D01*
X374826Y141316D01*
X376647Y139495D01*
X378876Y138207D01*
X381364Y137541D01*
X383938D01*
X386426Y138207D01*
X388655Y139495D01*
X390476Y141316D01*
X391764Y143546D01*
X392430Y146033D01*
Y148607D01*
X391764Y151095D01*
X390476Y153324D01*
X388655Y155145D01*
X386426Y156433D01*
X383938Y157099D01*
D02*
G37*
G36*
X356252D02*
X353678D01*
X351190Y156433D01*
X348961Y155145D01*
X347140Y153324D01*
X345852Y151095D01*
X345186Y148607D01*
Y146033D01*
X345852Y143546D01*
X347140Y141316D01*
X348961Y139495D01*
X351190Y138207D01*
X353678Y137541D01*
X356252D01*
X358740Y138207D01*
X360969Y139495D01*
X362790Y141316D01*
X364078Y143546D01*
X364744Y146033D01*
Y148607D01*
X364078Y151095D01*
X362790Y153324D01*
X360969Y155145D01*
X358740Y156433D01*
X356252Y157099D01*
D02*
G37*
G36*
X328566D02*
X325992D01*
X323504Y156433D01*
X321275Y155145D01*
X319454Y153324D01*
X318166Y151095D01*
X317500Y148607D01*
Y146033D01*
X318166Y143546D01*
X319454Y141316D01*
X321275Y139495D01*
X323504Y138207D01*
X325992Y137541D01*
X328566D01*
X331054Y138207D01*
X333283Y139495D01*
X335104Y141316D01*
X336392Y143546D01*
X337058Y146033D01*
Y148607D01*
X336392Y151095D01*
X335104Y153324D01*
X333283Y155145D01*
X331054Y156433D01*
X328566Y157099D01*
D02*
G37*
G36*
X300880D02*
X298306D01*
X295819Y156433D01*
X293589Y155145D01*
X291768Y153324D01*
X290480Y151095D01*
X289814Y148607D01*
Y146033D01*
X290480Y143546D01*
X291768Y141316D01*
X293589Y139495D01*
X295819Y138207D01*
X298306Y137541D01*
X300880D01*
X303368Y138207D01*
X305597Y139495D01*
X307418Y141316D01*
X308706Y143546D01*
X309372Y146033D01*
Y148607D01*
X308706Y151095D01*
X307418Y153324D01*
X305597Y155145D01*
X303368Y156433D01*
X300880Y157099D01*
D02*
G37*
G36*
X190136D02*
X187562D01*
X185075Y156433D01*
X182845Y155145D01*
X181024Y153324D01*
X179736Y151095D01*
X179070Y148607D01*
Y146033D01*
X179736Y143546D01*
X181024Y141316D01*
X182845Y139495D01*
X185075Y138207D01*
X187562Y137541D01*
X190136D01*
X192624Y138207D01*
X194853Y139495D01*
X196674Y141316D01*
X197962Y143546D01*
X198628Y146033D01*
Y148607D01*
X197962Y151095D01*
X196674Y153324D01*
X194853Y155145D01*
X192624Y156433D01*
X190136Y157099D01*
D02*
G37*
G36*
X454000Y147828D02*
X450748D01*
X447558Y147193D01*
X444554Y145949D01*
X441850Y144142D01*
X439550Y141842D01*
X437743Y139138D01*
X436498Y136134D01*
X436056Y133908D01*
X432520D01*
Y136730D01*
X422080D01*
Y124890D01*
X432520D01*
Y128728D01*
X436056D01*
X436498Y126502D01*
X437743Y123498D01*
X439550Y120794D01*
X441850Y118494D01*
X444554Y116687D01*
X447558Y115442D01*
X450748Y114808D01*
X454000D01*
X457190Y115442D01*
X460194Y116687D01*
X462898Y118494D01*
X465198Y120794D01*
X467005Y123498D01*
X468250Y126502D01*
X468884Y129692D01*
Y132944D01*
X468250Y136134D01*
X467005Y139138D01*
X465198Y141842D01*
X462898Y144142D01*
X460194Y145949D01*
X457190Y147193D01*
X454000Y147828D01*
D02*
G37*
G36*
X168360Y138000D02*
X164410D01*
Y133350D01*
X168360D01*
Y138000D01*
D02*
G37*
G36*
X417390D02*
X413440D01*
Y133350D01*
X417390D01*
Y138000D01*
D02*
G37*
G36*
X408360D02*
X404410D01*
Y133350D01*
X408360D01*
Y138000D01*
D02*
G37*
G36*
X159330D02*
X155380D01*
Y133350D01*
X159330D01*
Y138000D01*
D02*
G37*
G36*
X120752Y147828D02*
X117500D01*
X114310Y147193D01*
X111306Y145949D01*
X108602Y144142D01*
X106302Y141842D01*
X104495Y139138D01*
X103251Y136134D01*
X102616Y132944D01*
Y129692D01*
X103251Y126502D01*
X104495Y123498D01*
X106302Y120794D01*
X108602Y118494D01*
X111306Y116687D01*
X114310Y115442D01*
X117500Y114808D01*
X120752D01*
X123942Y115442D01*
X126946Y116687D01*
X129650Y118494D01*
X131950Y120794D01*
X133757Y123498D01*
X135001Y126502D01*
X135444Y128728D01*
X140250D01*
Y124890D01*
X150690D01*
Y136730D01*
X140250D01*
Y133908D01*
X135444D01*
X135001Y136134D01*
X133757Y139138D01*
X131950Y141842D01*
X129650Y144142D01*
X126946Y145949D01*
X123942Y147193D01*
X120752Y147828D01*
D02*
G37*
G36*
X417390Y128270D02*
X413440D01*
Y123620D01*
X417390D01*
Y128270D01*
D02*
G37*
G36*
X408360D02*
X404410D01*
Y123620D01*
X408360D01*
Y128270D01*
D02*
G37*
G36*
X168360D02*
X164410D01*
Y123620D01*
X168360D01*
Y128270D01*
D02*
G37*
G36*
X159330D02*
X155380D01*
Y123620D01*
X159330D01*
Y128270D01*
D02*
G37*
G36*
X190070Y116400D02*
X185420D01*
Y112450D01*
X190070D01*
Y116400D01*
D02*
G37*
G36*
X180340D02*
X175690D01*
Y112450D01*
X180340D01*
Y116400D01*
D02*
G37*
G36*
X370095Y128651D02*
X367521D01*
X365033Y127985D01*
X362804Y126697D01*
X360983Y124876D01*
X359695Y122647D01*
X359029Y120159D01*
Y117585D01*
X359695Y115098D01*
X360983Y112868D01*
X362804Y111047D01*
X365033Y109759D01*
X367521Y109093D01*
X370095D01*
X372583Y109759D01*
X374812Y111047D01*
X376633Y112868D01*
X377921Y115098D01*
X378587Y117585D01*
Y120159D01*
X377921Y122647D01*
X376633Y124876D01*
X374812Y126697D01*
X372583Y127985D01*
X370095Y128651D01*
D02*
G37*
G36*
X342409D02*
X339835D01*
X337347Y127985D01*
X335118Y126697D01*
X333297Y124876D01*
X332009Y122647D01*
X331343Y120159D01*
Y117585D01*
X332009Y115098D01*
X333297Y112868D01*
X335118Y111047D01*
X337347Y109759D01*
X339835Y109093D01*
X342409D01*
X344897Y109759D01*
X347126Y111047D01*
X348947Y112868D01*
X350235Y115098D01*
X350901Y117585D01*
Y120159D01*
X350235Y122647D01*
X348947Y124876D01*
X347126Y126697D01*
X344897Y127985D01*
X342409Y128651D01*
D02*
G37*
G36*
X314723D02*
X312149D01*
X309662Y127985D01*
X307432Y126697D01*
X305611Y124876D01*
X304323Y122647D01*
X303657Y120159D01*
Y117585D01*
X304323Y115098D01*
X305611Y112868D01*
X307432Y111047D01*
X309662Y109759D01*
X312149Y109093D01*
X314723D01*
X317211Y109759D01*
X319440Y111047D01*
X321261Y112868D01*
X322549Y115098D01*
X323215Y117585D01*
Y120159D01*
X322549Y122647D01*
X321261Y124876D01*
X319440Y126697D01*
X317211Y127985D01*
X314723Y128651D01*
D02*
G37*
G36*
X190070Y107370D02*
X185420D01*
Y103420D01*
X190070D01*
Y107370D01*
D02*
G37*
G36*
X180340D02*
X175690D01*
Y103420D01*
X180340D01*
Y107370D01*
D02*
G37*
G36*
X164660Y98630D02*
X160710D01*
Y93980D01*
X164660D01*
Y98630D01*
D02*
G37*
G36*
X155630D02*
X151680D01*
Y93980D01*
X155630D01*
Y98630D01*
D02*
G37*
G36*
X164660Y88900D02*
X160710D01*
Y84250D01*
X164660D01*
Y88900D01*
D02*
G37*
G36*
X155630D02*
X151680D01*
Y84250D01*
X155630D01*
Y88900D01*
D02*
G37*
G36*
X383938Y89535D02*
X381364D01*
X378876Y88869D01*
X376647Y87581D01*
X374826Y85760D01*
X373538Y83531D01*
X372872Y81043D01*
Y78469D01*
X373538Y75981D01*
X374826Y73752D01*
X376647Y71931D01*
X378876Y70643D01*
X381364Y69977D01*
X383938D01*
X386426Y70643D01*
X388655Y71931D01*
X390476Y73752D01*
X391764Y75981D01*
X392430Y78469D01*
Y81043D01*
X391764Y83531D01*
X390476Y85760D01*
X388655Y87581D01*
X386426Y88869D01*
X383938Y89535D01*
D02*
G37*
G36*
X356252D02*
X353678D01*
X351190Y88869D01*
X348961Y87581D01*
X347140Y85760D01*
X345852Y83531D01*
X345186Y81043D01*
Y78469D01*
X345852Y75981D01*
X347140Y73752D01*
X348961Y71931D01*
X351190Y70643D01*
X353678Y69977D01*
X356252D01*
X358740Y70643D01*
X360969Y71931D01*
X362790Y73752D01*
X364078Y75981D01*
X364744Y78469D01*
Y81043D01*
X364078Y83531D01*
X362790Y85760D01*
X360969Y87581D01*
X358740Y88869D01*
X356252Y89535D01*
D02*
G37*
G36*
X328566D02*
X325992D01*
X323504Y88869D01*
X321275Y87581D01*
X319454Y85760D01*
X318166Y83531D01*
X317500Y81043D01*
Y78469D01*
X318166Y75981D01*
X319454Y73752D01*
X321275Y71931D01*
X323504Y70643D01*
X325992Y69977D01*
X328566D01*
X331054Y70643D01*
X333283Y71931D01*
X335104Y73752D01*
X336392Y75981D01*
X337058Y78469D01*
Y81043D01*
X336392Y83531D01*
X335104Y85760D01*
X333283Y87581D01*
X331054Y88869D01*
X328566Y89535D01*
D02*
G37*
G36*
X300880D02*
X298306D01*
X295819Y88869D01*
X293589Y87581D01*
X291768Y85760D01*
X290480Y83531D01*
X289814Y81043D01*
Y78469D01*
X290480Y75981D01*
X291768Y73752D01*
X293589Y71931D01*
X295819Y70643D01*
X298306Y69977D01*
X300880D01*
X303368Y70643D01*
X305597Y71931D01*
X307418Y73752D01*
X308706Y75981D01*
X309372Y78469D01*
Y81043D01*
X308706Y83531D01*
X307418Y85760D01*
X305597Y87581D01*
X303368Y88869D01*
X300880Y89535D01*
D02*
G37*
G36*
X454000Y67818D02*
X450748D01*
X447558Y67183D01*
X444554Y65939D01*
X441850Y64132D01*
X439550Y61832D01*
X437743Y59128D01*
X436498Y56124D01*
X436056Y53898D01*
X432520D01*
Y56720D01*
X422080D01*
Y44880D01*
X432520D01*
Y48718D01*
X436056D01*
X436498Y46492D01*
X437743Y43488D01*
X439550Y40784D01*
X441850Y38484D01*
X444554Y36677D01*
X447558Y35433D01*
X450748Y34798D01*
X454000D01*
X457190Y35433D01*
X460194Y36677D01*
X462898Y38484D01*
X465198Y40784D01*
X467005Y43488D01*
X468250Y46492D01*
X468884Y49682D01*
Y52934D01*
X468250Y56124D01*
X467005Y59128D01*
X465198Y61832D01*
X462898Y64132D01*
X460194Y65939D01*
X457190Y67183D01*
X454000Y67818D01*
D02*
G37*
G36*
X168360Y57990D02*
X164410D01*
Y53340D01*
X168360D01*
Y57990D01*
D02*
G37*
G36*
X417390D02*
X413440D01*
Y53340D01*
X417390D01*
Y57990D01*
D02*
G37*
G36*
X408360D02*
X404410D01*
Y53340D01*
X408360D01*
Y57990D01*
D02*
G37*
G36*
X159330D02*
X155380D01*
Y53340D01*
X159330D01*
Y57990D01*
D02*
G37*
G36*
X120752Y67818D02*
X117500D01*
X114310Y67183D01*
X111306Y65939D01*
X108602Y64132D01*
X106302Y61832D01*
X104495Y59128D01*
X103251Y56124D01*
X102616Y52934D01*
Y49682D01*
X103251Y46492D01*
X104495Y43488D01*
X106302Y40784D01*
X108602Y38484D01*
X111306Y36677D01*
X114310Y35433D01*
X117500Y34798D01*
X120752D01*
X123942Y35433D01*
X126946Y36677D01*
X129650Y38484D01*
X131950Y40784D01*
X133757Y43488D01*
X135001Y46492D01*
X135444Y48718D01*
X140250D01*
Y44880D01*
X150690D01*
Y56720D01*
X140250D01*
Y53898D01*
X135444D01*
X135001Y56124D01*
X133757Y59128D01*
X131950Y61832D01*
X129650Y64132D01*
X126946Y65939D01*
X123942Y67183D01*
X120752Y67818D01*
D02*
G37*
G36*
X417390Y48260D02*
X413440D01*
Y43610D01*
X417390D01*
Y48260D01*
D02*
G37*
G36*
X408360D02*
X404410D01*
Y43610D01*
X408360D01*
Y48260D01*
D02*
G37*
G36*
X168360D02*
X164410D01*
Y43610D01*
X168360D01*
Y48260D01*
D02*
G37*
G36*
X159330D02*
X155380D01*
Y43610D01*
X159330D01*
Y48260D01*
D02*
G37*
G36*
X370095Y61087D02*
X367521D01*
X365033Y60421D01*
X362804Y59133D01*
X360983Y57312D01*
X359695Y55083D01*
X359029Y52595D01*
Y50021D01*
X359695Y47533D01*
X360983Y45304D01*
X362804Y43483D01*
X365033Y42195D01*
X367521Y41529D01*
X370095D01*
X372583Y42195D01*
X374812Y43483D01*
X376633Y45304D01*
X377921Y47533D01*
X378587Y50021D01*
Y52595D01*
X377921Y55083D01*
X376633Y57312D01*
X374812Y59133D01*
X372583Y60421D01*
X370095Y61087D01*
D02*
G37*
G36*
X342409D02*
X339835D01*
X337347Y60421D01*
X335118Y59133D01*
X333297Y57312D01*
X332009Y55083D01*
X331343Y52595D01*
Y50021D01*
X332009Y47533D01*
X333297Y45304D01*
X335118Y43483D01*
X337347Y42195D01*
X339835Y41529D01*
X342409D01*
X344897Y42195D01*
X347126Y43483D01*
X348947Y45304D01*
X350235Y47533D01*
X350901Y50021D01*
Y52595D01*
X350235Y55083D01*
X348947Y57312D01*
X347126Y59133D01*
X344897Y60421D01*
X342409Y61087D01*
D02*
G37*
G36*
X314723D02*
X312149D01*
X309662Y60421D01*
X307432Y59133D01*
X305611Y57312D01*
X304323Y55083D01*
X303657Y52595D01*
Y50021D01*
X304323Y47533D01*
X305611Y45304D01*
X307432Y43483D01*
X309662Y42195D01*
X312149Y41529D01*
X314723D01*
X317211Y42195D01*
X319440Y43483D01*
X321261Y45304D01*
X322549Y47533D01*
X323215Y50021D01*
Y52595D01*
X322549Y55083D01*
X321261Y57312D01*
X319440Y59133D01*
X317211Y60421D01*
X314723Y61087D01*
D02*
G37*
G36*
X287037D02*
X284463D01*
X281975Y60421D01*
X279746Y59133D01*
X277925Y57312D01*
X276637Y55083D01*
X275971Y52595D01*
Y50021D01*
X276637Y47533D01*
X277925Y45304D01*
X279746Y43483D01*
X281975Y42195D01*
X284463Y41529D01*
X287037D01*
X289524Y42195D01*
X291754Y43483D01*
X293575Y45304D01*
X294863Y47533D01*
X295529Y50021D01*
Y52595D01*
X294863Y55083D01*
X293575Y57312D01*
X291754Y59133D01*
X289524Y60421D01*
X287037Y61087D01*
D02*
G37*
G36*
X279868Y38825D02*
X278352D01*
X276952Y38245D01*
X275880Y37173D01*
X275300Y35773D01*
Y34257D01*
X275880Y32857D01*
X276952Y31785D01*
X278294Y30497D01*
X278151Y28748D01*
X278130Y28698D01*
Y27182D01*
X278710Y25782D01*
X279782Y24710D01*
X281182Y24130D01*
X282698D01*
X284098Y24710D01*
X285170Y25782D01*
X285750Y27182D01*
Y28698D01*
X285170Y30098D01*
X284098Y31170D01*
X282756Y32458D01*
X282899Y34207D01*
X282920Y34257D01*
Y35773D01*
X282340Y37173D01*
X281268Y38245D01*
X279868Y38825D01*
D02*
G37*
G36*
X268810Y24960D02*
X264160D01*
Y21010D01*
X268810D01*
Y24960D01*
D02*
G37*
G36*
X251030D02*
X246380D01*
Y21010D01*
X251030D01*
Y24960D01*
D02*
G37*
G36*
X241300D02*
X236650D01*
Y21010D01*
X241300D01*
Y24960D01*
D02*
G37*
G36*
X259080D02*
X254430D01*
Y21010D01*
X259080D01*
Y24960D01*
D02*
G37*
G36*
X268810Y15930D02*
X264160D01*
Y11980D01*
X268810D01*
Y15930D01*
D02*
G37*
G36*
X259080D02*
X254430D01*
Y11980D01*
X259080D01*
Y15930D01*
D02*
G37*
G36*
X251030D02*
X246380D01*
Y11980D01*
X251030D01*
Y15930D01*
D02*
G37*
G36*
X241300D02*
X236650D01*
Y11980D01*
X241300D01*
Y15930D01*
D02*
G37*
G36*
X215460Y16510D02*
X211510D01*
Y11860D01*
X215460D01*
Y16510D01*
D02*
G37*
G36*
X206430D02*
X202480D01*
Y11860D01*
X206430D01*
Y16510D01*
D02*
G37*
%LPD*%
D12*
X535250Y317500D02*
X562610D01*
Y309880D02*
Y317500D01*
X356870D02*
X364490D01*
X342210D02*
X356870D01*
X170180Y309880D02*
Y317500D01*
X149170D02*
X170180D01*
X248920Y532130D02*
Y539750D01*
X242570Y525780D02*
X248920Y532130D01*
X216480Y525780D02*
X242570D01*
X394970Y518160D02*
Y525780D01*
X379160D02*
X394970D01*
X558800Y725170D02*
Y732790D01*
X541600D02*
X558800D01*
X255270Y787980D02*
Y801953D01*
X248920Y803910D02*
X256540D01*
X142820Y732790D02*
X153670D01*
X161290D01*
D15*
X434340Y389890D02*
X435610Y388620D01*
X410210Y389890D02*
X434340D01*
X397510Y402590D02*
X410210Y389890D01*
X397510Y402590D02*
Y412750D01*
X496570Y532130D02*
X510540D01*
X514350Y535940D01*
Y546100D01*
X514528Y546278D01*
Y548382D01*
X513040Y549870D02*
X514528Y548382D01*
X507300Y549870D02*
X513040D01*
X470100Y559870D02*
X483300D01*
X475260Y564870D02*
X483300D01*
Y559870D02*
Y564870D01*
X174570Y91440D02*
X186690D01*
X200660Y105410D01*
X234007D01*
X245745Y117148D01*
X256340D01*
X258064Y118872D01*
X269875Y605902D02*
X270510Y606537D01*
Y617002D01*
X271998Y618490D01*
X284480D01*
X288195Y614775D01*
Y606632D02*
Y614775D01*
Y606632D02*
X288925Y605902D01*
X371475D02*
X377825D01*
X170640Y419210D02*
X188420D01*
X133810D02*
X151590D01*
X451004Y275744D02*
X456918D01*
X474284Y293110D01*
X485010D01*
X257964Y275744D02*
X263878D01*
X281244Y293110D01*
X291970D01*
X64924Y275744D02*
X70838D01*
X88204Y293110D01*
X98930D01*
X294794Y484144D02*
X300708D01*
X318074Y501510D01*
X328800D01*
X132234Y484024D02*
X138800D01*
X156166Y501390D01*
X166240D01*
X457354Y691034D02*
X464974D01*
X482340Y708400D01*
X491360D01*
X297026Y703734D02*
Y710084D01*
X279660Y727450D02*
X297026Y710084D01*
X58574Y691034D02*
X64924D01*
X82290Y708400D01*
X121260Y678180D02*
Y695470D01*
X116960Y699770D02*
X121260Y695470D01*
X25400Y706780D02*
X25520Y706660D01*
X51460Y696740D02*
Y706120D01*
X40520Y685800D02*
X51460Y696740D01*
X25520Y685800D02*
Y706660D01*
X110830Y657280D02*
Y657520D01*
X136580Y657280D02*
X137160Y657860D01*
X110830Y657280D02*
X136580D01*
X49408Y752560D02*
X57058Y744910D01*
X42460Y752560D02*
X49408D01*
X34290Y760730D02*
X42460Y752560D01*
X57058Y744910D02*
X64200D01*
X126420Y715010D02*
Y732790D01*
X116960Y705550D02*
X126420Y715010D01*
X116960Y699770D02*
Y705550D01*
X24130Y684410D02*
X25520Y685800D01*
X24130Y669870D02*
Y684410D01*
X25400Y706780D02*
Y728400D01*
X64080Y657280D02*
Y668710D01*
X54610Y678180D02*
X64080Y668710D01*
X41910Y669870D02*
Y684410D01*
X40520Y685800D02*
X41910Y684410D01*
X43180Y714400D02*
X51460Y706120D01*
X43180Y714400D02*
Y728400D01*
X124460Y766482D02*
Y781050D01*
Y766482D02*
X127242Y763700D01*
X81140Y783730D02*
X121780D01*
X124460Y781050D01*
X127242Y763700D02*
X139850D01*
X149170Y754380D01*
X53340Y795020D02*
X69850D01*
X81140Y783730D01*
X46990Y788670D02*
X53340Y795020D01*
X46990Y778510D02*
Y788670D01*
X149170Y754380D02*
Y772160D01*
X61540Y759570D02*
X64200Y756910D01*
Y744910D02*
Y756910D01*
X61540Y775970D02*
X79320D01*
X79200Y759450D02*
X79320Y759570D01*
X79200Y744910D02*
Y759450D01*
X60150Y653350D02*
X64080Y657280D01*
X60150Y642620D02*
Y653350D01*
X77930Y656130D02*
X79080Y657280D01*
X77930Y642620D02*
Y656130D01*
X95950Y758420D02*
X97100Y759570D01*
X95950Y744910D02*
Y758420D01*
X79320Y759570D02*
X97100D01*
Y775970D02*
X114880D01*
X115830Y758620D02*
X128530D01*
X110950Y755640D02*
X114880Y759570D01*
X115830Y758620D01*
X128530D02*
X132770Y754380D01*
X110950Y744910D02*
Y755640D01*
X95830Y657280D02*
X96980Y656130D01*
Y642620D02*
Y656130D01*
X110830Y657280D02*
X114760Y653350D01*
Y642620D02*
Y653350D01*
X96570Y671780D02*
X110830Y657520D01*
X96570Y671780D02*
Y679710D01*
X95830Y657280D02*
Y662510D01*
X90070Y668270D02*
Y679710D01*
Y668270D02*
X95830Y662510D01*
X79080Y657280D02*
X90070Y668270D01*
X77070Y679710D02*
X77510Y680150D01*
X77070Y679710D02*
X77445Y680085D01*
X96570Y716330D02*
Y721210D01*
X96520Y716280D02*
X96570Y716330D01*
X96520Y714130D02*
Y716280D01*
X96130Y713740D02*
X96520Y714130D01*
X96130Y713740D02*
X96195Y713675D01*
Y712015D02*
Y713675D01*
X92580Y708400D02*
X96195Y712015D01*
X82290Y708400D02*
X92580D01*
X53340Y685800D02*
X58574Y691034D01*
X102870Y735330D02*
X111875Y744335D01*
X92462Y735330D02*
X102870D01*
X90510Y733378D02*
X92462Y735330D01*
X90070Y728880D02*
X90170Y728980D01*
X90070Y721210D02*
X90510Y721650D01*
Y733378D01*
X83570Y721210D02*
X84010D01*
X83130Y721650D02*
Y730470D01*
Y721650D02*
X83570Y721210D01*
X79200Y734400D02*
X83130Y730470D01*
X79200Y734400D02*
Y744910D01*
X109817Y732790D02*
X126420D01*
X106097Y729070D02*
X109817Y732790D01*
X105410Y729070D02*
X106097D01*
X106310Y692520D02*
X107950Y690880D01*
X77070Y713930D02*
Y721210D01*
X74146Y711006D02*
X77070Y713930D01*
X74146Y707876D02*
Y711006D01*
X73660Y707390D02*
X74146Y707876D01*
X87560Y692520D02*
X106310D01*
X84010Y688970D02*
X87560Y692520D01*
X84010Y688286D02*
Y688970D01*
X489410Y210930D02*
X507190D01*
X452580D02*
X470360D01*
X296370D02*
X314150D01*
X259540D02*
X277320D01*
X103330D02*
X121110D01*
X66500D02*
X84280D01*
X296370Y419330D02*
X314150D01*
X333200D02*
X350980D01*
X495760Y626220D02*
X513540D01*
X458930D02*
X476710D01*
X361840Y742140D02*
Y759920D01*
Y705310D02*
Y723090D01*
X96980Y626220D02*
X114760D01*
X60150D02*
X77930D01*
X470547Y549870D02*
X483300D01*
X469317Y548640D02*
X470547Y549870D01*
X458590Y539740D02*
Y539750D01*
X497257D02*
X499939Y537068D01*
X203200Y88900D02*
X203686Y89386D01*
Y91926D01*
X208280Y96520D01*
X217290D01*
X237490Y181490D02*
Y189230D01*
X231140Y195580D02*
X237490Y189230D01*
X219710Y195580D02*
X231140D01*
X265310Y87960D02*
X271907Y81363D01*
X383540Y346492D02*
X385028Y347980D01*
X386080D01*
X458470Y554870D02*
X458470Y554870D01*
X483300D01*
X224670Y34290D02*
X225370Y33590D01*
Y19050D02*
Y33590D01*
X224920Y34290D02*
X230378Y39748D01*
Y51308D01*
X214630Y134620D02*
X230378Y118872D01*
X198120Y134620D02*
X214630D01*
X192490Y128990D02*
X198120Y134620D01*
X185560Y128990D02*
X192490D01*
X182880Y126310D02*
X185560Y128990D01*
X241451Y150090D02*
X244221Y147320D01*
X235870Y150090D02*
X241451D01*
X220290Y165670D02*
X235870Y150090D01*
X220290Y165670D02*
Y166370D01*
X271907Y147320D02*
Y163583D01*
X269120Y166370D02*
X271907Y163583D01*
X246991Y150090D02*
Y159241D01*
X250390Y162640D01*
Y162890D01*
X253870Y166370D01*
X232803Y68338D02*
X244221Y79756D01*
X224548Y68338D02*
X232803D01*
X215900Y59690D02*
X224548Y68338D01*
X215900Y40520D02*
Y59690D01*
X213400Y38020D02*
X215900Y40520D01*
X213400Y37770D02*
Y38020D01*
X209920Y34290D02*
X213400Y37770D01*
X209670Y34290D02*
X209920D01*
X258064Y51308D02*
X258240Y51132D01*
Y37550D02*
Y51132D01*
Y37550D02*
X260920Y34870D01*
X261620D01*
X244221Y35251D02*
Y79756D01*
X243840Y34870D02*
X244221Y35251D01*
X241451Y82526D02*
X244221Y79756D01*
X241451Y82526D02*
Y87609D01*
X232540Y96520D02*
X241451Y87609D01*
X232290Y96520D02*
X232540D01*
X244221Y79756D02*
X246580Y82115D01*
Y93040D01*
X250060Y96520D01*
X250310D01*
X271907Y79756D02*
Y81363D01*
X265310Y87960D02*
Y96520D01*
X427808Y131318D02*
X452374D01*
X427300Y130810D02*
X427808Y131318D01*
Y51308D02*
X452374D01*
X427300Y50800D02*
X427808Y51308D01*
X119126D02*
X144962D01*
X145470Y50800D01*
X119126Y131318D02*
X144962D01*
X145470Y130810D01*
X219590Y167070D02*
X220170Y166490D01*
X237490D01*
X219590Y167070D02*
Y181610D01*
X379040Y525900D02*
X379160Y525780D01*
X256540Y803223D02*
Y803910D01*
X255270Y801953D02*
X256540Y803223D01*
X527706Y586680D02*
X527726Y586660D01*
X504470Y582650D02*
X508500Y586680D01*
X504470Y582650D02*
X507300Y579820D01*
Y559870D02*
Y564870D01*
X542750Y570280D02*
X544130Y571660D01*
X527706Y570280D02*
X542750D01*
X527706Y553468D02*
Y570280D01*
X526304Y554870D02*
X527706Y553468D01*
X507300Y554870D02*
X526304D01*
X170640Y435610D02*
Y449120D01*
X137740Y450270D02*
Y461700D01*
X133810Y446340D02*
X137740Y450270D01*
X151590Y449120D02*
X152740Y450270D01*
X151590Y435610D02*
Y449120D01*
X133810Y435610D02*
Y446340D01*
X120650Y581660D02*
X127000Y588010D01*
X143510D01*
X120650Y571500D02*
Y581660D01*
X143510Y588010D02*
X154800Y576720D01*
X150730Y472700D02*
X151170Y473140D01*
X115570Y462860D02*
Y477400D01*
X99060Y499770D02*
Y521390D01*
X116840Y507390D02*
Y521390D01*
X137860Y537900D02*
Y549900D01*
X107950Y553720D02*
X116120Y545550D01*
X135200Y552560D02*
X137860Y549900D01*
X135200Y568960D02*
X152980D01*
X130718Y537900D02*
X137860D01*
X123068Y545550D02*
X130718Y537900D01*
X116120Y545550D02*
X123068D01*
X99060Y499770D02*
X99180Y499650D01*
Y478790D02*
Y499650D01*
X97790Y462860D02*
Y477400D01*
X99180Y478790D01*
X127000D02*
X132234Y484024D01*
X114180Y478790D02*
X115570Y477400D01*
X116840Y507390D02*
X125120Y499110D01*
X114180Y478790D02*
X125120Y489730D01*
Y499110D01*
X128270Y471170D02*
X137740Y461700D01*
X147320Y500380D02*
X147806Y500866D01*
X150730Y506920D02*
Y514200D01*
X147806Y503996D02*
X150730Y506920D01*
X147806Y500866D02*
Y503996D01*
X150730Y472700D02*
X151105Y473075D01*
X200080Y508000D02*
Y525780D01*
X169490Y450270D02*
X170640Y449120D01*
X184490Y450270D02*
X210240D01*
X210820Y450850D01*
X184490Y450270D02*
Y450510D01*
X152860Y552440D02*
X152980Y552560D01*
X188540D02*
X189490Y551610D01*
X184610Y548630D02*
X188540Y552560D01*
X195440Y576720D02*
X198120Y574040D01*
X170760Y568960D02*
X188540D01*
X198120Y559472D02*
Y574040D01*
X152980Y552560D02*
X170760D01*
X154800Y576720D02*
X195440D01*
X169610Y551410D02*
X170760Y552560D01*
X198120Y559472D02*
X200902Y556690D01*
X152860Y527390D02*
X156790Y523460D01*
X152860Y537900D02*
Y552440D01*
X179070Y522060D02*
X179757D01*
X156790Y514640D02*
X157230Y514200D01*
X157670D01*
X156790Y514640D02*
Y523460D01*
X202190Y551610D02*
X206430Y547370D01*
X222830D02*
Y565150D01*
X213510Y556690D02*
X222830Y547370D01*
X200902Y556690D02*
X213510D01*
X164170Y526368D02*
X166122Y528320D01*
X169790Y506730D02*
X170180Y507120D01*
Y509270D02*
X170230Y509320D01*
X163730Y521870D02*
X163830Y521970D01*
X169790Y506730D02*
X169855Y506665D01*
X170230Y509320D02*
Y514200D01*
X170180Y507120D02*
Y509270D01*
X163730Y514200D02*
X164170Y514640D01*
Y526368D01*
X166240Y501390D02*
X169855Y505005D01*
Y506665D01*
X190620Y498540D02*
X200080Y508000D01*
X190620Y492760D02*
Y498540D01*
X161220Y485510D02*
X179970D01*
X157670Y481276D02*
Y481960D01*
X163730Y461260D02*
X169490Y455500D01*
X170230Y464770D02*
X184490Y450510D01*
X163730Y461260D02*
Y472700D01*
X170230Y464770D02*
Y472700D01*
X152740Y450270D02*
X163730Y461260D01*
X169490Y450270D02*
Y455500D01*
X179970Y485510D02*
X181610Y483870D01*
X157670Y481960D02*
X161220Y485510D01*
X190620Y492760D02*
X194920Y488460D01*
Y471170D02*
Y488460D01*
X152860Y527390D02*
Y537900D01*
X184610D02*
Y548630D01*
X176530Y528320D02*
X185535Y537325D01*
X183477Y525780D02*
X200080D01*
X179757Y522060D02*
X183477Y525780D01*
X166122Y528320D02*
X176530D01*
X169610Y537900D02*
Y551410D01*
X189490Y551610D02*
X202190D01*
X184490Y450270D02*
X188420Y446340D01*
Y435610D02*
Y446340D01*
X339408Y642219D02*
Y656273D01*
Y642219D02*
X339725Y641902D01*
X339090Y656590D02*
X339408Y656273D01*
X253870Y166370D02*
X254120D01*
X244221Y147320D02*
X246991Y150090D01*
X265310Y96520D02*
X265560D01*
X448310Y615950D02*
X481330D01*
X326390Y656590D02*
X326707Y656273D01*
Y642219D02*
Y656273D01*
Y642219D02*
X327025Y641902D01*
X351790Y656590D02*
X352108Y656273D01*
Y642219D02*
Y656273D01*
Y642219D02*
X352425Y641902D01*
X295910Y656590D02*
X295975D01*
X301085Y651480D01*
Y642442D02*
Y651480D01*
X288608Y641584D02*
X288925Y641902D01*
X275265Y653792D02*
X286073D01*
X272467Y656590D02*
X275265Y653792D01*
X286073D02*
X288385Y651480D01*
X372110Y742950D02*
X379730Y735330D01*
X468630Y795020D02*
X479920Y783730D01*
X49530Y615950D02*
X82550D01*
X139120Y356870D02*
Y370260D01*
X52070Y193040D02*
X96520D01*
X55880Y200660D02*
X88900D01*
X48260Y208280D02*
X55880Y200660D01*
X132770Y772160D02*
Y785550D01*
X271780Y656590D02*
X272467D01*
X288385Y642442D02*
Y651480D01*
Y642442D02*
X288925Y641902D01*
X301085Y642442D02*
X301625Y641902D01*
X276225Y625475D02*
Y641902D01*
X275590Y624840D02*
X276225Y625475D01*
X314007Y625158D02*
Y641584D01*
X313785Y642442D02*
X314325Y641902D01*
X313690Y624840D02*
X314007Y625158D01*
Y641584D02*
X314325Y641902D01*
X301085Y641362D02*
X301625Y641902D01*
X368990Y565270D02*
Y578660D01*
X207793Y576071D02*
Y576758D01*
X206430Y574707D02*
X207793Y576071D01*
X206430Y565150D02*
Y574707D01*
X332160Y356870D02*
Y370260D01*
X262985Y631285D02*
Y642442D01*
X257810Y626110D02*
X262985Y631285D01*
X198495Y626110D02*
X257810D01*
X187865Y615480D02*
X198495Y626110D01*
X187865Y615272D02*
Y615480D01*
X184150Y611557D02*
X187865Y615272D01*
X184150Y610870D02*
Y611557D01*
X263207Y641584D02*
X263525Y641902D01*
X498740Y277230D02*
X500380Y275590D01*
X488950Y300990D02*
X489000Y301040D01*
X488950Y298840D02*
Y300990D01*
X488560Y298450D02*
X488950Y298840D01*
X488560Y298450D02*
X488625Y298385D01*
Y296725D02*
Y298385D01*
X485010Y293110D02*
X488625Y296725D01*
X479990Y277230D02*
X498740D01*
X509390Y290260D02*
X518850Y299720D01*
X509390Y284480D02*
Y290260D01*
Y284480D02*
X513690Y280180D01*
Y262890D02*
Y280180D01*
X466576Y292586D02*
Y295716D01*
X469500Y298640D01*
X466090Y292100D02*
X466576Y292586D01*
X476440Y273680D02*
X479990Y277230D01*
X443890Y281450D02*
Y290830D01*
X445770Y270510D02*
X451004Y275744D01*
X417950Y270510D02*
Y291370D01*
X432950Y270510D02*
X443890Y281450D01*
X432950Y270510D02*
X434340Y269120D01*
Y254580D02*
Y269120D01*
X416560Y254580D02*
Y269120D01*
X435610Y299110D02*
X443890Y290830D01*
X417830Y291490D02*
X417950Y291370D01*
X416560Y269120D02*
X417950Y270510D01*
X470360Y240840D02*
X471510Y241990D01*
X482500Y252980D02*
Y264420D01*
X489000Y256490D02*
X503260Y242230D01*
X471510Y241990D02*
X482500Y252980D01*
X488260Y247220D01*
X447040Y262890D02*
X456510Y253420D01*
Y241990D02*
Y253420D01*
X434340Y208280D02*
Y238180D01*
X416560Y214630D02*
Y238180D01*
X434340Y208280D02*
X441960Y200660D01*
X416560Y214630D02*
X438150Y193040D01*
X489410Y227330D02*
Y240840D01*
X482600Y193040D02*
X490220Y200660D01*
X507190Y227330D02*
Y238060D01*
X452580Y238060D02*
X456510Y241990D01*
X470360Y227330D02*
Y240840D01*
X452580Y227330D02*
Y238060D01*
X441960Y200660D02*
X474980D01*
X438150Y193040D02*
X482600D01*
X503260Y241990D02*
Y242230D01*
X488260Y241990D02*
Y247220D01*
X503260Y241990D02*
X529010D01*
X488260D02*
X489410Y240840D01*
X529010Y241990D02*
X529590Y242570D01*
X503260Y241990D02*
X507190Y238060D01*
X489000Y256490D02*
Y264420D01*
X476440Y272996D02*
Y273680D01*
X469500Y264420D02*
X469940Y264860D01*
X469500Y264420D02*
X469875Y264795D01*
X471630Y344160D02*
X471750Y344280D01*
X489530D01*
X507310D02*
X508260Y343330D01*
X488380Y343130D02*
X489530Y344280D01*
X453970D02*
X456630Y341620D01*
X525200Y356870D02*
Y370260D01*
X541600Y339090D02*
Y356870D01*
X520960Y343330D02*
X525200Y339090D01*
X532280Y348410D02*
X541600Y339090D01*
X488380Y329620D02*
Y343130D01*
X503380Y329620D02*
Y340350D01*
X456630Y329620D02*
Y341620D01*
X426720Y345440D02*
X434890Y337270D01*
X441838D01*
X449488Y329620D02*
X456630D01*
X471630D02*
Y344160D01*
X441838Y337270D02*
X449488Y329620D01*
X514210Y368440D02*
X516890Y365760D01*
X503380Y340350D02*
X507310Y344280D01*
X516890Y351192D02*
Y365760D01*
Y351192D02*
X519672Y348410D01*
X532280D01*
X508260Y343330D02*
X520960D01*
X439420Y373380D02*
X445770Y379730D01*
X462280D01*
X473570Y368440D01*
X514210D01*
X489530Y360680D02*
X507310D01*
X453970D02*
X471750D01*
X439420Y363220D02*
Y373380D01*
X498527Y313780D02*
X502247Y317500D01*
X518850D01*
Y299720D02*
Y317500D01*
X489000Y301040D02*
Y305920D01*
X497840Y313780D02*
X498527D01*
X482500Y313590D02*
X482600Y313690D01*
X475560Y306360D02*
Y315180D01*
Y306360D02*
X476000Y305920D01*
X482500D02*
X482940Y306360D01*
X476000Y305920D02*
X476440D01*
X484892Y320040D02*
X495300D01*
X504305Y329045D01*
X482940Y318088D02*
X484892Y320040D01*
X482940Y306360D02*
Y318088D01*
X417830Y291490D02*
Y313110D01*
X469500Y298640D02*
Y305920D01*
X471630Y319110D02*
Y329620D01*
Y319110D02*
X475560Y315180D01*
X435610Y299110D02*
Y313110D01*
X163830Y401320D02*
X171207Y408697D01*
X292590Y766420D02*
X309880D01*
X288290Y762120D02*
X292590Y766420D01*
X281280Y670560D02*
X281400Y670680D01*
X281940Y696620D02*
X291320D01*
X302260Y685680D01*
X281400Y670680D02*
X302260D01*
X330540Y755990D02*
X330780D01*
X330200Y782320D02*
X330780Y781740D01*
Y755990D02*
Y781740D01*
X235500Y694568D02*
X243150Y702218D01*
X235500Y687620D02*
Y694568D01*
X227330Y679450D02*
X235500Y687620D01*
X243150Y702218D02*
Y709360D01*
X255270Y771580D02*
X273050D01*
X282510Y762120D01*
X288290D01*
X334590Y669290D02*
X358140D01*
X379730Y690880D02*
Y735330D01*
X358140Y669290D02*
X379730Y690880D01*
X302260Y670680D02*
X303650Y669290D01*
X318190D01*
X259660Y670560D02*
X281280D01*
X319350Y709240D02*
X330780D01*
X309880Y699770D02*
X319350Y709240D01*
X364490Y687070D02*
X372110Y694690D01*
Y727710D01*
X334590Y687070D02*
X364490D01*
X303650D02*
X318190D01*
X302260Y685680D02*
X303650Y687070D01*
X273660Y688340D02*
X281940Y696620D01*
X259660Y688340D02*
X273660D01*
X207010Y769620D02*
X221578D01*
X224360Y772402D01*
X204330Y726300D02*
Y766940D01*
X207010Y769620D01*
X224360Y772402D02*
Y785010D01*
X233680Y794330D01*
X193040Y698500D02*
Y715010D01*
X204330Y726300D01*
X193040Y698500D02*
X199390Y692150D01*
X209550D01*
X215900Y794330D02*
X233680D01*
X202510Y777930D02*
X215900D01*
X228490Y706700D02*
X231150Y709360D01*
X243150D01*
X212090Y706700D02*
Y724480D01*
X228490D02*
X228610Y724360D01*
X243150D01*
X330780Y709240D02*
X334710Y705310D01*
X345440D01*
X330780Y724240D02*
X331930Y723090D01*
X345440D01*
X228490Y742260D02*
X229640Y741110D01*
X243150D01*
X228490Y724480D02*
Y742260D01*
X212090D02*
Y760040D01*
X229440Y760990D02*
Y773690D01*
X228490Y760040D02*
X232420Y756110D01*
X228490Y760040D02*
X229440Y760990D01*
Y773690D02*
X233680Y777930D01*
X232420Y756110D02*
X243150D01*
X330780Y740990D02*
X331930Y742140D01*
X345440D01*
X330780Y755990D02*
X334710Y759920D01*
X345440D01*
X316280Y741730D02*
X330540Y755990D01*
X308350Y741730D02*
X316280D01*
X325550Y740990D02*
X330780D01*
X308350Y735230D02*
X319790D01*
X325550Y740990D01*
X319790Y735230D02*
X330780Y724240D01*
X307910Y722670D02*
X308350Y722230D01*
X307975Y722605D02*
X308350Y722230D01*
X266850Y741730D02*
X271730D01*
X271780Y741680D01*
X273930D01*
X274320Y741290D01*
X274385Y741355D01*
X276045D01*
X279660Y737740D01*
Y727450D02*
Y737740D01*
X297026Y703734D02*
X302260Y698500D01*
X243725Y757035D02*
X252730Y748030D01*
Y737622D02*
Y748030D01*
Y737622D02*
X254682Y735670D01*
X259080Y735330D02*
X259180Y735230D01*
X266410Y735670D02*
X266850Y735230D01*
X254682Y735670D02*
X266410D01*
X266850Y728730D02*
Y729170D01*
X257590Y728290D02*
X266410D01*
X266850Y728730D01*
X253660Y724360D02*
X257590Y728290D01*
X243150Y724360D02*
X253660D01*
X255270Y754977D02*
Y771580D01*
Y754977D02*
X258990Y751257D01*
Y750570D02*
Y751257D01*
X295540Y751470D02*
X297180Y753110D01*
X266850Y722230D02*
X274130D01*
X277054Y719306D01*
X280184D01*
X280670Y718820D01*
X295540Y732720D02*
Y751470D01*
Y732720D02*
X299090Y729170D01*
X299774D01*
X520040Y678180D02*
Y695470D01*
X515740Y699770D02*
X520040Y695470D01*
X424180Y706780D02*
X424300Y706660D01*
X450240Y696740D02*
Y706120D01*
X439300Y685800D02*
X450240Y696740D01*
X424300Y685800D02*
Y706660D01*
X509610Y657280D02*
Y657520D01*
X535360Y657280D02*
X535940Y657860D01*
X509610Y657280D02*
X535360D01*
X448188Y752560D02*
X455838Y744910D01*
X441240Y752560D02*
X448188D01*
X433070Y760730D02*
X441240Y752560D01*
X455838Y744910D02*
X462980D01*
X525200Y715010D02*
Y732790D01*
X515740Y705550D02*
X525200Y715010D01*
X515740Y699770D02*
Y705550D01*
X422910Y629920D02*
Y653470D01*
X488950Y608330D02*
X496570Y615950D01*
X444500Y608330D02*
X488950D01*
X422910Y629920D02*
X444500Y608330D01*
X422910Y684410D02*
X424300Y685800D01*
X422910Y669870D02*
Y684410D01*
X424180Y706780D02*
Y728400D01*
X462860Y657280D02*
Y668710D01*
X453390Y678180D02*
X462860Y668710D01*
X440690Y623570D02*
X448310Y615950D01*
X440690Y623570D02*
Y653470D01*
Y669870D02*
Y684410D01*
X439300Y685800D02*
X440690Y684410D01*
X441960Y714400D02*
X450240Y706120D01*
X441960Y714400D02*
Y728400D01*
X441270Y745490D02*
X441960Y744800D01*
X523240Y766482D02*
Y781050D01*
Y766482D02*
X526022Y763700D01*
X479920Y783730D02*
X520560D01*
X523240Y781050D01*
X526022Y763700D02*
X538630D01*
X547950Y754380D01*
X452120Y795020D02*
X468630D01*
X445770Y788670D02*
X452120Y795020D01*
X445770Y778510D02*
Y788670D01*
X547950Y754380D02*
Y772160D01*
X531550D02*
Y785550D01*
X460320Y759570D02*
X462980Y756910D01*
Y744910D02*
Y756910D01*
X460320Y775970D02*
X478100D01*
X477980Y759450D02*
X478100Y759570D01*
X477980Y744910D02*
Y759450D01*
X458930Y653350D02*
X462860Y657280D01*
X458930Y642620D02*
Y653350D01*
X476710Y656130D02*
X477860Y657280D01*
X476710Y642620D02*
Y656130D01*
X494730Y758420D02*
X495880Y759570D01*
X494730Y744910D02*
Y758420D01*
X478100Y759570D02*
X495880D01*
Y775970D02*
X513660D01*
X514610Y758620D02*
X527310D01*
X509730Y755640D02*
X513660Y759570D01*
X514610Y758620D01*
X527310D02*
X531550Y754380D01*
X509730Y744910D02*
Y755640D01*
X494610Y657280D02*
X495760Y656130D01*
Y642620D02*
Y656130D01*
X509610Y657280D02*
X513540Y653350D01*
Y642620D02*
Y653350D01*
X495350Y671780D02*
X509610Y657520D01*
X495350Y671780D02*
Y679710D01*
X494610Y657280D02*
Y662510D01*
X488850Y668270D02*
Y679710D01*
Y668270D02*
X494610Y662510D01*
X477860Y657280D02*
X488850Y668270D01*
X475850Y679710D02*
X476290Y680150D01*
X475850Y679710D02*
X476225Y680085D01*
X495350Y716330D02*
Y721210D01*
X495300Y716280D02*
X495350Y716330D01*
X495300Y714130D02*
Y716280D01*
X494910Y713740D02*
X495300Y714130D01*
X494910Y713740D02*
X494975Y713675D01*
Y712015D02*
Y713675D01*
X491360Y708400D02*
X494975Y712015D01*
X452120Y685800D02*
X457354Y691034D01*
X501650Y735330D02*
X510655Y744335D01*
X491242Y735330D02*
X501650D01*
X489290Y733378D02*
X491242Y735330D01*
X488850Y728880D02*
X488950Y728980D01*
X488850Y721210D02*
X489290Y721650D01*
Y733378D01*
X482350Y721210D02*
X482790D01*
X481910Y721650D02*
Y730470D01*
Y721650D02*
X482350Y721210D01*
X477980Y734400D02*
X481910Y730470D01*
X477980Y734400D02*
Y744910D01*
X508597Y732790D02*
X525200D01*
X504878Y729070D02*
X508597Y732790D01*
X504190Y729070D02*
X504878D01*
X505090Y692520D02*
X506730Y690880D01*
X475850Y713930D02*
Y721210D01*
X472926Y711006D02*
X475850Y713930D01*
X472926Y707876D02*
Y711006D01*
X472440Y707390D02*
X472926Y707876D01*
X486340Y692520D02*
X505090D01*
X482790Y688970D02*
X486340Y692520D01*
X482790Y688286D02*
Y688970D01*
X24130Y629920D02*
Y653470D01*
X90170Y608330D02*
X97790Y615950D01*
X45720Y608330D02*
X90170D01*
X24130Y629920D02*
X45720Y608330D01*
X41910Y623570D02*
X49530Y615950D01*
X41910Y623570D02*
Y653470D01*
X357480Y471290D02*
Y488580D01*
X353180Y492880D02*
X357480Y488580D01*
X261620Y499890D02*
X261740Y499770D01*
X287680Y489850D02*
Y499230D01*
X276740Y478910D02*
X287680Y489850D01*
X261740Y478910D02*
Y499770D01*
X347050Y450390D02*
Y450630D01*
X372800Y450390D02*
X373380Y450970D01*
X347050Y450390D02*
X372800D01*
X285628Y545670D02*
X293278Y538020D01*
X278680Y545670D02*
X285628D01*
X270510Y553840D02*
X278680Y545670D01*
X293278Y538020D02*
X300420D01*
X362640Y508120D02*
Y525900D01*
X353180Y498660D02*
X362640Y508120D01*
X353180Y492880D02*
Y498660D01*
X260350Y423030D02*
Y446580D01*
X326390Y401440D02*
X334010Y409060D01*
X281940Y401440D02*
X326390D01*
X260350Y423030D02*
X281940Y401440D01*
X260350Y477520D02*
X261740Y478910D01*
X260350Y462980D02*
Y477520D01*
X261620Y499890D02*
Y521510D01*
X300300Y450390D02*
Y461820D01*
X290830Y471290D02*
X300300Y461820D01*
X278130Y416680D02*
X285750Y409060D01*
X318770D01*
X278130Y416680D02*
Y446580D01*
Y462980D02*
Y477520D01*
X276740Y478910D02*
X278130Y477520D01*
X279400Y507510D02*
X287680Y499230D01*
X279400Y507510D02*
Y521510D01*
X360680Y559592D02*
Y574160D01*
Y559592D02*
X363462Y556810D01*
X317360Y576840D02*
X358000D01*
X360680Y574160D01*
X363462Y556810D02*
X376070D01*
X385390Y547490D01*
X289560Y588130D02*
X306070D01*
X317360Y576840D01*
X283210Y581780D02*
X289560Y588130D01*
X283210Y571620D02*
Y581780D01*
X385390Y547490D02*
Y565270D01*
X297760Y552680D02*
X300420Y550020D01*
Y538020D02*
Y550020D01*
X297760Y569080D02*
X315540D01*
X315420Y552560D02*
X315540Y552680D01*
X315420Y538020D02*
Y552560D01*
X296370Y446460D02*
X300300Y450390D01*
X296370Y435730D02*
Y446460D01*
X314150Y449240D02*
X315300Y450390D01*
X314150Y435730D02*
Y449240D01*
X332170Y551530D02*
X333320Y552680D01*
X332170Y538020D02*
Y551530D01*
X315540Y552680D02*
X333320D01*
Y569080D02*
X351100D01*
X352050Y551730D02*
X364750D01*
X347170Y548750D02*
X351100Y552680D01*
X352050Y551730D01*
X364750D02*
X368990Y547490D01*
X347170Y538020D02*
Y548750D01*
X332050Y450390D02*
X333200Y449240D01*
Y435730D02*
Y449240D01*
X347050Y450390D02*
X350980Y446460D01*
Y435730D02*
Y446460D01*
X332790Y464890D02*
X347050Y450630D01*
X332790Y464890D02*
Y472820D01*
X332050Y450390D02*
Y455620D01*
X326290Y461380D02*
Y472820D01*
Y461380D02*
X332050Y455620D01*
X315300Y450390D02*
X326290Y461380D01*
X313290Y472820D02*
X313730Y473260D01*
X313290Y472820D02*
X313665Y473195D01*
X332790Y509440D02*
Y514320D01*
X332740Y509390D02*
X332790Y509440D01*
X332740Y507240D02*
Y509390D01*
X332350Y506850D02*
X332740Y507240D01*
X332350Y506850D02*
X332415Y506785D01*
Y505125D02*
Y506785D01*
X328800Y501510D02*
X332415Y505125D01*
X289560Y478910D02*
X294794Y484144D01*
X339090Y528440D02*
X348095Y537445D01*
X328682Y528440D02*
X339090D01*
X326730Y526488D02*
X328682Y528440D01*
X326290Y521990D02*
X326390Y522090D01*
X326290Y514320D02*
X326730Y514760D01*
Y526488D01*
X319790Y514320D02*
X320230D01*
X319350Y514760D02*
Y523580D01*
Y514760D02*
X319790Y514320D01*
X315420Y527510D02*
X319350Y523580D01*
X315420Y527510D02*
Y538020D01*
X346037Y525900D02*
X362640D01*
X342318Y522180D02*
X346037Y525900D01*
X341630Y522180D02*
X342318D01*
X342530Y485630D02*
X344170Y483990D01*
X313290Y507040D02*
Y514320D01*
X310366Y504116D02*
X313290Y507040D01*
X310366Y500986D02*
Y504116D01*
X309880Y500500D02*
X310366Y500986D01*
X323780Y485630D02*
X342530D01*
X320230Y482080D02*
X323780Y485630D01*
X320230Y481396D02*
Y482080D01*
X49530Y299110D02*
X57810Y290830D01*
X31870Y270510D02*
Y291370D01*
X46870Y270510D02*
X57810Y281450D01*
Y290830D01*
X31750Y291490D02*
X31870Y291370D01*
X96420Y252980D02*
Y264420D01*
X127610Y262890D02*
Y280180D01*
X83420Y264420D02*
X83795Y264795D01*
X90360Y272996D02*
Y273680D01*
X93910Y277230D01*
X112660D01*
X114300Y275590D01*
X83420Y264420D02*
X83860Y264860D01*
X96420Y252980D02*
X102180Y247220D01*
X102920Y256490D02*
Y264420D01*
X102870Y298840D02*
Y300990D01*
X98930Y293110D02*
X102545Y296725D01*
X80010Y292100D02*
X80496Y292586D01*
Y295716D01*
X83420Y298640D01*
X102545Y296725D02*
Y298385D01*
X102480Y298450D02*
X102545Y298385D01*
X102480Y298450D02*
X102870Y298840D01*
Y300990D02*
X102920Y301040D01*
X59690Y270510D02*
X64924Y275744D01*
X46870Y270510D02*
X48260Y269120D01*
Y254580D02*
Y269120D01*
X60960Y262890D02*
X70430Y253420D01*
X30480Y254580D02*
Y269120D01*
X31870Y270510D01*
X123310Y284480D02*
Y290260D01*
Y284480D02*
X127610Y280180D01*
X123310Y290260D02*
X132770Y299720D01*
Y317500D01*
X134880Y343330D02*
X139120Y339090D01*
X155520D02*
Y356870D01*
X146200Y348410D02*
X155520Y339090D01*
X133592Y348410D02*
X146200D01*
X130810Y351192D02*
X133592Y348410D01*
X59690Y379730D02*
X76200D01*
X53340Y373380D02*
X59690Y379730D01*
X76200D02*
X87490Y368440D01*
X128130D01*
X103450Y360680D02*
X121230D01*
X67890D02*
X85670D01*
X53340Y363220D02*
Y373380D01*
X128130Y368440D02*
X130810Y365760D01*
Y351192D02*
Y365760D01*
X48260Y208280D02*
Y238180D01*
X31750Y291490D02*
Y313110D01*
X30480Y214630D02*
X52070Y193040D01*
X30480Y214630D02*
Y238180D01*
X121110Y227330D02*
Y238060D01*
X117180Y241990D02*
X121110Y238060D01*
X103330Y227330D02*
Y240840D01*
X96520Y193040D02*
X104140Y200660D01*
X117180Y241990D02*
X142930D01*
X143510Y242570D01*
X85430Y241990D02*
X96420Y252980D01*
X102180Y241990D02*
Y247220D01*
X102920Y256490D02*
X117180Y242230D01*
X102180Y241990D02*
X103330Y240840D01*
X84280Y240840D02*
X85430Y241990D01*
X70430D02*
Y253420D01*
X117180Y241990D02*
Y242230D01*
X111760Y313780D02*
X112448D01*
X83420Y298640D02*
Y305920D01*
X89480Y306360D02*
X89920Y305920D01*
X90360D01*
X96420D02*
X96860Y306360D01*
X96420Y313590D02*
X96520Y313690D01*
X102920Y301040D02*
Y305920D01*
X49530Y299110D02*
Y313110D01*
X84280Y227330D02*
Y240840D01*
X66500Y227330D02*
Y238060D01*
X70430Y241990D01*
X85670Y344280D02*
X103450D01*
X112448Y313780D02*
X116167Y317500D01*
X132770D01*
X109220Y320040D02*
X118225Y329045D01*
X122180Y343330D02*
X134880D01*
X117300Y329620D02*
Y340350D01*
X121230Y344280D02*
X122180Y343330D01*
X117300Y340350D02*
X121230Y344280D01*
X102300Y329620D02*
Y343130D01*
X103450Y344280D01*
X85550Y329620D02*
Y344160D01*
X85670Y344280D01*
X70550Y329620D02*
Y341620D01*
X67890Y344280D02*
X70550Y341620D01*
X63408Y329620D02*
X70550D01*
X48810Y337270D02*
X55758D01*
X63408Y329620D01*
X98812Y320040D02*
X109220D01*
X85550Y319110D02*
Y329620D01*
Y319110D02*
X89480Y315180D01*
Y306360D02*
Y315180D01*
X96860Y306360D02*
Y318088D01*
X98812Y320040D01*
X40640Y345440D02*
X48810Y337270D01*
X320650Y262890D02*
Y280180D01*
X316350Y284480D02*
X320650Y280180D01*
X224790Y291490D02*
X224910Y291370D01*
X250850Y281450D02*
Y290830D01*
X239910Y270510D02*
X250850Y281450D01*
X224910Y270510D02*
Y291370D01*
X310220Y241990D02*
Y242230D01*
X335970Y241990D02*
X336550Y242570D01*
X310220Y241990D02*
X335970D01*
X248798Y337270D02*
X256448Y329620D01*
X241850Y337270D02*
X248798D01*
X233680Y345440D02*
X241850Y337270D01*
X256448Y329620D02*
X263590D01*
X325810Y299720D02*
Y317500D01*
X316350Y290260D02*
X325810Y299720D01*
X316350Y284480D02*
Y290260D01*
X223520Y214630D02*
Y238180D01*
X289560Y193040D02*
X297180Y200660D01*
X245110Y193040D02*
X289560D01*
X223520Y214630D02*
X245110Y193040D01*
X223520Y269120D02*
X224910Y270510D01*
X223520Y254580D02*
Y269120D01*
X224790Y291490D02*
Y313110D01*
X263470Y241990D02*
Y253420D01*
X254000Y262890D02*
X263470Y253420D01*
X241300Y208280D02*
X248920Y200660D01*
X281940D01*
X241300Y208280D02*
Y238180D01*
Y254580D02*
Y269120D01*
X239910Y270510D02*
X241300Y269120D01*
X242570Y299110D02*
X250850Y290830D01*
X242570Y299110D02*
Y313110D01*
X323850Y351192D02*
Y365760D01*
Y351192D02*
X326632Y348410D01*
X280530Y368440D02*
X321170D01*
X323850Y365760D01*
X326632Y348410D02*
X339240D01*
X348560Y339090D01*
X252730Y379730D02*
X269240D01*
X280530Y368440D01*
X246380Y373380D02*
X252730Y379730D01*
X246380Y363220D02*
Y373380D01*
X348560Y339090D02*
Y356870D01*
X260930Y344280D02*
X263590Y341620D01*
Y329620D02*
Y341620D01*
X260930Y360680D02*
X278710D01*
X278590Y344160D02*
X278710Y344280D01*
X278590Y329620D02*
Y344160D01*
X259540Y238060D02*
X263470Y241990D01*
X259540Y227330D02*
Y238060D01*
X277320Y240840D02*
X278470Y241990D01*
X277320Y227330D02*
Y240840D01*
X295340Y343130D02*
X296490Y344280D01*
X295340Y329620D02*
Y343130D01*
X278710Y344280D02*
X296490D01*
Y360680D02*
X314270D01*
X315220Y343330D02*
X327920D01*
X310340Y340350D02*
X314270Y344280D01*
X315220Y343330D01*
X327920D02*
X332160Y339090D01*
X310340Y329620D02*
Y340350D01*
X295220Y241990D02*
X296370Y240840D01*
Y227330D02*
Y240840D01*
X310220Y241990D02*
X314150Y238060D01*
Y227330D02*
Y238060D01*
X295960Y256490D02*
X310220Y242230D01*
X295960Y256490D02*
Y264420D01*
X295220Y241990D02*
Y247220D01*
X289460Y252980D02*
Y264420D01*
Y252980D02*
X295220Y247220D01*
X278470Y241990D02*
X289460Y252980D01*
X276460Y264420D02*
X276900Y264860D01*
X276460Y264420D02*
X276835Y264795D01*
X295960Y301040D02*
Y305920D01*
X295910Y300990D02*
X295960Y301040D01*
X295910Y298840D02*
Y300990D01*
X295520Y298450D02*
X295910Y298840D01*
X295520Y298450D02*
X295585Y298385D01*
Y296725D02*
Y298385D01*
X291970Y293110D02*
X295585Y296725D01*
X252730Y270510D02*
X257964Y275744D01*
X302260Y320040D02*
X311265Y329045D01*
X291852Y320040D02*
X302260D01*
X289900Y318088D02*
X291852Y320040D01*
X289460Y313590D02*
X289560Y313690D01*
X289460Y305920D02*
X289900Y306360D01*
Y318088D01*
X282960Y305920D02*
X283400D01*
X282520Y306360D02*
Y315180D01*
Y306360D02*
X282960Y305920D01*
X278590Y319110D02*
X282520Y315180D01*
X278590Y319110D02*
Y329620D01*
X309207Y317500D02*
X325810D01*
X305487Y313780D02*
X309207Y317500D01*
X304800Y313780D02*
X305487D01*
X305700Y277230D02*
X307340Y275590D01*
X276460Y298640D02*
Y305920D01*
X273536Y295716D02*
X276460Y298640D01*
X273536Y292586D02*
Y295716D01*
X273050Y292100D02*
X273536Y292586D01*
X286950Y277230D02*
X305700D01*
X283400Y273680D02*
X286950Y277230D01*
X283400Y272996D02*
Y273680D01*
X97790Y422910D02*
Y446460D01*
Y422910D02*
X119380Y401320D01*
X163830D01*
X123190Y408940D02*
X156210D01*
X115570Y416560D02*
X123190Y408940D01*
X115570Y416560D02*
Y446460D01*
X262985Y642442D02*
X263525Y641902D01*
D17*
X507300Y564870D02*
D03*
X483300Y544870D02*
D03*
X507300Y559870D02*
D03*
Y554870D02*
D03*
Y549870D02*
D03*
Y544870D02*
D03*
X483300Y549870D02*
D03*
Y554870D02*
D03*
Y559870D02*
D03*
Y564870D02*
D03*
D18*
X495350Y679710D02*
D03*
X488850D02*
D03*
X482350D02*
D03*
X475850D02*
D03*
X495350Y721210D02*
D03*
X488850D02*
D03*
X482350D02*
D03*
X475850D02*
D03*
X96570Y679710D02*
D03*
X90070D02*
D03*
X83570D02*
D03*
X77070D02*
D03*
X96570Y721210D02*
D03*
X90070D02*
D03*
X83570D02*
D03*
X77070D02*
D03*
X332790Y472820D02*
D03*
X326290D02*
D03*
X319790D02*
D03*
X313290D02*
D03*
X332790Y514320D02*
D03*
X326290D02*
D03*
X319790D02*
D03*
X313290D02*
D03*
X489000Y264420D02*
D03*
X482500D02*
D03*
X476000D02*
D03*
X469500D02*
D03*
X489000Y305920D02*
D03*
X482500D02*
D03*
X476000D02*
D03*
X469500D02*
D03*
X295960Y264420D02*
D03*
X289460D02*
D03*
X282960D02*
D03*
X276460D02*
D03*
X295960Y305920D02*
D03*
X289460D02*
D03*
X282960D02*
D03*
X276460D02*
D03*
X102920Y264420D02*
D03*
X96420D02*
D03*
X89920D02*
D03*
X83420D02*
D03*
X102920Y305920D02*
D03*
X96420D02*
D03*
X89920D02*
D03*
X83420D02*
D03*
X170230Y472700D02*
D03*
X163730D02*
D03*
X157230D02*
D03*
X150730D02*
D03*
X170230Y514200D02*
D03*
X163730D02*
D03*
X157230D02*
D03*
X150730D02*
D03*
D19*
X308350Y741730D02*
D03*
Y735230D02*
D03*
Y728730D02*
D03*
Y722230D02*
D03*
X266850Y741730D02*
D03*
Y735230D02*
D03*
Y728730D02*
D03*
Y722230D02*
D03*
D20*
X541020Y617220D02*
D03*
X412750Y412750D02*
D03*
X397510D02*
D03*
D21*
X243840Y34870D02*
D03*
Y18470D02*
D03*
X261620Y34870D02*
D03*
Y18470D02*
D03*
X182880Y126310D02*
D03*
Y109910D02*
D03*
X527706Y537068D02*
D03*
Y553468D02*
D03*
Y570280D02*
D03*
Y586680D02*
D03*
X513540Y626220D02*
D03*
Y642620D02*
D03*
X114760Y626220D02*
D03*
Y642620D02*
D03*
X350980Y419330D02*
D03*
Y435730D02*
D03*
X507190Y210930D02*
D03*
Y227330D02*
D03*
X314150Y210930D02*
D03*
Y227330D02*
D03*
X121110Y210930D02*
D03*
Y227330D02*
D03*
X188420Y419210D02*
D03*
Y435610D02*
D03*
X495760Y642620D02*
D03*
Y626220D02*
D03*
X96980Y642620D02*
D03*
Y626220D02*
D03*
X333200Y435730D02*
D03*
Y419330D02*
D03*
X489410Y227330D02*
D03*
Y210930D02*
D03*
X296370Y227330D02*
D03*
Y210930D02*
D03*
X103330Y227330D02*
D03*
Y210930D02*
D03*
X170640Y435610D02*
D03*
Y419210D02*
D03*
X513660Y775970D02*
D03*
Y759570D02*
D03*
X114880Y775970D02*
D03*
Y759570D02*
D03*
X351100Y569080D02*
D03*
Y552680D02*
D03*
X507310Y360680D02*
D03*
Y344280D02*
D03*
X314270Y360680D02*
D03*
Y344280D02*
D03*
X121230Y360680D02*
D03*
Y344280D02*
D03*
X188540Y568960D02*
D03*
Y552560D02*
D03*
X495880Y759570D02*
D03*
Y775970D02*
D03*
X97100Y759570D02*
D03*
Y775970D02*
D03*
X333320Y552680D02*
D03*
Y569080D02*
D03*
X489530Y344280D02*
D03*
Y360680D02*
D03*
X296490Y344280D02*
D03*
Y360680D02*
D03*
X103450Y344280D02*
D03*
Y360680D02*
D03*
X170760Y552560D02*
D03*
Y568960D02*
D03*
X476710Y626220D02*
D03*
Y642620D02*
D03*
X77930Y626220D02*
D03*
Y642620D02*
D03*
X314150Y419330D02*
D03*
Y435730D02*
D03*
X470360Y210930D02*
D03*
Y227330D02*
D03*
X277320Y210930D02*
D03*
Y227330D02*
D03*
X84280Y210930D02*
D03*
Y227330D02*
D03*
X151590Y419210D02*
D03*
Y435610D02*
D03*
X458930Y642620D02*
D03*
Y626220D02*
D03*
X60150Y642620D02*
D03*
Y626220D02*
D03*
X296370Y435730D02*
D03*
Y419330D02*
D03*
X452580Y227330D02*
D03*
Y210930D02*
D03*
X259540Y227330D02*
D03*
Y210930D02*
D03*
X66500Y227330D02*
D03*
Y210930D02*
D03*
X133810Y435610D02*
D03*
Y419210D02*
D03*
X478100Y775970D02*
D03*
Y759570D02*
D03*
X79320Y775970D02*
D03*
Y759570D02*
D03*
X315540Y569080D02*
D03*
Y552680D02*
D03*
X471750Y360680D02*
D03*
Y344280D02*
D03*
X278710Y360680D02*
D03*
Y344280D02*
D03*
X85670Y360680D02*
D03*
Y344280D02*
D03*
X152980Y568960D02*
D03*
Y552560D02*
D03*
X460320Y759570D02*
D03*
Y775970D02*
D03*
X61540Y759570D02*
D03*
Y775970D02*
D03*
X297760Y552680D02*
D03*
Y569080D02*
D03*
X453970Y344280D02*
D03*
Y360680D02*
D03*
X260930Y344280D02*
D03*
Y360680D02*
D03*
X67890Y344280D02*
D03*
Y360680D02*
D03*
X135200Y552560D02*
D03*
Y568960D02*
D03*
X215900Y794330D02*
D03*
Y777930D02*
D03*
X233680Y794330D02*
D03*
Y777930D02*
D03*
X441960Y728400D02*
D03*
Y744800D02*
D03*
X43180Y728400D02*
D03*
Y744800D02*
D03*
X279400Y521510D02*
D03*
Y537910D02*
D03*
X435610Y313110D02*
D03*
Y329510D02*
D03*
X242570Y313110D02*
D03*
Y329510D02*
D03*
X49530Y313110D02*
D03*
Y329510D02*
D03*
X116840Y521390D02*
D03*
Y537790D02*
D03*
X440690Y653470D02*
D03*
Y669870D02*
D03*
X41910Y653470D02*
D03*
Y669870D02*
D03*
X278130Y446580D02*
D03*
Y462980D02*
D03*
X434340Y238180D02*
D03*
Y254580D02*
D03*
X241300Y238180D02*
D03*
Y254580D02*
D03*
X48260Y238180D02*
D03*
Y254580D02*
D03*
X115570Y446460D02*
D03*
Y462860D02*
D03*
X424180Y728400D02*
D03*
Y744800D02*
D03*
X25400Y728400D02*
D03*
Y744800D02*
D03*
X261620Y521510D02*
D03*
Y537910D02*
D03*
X417830Y313110D02*
D03*
Y329510D02*
D03*
X224790Y313110D02*
D03*
Y329510D02*
D03*
X31750Y313110D02*
D03*
Y329510D02*
D03*
X99060Y521390D02*
D03*
Y537790D02*
D03*
X422910Y653470D02*
D03*
Y669870D02*
D03*
X24130Y653470D02*
D03*
Y669870D02*
D03*
X260350Y446580D02*
D03*
Y462980D02*
D03*
X416560Y238180D02*
D03*
Y254580D02*
D03*
X223520Y238180D02*
D03*
Y254580D02*
D03*
X30480Y238180D02*
D03*
Y254580D02*
D03*
X97790Y446460D02*
D03*
Y462860D02*
D03*
X273050Y787980D02*
D03*
Y771580D02*
D03*
X255270D02*
D03*
Y787980D02*
D03*
D22*
X161870Y130810D02*
D03*
X145470D02*
D03*
X410900D02*
D03*
X427300D02*
D03*
X410900Y50800D02*
D03*
X427300D02*
D03*
X161870D02*
D03*
X145470D02*
D03*
X220290Y166370D02*
D03*
X203890D02*
D03*
X174570Y91440D02*
D03*
X158170D02*
D03*
X225370Y19050D02*
D03*
X208970D02*
D03*
X361840Y759920D02*
D03*
X345440D02*
D03*
Y742140D02*
D03*
X361840D02*
D03*
X212090Y760040D02*
D03*
X228490D02*
D03*
Y742260D02*
D03*
X212090D02*
D03*
X361840Y723090D02*
D03*
X345440D02*
D03*
Y705310D02*
D03*
X361840D02*
D03*
X212090Y724480D02*
D03*
X228490D02*
D03*
Y706700D02*
D03*
X212090D02*
D03*
X547950Y772160D02*
D03*
X531550D02*
D03*
X149170D02*
D03*
X132770D02*
D03*
X385390Y565270D02*
D03*
X368990D02*
D03*
X541600Y356870D02*
D03*
X525200D02*
D03*
X348560D02*
D03*
X332160D02*
D03*
X155520D02*
D03*
X139120D02*
D03*
X222830Y565150D02*
D03*
X206430D02*
D03*
X547950Y754380D02*
D03*
X531550D02*
D03*
X149170D02*
D03*
X132770D02*
D03*
X385390Y547490D02*
D03*
X368990D02*
D03*
X541600Y339090D02*
D03*
X525200D02*
D03*
X348560D02*
D03*
X332160D02*
D03*
X155520D02*
D03*
X139120D02*
D03*
X222830Y547370D02*
D03*
X206430D02*
D03*
X259660Y688340D02*
D03*
X243260D02*
D03*
X334590Y687070D02*
D03*
X318190D02*
D03*
X259660Y670560D02*
D03*
X243260D02*
D03*
X334590Y669290D02*
D03*
X318190D02*
D03*
X541600Y715010D02*
D03*
X525200D02*
D03*
X142820D02*
D03*
X126420D02*
D03*
X379040Y508120D02*
D03*
X362640D02*
D03*
X535250Y299720D02*
D03*
X518850D02*
D03*
X342210D02*
D03*
X325810D02*
D03*
X149170D02*
D03*
X132770D02*
D03*
X216480Y508000D02*
D03*
X200080D02*
D03*
X525200Y732790D02*
D03*
X541600D02*
D03*
X126420D02*
D03*
X142820D02*
D03*
X362640Y525900D02*
D03*
X379040D02*
D03*
X518850Y317500D02*
D03*
X535250D02*
D03*
X325810D02*
D03*
X342210D02*
D03*
X132770D02*
D03*
X149170D02*
D03*
X200080Y525780D02*
D03*
X216480D02*
D03*
D23*
X544130Y554640D02*
D03*
Y537640D02*
D03*
D25*
X237490Y166490D02*
D03*
Y181490D02*
D03*
X458470Y554870D02*
D03*
Y539870D02*
D03*
X544130Y586660D02*
D03*
Y571660D02*
D03*
X330780Y755990D02*
D03*
Y740990D02*
D03*
X243150Y756110D02*
D03*
Y741110D02*
D03*
X330780Y724240D02*
D03*
Y709240D02*
D03*
X243150Y724360D02*
D03*
Y709360D02*
D03*
X302260Y670680D02*
D03*
Y685680D02*
D03*
X288290Y762120D02*
D03*
Y777120D02*
D03*
D26*
X477750Y582650D02*
D03*
X504470D02*
D03*
X423520Y706120D02*
D03*
X450240D02*
D03*
X24740D02*
D03*
X51460D02*
D03*
X260960Y499230D02*
D03*
X287680D02*
D03*
X417170Y290830D02*
D03*
X443890D02*
D03*
X224130D02*
D03*
X250850D02*
D03*
X31090D02*
D03*
X57810D02*
D03*
X98400Y499110D02*
D03*
X125120D02*
D03*
X520040Y678180D02*
D03*
X546760D02*
D03*
X121260D02*
D03*
X147980D02*
D03*
X357480Y471290D02*
D03*
X384200D02*
D03*
X513690Y262890D02*
D03*
X540410D02*
D03*
X320650D02*
D03*
X347370D02*
D03*
X127610D02*
D03*
X154330D02*
D03*
X194920Y471170D02*
D03*
X221640D02*
D03*
D27*
X439420Y534010D02*
D03*
Y560730D02*
D03*
X281940Y669900D02*
D03*
Y696620D02*
D03*
X309880Y766420D02*
D03*
Y793140D02*
D03*
D28*
X254120Y166370D02*
D03*
X269120D02*
D03*
X232290Y96520D02*
D03*
X217290D02*
D03*
X250310D02*
D03*
X265310D02*
D03*
X209670Y34290D02*
D03*
X224670D02*
D03*
X219590Y181610D02*
D03*
X204590D02*
D03*
X509610Y657280D02*
D03*
X494610D02*
D03*
X110830D02*
D03*
X95830D02*
D03*
X347050Y450390D02*
D03*
X332050D02*
D03*
X503260Y241990D02*
D03*
X488260D02*
D03*
X310220D02*
D03*
X295220D02*
D03*
X117180D02*
D03*
X102180D02*
D03*
X184490Y450270D02*
D03*
X169490D02*
D03*
X509730Y744910D02*
D03*
X494730D02*
D03*
X110950D02*
D03*
X95950D02*
D03*
X347170Y538020D02*
D03*
X332170D02*
D03*
X503380Y329620D02*
D03*
X488380D02*
D03*
X310340D02*
D03*
X295340D02*
D03*
X117300D02*
D03*
X102300D02*
D03*
X184610Y537900D02*
D03*
X169610D02*
D03*
X477860Y657280D02*
D03*
X462860D02*
D03*
X79080D02*
D03*
X64080D02*
D03*
X315300Y450390D02*
D03*
X300300D02*
D03*
X471510Y241990D02*
D03*
X456510D02*
D03*
X278470D02*
D03*
X263470D02*
D03*
X85430D02*
D03*
X70430D02*
D03*
X152740Y450270D02*
D03*
X137740D02*
D03*
X477980Y744910D02*
D03*
X462980D02*
D03*
X79200D02*
D03*
X64200D02*
D03*
X315420Y538020D02*
D03*
X300420D02*
D03*
X471630Y329620D02*
D03*
X456630D02*
D03*
X278590D02*
D03*
X263590D02*
D03*
X85550D02*
D03*
X70550D02*
D03*
X152860Y537900D02*
D03*
X137860D02*
D03*
X424300Y685800D02*
D03*
X439300D02*
D03*
X25520D02*
D03*
X40520D02*
D03*
X261740Y478910D02*
D03*
X276740D02*
D03*
X417950Y270510D02*
D03*
X432950D02*
D03*
X224910D02*
D03*
X239910D02*
D03*
X31870D02*
D03*
X46870D02*
D03*
X99180Y478790D02*
D03*
X114180D02*
D03*
X515740Y699770D02*
D03*
X530740D02*
D03*
X116960D02*
D03*
X131960D02*
D03*
X353180Y492880D02*
D03*
X368180D02*
D03*
X509390Y284480D02*
D03*
X524390D02*
D03*
X316350D02*
D03*
X331350D02*
D03*
X123310D02*
D03*
X138310D02*
D03*
X190620Y492760D02*
D03*
X205620D02*
D03*
D42*
X188849Y79756D02*
D03*
X202692Y51308D02*
D03*
X216535Y79756D02*
D03*
X230378Y51308D02*
D03*
X244221Y79756D02*
D03*
X258064Y51308D02*
D03*
X271907Y79756D02*
D03*
X285750Y51308D02*
D03*
X299593Y79756D02*
D03*
X313436Y51308D02*
D03*
X327279Y79756D02*
D03*
X341122Y51308D02*
D03*
X354965Y79756D02*
D03*
X368808Y51308D02*
D03*
X382651Y79756D02*
D03*
X188849Y147320D02*
D03*
X202692Y118872D02*
D03*
X216535Y147320D02*
D03*
X230378Y118872D02*
D03*
X244221Y147320D02*
D03*
X258064Y118872D02*
D03*
X271907Y147320D02*
D03*
X285750Y118872D02*
D03*
X299593Y147320D02*
D03*
X313436Y118872D02*
D03*
X327279Y147320D02*
D03*
X341122Y118872D02*
D03*
X354965Y147320D02*
D03*
X368808Y118872D02*
D03*
X382651Y147320D02*
D03*
D46*
X495300Y554870D02*
D03*
D47*
X435610Y388620D02*
X474980D01*
X477520Y455930D02*
X486410D01*
X476250Y454660D02*
X477520Y455930D01*
X486410D02*
Y474980D01*
X474980Y388620D02*
X486410Y400050D01*
Y455930D01*
Y474980D02*
X497840Y486410D01*
X271907Y79756D02*
Y147320D01*
X299847Y175260D01*
X336550D01*
X383540Y222250D01*
Y346492D01*
X386080Y347980D02*
X426720Y388620D01*
X435610D01*
X497840Y486410D02*
X520700D01*
X544130Y509840D01*
Y537640D01*
Y554640D02*
X553370D01*
X560070Y561340D01*
Y581660D01*
X555070Y586660D02*
X560070Y581660D01*
X544130Y586660D02*
X555070D01*
X527726D02*
X544130D01*
X508500Y586680D02*
X527706D01*
X507300Y564870D02*
Y579820D01*
D48*
X498230Y512920D02*
D03*
X491230D02*
D03*
X494730Y520420D02*
D03*
Y505420D02*
D03*
X491800Y554870D02*
D03*
X498800D02*
D03*
X495300Y562370D02*
D03*
Y547370D02*
D03*
D49*
X452374Y131318D02*
D03*
X119126D02*
D03*
X452374Y51308D02*
D03*
X119126D02*
D03*
D50*
X527050Y444500D02*
D03*
X44450D02*
D03*
X527050Y63500D02*
D03*
X44450D02*
D03*
D51*
X45720Y367030D02*
D03*
X37020Y366955D02*
D03*
X500380Y283210D02*
D03*
Y290830D02*
D03*
Y297180D02*
D03*
X499110Y306070D02*
D03*
X495300Y300990D02*
D03*
X302260D02*
D03*
X306070Y306070D02*
D03*
X307340Y298450D02*
D03*
Y290830D02*
D03*
Y283210D02*
D03*
X114300D02*
D03*
Y290830D02*
D03*
Y298450D02*
D03*
X113030Y306070D02*
D03*
X109220Y300990D02*
D03*
X344170Y491490D02*
D03*
Y499110D02*
D03*
Y506730D02*
D03*
X342900Y514350D02*
D03*
X339090Y509270D02*
D03*
X176530D02*
D03*
X180340Y514350D02*
D03*
X182880Y506730D02*
D03*
X181610Y499110D02*
D03*
Y491490D02*
D03*
X501650Y718820D02*
D03*
X505460Y722630D02*
D03*
X506730Y715010D02*
D03*
X256540Y572890D02*
D03*
X506730Y699770D02*
D03*
X266700Y751840D02*
D03*
X274320Y753110D02*
D03*
X289560D02*
D03*
X270510Y748030D02*
D03*
X281940Y753110D02*
D03*
X107950Y698500D02*
D03*
Y713740D02*
D03*
X506730Y707390D02*
D03*
X102870Y717550D02*
D03*
X107950Y706120D02*
D03*
X106680Y722630D02*
D03*
X137160Y657860D02*
D03*
X34290Y760730D02*
D03*
X64770Y788670D02*
D03*
X54610Y678180D02*
D03*
X46990Y778510D02*
D03*
X143510Y695960D02*
D03*
X87630Y767080D02*
D03*
X53340Y685800D02*
D03*
X105410Y729070D02*
D03*
X107950Y690880D02*
D03*
X73660Y707390D02*
D03*
X469317Y548640D02*
D03*
X440690Y588010D02*
D03*
X433070D02*
D03*
X425450Y595630D02*
D03*
X440690D02*
D03*
X425450Y588010D02*
D03*
X433070Y595630D02*
D03*
X541020Y601980D02*
D03*
X476250Y454660D02*
D03*
X203200Y88900D02*
D03*
X219710Y195580D02*
D03*
X416560Y346710D02*
D03*
X562610Y317500D02*
D03*
X401320Y261620D02*
D03*
X562610Y309880D02*
D03*
X401320Y254000D02*
D03*
Y269240D02*
D03*
X364490Y317500D02*
D03*
X356870D02*
D03*
X207010Y254000D02*
D03*
Y261620D02*
D03*
Y269240D02*
D03*
X13970Y254000D02*
D03*
Y261620D02*
D03*
Y269240D02*
D03*
X170180Y309880D02*
D03*
Y317500D02*
D03*
X248920Y532130D02*
D03*
Y539750D02*
D03*
X74930Y403860D02*
D03*
X82550D02*
D03*
X87630Y408940D02*
D03*
X243840Y389890D02*
D03*
Y397510D02*
D03*
Y405130D02*
D03*
X394970Y518160D02*
D03*
Y525780D02*
D03*
X558800Y725170D02*
D03*
Y732790D02*
D03*
X433070Y604520D02*
D03*
X425450D02*
D03*
Y612140D02*
D03*
X377190Y669290D02*
D03*
Y676910D02*
D03*
X369570Y669290D02*
D03*
X256540Y803910D02*
D03*
X248920D02*
D03*
X516890Y505460D02*
D03*
Y520700D02*
D03*
X396240Y621030D02*
D03*
Y613410D02*
D03*
X388620D02*
D03*
Y621030D02*
D03*
X381000D02*
D03*
X373380D02*
D03*
X365760D02*
D03*
X381000Y628650D02*
D03*
X373380D02*
D03*
X365760D02*
D03*
X471170Y467360D02*
D03*
X462280D02*
D03*
X453390D02*
D03*
X444500D02*
D03*
X471170Y474980D02*
D03*
X462280D02*
D03*
X453390D02*
D03*
X444500D02*
D03*
X153670Y732790D02*
D03*
X161290D02*
D03*
X12065Y662305D02*
D03*
Y669925D02*
D03*
Y677545D02*
D03*
X496570Y532130D02*
D03*
Y539750D02*
D03*
X210820Y450850D02*
D03*
X217170Y488950D02*
D03*
X181610Y483870D02*
D03*
X179070Y522060D02*
D03*
X107950Y553720D02*
D03*
X120650Y571500D02*
D03*
X138430Y581660D02*
D03*
X127000Y478790D02*
D03*
X161290Y560070D02*
D03*
X147320Y500380D02*
D03*
X128270Y471170D02*
D03*
X339090Y656590D02*
D03*
X481330Y615950D02*
D03*
X88900Y554990D02*
D03*
X326390Y656590D02*
D03*
X209550Y683260D02*
D03*
Y674370D02*
D03*
X351790Y656590D02*
D03*
X295910D02*
D03*
X279110Y35015D02*
D03*
X281940Y27940D02*
D03*
X474980Y200660D02*
D03*
X139120Y370260D02*
D03*
X97790Y554990D02*
D03*
X88900Y200660D02*
D03*
X132770Y785550D02*
D03*
X299720Y622300D02*
D03*
X290830D02*
D03*
X271780Y656590D02*
D03*
X275590Y624840D02*
D03*
X313690D02*
D03*
X316230Y589280D02*
D03*
X325120D02*
D03*
X394970Y593090D02*
D03*
X397574Y585929D02*
D03*
X368990Y578660D02*
D03*
X414020Y762000D02*
D03*
X283210Y591820D02*
D03*
X276860Y584200D02*
D03*
X344170Y589280D02*
D03*
X334010D02*
D03*
X200653Y589289D02*
D03*
X207793Y576758D02*
D03*
X251460Y555110D02*
D03*
X260350D02*
D03*
X220980Y589280D02*
D03*
X256540Y581660D02*
D03*
X241291Y589271D02*
D03*
X251460Y589280D02*
D03*
X231140D02*
D03*
X212090D02*
D03*
X407670Y346710D02*
D03*
X332160Y370260D02*
D03*
X447040Y262890D02*
D03*
X490220Y200660D02*
D03*
X466090Y292100D02*
D03*
X529590Y242570D02*
D03*
X535940Y280670D02*
D03*
X500380Y275590D02*
D03*
X480060Y351790D02*
D03*
X439420Y363220D02*
D03*
X445770Y270510D02*
D03*
X497840Y313780D02*
D03*
X525200Y370260D02*
D03*
X426720Y345440D02*
D03*
X457200Y373380D02*
D03*
X171207Y408697D02*
D03*
X156210Y408940D02*
D03*
X330200Y782320D02*
D03*
X227330Y679450D02*
D03*
X372110Y742950D02*
D03*
X199390Y709930D02*
D03*
X309880Y699770D02*
D03*
X372110Y727710D02*
D03*
X209550Y692150D02*
D03*
X202510Y777930D02*
D03*
X292100Y788670D02*
D03*
X220980Y732790D02*
D03*
X302260Y698500D02*
D03*
X258990Y750570D02*
D03*
X297180Y753110D02*
D03*
X280670Y718820D02*
D03*
X535940Y657860D02*
D03*
X433070Y760730D02*
D03*
X496570Y615950D02*
D03*
X463550Y788670D02*
D03*
X453390Y678180D02*
D03*
X422910Y762000D02*
D03*
X445770Y778510D02*
D03*
X531550Y785550D02*
D03*
X542290Y695960D02*
D03*
X486410Y767080D02*
D03*
X452120Y685800D02*
D03*
X504190Y729070D02*
D03*
X506730Y690880D02*
D03*
X472440Y707390D02*
D03*
X97790Y615950D02*
D03*
X15240Y762000D02*
D03*
X82550Y615950D02*
D03*
X24130Y762000D02*
D03*
X373380Y450970D02*
D03*
X270510Y553840D02*
D03*
X334010Y409060D02*
D03*
X300990Y581780D02*
D03*
X290830Y471290D02*
D03*
X318770Y409060D02*
D03*
X283210Y571620D02*
D03*
X379730Y489070D02*
D03*
X323850Y560190D02*
D03*
X289560Y478910D02*
D03*
X341630Y522180D02*
D03*
X344170Y483990D02*
D03*
X309880Y500500D02*
D03*
X80010Y292100D02*
D03*
X111760Y313780D02*
D03*
X59690Y270510D02*
D03*
X53340Y363220D02*
D03*
X60960Y262890D02*
D03*
X71120Y373380D02*
D03*
X143510Y242570D02*
D03*
X93980Y351790D02*
D03*
X149860Y280670D02*
D03*
X114300Y275590D02*
D03*
X104140Y200660D02*
D03*
X40640Y345440D02*
D03*
X336550Y242570D02*
D03*
X233680Y345440D02*
D03*
X297180Y200660D02*
D03*
X214630Y346710D02*
D03*
X264160Y373380D02*
D03*
X254000Y262890D02*
D03*
X281940Y200660D02*
D03*
X223520Y346710D02*
D03*
X246380Y363220D02*
D03*
X342900Y280670D02*
D03*
X287020Y351790D02*
D03*
X252730Y270510D02*
D03*
X304800Y313780D02*
D03*
X307340Y275590D02*
D03*
X273050Y292100D02*
D03*
X184150Y610870D02*
D03*
D52*
X38195Y360047D02*
Y365436D01*
X35963Y357816D02*
X38195Y360047D01*
X44545Y365511D02*
X45720Y366686D01*
Y367030D01*
X37020Y366611D02*
X38195Y365436D01*
X44545Y357417D02*
Y365511D01*
X38593Y351466D02*
X44545Y357417D01*
X37020Y366611D02*
Y366955D01*
X263525Y596073D02*
Y605902D01*
X258445Y583565D02*
Y592173D01*
X261620Y572770D02*
X264795Y575945D01*
X263525Y596073D02*
X264795Y594804D01*
Y575945D02*
Y594804D01*
X257175Y593443D02*
X258445Y592173D01*
X256540Y572770D02*
X261620D01*
X257175Y593443D02*
Y605902D01*
X256540Y581660D02*
X258445Y583565D01*
X416560Y346710D02*
X431715Y331555D01*
X433565D01*
X415785D02*
X417830Y329510D01*
X407670Y346620D02*
X415115Y339175D01*
Y331555D02*
X417160Y329510D01*
X415115Y331555D02*
Y339175D01*
X407670Y346620D02*
Y346710D01*
X417160Y329510D02*
X417830D01*
X433565Y331555D02*
X435610Y329510D01*
X240525Y331555D02*
X242570Y329510D01*
X223520Y346710D02*
X238675Y331555D01*
X240525D01*
X222075D02*
X224120Y329510D01*
X222075Y331555D02*
Y339175D01*
X214630Y346620D02*
X222075Y339175D01*
X224120Y329510D02*
X224790D01*
X214630Y346620D02*
Y346710D01*
X34925Y343073D02*
Y347807D01*
Y343073D02*
X38424Y339573D01*
X34925Y347807D02*
X38583Y351466D01*
X47485Y331555D02*
X49530Y329510D01*
X38424Y339178D02*
Y339573D01*
Y339178D02*
X46047Y331555D01*
X47485D01*
X38583Y351466D02*
X38593D01*
X31750Y329510D02*
X32074Y329834D01*
X28575Y340443D02*
X32074Y336943D01*
X28575Y340443D02*
Y350438D01*
X32074Y329834D02*
Y336943D01*
X28575Y350438D02*
X35953Y357816D01*
X35963D01*
X277355Y539955D02*
X279400Y537910D01*
X275505Y539955D02*
X277355D01*
X260350Y555110D02*
X275505Y539955D01*
X260950Y537910D02*
X261620D01*
X258905Y539955D02*
X260950Y537910D01*
X258905Y539955D02*
Y547575D01*
X251460Y555020D02*
X258905Y547575D01*
X251460Y555020D02*
Y555110D01*
X439915Y746845D02*
X441960Y744800D01*
X438065Y746845D02*
X439915D01*
X422910Y762000D02*
X438065Y746845D01*
X423510Y744800D02*
X424180D01*
X421465Y746845D02*
X423510Y744800D01*
X421465Y746845D02*
Y754465D01*
X414020Y761910D02*
X421465Y754465D01*
X414020Y761910D02*
Y762000D01*
X241215Y686295D02*
X243260Y688340D01*
X241215Y684857D02*
Y686295D01*
X233592Y677234D02*
X241215Y684857D01*
X233197Y677234D02*
X233592D01*
X229697Y673735D02*
X233197Y677234D01*
X224963Y673735D02*
X229697D01*
X217106Y681592D02*
X224963Y673735D01*
X211853Y681592D02*
X217106D01*
X210820Y682625D02*
X211853Y681592D01*
X209464Y674919D02*
X209769Y674613D01*
X242936Y670884D02*
X243260Y670560D01*
X235827Y670884D02*
X242936D01*
X232327Y667385D02*
X235827Y670884D01*
X222332Y667385D02*
X232327D01*
X214476Y675242D02*
X222332Y667385D01*
X210765Y675242D02*
X214476D01*
X210137Y674613D02*
X210765Y675242D01*
X209769Y674613D02*
X210137D01*
X41135Y746845D02*
X43180Y744800D01*
X24130Y762000D02*
X39285Y746845D01*
X41135D01*
X24730Y744800D02*
X25400D01*
X22685Y746845D02*
X24730Y744800D01*
X15240Y761910D02*
X22685Y754465D01*
X15240Y761910D02*
Y762000D01*
X22685Y746845D02*
Y754465D01*
X114795Y539835D02*
X116840Y537790D01*
X112945Y539835D02*
X114795D01*
X97790Y554990D02*
X112945Y539835D01*
X96345D02*
X98390Y537790D01*
X99060D01*
X96345Y539835D02*
Y547455D01*
X88900Y554900D02*
X96345Y547455D01*
X88900Y554900D02*
Y554990D01*
X299720Y621956D02*
Y622300D01*
Y621956D02*
X301625Y620051D01*
Y605902D02*
Y620051D01*
X290830Y622300D02*
X291073Y622057D01*
Y621069D02*
Y622057D01*
Y621069D02*
X295275Y616867D01*
Y605902D02*
Y616867D01*
X316230Y589280D02*
Y589624D01*
X314325Y591529D02*
X316230Y589624D01*
X314325Y591529D02*
Y605902D01*
X324877Y589523D02*
X325120Y589280D01*
X324877Y589523D02*
Y590511D01*
X320675Y594713D02*
X324877Y590511D01*
X320675Y594713D02*
Y605902D01*
X276225Y585179D02*
X276860Y584544D01*
X282575Y592799D02*
X283210Y592164D01*
X282575Y592799D02*
Y605902D01*
X283210Y591820D02*
Y592164D01*
X276225Y585179D02*
Y605902D01*
X276860Y584200D02*
Y584544D01*
X334010Y589280D02*
Y589624D01*
X333375Y590259D02*
X334010Y589624D01*
X333375Y590259D02*
Y605902D01*
X339725Y599902D02*
Y605902D01*
Y599902D02*
X339820Y599807D01*
X339725Y593725D02*
X344170Y589280D01*
X339725Y593725D02*
Y599902D01*
X200653Y589289D02*
Y589632D01*
X200025Y590261D02*
X200653Y589632D01*
X200025Y590261D02*
Y605902D01*
X212090Y589280D02*
Y589624D01*
X206470Y595244D02*
X212090Y589624D01*
X206470Y595244D02*
Y599807D01*
X206375Y599902D02*
X206470Y599807D01*
X206375Y599902D02*
Y605902D01*
X219075Y591185D02*
Y605902D01*
X225425Y595239D02*
Y605902D01*
Y595239D02*
X231140Y589524D01*
X219075Y591185D02*
X220980Y589280D01*
X231140D02*
Y589524D01*
X251161Y589280D02*
X251460D01*
X244475Y595966D02*
X251161Y589280D01*
X241291Y589271D02*
Y589615D01*
X238125Y592781D02*
X241291Y589615D01*
X238125Y592781D02*
Y605902D01*
X244475Y595966D02*
Y605902D01*
D54*
X193675Y606000D02*
D03*
Y642000D02*
D03*
X200025Y606000D02*
D03*
Y642000D02*
D03*
X206375Y606000D02*
D03*
Y642000D02*
D03*
X212725Y606000D02*
D03*
Y642000D02*
D03*
X219075Y606000D02*
D03*
Y642000D02*
D03*
X225425Y606000D02*
D03*
Y642000D02*
D03*
X231775Y606000D02*
D03*
Y642000D02*
D03*
X238125Y606000D02*
D03*
Y642000D02*
D03*
X244475Y606000D02*
D03*
Y642000D02*
D03*
X250825Y606000D02*
D03*
Y642000D02*
D03*
X257175Y606000D02*
D03*
Y642000D02*
D03*
X263525Y606000D02*
D03*
Y642000D02*
D03*
X269875Y606000D02*
D03*
Y642000D02*
D03*
X276225Y606000D02*
D03*
Y642000D02*
D03*
X282575Y606000D02*
D03*
Y642000D02*
D03*
X288925Y606000D02*
D03*
Y642000D02*
D03*
X295275Y606000D02*
D03*
Y642000D02*
D03*
X301625Y606000D02*
D03*
Y642000D02*
D03*
X307975Y606000D02*
D03*
Y642000D02*
D03*
X314325Y606000D02*
D03*
Y642000D02*
D03*
X320675Y606000D02*
D03*
Y642000D02*
D03*
X327025Y606000D02*
D03*
Y642000D02*
D03*
X333375Y606000D02*
D03*
Y642000D02*
D03*
X339725Y606000D02*
D03*
Y642000D02*
D03*
X346075Y606000D02*
D03*
Y642000D02*
D03*
X352425Y606000D02*
D03*
Y642000D02*
D03*
X358775Y606000D02*
D03*
Y642000D02*
D03*
X365125Y606000D02*
D03*
Y642000D02*
D03*
X371475Y606000D02*
D03*
Y642000D02*
D03*
X377825Y606000D02*
D03*
Y642000D02*
D03*
M02*
