M48
;Layer_Color=9474304
;FILE_FORMAT=4:4
METRIC,LZ
;TYPE=PLATED
T01F00S00C0.2540
T02F00S00C0.3810
T03F00S00C1.1938
T04F00S00C3.0480
T05F00S00C3.1750
;TYPE=NON_PLATED
T06F00S00C0.8900
%
T01
X0048895Y0001524
X00508
X0052705
X005461
X00555625Y0003429
X00498475
X00479425
X0048895Y0005334
X00479425Y0007239
X0048895Y0009144
X00517525Y0011049
X00536575
X00555625
X005461Y0012954
X0052705
X00555625Y0014859
X00508Y0016764
X0048895
X00498475Y0018669
X00517525
X0052705Y0020574
X00536575Y0022479
X0052959Y0024257
X0053594Y0028067
X0050038Y0028321
Y0029083
Y0029718
X004953Y0030099
X0049911Y0030607
X0049784Y0031378
X0052705Y0032004
X0056261Y003175
Y0030988
X0050038Y0027559
X0049022Y0020066
X00479425Y0014859
X0048006Y0035179
X005252Y0037026
X0047879Y0037973
X0047371Y0038481
X0045085Y0038735
X0044323
X0043942Y0036322
X004318Y0035814
X0042672Y0034544
X0041656Y0034671
X0040767
X00403225Y0033909
Y0030099
X0040259Y0026924
Y0026162
Y00254
X00403225Y0022479
X00422275
X00441325
Y0018669
X00460375
X004699Y0016764
X004318
X0041275
X00422275Y0018669
X00403225
X0041275Y0020574
X003937
X003556
X0033655
X00346075Y0022479
X00365125
X0037465Y0024384
X003556
X0033655Y0024257
X003429Y0028067
X003556Y0028194
X0037465
X00365125Y0030099
X0036449Y003175
X0035687
X0037465Y0032004
X00365125Y0033909
X0037465Y0035814
X0033216Y0037026
X00307975Y0037719
X00288925
X0028702Y0035179
X0026416Y0037338
X0024638Y0036322
X00231775Y0037719
X0023368Y0034544
X0022352Y0034671
X0021463
X00212725Y0033909
X002032Y0035814
X00193675Y0037719
X00155575
X0013912Y0037026
X00117475Y0037719
X00098425
X0009398Y0035179
X0011176Y0031378
X0011303Y0030607
X001143Y0029845
Y0029083
Y0028321
Y0027559
X0010922Y0030099
X0014986Y0028067
X001651Y0028194
X00174625Y0030099
X0017018Y0030988
Y003175
X00174625Y0033909
X001651Y0035814
X002032Y0032004
X00212725Y0030099
X002032Y0028194
X0020701Y0026924
Y0026162
Y00254
X002032Y0024384
X00212725Y0022479
X00231775
X00250825
Y0018669
X00269875
X0028194Y0020066
X0029718
X00327025Y0018669
X00365125
Y0026289
X00307975
X0030734Y0027559
Y0028321
Y0029083
Y0029845
X0030226Y0030099
X0030607Y0030607
X003048Y0031378
X0027305Y002921
X0025273Y0027051
X00254Y0026289
X00174625
X001651Y0024384
X0014351Y0024257
X00136525Y0022479
X00155575
X00174625
X001651Y0020574
X0014605
X00155575Y0018669
X00174625
X0018415Y0016764
X001651
X0014605
X00155575Y0014859
X00174625
X00155575Y0011049
X00136525
X0014605Y0009144
X00155575Y0007239
X00174625
X0018415Y0005334
Y0001524
X001651
X0014605
X00127
X0010795
X000889
X00098425Y0003429
X000889Y0005334
X00098425Y0007239
X000889Y0009144
Y0012954
X00098425Y0014859
X0010795Y0016764
X000889
Y0020066
X0010414
X00117475Y0018669
X00136525
X002032Y0020574
X0022225
X0021971Y0019558
X002413Y0012954
X002032Y000889
X00288925Y0007239
X0027911Y00035015
X0028194Y0002794
X002794Y0001524
X0029845
X003175
X0033655
X003556
X0037465
X003937
X0041275
X004318
X0045085
X004699
X00422275Y0003429
X00403225
X00384175
X00365125
X00346075
X00327025
X00307975
X003556Y0005334
X003937
Y0009144
X0041275
X004318
X0047498Y0020066
X0044704Y0026289
X0044577Y0027051
X0046609Y002921
X004572Y0037338
X00155575Y0003429
X00136525
X00079375
X0006985Y0001524
X000508
X0003175
X000127
X00022225Y0003429
X000127Y0009144
X00022225Y0011049
X00041275
X00060325
X0006985Y0009144
X00079375Y0007239
Y0014859
X00060325
X0006985Y0016764
X000508
X00060325Y0018669
X00079375
X00041275
Y0022479
X000127Y0024384
X0001397Y00254
Y0026162
Y0026924
X000127Y0028194
Y0032004
Y0035814
X0003702Y00366955
X0004572Y0036703
X0005334Y0036322
X0007112Y0037338
X0004064Y0034544
X0008001Y002921
X0005969Y0027051
X0006096Y0026289
X000127Y0020574
Y0016764
X00022225Y0014859
X0003175Y0012954
X000127
Y0039624
X0003175
X00022225Y0041529
X0007493Y0040386
X0005461Y0049149
X00041275
X00022225
X0001905Y0050546
X0001143
X000127Y0047244
X00022225Y0052959
X00041275
X00060325
X0006096Y0049911
X00060325Y0056769
X0003937Y0057277
X0003175
X00022225Y0056769
X0002159Y005842
X0001651
X00022225Y0060579
X000127Y0062484
X000508
X0004953Y0059563
X0004191
X000127Y0054864
X00012065Y00662305
Y00669925
Y00677545
X000127Y0070104
Y0073914
X0001524Y00762
X0002413
X0003429Y0076073
X0004699Y0077851
X000127Y0077724
X0007366Y0070739
X0005334Y006858
X0005461Y0067818
X0010795Y0069088
Y006985
Y0070612
Y0071374
X0010287Y0071755
X0010668Y0072263
X0010541Y0072907
X0015367Y0073279
X0016129
X001651Y0073914
X0016383Y0071247
X0015748
X00155575Y0072009
X0014351Y0069596
X0016256Y006731
X0016002Y0065024
X001524Y0065151
X0013716Y0065786
X00136525Y0064389
X0017526Y0062484
X0018161
X0018923Y0062357
X0018415Y0060452
X0019939Y00589291
X0020574Y0058928
X0021717
X0022733
X0023876
X0024384Y0058166
X0026035Y0058547
Y005767
Y0055511
X0025146Y0055441
X0024892Y0053975
Y0053213
X0027051Y0055384
X0028321Y0057162
X00288925Y0056769
X0030099Y0058178
X0031623Y0058928
X0032512
X0033401
X0034417
X0036899Y0057866
X00397574Y00585929
X0039497Y0059309
X0039624Y0061341
X0038862
Y0062103
X0039624
X00381
X0037338
X0036576
Y0062865
X0037338
X00381
X0037719Y0066929
Y0067691
X00384175Y0068199
X0036957Y0066929
X0035179Y0065659
X0033909
X0032639
X0029591
X0027178
X0027559Y0062484
X0029083Y006223
X0029972
X0031369Y0062484
X0025654Y006223
X0025019
X0024384
X0024892Y0062865
X0025654
X00235889Y00626276
X0022733Y0062611
X0021971
X0021209Y0062484
X0020955Y0067437
Y0068326
Y0069215
X002032Y0070104
X0019939Y0070993
X0022098Y0073279
X00193675Y0075819
X0020251Y0077793
X001651Y0077724
X0013277Y0078555
X0008763Y0076708
X0008255Y0061595
X0009779
X000889Y0058674
Y0055499
X0009779
X0010795Y0055372
X0012065Y005715
X0013843Y0058166
X0016129Y0056007
X0017907Y0052206
X0018034Y0051435
X0017653Y0050927
X0018288Y0050673
X0018161Y0049911
Y0049149
Y0048387
X0021717Y0048895
X0021082Y0045085
X0020574Y004318
X00171207Y00408697
X0015621Y0040894
X0008763
X0008255Y0040386
X0012827Y0047117
X00127Y0047879
X0014732Y0050038
X00207793Y0057531
X0027686Y005842
X0028321Y0059182
X0032385Y0056019
X0034163Y0052218
X003429Y0051435
X0034417Y0050673
Y0049911
Y0049149
Y0048399
X0033909Y0050927
X0030988Y005005
X0028956Y0047891
X0029083Y0047129
X0031877Y0040906
X0033401
X00365125Y0041529
X0037338Y0045097
X00384175Y0045339
X0038354Y0044323
X0039116
X0039878
X0040513Y0044831
X0041402Y0043307
X0041275Y0039624
X0040259Y0040513
X00456629Y00399351
X0046863Y0038989
X0047879Y0042799
Y0043561
X0047244Y0045212
Y0045974
Y0046736
Y0047498
X0047498Y0048641
X0046482Y0045974
Y0045212
X0043688Y0047117
Y0048006
X0043434Y0048895
X0043561Y0049657
X00460375Y0052959
X00469317Y0054864
X00460375Y0056769
X0044069Y0058801
X0043307
X0042545
Y0059563
X0043307
X0044069
X0043307Y0060452
X0042545
Y0061214
X0040513Y0057658
Y0056896
X00404397Y00560332
X0039878Y0054356
X0039497Y0052578
Y0051816
X0037973Y0048907
X0040005Y0047371
X0024384Y0040513
Y0040005
Y0038989
X0022733Y0067945
X0028067Y0071882
X0028194Y0075311
X0027432
X002667Y0075184
X0027051Y0074803
X0025899Y0075057
X0028956Y0075311
X0029718
X0029845Y0077724
X003302Y0078232
X0033655Y0077724
X003556
X0037465
X003937
X00384175Y0075819
X0037211Y0074295
Y0072771
X0041402Y00762
X0042291
X0043307Y0076073
X0044577Y0077851
X0047244Y0070739
X0045212Y006858
X0045339Y0067818
X0030988Y0069977
X0030226Y006985
X0050673Y0069977
Y0070739
Y0071501
X0050165Y0071882
X0050546Y0072263
X0050419Y0072907
X0050673Y0069088
X0054229Y0069596
X005461Y0066294
X0053594Y0065786
X00536575Y0064389
X00555625
X005461Y0062484
X0052705
X00517525Y0060579
X00498475
X0049657Y0061595
X0048133
X004953Y0056237
X004918Y0055487
X004988
X004953Y0054737
X0049657Y0053975
Y0053213
X0049473Y0052042
X0049823Y0051292
X0049123
X0049473Y0050542
X00517525Y0056769
X0054102Y0060198
X00555625Y0060579
X005588Y0072517
Y0073279
X0053155Y0078555
X0048641Y0076708
X0049276Y0042037
Y0041275
X0050292Y0040894
X0053848Y004064
X00536575Y0079629
X00555625
X00498475
X00479425
X0046355Y0078867
X00441325Y0079629
X00422275
X00384175
X00365125
X00346075
X00327025
X00288925
X002921Y0078867
X0025654Y0080391
X0024892
X00193675Y0079629
X0006477Y0078867
X00022225Y0079629
T02
X0037084Y0040767
X00383032
X0054102Y0061722
T03
X00202692Y00051308
X00230378
X00258064
X0028575
X00313436
X00341122
X00368808
X00382651Y00079756
X00354965
X00327279
X00299593
X00271907
X00244221
X00216535
X00188849
X00202692Y00118872
X00230378
X00258064
X0028575
X00313436
X00341122
X00368808
X00382651Y0014732
X00354965
X00327279
X00299593
X00271907
X00244221
X00216535
X00188849
T04
X00119126Y00051308
Y00131318
X00452374
Y00051308
T05
X0052705Y000635
X0004445
Y004445
X0052705
T06
X00183Y00635
X003885
M30
